  0
SECTION
  2
HEADER
  9
$ACADVER
  1
AC1009
  9
$EXTMIN
 10
0.0
 20
0.0
 30
0.0
  9
$EXTMAX
 10
1000.0
 20
1000.0
 30
0.0
  9
$FILLMODE
 70
 0
  9
$SPLFRAME
 70
 1
  0
ENDSEC
  0
SECTION
  2
TABLES
  0
TABLE
  2
LAYER
 70
1
  0
LAYER
  2
0
 70
     0
 62
     7
  6
CONTINUOUS
  0
ENDTAB
  0
ENDSEC
  0
SECTION
  2
ENTITIES
  0
LINE
  8
0
 62
     0
 10
163.208
 20
144.373
 30
0.0
 11
163.599
 21
144.359
 31
0.0
  0
LINE
  8
0
 62
     0
 10
163.599
 20
144.359
 30
0.0
 11
163.989
 21
144.314
 31
0.0
  0
LINE
  8
0
 62
     0
 10
163.989
 20
144.314
 30
0.0
 11
164.375
 21
144.236
 31
0.0
  0
LINE
  8
0
 62
     0
 10
164.375
 20
144.236
 30
0.0
 11
164.753
 21
144.131
 31
0.0
  0
LINE
  8
0
 62
     0
 10
164.753
 20
144.131
 30
0.0
 11
165.121
 21
143.993
 31
0.0
  0
LINE
  8
0
 62
     0
 10
165.121
 20
143.993
 30
0.0
 11
165.477
 21
143.83
 31
0.0
  0
LINE
  8
0
 62
     0
 10
165.477
 20
143.83
 30
0.0
 11
165.819
 21
143.638
 31
0.0
  0
LINE
  8
0
 62
     0
 10
165.819
 20
143.638
 30
0.0
 11
166.147
 21
143.419
 31
0.0
  0
LINE
  8
0
 62
     0
 10
166.147
 20
143.419
 30
0.0
 11
166.455
 21
143.178
 31
0.0
  0
LINE
  8
0
 62
     0
 10
166.455
 20
143.178
 30
0.0
 11
166.744
 21
142.911
 31
0.0
  0
LINE
  8
0
 62
     0
 10
166.744
 20
142.911
 30
0.0
 11
167.01
 21
142.623
 31
0.0
  0
LINE
  8
0
 62
     0
 10
167.01
 20
142.623
 30
0.0
 11
167.253
 21
142.314
 31
0.0
  0
LINE
  8
0
 62
     0
 10
167.253
 20
142.314
 30
0.0
 11
167.47
 21
141.987
 31
0.0
  0
LINE
  8
0
 62
     0
 10
167.47
 20
141.987
 30
0.0
 11
167.663
 21
141.643
 31
0.0
  0
LINE
  8
0
 62
     0
 10
167.663
 20
141.643
 30
0.0
 11
167.827
 21
141.288
 31
0.0
  0
LINE
  8
0
 62
     0
 10
167.827
 20
141.288
 30
0.0
 11
167.962
 21
140.92
 31
0.0
  0
LINE
  8
0
 62
     0
 10
167.962
 20
140.92
 30
0.0
 11
168.07
 21
140.541
 31
0.0
  0
LINE
  8
0
 62
     0
 10
168.07
 20
140.541
 30
0.0
 11
168.146
 21
140.156
 31
0.0
  0
LINE
  8
0
 62
     0
 10
168.146
 20
140.156
 30
0.0
 11
168.192
 21
139.767
 31
0.0
  0
LINE
  8
0
 62
     0
 10
168.192
 20
139.767
 30
0.0
 11
168.208
 21
139.375
 31
0.0
  0
LINE
  8
0
 62
     0
 10
168.208
 20
139.375
 30
0.0
 11
168.208
 21
5.07256
 31
0.0
  0
LINE
  8
0
 62
     0
 10
168.208
 20
5.07256
 30
0.0
 11
168.192
 21
4.68118
 31
0.0
  0
LINE
  8
0
 62
     0
 10
168.192
 20
4.68118
 30
0.0
 11
168.146
 21
4.29122
 31
0.0
  0
LINE
  8
0
 62
     0
 10
168.146
 20
4.29122
 30
0.0
 11
168.07
 21
3.90673
 31
0.0
  0
LINE
  8
0
 62
     0
 10
168.07
 20
3.90673
 30
0.0
 11
167.962
 21
3.52778
 31
0.0
  0
LINE
  8
0
 62
     0
 10
167.962
 20
3.52778
 30
0.0
 11
167.827
 21
3.15984
 31
0.0
  0
LINE
  8
0
 62
     0
 10
167.827
 20
3.15984
 30
0.0
 11
167.663
 21
2.80431
 31
0.0
  0
LINE
  8
0
 62
     0
 10
167.663
 20
2.80431
 30
0.0
 11
167.47
 21
2.46118
 31
0.0
  0
LINE
  8
0
 62
     0
 10
167.47
 20
2.46118
 30
0.0
 11
167.253
 21
2.13458
 31
0.0
  0
LINE
  8
0
 62
     0
 10
167.253
 20
2.13458
 30
0.0
 11
167.01
 21
1.8259
 31
0.0
  0
LINE
  8
0
 62
     0
 10
167.01
 20
1.8259
 30
0.0
 11
166.744
 21
1.53927
 31
0.0
  0
LINE
  8
0
 62
     0
 10
166.744
 20
1.53927
 30
0.0
 11
166.455
 21
1.27193
 31
0.0
  0
LINE
  8
0
 62
     0
 10
166.455
 20
1.27193
 30
0.0
 11
166.147
 21
1.02802
 31
0.0
  0
LINE
  8
0
 62
     0
 10
166.147
 20
1.02802
 30
0.0
 11
165.819
 21
0.808909
 31
0.0
  0
LINE
  8
0
 62
     0
 10
165.819
 20
0.808909
 30
0.0
 11
165.477
 21
0.617361
 31
0.0
  0
LINE
  8
0
 62
     0
 10
165.477
 20
0.617361
 30
0.0
 11
165.121
 21
0.454752
 31
0.0
  0
LINE
  8
0
 62
     0
 10
165.121
 20
0.454752
 30
0.0
 11
164.753
 21
0.318327
 31
0.0
  0
LINE
  8
0
 62
     0
 10
164.753
 20
0.318327
 30
0.0
 11
164.375
 21
0.212218
 31
0.0
  0
LINE
  8
0
 62
     0
 10
164.375
 20
0.212218
 30
0.0
 11
163.989
 21
0.13367
 31
0.0
  0
LINE
  8
0
 62
     0
 10
163.989
 20
0.13367
 30
0.0
 11
163.599
 21
0.0881944
 31
0.0
  0
LINE
  8
0
 62
     0
 10
163.599
 20
0.0881944
 30
0.0
 11
163.208
 21
0.0730359
 31
0.0
  0
LINE
  8
0
 62
     0
 10
163.208
 20
0.0730359
 30
0.0
 11
5.0946
 21
0.0730359
 31
0.0
  0
LINE
  8
0
 62
     0
 10
5.0946
 20
0.0730359
 30
0.0
 11
4.70186
 21
0.0881944
 31
0.0
  0
LINE
  8
0
 62
     0
 10
4.70186
 20
0.0881944
 30
0.0
 11
4.3119
 21
0.13367
 31
0.0
  0
LINE
  8
0
 62
     0
 10
4.3119
 20
0.13367
 30
0.0
 11
3.9274
 21
0.212218
 31
0.0
  0
LINE
  8
0
 62
     0
 10
3.9274
 20
0.212218
 30
0.0
 11
3.54845
 21
0.318327
 31
0.0
  0
LINE
  8
0
 62
     0
 10
3.54845
 20
0.318327
 30
0.0
 11
3.18051
 21
0.454752
 31
0.0
  0
LINE
  8
0
 62
     0
 10
3.18051
 20
0.454752
 30
0.0
 11
2.82498
 21
0.617361
 31
0.0
  0
LINE
  8
0
 62
     0
 10
2.82498
 20
0.617361
 30
0.0
 11
2.48185
 21
0.808909
 31
0.0
  0
LINE
  8
0
 62
     0
 10
2.48185
 20
0.808909
 30
0.0
 11
2.15525
 21
1.02802
 31
0.0
  0
LINE
  8
0
 62
     0
 10
2.15525
 20
1.02802
 30
0.0
 11
1.84657
 21
1.27193
 31
0.0
  0
LINE
  8
0
 62
     0
 10
1.84657
 20
1.27193
 30
0.0
 11
1.55856
 21
1.53927
 31
0.0
  0
LINE
  8
0
 62
     0
 10
1.55856
 20
1.53927
 30
0.0
 11
1.29122
 21
1.8259
 31
0.0
  0
LINE
  8
0
 62
     0
 10
1.29122
 20
1.8259
 30
0.0
 11
1.04869
 21
2.13458
 31
0.0
  0
LINE
  8
0
 62
     0
 10
1.04869
 20
2.13458
 30
0.0
 11
0.830957
 21
2.46118
 31
0.0
  0
LINE
  8
0
 62
     0
 10
0.830957
 20
2.46118
 30
0.0
 11
0.63941
 21
2.80431
 31
0.0
  0
LINE
  8
0
 62
     0
 10
0.63941
 20
2.80431
 30
0.0
 11
0.475424
 21
3.15984
 31
0.0
  0
LINE
  8
0
 62
     0
 10
0.475424
 20
3.15984
 30
0.0
 11
0.338998
 21
3.52778
 31
0.0
  0
LINE
  8
0
 62
     0
 10
0.338998
 20
3.52778
 30
0.0
 11
0.232888
 21
3.90673
 31
0.0
  0
LINE
  8
0
 62
     0
 10
0.232888
 20
3.90673
 30
0.0
 11
0.155718
 21
4.29122
 31
0.0
  0
LINE
  8
0
 62
     0
 10
0.155718
 20
4.29122
 30
0.0
 11
0.110243
 21
4.68118
 31
0.0
  0
LINE
  8
0
 62
     0
 10
0.110243
 20
4.68118
 30
0.0
 11
0.0937066
 21
5.07393
 31
0.0
  0
LINE
  8
0
 62
     0
 10
0.0937066
 20
5.07393
 30
0.0
 11
0.0950846
 21
139.375
 31
0.0
  0
LINE
  8
0
 62
     0
 10
0.0950846
 20
139.375
 30
0.0
 11
0.110243
 21
139.767
 31
0.0
  0
LINE
  8
0
 62
     0
 10
0.110243
 20
139.767
 30
0.0
 11
0.155718
 21
140.156
 31
0.0
  0
LINE
  8
0
 62
     0
 10
0.155718
 20
140.156
 30
0.0
 11
0.232888
 21
140.541
 31
0.0
  0
LINE
  8
0
 62
     0
 10
0.232888
 20
140.541
 30
0.0
 11
0.338998
 21
140.92
 31
0.0
  0
LINE
  8
0
 62
     0
 10
0.338998
 20
140.92
 30
0.0
 11
0.475424
 21
141.288
 31
0.0
  0
LINE
  8
0
 62
     0
 10
0.475424
 20
141.288
 30
0.0
 11
0.63941
 21
141.643
 31
0.0
  0
LINE
  8
0
 62
     0
 10
0.63941
 20
141.643
 30
0.0
 11
0.830957
 21
141.987
 31
0.0
  0
LINE
  8
0
 62
     0
 10
0.830957
 20
141.987
 30
0.0
 11
1.04869
 21
142.314
 31
0.0
  0
LINE
  8
0
 62
     0
 10
1.04869
 20
142.314
 30
0.0
 11
1.29122
 21
142.623
 31
0.0
  0
LINE
  8
0
 62
     0
 10
1.29122
 20
142.623
 30
0.0
 11
1.55856
 21
142.911
 31
0.0
  0
LINE
  8
0
 62
     0
 10
1.55856
 20
142.911
 30
0.0
 11
1.84657
 21
143.178
 31
0.0
  0
LINE
  8
0
 62
     0
 10
1.84657
 20
143.178
 30
0.0
 11
2.15525
 21
143.419
 31
0.0
  0
LINE
  8
0
 62
     0
 10
2.15525
 20
143.419
 30
0.0
 11
2.48185
 21
143.638
 31
0.0
  0
LINE
  8
0
 62
     0
 10
2.48185
 20
143.638
 30
0.0
 11
2.82498
 21
143.83
 31
0.0
  0
LINE
  8
0
 62
     0
 10
2.82498
 20
143.83
 30
0.0
 11
3.18051
 21
143.993
 31
0.0
  0
LINE
  8
0
 62
     0
 10
3.18051
 20
143.993
 30
0.0
 11
3.54845
 21
144.131
 31
0.0
  0
LINE
  8
0
 62
     0
 10
3.54845
 20
144.131
 30
0.0
 11
3.9274
 21
144.236
 31
0.0
  0
LINE
  8
0
 62
     0
 10
3.9274
 20
144.236
 30
0.0
 11
4.3119
 21
144.314
 31
0.0
  0
LINE
  8
0
 62
     0
 10
4.3119
 20
144.314
 30
0.0
 11
4.70186
 21
144.359
 31
0.0
  0
LINE
  8
0
 62
     0
 10
4.70186
 20
144.359
 30
0.0
 11
5.0946
 21
144.374
 31
0.0
  0
LINE
  8
0
 62
     0
 10
5.0946
 20
144.374
 30
0.0
 11
163.208
 21
144.373
 31
0.0
  0
LINE
  8
0
 62
     0
 10
120.013
 20
31.6012
 30
0.0
 11
120.013
 21
30.6007
 31
0.0
  0
LINE
  8
0
 62
     0
 10
120.013
 20
30.6007
 30
0.0
 11
119.213
 21
30.6007
 31
0.0
  0
LINE
  8
0
 62
     0
 10
119.213
 20
30.6007
 30
0.0
 11
119.213
 21
27.5001
 31
0.0
  0
LINE
  8
0
 62
     0
 10
119.213
 20
27.5001
 30
0.0
 11
120.013
 21
27.5001
 31
0.0
  0
LINE
  8
0
 62
     0
 10
120.013
 20
27.5001
 30
0.0
 11
120.013
 21
26.8979
 31
0.0
  0
LINE
  8
0
 62
     0
 10
120.013
 20
26.8979
 30
0.0
 11
118.488
 21
26.8979
 31
0.0
  0
LINE
  8
0
 62
     0
 10
118.488
 20
26.8979
 30
0.0
 11
118.488
 21
30.1308
 31
0.0
  0
LINE
  8
0
 62
     0
 10
118.488
 20
30.1308
 30
0.0
 11
116.762
 21
30.1308
 31
0.0
  0
LINE
  8
0
 62
     0
 10
116.762
 20
30.1308
 30
0.0
 11
116.762
 21
31.0499
 31
0.0
  0
LINE
  8
0
 62
     0
 10
116.762
 20
31.0499
 30
0.0
 11
113.462
 21
31.0499
 31
0.0
  0
LINE
  8
0
 62
     0
 10
113.462
 20
31.0499
 30
0.0
 11
113.462
 21
30.1308
 31
0.0
  0
LINE
  8
0
 62
     0
 10
113.462
 20
30.1308
 30
0.0
 11
111.738
 21
30.1308
 31
0.0
  0
LINE
  8
0
 62
     0
 10
111.738
 20
30.1308
 30
0.0
 11
111.738
 21
26.8979
 31
0.0
  0
LINE
  8
0
 62
     0
 10
111.738
 20
26.8979
 30
0.0
 11
110.913
 21
26.8979
 31
0.0
  0
LINE
  8
0
 62
     0
 10
110.913
 20
26.8979
 30
0.0
 11
110.913
 21
24.1005
 31
0.0
  0
LINE
  8
0
 62
     0
 10
110.913
 20
24.1005
 30
0.0
 11
111.738
 21
24.1005
 31
0.0
  0
LINE
  8
0
 62
     0
 10
111.738
 20
24.1005
 30
0.0
 11
111.738
 21
17.8291
 31
0.0
  0
LINE
  8
0
 62
     0
 10
111.738
 20
17.8291
 30
0.0
 11
113.462
 21
17.8291
 31
0.0
  0
LINE
  8
0
 62
     0
 10
113.462
 20
17.8291
 30
0.0
 11
113.462
 21
16.8506
 31
0.0
  0
LINE
  8
0
 62
     0
 10
113.462
 20
16.8506
 30
0.0
 11
116.762
 21
16.8506
 31
0.0
  0
LINE
  8
0
 62
     0
 10
116.762
 20
16.8506
 30
0.0
 11
116.762
 21
17.8291
 31
0.0
  0
LINE
  8
0
 62
     0
 10
116.762
 20
17.8291
 30
0.0
 11
118.488
 21
17.8291
 31
0.0
  0
LINE
  8
0
 62
     0
 10
118.488
 20
17.8291
 30
0.0
 11
118.488
 21
22.2994
 31
0.0
  0
LINE
  8
0
 62
     0
 10
118.488
 20
22.2994
 30
0.0
 11
120.013
 21
22.2994
 31
0.0
  0
LINE
  8
0
 62
     0
 10
120.013
 20
22.2994
 30
0.0
 11
120.013
 21
21.6986
 31
0.0
  0
LINE
  8
0
 62
     0
 10
120.013
 20
21.6986
 30
0.0
 11
119.213
 21
21.6986
 31
0.0
  0
LINE
  8
0
 62
     0
 10
119.213
 20
21.6986
 30
0.0
 11
119.213
 21
18.6008
 31
0.0
  0
LINE
  8
0
 62
     0
 10
119.213
 20
18.6008
 30
0.0
 11
120.013
 21
18.6008
 31
0.0
  0
LINE
  8
0
 62
     0
 10
120.013
 20
18.6008
 30
0.0
 11
120.013
 21
17.6003
 31
0.0
  0
LINE
  8
0
 62
     0
 10
120.013
 20
17.6003
 30
0.0
 11
134.013
 21
17.6003
 31
0.0
  0
LINE
  8
0
 62
     0
 10
134.013
 20
17.6003
 30
0.0
 11
134.013
 21
18.6008
 31
0.0
  0
LINE
  8
0
 62
     0
 10
134.013
 20
18.6008
 30
0.0
 11
134.812
 21
18.6008
 31
0.0
  0
LINE
  8
0
 62
     0
 10
134.812
 20
18.6008
 30
0.0
 11
134.812
 21
21.6986
 31
0.0
  0
LINE
  8
0
 62
     0
 10
134.812
 20
21.6986
 30
0.0
 11
134.013
 21
21.6986
 31
0.0
  0
LINE
  8
0
 62
     0
 10
134.013
 20
21.6986
 30
0.0
 11
134.013
 21
22.2994
 31
0.0
  0
LINE
  8
0
 62
     0
 10
134.013
 20
22.2994
 30
0.0
 11
135.538
 21
22.2994
 31
0.0
  0
LINE
  8
0
 62
     0
 10
135.538
 20
22.2994
 30
0.0
 11
135.538
 21
17.8291
 31
0.0
  0
LINE
  8
0
 62
     0
 10
135.538
 20
17.8291
 30
0.0
 11
137.262
 21
17.8291
 31
0.0
  0
LINE
  8
0
 62
     0
 10
137.262
 20
17.8291
 30
0.0
 11
137.262
 21
16.8506
 31
0.0
  0
LINE
  8
0
 62
     0
 10
137.262
 20
16.8506
 30
0.0
 11
140.563
 21
16.8506
 31
0.0
  0
LINE
  8
0
 62
     0
 10
140.563
 20
16.8506
 30
0.0
 11
140.563
 21
17.8291
 31
0.0
  0
LINE
  8
0
 62
     0
 10
140.563
 20
17.8291
 30
0.0
 11
142.288
 21
17.8291
 31
0.0
  0
LINE
  8
0
 62
     0
 10
142.288
 20
17.8291
 30
0.0
 11
142.288
 21
24.1005
 31
0.0
  0
LINE
  8
0
 62
     0
 10
142.288
 20
24.1005
 30
0.0
 11
143.113
 21
24.1005
 31
0.0
  0
LINE
  8
0
 62
     0
 10
143.113
 20
24.1005
 30
0.0
 11
143.113
 21
26.8979
 31
0.0
  0
LINE
  8
0
 62
     0
 10
143.113
 20
26.8979
 30
0.0
 11
142.288
 21
26.8979
 31
0.0
  0
LINE
  8
0
 62
     0
 10
142.288
 20
26.8979
 30
0.0
 11
142.288
 21
30.1308
 31
0.0
  0
LINE
  8
0
 62
     0
 10
142.288
 20
30.1308
 30
0.0
 11
140.563
 21
30.1308
 31
0.0
  0
LINE
  8
0
 62
     0
 10
140.563
 20
30.1308
 30
0.0
 11
140.563
 21
31.0499
 31
0.0
  0
LINE
  8
0
 62
     0
 10
140.563
 20
31.0499
 30
0.0
 11
137.262
 21
31.0499
 31
0.0
  0
LINE
  8
0
 62
     0
 10
137.262
 20
31.0499
 30
0.0
 11
137.262
 21
30.1308
 31
0.0
  0
LINE
  8
0
 62
     0
 10
137.262
 20
30.1308
 30
0.0
 11
135.538
 21
30.1308
 31
0.0
  0
LINE
  8
0
 62
     0
 10
135.538
 20
30.1308
 30
0.0
 11
135.538
 21
26.8979
 31
0.0
  0
LINE
  8
0
 62
     0
 10
135.538
 20
26.8979
 30
0.0
 11
134.013
 21
26.8979
 31
0.0
  0
LINE
  8
0
 62
     0
 10
134.013
 20
26.8979
 30
0.0
 11
134.013
 21
27.5001
 31
0.0
  0
LINE
  8
0
 62
     0
 10
134.013
 20
27.5001
 30
0.0
 11
134.812
 21
27.5001
 31
0.0
  0
LINE
  8
0
 62
     0
 10
134.812
 20
27.5001
 30
0.0
 11
134.812
 21
30.6007
 31
0.0
  0
LINE
  8
0
 62
     0
 10
134.812
 20
30.6007
 30
0.0
 11
134.013
 21
30.6007
 31
0.0
  0
LINE
  8
0
 62
     0
 10
134.013
 20
30.6007
 30
0.0
 11
134.013
 21
31.6012
 31
0.0
  0
LINE
  8
0
 62
     0
 10
134.013
 20
31.6012
 30
0.0
 11
120.013
 21
31.6012
 31
0.0
  0
LINE
  8
0
 62
     0
 10
17.6196
 20
31.6012
 30
0.0
 11
17.6196
 21
30.6007
 31
0.0
  0
LINE
  8
0
 62
     0
 10
17.6196
 20
30.6007
 30
0.0
 11
16.819
 21
30.6007
 31
0.0
  0
LINE
  8
0
 62
     0
 10
16.819
 20
30.6007
 30
0.0
 11
16.819
 21
27.5001
 31
0.0
  0
LINE
  8
0
 62
     0
 10
16.819
 20
27.5001
 30
0.0
 11
17.6196
 21
27.5001
 31
0.0
  0
LINE
  8
0
 62
     0
 10
17.6196
 20
27.5001
 30
0.0
 11
17.6196
 21
21.6986
 31
0.0
  0
LINE
  8
0
 62
     0
 10
17.6196
 20
21.6986
 30
0.0
 11
16.819
 21
21.6986
 31
0.0
  0
LINE
  8
0
 62
     0
 10
16.819
 20
21.6986
 30
0.0
 11
16.819
 21
18.6008
 31
0.0
  0
LINE
  8
0
 62
     0
 10
16.819
 20
18.6008
 30
0.0
 11
17.6196
 21
18.6008
 31
0.0
  0
LINE
  8
0
 62
     0
 10
17.6196
 20
18.6008
 30
0.0
 11
17.6196
 21
17.6003
 31
0.0
  0
LINE
  8
0
 62
     0
 10
17.6196
 20
17.6003
 30
0.0
 11
31.6191
 21
17.6003
 31
0.0
  0
LINE
  8
0
 62
     0
 10
31.6191
 20
17.6003
 30
0.0
 11
31.6191
 21
18.6008
 31
0.0
  0
LINE
  8
0
 62
     0
 10
31.6191
 20
18.6008
 30
0.0
 11
32.4183
 21
18.6008
 31
0.0
  0
LINE
  8
0
 62
     0
 10
32.4183
 20
18.6008
 30
0.0
 11
32.4183
 21
21.6986
 31
0.0
  0
LINE
  8
0
 62
     0
 10
32.4183
 20
21.6986
 30
0.0
 11
31.6191
 21
21.6986
 31
0.0
  0
LINE
  8
0
 62
     0
 10
31.6191
 20
21.6986
 30
0.0
 11
31.6191
 21
27.5001
 31
0.0
  0
LINE
  8
0
 62
     0
 10
31.6191
 20
27.5001
 30
0.0
 11
32.4183
 21
27.5001
 31
0.0
  0
LINE
  8
0
 62
     0
 10
32.4183
 20
27.5001
 30
0.0
 11
32.4183
 21
30.6007
 31
0.0
  0
LINE
  8
0
 62
     0
 10
32.4183
 20
30.6007
 30
0.0
 11
31.6191
 21
30.6007
 31
0.0
  0
LINE
  8
0
 62
     0
 10
31.6191
 20
30.6007
 30
0.0
 11
31.6191
 21
31.6012
 31
0.0
  0
LINE
  8
0
 62
     0
 10
31.6191
 20
31.6012
 30
0.0
 11
17.6196
 21
31.6012
 31
0.0
  0
LINE
  8
0
 62
     0
 10
36.6695
 20
31.6012
 30
0.0
 11
36.6695
 21
30.6007
 31
0.0
  0
LINE
  8
0
 62
     0
 10
36.6695
 20
30.6007
 30
0.0
 11
35.8704
 21
30.6007
 31
0.0
  0
LINE
  8
0
 62
     0
 10
35.8704
 20
30.6007
 30
0.0
 11
35.8704
 21
27.5001
 31
0.0
  0
LINE
  8
0
 62
     0
 10
35.8704
 20
27.5001
 30
0.0
 11
36.6695
 21
27.5001
 31
0.0
  0
LINE
  8
0
 62
     0
 10
36.6695
 20
27.5001
 30
0.0
 11
36.6695
 21
21.6986
 31
0.0
  0
LINE
  8
0
 62
     0
 10
36.6695
 20
21.6986
 30
0.0
 11
35.8704
 21
21.6986
 31
0.0
  0
LINE
  8
0
 62
     0
 10
35.8704
 20
21.6986
 30
0.0
 11
35.8704
 21
18.6008
 31
0.0
  0
LINE
  8
0
 62
     0
 10
35.8704
 20
18.6008
 30
0.0
 11
36.6695
 21
18.6008
 31
0.0
  0
LINE
  8
0
 62
     0
 10
36.6695
 20
18.6008
 30
0.0
 11
36.6695
 21
17.6003
 31
0.0
  0
LINE
  8
0
 62
     0
 10
36.6695
 20
17.6003
 30
0.0
 11
50.6691
 21
17.6003
 31
0.0
  0
LINE
  8
0
 62
     0
 10
50.6691
 20
17.6003
 30
0.0
 11
50.6691
 21
18.6008
 31
0.0
  0
LINE
  8
0
 62
     0
 10
50.6691
 20
18.6008
 30
0.0
 11
51.4696
 21
18.6008
 31
0.0
  0
LINE
  8
0
 62
     0
 10
51.4696
 20
18.6008
 30
0.0
 11
51.4696
 21
21.6986
 31
0.0
  0
LINE
  8
0
 62
     0
 10
51.4696
 20
21.6986
 30
0.0
 11
50.6691
 21
21.6986
 31
0.0
  0
LINE
  8
0
 62
     0
 10
50.6691
 20
21.6986
 30
0.0
 11
50.6691
 21
27.5001
 31
0.0
  0
LINE
  8
0
 62
     0
 10
50.6691
 20
27.5001
 30
0.0
 11
51.4696
 21
27.5001
 31
0.0
  0
LINE
  8
0
 62
     0
 10
51.4696
 20
27.5001
 30
0.0
 11
51.4696
 21
30.6007
 31
0.0
  0
LINE
  8
0
 62
     0
 10
51.4696
 20
30.6007
 30
0.0
 11
50.6691
 21
30.6007
 31
0.0
  0
LINE
  8
0
 62
     0
 10
50.6691
 20
30.6007
 30
0.0
 11
50.6691
 21
31.6012
 31
0.0
  0
LINE
  8
0
 62
     0
 10
50.6691
 20
31.6012
 30
0.0
 11
36.6695
 21
31.6012
 31
0.0
  0
LINE
  8
0
 62
     0
 10
55.7195
 20
31.6012
 30
0.0
 11
55.7195
 21
30.6007
 31
0.0
  0
LINE
  8
0
 62
     0
 10
55.7195
 20
30.6007
 30
0.0
 11
54.9204
 21
30.6007
 31
0.0
  0
LINE
  8
0
 62
     0
 10
54.9204
 20
30.6007
 30
0.0
 11
54.9204
 21
27.5001
 31
0.0
  0
LINE
  8
0
 62
     0
 10
54.9204
 20
27.5001
 30
0.0
 11
55.7195
 21
27.5001
 31
0.0
  0
LINE
  8
0
 62
     0
 10
55.7195
 20
27.5001
 30
0.0
 11
55.7195
 21
21.6986
 31
0.0
  0
LINE
  8
0
 62
     0
 10
55.7195
 20
21.6986
 30
0.0
 11
54.9204
 21
21.6986
 31
0.0
  0
LINE
  8
0
 62
     0
 10
54.9204
 20
21.6986
 30
0.0
 11
54.9204
 21
18.6008
 31
0.0
  0
LINE
  8
0
 62
     0
 10
54.9204
 20
18.6008
 30
0.0
 11
55.7195
 21
18.6008
 31
0.0
  0
LINE
  8
0
 62
     0
 10
55.7195
 20
18.6008
 30
0.0
 11
55.7195
 21
17.6003
 31
0.0
  0
LINE
  8
0
 62
     0
 10
55.7195
 20
17.6003
 30
0.0
 11
69.7191
 21
17.6003
 31
0.0
  0
LINE
  8
0
 62
     0
 10
69.7191
 20
17.6003
 30
0.0
 11
69.7191
 21
18.6008
 31
0.0
  0
LINE
  8
0
 62
     0
 10
69.7191
 20
18.6008
 30
0.0
 11
70.5196
 21
18.6008
 31
0.0
  0
LINE
  8
0
 62
     0
 10
70.5196
 20
18.6008
 30
0.0
 11
70.5196
 21
21.6986
 31
0.0
  0
LINE
  8
0
 62
     0
 10
70.5196
 20
21.6986
 30
0.0
 11
69.7191
 21
21.6986
 31
0.0
  0
LINE
  8
0
 62
     0
 10
69.7191
 20
21.6986
 30
0.0
 11
69.7191
 21
27.5001
 31
0.0
  0
LINE
  8
0
 62
     0
 10
69.7191
 20
27.5001
 30
0.0
 11
70.5196
 21
27.5001
 31
0.0
  0
LINE
  8
0
 62
     0
 10
70.5196
 20
27.5001
 30
0.0
 11
70.5196
 21
30.6007
 31
0.0
  0
LINE
  8
0
 62
     0
 10
70.5196
 20
30.6007
 30
0.0
 11
69.7191
 21
30.6007
 31
0.0
  0
LINE
  8
0
 62
     0
 10
69.7191
 20
30.6007
 30
0.0
 11
69.7191
 21
31.6012
 31
0.0
  0
LINE
  8
0
 62
     0
 10
69.7191
 20
31.6012
 30
0.0
 11
55.7195
 21
31.6012
 31
0.0
  0
LINE
  8
0
 62
     0
 10
79.532
 20
31.6012
 30
0.0
 11
79.532
 21
30.6007
 31
0.0
  0
LINE
  8
0
 62
     0
 10
79.532
 20
30.6007
 30
0.0
 11
78.7315
 21
30.6007
 31
0.0
  0
LINE
  8
0
 62
     0
 10
78.7315
 20
30.6007
 30
0.0
 11
78.7315
 21
27.5001
 31
0.0
  0
LINE
  8
0
 62
     0
 10
78.7315
 20
27.5001
 30
0.0
 11
79.532
 21
27.5001
 31
0.0
  0
LINE
  8
0
 62
     0
 10
79.532
 20
27.5001
 30
0.0
 11
79.532
 21
21.6986
 31
0.0
  0
LINE
  8
0
 62
     0
 10
79.532
 20
21.6986
 30
0.0
 11
78.7315
 21
21.6986
 31
0.0
  0
LINE
  8
0
 62
     0
 10
78.7315
 20
21.6986
 30
0.0
 11
78.7315
 21
18.6008
 31
0.0
  0
LINE
  8
0
 62
     0
 10
78.7315
 20
18.6008
 30
0.0
 11
79.532
 21
18.6008
 31
0.0
  0
LINE
  8
0
 62
     0
 10
79.532
 20
18.6008
 30
0.0
 11
79.532
 21
17.6003
 31
0.0
  0
LINE
  8
0
 62
     0
 10
79.532
 20
17.6003
 30
0.0
 11
93.5316
 21
17.6003
 31
0.0
  0
LINE
  8
0
 62
     0
 10
93.5316
 20
17.6003
 30
0.0
 11
93.5316
 21
18.6008
 31
0.0
  0
LINE
  8
0
 62
     0
 10
93.5316
 20
18.6008
 30
0.0
 11
94.3321
 21
18.6008
 31
0.0
  0
LINE
  8
0
 62
     0
 10
94.3321
 20
18.6008
 30
0.0
 11
94.3321
 21
21.6986
 31
0.0
  0
LINE
  8
0
 62
     0
 10
94.3321
 20
21.6986
 30
0.0
 11
93.5316
 21
21.6986
 31
0.0
  0
LINE
  8
0
 62
     0
 10
93.5316
 20
21.6986
 30
0.0
 11
93.5316
 21
27.5001
 31
0.0
  0
LINE
  8
0
 62
     0
 10
93.5316
 20
27.5001
 30
0.0
 11
94.3321
 21
27.5001
 31
0.0
  0
LINE
  8
0
 62
     0
 10
94.3321
 20
27.5001
 30
0.0
 11
94.3321
 21
30.6007
 31
0.0
  0
LINE
  8
0
 62
     0
 10
94.3321
 20
30.6007
 30
0.0
 11
93.5316
 21
30.6007
 31
0.0
  0
LINE
  8
0
 62
     0
 10
93.5316
 20
30.6007
 30
0.0
 11
93.5316
 21
31.6012
 31
0.0
  0
LINE
  8
0
 62
     0
 10
93.5316
 20
31.6012
 30
0.0
 11
79.532
 21
31.6012
 31
0.0
  0
LINE
  8
0
 62
     0
 10
27.1432
 20
50.6497
 30
0.0
 11
27.1432
 21
49.6492
 31
0.0
  0
LINE
  8
0
 62
     0
 10
27.1432
 20
49.6492
 30
0.0
 11
26.344
 21
49.6492
 31
0.0
  0
LINE
  8
0
 62
     0
 10
26.344
 20
49.6492
 30
0.0
 11
26.344
 21
46.5501
 31
0.0
  0
LINE
  8
0
 62
     0
 10
26.344
 20
46.5501
 30
0.0
 11
27.1432
 21
46.5501
 31
0.0
  0
LINE
  8
0
 62
     0
 10
27.1432
 20
46.5501
 30
0.0
 11
27.1432
 21
45.9479
 31
0.0
  0
LINE
  8
0
 62
     0
 10
27.1432
 20
45.9479
 30
0.0
 11
25.6191
 21
45.9479
 31
0.0
  0
LINE
  8
0
 62
     0
 10
25.6191
 20
45.9479
 30
0.0
 11
25.6191
 21
49.1793
 31
0.0
  0
LINE
  8
0
 62
     0
 10
25.6191
 20
49.1793
 30
0.0
 11
23.8938
 21
49.1793
 31
0.0
  0
LINE
  8
0
 62
     0
 10
23.8938
 20
49.1793
 30
0.0
 11
23.8938
 21
50.1001
 31
0.0
  0
LINE
  8
0
 62
     0
 10
23.8938
 20
50.1001
 30
0.0
 11
20.5934
 21
50.1001
 31
0.0
  0
LINE
  8
0
 62
     0
 10
20.5934
 20
50.1001
 30
0.0
 11
20.5934
 21
49.1793
 31
0.0
  0
LINE
  8
0
 62
     0
 10
20.5934
 20
49.1793
 30
0.0
 11
18.8695
 21
49.1793
 31
0.0
  0
LINE
  8
0
 62
     0
 10
18.8695
 20
49.1793
 30
0.0
 11
18.8695
 21
45.9479
 31
0.0
  0
LINE
  8
0
 62
     0
 10
18.8695
 20
45.9479
 30
0.0
 11
18.044
 21
45.9479
 31
0.0
  0
LINE
  8
0
 62
     0
 10
18.044
 20
45.9479
 30
0.0
 11
18.044
 21
43.1493
 31
0.0
  0
LINE
  8
0
 62
     0
 10
18.044
 20
43.1493
 30
0.0
 11
18.8695
 21
43.1493
 31
0.0
  0
LINE
  8
0
 62
     0
 10
18.8695
 20
43.1493
 30
0.0
 11
18.8695
 21
36.879
 31
0.0
  0
LINE
  8
0
 62
     0
 10
18.8695
 20
36.879
 30
0.0
 11
20.5934
 21
36.879
 31
0.0
  0
LINE
  8
0
 62
     0
 10
20.5934
 20
36.879
 30
0.0
 11
20.5934
 21
35.898
 31
0.0
  0
LINE
  8
0
 62
     0
 10
20.5934
 20
35.898
 30
0.0
 11
23.8938
 21
35.898
 31
0.0
  0
LINE
  8
0
 62
     0
 10
23.8938
 20
35.898
 30
0.0
 11
23.8938
 21
36.879
 31
0.0
  0
LINE
  8
0
 62
     0
 10
23.8938
 20
36.879
 30
0.0
 11
25.6191
 21
36.879
 31
0.0
  0
LINE
  8
0
 62
     0
 10
25.6191
 20
36.879
 30
0.0
 11
25.6191
 21
41.3494
 31
0.0
  0
LINE
  8
0
 62
     0
 10
25.6191
 20
41.3494
 30
0.0
 11
27.1432
 21
41.3494
 31
0.0
  0
LINE
  8
0
 62
     0
 10
27.1432
 20
41.3494
 30
0.0
 11
27.1432
 21
40.7487
 31
0.0
  0
LINE
  8
0
 62
     0
 10
27.1432
 20
40.7487
 30
0.0
 11
26.344
 21
40.7487
 31
0.0
  0
LINE
  8
0
 62
     0
 10
26.344
 20
40.7487
 30
0.0
 11
26.344
 21
37.6481
 31
0.0
  0
LINE
  8
0
 62
     0
 10
26.344
 20
37.6481
 30
0.0
 11
27.1432
 21
37.6481
 31
0.0
  0
LINE
  8
0
 62
     0
 10
27.1432
 20
37.6481
 30
0.0
 11
27.1432
 21
36.6504
 31
0.0
  0
LINE
  8
0
 62
     0
 10
27.1432
 20
36.6504
 30
0.0
 11
41.1441
 21
36.6504
 31
0.0
  0
LINE
  8
0
 62
     0
 10
41.1441
 20
36.6504
 30
0.0
 11
41.1441
 21
37.6481
 31
0.0
  0
LINE
  8
0
 62
     0
 10
41.1441
 20
37.6481
 30
0.0
 11
41.9435
 21
37.6481
 31
0.0
  0
LINE
  8
0
 62
     0
 10
41.9435
 20
37.6481
 30
0.0
 11
41.9435
 21
40.7487
 31
0.0
  0
LINE
  8
0
 62
     0
 10
41.9435
 20
40.7487
 30
0.0
 11
41.1441
 21
40.7487
 31
0.0
  0
LINE
  8
0
 62
     0
 10
41.1441
 20
40.7487
 30
0.0
 11
41.1441
 21
41.3494
 31
0.0
  0
LINE
  8
0
 62
     0
 10
41.1441
 20
41.3494
 30
0.0
 11
42.6681
 21
41.3494
 31
0.0
  0
LINE
  8
0
 62
     0
 10
42.6681
 20
41.3494
 30
0.0
 11
42.6681
 21
36.879
 31
0.0
  0
LINE
  8
0
 62
     0
 10
42.6681
 20
36.879
 30
0.0
 11
44.395
 21
36.879
 31
0.0
  0
LINE
  8
0
 62
     0
 10
44.395
 20
36.879
 30
0.0
 11
44.395
 21
35.898
 31
0.0
  0
LINE
  8
0
 62
     0
 10
44.395
 20
35.898
 30
0.0
 11
47.6938
 21
35.898
 31
0.0
  0
LINE
  8
0
 62
     0
 10
47.6938
 20
35.898
 30
0.0
 11
47.6938
 21
36.879
 31
0.0
  0
LINE
  8
0
 62
     0
 10
47.6938
 20
36.879
 30
0.0
 11
49.4192
 21
36.879
 31
0.0
  0
LINE
  8
0
 62
     0
 10
49.4192
 20
36.879
 30
0.0
 11
49.4192
 21
43.1493
 31
0.0
  0
LINE
  8
0
 62
     0
 10
49.4192
 20
43.1493
 30
0.0
 11
50.2447
 21
43.1493
 31
0.0
  0
LINE
  8
0
 62
     0
 10
50.2447
 20
43.1493
 30
0.0
 11
50.2447
 21
45.9479
 31
0.0
  0
LINE
  8
0
 62
     0
 10
50.2447
 20
45.9479
 30
0.0
 11
49.4192
 21
45.9479
 31
0.0
  0
LINE
  8
0
 62
     0
 10
49.4192
 20
45.9479
 30
0.0
 11
49.4192
 21
49.1793
 31
0.0
  0
LINE
  8
0
 62
     0
 10
49.4192
 20
49.1793
 30
0.0
 11
47.6938
 21
49.1793
 31
0.0
  0
LINE
  8
0
 62
     0
 10
47.6938
 20
49.1793
 30
0.0
 11
47.6938
 21
50.1001
 31
0.0
  0
LINE
  8
0
 62
     0
 10
47.6938
 20
50.1001
 30
0.0
 11
44.395
 21
50.1001
 31
0.0
  0
LINE
  8
0
 62
     0
 10
44.395
 20
50.1001
 30
0.0
 11
44.395
 21
49.1793
 31
0.0
  0
LINE
  8
0
 62
     0
 10
44.395
 20
49.1793
 30
0.0
 11
42.6681
 21
49.1793
 31
0.0
  0
LINE
  8
0
 62
     0
 10
42.6681
 20
49.1793
 30
0.0
 11
42.6681
 21
45.9479
 31
0.0
  0
LINE
  8
0
 62
     0
 10
42.6681
 20
45.9479
 30
0.0
 11
41.1441
 21
45.9479
 31
0.0
  0
LINE
  8
0
 62
     0
 10
41.1441
 20
45.9479
 30
0.0
 11
41.1441
 21
46.5501
 31
0.0
  0
LINE
  8
0
 62
     0
 10
41.1441
 20
46.5501
 30
0.0
 11
41.9435
 21
46.5501
 31
0.0
  0
LINE
  8
0
 62
     0
 10
41.9435
 20
46.5501
 30
0.0
 11
41.9435
 21
49.6492
 31
0.0
  0
LINE
  8
0
 62
     0
 10
41.9435
 20
49.6492
 30
0.0
 11
41.1441
 21
49.6492
 31
0.0
  0
LINE
  8
0
 62
     0
 10
41.1441
 20
49.6492
 30
0.0
 11
41.1441
 21
50.6497
 31
0.0
  0
LINE
  8
0
 62
     0
 10
41.1441
 20
50.6497
 30
0.0
 11
27.1432
 21
50.6497
 31
0.0
  0
LINE
  8
0
 62
     0
 10
55.7195
 20
50.6497
 30
0.0
 11
55.7195
 21
49.6492
 31
0.0
  0
LINE
  8
0
 62
     0
 10
55.7195
 20
49.6492
 30
0.0
 11
54.9204
 21
49.6492
 31
0.0
  0
LINE
  8
0
 62
     0
 10
54.9204
 20
49.6492
 30
0.0
 11
54.9204
 21
46.5501
 31
0.0
  0
LINE
  8
0
 62
     0
 10
54.9204
 20
46.5501
 30
0.0
 11
55.7195
 21
46.5501
 31
0.0
  0
LINE
  8
0
 62
     0
 10
55.7195
 20
46.5501
 30
0.0
 11
55.7195
 21
40.7487
 31
0.0
  0
LINE
  8
0
 62
     0
 10
55.7195
 20
40.7487
 30
0.0
 11
54.9204
 21
40.7487
 31
0.0
  0
LINE
  8
0
 62
     0
 10
54.9204
 20
40.7487
 30
0.0
 11
54.9204
 21
37.6481
 31
0.0
  0
LINE
  8
0
 62
     0
 10
54.9204
 20
37.6481
 30
0.0
 11
55.7195
 21
37.6481
 31
0.0
  0
LINE
  8
0
 62
     0
 10
55.7195
 20
37.6481
 30
0.0
 11
55.7195
 21
36.6504
 31
0.0
  0
LINE
  8
0
 62
     0
 10
55.7195
 20
36.6504
 30
0.0
 11
69.7191
 21
36.6504
 31
0.0
  0
LINE
  8
0
 62
     0
 10
69.7191
 20
36.6504
 30
0.0
 11
69.7191
 21
37.6481
 31
0.0
  0
LINE
  8
0
 62
     0
 10
69.7191
 20
37.6481
 30
0.0
 11
70.5196
 21
37.6481
 31
0.0
  0
LINE
  8
0
 62
     0
 10
70.5196
 20
37.6481
 30
0.0
 11
70.5196
 21
40.7487
 31
0.0
  0
LINE
  8
0
 62
     0
 10
70.5196
 20
40.7487
 30
0.0
 11
69.7191
 21
40.7487
 31
0.0
  0
LINE
  8
0
 62
     0
 10
69.7191
 20
40.7487
 30
0.0
 11
69.7191
 21
46.5501
 31
0.0
  0
LINE
  8
0
 62
     0
 10
69.7191
 20
46.5501
 30
0.0
 11
70.5196
 21
46.5501
 31
0.0
  0
LINE
  8
0
 62
     0
 10
70.5196
 20
46.5501
 30
0.0
 11
70.5196
 21
49.6492
 31
0.0
  0
LINE
  8
0
 62
     0
 10
70.5196
 20
49.6492
 30
0.0
 11
69.7191
 21
49.6492
 31
0.0
  0
LINE
  8
0
 62
     0
 10
69.7191
 20
49.6492
 30
0.0
 11
69.7191
 21
50.6497
 31
0.0
  0
LINE
  8
0
 62
     0
 10
69.7191
 20
50.6497
 30
0.0
 11
55.7195
 21
50.6497
 31
0.0
  0
LINE
  8
0
 62
     0
 10
74.7695
 20
50.6497
 30
0.0
 11
74.7695
 21
49.6492
 31
0.0
  0
LINE
  8
0
 62
     0
 10
74.7695
 20
49.6492
 30
0.0
 11
73.9704
 21
49.6492
 31
0.0
  0
LINE
  8
0
 62
     0
 10
73.9704
 20
49.6492
 30
0.0
 11
73.9704
 21
46.5501
 31
0.0
  0
LINE
  8
0
 62
     0
 10
73.9704
 20
46.5501
 30
0.0
 11
74.7695
 21
46.5501
 31
0.0
  0
LINE
  8
0
 62
     0
 10
74.7695
 20
46.5501
 30
0.0
 11
74.7695
 21
40.7487
 31
0.0
  0
LINE
  8
0
 62
     0
 10
74.7695
 20
40.7487
 30
0.0
 11
73.9704
 21
40.7487
 31
0.0
  0
LINE
  8
0
 62
     0
 10
73.9704
 20
40.7487
 30
0.0
 11
73.9704
 21
37.6481
 31
0.0
  0
LINE
  8
0
 62
     0
 10
73.9704
 20
37.6481
 30
0.0
 11
74.7695
 21
37.6481
 31
0.0
  0
LINE
  8
0
 62
     0
 10
74.7695
 20
37.6481
 30
0.0
 11
74.7695
 21
36.6504
 31
0.0
  0
LINE
  8
0
 62
     0
 10
74.7695
 20
36.6504
 30
0.0
 11
88.7691
 21
36.6504
 31
0.0
  0
LINE
  8
0
 62
     0
 10
88.7691
 20
36.6504
 30
0.0
 11
88.7691
 21
37.6481
 31
0.0
  0
LINE
  8
0
 62
     0
 10
88.7691
 20
37.6481
 30
0.0
 11
89.5696
 21
37.6481
 31
0.0
  0
LINE
  8
0
 62
     0
 10
89.5696
 20
37.6481
 30
0.0
 11
89.5696
 21
40.7487
 31
0.0
  0
LINE
  8
0
 62
     0
 10
89.5696
 20
40.7487
 30
0.0
 11
88.7691
 21
40.7487
 31
0.0
  0
LINE
  8
0
 62
     0
 10
88.7691
 20
40.7487
 30
0.0
 11
88.7691
 21
46.5501
 31
0.0
  0
LINE
  8
0
 62
     0
 10
88.7691
 20
46.5501
 30
0.0
 11
89.5696
 21
46.5501
 31
0.0
  0
LINE
  8
0
 62
     0
 10
89.5696
 20
46.5501
 30
0.0
 11
89.5696
 21
49.6492
 31
0.0
  0
LINE
  8
0
 62
     0
 10
89.5696
 20
49.6492
 30
0.0
 11
88.7691
 21
49.6492
 31
0.0
  0
LINE
  8
0
 62
     0
 10
88.7691
 20
49.6492
 30
0.0
 11
88.7691
 21
50.6497
 31
0.0
  0
LINE
  8
0
 62
     0
 10
88.7691
 20
50.6497
 30
0.0
 11
74.7695
 21
50.6497
 31
0.0
  0
LINE
  8
0
 62
     0
 10
93.8195
 20
50.6497
 30
0.0
 11
93.8195
 21
49.6492
 31
0.0
  0
LINE
  8
0
 62
     0
 10
93.8195
 20
49.6492
 30
0.0
 11
93.0204
 21
49.6492
 31
0.0
  0
LINE
  8
0
 62
     0
 10
93.0204
 20
49.6492
 30
0.0
 11
93.0204
 21
46.5501
 31
0.0
  0
LINE
  8
0
 62
     0
 10
93.0204
 20
46.5501
 30
0.0
 11
93.8195
 21
46.5501
 31
0.0
  0
LINE
  8
0
 62
     0
 10
93.8195
 20
46.5501
 30
0.0
 11
93.8195
 21
40.7487
 31
0.0
  0
LINE
  8
0
 62
     0
 10
93.8195
 20
40.7487
 30
0.0
 11
93.0204
 21
40.7487
 31
0.0
  0
LINE
  8
0
 62
     0
 10
93.0204
 20
40.7487
 30
0.0
 11
93.0204
 21
37.6481
 31
0.0
  0
LINE
  8
0
 62
     0
 10
93.0204
 20
37.6481
 30
0.0
 11
93.8195
 21
37.6481
 31
0.0
  0
LINE
  8
0
 62
     0
 10
93.8195
 20
37.6481
 30
0.0
 11
93.8195
 21
36.6504
 31
0.0
  0
LINE
  8
0
 62
     0
 10
93.8195
 20
36.6504
 30
0.0
 11
107.819
 21
36.6504
 31
0.0
  0
LINE
  8
0
 62
     0
 10
107.819
 20
36.6504
 30
0.0
 11
107.819
 21
37.6481
 31
0.0
  0
LINE
  8
0
 62
     0
 10
107.819
 20
37.6481
 30
0.0
 11
108.619
 21
37.6481
 31
0.0
  0
LINE
  8
0
 62
     0
 10
108.619
 20
37.6481
 30
0.0
 11
108.619
 21
40.7487
 31
0.0
  0
LINE
  8
0
 62
     0
 10
108.619
 20
40.7487
 30
0.0
 11
107.819
 21
40.7487
 31
0.0
  0
LINE
  8
0
 62
     0
 10
107.819
 20
40.7487
 30
0.0
 11
107.819
 21
46.5501
 31
0.0
  0
LINE
  8
0
 62
     0
 10
107.819
 20
46.5501
 30
0.0
 11
108.619
 21
46.5501
 31
0.0
  0
LINE
  8
0
 62
     0
 10
108.619
 20
46.5501
 30
0.0
 11
108.619
 21
49.6492
 31
0.0
  0
LINE
  8
0
 62
     0
 10
108.619
 20
49.6492
 30
0.0
 11
107.819
 21
49.6492
 31
0.0
  0
LINE
  8
0
 62
     0
 10
107.819
 20
49.6492
 30
0.0
 11
107.819
 21
50.6497
 31
0.0
  0
LINE
  8
0
 62
     0
 10
107.819
 20
50.6497
 30
0.0
 11
93.8195
 21
50.6497
 31
0.0
  0
LINE
  8
0
 62
     0
 10
112.868
 20
50.6497
 30
0.0
 11
112.868
 21
49.6492
 31
0.0
  0
LINE
  8
0
 62
     0
 10
112.868
 20
49.6492
 30
0.0
 11
112.07
 21
49.6492
 31
0.0
  0
LINE
  8
0
 62
     0
 10
112.07
 20
49.6492
 30
0.0
 11
112.07
 21
46.5501
 31
0.0
  0
LINE
  8
0
 62
     0
 10
112.07
 20
46.5501
 30
0.0
 11
112.868
 21
46.5501
 31
0.0
  0
LINE
  8
0
 62
     0
 10
112.868
 20
46.5501
 30
0.0
 11
112.868
 21
40.7487
 31
0.0
  0
LINE
  8
0
 62
     0
 10
112.868
 20
40.7487
 30
0.0
 11
112.07
 21
40.7487
 31
0.0
  0
LINE
  8
0
 62
     0
 10
112.07
 20
40.7487
 30
0.0
 11
112.07
 21
37.6481
 31
0.0
  0
LINE
  8
0
 62
     0
 10
112.07
 20
37.6481
 30
0.0
 11
112.868
 21
37.6481
 31
0.0
  0
LINE
  8
0
 62
     0
 10
112.868
 20
37.6481
 30
0.0
 11
112.868
 21
36.6504
 31
0.0
  0
LINE
  8
0
 62
     0
 10
112.868
 20
36.6504
 30
0.0
 11
126.869
 21
36.6504
 31
0.0
  0
LINE
  8
0
 62
     0
 10
126.869
 20
36.6504
 30
0.0
 11
126.869
 21
37.6481
 31
0.0
  0
LINE
  8
0
 62
     0
 10
126.869
 20
37.6481
 30
0.0
 11
127.67
 21
37.6481
 31
0.0
  0
LINE
  8
0
 62
     0
 10
127.67
 20
37.6481
 30
0.0
 11
127.67
 21
40.7487
 31
0.0
  0
LINE
  8
0
 62
     0
 10
127.67
 20
40.7487
 30
0.0
 11
126.869
 21
40.7487
 31
0.0
  0
LINE
  8
0
 62
     0
 10
126.869
 20
40.7487
 30
0.0
 11
126.869
 21
46.5501
 31
0.0
  0
LINE
  8
0
 62
     0
 10
126.869
 20
46.5501
 30
0.0
 11
127.67
 21
46.5501
 31
0.0
  0
LINE
  8
0
 62
     0
 10
127.67
 20
46.5501
 30
0.0
 11
127.67
 21
49.6492
 31
0.0
  0
LINE
  8
0
 62
     0
 10
127.67
 20
49.6492
 30
0.0
 11
126.869
 21
49.6492
 31
0.0
  0
LINE
  8
0
 62
     0
 10
126.869
 20
49.6492
 30
0.0
 11
126.869
 21
50.6497
 31
0.0
  0
LINE
  8
0
 62
     0
 10
126.869
 20
50.6497
 30
0.0
 11
112.868
 21
50.6497
 31
0.0
  0
LINE
  8
0
 62
     0
 10
131.919
 20
50.6497
 30
0.0
 11
131.919
 21
49.6492
 31
0.0
  0
LINE
  8
0
 62
     0
 10
131.919
 20
49.6492
 30
0.0
 11
131.119
 21
49.6492
 31
0.0
  0
LINE
  8
0
 62
     0
 10
131.119
 20
49.6492
 30
0.0
 11
131.119
 21
46.5501
 31
0.0
  0
LINE
  8
0
 62
     0
 10
131.119
 20
46.5501
 30
0.0
 11
131.919
 21
46.5501
 31
0.0
  0
LINE
  8
0
 62
     0
 10
131.919
 20
46.5501
 30
0.0
 11
131.919
 21
40.7487
 31
0.0
  0
LINE
  8
0
 62
     0
 10
131.919
 20
40.7487
 30
0.0
 11
131.119
 21
40.7487
 31
0.0
  0
LINE
  8
0
 62
     0
 10
131.119
 20
40.7487
 30
0.0
 11
131.119
 21
37.6481
 31
0.0
  0
LINE
  8
0
 62
     0
 10
131.119
 20
37.6481
 30
0.0
 11
131.919
 21
37.6481
 31
0.0
  0
LINE
  8
0
 62
     0
 10
131.919
 20
37.6481
 30
0.0
 11
131.919
 21
36.6504
 31
0.0
  0
LINE
  8
0
 62
     0
 10
131.919
 20
36.6504
 30
0.0
 11
145.919
 21
36.6504
 31
0.0
  0
LINE
  8
0
 62
     0
 10
145.919
 20
36.6504
 30
0.0
 11
145.919
 21
37.6481
 31
0.0
  0
LINE
  8
0
 62
     0
 10
145.919
 20
37.6481
 30
0.0
 11
146.72
 21
37.6481
 31
0.0
  0
LINE
  8
0
 62
     0
 10
146.72
 20
37.6481
 30
0.0
 11
146.72
 21
40.7487
 31
0.0
  0
LINE
  8
0
 62
     0
 10
146.72
 20
40.7487
 30
0.0
 11
145.919
 21
40.7487
 31
0.0
  0
LINE
  8
0
 62
     0
 10
145.919
 20
40.7487
 30
0.0
 11
145.919
 21
46.5501
 31
0.0
  0
LINE
  8
0
 62
     0
 10
145.919
 20
46.5501
 30
0.0
 11
146.72
 21
46.5501
 31
0.0
  0
LINE
  8
0
 62
     0
 10
146.72
 20
46.5501
 30
0.0
 11
146.72
 21
49.6492
 31
0.0
  0
LINE
  8
0
 62
     0
 10
146.72
 20
49.6492
 30
0.0
 11
145.919
 21
49.6492
 31
0.0
  0
LINE
  8
0
 62
     0
 10
145.919
 20
49.6492
 30
0.0
 11
145.919
 21
50.6497
 31
0.0
  0
LINE
  8
0
 62
     0
 10
145.919
 20
50.6497
 30
0.0
 11
131.919
 21
50.6497
 31
0.0
  0
LINE
  8
0
 62
     0
 10
22.3821
 20
69.6997
 30
0.0
 11
22.3821
 21
68.6992
 31
0.0
  0
LINE
  8
0
 62
     0
 10
22.3821
 20
68.6992
 30
0.0
 11
21.5815
 21
68.6992
 31
0.0
  0
LINE
  8
0
 62
     0
 10
21.5815
 20
68.6992
 30
0.0
 11
21.5815
 21
65.6001
 31
0.0
  0
LINE
  8
0
 62
     0
 10
21.5815
 20
65.6001
 30
0.0
 11
22.3821
 21
65.6001
 31
0.0
  0
LINE
  8
0
 62
     0
 10
22.3821
 20
65.6001
 30
0.0
 11
22.3821
 21
59.7987
 31
0.0
  0
LINE
  8
0
 62
     0
 10
22.3821
 20
59.7987
 30
0.0
 11
21.5815
 21
59.7987
 31
0.0
  0
LINE
  8
0
 62
     0
 10
21.5815
 20
59.7987
 30
0.0
 11
21.5815
 21
56.6981
 31
0.0
  0
LINE
  8
0
 62
     0
 10
21.5815
 20
56.6981
 30
0.0
 11
22.3821
 21
56.6981
 31
0.0
  0
LINE
  8
0
 62
     0
 10
22.3821
 20
56.6981
 30
0.0
 11
22.3821
 21
55.7004
 31
0.0
  0
LINE
  8
0
 62
     0
 10
22.3821
 20
55.7004
 30
0.0
 11
36.3816
 21
55.7004
 31
0.0
  0
LINE
  8
0
 62
     0
 10
36.3816
 20
55.7004
 30
0.0
 11
36.3816
 21
56.6981
 31
0.0
  0
LINE
  8
0
 62
     0
 10
36.3816
 20
56.6981
 30
0.0
 11
37.1821
 21
56.6981
 31
0.0
  0
LINE
  8
0
 62
     0
 10
37.1821
 20
56.6981
 30
0.0
 11
37.1821
 21
59.7987
 31
0.0
  0
LINE
  8
0
 62
     0
 10
37.1821
 20
59.7987
 30
0.0
 11
36.3816
 21
59.7987
 31
0.0
  0
LINE
  8
0
 62
     0
 10
36.3816
 20
59.7987
 30
0.0
 11
36.3816
 21
65.6001
 31
0.0
  0
LINE
  8
0
 62
     0
 10
36.3816
 20
65.6001
 30
0.0
 11
37.1821
 21
65.6001
 31
0.0
  0
LINE
  8
0
 62
     0
 10
37.1821
 20
65.6001
 30
0.0
 11
37.1821
 21
68.6992
 31
0.0
  0
LINE
  8
0
 62
     0
 10
37.1821
 20
68.6992
 30
0.0
 11
36.3816
 21
68.6992
 31
0.0
  0
LINE
  8
0
 62
     0
 10
36.3816
 20
68.6992
 30
0.0
 11
36.3816
 21
69.6997
 31
0.0
  0
LINE
  8
0
 62
     0
 10
36.3816
 20
69.6997
 30
0.0
 11
22.3821
 21
69.6997
 31
0.0
  0
LINE
  8
0
 62
     0
 10
50.957
 20
69.6997
 30
0.0
 11
50.957
 21
68.6992
 31
0.0
  0
LINE
  8
0
 62
     0
 10
50.957
 20
68.6992
 30
0.0
 11
50.1565
 21
68.6992
 31
0.0
  0
LINE
  8
0
 62
     0
 10
50.1565
 20
68.6992
 30
0.0
 11
50.1565
 21
65.6001
 31
0.0
  0
LINE
  8
0
 62
     0
 10
50.1565
 20
65.6001
 30
0.0
 11
50.957
 21
65.6001
 31
0.0
  0
LINE
  8
0
 62
     0
 10
50.957
 20
65.6001
 30
0.0
 11
50.957
 21
59.7987
 31
0.0
  0
LINE
  8
0
 62
     0
 10
50.957
 20
59.7987
 30
0.0
 11
50.1565
 21
59.7987
 31
0.0
  0
LINE
  8
0
 62
     0
 10
50.1565
 20
59.7987
 30
0.0
 11
50.1565
 21
56.6981
 31
0.0
  0
LINE
  8
0
 62
     0
 10
50.1565
 20
56.6981
 30
0.0
 11
50.957
 21
56.6981
 31
0.0
  0
LINE
  8
0
 62
     0
 10
50.957
 20
56.6981
 30
0.0
 11
50.957
 21
55.7004
 31
0.0
  0
LINE
  8
0
 62
     0
 10
50.957
 20
55.7004
 30
0.0
 11
64.9566
 21
55.7004
 31
0.0
  0
LINE
  8
0
 62
     0
 10
64.9566
 20
55.7004
 30
0.0
 11
64.9566
 21
56.6981
 31
0.0
  0
LINE
  8
0
 62
     0
 10
64.9566
 20
56.6981
 30
0.0
 11
65.7571
 21
56.6981
 31
0.0
  0
LINE
  8
0
 62
     0
 10
65.7571
 20
56.6981
 30
0.0
 11
65.7571
 21
59.7987
 31
0.0
  0
LINE
  8
0
 62
     0
 10
65.7571
 20
59.7987
 30
0.0
 11
64.9566
 21
59.7987
 31
0.0
  0
LINE
  8
0
 62
     0
 10
64.9566
 20
59.7987
 30
0.0
 11
64.9566
 21
65.6001
 31
0.0
  0
LINE
  8
0
 62
     0
 10
64.9566
 20
65.6001
 30
0.0
 11
65.7571
 21
65.6001
 31
0.0
  0
LINE
  8
0
 62
     0
 10
65.7571
 20
65.6001
 30
0.0
 11
65.7571
 21
68.6992
 31
0.0
  0
LINE
  8
0
 62
     0
 10
65.7571
 20
68.6992
 30
0.0
 11
64.9566
 21
68.6992
 31
0.0
  0
LINE
  8
0
 62
     0
 10
64.9566
 20
68.6992
 30
0.0
 11
64.9566
 21
69.6997
 31
0.0
  0
LINE
  8
0
 62
     0
 10
64.9566
 20
69.6997
 30
0.0
 11
50.957
 21
69.6997
 31
0.0
  0
LINE
  8
0
 62
     0
 10
70.007
 20
69.6997
 30
0.0
 11
70.007
 21
68.6992
 31
0.0
  0
LINE
  8
0
 62
     0
 10
70.007
 20
68.6992
 30
0.0
 11
69.2065
 21
68.6992
 31
0.0
  0
LINE
  8
0
 62
     0
 10
69.2065
 20
68.6992
 30
0.0
 11
69.2065
 21
65.6001
 31
0.0
  0
LINE
  8
0
 62
     0
 10
69.2065
 20
65.6001
 30
0.0
 11
70.007
 21
65.6001
 31
0.0
  0
LINE
  8
0
 62
     0
 10
70.007
 20
65.6001
 30
0.0
 11
70.007
 21
59.7987
 31
0.0
  0
LINE
  8
0
 62
     0
 10
70.007
 20
59.7987
 30
0.0
 11
69.2065
 21
59.7987
 31
0.0
  0
LINE
  8
0
 62
     0
 10
69.2065
 20
59.7987
 30
0.0
 11
69.2065
 21
56.6981
 31
0.0
  0
LINE
  8
0
 62
     0
 10
69.2065
 20
56.6981
 30
0.0
 11
70.007
 21
56.6981
 31
0.0
  0
LINE
  8
0
 62
     0
 10
70.007
 20
56.6981
 30
0.0
 11
70.007
 21
55.7004
 31
0.0
  0
LINE
  8
0
 62
     0
 10
70.007
 20
55.7004
 30
0.0
 11
84.0066
 21
55.7004
 31
0.0
  0
LINE
  8
0
 62
     0
 10
84.0066
 20
55.7004
 30
0.0
 11
84.0066
 21
56.6981
 31
0.0
  0
LINE
  8
0
 62
     0
 10
84.0066
 20
56.6981
 30
0.0
 11
84.8071
 21
56.6981
 31
0.0
  0
LINE
  8
0
 62
     0
 10
84.8071
 20
56.6981
 30
0.0
 11
84.8071
 21
59.7987
 31
0.0
  0
LINE
  8
0
 62
     0
 10
84.8071
 20
59.7987
 30
0.0
 11
84.0066
 21
59.7987
 31
0.0
  0
LINE
  8
0
 62
     0
 10
84.0066
 20
59.7987
 30
0.0
 11
84.0066
 21
65.6001
 31
0.0
  0
LINE
  8
0
 62
     0
 10
84.0066
 20
65.6001
 30
0.0
 11
84.8071
 21
65.6001
 31
0.0
  0
LINE
  8
0
 62
     0
 10
84.8071
 20
65.6001
 30
0.0
 11
84.8071
 21
68.6992
 31
0.0
  0
LINE
  8
0
 62
     0
 10
84.8071
 20
68.6992
 30
0.0
 11
84.0066
 21
68.6992
 31
0.0
  0
LINE
  8
0
 62
     0
 10
84.0066
 20
68.6992
 30
0.0
 11
84.0066
 21
69.6997
 31
0.0
  0
LINE
  8
0
 62
     0
 10
84.0066
 20
69.6997
 30
0.0
 11
70.007
 21
69.6997
 31
0.0
  0
LINE
  8
0
 62
     0
 10
89.057
 20
69.6997
 30
0.0
 11
89.057
 21
68.6992
 31
0.0
  0
LINE
  8
0
 62
     0
 10
89.057
 20
68.6992
 30
0.0
 11
88.2565
 21
68.6992
 31
0.0
  0
LINE
  8
0
 62
     0
 10
88.2565
 20
68.6992
 30
0.0
 11
88.2565
 21
65.6001
 31
0.0
  0
LINE
  8
0
 62
     0
 10
88.2565
 20
65.6001
 30
0.0
 11
89.057
 21
65.6001
 31
0.0
  0
LINE
  8
0
 62
     0
 10
89.057
 20
65.6001
 30
0.0
 11
89.057
 21
59.7987
 31
0.0
  0
LINE
  8
0
 62
     0
 10
89.057
 20
59.7987
 30
0.0
 11
88.2565
 21
59.7987
 31
0.0
  0
LINE
  8
0
 62
     0
 10
88.2565
 20
59.7987
 30
0.0
 11
88.2565
 21
56.6981
 31
0.0
  0
LINE
  8
0
 62
     0
 10
88.2565
 20
56.6981
 30
0.0
 11
89.057
 21
56.6981
 31
0.0
  0
LINE
  8
0
 62
     0
 10
89.057
 20
56.6981
 30
0.0
 11
89.057
 21
55.7004
 31
0.0
  0
LINE
  8
0
 62
     0
 10
89.057
 20
55.7004
 30
0.0
 11
103.057
 21
55.7004
 31
0.0
  0
LINE
  8
0
 62
     0
 10
103.057
 20
55.7004
 30
0.0
 11
103.057
 21
56.6981
 31
0.0
  0
LINE
  8
0
 62
     0
 10
103.057
 20
56.6981
 30
0.0
 11
103.857
 21
56.6981
 31
0.0
  0
LINE
  8
0
 62
     0
 10
103.857
 20
56.6981
 30
0.0
 11
103.857
 21
59.7987
 31
0.0
  0
LINE
  8
0
 62
     0
 10
103.857
 20
59.7987
 30
0.0
 11
103.057
 21
59.7987
 31
0.0
  0
LINE
  8
0
 62
     0
 10
103.057
 20
59.7987
 30
0.0
 11
103.057
 21
65.6001
 31
0.0
  0
LINE
  8
0
 62
     0
 10
103.057
 20
65.6001
 30
0.0
 11
103.857
 21
65.6001
 31
0.0
  0
LINE
  8
0
 62
     0
 10
103.857
 20
65.6001
 30
0.0
 11
103.857
 21
68.6992
 31
0.0
  0
LINE
  8
0
 62
     0
 10
103.857
 20
68.6992
 30
0.0
 11
103.057
 21
68.6992
 31
0.0
  0
LINE
  8
0
 62
     0
 10
103.057
 20
68.6992
 30
0.0
 11
103.057
 21
69.6997
 31
0.0
  0
LINE
  8
0
 62
     0
 10
103.057
 20
69.6997
 30
0.0
 11
89.057
 21
69.6997
 31
0.0
  0
LINE
  8
0
 62
     0
 10
108.107
 20
69.6997
 30
0.0
 11
108.107
 21
68.6992
 31
0.0
  0
LINE
  8
0
 62
     0
 10
108.107
 20
68.6992
 30
0.0
 11
107.307
 21
68.6992
 31
0.0
  0
LINE
  8
0
 62
     0
 10
107.307
 20
68.6992
 30
0.0
 11
107.307
 21
65.6001
 31
0.0
  0
LINE
  8
0
 62
     0
 10
107.307
 20
65.6001
 30
0.0
 11
108.107
 21
65.6001
 31
0.0
  0
LINE
  8
0
 62
     0
 10
108.107
 20
65.6001
 30
0.0
 11
108.107
 21
59.7987
 31
0.0
  0
LINE
  8
0
 62
     0
 10
108.107
 20
59.7987
 30
0.0
 11
107.307
 21
59.7987
 31
0.0
  0
LINE
  8
0
 62
     0
 10
107.307
 20
59.7987
 30
0.0
 11
107.307
 21
56.6981
 31
0.0
  0
LINE
  8
0
 62
     0
 10
107.307
 20
56.6981
 30
0.0
 11
108.107
 21
56.6981
 31
0.0
  0
LINE
  8
0
 62
     0
 10
108.107
 20
56.6981
 30
0.0
 11
108.107
 21
55.7004
 31
0.0
  0
LINE
  8
0
 62
     0
 10
108.107
 20
55.7004
 30
0.0
 11
122.107
 21
55.7004
 31
0.0
  0
LINE
  8
0
 62
     0
 10
122.107
 20
55.7004
 30
0.0
 11
122.107
 21
56.6981
 31
0.0
  0
LINE
  8
0
 62
     0
 10
122.107
 20
56.6981
 30
0.0
 11
122.907
 21
56.6981
 31
0.0
  0
LINE
  8
0
 62
     0
 10
122.907
 20
56.6981
 30
0.0
 11
122.907
 21
59.7987
 31
0.0
  0
LINE
  8
0
 62
     0
 10
122.907
 20
59.7987
 30
0.0
 11
122.107
 21
59.7987
 31
0.0
  0
LINE
  8
0
 62
     0
 10
122.107
 20
59.7987
 30
0.0
 11
122.107
 21
65.6001
 31
0.0
  0
LINE
  8
0
 62
     0
 10
122.107
 20
65.6001
 30
0.0
 11
122.907
 21
65.6001
 31
0.0
  0
LINE
  8
0
 62
     0
 10
122.907
 20
65.6001
 30
0.0
 11
122.907
 21
68.6992
 31
0.0
  0
LINE
  8
0
 62
     0
 10
122.907
 20
68.6992
 30
0.0
 11
122.107
 21
68.6992
 31
0.0
  0
LINE
  8
0
 62
     0
 10
122.107
 20
68.6992
 30
0.0
 11
122.107
 21
69.6997
 31
0.0
  0
LINE
  8
0
 62
     0
 10
122.107
 20
69.6997
 30
0.0
 11
108.107
 21
69.6997
 31
0.0
  0
LINE
  8
0
 62
     0
 10
129.538
 20
69.6997
 30
0.0
 11
129.538
 21
68.6992
 31
0.0
  0
LINE
  8
0
 62
     0
 10
129.538
 20
68.6992
 30
0.0
 11
128.738
 21
68.6992
 31
0.0
  0
LINE
  8
0
 62
     0
 10
128.738
 20
68.6992
 30
0.0
 11
128.738
 21
65.6001
 31
0.0
  0
LINE
  8
0
 62
     0
 10
128.738
 20
65.6001
 30
0.0
 11
129.538
 21
65.6001
 31
0.0
  0
LINE
  8
0
 62
     0
 10
129.538
 20
65.6001
 30
0.0
 11
129.538
 21
59.7987
 31
0.0
  0
LINE
  8
0
 62
     0
 10
129.538
 20
59.7987
 30
0.0
 11
128.738
 21
59.7987
 31
0.0
  0
LINE
  8
0
 62
     0
 10
128.738
 20
59.7987
 30
0.0
 11
128.738
 21
56.6981
 31
0.0
  0
LINE
  8
0
 62
     0
 10
128.738
 20
56.6981
 30
0.0
 11
129.538
 21
56.6981
 31
0.0
  0
LINE
  8
0
 62
     0
 10
129.538
 20
56.6981
 30
0.0
 11
129.538
 21
55.7004
 31
0.0
  0
LINE
  8
0
 62
     0
 10
129.538
 20
55.7004
 30
0.0
 11
143.538
 21
55.7004
 31
0.0
  0
LINE
  8
0
 62
     0
 10
143.538
 20
55.7004
 30
0.0
 11
143.538
 21
56.6981
 31
0.0
  0
LINE
  8
0
 62
     0
 10
143.538
 20
56.6981
 30
0.0
 11
144.337
 21
56.6981
 31
0.0
  0
LINE
  8
0
 62
     0
 10
144.337
 20
56.6981
 30
0.0
 11
144.337
 21
59.7987
 31
0.0
  0
LINE
  8
0
 62
     0
 10
144.337
 20
59.7987
 30
0.0
 11
143.538
 21
59.7987
 31
0.0
  0
LINE
  8
0
 62
     0
 10
143.538
 20
59.7987
 30
0.0
 11
143.538
 21
65.6001
 31
0.0
  0
LINE
  8
0
 62
     0
 10
143.538
 20
65.6001
 30
0.0
 11
144.337
 21
65.6001
 31
0.0
  0
LINE
  8
0
 62
     0
 10
144.337
 20
65.6001
 30
0.0
 11
144.337
 21
68.6992
 31
0.0
  0
LINE
  8
0
 62
     0
 10
144.337
 20
68.6992
 30
0.0
 11
143.538
 21
68.6992
 31
0.0
  0
LINE
  8
0
 62
     0
 10
143.538
 20
68.6992
 30
0.0
 11
143.538
 21
69.6997
 31
0.0
  0
LINE
  8
0
 62
     0
 10
143.538
 20
69.6997
 30
0.0
 11
129.538
 21
69.6997
 31
0.0
  0
LINE
  8
0
 62
     0
 10
22.3821
 20
88.7497
 30
0.0
 11
22.3821
 21
87.7492
 31
0.0
  0
LINE
  8
0
 62
     0
 10
22.3821
 20
87.7492
 30
0.0
 11
21.5815
 21
87.7492
 31
0.0
  0
LINE
  8
0
 62
     0
 10
21.5815
 20
87.7492
 30
0.0
 11
21.5815
 21
84.6501
 31
0.0
  0
LINE
  8
0
 62
     0
 10
21.5815
 20
84.6501
 30
0.0
 11
22.3821
 21
84.6501
 31
0.0
  0
LINE
  8
0
 62
     0
 10
22.3821
 20
84.6501
 30
0.0
 11
22.3821
 21
78.8487
 31
0.0
  0
LINE
  8
0
 62
     0
 10
22.3821
 20
78.8487
 30
0.0
 11
21.5815
 21
78.8487
 31
0.0
  0
LINE
  8
0
 62
     0
 10
21.5815
 20
78.8487
 30
0.0
 11
21.5815
 21
75.7481
 31
0.0
  0
LINE
  8
0
 62
     0
 10
21.5815
 20
75.7481
 30
0.0
 11
22.3821
 21
75.7481
 31
0.0
  0
LINE
  8
0
 62
     0
 10
22.3821
 20
75.7481
 30
0.0
 11
22.3821
 21
74.7504
 31
0.0
  0
LINE
  8
0
 62
     0
 10
22.3821
 20
74.7504
 30
0.0
 11
36.3816
 21
74.7504
 31
0.0
  0
LINE
  8
0
 62
     0
 10
36.3816
 20
74.7504
 30
0.0
 11
36.3816
 21
75.7481
 31
0.0
  0
LINE
  8
0
 62
     0
 10
36.3816
 20
75.7481
 30
0.0
 11
37.1821
 21
75.7481
 31
0.0
  0
LINE
  8
0
 62
     0
 10
37.1821
 20
75.7481
 30
0.0
 11
37.1821
 21
78.8487
 31
0.0
  0
LINE
  8
0
 62
     0
 10
37.1821
 20
78.8487
 30
0.0
 11
36.3816
 21
78.8487
 31
0.0
  0
LINE
  8
0
 62
     0
 10
36.3816
 20
78.8487
 30
0.0
 11
36.3816
 21
84.6501
 31
0.0
  0
LINE
  8
0
 62
     0
 10
36.3816
 20
84.6501
 30
0.0
 11
37.1821
 21
84.6501
 31
0.0
  0
LINE
  8
0
 62
     0
 10
37.1821
 20
84.6501
 30
0.0
 11
37.1821
 21
87.7492
 31
0.0
  0
LINE
  8
0
 62
     0
 10
37.1821
 20
87.7492
 30
0.0
 11
36.3816
 21
87.7492
 31
0.0
  0
LINE
  8
0
 62
     0
 10
36.3816
 20
87.7492
 30
0.0
 11
36.3816
 21
88.7497
 31
0.0
  0
LINE
  8
0
 62
     0
 10
36.3816
 20
88.7497
 30
0.0
 11
22.3821
 21
88.7497
 31
0.0
  0
LINE
  8
0
 62
     0
 10
46.1945
 20
88.7497
 30
0.0
 11
46.1945
 21
87.7492
 31
0.0
  0
LINE
  8
0
 62
     0
 10
46.1945
 20
87.7492
 30
0.0
 11
45.3954
 21
87.7492
 31
0.0
  0
LINE
  8
0
 62
     0
 10
45.3954
 20
87.7492
 30
0.0
 11
45.3954
 21
84.6501
 31
0.0
  0
LINE
  8
0
 62
     0
 10
45.3954
 20
84.6501
 30
0.0
 11
46.1945
 21
84.6501
 31
0.0
  0
LINE
  8
0
 62
     0
 10
46.1945
 20
84.6501
 30
0.0
 11
46.1945
 21
78.8487
 31
0.0
  0
LINE
  8
0
 62
     0
 10
46.1945
 20
78.8487
 30
0.0
 11
45.3954
 21
78.8487
 31
0.0
  0
LINE
  8
0
 62
     0
 10
45.3954
 20
78.8487
 30
0.0
 11
45.3954
 21
75.7481
 31
0.0
  0
LINE
  8
0
 62
     0
 10
45.3954
 20
75.7481
 30
0.0
 11
46.1945
 21
75.7481
 31
0.0
  0
LINE
  8
0
 62
     0
 10
46.1945
 20
75.7481
 30
0.0
 11
46.1945
 21
74.7504
 31
0.0
  0
LINE
  8
0
 62
     0
 10
46.1945
 20
74.7504
 30
0.0
 11
60.1941
 21
74.7504
 31
0.0
  0
LINE
  8
0
 62
     0
 10
60.1941
 20
74.7504
 30
0.0
 11
60.1941
 21
75.7481
 31
0.0
  0
LINE
  8
0
 62
     0
 10
60.1941
 20
75.7481
 30
0.0
 11
60.9946
 21
75.7481
 31
0.0
  0
LINE
  8
0
 62
     0
 10
60.9946
 20
75.7481
 30
0.0
 11
60.9946
 21
78.8487
 31
0.0
  0
LINE
  8
0
 62
     0
 10
60.9946
 20
78.8487
 30
0.0
 11
60.1941
 21
78.8487
 31
0.0
  0
LINE
  8
0
 62
     0
 10
60.1941
 20
78.8487
 30
0.0
 11
60.1941
 21
84.6501
 31
0.0
  0
LINE
  8
0
 62
     0
 10
60.1941
 20
84.6501
 30
0.0
 11
60.9946
 21
84.6501
 31
0.0
  0
LINE
  8
0
 62
     0
 10
60.9946
 20
84.6501
 30
0.0
 11
60.9946
 21
87.7492
 31
0.0
  0
LINE
  8
0
 62
     0
 10
60.9946
 20
87.7492
 30
0.0
 11
60.1941
 21
87.7492
 31
0.0
  0
LINE
  8
0
 62
     0
 10
60.1941
 20
87.7492
 30
0.0
 11
60.1941
 21
88.7497
 31
0.0
  0
LINE
  8
0
 62
     0
 10
60.1941
 20
88.7497
 30
0.0
 11
46.1945
 21
88.7497
 31
0.0
  0
LINE
  8
0
 62
     0
 10
65.2445
 20
88.7497
 30
0.0
 11
65.2445
 21
87.7492
 31
0.0
  0
LINE
  8
0
 62
     0
 10
65.2445
 20
87.7492
 30
0.0
 11
64.4454
 21
87.7492
 31
0.0
  0
LINE
  8
0
 62
     0
 10
64.4454
 20
87.7492
 30
0.0
 11
64.4454
 21
84.6501
 31
0.0
  0
LINE
  8
0
 62
     0
 10
64.4454
 20
84.6501
 30
0.0
 11
65.2445
 21
84.6501
 31
0.0
  0
LINE
  8
0
 62
     0
 10
65.2445
 20
84.6501
 30
0.0
 11
65.2445
 21
78.8487
 31
0.0
  0
LINE
  8
0
 62
     0
 10
65.2445
 20
78.8487
 30
0.0
 11
64.4454
 21
78.8487
 31
0.0
  0
LINE
  8
0
 62
     0
 10
64.4454
 20
78.8487
 30
0.0
 11
64.4454
 21
75.7481
 31
0.0
  0
LINE
  8
0
 62
     0
 10
64.4454
 20
75.7481
 30
0.0
 11
65.2445
 21
75.7481
 31
0.0
  0
LINE
  8
0
 62
     0
 10
65.2445
 20
75.7481
 30
0.0
 11
65.2445
 21
74.7504
 31
0.0
  0
LINE
  8
0
 62
     0
 10
65.2445
 20
74.7504
 30
0.0
 11
79.2441
 21
74.7504
 31
0.0
  0
LINE
  8
0
 62
     0
 10
79.2441
 20
74.7504
 30
0.0
 11
79.2441
 21
75.7481
 31
0.0
  0
LINE
  8
0
 62
     0
 10
79.2441
 20
75.7481
 30
0.0
 11
80.0446
 21
75.7481
 31
0.0
  0
LINE
  8
0
 62
     0
 10
80.0446
 20
75.7481
 30
0.0
 11
80.0446
 21
78.8487
 31
0.0
  0
LINE
  8
0
 62
     0
 10
80.0446
 20
78.8487
 30
0.0
 11
79.2441
 21
78.8487
 31
0.0
  0
LINE
  8
0
 62
     0
 10
79.2441
 20
78.8487
 30
0.0
 11
79.2441
 21
84.6501
 31
0.0
  0
LINE
  8
0
 62
     0
 10
79.2441
 20
84.6501
 30
0.0
 11
80.0446
 21
84.6501
 31
0.0
  0
LINE
  8
0
 62
     0
 10
80.0446
 20
84.6501
 30
0.0
 11
80.0446
 21
87.7492
 31
0.0
  0
LINE
  8
0
 62
     0
 10
80.0446
 20
87.7492
 30
0.0
 11
79.2441
 21
87.7492
 31
0.0
  0
LINE
  8
0
 62
     0
 10
79.2441
 20
87.7492
 30
0.0
 11
79.2441
 21
88.7497
 31
0.0
  0
LINE
  8
0
 62
     0
 10
79.2441
 20
88.7497
 30
0.0
 11
65.2445
 21
88.7497
 31
0.0
  0
LINE
  8
0
 62
     0
 10
84.2945
 20
88.7497
 30
0.0
 11
84.2945
 21
87.7492
 31
0.0
  0
LINE
  8
0
 62
     0
 10
84.2945
 20
87.7492
 30
0.0
 11
83.4954
 21
87.7492
 31
0.0
  0
LINE
  8
0
 62
     0
 10
83.4954
 20
87.7492
 30
0.0
 11
83.4954
 21
84.6501
 31
0.0
  0
LINE
  8
0
 62
     0
 10
83.4954
 20
84.6501
 30
0.0
 11
84.2945
 21
84.6501
 31
0.0
  0
LINE
  8
0
 62
     0
 10
84.2945
 20
84.6501
 30
0.0
 11
84.2945
 21
78.8487
 31
0.0
  0
LINE
  8
0
 62
     0
 10
84.2945
 20
78.8487
 30
0.0
 11
83.4954
 21
78.8487
 31
0.0
  0
LINE
  8
0
 62
     0
 10
83.4954
 20
78.8487
 30
0.0
 11
83.4954
 21
75.7481
 31
0.0
  0
LINE
  8
0
 62
     0
 10
83.4954
 20
75.7481
 30
0.0
 11
84.2945
 21
75.7481
 31
0.0
  0
LINE
  8
0
 62
     0
 10
84.2945
 20
75.7481
 30
0.0
 11
84.2945
 21
74.7504
 31
0.0
  0
LINE
  8
0
 62
     0
 10
84.2945
 20
74.7504
 30
0.0
 11
98.2941
 21
74.7504
 31
0.0
  0
LINE
  8
0
 62
     0
 10
98.2941
 20
74.7504
 30
0.0
 11
98.2941
 21
75.7481
 31
0.0
  0
LINE
  8
0
 62
     0
 10
98.2941
 20
75.7481
 30
0.0
 11
99.0946
 21
75.7481
 31
0.0
  0
LINE
  8
0
 62
     0
 10
99.0946
 20
75.7481
 30
0.0
 11
99.0946
 21
78.8487
 31
0.0
  0
LINE
  8
0
 62
     0
 10
99.0946
 20
78.8487
 30
0.0
 11
98.2941
 21
78.8487
 31
0.0
  0
LINE
  8
0
 62
     0
 10
98.2941
 20
78.8487
 30
0.0
 11
98.2941
 21
84.6501
 31
0.0
  0
LINE
  8
0
 62
     0
 10
98.2941
 20
84.6501
 30
0.0
 11
99.0946
 21
84.6501
 31
0.0
  0
LINE
  8
0
 62
     0
 10
99.0946
 20
84.6501
 30
0.0
 11
99.0946
 21
87.7492
 31
0.0
  0
LINE
  8
0
 62
     0
 10
99.0946
 20
87.7492
 30
0.0
 11
98.2941
 21
87.7492
 31
0.0
  0
LINE
  8
0
 62
     0
 10
98.2941
 20
87.7492
 30
0.0
 11
98.2941
 21
88.7497
 31
0.0
  0
LINE
  8
0
 62
     0
 10
98.2941
 20
88.7497
 30
0.0
 11
84.2945
 21
88.7497
 31
0.0
  0
LINE
  8
0
 62
     0
 10
103.344
 20
88.7497
 30
0.0
 11
103.344
 21
87.7492
 31
0.0
  0
LINE
  8
0
 62
     0
 10
103.344
 20
87.7492
 30
0.0
 11
102.545
 21
87.7492
 31
0.0
  0
LINE
  8
0
 62
     0
 10
102.545
 20
87.7492
 30
0.0
 11
102.545
 21
84.6501
 31
0.0
  0
LINE
  8
0
 62
     0
 10
102.545
 20
84.6501
 30
0.0
 11
103.344
 21
84.6501
 31
0.0
  0
LINE
  8
0
 62
     0
 10
103.344
 20
84.6501
 30
0.0
 11
103.344
 21
78.8487
 31
0.0
  0
LINE
  8
0
 62
     0
 10
103.344
 20
78.8487
 30
0.0
 11
102.545
 21
78.8487
 31
0.0
  0
LINE
  8
0
 62
     0
 10
102.545
 20
78.8487
 30
0.0
 11
102.545
 21
75.7481
 31
0.0
  0
LINE
  8
0
 62
     0
 10
102.545
 20
75.7481
 30
0.0
 11
103.344
 21
75.7481
 31
0.0
  0
LINE
  8
0
 62
     0
 10
103.344
 20
75.7481
 30
0.0
 11
103.344
 21
74.7504
 31
0.0
  0
LINE
  8
0
 62
     0
 10
103.344
 20
74.7504
 30
0.0
 11
117.344
 21
74.7504
 31
0.0
  0
LINE
  8
0
 62
     0
 10
117.344
 20
74.7504
 30
0.0
 11
117.344
 21
75.7481
 31
0.0
  0
LINE
  8
0
 62
     0
 10
117.344
 20
75.7481
 30
0.0
 11
118.145
 21
75.7481
 31
0.0
  0
LINE
  8
0
 62
     0
 10
118.145
 20
75.7481
 30
0.0
 11
118.145
 21
78.8487
 31
0.0
  0
LINE
  8
0
 62
     0
 10
118.145
 20
78.8487
 30
0.0
 11
117.344
 21
78.8487
 31
0.0
  0
LINE
  8
0
 62
     0
 10
117.344
 20
78.8487
 30
0.0
 11
117.344
 21
84.6501
 31
0.0
  0
LINE
  8
0
 62
     0
 10
117.344
 20
84.6501
 30
0.0
 11
118.145
 21
84.6501
 31
0.0
  0
LINE
  8
0
 62
     0
 10
118.145
 20
84.6501
 30
0.0
 11
118.145
 21
87.7492
 31
0.0
  0
LINE
  8
0
 62
     0
 10
118.145
 20
87.7492
 30
0.0
 11
117.344
 21
87.7492
 31
0.0
  0
LINE
  8
0
 62
     0
 10
117.344
 20
87.7492
 30
0.0
 11
117.344
 21
88.7497
 31
0.0
  0
LINE
  8
0
 62
     0
 10
117.344
 20
88.7497
 30
0.0
 11
103.344
 21
88.7497
 31
0.0
  0
LINE
  8
0
 62
     0
 10
127.157
 20
88.7497
 30
0.0
 11
127.157
 21
87.7492
 31
0.0
  0
LINE
  8
0
 62
     0
 10
127.157
 20
87.7492
 30
0.0
 11
126.357
 21
87.7492
 31
0.0
  0
LINE
  8
0
 62
     0
 10
126.357
 20
87.7492
 30
0.0
 11
126.357
 21
84.6501
 31
0.0
  0
LINE
  8
0
 62
     0
 10
126.357
 20
84.6501
 30
0.0
 11
127.157
 21
84.6501
 31
0.0
  0
LINE
  8
0
 62
     0
 10
127.157
 20
84.6501
 30
0.0
 11
127.157
 21
78.8487
 31
0.0
  0
LINE
  8
0
 62
     0
 10
127.157
 20
78.8487
 30
0.0
 11
126.357
 21
78.8487
 31
0.0
  0
LINE
  8
0
 62
     0
 10
126.357
 20
78.8487
 30
0.0
 11
126.357
 21
75.7481
 31
0.0
  0
LINE
  8
0
 62
     0
 10
126.357
 20
75.7481
 30
0.0
 11
127.157
 21
75.7481
 31
0.0
  0
LINE
  8
0
 62
     0
 10
127.157
 20
75.7481
 30
0.0
 11
127.157
 21
74.7504
 31
0.0
  0
LINE
  8
0
 62
     0
 10
127.157
 20
74.7504
 30
0.0
 11
141.157
 21
74.7504
 31
0.0
  0
LINE
  8
0
 62
     0
 10
141.157
 20
74.7504
 30
0.0
 11
141.157
 21
75.7481
 31
0.0
  0
LINE
  8
0
 62
     0
 10
141.157
 20
75.7481
 30
0.0
 11
141.957
 21
75.7481
 31
0.0
  0
LINE
  8
0
 62
     0
 10
141.957
 20
75.7481
 30
0.0
 11
141.957
 21
78.8487
 31
0.0
  0
LINE
  8
0
 62
     0
 10
141.957
 20
78.8487
 30
0.0
 11
141.157
 21
78.8487
 31
0.0
  0
LINE
  8
0
 62
     0
 10
141.157
 20
78.8487
 30
0.0
 11
141.157
 21
84.6501
 31
0.0
  0
LINE
  8
0
 62
     0
 10
141.157
 20
84.6501
 30
0.0
 11
141.957
 21
84.6501
 31
0.0
  0
LINE
  8
0
 62
     0
 10
141.957
 20
84.6501
 30
0.0
 11
141.957
 21
87.7492
 31
0.0
  0
LINE
  8
0
 62
     0
 10
141.957
 20
87.7492
 30
0.0
 11
141.157
 21
87.7492
 31
0.0
  0
LINE
  8
0
 62
     0
 10
141.157
 20
87.7492
 30
0.0
 11
141.157
 21
88.7497
 31
0.0
  0
LINE
  8
0
 62
     0
 10
141.157
 20
88.7497
 30
0.0
 11
127.157
 21
88.7497
 31
0.0
  0
LINE
  8
0
 62
     0
 10
17.6196
 20
107.8
 30
0.0
 11
17.6196
 21
106.799
 31
0.0
  0
LINE
  8
0
 62
     0
 10
17.6196
 20
106.799
 30
0.0
 11
16.819
 21
106.799
 31
0.0
  0
LINE
  8
0
 62
     0
 10
16.819
 20
106.799
 30
0.0
 11
16.819
 21
103.7
 31
0.0
  0
LINE
  8
0
 62
     0
 10
16.819
 20
103.7
 30
0.0
 11
17.6196
 21
103.7
 31
0.0
  0
LINE
  8
0
 62
     0
 10
17.6196
 20
103.7
 30
0.0
 11
17.6196
 21
97.8987
 31
0.0
  0
LINE
  8
0
 62
     0
 10
17.6196
 20
97.8987
 30
0.0
 11
16.819
 21
97.8987
 31
0.0
  0
LINE
  8
0
 62
     0
 10
16.819
 20
97.8987
 30
0.0
 11
16.819
 21
94.7981
 31
0.0
  0
LINE
  8
0
 62
     0
 10
16.819
 20
94.7981
 30
0.0
 11
17.6196
 21
94.7981
 31
0.0
  0
LINE
  8
0
 62
     0
 10
17.6196
 20
94.7981
 30
0.0
 11
17.6196
 21
93.8004
 31
0.0
  0
LINE
  8
0
 62
     0
 10
17.6196
 20
93.8004
 30
0.0
 11
31.6191
 21
93.8004
 31
0.0
  0
LINE
  8
0
 62
     0
 10
31.6191
 20
93.8004
 30
0.0
 11
31.6191
 21
94.7981
 31
0.0
  0
LINE
  8
0
 62
     0
 10
31.6191
 20
94.7981
 30
0.0
 11
32.4183
 21
94.7981
 31
0.0
  0
LINE
  8
0
 62
     0
 10
32.4183
 20
94.7981
 30
0.0
 11
32.4183
 21
97.8987
 31
0.0
  0
LINE
  8
0
 62
     0
 10
32.4183
 20
97.8987
 30
0.0
 11
31.6191
 21
97.8987
 31
0.0
  0
LINE
  8
0
 62
     0
 10
31.6191
 20
97.8987
 30
0.0
 11
31.6191
 21
103.7
 31
0.0
  0
LINE
  8
0
 62
     0
 10
31.6191
 20
103.7
 30
0.0
 11
32.4183
 21
103.7
 31
0.0
  0
LINE
  8
0
 62
     0
 10
32.4183
 20
103.7
 30
0.0
 11
32.4183
 21
106.799
 31
0.0
  0
LINE
  8
0
 62
     0
 10
32.4183
 20
106.799
 30
0.0
 11
31.6191
 21
106.799
 31
0.0
  0
LINE
  8
0
 62
     0
 10
31.6191
 20
106.799
 30
0.0
 11
31.6191
 21
107.8
 31
0.0
  0
LINE
  8
0
 62
     0
 10
31.6191
 20
107.8
 30
0.0
 11
17.6196
 21
107.8
 31
0.0
  0
LINE
  8
0
 62
     0
 10
36.6695
 20
107.8
 30
0.0
 11
36.6695
 21
106.799
 31
0.0
  0
LINE
  8
0
 62
     0
 10
36.6695
 20
106.799
 30
0.0
 11
35.8704
 21
106.799
 31
0.0
  0
LINE
  8
0
 62
     0
 10
35.8704
 20
106.799
 30
0.0
 11
35.8704
 21
103.7
 31
0.0
  0
LINE
  8
0
 62
     0
 10
35.8704
 20
103.7
 30
0.0
 11
36.6695
 21
103.7
 31
0.0
  0
LINE
  8
0
 62
     0
 10
36.6695
 20
103.7
 30
0.0
 11
36.6695
 21
97.8987
 31
0.0
  0
LINE
  8
0
 62
     0
 10
36.6695
 20
97.8987
 30
0.0
 11
35.8704
 21
97.8987
 31
0.0
  0
LINE
  8
0
 62
     0
 10
35.8704
 20
97.8987
 30
0.0
 11
35.8704
 21
94.7981
 31
0.0
  0
LINE
  8
0
 62
     0
 10
35.8704
 20
94.7981
 30
0.0
 11
36.6695
 21
94.7981
 31
0.0
  0
LINE
  8
0
 62
     0
 10
36.6695
 20
94.7981
 30
0.0
 11
36.6695
 21
93.8004
 31
0.0
  0
LINE
  8
0
 62
     0
 10
36.6695
 20
93.8004
 30
0.0
 11
50.6691
 21
93.8004
 31
0.0
  0
LINE
  8
0
 62
     0
 10
50.6691
 20
93.8004
 30
0.0
 11
50.6691
 21
94.7981
 31
0.0
  0
LINE
  8
0
 62
     0
 10
50.6691
 20
94.7981
 30
0.0
 11
51.4696
 21
94.7981
 31
0.0
  0
LINE
  8
0
 62
     0
 10
51.4696
 20
94.7981
 30
0.0
 11
51.4696
 21
97.8987
 31
0.0
  0
LINE
  8
0
 62
     0
 10
51.4696
 20
97.8987
 30
0.0
 11
50.6691
 21
97.8987
 31
0.0
  0
LINE
  8
0
 62
     0
 10
50.6691
 20
97.8987
 30
0.0
 11
50.6691
 21
103.7
 31
0.0
  0
LINE
  8
0
 62
     0
 10
50.6691
 20
103.7
 30
0.0
 11
51.4696
 21
103.7
 31
0.0
  0
LINE
  8
0
 62
     0
 10
51.4696
 20
103.7
 30
0.0
 11
51.4696
 21
106.799
 31
0.0
  0
LINE
  8
0
 62
     0
 10
51.4696
 20
106.799
 30
0.0
 11
50.6691
 21
106.799
 31
0.0
  0
LINE
  8
0
 62
     0
 10
50.6691
 20
106.799
 30
0.0
 11
50.6691
 21
107.8
 31
0.0
  0
LINE
  8
0
 62
     0
 10
50.6691
 20
107.8
 30
0.0
 11
36.6695
 21
107.8
 31
0.0
  0
LINE
  8
0
 62
     0
 10
55.7195
 20
107.8
 30
0.0
 11
55.7195
 21
106.799
 31
0.0
  0
LINE
  8
0
 62
     0
 10
55.7195
 20
106.799
 30
0.0
 11
54.9204
 21
106.799
 31
0.0
  0
LINE
  8
0
 62
     0
 10
54.9204
 20
106.799
 30
0.0
 11
54.9204
 21
103.7
 31
0.0
  0
LINE
  8
0
 62
     0
 10
54.9204
 20
103.7
 30
0.0
 11
55.7195
 21
103.7
 31
0.0
  0
LINE
  8
0
 62
     0
 10
55.7195
 20
103.7
 30
0.0
 11
55.7195
 21
97.8987
 31
0.0
  0
LINE
  8
0
 62
     0
 10
55.7195
 20
97.8987
 30
0.0
 11
54.9204
 21
97.8987
 31
0.0
  0
LINE
  8
0
 62
     0
 10
54.9204
 20
97.8987
 30
0.0
 11
54.9204
 21
94.7981
 31
0.0
  0
LINE
  8
0
 62
     0
 10
54.9204
 20
94.7981
 30
0.0
 11
55.7195
 21
94.7981
 31
0.0
  0
LINE
  8
0
 62
     0
 10
55.7195
 20
94.7981
 30
0.0
 11
55.7195
 21
93.8004
 31
0.0
  0
LINE
  8
0
 62
     0
 10
55.7195
 20
93.8004
 30
0.0
 11
69.7191
 21
93.8004
 31
0.0
  0
LINE
  8
0
 62
     0
 10
69.7191
 20
93.8004
 30
0.0
 11
69.7191
 21
94.7981
 31
0.0
  0
LINE
  8
0
 62
     0
 10
69.7191
 20
94.7981
 30
0.0
 11
70.5196
 21
94.7981
 31
0.0
  0
LINE
  8
0
 62
     0
 10
70.5196
 20
94.7981
 30
0.0
 11
70.5196
 21
97.8987
 31
0.0
  0
LINE
  8
0
 62
     0
 10
70.5196
 20
97.8987
 30
0.0
 11
69.7191
 21
97.8987
 31
0.0
  0
LINE
  8
0
 62
     0
 10
69.7191
 20
97.8987
 30
0.0
 11
69.7191
 21
103.7
 31
0.0
  0
LINE
  8
0
 62
     0
 10
69.7191
 20
103.7
 30
0.0
 11
70.5196
 21
103.7
 31
0.0
  0
LINE
  8
0
 62
     0
 10
70.5196
 20
103.7
 30
0.0
 11
70.5196
 21
106.799
 31
0.0
  0
LINE
  8
0
 62
     0
 10
70.5196
 20
106.799
 30
0.0
 11
69.7191
 21
106.799
 31
0.0
  0
LINE
  8
0
 62
     0
 10
69.7191
 20
106.799
 30
0.0
 11
69.7191
 21
107.8
 31
0.0
  0
LINE
  8
0
 62
     0
 10
69.7191
 20
107.8
 30
0.0
 11
55.7195
 21
107.8
 31
0.0
  0
LINE
  8
0
 62
     0
 10
74.7695
 20
107.8
 30
0.0
 11
74.7695
 21
106.799
 31
0.0
  0
LINE
  8
0
 62
     0
 10
74.7695
 20
106.799
 30
0.0
 11
73.9704
 21
106.799
 31
0.0
  0
LINE
  8
0
 62
     0
 10
73.9704
 20
106.799
 30
0.0
 11
73.9704
 21
103.7
 31
0.0
  0
LINE
  8
0
 62
     0
 10
73.9704
 20
103.7
 30
0.0
 11
74.7695
 21
103.7
 31
0.0
  0
LINE
  8
0
 62
     0
 10
74.7695
 20
103.7
 30
0.0
 11
74.7695
 21
97.8987
 31
0.0
  0
LINE
  8
0
 62
     0
 10
74.7695
 20
97.8987
 30
0.0
 11
73.9704
 21
97.8987
 31
0.0
  0
LINE
  8
0
 62
     0
 10
73.9704
 20
97.8987
 30
0.0
 11
73.9704
 21
94.7981
 31
0.0
  0
LINE
  8
0
 62
     0
 10
73.9704
 20
94.7981
 30
0.0
 11
74.7695
 21
94.7981
 31
0.0
  0
LINE
  8
0
 62
     0
 10
74.7695
 20
94.7981
 30
0.0
 11
74.7695
 21
93.8004
 31
0.0
  0
LINE
  8
0
 62
     0
 10
74.7695
 20
93.8004
 30
0.0
 11
88.7691
 21
93.8004
 31
0.0
  0
LINE
  8
0
 62
     0
 10
88.7691
 20
93.8004
 30
0.0
 11
88.7691
 21
94.7981
 31
0.0
  0
LINE
  8
0
 62
     0
 10
88.7691
 20
94.7981
 30
0.0
 11
89.5696
 21
94.7981
 31
0.0
  0
LINE
  8
0
 62
     0
 10
89.5696
 20
94.7981
 30
0.0
 11
89.5696
 21
97.8987
 31
0.0
  0
LINE
  8
0
 62
     0
 10
89.5696
 20
97.8987
 30
0.0
 11
88.7691
 21
97.8987
 31
0.0
  0
LINE
  8
0
 62
     0
 10
88.7691
 20
97.8987
 30
0.0
 11
88.7691
 21
103.7
 31
0.0
  0
LINE
  8
0
 62
     0
 10
88.7691
 20
103.7
 30
0.0
 11
89.5696
 21
103.7
 31
0.0
  0
LINE
  8
0
 62
     0
 10
89.5696
 20
103.7
 30
0.0
 11
89.5696
 21
106.799
 31
0.0
  0
LINE
  8
0
 62
     0
 10
89.5696
 20
106.799
 30
0.0
 11
88.7691
 21
106.799
 31
0.0
  0
LINE
  8
0
 62
     0
 10
88.7691
 20
106.799
 30
0.0
 11
88.7691
 21
107.8
 31
0.0
  0
LINE
  8
0
 62
     0
 10
88.7691
 20
107.8
 30
0.0
 11
74.7695
 21
107.8
 31
0.0
  0
LINE
  8
0
 62
     0
 10
93.8195
 20
107.8
 30
0.0
 11
93.8195
 21
106.799
 31
0.0
  0
LINE
  8
0
 62
     0
 10
93.8195
 20
106.799
 30
0.0
 11
93.0204
 21
106.799
 31
0.0
  0
LINE
  8
0
 62
     0
 10
93.0204
 20
106.799
 30
0.0
 11
93.0204
 21
103.7
 31
0.0
  0
LINE
  8
0
 62
     0
 10
93.0204
 20
103.7
 30
0.0
 11
93.8195
 21
103.7
 31
0.0
  0
LINE
  8
0
 62
     0
 10
93.8195
 20
103.7
 30
0.0
 11
93.8195
 21
97.8987
 31
0.0
  0
LINE
  8
0
 62
     0
 10
93.8195
 20
97.8987
 30
0.0
 11
93.0204
 21
97.8987
 31
0.0
  0
LINE
  8
0
 62
     0
 10
93.0204
 20
97.8987
 30
0.0
 11
93.0204
 21
94.7981
 31
0.0
  0
LINE
  8
0
 62
     0
 10
93.0204
 20
94.7981
 30
0.0
 11
93.8195
 21
94.7981
 31
0.0
  0
LINE
  8
0
 62
     0
 10
93.8195
 20
94.7981
 30
0.0
 11
93.8195
 21
93.8004
 31
0.0
  0
LINE
  8
0
 62
     0
 10
93.8195
 20
93.8004
 30
0.0
 11
107.819
 21
93.8004
 31
0.0
  0
LINE
  8
0
 62
     0
 10
107.819
 20
93.8004
 30
0.0
 11
107.819
 21
94.7981
 31
0.0
  0
LINE
  8
0
 62
     0
 10
107.819
 20
94.7981
 30
0.0
 11
108.619
 21
94.7981
 31
0.0
  0
LINE
  8
0
 62
     0
 10
108.619
 20
94.7981
 30
0.0
 11
108.619
 21
97.8987
 31
0.0
  0
LINE
  8
0
 62
     0
 10
108.619
 20
97.8987
 30
0.0
 11
107.819
 21
97.8987
 31
0.0
  0
LINE
  8
0
 62
     0
 10
107.819
 20
97.8987
 30
0.0
 11
107.819
 21
103.7
 31
0.0
  0
LINE
  8
0
 62
     0
 10
107.819
 20
103.7
 30
0.0
 11
108.619
 21
103.7
 31
0.0
  0
LINE
  8
0
 62
     0
 10
108.619
 20
103.7
 30
0.0
 11
108.619
 21
106.799
 31
0.0
  0
LINE
  8
0
 62
     0
 10
108.619
 20
106.799
 30
0.0
 11
107.819
 21
106.799
 31
0.0
  0
LINE
  8
0
 62
     0
 10
107.819
 20
106.799
 30
0.0
 11
107.819
 21
107.8
 31
0.0
  0
LINE
  8
0
 62
     0
 10
107.819
 20
107.8
 30
0.0
 11
93.8195
 21
107.8
 31
0.0
  0
LINE
  8
0
 62
     0
 10
112.868
 20
107.8
 30
0.0
 11
112.868
 21
106.799
 31
0.0
  0
LINE
  8
0
 62
     0
 10
112.868
 20
106.799
 30
0.0
 11
112.07
 21
106.799
 31
0.0
  0
LINE
  8
0
 62
     0
 10
112.07
 20
106.799
 30
0.0
 11
112.07
 21
103.7
 31
0.0
  0
LINE
  8
0
 62
     0
 10
112.07
 20
103.7
 30
0.0
 11
112.868
 21
103.7
 31
0.0
  0
LINE
  8
0
 62
     0
 10
112.868
 20
103.7
 30
0.0
 11
112.868
 21
97.8987
 31
0.0
  0
LINE
  8
0
 62
     0
 10
112.868
 20
97.8987
 30
0.0
 11
112.07
 21
97.8987
 31
0.0
  0
LINE
  8
0
 62
     0
 10
112.07
 20
97.8987
 30
0.0
 11
112.07
 21
94.7981
 31
0.0
  0
LINE
  8
0
 62
     0
 10
112.07
 20
94.7981
 30
0.0
 11
112.868
 21
94.7981
 31
0.0
  0
LINE
  8
0
 62
     0
 10
112.868
 20
94.7981
 30
0.0
 11
112.868
 21
93.8004
 31
0.0
  0
LINE
  8
0
 62
     0
 10
112.868
 20
93.8004
 30
0.0
 11
126.869
 21
93.8004
 31
0.0
  0
LINE
  8
0
 62
     0
 10
126.869
 20
93.8004
 30
0.0
 11
126.869
 21
94.7981
 31
0.0
  0
LINE
  8
0
 62
     0
 10
126.869
 20
94.7981
 30
0.0
 11
127.67
 21
94.7981
 31
0.0
  0
LINE
  8
0
 62
     0
 10
127.67
 20
94.7981
 30
0.0
 11
127.67
 21
97.8987
 31
0.0
  0
LINE
  8
0
 62
     0
 10
127.67
 20
97.8987
 30
0.0
 11
126.869
 21
97.8987
 31
0.0
  0
LINE
  8
0
 62
     0
 10
126.869
 20
97.8987
 30
0.0
 11
126.869
 21
103.7
 31
0.0
  0
LINE
  8
0
 62
     0
 10
126.869
 20
103.7
 30
0.0
 11
127.67
 21
103.7
 31
0.0
  0
LINE
  8
0
 62
     0
 10
127.67
 20
103.7
 30
0.0
 11
127.67
 21
106.799
 31
0.0
  0
LINE
  8
0
 62
     0
 10
127.67
 20
106.799
 30
0.0
 11
126.869
 21
106.799
 31
0.0
  0
LINE
  8
0
 62
     0
 10
126.869
 20
106.799
 30
0.0
 11
126.869
 21
107.8
 31
0.0
  0
LINE
  8
0
 62
     0
 10
126.869
 20
107.8
 30
0.0
 11
112.868
 21
107.8
 31
0.0
  0
LINE
  8
0
 62
     0
 10
131.919
 20
107.8
 30
0.0
 11
131.919
 21
106.799
 31
0.0
  0
LINE
  8
0
 62
     0
 10
131.919
 20
106.799
 30
0.0
 11
131.119
 21
106.799
 31
0.0
  0
LINE
  8
0
 62
     0
 10
131.119
 20
106.799
 30
0.0
 11
131.119
 21
103.7
 31
0.0
  0
LINE
  8
0
 62
     0
 10
131.119
 20
103.7
 30
0.0
 11
131.919
 21
103.7
 31
0.0
  0
LINE
  8
0
 62
     0
 10
131.919
 20
103.7
 30
0.0
 11
131.919
 21
97.8987
 31
0.0
  0
LINE
  8
0
 62
     0
 10
131.919
 20
97.8987
 30
0.0
 11
131.119
 21
97.8987
 31
0.0
  0
LINE
  8
0
 62
     0
 10
131.119
 20
97.8987
 30
0.0
 11
131.119
 21
94.7981
 31
0.0
  0
LINE
  8
0
 62
     0
 10
131.119
 20
94.7981
 30
0.0
 11
131.919
 21
94.7981
 31
0.0
  0
LINE
  8
0
 62
     0
 10
131.919
 20
94.7981
 30
0.0
 11
131.919
 21
93.8004
 31
0.0
  0
LINE
  8
0
 62
     0
 10
131.919
 20
93.8004
 30
0.0
 11
145.919
 21
93.8004
 31
0.0
  0
LINE
  8
0
 62
     0
 10
145.919
 20
93.8004
 30
0.0
 11
145.919
 21
94.7981
 31
0.0
  0
LINE
  8
0
 62
     0
 10
145.919
 20
94.7981
 30
0.0
 11
146.72
 21
94.7981
 31
0.0
  0
LINE
  8
0
 62
     0
 10
146.72
 20
94.7981
 30
0.0
 11
146.72
 21
97.8987
 31
0.0
  0
LINE
  8
0
 62
     0
 10
146.72
 20
97.8987
 30
0.0
 11
145.919
 21
97.8987
 31
0.0
  0
LINE
  8
0
 62
     0
 10
145.919
 20
97.8987
 30
0.0
 11
145.919
 21
103.7
 31
0.0
  0
LINE
  8
0
 62
     0
 10
145.919
 20
103.7
 30
0.0
 11
146.72
 21
103.7
 31
0.0
  0
LINE
  8
0
 62
     0
 10
146.72
 20
103.7
 30
0.0
 11
146.72
 21
106.799
 31
0.0
  0
LINE
  8
0
 62
     0
 10
146.72
 20
106.799
 30
0.0
 11
145.919
 21
106.799
 31
0.0
  0
LINE
  8
0
 62
     0
 10
145.919
 20
106.799
 30
0.0
 11
145.919
 21
107.8
 31
0.0
  0
LINE
  8
0
 62
     0
 10
145.919
 20
107.8
 30
0.0
 11
131.919
 21
107.8
 31
0.0
  0
LINE
  8
0
 62
     0
 10
17.6196
 20
126.85
 30
0.0
 11
17.6196
 21
125.849
 31
0.0
  0
LINE
  8
0
 62
     0
 10
17.6196
 20
125.849
 30
0.0
 11
16.819
 21
125.849
 31
0.0
  0
LINE
  8
0
 62
     0
 10
16.819
 20
125.849
 30
0.0
 11
16.819
 21
122.75
 31
0.0
  0
LINE
  8
0
 62
     0
 10
16.819
 20
122.75
 30
0.0
 11
17.6196
 21
122.75
 31
0.0
  0
LINE
  8
0
 62
     0
 10
17.6196
 20
122.75
 30
0.0
 11
17.6196
 21
116.949
 31
0.0
  0
LINE
  8
0
 62
     0
 10
17.6196
 20
116.949
 30
0.0
 11
16.819
 21
116.949
 31
0.0
  0
LINE
  8
0
 62
     0
 10
16.819
 20
116.949
 30
0.0
 11
16.819
 21
113.85
 31
0.0
  0
LINE
  8
0
 62
     0
 10
16.819
 20
113.85
 30
0.0
 11
17.6196
 21
113.85
 31
0.0
  0
LINE
  8
0
 62
     0
 10
17.6196
 20
113.85
 30
0.0
 11
17.6196
 21
112.85
 31
0.0
  0
LINE
  8
0
 62
     0
 10
17.6196
 20
112.85
 30
0.0
 11
31.6191
 21
112.85
 31
0.0
  0
LINE
  8
0
 62
     0
 10
31.6191
 20
112.85
 30
0.0
 11
31.6191
 21
113.85
 31
0.0
  0
LINE
  8
0
 62
     0
 10
31.6191
 20
113.85
 30
0.0
 11
32.4183
 21
113.85
 31
0.0
  0
LINE
  8
0
 62
     0
 10
32.4183
 20
113.85
 30
0.0
 11
32.4183
 21
116.949
 31
0.0
  0
LINE
  8
0
 62
     0
 10
32.4183
 20
116.949
 30
0.0
 11
31.6191
 21
116.949
 31
0.0
  0
LINE
  8
0
 62
     0
 10
31.6191
 20
116.949
 30
0.0
 11
31.6191
 21
122.75
 31
0.0
  0
LINE
  8
0
 62
     0
 10
31.6191
 20
122.75
 30
0.0
 11
32.4183
 21
122.75
 31
0.0
  0
LINE
  8
0
 62
     0
 10
32.4183
 20
122.75
 30
0.0
 11
32.4183
 21
125.849
 31
0.0
  0
LINE
  8
0
 62
     0
 10
32.4183
 20
125.849
 30
0.0
 11
31.6191
 21
125.849
 31
0.0
  0
LINE
  8
0
 62
     0
 10
31.6191
 20
125.849
 30
0.0
 11
31.6191
 21
126.85
 31
0.0
  0
LINE
  8
0
 62
     0
 10
31.6191
 20
126.85
 30
0.0
 11
17.6196
 21
126.85
 31
0.0
  0
LINE
  8
0
 62
     0
 10
36.6695
 20
126.85
 30
0.0
 11
36.6695
 21
125.849
 31
0.0
  0
LINE
  8
0
 62
     0
 10
36.6695
 20
125.849
 30
0.0
 11
35.8704
 21
125.849
 31
0.0
  0
LINE
  8
0
 62
     0
 10
35.8704
 20
125.849
 30
0.0
 11
35.8704
 21
122.75
 31
0.0
  0
LINE
  8
0
 62
     0
 10
35.8704
 20
122.75
 30
0.0
 11
36.6695
 21
122.75
 31
0.0
  0
LINE
  8
0
 62
     0
 10
36.6695
 20
122.75
 30
0.0
 11
36.6695
 21
116.949
 31
0.0
  0
LINE
  8
0
 62
     0
 10
36.6695
 20
116.949
 30
0.0
 11
35.8704
 21
116.949
 31
0.0
  0
LINE
  8
0
 62
     0
 10
35.8704
 20
116.949
 30
0.0
 11
35.8704
 21
113.85
 31
0.0
  0
LINE
  8
0
 62
     0
 10
35.8704
 20
113.85
 30
0.0
 11
36.6695
 21
113.85
 31
0.0
  0
LINE
  8
0
 62
     0
 10
36.6695
 20
113.85
 30
0.0
 11
36.6695
 21
112.85
 31
0.0
  0
LINE
  8
0
 62
     0
 10
36.6695
 20
112.85
 30
0.0
 11
50.6691
 21
112.85
 31
0.0
  0
LINE
  8
0
 62
     0
 10
50.6691
 20
112.85
 30
0.0
 11
50.6691
 21
113.85
 31
0.0
  0
LINE
  8
0
 62
     0
 10
50.6691
 20
113.85
 30
0.0
 11
51.4696
 21
113.85
 31
0.0
  0
LINE
  8
0
 62
     0
 10
51.4696
 20
113.85
 30
0.0
 11
51.4696
 21
116.949
 31
0.0
  0
LINE
  8
0
 62
     0
 10
51.4696
 20
116.949
 30
0.0
 11
50.6691
 21
116.949
 31
0.0
  0
LINE
  8
0
 62
     0
 10
50.6691
 20
116.949
 30
0.0
 11
50.6691
 21
122.75
 31
0.0
  0
LINE
  8
0
 62
     0
 10
50.6691
 20
122.75
 30
0.0
 11
51.4696
 21
122.75
 31
0.0
  0
LINE
  8
0
 62
     0
 10
51.4696
 20
122.75
 30
0.0
 11
51.4696
 21
125.849
 31
0.0
  0
LINE
  8
0
 62
     0
 10
51.4696
 20
125.849
 30
0.0
 11
50.6691
 21
125.849
 31
0.0
  0
LINE
  8
0
 62
     0
 10
50.6691
 20
125.849
 30
0.0
 11
50.6691
 21
126.85
 31
0.0
  0
LINE
  8
0
 62
     0
 10
50.6691
 20
126.85
 30
0.0
 11
36.6695
 21
126.85
 31
0.0
  0
LINE
  8
0
 62
     0
 10
55.7195
 20
126.85
 30
0.0
 11
55.7195
 21
125.849
 31
0.0
  0
LINE
  8
0
 62
     0
 10
55.7195
 20
125.849
 30
0.0
 11
54.9204
 21
125.849
 31
0.0
  0
LINE
  8
0
 62
     0
 10
54.9204
 20
125.849
 30
0.0
 11
54.9204
 21
122.75
 31
0.0
  0
LINE
  8
0
 62
     0
 10
54.9204
 20
122.75
 30
0.0
 11
55.7195
 21
122.75
 31
0.0
  0
LINE
  8
0
 62
     0
 10
55.7195
 20
122.75
 30
0.0
 11
55.7195
 21
116.949
 31
0.0
  0
LINE
  8
0
 62
     0
 10
55.7195
 20
116.949
 30
0.0
 11
54.9204
 21
116.949
 31
0.0
  0
LINE
  8
0
 62
     0
 10
54.9204
 20
116.949
 30
0.0
 11
54.9204
 21
113.85
 31
0.0
  0
LINE
  8
0
 62
     0
 10
54.9204
 20
113.85
 30
0.0
 11
55.7195
 21
113.85
 31
0.0
  0
LINE
  8
0
 62
     0
 10
55.7195
 20
113.85
 30
0.0
 11
55.7195
 21
112.85
 31
0.0
  0
LINE
  8
0
 62
     0
 10
55.7195
 20
112.85
 30
0.0
 11
69.7191
 21
112.85
 31
0.0
  0
LINE
  8
0
 62
     0
 10
69.7191
 20
112.85
 30
0.0
 11
69.7191
 21
113.85
 31
0.0
  0
LINE
  8
0
 62
     0
 10
69.7191
 20
113.85
 30
0.0
 11
70.5196
 21
113.85
 31
0.0
  0
LINE
  8
0
 62
     0
 10
70.5196
 20
113.85
 30
0.0
 11
70.5196
 21
116.949
 31
0.0
  0
LINE
  8
0
 62
     0
 10
70.5196
 20
116.949
 30
0.0
 11
69.7191
 21
116.949
 31
0.0
  0
LINE
  8
0
 62
     0
 10
69.7191
 20
116.949
 30
0.0
 11
69.7191
 21
122.75
 31
0.0
  0
LINE
  8
0
 62
     0
 10
69.7191
 20
122.75
 30
0.0
 11
70.5196
 21
122.75
 31
0.0
  0
LINE
  8
0
 62
     0
 10
70.5196
 20
122.75
 30
0.0
 11
70.5196
 21
125.849
 31
0.0
  0
LINE
  8
0
 62
     0
 10
70.5196
 20
125.849
 30
0.0
 11
69.7191
 21
125.849
 31
0.0
  0
LINE
  8
0
 62
     0
 10
69.7191
 20
125.849
 30
0.0
 11
69.7191
 21
126.85
 31
0.0
  0
LINE
  8
0
 62
     0
 10
69.7191
 20
126.85
 30
0.0
 11
55.7195
 21
126.85
 31
0.0
  0
LINE
  8
0
 62
     0
 10
74.7695
 20
126.85
 30
0.0
 11
74.7695
 21
125.849
 31
0.0
  0
LINE
  8
0
 62
     0
 10
74.7695
 20
125.849
 30
0.0
 11
73.9704
 21
125.849
 31
0.0
  0
LINE
  8
0
 62
     0
 10
73.9704
 20
125.849
 30
0.0
 11
73.9704
 21
122.75
 31
0.0
  0
LINE
  8
0
 62
     0
 10
73.9704
 20
122.75
 30
0.0
 11
74.7695
 21
122.75
 31
0.0
  0
LINE
  8
0
 62
     0
 10
74.7695
 20
122.75
 30
0.0
 11
74.7695
 21
116.949
 31
0.0
  0
LINE
  8
0
 62
     0
 10
74.7695
 20
116.949
 30
0.0
 11
73.9704
 21
116.949
 31
0.0
  0
LINE
  8
0
 62
     0
 10
73.9704
 20
116.949
 30
0.0
 11
73.9704
 21
113.85
 31
0.0
  0
LINE
  8
0
 62
     0
 10
73.9704
 20
113.85
 30
0.0
 11
74.7695
 21
113.85
 31
0.0
  0
LINE
  8
0
 62
     0
 10
74.7695
 20
113.85
 30
0.0
 11
74.7695
 21
112.85
 31
0.0
  0
LINE
  8
0
 62
     0
 10
74.7695
 20
112.85
 30
0.0
 11
88.7691
 21
112.85
 31
0.0
  0
LINE
  8
0
 62
     0
 10
88.7691
 20
112.85
 30
0.0
 11
88.7691
 21
113.85
 31
0.0
  0
LINE
  8
0
 62
     0
 10
88.7691
 20
113.85
 30
0.0
 11
89.5696
 21
113.85
 31
0.0
  0
LINE
  8
0
 62
     0
 10
89.5696
 20
113.85
 30
0.0
 11
89.5696
 21
116.949
 31
0.0
  0
LINE
  8
0
 62
     0
 10
89.5696
 20
116.949
 30
0.0
 11
88.7691
 21
116.949
 31
0.0
  0
LINE
  8
0
 62
     0
 10
88.7691
 20
116.949
 30
0.0
 11
88.7691
 21
122.75
 31
0.0
  0
LINE
  8
0
 62
     0
 10
88.7691
 20
122.75
 30
0.0
 11
89.5696
 21
122.75
 31
0.0
  0
LINE
  8
0
 62
     0
 10
89.5696
 20
122.75
 30
0.0
 11
89.5696
 21
125.849
 31
0.0
  0
LINE
  8
0
 62
     0
 10
89.5696
 20
125.849
 30
0.0
 11
88.7691
 21
125.849
 31
0.0
  0
LINE
  8
0
 62
     0
 10
88.7691
 20
125.849
 30
0.0
 11
88.7691
 21
126.85
 31
0.0
  0
LINE
  8
0
 62
     0
 10
88.7691
 20
126.85
 30
0.0
 11
74.7695
 21
126.85
 31
0.0
  0
LINE
  8
0
 62
     0
 10
93.8195
 20
126.85
 30
0.0
 11
93.8195
 21
125.849
 31
0.0
  0
LINE
  8
0
 62
     0
 10
93.8195
 20
125.849
 30
0.0
 11
93.0204
 21
125.849
 31
0.0
  0
LINE
  8
0
 62
     0
 10
93.0204
 20
125.849
 30
0.0
 11
93.0204
 21
122.75
 31
0.0
  0
LINE
  8
0
 62
     0
 10
93.0204
 20
122.75
 30
0.0
 11
93.8195
 21
122.75
 31
0.0
  0
LINE
  8
0
 62
     0
 10
93.8195
 20
122.75
 30
0.0
 11
93.8195
 21
116.949
 31
0.0
  0
LINE
  8
0
 62
     0
 10
93.8195
 20
116.949
 30
0.0
 11
93.0204
 21
116.949
 31
0.0
  0
LINE
  8
0
 62
     0
 10
93.0204
 20
116.949
 30
0.0
 11
93.0204
 21
113.85
 31
0.0
  0
LINE
  8
0
 62
     0
 10
93.0204
 20
113.85
 30
0.0
 11
93.8195
 21
113.85
 31
0.0
  0
LINE
  8
0
 62
     0
 10
93.8195
 20
113.85
 30
0.0
 11
93.8195
 21
112.85
 31
0.0
  0
LINE
  8
0
 62
     0
 10
93.8195
 20
112.85
 30
0.0
 11
107.819
 21
112.85
 31
0.0
  0
LINE
  8
0
 62
     0
 10
107.819
 20
112.85
 30
0.0
 11
107.819
 21
113.85
 31
0.0
  0
LINE
  8
0
 62
     0
 10
107.819
 20
113.85
 30
0.0
 11
108.619
 21
113.85
 31
0.0
  0
LINE
  8
0
 62
     0
 10
108.619
 20
113.85
 30
0.0
 11
108.619
 21
116.949
 31
0.0
  0
LINE
  8
0
 62
     0
 10
108.619
 20
116.949
 30
0.0
 11
107.819
 21
116.949
 31
0.0
  0
LINE
  8
0
 62
     0
 10
107.819
 20
116.949
 30
0.0
 11
107.819
 21
122.75
 31
0.0
  0
LINE
  8
0
 62
     0
 10
107.819
 20
122.75
 30
0.0
 11
108.619
 21
122.75
 31
0.0
  0
LINE
  8
0
 62
     0
 10
108.619
 20
122.75
 30
0.0
 11
108.619
 21
125.849
 31
0.0
  0
LINE
  8
0
 62
     0
 10
108.619
 20
125.849
 30
0.0
 11
107.819
 21
125.849
 31
0.0
  0
LINE
  8
0
 62
     0
 10
107.819
 20
125.849
 30
0.0
 11
107.819
 21
126.85
 31
0.0
  0
LINE
  8
0
 62
     0
 10
107.819
 20
126.85
 30
0.0
 11
93.8195
 21
126.85
 31
0.0
  0
LINE
  8
0
 62
     0
 10
112.868
 20
126.85
 30
0.0
 11
112.868
 21
125.849
 31
0.0
  0
LINE
  8
0
 62
     0
 10
112.868
 20
125.849
 30
0.0
 11
112.07
 21
125.849
 31
0.0
  0
LINE
  8
0
 62
     0
 10
112.07
 20
125.849
 30
0.0
 11
112.07
 21
122.75
 31
0.0
  0
LINE
  8
0
 62
     0
 10
112.07
 20
122.75
 30
0.0
 11
112.868
 21
122.75
 31
0.0
  0
LINE
  8
0
 62
     0
 10
112.868
 20
122.75
 30
0.0
 11
112.868
 21
116.949
 31
0.0
  0
LINE
  8
0
 62
     0
 10
112.868
 20
116.949
 30
0.0
 11
112.07
 21
116.949
 31
0.0
  0
LINE
  8
0
 62
     0
 10
112.07
 20
116.949
 30
0.0
 11
112.07
 21
113.85
 31
0.0
  0
LINE
  8
0
 62
     0
 10
112.07
 20
113.85
 30
0.0
 11
112.868
 21
113.85
 31
0.0
  0
LINE
  8
0
 62
     0
 10
112.868
 20
113.85
 30
0.0
 11
112.868
 21
112.85
 31
0.0
  0
LINE
  8
0
 62
     0
 10
112.868
 20
112.85
 30
0.0
 11
126.869
 21
112.85
 31
0.0
  0
LINE
  8
0
 62
     0
 10
126.869
 20
112.85
 30
0.0
 11
126.869
 21
113.85
 31
0.0
  0
LINE
  8
0
 62
     0
 10
126.869
 20
113.85
 30
0.0
 11
127.67
 21
113.85
 31
0.0
  0
LINE
  8
0
 62
     0
 10
127.67
 20
113.85
 30
0.0
 11
127.67
 21
116.949
 31
0.0
  0
LINE
  8
0
 62
     0
 10
127.67
 20
116.949
 30
0.0
 11
126.869
 21
116.949
 31
0.0
  0
LINE
  8
0
 62
     0
 10
126.869
 20
116.949
 30
0.0
 11
126.869
 21
122.75
 31
0.0
  0
LINE
  8
0
 62
     0
 10
126.869
 20
122.75
 30
0.0
 11
127.67
 21
122.75
 31
0.0
  0
LINE
  8
0
 62
     0
 10
127.67
 20
122.75
 30
0.0
 11
127.67
 21
125.849
 31
0.0
  0
LINE
  8
0
 62
     0
 10
127.67
 20
125.849
 30
0.0
 11
126.869
 21
125.849
 31
0.0
  0
LINE
  8
0
 62
     0
 10
126.869
 20
125.849
 30
0.0
 11
126.869
 21
126.85
 31
0.0
  0
LINE
  8
0
 62
     0
 10
126.869
 20
126.85
 30
0.0
 11
112.868
 21
126.85
 31
0.0
  0
LINE
  8
0
 62
     0
 10
131.919
 20
126.85
 30
0.0
 11
131.919
 21
125.849
 31
0.0
  0
LINE
  8
0
 62
     0
 10
131.919
 20
125.849
 30
0.0
 11
131.119
 21
125.849
 31
0.0
  0
LINE
  8
0
 62
     0
 10
131.119
 20
125.849
 30
0.0
 11
131.119
 21
122.75
 31
0.0
  0
LINE
  8
0
 62
     0
 10
131.119
 20
122.75
 30
0.0
 11
131.919
 21
122.75
 31
0.0
  0
LINE
  8
0
 62
     0
 10
131.919
 20
122.75
 30
0.0
 11
131.919
 21
116.949
 31
0.0
  0
LINE
  8
0
 62
     0
 10
131.919
 20
116.949
 30
0.0
 11
131.119
 21
116.949
 31
0.0
  0
LINE
  8
0
 62
     0
 10
131.119
 20
116.949
 30
0.0
 11
131.119
 21
113.85
 31
0.0
  0
LINE
  8
0
 62
     0
 10
131.119
 20
113.85
 30
0.0
 11
131.919
 21
113.85
 31
0.0
  0
LINE
  8
0
 62
     0
 10
131.919
 20
113.85
 30
0.0
 11
131.919
 21
112.85
 31
0.0
  0
LINE
  8
0
 62
     0
 10
131.919
 20
112.85
 30
0.0
 11
145.919
 21
112.85
 31
0.0
  0
LINE
  8
0
 62
     0
 10
145.919
 20
112.85
 30
0.0
 11
145.919
 21
113.85
 31
0.0
  0
LINE
  8
0
 62
     0
 10
145.919
 20
113.85
 30
0.0
 11
146.72
 21
113.85
 31
0.0
  0
LINE
  8
0
 62
     0
 10
146.72
 20
113.85
 30
0.0
 11
146.72
 21
116.949
 31
0.0
  0
LINE
  8
0
 62
     0
 10
146.72
 20
116.949
 30
0.0
 11
145.919
 21
116.949
 31
0.0
  0
LINE
  8
0
 62
     0
 10
145.919
 20
116.949
 30
0.0
 11
145.919
 21
122.75
 31
0.0
  0
LINE
  8
0
 62
     0
 10
145.919
 20
122.75
 30
0.0
 11
146.72
 21
122.75
 31
0.0
  0
LINE
  8
0
 62
     0
 10
146.72
 20
122.75
 30
0.0
 11
146.72
 21
125.849
 31
0.0
  0
LINE
  8
0
 62
     0
 10
146.72
 20
125.849
 30
0.0
 11
145.919
 21
125.849
 31
0.0
  0
LINE
  8
0
 62
     0
 10
145.919
 20
125.849
 30
0.0
 11
145.919
 21
126.85
 31
0.0
  0
LINE
  8
0
 62
     0
 10
145.919
 20
126.85
 30
0.0
 11
131.919
 21
126.85
 31
0.0
  0
ENDSEC
  0
EOF
