  0
SECTION
  2
HEADER
  9
$ACADVER
  1
AC1009
  9
$EXTMIN
 10
0.0
 20
0.0
 30
0.0
  9
$EXTMAX
 10
1000.0
 20
1000.0
 30
0.0
  9
$FILLMODE
 70
 0
  9
$SPLFRAME
 70
 1
  0
ENDSEC
  0
SECTION
  2
TABLES
  0
TABLE
  2
LAYER
 70
1
  0
LAYER
  2
0
 70
     0
 62
     7
  6
CONTINUOUS
  0
ENDTAB
  0
ENDSEC
  0
SECTION
  2
ENTITIES
  0
LINE
  8
0
 62
     0
 10
79.1503
 20
144.374
 30
0.0
 11
79.1503
 21
129.374
 31
0.0
  0
LINE
  8
0
 62
     0
 10
79.1503
 20
129.374
 30
0.0
 11
15.095
 21
129.374
 31
0.0
  0
LINE
  8
0
 62
     0
 10
15.095
 20
129.374
 30
0.0
 11
15.095
 21
15.073
 31
0.0
  0
LINE
  8
0
 62
     0
 10
15.095
 20
15.073
 30
0.0
 11
153.208
 21
15.073
 31
0.0
  0
LINE
  8
0
 62
     0
 10
153.208
 20
15.073
 30
0.0
 11
153.208
 21
129.374
 31
0.0
  0
LINE
  8
0
 62
     0
 10
153.208
 20
129.374
 30
0.0
 11
89.1508
 21
129.374
 31
0.0
  0
LINE
  8
0
 62
     0
 10
89.1508
 20
129.374
 30
0.0
 11
89.1508
 21
144.373
 31
0.0
  0
LINE
  8
0
 62
     0
 10
89.1508
 20
144.373
 30
0.0
 11
160.708
 21
144.373
 31
0.0
  0
LINE
  8
0
 62
     0
 10
160.708
 20
144.373
 30
0.0
 11
161.295
 21
144.352
 31
0.0
  0
LINE
  8
0
 62
     0
 10
161.295
 20
144.352
 30
0.0
 11
161.881
 21
144.282
 31
0.0
  0
LINE
  8
0
 62
     0
 10
161.881
 20
144.282
 30
0.0
 11
162.458
 21
144.168
 31
0.0
  0
LINE
  8
0
 62
     0
 10
162.458
 20
144.168
 30
0.0
 11
163.026
 21
144.006
 31
0.0
  0
LINE
  8
0
 62
     0
 10
163.026
 20
144.006
 30
0.0
 11
163.577
 21
143.804
 31
0.0
  0
LINE
  8
0
 62
     0
 10
163.577
 20
143.804
 30
0.0
 11
164.113
 21
143.557
 31
0.0
  0
LINE
  8
0
 62
     0
 10
164.113
 20
143.557
 30
0.0
 11
164.627
 21
143.269
 31
0.0
  0
LINE
  8
0
 62
     0
 10
164.627
 20
143.269
 30
0.0
 11
165.115
 21
142.942
 31
0.0
  0
LINE
  8
0
 62
     0
 10
165.115
 20
142.942
 30
0.0
 11
165.578
 21
142.579
 31
0.0
  0
LINE
  8
0
 62
     0
 10
165.578
 20
142.579
 30
0.0
 11
166.011
 21
142.179
 31
0.0
  0
LINE
  8
0
 62
     0
 10
166.011
 20
142.179
 30
0.0
 11
166.411
 21
141.744
 31
0.0
  0
LINE
  8
0
 62
     0
 10
166.411
 20
141.744
 30
0.0
 11
166.776
 21
141.285
 31
0.0
  0
LINE
  8
0
 62
     0
 10
166.776
 20
141.285
 30
0.0
 11
167.102
 21
140.794
 31
0.0
  0
LINE
  8
0
 62
     0
 10
167.102
 20
140.794
 30
0.0
 11
167.39
 21
140.28
 31
0.0
  0
LINE
  8
0
 62
     0
 10
167.39
 20
140.28
 30
0.0
 11
167.637
 21
139.744
 31
0.0
  0
LINE
  8
0
 62
     0
 10
167.637
 20
139.744
 30
0.0
 11
167.841
 21
139.193
 31
0.0
  0
LINE
  8
0
 62
     0
 10
167.841
 20
139.193
 30
0.0
 11
168.001
 21
138.625
 31
0.0
  0
LINE
  8
0
 62
     0
 10
168.001
 20
138.625
 30
0.0
 11
168.115
 21
138.049
 31
0.0
  0
LINE
  8
0
 62
     0
 10
168.115
 20
138.049
 30
0.0
 11
168.185
 21
137.463
 31
0.0
  0
LINE
  8
0
 62
     0
 10
168.185
 20
137.463
 30
0.0
 11
168.208
 21
136.875
 31
0.0
  0
LINE
  8
0
 62
     0
 10
168.208
 20
136.875
 30
0.0
 11
168.208
 21
7.5723
 31
0.0
  0
LINE
  8
0
 62
     0
 10
168.208
 20
7.5723
 30
0.0
 11
168.185
 21
6.98391
 31
0.0
  0
LINE
  8
0
 62
     0
 10
168.185
 20
6.98391
 30
0.0
 11
168.115
 21
6.40098
 31
0.0
  0
LINE
  8
0
 62
     0
 10
168.115
 20
6.40098
 30
0.0
 11
168.001
 21
5.82221
 31
0.0
  0
LINE
  8
0
 62
     0
 10
168.001
 20
5.82221
 30
0.0
 11
167.841
 21
5.2572
 31
0.0
  0
LINE
  8
0
 62
     0
 10
167.841
 20
5.2572
 30
0.0
 11
167.637
 21
4.70186
 31
0.0
  0
LINE
  8
0
 62
     0
 10
167.637
 20
4.70186
 30
0.0
 11
167.39
 21
4.16994
 31
0.0
  0
LINE
  8
0
 62
     0
 10
167.39
 20
4.16994
 30
0.0
 11
167.102
 21
3.65594
 31
0.0
  0
LINE
  8
0
 62
     0
 10
167.102
 20
3.65594
 30
0.0
 11
166.776
 21
3.16398
 31
0.0
  0
LINE
  8
0
 62
     0
 10
166.776
 20
3.16398
 30
0.0
 11
166.411
 21
2.70371
 31
0.0
  0
LINE
  8
0
 62
     0
 10
166.411
 20
2.70371
 30
0.0
 11
166.011
 21
2.27101
 31
0.0
  0
LINE
  8
0
 62
     0
 10
166.011
 20
2.27101
 30
0.0
 11
165.578
 21
1.86862
 31
0.0
  0
LINE
  8
0
 62
     0
 10
165.578
 20
1.86862
 30
0.0
 11
165.115
 21
1.5062
 31
0.0
  0
LINE
  8
0
 62
     0
 10
165.115
 20
1.5062
 30
0.0
 11
164.627
 21
1.17822
 31
0.0
  0
LINE
  8
0
 62
     0
 10
164.627
 20
1.17822
 30
0.0
 11
164.113
 21
0.891589
 31
0.0
  0
LINE
  8
0
 62
     0
 10
164.113
 20
0.891589
 30
0.0
 11
163.577
 21
0.644924
 31
0.0
  0
LINE
  8
0
 62
     0
 10
163.577
 20
0.644924
 30
0.0
 11
163.026
 21
0.439593
 31
0.0
  0
LINE
  8
0
 62
     0
 10
163.026
 20
0.439593
 30
0.0
 11
162.458
 21
0.279742
 31
0.0
  0
LINE
  8
0
 62
     0
 10
162.458
 20
0.279742
 30
0.0
 11
161.881
 21
0.165365
 31
0.0
  0
LINE
  8
0
 62
     0
 10
161.881
 20
0.165365
 30
0.0
 11
161.295
 21
0.0978408
 31
0.0
  0
LINE
  8
0
 62
     0
 10
161.295
 20
0.0978408
 30
0.0
 11
160.708
 21
0.0730359
 31
0.0
  0
LINE
  8
0
 62
     0
 10
160.708
 20
0.0730359
 30
0.0
 11
7.59435
 21
0.0730359
 31
0.0
  0
LINE
  8
0
 62
     0
 10
7.59435
 20
0.0730359
 30
0.0
 11
7.00595
 21
0.0978408
 31
0.0
  0
LINE
  8
0
 62
     0
 10
7.00595
 20
0.0978408
 30
0.0
 11
6.42027
 21
0.165365
 31
0.0
  0
LINE
  8
0
 62
     0
 10
6.42027
 20
0.165365
 30
0.0
 11
5.84426
 21
0.279742
 31
0.0
  0
LINE
  8
0
 62
     0
 10
5.84426
 20
0.279742
 30
0.0
 11
5.2765
 21
0.439593
 31
0.0
  0
LINE
  8
0
 62
     0
 10
5.2765
 20
0.439593
 30
0.0
 11
4.72391
 21
0.644924
 31
0.0
  0
LINE
  8
0
 62
     0
 10
4.72391
 20
0.644924
 30
0.0
 11
4.18924
 21
0.891589
 31
0.0
  0
LINE
  8
0
 62
     0
 10
4.18924
 20
0.891589
 30
0.0
 11
3.67524
 21
1.17822
 31
0.0
  0
LINE
  8
0
 62
     0
 10
3.67524
 20
1.17822
 30
0.0
 11
3.18464
 21
1.5062
 31
0.0
  0
LINE
  8
0
 62
     0
 10
3.18464
 20
1.5062
 30
0.0
 11
2.72438
 21
1.86862
 31
0.0
  0
LINE
  8
0
 62
     0
 10
2.72438
 20
1.86862
 30
0.0
 11
2.2903
 21
2.27101
 31
0.0
  0
LINE
  8
0
 62
     0
 10
2.2903
 20
2.27101
 30
0.0
 11
1.89067
 21
2.70371
 31
0.0
  0
LINE
  8
0
 62
     0
 10
1.89067
 20
2.70371
 30
0.0
 11
1.52687
 21
3.16398
 31
0.0
  0
LINE
  8
0
 62
     0
 10
1.52687
 20
3.16398
 30
0.0
 11
1.20027
 21
3.65594
 31
0.0
  0
LINE
  8
0
 62
     0
 10
1.20027
 20
3.65594
 30
0.0
 11
0.912262
 21
4.16994
 31
0.0
  0
LINE
  8
0
 62
     0
 10
0.912262
 20
4.16994
 30
0.0
 11
0.664214
 21
4.70186
 31
0.0
  0
LINE
  8
0
 62
     0
 10
0.664214
 20
4.70186
 30
0.0
 11
0.461641
 21
5.2572
 31
0.0
  0
LINE
  8
0
 62
     0
 10
0.461641
 20
5.2572
 30
0.0
 11
0.30179
 21
5.82221
 31
0.0
  0
LINE
  8
0
 62
     0
 10
0.30179
 20
5.82221
 30
0.0
 11
0.187413
 21
6.40098
 31
0.0
  0
LINE
  8
0
 62
     0
 10
0.187413
 20
6.40098
 30
0.0
 11
0.117133
 21
6.98391
 31
0.0
  0
LINE
  8
0
 62
     0
 10
0.117133
 20
6.98391
 30
0.0
 11
0.0937066
 21
7.5723
 31
0.0
  0
LINE
  8
0
 62
     0
 10
0.0937066
 20
7.5723
 30
0.0
 11
0.0950846
 21
136.875
 31
0.0
  0
LINE
  8
0
 62
     0
 10
0.0950846
 20
136.875
 30
0.0
 11
0.117133
 21
137.463
 31
0.0
  0
LINE
  8
0
 62
     0
 10
0.117133
 20
137.463
 30
0.0
 11
0.187413
 21
138.049
 31
0.0
  0
LINE
  8
0
 62
     0
 10
0.187413
 20
138.049
 30
0.0
 11
0.30179
 21
138.625
 31
0.0
  0
LINE
  8
0
 62
     0
 10
0.30179
 20
138.625
 30
0.0
 11
0.461641
 21
139.193
 31
0.0
  0
LINE
  8
0
 62
     0
 10
0.461641
 20
139.193
 30
0.0
 11
0.664214
 21
139.744
 31
0.0
  0
LINE
  8
0
 62
     0
 10
0.664214
 20
139.744
 30
0.0
 11
0.912262
 21
140.28
 31
0.0
  0
LINE
  8
0
 62
     0
 10
0.912262
 20
140.28
 30
0.0
 11
1.20027
 21
140.794
 31
0.0
  0
LINE
  8
0
 62
     0
 10
1.20027
 20
140.794
 30
0.0
 11
1.52687
 21
141.285
 31
0.0
  0
LINE
  8
0
 62
     0
 10
1.52687
 20
141.285
 30
0.0
 11
1.89067
 21
141.744
 31
0.0
  0
LINE
  8
0
 62
     0
 10
1.89067
 20
141.744
 30
0.0
 11
2.2903
 21
142.179
 31
0.0
  0
LINE
  8
0
 62
     0
 10
2.2903
 20
142.179
 30
0.0
 11
2.72438
 21
142.579
 31
0.0
  0
LINE
  8
0
 62
     0
 10
2.72438
 20
142.579
 30
0.0
 11
3.18464
 21
142.942
 31
0.0
  0
LINE
  8
0
 62
     0
 10
3.18464
 20
142.942
 30
0.0
 11
3.67524
 21
143.269
 31
0.0
  0
LINE
  8
0
 62
     0
 10
3.67524
 20
143.269
 30
0.0
 11
4.18924
 21
143.557
 31
0.0
  0
LINE
  8
0
 62
     0
 10
4.18924
 20
143.557
 30
0.0
 11
4.72391
 21
143.804
 31
0.0
  0
LINE
  8
0
 62
     0
 10
4.72391
 20
143.804
 30
0.0
 11
5.2765
 21
144.006
 31
0.0
  0
LINE
  8
0
 62
     0
 10
5.2765
 20
144.006
 30
0.0
 11
5.84426
 21
144.168
 31
0.0
  0
LINE
  8
0
 62
     0
 10
5.84426
 20
144.168
 30
0.0
 11
6.42027
 21
144.282
 31
0.0
  0
LINE
  8
0
 62
     0
 10
6.42027
 20
144.282
 30
0.0
 11
7.00595
 21
144.352
 31
0.0
  0
LINE
  8
0
 62
     0
 10
7.00595
 20
144.352
 30
0.0
 11
7.59435
 21
144.374
 31
0.0
  0
LINE
  8
0
 62
     0
 10
7.59435
 20
144.374
 30
0.0
 11
79.1503
 21
144.374
 31
0.0
  0
ENDSEC
  0
EOF
