  0
SECTION
  2
HEADER
  9
$ACADVER
  1
AC1009
  9
$EXTMIN
 10
0.0
 20
0.0
 30
0.0
  9
$EXTMAX
 10
1000.0
 20
1000.0
 30
0.0
  9
$FILLMODE
 70
 0
  9
$SPLFRAME
 70
 1
  0
ENDSEC
  0
SECTION
  2
TABLES
  0
TABLE
  2
LAYER
 70
1
  0
LAYER
  2
0
 70
     0
 62
     7
  6
CONTINUOUS
  0
ENDTAB
  0
ENDSEC
  0
SECTION
  2
ENTITIES
  0
LINE
  8
0
 62
     0
 10
170.707
 20
154.373
 30
0.0
 11
171.296
 21
154.351
 31
0.0
  0
LINE
  8
0
 62
     0
 10
171.296
 20
154.351
 30
0.0
 11
171.881
 21
154.281
 31
0.0
  0
LINE
  8
0
 62
     0
 10
171.881
 20
154.281
 30
0.0
 11
172.459
 21
154.167
 31
0.0
  0
LINE
  8
0
 62
     0
 10
172.459
 20
154.167
 30
0.0
 11
173.025
 21
154.007
 31
0.0
  0
LINE
  8
0
 62
     0
 10
173.025
 20
154.007
 30
0.0
 11
173.578
 21
153.804
 31
0.0
  0
LINE
  8
0
 62
     0
 10
173.578
 20
153.804
 30
0.0
 11
174.112
 21
153.556
 31
0.0
  0
LINE
  8
0
 62
     0
 10
174.112
 20
153.556
 30
0.0
 11
174.626
 21
153.268
 31
0.0
  0
LINE
  8
0
 62
     0
 10
174.626
 20
153.268
 30
0.0
 11
175.116
 21
152.942
 31
0.0
  0
LINE
  8
0
 62
     0
 10
175.116
 20
152.942
 30
0.0
 11
175.579
 21
152.578
 31
0.0
  0
LINE
  8
0
 62
     0
 10
175.579
 20
152.578
 30
0.0
 11
176.011
 21
152.178
 31
0.0
  0
LINE
  8
0
 62
     0
 10
176.011
 20
152.178
 30
0.0
 11
176.411
 21
151.744
 31
0.0
  0
LINE
  8
0
 62
     0
 10
176.411
 20
151.744
 30
0.0
 11
176.776
 21
151.284
 31
0.0
  0
LINE
  8
0
 62
     0
 10
176.776
 20
151.284
 30
0.0
 11
177.103
 21
150.793
 31
0.0
  0
LINE
  8
0
 62
     0
 10
177.103
 20
150.793
 30
0.0
 11
177.391
 21
150.279
 31
0.0
  0
LINE
  8
0
 62
     0
 10
177.391
 20
150.279
 30
0.0
 11
177.637
 21
149.745
 31
0.0
  0
LINE
  8
0
 62
     0
 10
177.637
 20
149.745
 30
0.0
 11
177.841
 21
149.192
 31
0.0
  0
LINE
  8
0
 62
     0
 10
177.841
 20
149.192
 30
0.0
 11
178.001
 21
148.624
 31
0.0
  0
LINE
  8
0
 62
     0
 10
178.001
 20
148.624
 30
0.0
 11
178.116
 21
148.048
 31
0.0
  0
LINE
  8
0
 62
     0
 10
178.116
 20
148.048
 30
0.0
 11
178.185
 21
147.463
 31
0.0
  0
LINE
  8
0
 62
     0
 10
178.185
 20
147.463
 30
0.0
 11
178.208
 21
146.874
 31
0.0
  0
LINE
  8
0
 62
     0
 10
178.208
 20
146.874
 30
0.0
 11
178.208
 21
7.5723
 31
0.0
  0
LINE
  8
0
 62
     0
 10
178.208
 20
7.5723
 30
0.0
 11
178.185
 21
6.98528
 31
0.0
  0
LINE
  8
0
 62
     0
 10
178.185
 20
6.98528
 30
0.0
 11
178.116
 21
6.3996
 31
0.0
  0
LINE
  8
0
 62
     0
 10
178.116
 20
6.3996
 30
0.0
 11
178.001
 21
5.82221
 31
0.0
  0
LINE
  8
0
 62
     0
 10
178.001
 20
5.82221
 30
0.0
 11
177.841
 21
5.25582
 31
0.0
  0
LINE
  8
0
 62
     0
 10
177.841
 20
5.25582
 30
0.0
 11
177.637
 21
4.70323
 31
0.0
  0
LINE
  8
0
 62
     0
 10
177.637
 20
4.70323
 30
0.0
 11
177.391
 21
4.16856
 31
0.0
  0
LINE
  8
0
 62
     0
 10
177.391
 20
4.16856
 30
0.0
 11
177.103
 21
3.65457
 31
0.0
  0
LINE
  8
0
 62
     0
 10
177.103
 20
3.65457
 30
0.0
 11
176.776
 21
3.16536
 31
0.0
  0
LINE
  8
0
 62
     0
 10
176.776
 20
3.16536
 30
0.0
 11
176.411
 21
2.70233
 31
0.0
  0
LINE
  8
0
 62
     0
 10
176.411
 20
2.70233
 30
0.0
 11
176.011
 21
2.26963
 31
0.0
  0
LINE
  8
0
 62
     0
 10
176.011
 20
2.26963
 30
0.0
 11
175.579
 21
1.87
 31
0.0
  0
LINE
  8
0
 62
     0
 10
175.579
 20
1.87
 30
0.0
 11
175.116
 21
1.5062
 31
0.0
  0
LINE
  8
0
 62
     0
 10
175.116
 20
1.5062
 30
0.0
 11
174.626
 21
1.17822
 31
0.0
  0
LINE
  8
0
 62
     0
 10
174.626
 20
1.17822
 30
0.0
 11
174.112
 21
0.890214
 31
0.0
  0
LINE
  8
0
 62
     0
 10
174.112
 20
0.890214
 30
0.0
 11
173.578
 21
0.643544
 31
0.0
  0
LINE
  8
0
 62
     0
 10
173.578
 20
0.643544
 30
0.0
 11
173.025
 21
0.440972
 31
0.0
  0
LINE
  8
0
 62
     0
 10
173.025
 20
0.440972
 30
0.0
 11
172.459
 21
0.28112
 31
0.0
  0
LINE
  8
0
 62
     0
 10
172.459
 20
0.28112
 30
0.0
 11
171.881
 21
0.165365
 31
0.0
  0
LINE
  8
0
 62
     0
 10
171.881
 20
0.165365
 30
0.0
 11
171.296
 21
0.0964629
 31
0.0
  0
LINE
  8
0
 62
     0
 10
171.296
 20
0.0964629
 30
0.0
 11
170.707
 21
0.0730359
 31
0.0
  0
LINE
  8
0
 62
     0
 10
170.707
 20
0.0730359
 30
0.0
 11
7.59435
 21
0.0730359
 31
0.0
  0
LINE
  8
0
 62
     0
 10
7.59435
 20
0.0730359
 30
0.0
 11
7.00595
 21
0.0964629
 31
0.0
  0
LINE
  8
0
 62
     0
 10
7.00595
 20
0.0964629
 30
0.0
 11
6.42027
 21
0.165365
 31
0.0
  0
LINE
  8
0
 62
     0
 10
6.42027
 20
0.165365
 30
0.0
 11
5.84426
 21
0.28112
 31
0.0
  0
LINE
  8
0
 62
     0
 10
5.84426
 20
0.28112
 30
0.0
 11
5.2765
 21
0.440972
 31
0.0
  0
LINE
  8
0
 62
     0
 10
5.2765
 20
0.440972
 30
0.0
 11
4.72391
 21
0.643544
 31
0.0
  0
LINE
  8
0
 62
     0
 10
4.72391
 20
0.643544
 30
0.0
 11
4.18924
 21
0.890214
 31
0.0
  0
LINE
  8
0
 62
     0
 10
4.18924
 20
0.890214
 30
0.0
 11
3.67524
 21
1.17822
 31
0.0
  0
LINE
  8
0
 62
     0
 10
3.67524
 20
1.17822
 30
0.0
 11
3.18464
 21
1.5062
 31
0.0
  0
LINE
  8
0
 62
     0
 10
3.18464
 20
1.5062
 30
0.0
 11
2.72438
 21
1.87
 31
0.0
  0
LINE
  8
0
 62
     0
 10
2.72438
 20
1.87
 30
0.0
 11
2.2903
 21
2.26963
 31
0.0
  0
LINE
  8
0
 62
     0
 10
2.2903
 20
2.26963
 30
0.0
 11
1.89067
 21
2.70233
 31
0.0
  0
LINE
  8
0
 62
     0
 10
1.89067
 20
2.70233
 30
0.0
 11
1.52687
 21
3.16536
 31
0.0
  0
LINE
  8
0
 62
     0
 10
1.52687
 20
3.16536
 30
0.0
 11
1.20027
 21
3.65457
 31
0.0
  0
LINE
  8
0
 62
     0
 10
1.20027
 20
3.65457
 30
0.0
 11
0.912262
 21
4.16856
 31
0.0
  0
LINE
  8
0
 62
     0
 10
0.912262
 20
4.16856
 30
0.0
 11
0.664214
 21
4.70323
 31
0.0
  0
LINE
  8
0
 62
     0
 10
0.664214
 20
4.70323
 30
0.0
 11
0.461641
 21
5.25582
 31
0.0
  0
LINE
  8
0
 62
     0
 10
0.461641
 20
5.25582
 30
0.0
 11
0.30179
 21
5.82221
 31
0.0
  0
LINE
  8
0
 62
     0
 10
0.30179
 20
5.82221
 30
0.0
 11
0.187413
 21
6.3996
 31
0.0
  0
LINE
  8
0
 62
     0
 10
0.187413
 20
6.3996
 30
0.0
 11
0.117133
 21
6.98528
 31
0.0
  0
LINE
  8
0
 62
     0
 10
0.117133
 20
6.98528
 30
0.0
 11
0.0937066
 21
7.5723
 31
0.0
  0
LINE
  8
0
 62
     0
 10
0.0937066
 20
7.5723
 30
0.0
 11
0.0950846
 21
146.874
 31
0.0
  0
LINE
  8
0
 62
     0
 10
0.0950846
 20
146.874
 30
0.0
 11
0.117133
 21
147.463
 31
0.0
  0
LINE
  8
0
 62
     0
 10
0.117133
 20
147.463
 30
0.0
 11
0.187413
 21
148.048
 31
0.0
  0
LINE
  8
0
 62
     0
 10
0.187413
 20
148.048
 30
0.0
 11
0.30179
 21
148.624
 31
0.0
  0
LINE
  8
0
 62
     0
 10
0.30179
 20
148.624
 30
0.0
 11
0.461641
 21
149.192
 31
0.0
  0
LINE
  8
0
 62
     0
 10
0.461641
 20
149.192
 30
0.0
 11
0.664214
 21
149.745
 31
0.0
  0
LINE
  8
0
 62
     0
 10
0.664214
 20
149.745
 30
0.0
 11
0.912262
 21
150.279
 31
0.0
  0
LINE
  8
0
 62
     0
 10
0.912262
 20
150.279
 30
0.0
 11
1.20027
 21
150.793
 31
0.0
  0
LINE
  8
0
 62
     0
 10
1.20027
 20
150.793
 30
0.0
 11
1.52687
 21
151.284
 31
0.0
  0
LINE
  8
0
 62
     0
 10
1.52687
 20
151.284
 30
0.0
 11
1.89067
 21
151.744
 31
0.0
  0
LINE
  8
0
 62
     0
 10
1.89067
 20
151.744
 30
0.0
 11
2.2903
 21
152.178
 31
0.0
  0
LINE
  8
0
 62
     0
 10
2.2903
 20
152.178
 30
0.0
 11
2.72438
 21
152.578
 31
0.0
  0
LINE
  8
0
 62
     0
 10
2.72438
 20
152.578
 30
0.0
 11
3.18464
 21
152.942
 31
0.0
  0
LINE
  8
0
 62
     0
 10
3.18464
 20
152.942
 30
0.0
 11
3.67524
 21
153.268
 31
0.0
  0
LINE
  8
0
 62
     0
 10
3.67524
 20
153.268
 30
0.0
 11
4.18924
 21
153.556
 31
0.0
  0
LINE
  8
0
 62
     0
 10
4.18924
 20
153.556
 30
0.0
 11
4.72391
 21
153.804
 31
0.0
  0
LINE
  8
0
 62
     0
 10
4.72391
 20
153.804
 30
0.0
 11
5.2765
 21
154.007
 31
0.0
  0
LINE
  8
0
 62
     0
 10
5.2765
 20
154.007
 30
0.0
 11
5.84426
 21
154.167
 31
0.0
  0
LINE
  8
0
 62
     0
 10
5.84426
 20
154.167
 30
0.0
 11
6.42027
 21
154.281
 31
0.0
  0
LINE
  8
0
 62
     0
 10
6.42027
 20
154.281
 30
0.0
 11
7.00595
 21
154.351
 31
0.0
  0
LINE
  8
0
 62
     0
 10
7.00595
 20
154.351
 30
0.0
 11
7.59435
 21
154.375
 31
0.0
  0
LINE
  8
0
 62
     0
 10
7.59435
 20
154.375
 30
0.0
 11
170.707
 21
154.373
 31
0.0
  0
LINE
  8
0
 62
     0
 10
125.013
 20
36.5993
 30
0.0
 11
125.013
 21
35.5988
 31
0.0
  0
LINE
  8
0
 62
     0
 10
125.013
 20
35.5988
 30
0.0
 11
124.212
 21
35.5988
 31
0.0
  0
LINE
  8
0
 62
     0
 10
124.212
 20
35.5988
 30
0.0
 11
124.212
 21
32.4983
 31
0.0
  0
LINE
  8
0
 62
     0
 10
124.212
 20
32.4983
 30
0.0
 11
125.013
 21
32.4983
 31
0.0
  0
LINE
  8
0
 62
     0
 10
125.013
 20
32.4983
 30
0.0
 11
125.013
 21
31.8988
 31
0.0
  0
LINE
  8
0
 62
     0
 10
125.013
 20
31.8988
 30
0.0
 11
123.487
 21
31.8988
 31
0.0
  0
LINE
  8
0
 62
     0
 10
123.487
 20
31.8988
 30
0.0
 11
123.487
 21
35.1289
 31
0.0
  0
LINE
  8
0
 62
     0
 10
123.487
 20
35.1289
 30
0.0
 11
121.762
 21
35.1289
 31
0.0
  0
LINE
  8
0
 62
     0
 10
121.762
 20
35.1289
 30
0.0
 11
121.762
 21
36.0482
 31
0.0
  0
LINE
  8
0
 62
     0
 10
121.762
 20
36.0482
 30
0.0
 11
118.463
 21
36.0482
 31
0.0
  0
LINE
  8
0
 62
     0
 10
118.463
 20
36.0482
 30
0.0
 11
118.463
 21
35.1289
 31
0.0
  0
LINE
  8
0
 62
     0
 10
118.463
 20
35.1289
 30
0.0
 11
116.738
 21
35.1289
 31
0.0
  0
LINE
  8
0
 62
     0
 10
116.738
 20
35.1289
 30
0.0
 11
116.738
 21
31.8988
 31
0.0
  0
LINE
  8
0
 62
     0
 10
116.738
 20
31.8988
 30
0.0
 11
115.912
 21
31.8988
 31
0.0
  0
LINE
  8
0
 62
     0
 10
115.912
 20
31.8988
 30
0.0
 11
115.912
 21
29.0987
 31
0.0
  0
LINE
  8
0
 62
     0
 10
115.912
 20
29.0987
 30
0.0
 11
116.738
 21
29.0987
 31
0.0
  0
LINE
  8
0
 62
     0
 10
116.738
 20
29.0987
 30
0.0
 11
116.738
 21
22.8286
 31
0.0
  0
LINE
  8
0
 62
     0
 10
116.738
 20
22.8286
 30
0.0
 11
118.463
 21
22.8286
 31
0.0
  0
LINE
  8
0
 62
     0
 10
118.463
 20
22.8286
 30
0.0
 11
118.463
 21
21.8488
 31
0.0
  0
LINE
  8
0
 62
     0
 10
118.463
 20
21.8488
 30
0.0
 11
121.762
 21
21.8488
 31
0.0
  0
LINE
  8
0
 62
     0
 10
121.762
 20
21.8488
 30
0.0
 11
121.762
 21
22.8286
 31
0.0
  0
LINE
  8
0
 62
     0
 10
121.762
 20
22.8286
 30
0.0
 11
123.487
 21
22.8286
 31
0.0
  0
LINE
  8
0
 62
     0
 10
123.487
 20
22.8286
 30
0.0
 11
123.487
 21
27.2989
 31
0.0
  0
LINE
  8
0
 62
     0
 10
123.487
 20
27.2989
 30
0.0
 11
125.013
 21
27.2989
 31
0.0
  0
LINE
  8
0
 62
     0
 10
125.013
 20
27.2989
 30
0.0
 11
125.013
 21
26.6981
 31
0.0
  0
LINE
  8
0
 62
     0
 10
125.013
 20
26.6981
 30
0.0
 11
124.212
 21
26.6981
 31
0.0
  0
LINE
  8
0
 62
     0
 10
124.212
 20
26.6981
 30
0.0
 11
124.212
 21
23.5989
 31
0.0
  0
LINE
  8
0
 62
     0
 10
124.212
 20
23.5989
 30
0.0
 11
125.013
 21
23.5989
 31
0.0
  0
LINE
  8
0
 62
     0
 10
125.013
 20
23.5989
 30
0.0
 11
125.013
 21
22.5985
 31
0.0
  0
LINE
  8
0
 62
     0
 10
125.013
 20
22.5985
 30
0.0
 11
139.012
 21
22.5985
 31
0.0
  0
LINE
  8
0
 62
     0
 10
139.012
 20
22.5985
 30
0.0
 11
139.012
 21
23.5989
 31
0.0
  0
LINE
  8
0
 62
     0
 10
139.012
 20
23.5989
 30
0.0
 11
139.813
 21
23.5989
 31
0.0
  0
LINE
  8
0
 62
     0
 10
139.813
 20
23.5989
 30
0.0
 11
139.813
 21
26.6981
 31
0.0
  0
LINE
  8
0
 62
     0
 10
139.813
 20
26.6981
 30
0.0
 11
139.012
 21
26.6981
 31
0.0
  0
LINE
  8
0
 62
     0
 10
139.012
 20
26.6981
 30
0.0
 11
139.012
 21
27.2989
 31
0.0
  0
LINE
  8
0
 62
     0
 10
139.012
 20
27.2989
 30
0.0
 11
140.538
 21
27.2989
 31
0.0
  0
LINE
  8
0
 62
     0
 10
140.538
 20
27.2989
 30
0.0
 11
140.538
 21
22.8286
 31
0.0
  0
LINE
  8
0
 62
     0
 10
140.538
 20
22.8286
 30
0.0
 11
142.263
 21
22.8286
 31
0.0
  0
LINE
  8
0
 62
     0
 10
142.263
 20
22.8286
 30
0.0
 11
142.263
 21
21.8488
 31
0.0
  0
LINE
  8
0
 62
     0
 10
142.263
 20
21.8488
 30
0.0
 11
145.562
 21
21.8488
 31
0.0
  0
LINE
  8
0
 62
     0
 10
145.562
 20
21.8488
 30
0.0
 11
145.562
 21
22.8286
 31
0.0
  0
LINE
  8
0
 62
     0
 10
145.562
 20
22.8286
 30
0.0
 11
147.288
 21
22.8286
 31
0.0
  0
LINE
  8
0
 62
     0
 10
147.288
 20
22.8286
 30
0.0
 11
147.288
 21
29.0987
 31
0.0
  0
LINE
  8
0
 62
     0
 10
147.288
 20
29.0987
 30
0.0
 11
148.113
 21
29.0987
 31
0.0
  0
LINE
  8
0
 62
     0
 10
148.113
 20
29.0987
 30
0.0
 11
148.113
 21
31.8988
 31
0.0
  0
LINE
  8
0
 62
     0
 10
148.113
 20
31.8988
 30
0.0
 11
147.288
 21
31.8988
 31
0.0
  0
LINE
  8
0
 62
     0
 10
147.288
 20
31.8988
 30
0.0
 11
147.288
 21
35.1289
 31
0.0
  0
LINE
  8
0
 62
     0
 10
147.288
 20
35.1289
 30
0.0
 11
145.562
 21
35.1289
 31
0.0
  0
LINE
  8
0
 62
     0
 10
145.562
 20
35.1289
 30
0.0
 11
145.562
 21
36.0482
 31
0.0
  0
LINE
  8
0
 62
     0
 10
145.562
 20
36.0482
 30
0.0
 11
142.263
 21
36.0482
 31
0.0
  0
LINE
  8
0
 62
     0
 10
142.263
 20
36.0482
 30
0.0
 11
142.263
 21
35.1289
 31
0.0
  0
LINE
  8
0
 62
     0
 10
142.263
 20
35.1289
 30
0.0
 11
140.538
 21
35.1289
 31
0.0
  0
LINE
  8
0
 62
     0
 10
140.538
 20
35.1289
 30
0.0
 11
140.538
 21
31.8988
 31
0.0
  0
LINE
  8
0
 62
     0
 10
140.538
 20
31.8988
 30
0.0
 11
139.012
 21
31.8988
 31
0.0
  0
LINE
  8
0
 62
     0
 10
139.012
 20
31.8988
 30
0.0
 11
139.012
 21
32.4983
 31
0.0
  0
LINE
  8
0
 62
     0
 10
139.012
 20
32.4983
 30
0.0
 11
139.813
 21
32.4983
 31
0.0
  0
LINE
  8
0
 62
     0
 10
139.813
 20
32.4983
 30
0.0
 11
139.813
 21
35.5988
 31
0.0
  0
LINE
  8
0
 62
     0
 10
139.813
 20
35.5988
 30
0.0
 11
139.012
 21
35.5988
 31
0.0
  0
LINE
  8
0
 62
     0
 10
139.012
 20
35.5988
 30
0.0
 11
139.012
 21
36.5993
 31
0.0
  0
LINE
  8
0
 62
     0
 10
139.012
 20
36.5993
 30
0.0
 11
125.013
 21
36.5993
 31
0.0
  0
LINE
  8
0
 62
     0
 10
22.6191
 20
36.5993
 30
0.0
 11
22.6191
 21
35.5988
 31
0.0
  0
LINE
  8
0
 62
     0
 10
22.6191
 20
35.5988
 30
0.0
 11
21.8185
 21
35.5988
 31
0.0
  0
LINE
  8
0
 62
     0
 10
21.8185
 20
35.5988
 30
0.0
 11
21.8185
 21
32.4983
 31
0.0
  0
LINE
  8
0
 62
     0
 10
21.8185
 20
32.4983
 30
0.0
 11
22.6191
 21
32.4983
 31
0.0
  0
LINE
  8
0
 62
     0
 10
22.6191
 20
32.4983
 30
0.0
 11
22.6191
 21
26.6981
 31
0.0
  0
LINE
  8
0
 62
     0
 10
22.6191
 20
26.6981
 30
0.0
 11
21.8185
 21
26.6981
 31
0.0
  0
LINE
  8
0
 62
     0
 10
21.8185
 20
26.6981
 30
0.0
 11
21.8185
 21
23.5989
 31
0.0
  0
LINE
  8
0
 62
     0
 10
21.8185
 20
23.5989
 30
0.0
 11
22.6191
 21
23.5989
 31
0.0
  0
LINE
  8
0
 62
     0
 10
22.6191
 20
23.5989
 30
0.0
 11
22.6191
 21
22.5985
 31
0.0
  0
LINE
  8
0
 62
     0
 10
22.6191
 20
22.5985
 30
0.0
 11
36.6201
 21
22.5985
 31
0.0
  0
LINE
  8
0
 62
     0
 10
36.6201
 20
22.5985
 30
0.0
 11
36.6201
 21
23.5989
 31
0.0
  0
LINE
  8
0
 62
     0
 10
36.6201
 20
23.5989
 30
0.0
 11
37.4191
 21
23.5989
 31
0.0
  0
LINE
  8
0
 62
     0
 10
37.4191
 20
23.5989
 30
0.0
 11
37.4191
 21
26.6981
 31
0.0
  0
LINE
  8
0
 62
     0
 10
37.4191
 20
26.6981
 30
0.0
 11
36.6201
 21
26.6981
 31
0.0
  0
LINE
  8
0
 62
     0
 10
36.6201
 20
26.6981
 30
0.0
 11
36.6201
 21
32.4983
 31
0.0
  0
LINE
  8
0
 62
     0
 10
36.6201
 20
32.4983
 30
0.0
 11
37.4191
 21
32.4983
 31
0.0
  0
LINE
  8
0
 62
     0
 10
37.4191
 20
32.4983
 30
0.0
 11
37.4191
 21
35.5988
 31
0.0
  0
LINE
  8
0
 62
     0
 10
37.4191
 20
35.5988
 30
0.0
 11
36.6201
 21
35.5988
 31
0.0
  0
LINE
  8
0
 62
     0
 10
36.6201
 20
35.5988
 30
0.0
 11
36.6201
 21
36.5993
 31
0.0
  0
LINE
  8
0
 62
     0
 10
36.6201
 20
36.5993
 30
0.0
 11
22.6191
 21
36.5993
 31
0.0
  0
LINE
  8
0
 62
     0
 10
41.6691
 20
36.5993
 30
0.0
 11
41.6691
 21
35.5988
 31
0.0
  0
LINE
  8
0
 62
     0
 10
41.6691
 20
35.5988
 30
0.0
 11
40.87
 21
35.5988
 31
0.0
  0
LINE
  8
0
 62
     0
 10
40.87
 20
35.5988
 30
0.0
 11
40.87
 21
32.4983
 31
0.0
  0
LINE
  8
0
 62
     0
 10
40.87
 20
32.4983
 30
0.0
 11
41.6691
 21
32.4983
 31
0.0
  0
LINE
  8
0
 62
     0
 10
41.6691
 20
32.4983
 30
0.0
 11
41.6691
 21
26.6981
 31
0.0
  0
LINE
  8
0
 62
     0
 10
41.6691
 20
26.6981
 30
0.0
 11
40.87
 21
26.6981
 31
0.0
  0
LINE
  8
0
 62
     0
 10
40.87
 20
26.6981
 30
0.0
 11
40.87
 21
23.5989
 31
0.0
  0
LINE
  8
0
 62
     0
 10
40.87
 20
23.5989
 30
0.0
 11
41.6691
 21
23.5989
 31
0.0
  0
LINE
  8
0
 62
     0
 10
41.6691
 20
23.5989
 30
0.0
 11
41.6691
 21
22.5985
 31
0.0
  0
LINE
  8
0
 62
     0
 10
41.6691
 20
22.5985
 30
0.0
 11
55.6701
 21
22.5985
 31
0.0
  0
LINE
  8
0
 62
     0
 10
55.6701
 20
22.5985
 30
0.0
 11
55.6701
 21
23.5989
 31
0.0
  0
LINE
  8
0
 62
     0
 10
55.6701
 20
23.5989
 30
0.0
 11
56.4691
 21
23.5989
 31
0.0
  0
LINE
  8
0
 62
     0
 10
56.4691
 20
23.5989
 30
0.0
 11
56.4691
 21
26.6981
 31
0.0
  0
LINE
  8
0
 62
     0
 10
56.4691
 20
26.6981
 30
0.0
 11
55.6701
 21
26.6981
 31
0.0
  0
LINE
  8
0
 62
     0
 10
55.6701
 20
26.6981
 30
0.0
 11
55.6701
 21
32.4983
 31
0.0
  0
LINE
  8
0
 62
     0
 10
55.6701
 20
32.4983
 30
0.0
 11
56.4691
 21
32.4983
 31
0.0
  0
LINE
  8
0
 62
     0
 10
56.4691
 20
32.4983
 30
0.0
 11
56.4691
 21
35.5988
 31
0.0
  0
LINE
  8
0
 62
     0
 10
56.4691
 20
35.5988
 30
0.0
 11
55.6701
 21
35.5988
 31
0.0
  0
LINE
  8
0
 62
     0
 10
55.6701
 20
35.5988
 30
0.0
 11
55.6701
 21
36.5993
 31
0.0
  0
LINE
  8
0
 62
     0
 10
55.6701
 20
36.5993
 30
0.0
 11
41.6691
 21
36.5993
 31
0.0
  0
LINE
  8
0
 62
     0
 10
60.7191
 20
36.5993
 30
0.0
 11
60.7191
 21
35.5988
 31
0.0
  0
LINE
  8
0
 62
     0
 10
60.7191
 20
35.5988
 30
0.0
 11
59.92
 21
35.5988
 31
0.0
  0
LINE
  8
0
 62
     0
 10
59.92
 20
35.5988
 30
0.0
 11
59.92
 21
32.4983
 31
0.0
  0
LINE
  8
0
 62
     0
 10
59.92
 20
32.4983
 30
0.0
 11
60.7191
 21
32.4983
 31
0.0
  0
LINE
  8
0
 62
     0
 10
60.7191
 20
32.4983
 30
0.0
 11
60.7191
 21
26.6981
 31
0.0
  0
LINE
  8
0
 62
     0
 10
60.7191
 20
26.6981
 30
0.0
 11
59.92
 21
26.6981
 31
0.0
  0
LINE
  8
0
 62
     0
 10
59.92
 20
26.6981
 30
0.0
 11
59.92
 21
23.5989
 31
0.0
  0
LINE
  8
0
 62
     0
 10
59.92
 20
23.5989
 30
0.0
 11
60.7191
 21
23.5989
 31
0.0
  0
LINE
  8
0
 62
     0
 10
60.7191
 20
23.5989
 30
0.0
 11
60.7191
 21
22.5985
 31
0.0
  0
LINE
  8
0
 62
     0
 10
60.7191
 20
22.5985
 30
0.0
 11
74.7201
 21
22.5985
 31
0.0
  0
LINE
  8
0
 62
     0
 10
74.7201
 20
22.5985
 30
0.0
 11
74.7201
 21
23.5989
 31
0.0
  0
LINE
  8
0
 62
     0
 10
74.7201
 20
23.5989
 30
0.0
 11
75.5191
 21
23.5989
 31
0.0
  0
LINE
  8
0
 62
     0
 10
75.5191
 20
23.5989
 30
0.0
 11
75.5191
 21
26.6981
 31
0.0
  0
LINE
  8
0
 62
     0
 10
75.5191
 20
26.6981
 30
0.0
 11
74.7201
 21
26.6981
 31
0.0
  0
LINE
  8
0
 62
     0
 10
74.7201
 20
26.6981
 30
0.0
 11
74.7201
 21
32.4983
 31
0.0
  0
LINE
  8
0
 62
     0
 10
74.7201
 20
32.4983
 30
0.0
 11
75.5191
 21
32.4983
 31
0.0
  0
LINE
  8
0
 62
     0
 10
75.5191
 20
32.4983
 30
0.0
 11
75.5191
 21
35.5988
 31
0.0
  0
LINE
  8
0
 62
     0
 10
75.5191
 20
35.5988
 30
0.0
 11
74.7201
 21
35.5988
 31
0.0
  0
LINE
  8
0
 62
     0
 10
74.7201
 20
35.5988
 30
0.0
 11
74.7201
 21
36.5993
 31
0.0
  0
LINE
  8
0
 62
     0
 10
74.7201
 20
36.5993
 30
0.0
 11
60.7191
 21
36.5993
 31
0.0
  0
LINE
  8
0
 62
     0
 10
84.5316
 20
36.5993
 30
0.0
 11
84.5316
 21
35.5988
 31
0.0
  0
LINE
  8
0
 62
     0
 10
84.5316
 20
35.5988
 30
0.0
 11
83.7325
 21
35.5988
 31
0.0
  0
LINE
  8
0
 62
     0
 10
83.7325
 20
35.5988
 30
0.0
 11
83.7325
 21
32.4983
 31
0.0
  0
LINE
  8
0
 62
     0
 10
83.7325
 20
32.4983
 30
0.0
 11
84.5316
 21
32.4983
 31
0.0
  0
LINE
  8
0
 62
     0
 10
84.5316
 20
32.4983
 30
0.0
 11
84.5316
 21
26.6981
 31
0.0
  0
LINE
  8
0
 62
     0
 10
84.5316
 20
26.6981
 30
0.0
 11
83.7325
 21
26.6981
 31
0.0
  0
LINE
  8
0
 62
     0
 10
83.7325
 20
26.6981
 30
0.0
 11
83.7325
 21
23.5989
 31
0.0
  0
LINE
  8
0
 62
     0
 10
83.7325
 20
23.5989
 30
0.0
 11
84.5316
 21
23.5989
 31
0.0
  0
LINE
  8
0
 62
     0
 10
84.5316
 20
23.5989
 30
0.0
 11
84.5316
 21
22.5985
 31
0.0
  0
LINE
  8
0
 62
     0
 10
84.5316
 20
22.5985
 30
0.0
 11
98.5312
 21
22.5985
 31
0.0
  0
LINE
  8
0
 62
     0
 10
98.5312
 20
22.5985
 30
0.0
 11
98.5312
 21
23.5989
 31
0.0
  0
LINE
  8
0
 62
     0
 10
98.5312
 20
23.5989
 30
0.0
 11
99.3316
 21
23.5989
 31
0.0
  0
LINE
  8
0
 62
     0
 10
99.3316
 20
23.5989
 30
0.0
 11
99.3316
 21
26.6981
 31
0.0
  0
LINE
  8
0
 62
     0
 10
99.3316
 20
26.6981
 30
0.0
 11
98.5312
 21
26.6981
 31
0.0
  0
LINE
  8
0
 62
     0
 10
98.5312
 20
26.6981
 30
0.0
 11
98.5312
 21
32.4983
 31
0.0
  0
LINE
  8
0
 62
     0
 10
98.5312
 20
32.4983
 30
0.0
 11
99.3316
 21
32.4983
 31
0.0
  0
LINE
  8
0
 62
     0
 10
99.3316
 20
32.4983
 30
0.0
 11
99.3316
 21
35.5988
 31
0.0
  0
LINE
  8
0
 62
     0
 10
99.3316
 20
35.5988
 30
0.0
 11
98.5312
 21
35.5988
 31
0.0
  0
LINE
  8
0
 62
     0
 10
98.5312
 20
35.5988
 30
0.0
 11
98.5312
 21
36.5993
 31
0.0
  0
LINE
  8
0
 62
     0
 10
98.5312
 20
36.5993
 30
0.0
 11
84.5316
 21
36.5993
 31
0.0
  0
LINE
  8
0
 62
     0
 10
32.1441
 20
55.6493
 30
0.0
 11
32.1441
 21
54.6488
 31
0.0
  0
LINE
  8
0
 62
     0
 10
32.1441
 20
54.6488
 30
0.0
 11
31.3449
 21
54.6488
 31
0.0
  0
LINE
  8
0
 62
     0
 10
31.3449
 20
54.6488
 30
0.0
 11
31.3449
 21
51.5497
 31
0.0
  0
LINE
  8
0
 62
     0
 10
31.3449
 20
51.5497
 30
0.0
 11
32.1441
 21
51.5497
 31
0.0
  0
LINE
  8
0
 62
     0
 10
32.1441
 20
51.5497
 30
0.0
 11
32.1441
 21
50.9489
 31
0.0
  0
LINE
  8
0
 62
     0
 10
32.1441
 20
50.9489
 30
0.0
 11
30.62
 21
50.9489
 31
0.0
  0
LINE
  8
0
 62
     0
 10
30.62
 20
50.9489
 30
0.0
 11
30.62
 21
54.1789
 31
0.0
  0
LINE
  8
0
 62
     0
 10
30.62
 20
54.1789
 30
0.0
 11
28.8947
 21
54.1789
 31
0.0
  0
LINE
  8
0
 62
     0
 10
28.8947
 20
54.1789
 30
0.0
 11
28.8947
 21
55.0997
 31
0.0
  0
LINE
  8
0
 62
     0
 10
28.8947
 20
55.0997
 30
0.0
 11
25.5943
 21
55.0997
 31
0.0
  0
LINE
  8
0
 62
     0
 10
25.5943
 20
55.0997
 30
0.0
 11
25.5943
 21
54.1789
 31
0.0
  0
LINE
  8
0
 62
     0
 10
25.5943
 20
54.1789
 30
0.0
 11
23.8704
 21
54.1789
 31
0.0
  0
LINE
  8
0
 62
     0
 10
23.8704
 20
54.1789
 30
0.0
 11
23.8704
 21
50.9489
 31
0.0
  0
LINE
  8
0
 62
     0
 10
23.8704
 20
50.9489
 30
0.0
 11
23.0435
 21
50.9489
 31
0.0
  0
LINE
  8
0
 62
     0
 10
23.0435
 20
50.9489
 30
0.0
 11
23.0435
 21
48.1485
 31
0.0
  0
LINE
  8
0
 62
     0
 10
23.0435
 20
48.1485
 30
0.0
 11
23.8704
 21
48.1485
 31
0.0
  0
LINE
  8
0
 62
     0
 10
23.8704
 20
48.1485
 30
0.0
 11
23.8704
 21
41.88
 31
0.0
  0
LINE
  8
0
 62
     0
 10
23.8704
 20
41.88
 30
0.0
 11
25.5943
 21
41.88
 31
0.0
  0
LINE
  8
0
 62
     0
 10
25.5943
 20
41.88
 30
0.0
 11
25.5943
 21
40.8989
 31
0.0
  0
LINE
  8
0
 62
     0
 10
25.5943
 20
40.8989
 30
0.0
 11
28.8947
 21
40.8989
 31
0.0
  0
LINE
  8
0
 62
     0
 10
28.8947
 20
40.8989
 30
0.0
 11
28.8947
 21
41.88
 31
0.0
  0
LINE
  8
0
 62
     0
 10
28.8947
 20
41.88
 30
0.0
 11
30.62
 21
41.88
 31
0.0
  0
LINE
  8
0
 62
     0
 10
30.62
 20
41.88
 30
0.0
 11
30.62
 21
46.3504
 31
0.0
  0
LINE
  8
0
 62
     0
 10
30.62
 20
46.3504
 30
0.0
 11
32.1441
 21
46.3504
 31
0.0
  0
LINE
  8
0
 62
     0
 10
32.1441
 20
46.3504
 30
0.0
 11
32.1441
 21
45.7482
 31
0.0
  0
LINE
  8
0
 62
     0
 10
32.1441
 20
45.7482
 30
0.0
 11
31.3449
 21
45.7482
 31
0.0
  0
LINE
  8
0
 62
     0
 10
31.3449
 20
45.7482
 30
0.0
 11
31.3449
 21
42.6491
 31
0.0
  0
LINE
  8
0
 62
     0
 10
31.3449
 20
42.6491
 30
0.0
 11
32.1441
 21
42.6491
 31
0.0
  0
LINE
  8
0
 62
     0
 10
32.1441
 20
42.6491
 30
0.0
 11
32.1441
 21
41.6486
 31
0.0
  0
LINE
  8
0
 62
     0
 10
32.1441
 20
41.6486
 30
0.0
 11
46.1451
 21
41.6486
 31
0.0
  0
LINE
  8
0
 62
     0
 10
46.1451
 20
41.6486
 30
0.0
 11
46.1451
 21
42.6491
 31
0.0
  0
LINE
  8
0
 62
     0
 10
46.1451
 20
42.6491
 30
0.0
 11
46.9441
 21
42.6491
 31
0.0
  0
LINE
  8
0
 62
     0
 10
46.9441
 20
42.6491
 30
0.0
 11
46.9441
 21
45.7482
 31
0.0
  0
LINE
  8
0
 62
     0
 10
46.9441
 20
45.7482
 30
0.0
 11
46.1451
 21
45.7482
 31
0.0
  0
LINE
  8
0
 62
     0
 10
46.1451
 20
45.7482
 30
0.0
 11
46.1451
 21
46.3504
 31
0.0
  0
LINE
  8
0
 62
     0
 10
46.1451
 20
46.3504
 30
0.0
 11
47.6691
 21
46.3504
 31
0.0
  0
LINE
  8
0
 62
     0
 10
47.6691
 20
46.3504
 30
0.0
 11
47.6691
 21
41.88
 31
0.0
  0
LINE
  8
0
 62
     0
 10
47.6691
 20
41.88
 30
0.0
 11
49.3945
 21
41.88
 31
0.0
  0
LINE
  8
0
 62
     0
 10
49.3945
 20
41.88
 30
0.0
 11
49.3945
 21
40.8989
 31
0.0
  0
LINE
  8
0
 62
     0
 10
49.3945
 20
40.8989
 30
0.0
 11
52.6934
 21
40.8989
 31
0.0
  0
LINE
  8
0
 62
     0
 10
52.6934
 20
40.8989
 30
0.0
 11
52.6934
 21
41.88
 31
0.0
  0
LINE
  8
0
 62
     0
 10
52.6934
 20
41.88
 30
0.0
 11
54.4188
 21
41.88
 31
0.0
  0
LINE
  8
0
 62
     0
 10
54.4188
 20
41.88
 30
0.0
 11
54.4188
 21
48.1485
 31
0.0
  0
LINE
  8
0
 62
     0
 10
54.4188
 20
48.1485
 30
0.0
 11
55.2443
 21
48.1485
 31
0.0
  0
LINE
  8
0
 62
     0
 10
55.2443
 20
48.1485
 30
0.0
 11
55.2443
 21
50.9489
 31
0.0
  0
LINE
  8
0
 62
     0
 10
55.2443
 20
50.9489
 30
0.0
 11
54.4188
 21
50.9489
 31
0.0
  0
LINE
  8
0
 62
     0
 10
54.4188
 20
50.9489
 30
0.0
 11
54.4188
 21
54.1789
 31
0.0
  0
LINE
  8
0
 62
     0
 10
54.4188
 20
54.1789
 30
0.0
 11
52.6934
 21
54.1789
 31
0.0
  0
LINE
  8
0
 62
     0
 10
52.6934
 20
54.1789
 30
0.0
 11
52.6934
 21
55.0997
 31
0.0
  0
LINE
  8
0
 62
     0
 10
52.6934
 20
55.0997
 30
0.0
 11
49.3945
 21
55.0997
 31
0.0
  0
LINE
  8
0
 62
     0
 10
49.3945
 20
55.0997
 30
0.0
 11
49.3945
 21
54.1789
 31
0.0
  0
LINE
  8
0
 62
     0
 10
49.3945
 20
54.1789
 30
0.0
 11
47.6691
 21
54.1789
 31
0.0
  0
LINE
  8
0
 62
     0
 10
47.6691
 20
54.1789
 30
0.0
 11
47.6691
 21
50.9489
 31
0.0
  0
LINE
  8
0
 62
     0
 10
47.6691
 20
50.9489
 30
0.0
 11
46.1451
 21
50.9489
 31
0.0
  0
LINE
  8
0
 62
     0
 10
46.1451
 20
50.9489
 30
0.0
 11
46.1451
 21
51.5497
 31
0.0
  0
LINE
  8
0
 62
     0
 10
46.1451
 20
51.5497
 30
0.0
 11
46.9441
 21
51.5497
 31
0.0
  0
LINE
  8
0
 62
     0
 10
46.9441
 20
51.5497
 30
0.0
 11
46.9441
 21
54.6488
 31
0.0
  0
LINE
  8
0
 62
     0
 10
46.9441
 20
54.6488
 30
0.0
 11
46.1451
 21
54.6488
 31
0.0
  0
LINE
  8
0
 62
     0
 10
46.1451
 20
54.6488
 30
0.0
 11
46.1451
 21
55.6493
 31
0.0
  0
LINE
  8
0
 62
     0
 10
46.1451
 20
55.6493
 30
0.0
 11
32.1441
 21
55.6493
 31
0.0
  0
LINE
  8
0
 62
     0
 10
60.7191
 20
55.6493
 30
0.0
 11
60.7191
 21
54.6488
 31
0.0
  0
LINE
  8
0
 62
     0
 10
60.7191
 20
54.6488
 30
0.0
 11
59.92
 21
54.6488
 31
0.0
  0
LINE
  8
0
 62
     0
 10
59.92
 20
54.6488
 30
0.0
 11
59.92
 21
51.5497
 31
0.0
  0
LINE
  8
0
 62
     0
 10
59.92
 20
51.5497
 30
0.0
 11
60.7191
 21
51.5497
 31
0.0
  0
LINE
  8
0
 62
     0
 10
60.7191
 20
51.5497
 30
0.0
 11
60.7191
 21
45.7482
 31
0.0
  0
LINE
  8
0
 62
     0
 10
60.7191
 20
45.7482
 30
0.0
 11
59.92
 21
45.7482
 31
0.0
  0
LINE
  8
0
 62
     0
 10
59.92
 20
45.7482
 30
0.0
 11
59.92
 21
42.6491
 31
0.0
  0
LINE
  8
0
 62
     0
 10
59.92
 20
42.6491
 30
0.0
 11
60.7191
 21
42.6491
 31
0.0
  0
LINE
  8
0
 62
     0
 10
60.7191
 20
42.6491
 30
0.0
 11
60.7191
 21
41.6486
 31
0.0
  0
LINE
  8
0
 62
     0
 10
60.7191
 20
41.6486
 30
0.0
 11
74.7201
 21
41.6486
 31
0.0
  0
LINE
  8
0
 62
     0
 10
74.7201
 20
41.6486
 30
0.0
 11
74.7201
 21
42.6491
 31
0.0
  0
LINE
  8
0
 62
     0
 10
74.7201
 20
42.6491
 30
0.0
 11
75.5191
 21
42.6491
 31
0.0
  0
LINE
  8
0
 62
     0
 10
75.5191
 20
42.6491
 30
0.0
 11
75.5191
 21
45.7482
 31
0.0
  0
LINE
  8
0
 62
     0
 10
75.5191
 20
45.7482
 30
0.0
 11
74.7201
 21
45.7482
 31
0.0
  0
LINE
  8
0
 62
     0
 10
74.7201
 20
45.7482
 30
0.0
 11
74.7201
 21
51.5497
 31
0.0
  0
LINE
  8
0
 62
     0
 10
74.7201
 20
51.5497
 30
0.0
 11
75.5191
 21
51.5497
 31
0.0
  0
LINE
  8
0
 62
     0
 10
75.5191
 20
51.5497
 30
0.0
 11
75.5191
 21
54.6488
 31
0.0
  0
LINE
  8
0
 62
     0
 10
75.5191
 20
54.6488
 30
0.0
 11
74.7201
 21
54.6488
 31
0.0
  0
LINE
  8
0
 62
     0
 10
74.7201
 20
54.6488
 30
0.0
 11
74.7201
 21
55.6493
 31
0.0
  0
LINE
  8
0
 62
     0
 10
74.7201
 20
55.6493
 30
0.0
 11
60.7191
 21
55.6493
 31
0.0
  0
LINE
  8
0
 62
     0
 10
79.7691
 20
55.6493
 30
0.0
 11
79.7691
 21
54.6488
 31
0.0
  0
LINE
  8
0
 62
     0
 10
79.7691
 20
54.6488
 30
0.0
 11
78.97
 21
54.6488
 31
0.0
  0
LINE
  8
0
 62
     0
 10
78.97
 20
54.6488
 30
0.0
 11
78.97
 21
51.5497
 31
0.0
  0
LINE
  8
0
 62
     0
 10
78.97
 20
51.5497
 30
0.0
 11
79.7691
 21
51.5497
 31
0.0
  0
LINE
  8
0
 62
     0
 10
79.7691
 20
51.5497
 30
0.0
 11
79.7691
 21
45.7482
 31
0.0
  0
LINE
  8
0
 62
     0
 10
79.7691
 20
45.7482
 30
0.0
 11
78.97
 21
45.7482
 31
0.0
  0
LINE
  8
0
 62
     0
 10
78.97
 20
45.7482
 30
0.0
 11
78.97
 21
42.6491
 31
0.0
  0
LINE
  8
0
 62
     0
 10
78.97
 20
42.6491
 30
0.0
 11
79.7691
 21
42.6491
 31
0.0
  0
LINE
  8
0
 62
     0
 10
79.7691
 20
42.6491
 30
0.0
 11
79.7691
 21
41.6486
 31
0.0
  0
LINE
  8
0
 62
     0
 10
79.7691
 20
41.6486
 30
0.0
 11
93.7701
 21
41.6486
 31
0.0
  0
LINE
  8
0
 62
     0
 10
93.7701
 20
41.6486
 30
0.0
 11
93.7701
 21
42.6491
 31
0.0
  0
LINE
  8
0
 62
     0
 10
93.7701
 20
42.6491
 30
0.0
 11
94.5691
 21
42.6491
 31
0.0
  0
LINE
  8
0
 62
     0
 10
94.5691
 20
42.6491
 30
0.0
 11
94.5691
 21
45.7482
 31
0.0
  0
LINE
  8
0
 62
     0
 10
94.5691
 20
45.7482
 30
0.0
 11
93.7701
 21
45.7482
 31
0.0
  0
LINE
  8
0
 62
     0
 10
93.7701
 20
45.7482
 30
0.0
 11
93.7701
 21
51.5497
 31
0.0
  0
LINE
  8
0
 62
     0
 10
93.7701
 20
51.5497
 30
0.0
 11
94.5691
 21
51.5497
 31
0.0
  0
LINE
  8
0
 62
     0
 10
94.5691
 20
51.5497
 30
0.0
 11
94.5691
 21
54.6488
 31
0.0
  0
LINE
  8
0
 62
     0
 10
94.5691
 20
54.6488
 30
0.0
 11
93.7701
 21
54.6488
 31
0.0
  0
LINE
  8
0
 62
     0
 10
93.7701
 20
54.6488
 30
0.0
 11
93.7701
 21
55.6493
 31
0.0
  0
LINE
  8
0
 62
     0
 10
93.7701
 20
55.6493
 30
0.0
 11
79.7691
 21
55.6493
 31
0.0
  0
LINE
  8
0
 62
     0
 10
98.8191
 20
55.6493
 30
0.0
 11
98.8191
 21
54.6488
 31
0.0
  0
LINE
  8
0
 62
     0
 10
98.8191
 20
54.6488
 30
0.0
 11
98.02
 21
54.6488
 31
0.0
  0
LINE
  8
0
 62
     0
 10
98.02
 20
54.6488
 30
0.0
 11
98.02
 21
51.5497
 31
0.0
  0
LINE
  8
0
 62
     0
 10
98.02
 20
51.5497
 30
0.0
 11
98.8191
 21
51.5497
 31
0.0
  0
LINE
  8
0
 62
     0
 10
98.8191
 20
51.5497
 30
0.0
 11
98.8191
 21
45.7482
 31
0.0
  0
LINE
  8
0
 62
     0
 10
98.8191
 20
45.7482
 30
0.0
 11
98.02
 21
45.7482
 31
0.0
  0
LINE
  8
0
 62
     0
 10
98.02
 20
45.7482
 30
0.0
 11
98.02
 21
42.6491
 31
0.0
  0
LINE
  8
0
 62
     0
 10
98.02
 20
42.6491
 30
0.0
 11
98.8191
 21
42.6491
 31
0.0
  0
LINE
  8
0
 62
     0
 10
98.8191
 20
42.6491
 30
0.0
 11
98.8191
 21
41.6486
 31
0.0
  0
LINE
  8
0
 62
     0
 10
98.8191
 20
41.6486
 30
0.0
 11
112.82
 21
41.6486
 31
0.0
  0
LINE
  8
0
 62
     0
 10
112.82
 20
41.6486
 30
0.0
 11
112.82
 21
42.6491
 31
0.0
  0
LINE
  8
0
 62
     0
 10
112.82
 20
42.6491
 30
0.0
 11
113.619
 21
42.6491
 31
0.0
  0
LINE
  8
0
 62
     0
 10
113.619
 20
42.6491
 30
0.0
 11
113.619
 21
45.7482
 31
0.0
  0
LINE
  8
0
 62
     0
 10
113.619
 20
45.7482
 30
0.0
 11
112.82
 21
45.7482
 31
0.0
  0
LINE
  8
0
 62
     0
 10
112.82
 20
45.7482
 30
0.0
 11
112.82
 21
51.5497
 31
0.0
  0
LINE
  8
0
 62
     0
 10
112.82
 20
51.5497
 30
0.0
 11
113.619
 21
51.5497
 31
0.0
  0
LINE
  8
0
 62
     0
 10
113.619
 20
51.5497
 30
0.0
 11
113.619
 21
54.6488
 31
0.0
  0
LINE
  8
0
 62
     0
 10
113.619
 20
54.6488
 30
0.0
 11
112.82
 21
54.6488
 31
0.0
  0
LINE
  8
0
 62
     0
 10
112.82
 20
54.6488
 30
0.0
 11
112.82
 21
55.6493
 31
0.0
  0
LINE
  8
0
 62
     0
 10
112.82
 20
55.6493
 30
0.0
 11
98.8191
 21
55.6493
 31
0.0
  0
LINE
  8
0
 62
     0
 10
117.869
 20
55.6493
 30
0.0
 11
117.869
 21
54.6488
 31
0.0
  0
LINE
  8
0
 62
     0
 10
117.869
 20
54.6488
 30
0.0
 11
117.07
 21
54.6488
 31
0.0
  0
LINE
  8
0
 62
     0
 10
117.07
 20
54.6488
 30
0.0
 11
117.07
 21
51.5497
 31
0.0
  0
LINE
  8
0
 62
     0
 10
117.07
 20
51.5497
 30
0.0
 11
117.869
 21
51.5497
 31
0.0
  0
LINE
  8
0
 62
     0
 10
117.869
 20
51.5497
 30
0.0
 11
117.869
 21
45.7482
 31
0.0
  0
LINE
  8
0
 62
     0
 10
117.869
 20
45.7482
 30
0.0
 11
117.07
 21
45.7482
 31
0.0
  0
LINE
  8
0
 62
     0
 10
117.07
 20
45.7482
 30
0.0
 11
117.07
 21
42.6491
 31
0.0
  0
LINE
  8
0
 62
     0
 10
117.07
 20
42.6491
 30
0.0
 11
117.869
 21
42.6491
 31
0.0
  0
LINE
  8
0
 62
     0
 10
117.869
 20
42.6491
 30
0.0
 11
117.869
 21
41.6486
 31
0.0
  0
LINE
  8
0
 62
     0
 10
117.869
 20
41.6486
 30
0.0
 11
131.87
 21
41.6486
 31
0.0
  0
LINE
  8
0
 62
     0
 10
131.87
 20
41.6486
 30
0.0
 11
131.87
 21
42.6491
 31
0.0
  0
LINE
  8
0
 62
     0
 10
131.87
 20
42.6491
 30
0.0
 11
132.669
 21
42.6491
 31
0.0
  0
LINE
  8
0
 62
     0
 10
132.669
 20
42.6491
 30
0.0
 11
132.669
 21
45.7482
 31
0.0
  0
LINE
  8
0
 62
     0
 10
132.669
 20
45.7482
 30
0.0
 11
131.87
 21
45.7482
 31
0.0
  0
LINE
  8
0
 62
     0
 10
131.87
 20
45.7482
 30
0.0
 11
131.87
 21
51.5497
 31
0.0
  0
LINE
  8
0
 62
     0
 10
131.87
 20
51.5497
 30
0.0
 11
132.669
 21
51.5497
 31
0.0
  0
LINE
  8
0
 62
     0
 10
132.669
 20
51.5497
 30
0.0
 11
132.669
 21
54.6488
 31
0.0
  0
LINE
  8
0
 62
     0
 10
132.669
 20
54.6488
 30
0.0
 11
131.87
 21
54.6488
 31
0.0
  0
LINE
  8
0
 62
     0
 10
131.87
 20
54.6488
 30
0.0
 11
131.87
 21
55.6493
 31
0.0
  0
LINE
  8
0
 62
     0
 10
131.87
 20
55.6493
 30
0.0
 11
117.869
 21
55.6493
 31
0.0
  0
LINE
  8
0
 62
     0
 10
136.919
 20
55.6493
 30
0.0
 11
136.919
 21
54.6488
 31
0.0
  0
LINE
  8
0
 62
     0
 10
136.919
 20
54.6488
 30
0.0
 11
136.12
 21
54.6488
 31
0.0
  0
LINE
  8
0
 62
     0
 10
136.12
 20
54.6488
 30
0.0
 11
136.12
 21
51.5497
 31
0.0
  0
LINE
  8
0
 62
     0
 10
136.12
 20
51.5497
 30
0.0
 11
136.919
 21
51.5497
 31
0.0
  0
LINE
  8
0
 62
     0
 10
136.919
 20
51.5497
 30
0.0
 11
136.919
 21
45.7482
 31
0.0
  0
LINE
  8
0
 62
     0
 10
136.919
 20
45.7482
 30
0.0
 11
136.12
 21
45.7482
 31
0.0
  0
LINE
  8
0
 62
     0
 10
136.12
 20
45.7482
 30
0.0
 11
136.12
 21
42.6491
 31
0.0
  0
LINE
  8
0
 62
     0
 10
136.12
 20
42.6491
 30
0.0
 11
136.919
 21
42.6491
 31
0.0
  0
LINE
  8
0
 62
     0
 10
136.919
 20
42.6491
 30
0.0
 11
136.919
 21
41.6486
 31
0.0
  0
LINE
  8
0
 62
     0
 10
136.919
 20
41.6486
 30
0.0
 11
150.92
 21
41.6486
 31
0.0
  0
LINE
  8
0
 62
     0
 10
150.92
 20
41.6486
 30
0.0
 11
150.92
 21
42.6491
 31
0.0
  0
LINE
  8
0
 62
     0
 10
150.92
 20
42.6491
 30
0.0
 11
151.719
 21
42.6491
 31
0.0
  0
LINE
  8
0
 62
     0
 10
151.719
 20
42.6491
 30
0.0
 11
151.719
 21
45.7482
 31
0.0
  0
LINE
  8
0
 62
     0
 10
151.719
 20
45.7482
 30
0.0
 11
150.92
 21
45.7482
 31
0.0
  0
LINE
  8
0
 62
     0
 10
150.92
 20
45.7482
 30
0.0
 11
150.92
 21
51.5497
 31
0.0
  0
LINE
  8
0
 62
     0
 10
150.92
 20
51.5497
 30
0.0
 11
151.719
 21
51.5497
 31
0.0
  0
LINE
  8
0
 62
     0
 10
151.719
 20
51.5497
 30
0.0
 11
151.719
 21
54.6488
 31
0.0
  0
LINE
  8
0
 62
     0
 10
151.719
 20
54.6488
 30
0.0
 11
150.92
 21
54.6488
 31
0.0
  0
LINE
  8
0
 62
     0
 10
150.92
 20
54.6488
 30
0.0
 11
150.92
 21
55.6493
 31
0.0
  0
LINE
  8
0
 62
     0
 10
150.92
 20
55.6493
 30
0.0
 11
136.919
 21
55.6493
 31
0.0
  0
LINE
  8
0
 62
     0
 10
27.3816
 20
74.6993
 30
0.0
 11
27.3816
 21
73.6988
 31
0.0
  0
LINE
  8
0
 62
     0
 10
27.3816
 20
73.6988
 30
0.0
 11
26.5824
 21
73.6988
 31
0.0
  0
LINE
  8
0
 62
     0
 10
26.5824
 20
73.6988
 30
0.0
 11
26.5824
 21
70.5997
 31
0.0
  0
LINE
  8
0
 62
     0
 10
26.5824
 20
70.5997
 30
0.0
 11
27.3816
 21
70.5997
 31
0.0
  0
LINE
  8
0
 62
     0
 10
27.3816
 20
70.5997
 30
0.0
 11
27.3816
 21
64.7982
 31
0.0
  0
LINE
  8
0
 62
     0
 10
27.3816
 20
64.7982
 30
0.0
 11
26.5824
 21
64.7982
 31
0.0
  0
LINE
  8
0
 62
     0
 10
26.5824
 20
64.7982
 30
0.0
 11
26.5824
 21
61.6991
 31
0.0
  0
LINE
  8
0
 62
     0
 10
26.5824
 20
61.6991
 30
0.0
 11
27.3816
 21
61.6991
 31
0.0
  0
LINE
  8
0
 62
     0
 10
27.3816
 20
61.6991
 30
0.0
 11
27.3816
 21
60.6986
 31
0.0
  0
LINE
  8
0
 62
     0
 10
27.3816
 20
60.6986
 30
0.0
 11
41.3812
 21
60.6986
 31
0.0
  0
LINE
  8
0
 62
     0
 10
41.3812
 20
60.6986
 30
0.0
 11
41.3812
 21
61.6991
 31
0.0
  0
LINE
  8
0
 62
     0
 10
41.3812
 20
61.6991
 30
0.0
 11
42.1816
 21
61.6991
 31
0.0
  0
LINE
  8
0
 62
     0
 10
42.1816
 20
61.6991
 30
0.0
 11
42.1816
 21
64.7982
 31
0.0
  0
LINE
  8
0
 62
     0
 10
42.1816
 20
64.7982
 30
0.0
 11
41.3812
 21
64.7982
 31
0.0
  0
LINE
  8
0
 62
     0
 10
41.3812
 20
64.7982
 30
0.0
 11
41.3812
 21
70.5997
 31
0.0
  0
LINE
  8
0
 62
     0
 10
41.3812
 20
70.5997
 30
0.0
 11
42.1816
 21
70.5997
 31
0.0
  0
LINE
  8
0
 62
     0
 10
42.1816
 20
70.5997
 30
0.0
 11
42.1816
 21
73.6988
 31
0.0
  0
LINE
  8
0
 62
     0
 10
42.1816
 20
73.6988
 30
0.0
 11
41.3812
 21
73.6988
 31
0.0
  0
LINE
  8
0
 62
     0
 10
41.3812
 20
73.6988
 30
0.0
 11
41.3812
 21
74.6993
 31
0.0
  0
LINE
  8
0
 62
     0
 10
41.3812
 20
74.6993
 30
0.0
 11
27.3816
 21
74.6993
 31
0.0
  0
LINE
  8
0
 62
     0
 10
55.9566
 20
74.6993
 30
0.0
 11
55.9566
 21
73.6988
 31
0.0
  0
LINE
  8
0
 62
     0
 10
55.9566
 20
73.6988
 30
0.0
 11
55.1575
 21
73.6988
 31
0.0
  0
LINE
  8
0
 62
     0
 10
55.1575
 20
73.6988
 30
0.0
 11
55.1575
 21
70.5997
 31
0.0
  0
LINE
  8
0
 62
     0
 10
55.1575
 20
70.5997
 30
0.0
 11
55.9566
 21
70.5997
 31
0.0
  0
LINE
  8
0
 62
     0
 10
55.9566
 20
70.5997
 30
0.0
 11
55.9566
 21
64.7982
 31
0.0
  0
LINE
  8
0
 62
     0
 10
55.9566
 20
64.7982
 30
0.0
 11
55.1575
 21
64.7982
 31
0.0
  0
LINE
  8
0
 62
     0
 10
55.1575
 20
64.7982
 30
0.0
 11
55.1575
 21
61.6991
 31
0.0
  0
LINE
  8
0
 62
     0
 10
55.1575
 20
61.6991
 30
0.0
 11
55.9566
 21
61.6991
 31
0.0
  0
LINE
  8
0
 62
     0
 10
55.9566
 20
61.6991
 30
0.0
 11
55.9566
 21
60.6986
 31
0.0
  0
LINE
  8
0
 62
     0
 10
55.9566
 20
60.6986
 30
0.0
 11
69.9562
 21
60.6986
 31
0.0
  0
LINE
  8
0
 62
     0
 10
69.9562
 20
60.6986
 30
0.0
 11
69.9562
 21
61.6991
 31
0.0
  0
LINE
  8
0
 62
     0
 10
69.9562
 20
61.6991
 30
0.0
 11
70.7566
 21
61.6991
 31
0.0
  0
LINE
  8
0
 62
     0
 10
70.7566
 20
61.6991
 30
0.0
 11
70.7566
 21
64.7982
 31
0.0
  0
LINE
  8
0
 62
     0
 10
70.7566
 20
64.7982
 30
0.0
 11
69.9562
 21
64.7982
 31
0.0
  0
LINE
  8
0
 62
     0
 10
69.9562
 20
64.7982
 30
0.0
 11
69.9562
 21
70.5997
 31
0.0
  0
LINE
  8
0
 62
     0
 10
69.9562
 20
70.5997
 30
0.0
 11
70.7566
 21
70.5997
 31
0.0
  0
LINE
  8
0
 62
     0
 10
70.7566
 20
70.5997
 30
0.0
 11
70.7566
 21
73.6988
 31
0.0
  0
LINE
  8
0
 62
     0
 10
70.7566
 20
73.6988
 30
0.0
 11
69.9562
 21
73.6988
 31
0.0
  0
LINE
  8
0
 62
     0
 10
69.9562
 20
73.6988
 30
0.0
 11
69.9562
 21
74.6993
 31
0.0
  0
LINE
  8
0
 62
     0
 10
69.9562
 20
74.6993
 30
0.0
 11
55.9566
 21
74.6993
 31
0.0
  0
LINE
  8
0
 62
     0
 10
75.0066
 20
74.6993
 30
0.0
 11
75.0066
 21
73.6988
 31
0.0
  0
LINE
  8
0
 62
     0
 10
75.0066
 20
73.6988
 30
0.0
 11
74.2075
 21
73.6988
 31
0.0
  0
LINE
  8
0
 62
     0
 10
74.2075
 20
73.6988
 30
0.0
 11
74.2075
 21
70.5997
 31
0.0
  0
LINE
  8
0
 62
     0
 10
74.2075
 20
70.5997
 30
0.0
 11
75.0066
 21
70.5997
 31
0.0
  0
LINE
  8
0
 62
     0
 10
75.0066
 20
70.5997
 30
0.0
 11
75.0066
 21
64.7982
 31
0.0
  0
LINE
  8
0
 62
     0
 10
75.0066
 20
64.7982
 30
0.0
 11
74.2075
 21
64.7982
 31
0.0
  0
LINE
  8
0
 62
     0
 10
74.2075
 20
64.7982
 30
0.0
 11
74.2075
 21
61.6991
 31
0.0
  0
LINE
  8
0
 62
     0
 10
74.2075
 20
61.6991
 30
0.0
 11
75.0066
 21
61.6991
 31
0.0
  0
LINE
  8
0
 62
     0
 10
75.0066
 20
61.6991
 30
0.0
 11
75.0066
 21
60.6986
 31
0.0
  0
LINE
  8
0
 62
     0
 10
75.0066
 20
60.6986
 30
0.0
 11
89.0062
 21
60.6986
 31
0.0
  0
LINE
  8
0
 62
     0
 10
89.0062
 20
60.6986
 30
0.0
 11
89.0062
 21
61.6991
 31
0.0
  0
LINE
  8
0
 62
     0
 10
89.0062
 20
61.6991
 30
0.0
 11
89.8066
 21
61.6991
 31
0.0
  0
LINE
  8
0
 62
     0
 10
89.8066
 20
61.6991
 30
0.0
 11
89.8066
 21
64.7982
 31
0.0
  0
LINE
  8
0
 62
     0
 10
89.8066
 20
64.7982
 30
0.0
 11
89.0062
 21
64.7982
 31
0.0
  0
LINE
  8
0
 62
     0
 10
89.0062
 20
64.7982
 30
0.0
 11
89.0062
 21
70.5997
 31
0.0
  0
LINE
  8
0
 62
     0
 10
89.0062
 20
70.5997
 30
0.0
 11
89.8066
 21
70.5997
 31
0.0
  0
LINE
  8
0
 62
     0
 10
89.8066
 20
70.5997
 30
0.0
 11
89.8066
 21
73.6988
 31
0.0
  0
LINE
  8
0
 62
     0
 10
89.8066
 20
73.6988
 30
0.0
 11
89.0062
 21
73.6988
 31
0.0
  0
LINE
  8
0
 62
     0
 10
89.0062
 20
73.6988
 30
0.0
 11
89.0062
 21
74.6993
 31
0.0
  0
LINE
  8
0
 62
     0
 10
89.0062
 20
74.6993
 30
0.0
 11
75.0066
 21
74.6993
 31
0.0
  0
LINE
  8
0
 62
     0
 10
94.0566
 20
74.6993
 30
0.0
 11
94.0566
 21
73.6988
 31
0.0
  0
LINE
  8
0
 62
     0
 10
94.0566
 20
73.6988
 30
0.0
 11
93.2575
 21
73.6988
 31
0.0
  0
LINE
  8
0
 62
     0
 10
93.2575
 20
73.6988
 30
0.0
 11
93.2575
 21
70.5997
 31
0.0
  0
LINE
  8
0
 62
     0
 10
93.2575
 20
70.5997
 30
0.0
 11
94.0566
 21
70.5997
 31
0.0
  0
LINE
  8
0
 62
     0
 10
94.0566
 20
70.5997
 30
0.0
 11
94.0566
 21
64.7982
 31
0.0
  0
LINE
  8
0
 62
     0
 10
94.0566
 20
64.7982
 30
0.0
 11
93.2575
 21
64.7982
 31
0.0
  0
LINE
  8
0
 62
     0
 10
93.2575
 20
64.7982
 30
0.0
 11
93.2575
 21
61.6991
 31
0.0
  0
LINE
  8
0
 62
     0
 10
93.2575
 20
61.6991
 30
0.0
 11
94.0566
 21
61.6991
 31
0.0
  0
LINE
  8
0
 62
     0
 10
94.0566
 20
61.6991
 30
0.0
 11
94.0566
 21
60.6986
 31
0.0
  0
LINE
  8
0
 62
     0
 10
94.0566
 20
60.6986
 30
0.0
 11
108.056
 21
60.6986
 31
0.0
  0
LINE
  8
0
 62
     0
 10
108.056
 20
60.6986
 30
0.0
 11
108.056
 21
61.6991
 31
0.0
  0
LINE
  8
0
 62
     0
 10
108.056
 20
61.6991
 30
0.0
 11
108.857
 21
61.6991
 31
0.0
  0
LINE
  8
0
 62
     0
 10
108.857
 20
61.6991
 30
0.0
 11
108.857
 21
64.7982
 31
0.0
  0
LINE
  8
0
 62
     0
 10
108.857
 20
64.7982
 30
0.0
 11
108.056
 21
64.7982
 31
0.0
  0
LINE
  8
0
 62
     0
 10
108.056
 20
64.7982
 30
0.0
 11
108.056
 21
70.5997
 31
0.0
  0
LINE
  8
0
 62
     0
 10
108.056
 20
70.5997
 30
0.0
 11
108.857
 21
70.5997
 31
0.0
  0
LINE
  8
0
 62
     0
 10
108.857
 20
70.5997
 30
0.0
 11
108.857
 21
73.6988
 31
0.0
  0
LINE
  8
0
 62
     0
 10
108.857
 20
73.6988
 30
0.0
 11
108.056
 21
73.6988
 31
0.0
  0
LINE
  8
0
 62
     0
 10
108.056
 20
73.6988
 30
0.0
 11
108.056
 21
74.6993
 31
0.0
  0
LINE
  8
0
 62
     0
 10
108.056
 20
74.6993
 30
0.0
 11
94.0566
 21
74.6993
 31
0.0
  0
LINE
  8
0
 62
     0
 10
113.107
 20
74.6993
 30
0.0
 11
113.107
 21
73.6988
 31
0.0
  0
LINE
  8
0
 62
     0
 10
113.107
 20
73.6988
 30
0.0
 11
112.308
 21
73.6988
 31
0.0
  0
LINE
  8
0
 62
     0
 10
112.308
 20
73.6988
 30
0.0
 11
112.308
 21
70.5997
 31
0.0
  0
LINE
  8
0
 62
     0
 10
112.308
 20
70.5997
 30
0.0
 11
113.107
 21
70.5997
 31
0.0
  0
LINE
  8
0
 62
     0
 10
113.107
 20
70.5997
 30
0.0
 11
113.107
 21
64.7982
 31
0.0
  0
LINE
  8
0
 62
     0
 10
113.107
 20
64.7982
 30
0.0
 11
112.308
 21
64.7982
 31
0.0
  0
LINE
  8
0
 62
     0
 10
112.308
 20
64.7982
 30
0.0
 11
112.308
 21
61.6991
 31
0.0
  0
LINE
  8
0
 62
     0
 10
112.308
 20
61.6991
 30
0.0
 11
113.107
 21
61.6991
 31
0.0
  0
LINE
  8
0
 62
     0
 10
113.107
 20
61.6991
 30
0.0
 11
113.107
 21
60.6986
 31
0.0
  0
LINE
  8
0
 62
     0
 10
113.107
 20
60.6986
 30
0.0
 11
127.106
 21
60.6986
 31
0.0
  0
LINE
  8
0
 62
     0
 10
127.106
 20
60.6986
 30
0.0
 11
127.106
 21
61.6991
 31
0.0
  0
LINE
  8
0
 62
     0
 10
127.106
 20
61.6991
 30
0.0
 11
127.907
 21
61.6991
 31
0.0
  0
LINE
  8
0
 62
     0
 10
127.907
 20
61.6991
 30
0.0
 11
127.907
 21
64.7982
 31
0.0
  0
LINE
  8
0
 62
     0
 10
127.907
 20
64.7982
 30
0.0
 11
127.106
 21
64.7982
 31
0.0
  0
LINE
  8
0
 62
     0
 10
127.106
 20
64.7982
 30
0.0
 11
127.106
 21
70.5997
 31
0.0
  0
LINE
  8
0
 62
     0
 10
127.106
 20
70.5997
 30
0.0
 11
127.907
 21
70.5997
 31
0.0
  0
LINE
  8
0
 62
     0
 10
127.907
 20
70.5997
 30
0.0
 11
127.907
 21
73.6988
 31
0.0
  0
LINE
  8
0
 62
     0
 10
127.907
 20
73.6988
 30
0.0
 11
127.106
 21
73.6988
 31
0.0
  0
LINE
  8
0
 62
     0
 10
127.106
 20
73.6988
 30
0.0
 11
127.106
 21
74.6993
 31
0.0
  0
LINE
  8
0
 62
     0
 10
127.106
 20
74.6993
 30
0.0
 11
113.107
 21
74.6993
 31
0.0
  0
LINE
  8
0
 62
     0
 10
134.538
 20
74.6993
 30
0.0
 11
134.538
 21
73.6988
 31
0.0
  0
LINE
  8
0
 62
     0
 10
134.538
 20
73.6988
 30
0.0
 11
133.737
 21
73.6988
 31
0.0
  0
LINE
  8
0
 62
     0
 10
133.737
 20
73.6988
 30
0.0
 11
133.737
 21
70.5997
 31
0.0
  0
LINE
  8
0
 62
     0
 10
133.737
 20
70.5997
 30
0.0
 11
134.538
 21
70.5997
 31
0.0
  0
LINE
  8
0
 62
     0
 10
134.538
 20
70.5997
 30
0.0
 11
134.538
 21
64.7982
 31
0.0
  0
LINE
  8
0
 62
     0
 10
134.538
 20
64.7982
 30
0.0
 11
133.737
 21
64.7982
 31
0.0
  0
LINE
  8
0
 62
     0
 10
133.737
 20
64.7982
 30
0.0
 11
133.737
 21
61.6991
 31
0.0
  0
LINE
  8
0
 62
     0
 10
133.737
 20
61.6991
 30
0.0
 11
134.538
 21
61.6991
 31
0.0
  0
LINE
  8
0
 62
     0
 10
134.538
 20
61.6991
 30
0.0
 11
134.538
 21
60.6986
 31
0.0
  0
LINE
  8
0
 62
     0
 10
134.538
 20
60.6986
 30
0.0
 11
148.537
 21
60.6986
 31
0.0
  0
LINE
  8
0
 62
     0
 10
148.537
 20
60.6986
 30
0.0
 11
148.537
 21
61.6991
 31
0.0
  0
LINE
  8
0
 62
     0
 10
148.537
 20
61.6991
 30
0.0
 11
149.338
 21
61.6991
 31
0.0
  0
LINE
  8
0
 62
     0
 10
149.338
 20
61.6991
 30
0.0
 11
149.338
 21
64.7982
 31
0.0
  0
LINE
  8
0
 62
     0
 10
149.338
 20
64.7982
 30
0.0
 11
148.537
 21
64.7982
 31
0.0
  0
LINE
  8
0
 62
     0
 10
148.537
 20
64.7982
 30
0.0
 11
148.537
 21
70.5997
 31
0.0
  0
LINE
  8
0
 62
     0
 10
148.537
 20
70.5997
 30
0.0
 11
149.338
 21
70.5997
 31
0.0
  0
LINE
  8
0
 62
     0
 10
149.338
 20
70.5997
 30
0.0
 11
149.338
 21
73.6988
 31
0.0
  0
LINE
  8
0
 62
     0
 10
149.338
 20
73.6988
 30
0.0
 11
148.537
 21
73.6988
 31
0.0
  0
LINE
  8
0
 62
     0
 10
148.537
 20
73.6988
 30
0.0
 11
148.537
 21
74.6993
 31
0.0
  0
LINE
  8
0
 62
     0
 10
148.537
 20
74.6993
 30
0.0
 11
134.538
 21
74.6993
 31
0.0
  0
LINE
  8
0
 62
     0
 10
27.3816
 20
93.7493
 30
0.0
 11
27.3816
 21
92.7488
 31
0.0
  0
LINE
  8
0
 62
     0
 10
27.3816
 20
92.7488
 30
0.0
 11
26.5824
 21
92.7488
 31
0.0
  0
LINE
  8
0
 62
     0
 10
26.5824
 20
92.7488
 30
0.0
 11
26.5824
 21
89.6482
 31
0.0
  0
LINE
  8
0
 62
     0
 10
26.5824
 20
89.6482
 30
0.0
 11
27.3816
 21
89.6482
 31
0.0
  0
LINE
  8
0
 62
     0
 10
27.3816
 20
89.6482
 30
0.0
 11
27.3816
 21
83.8482
 31
0.0
  0
LINE
  8
0
 62
     0
 10
27.3816
 20
83.8482
 30
0.0
 11
26.5824
 21
83.8482
 31
0.0
  0
LINE
  8
0
 62
     0
 10
26.5824
 20
83.8482
 30
0.0
 11
26.5824
 21
80.7491
 31
0.0
  0
LINE
  8
0
 62
     0
 10
26.5824
 20
80.7491
 30
0.0
 11
27.3816
 21
80.7491
 31
0.0
  0
LINE
  8
0
 62
     0
 10
27.3816
 20
80.7491
 30
0.0
 11
27.3816
 21
79.7486
 31
0.0
  0
LINE
  8
0
 62
     0
 10
27.3816
 20
79.7486
 30
0.0
 11
41.3812
 21
79.7486
 31
0.0
  0
LINE
  8
0
 62
     0
 10
41.3812
 20
79.7486
 30
0.0
 11
41.3812
 21
80.7491
 31
0.0
  0
LINE
  8
0
 62
     0
 10
41.3812
 20
80.7491
 30
0.0
 11
42.1816
 21
80.7491
 31
0.0
  0
LINE
  8
0
 62
     0
 10
42.1816
 20
80.7491
 30
0.0
 11
42.1816
 21
83.8482
 31
0.0
  0
LINE
  8
0
 62
     0
 10
42.1816
 20
83.8482
 30
0.0
 11
41.3812
 21
83.8482
 31
0.0
  0
LINE
  8
0
 62
     0
 10
41.3812
 20
83.8482
 30
0.0
 11
41.3812
 21
89.6482
 31
0.0
  0
LINE
  8
0
 62
     0
 10
41.3812
 20
89.6482
 30
0.0
 11
42.1816
 21
89.6482
 31
0.0
  0
LINE
  8
0
 62
     0
 10
42.1816
 20
89.6482
 30
0.0
 11
42.1816
 21
92.7488
 31
0.0
  0
LINE
  8
0
 62
     0
 10
42.1816
 20
92.7488
 30
0.0
 11
41.3812
 21
92.7488
 31
0.0
  0
LINE
  8
0
 62
     0
 10
41.3812
 20
92.7488
 30
0.0
 11
41.3812
 21
93.7493
 31
0.0
  0
LINE
  8
0
 62
     0
 10
41.3812
 20
93.7493
 30
0.0
 11
27.3816
 21
93.7493
 31
0.0
  0
LINE
  8
0
 62
     0
 10
51.1941
 20
93.7493
 30
0.0
 11
51.1941
 21
92.7488
 31
0.0
  0
LINE
  8
0
 62
     0
 10
51.1941
 20
92.7488
 30
0.0
 11
50.395
 21
92.7488
 31
0.0
  0
LINE
  8
0
 62
     0
 10
50.395
 20
92.7488
 30
0.0
 11
50.395
 21
89.6482
 31
0.0
  0
LINE
  8
0
 62
     0
 10
50.395
 20
89.6482
 30
0.0
 11
51.1941
 21
89.6482
 31
0.0
  0
LINE
  8
0
 62
     0
 10
51.1941
 20
89.6482
 30
0.0
 11
51.1941
 21
83.8482
 31
0.0
  0
LINE
  8
0
 62
     0
 10
51.1941
 20
83.8482
 30
0.0
 11
50.395
 21
83.8482
 31
0.0
  0
LINE
  8
0
 62
     0
 10
50.395
 20
83.8482
 30
0.0
 11
50.395
 21
80.7491
 31
0.0
  0
LINE
  8
0
 62
     0
 10
50.395
 20
80.7491
 30
0.0
 11
51.1941
 21
80.7491
 31
0.0
  0
LINE
  8
0
 62
     0
 10
51.1941
 20
80.7491
 30
0.0
 11
51.1941
 21
79.7486
 31
0.0
  0
LINE
  8
0
 62
     0
 10
51.1941
 20
79.7486
 30
0.0
 11
65.1951
 21
79.7486
 31
0.0
  0
LINE
  8
0
 62
     0
 10
65.1951
 20
79.7486
 30
0.0
 11
65.1951
 21
80.7491
 31
0.0
  0
LINE
  8
0
 62
     0
 10
65.1951
 20
80.7491
 30
0.0
 11
65.9941
 21
80.7491
 31
0.0
  0
LINE
  8
0
 62
     0
 10
65.9941
 20
80.7491
 30
0.0
 11
65.9941
 21
83.8482
 31
0.0
  0
LINE
  8
0
 62
     0
 10
65.9941
 20
83.8482
 30
0.0
 11
65.1951
 21
83.8482
 31
0.0
  0
LINE
  8
0
 62
     0
 10
65.1951
 20
83.8482
 30
0.0
 11
65.1951
 21
89.6482
 31
0.0
  0
LINE
  8
0
 62
     0
 10
65.1951
 20
89.6482
 30
0.0
 11
65.9941
 21
89.6482
 31
0.0
  0
LINE
  8
0
 62
     0
 10
65.9941
 20
89.6482
 30
0.0
 11
65.9941
 21
92.7488
 31
0.0
  0
LINE
  8
0
 62
     0
 10
65.9941
 20
92.7488
 30
0.0
 11
65.1951
 21
92.7488
 31
0.0
  0
LINE
  8
0
 62
     0
 10
65.1951
 20
92.7488
 30
0.0
 11
65.1951
 21
93.7493
 31
0.0
  0
LINE
  8
0
 62
     0
 10
65.1951
 20
93.7493
 30
0.0
 11
51.1941
 21
93.7493
 31
0.0
  0
LINE
  8
0
 62
     0
 10
70.2441
 20
93.7493
 30
0.0
 11
70.2441
 21
92.7488
 31
0.0
  0
LINE
  8
0
 62
     0
 10
70.2441
 20
92.7488
 30
0.0
 11
69.445
 21
92.7488
 31
0.0
  0
LINE
  8
0
 62
     0
 10
69.445
 20
92.7488
 30
0.0
 11
69.445
 21
89.6482
 31
0.0
  0
LINE
  8
0
 62
     0
 10
69.445
 20
89.6482
 30
0.0
 11
70.2441
 21
89.6482
 31
0.0
  0
LINE
  8
0
 62
     0
 10
70.2441
 20
89.6482
 30
0.0
 11
70.2441
 21
83.8482
 31
0.0
  0
LINE
  8
0
 62
     0
 10
70.2441
 20
83.8482
 30
0.0
 11
69.445
 21
83.8482
 31
0.0
  0
LINE
  8
0
 62
     0
 10
69.445
 20
83.8482
 30
0.0
 11
69.445
 21
80.7491
 31
0.0
  0
LINE
  8
0
 62
     0
 10
69.445
 20
80.7491
 30
0.0
 11
70.2441
 21
80.7491
 31
0.0
  0
LINE
  8
0
 62
     0
 10
70.2441
 20
80.7491
 30
0.0
 11
70.2441
 21
79.7486
 31
0.0
  0
LINE
  8
0
 62
     0
 10
70.2441
 20
79.7486
 30
0.0
 11
84.2451
 21
79.7486
 31
0.0
  0
LINE
  8
0
 62
     0
 10
84.2451
 20
79.7486
 30
0.0
 11
84.2451
 21
80.7491
 31
0.0
  0
LINE
  8
0
 62
     0
 10
84.2451
 20
80.7491
 30
0.0
 11
85.0441
 21
80.7491
 31
0.0
  0
LINE
  8
0
 62
     0
 10
85.0441
 20
80.7491
 30
0.0
 11
85.0441
 21
83.8482
 31
0.0
  0
LINE
  8
0
 62
     0
 10
85.0441
 20
83.8482
 30
0.0
 11
84.2451
 21
83.8482
 31
0.0
  0
LINE
  8
0
 62
     0
 10
84.2451
 20
83.8482
 30
0.0
 11
84.2451
 21
89.6482
 31
0.0
  0
LINE
  8
0
 62
     0
 10
84.2451
 20
89.6482
 30
0.0
 11
85.0441
 21
89.6482
 31
0.0
  0
LINE
  8
0
 62
     0
 10
85.0441
 20
89.6482
 30
0.0
 11
85.0441
 21
92.7488
 31
0.0
  0
LINE
  8
0
 62
     0
 10
85.0441
 20
92.7488
 30
0.0
 11
84.2451
 21
92.7488
 31
0.0
  0
LINE
  8
0
 62
     0
 10
84.2451
 20
92.7488
 30
0.0
 11
84.2451
 21
93.7493
 31
0.0
  0
LINE
  8
0
 62
     0
 10
84.2451
 20
93.7493
 30
0.0
 11
70.2441
 21
93.7493
 31
0.0
  0
LINE
  8
0
 62
     0
 10
89.2941
 20
93.7493
 30
0.0
 11
89.2941
 21
92.7488
 31
0.0
  0
LINE
  8
0
 62
     0
 10
89.2941
 20
92.7488
 30
0.0
 11
88.495
 21
92.7488
 31
0.0
  0
LINE
  8
0
 62
     0
 10
88.495
 20
92.7488
 30
0.0
 11
88.495
 21
89.6482
 31
0.0
  0
LINE
  8
0
 62
     0
 10
88.495
 20
89.6482
 30
0.0
 11
89.2941
 21
89.6482
 31
0.0
  0
LINE
  8
0
 62
     0
 10
89.2941
 20
89.6482
 30
0.0
 11
89.2941
 21
83.8482
 31
0.0
  0
LINE
  8
0
 62
     0
 10
89.2941
 20
83.8482
 30
0.0
 11
88.495
 21
83.8482
 31
0.0
  0
LINE
  8
0
 62
     0
 10
88.495
 20
83.8482
 30
0.0
 11
88.495
 21
80.7491
 31
0.0
  0
LINE
  8
0
 62
     0
 10
88.495
 20
80.7491
 30
0.0
 11
89.2941
 21
80.7491
 31
0.0
  0
LINE
  8
0
 62
     0
 10
89.2941
 20
80.7491
 30
0.0
 11
89.2941
 21
79.7486
 31
0.0
  0
LINE
  8
0
 62
     0
 10
89.2941
 20
79.7486
 30
0.0
 11
103.295
 21
79.7486
 31
0.0
  0
LINE
  8
0
 62
     0
 10
103.295
 20
79.7486
 30
0.0
 11
103.295
 21
80.7491
 31
0.0
  0
LINE
  8
0
 62
     0
 10
103.295
 20
80.7491
 30
0.0
 11
104.094
 21
80.7491
 31
0.0
  0
LINE
  8
0
 62
     0
 10
104.094
 20
80.7491
 30
0.0
 11
104.094
 21
83.8482
 31
0.0
  0
LINE
  8
0
 62
     0
 10
104.094
 20
83.8482
 30
0.0
 11
103.295
 21
83.8482
 31
0.0
  0
LINE
  8
0
 62
     0
 10
103.295
 20
83.8482
 30
0.0
 11
103.295
 21
89.6482
 31
0.0
  0
LINE
  8
0
 62
     0
 10
103.295
 20
89.6482
 30
0.0
 11
104.094
 21
89.6482
 31
0.0
  0
LINE
  8
0
 62
     0
 10
104.094
 20
89.6482
 30
0.0
 11
104.094
 21
92.7488
 31
0.0
  0
LINE
  8
0
 62
     0
 10
104.094
 20
92.7488
 30
0.0
 11
103.295
 21
92.7488
 31
0.0
  0
LINE
  8
0
 62
     0
 10
103.295
 20
92.7488
 30
0.0
 11
103.295
 21
93.7493
 31
0.0
  0
LINE
  8
0
 62
     0
 10
103.295
 20
93.7493
 30
0.0
 11
89.2941
 21
93.7493
 31
0.0
  0
LINE
  8
0
 62
     0
 10
108.344
 20
93.7493
 30
0.0
 11
108.344
 21
92.7488
 31
0.0
  0
LINE
  8
0
 62
     0
 10
108.344
 20
92.7488
 30
0.0
 11
107.545
 21
92.7488
 31
0.0
  0
LINE
  8
0
 62
     0
 10
107.545
 20
92.7488
 30
0.0
 11
107.545
 21
89.6482
 31
0.0
  0
LINE
  8
0
 62
     0
 10
107.545
 20
89.6482
 30
0.0
 11
108.344
 21
89.6482
 31
0.0
  0
LINE
  8
0
 62
     0
 10
108.344
 20
89.6482
 30
0.0
 11
108.344
 21
83.8482
 31
0.0
  0
LINE
  8
0
 62
     0
 10
108.344
 20
83.8482
 30
0.0
 11
107.545
 21
83.8482
 31
0.0
  0
LINE
  8
0
 62
     0
 10
107.545
 20
83.8482
 30
0.0
 11
107.545
 21
80.7491
 31
0.0
  0
LINE
  8
0
 62
     0
 10
107.545
 20
80.7491
 30
0.0
 11
108.344
 21
80.7491
 31
0.0
  0
LINE
  8
0
 62
     0
 10
108.344
 20
80.7491
 30
0.0
 11
108.344
 21
79.7486
 31
0.0
  0
LINE
  8
0
 62
     0
 10
108.344
 20
79.7486
 30
0.0
 11
122.345
 21
79.7486
 31
0.0
  0
LINE
  8
0
 62
     0
 10
122.345
 20
79.7486
 30
0.0
 11
122.345
 21
80.7491
 31
0.0
  0
LINE
  8
0
 62
     0
 10
122.345
 20
80.7491
 30
0.0
 11
123.144
 21
80.7491
 31
0.0
  0
LINE
  8
0
 62
     0
 10
123.144
 20
80.7491
 30
0.0
 11
123.144
 21
83.8482
 31
0.0
  0
LINE
  8
0
 62
     0
 10
123.144
 20
83.8482
 30
0.0
 11
122.345
 21
83.8482
 31
0.0
  0
LINE
  8
0
 62
     0
 10
122.345
 20
83.8482
 30
0.0
 11
122.345
 21
89.6482
 31
0.0
  0
LINE
  8
0
 62
     0
 10
122.345
 20
89.6482
 30
0.0
 11
123.144
 21
89.6482
 31
0.0
  0
LINE
  8
0
 62
     0
 10
123.144
 20
89.6482
 30
0.0
 11
123.144
 21
92.7488
 31
0.0
  0
LINE
  8
0
 62
     0
 10
123.144
 20
92.7488
 30
0.0
 11
122.345
 21
92.7488
 31
0.0
  0
LINE
  8
0
 62
     0
 10
122.345
 20
92.7488
 30
0.0
 11
122.345
 21
93.7493
 31
0.0
  0
LINE
  8
0
 62
     0
 10
122.345
 20
93.7493
 30
0.0
 11
108.344
 21
93.7493
 31
0.0
  0
LINE
  8
0
 62
     0
 10
132.157
 20
93.7493
 30
0.0
 11
132.157
 21
92.7488
 31
0.0
  0
LINE
  8
0
 62
     0
 10
132.157
 20
92.7488
 30
0.0
 11
131.358
 21
92.7488
 31
0.0
  0
LINE
  8
0
 62
     0
 10
131.358
 20
92.7488
 30
0.0
 11
131.358
 21
89.6482
 31
0.0
  0
LINE
  8
0
 62
     0
 10
131.358
 20
89.6482
 30
0.0
 11
132.157
 21
89.6482
 31
0.0
  0
LINE
  8
0
 62
     0
 10
132.157
 20
89.6482
 30
0.0
 11
132.157
 21
83.8482
 31
0.0
  0
LINE
  8
0
 62
     0
 10
132.157
 20
83.8482
 30
0.0
 11
131.358
 21
83.8482
 31
0.0
  0
LINE
  8
0
 62
     0
 10
131.358
 20
83.8482
 30
0.0
 11
131.358
 21
80.7491
 31
0.0
  0
LINE
  8
0
 62
     0
 10
131.358
 20
80.7491
 30
0.0
 11
132.157
 21
80.7491
 31
0.0
  0
LINE
  8
0
 62
     0
 10
132.157
 20
80.7491
 30
0.0
 11
132.157
 21
79.7486
 31
0.0
  0
LINE
  8
0
 62
     0
 10
132.157
 20
79.7486
 30
0.0
 11
146.156
 21
79.7486
 31
0.0
  0
LINE
  8
0
 62
     0
 10
146.156
 20
79.7486
 30
0.0
 11
146.156
 21
80.7491
 31
0.0
  0
LINE
  8
0
 62
     0
 10
146.156
 20
80.7491
 30
0.0
 11
146.957
 21
80.7491
 31
0.0
  0
LINE
  8
0
 62
     0
 10
146.957
 20
80.7491
 30
0.0
 11
146.957
 21
83.8482
 31
0.0
  0
LINE
  8
0
 62
     0
 10
146.957
 20
83.8482
 30
0.0
 11
146.156
 21
83.8482
 31
0.0
  0
LINE
  8
0
 62
     0
 10
146.156
 20
83.8482
 30
0.0
 11
146.156
 21
89.6482
 31
0.0
  0
LINE
  8
0
 62
     0
 10
146.156
 20
89.6482
 30
0.0
 11
146.957
 21
89.6482
 31
0.0
  0
LINE
  8
0
 62
     0
 10
146.957
 20
89.6482
 30
0.0
 11
146.957
 21
92.7488
 31
0.0
  0
LINE
  8
0
 62
     0
 10
146.957
 20
92.7488
 30
0.0
 11
146.156
 21
92.7488
 31
0.0
  0
LINE
  8
0
 62
     0
 10
146.156
 20
92.7488
 30
0.0
 11
146.156
 21
93.7493
 31
0.0
  0
LINE
  8
0
 62
     0
 10
146.156
 20
93.7493
 30
0.0
 11
132.157
 21
93.7493
 31
0.0
  0
LINE
  8
0
 62
     0
 10
22.6191
 20
112.799
 30
0.0
 11
22.6191
 21
111.799
 31
0.0
  0
LINE
  8
0
 62
     0
 10
22.6191
 20
111.799
 30
0.0
 11
21.8185
 21
111.799
 31
0.0
  0
LINE
  8
0
 62
     0
 10
21.8185
 20
111.799
 30
0.0
 11
21.8185
 21
108.698
 31
0.0
  0
LINE
  8
0
 62
     0
 10
21.8185
 20
108.698
 30
0.0
 11
22.6191
 21
108.698
 31
0.0
  0
LINE
  8
0
 62
     0
 10
22.6191
 20
108.698
 30
0.0
 11
22.6191
 21
102.898
 31
0.0
  0
LINE
  8
0
 62
     0
 10
22.6191
 20
102.898
 30
0.0
 11
21.8185
 21
102.898
 31
0.0
  0
LINE
  8
0
 62
     0
 10
21.8185
 20
102.898
 30
0.0
 11
21.8185
 21
99.7991
 31
0.0
  0
LINE
  8
0
 62
     0
 10
21.8185
 20
99.7991
 30
0.0
 11
22.6191
 21
99.7991
 31
0.0
  0
LINE
  8
0
 62
     0
 10
22.6191
 20
99.7991
 30
0.0
 11
22.6191
 21
98.7986
 31
0.0
  0
LINE
  8
0
 62
     0
 10
22.6191
 20
98.7986
 30
0.0
 11
36.6201
 21
98.7986
 31
0.0
  0
LINE
  8
0
 62
     0
 10
36.6201
 20
98.7986
 30
0.0
 11
36.6201
 21
99.7991
 31
0.0
  0
LINE
  8
0
 62
     0
 10
36.6201
 20
99.7991
 30
0.0
 11
37.4191
 21
99.7991
 31
0.0
  0
LINE
  8
0
 62
     0
 10
37.4191
 20
99.7991
 30
0.0
 11
37.4191
 21
102.898
 31
0.0
  0
LINE
  8
0
 62
     0
 10
37.4191
 20
102.898
 30
0.0
 11
36.6201
 21
102.898
 31
0.0
  0
LINE
  8
0
 62
     0
 10
36.6201
 20
102.898
 30
0.0
 11
36.6201
 21
108.698
 31
0.0
  0
LINE
  8
0
 62
     0
 10
36.6201
 20
108.698
 30
0.0
 11
37.4191
 21
108.698
 31
0.0
  0
LINE
  8
0
 62
     0
 10
37.4191
 20
108.698
 30
0.0
 11
37.4191
 21
111.799
 31
0.0
  0
LINE
  8
0
 62
     0
 10
37.4191
 20
111.799
 30
0.0
 11
36.6201
 21
111.799
 31
0.0
  0
LINE
  8
0
 62
     0
 10
36.6201
 20
111.799
 30
0.0
 11
36.6201
 21
112.799
 31
0.0
  0
LINE
  8
0
 62
     0
 10
36.6201
 20
112.799
 30
0.0
 11
22.6191
 21
112.799
 31
0.0
  0
LINE
  8
0
 62
     0
 10
41.6691
 20
112.799
 30
0.0
 11
41.6691
 21
111.799
 31
0.0
  0
LINE
  8
0
 62
     0
 10
41.6691
 20
111.799
 30
0.0
 11
40.87
 21
111.799
 31
0.0
  0
LINE
  8
0
 62
     0
 10
40.87
 20
111.799
 30
0.0
 11
40.87
 21
108.698
 31
0.0
  0
LINE
  8
0
 62
     0
 10
40.87
 20
108.698
 30
0.0
 11
41.6691
 21
108.698
 31
0.0
  0
LINE
  8
0
 62
     0
 10
41.6691
 20
108.698
 30
0.0
 11
41.6691
 21
102.898
 31
0.0
  0
LINE
  8
0
 62
     0
 10
41.6691
 20
102.898
 30
0.0
 11
40.87
 21
102.898
 31
0.0
  0
LINE
  8
0
 62
     0
 10
40.87
 20
102.898
 30
0.0
 11
40.87
 21
99.7991
 31
0.0
  0
LINE
  8
0
 62
     0
 10
40.87
 20
99.7991
 30
0.0
 11
41.6691
 21
99.7991
 31
0.0
  0
LINE
  8
0
 62
     0
 10
41.6691
 20
99.7991
 30
0.0
 11
41.6691
 21
98.7986
 31
0.0
  0
LINE
  8
0
 62
     0
 10
41.6691
 20
98.7986
 30
0.0
 11
55.6701
 21
98.7986
 31
0.0
  0
LINE
  8
0
 62
     0
 10
55.6701
 20
98.7986
 30
0.0
 11
55.6701
 21
99.7991
 31
0.0
  0
LINE
  8
0
 62
     0
 10
55.6701
 20
99.7991
 30
0.0
 11
56.4691
 21
99.7991
 31
0.0
  0
LINE
  8
0
 62
     0
 10
56.4691
 20
99.7991
 30
0.0
 11
56.4691
 21
102.898
 31
0.0
  0
LINE
  8
0
 62
     0
 10
56.4691
 20
102.898
 30
0.0
 11
55.6701
 21
102.898
 31
0.0
  0
LINE
  8
0
 62
     0
 10
55.6701
 20
102.898
 30
0.0
 11
55.6701
 21
108.698
 31
0.0
  0
LINE
  8
0
 62
     0
 10
55.6701
 20
108.698
 30
0.0
 11
56.4691
 21
108.698
 31
0.0
  0
LINE
  8
0
 62
     0
 10
56.4691
 20
108.698
 30
0.0
 11
56.4691
 21
111.799
 31
0.0
  0
LINE
  8
0
 62
     0
 10
56.4691
 20
111.799
 30
0.0
 11
55.6701
 21
111.799
 31
0.0
  0
LINE
  8
0
 62
     0
 10
55.6701
 20
111.799
 30
0.0
 11
55.6701
 21
112.799
 31
0.0
  0
LINE
  8
0
 62
     0
 10
55.6701
 20
112.799
 30
0.0
 11
41.6691
 21
112.799
 31
0.0
  0
LINE
  8
0
 62
     0
 10
60.7191
 20
112.799
 30
0.0
 11
60.7191
 21
111.799
 31
0.0
  0
LINE
  8
0
 62
     0
 10
60.7191
 20
111.799
 30
0.0
 11
59.92
 21
111.799
 31
0.0
  0
LINE
  8
0
 62
     0
 10
59.92
 20
111.799
 30
0.0
 11
59.92
 21
108.698
 31
0.0
  0
LINE
  8
0
 62
     0
 10
59.92
 20
108.698
 30
0.0
 11
60.7191
 21
108.698
 31
0.0
  0
LINE
  8
0
 62
     0
 10
60.7191
 20
108.698
 30
0.0
 11
60.7191
 21
102.898
 31
0.0
  0
LINE
  8
0
 62
     0
 10
60.7191
 20
102.898
 30
0.0
 11
59.92
 21
102.898
 31
0.0
  0
LINE
  8
0
 62
     0
 10
59.92
 20
102.898
 30
0.0
 11
59.92
 21
99.7991
 31
0.0
  0
LINE
  8
0
 62
     0
 10
59.92
 20
99.7991
 30
0.0
 11
60.7191
 21
99.7991
 31
0.0
  0
LINE
  8
0
 62
     0
 10
60.7191
 20
99.7991
 30
0.0
 11
60.7191
 21
98.7986
 31
0.0
  0
LINE
  8
0
 62
     0
 10
60.7191
 20
98.7986
 30
0.0
 11
74.7201
 21
98.7986
 31
0.0
  0
LINE
  8
0
 62
     0
 10
74.7201
 20
98.7986
 30
0.0
 11
74.7201
 21
99.7991
 31
0.0
  0
LINE
  8
0
 62
     0
 10
74.7201
 20
99.7991
 30
0.0
 11
75.5191
 21
99.7991
 31
0.0
  0
LINE
  8
0
 62
     0
 10
75.5191
 20
99.7991
 30
0.0
 11
75.5191
 21
102.898
 31
0.0
  0
LINE
  8
0
 62
     0
 10
75.5191
 20
102.898
 30
0.0
 11
74.7201
 21
102.898
 31
0.0
  0
LINE
  8
0
 62
     0
 10
74.7201
 20
102.898
 30
0.0
 11
74.7201
 21
108.698
 31
0.0
  0
LINE
  8
0
 62
     0
 10
74.7201
 20
108.698
 30
0.0
 11
75.5191
 21
108.698
 31
0.0
  0
LINE
  8
0
 62
     0
 10
75.5191
 20
108.698
 30
0.0
 11
75.5191
 21
111.799
 31
0.0
  0
LINE
  8
0
 62
     0
 10
75.5191
 20
111.799
 30
0.0
 11
74.7201
 21
111.799
 31
0.0
  0
LINE
  8
0
 62
     0
 10
74.7201
 20
111.799
 30
0.0
 11
74.7201
 21
112.799
 31
0.0
  0
LINE
  8
0
 62
     0
 10
74.7201
 20
112.799
 30
0.0
 11
60.7191
 21
112.799
 31
0.0
  0
LINE
  8
0
 62
     0
 10
79.7691
 20
112.799
 30
0.0
 11
79.7691
 21
111.799
 31
0.0
  0
LINE
  8
0
 62
     0
 10
79.7691
 20
111.799
 30
0.0
 11
78.97
 21
111.799
 31
0.0
  0
LINE
  8
0
 62
     0
 10
78.97
 20
111.799
 30
0.0
 11
78.97
 21
108.698
 31
0.0
  0
LINE
  8
0
 62
     0
 10
78.97
 20
108.698
 30
0.0
 11
79.7691
 21
108.698
 31
0.0
  0
LINE
  8
0
 62
     0
 10
79.7691
 20
108.698
 30
0.0
 11
79.7691
 21
102.898
 31
0.0
  0
LINE
  8
0
 62
     0
 10
79.7691
 20
102.898
 30
0.0
 11
78.97
 21
102.898
 31
0.0
  0
LINE
  8
0
 62
     0
 10
78.97
 20
102.898
 30
0.0
 11
78.97
 21
99.7991
 31
0.0
  0
LINE
  8
0
 62
     0
 10
78.97
 20
99.7991
 30
0.0
 11
79.7691
 21
99.7991
 31
0.0
  0
LINE
  8
0
 62
     0
 10
79.7691
 20
99.7991
 30
0.0
 11
79.7691
 21
98.7986
 31
0.0
  0
LINE
  8
0
 62
     0
 10
79.7691
 20
98.7986
 30
0.0
 11
93.7701
 21
98.7986
 31
0.0
  0
LINE
  8
0
 62
     0
 10
93.7701
 20
98.7986
 30
0.0
 11
93.7701
 21
99.7991
 31
0.0
  0
LINE
  8
0
 62
     0
 10
93.7701
 20
99.7991
 30
0.0
 11
94.5691
 21
99.7991
 31
0.0
  0
LINE
  8
0
 62
     0
 10
94.5691
 20
99.7991
 30
0.0
 11
94.5691
 21
102.898
 31
0.0
  0
LINE
  8
0
 62
     0
 10
94.5691
 20
102.898
 30
0.0
 11
93.7701
 21
102.898
 31
0.0
  0
LINE
  8
0
 62
     0
 10
93.7701
 20
102.898
 30
0.0
 11
93.7701
 21
108.698
 31
0.0
  0
LINE
  8
0
 62
     0
 10
93.7701
 20
108.698
 30
0.0
 11
94.5691
 21
108.698
 31
0.0
  0
LINE
  8
0
 62
     0
 10
94.5691
 20
108.698
 30
0.0
 11
94.5691
 21
111.799
 31
0.0
  0
LINE
  8
0
 62
     0
 10
94.5691
 20
111.799
 30
0.0
 11
93.7701
 21
111.799
 31
0.0
  0
LINE
  8
0
 62
     0
 10
93.7701
 20
111.799
 30
0.0
 11
93.7701
 21
112.799
 31
0.0
  0
LINE
  8
0
 62
     0
 10
93.7701
 20
112.799
 30
0.0
 11
79.7691
 21
112.799
 31
0.0
  0
LINE
  8
0
 62
     0
 10
98.8191
 20
112.799
 30
0.0
 11
98.8191
 21
111.799
 31
0.0
  0
LINE
  8
0
 62
     0
 10
98.8191
 20
111.799
 30
0.0
 11
98.02
 21
111.799
 31
0.0
  0
LINE
  8
0
 62
     0
 10
98.02
 20
111.799
 30
0.0
 11
98.02
 21
108.698
 31
0.0
  0
LINE
  8
0
 62
     0
 10
98.02
 20
108.698
 30
0.0
 11
98.8191
 21
108.698
 31
0.0
  0
LINE
  8
0
 62
     0
 10
98.8191
 20
108.698
 30
0.0
 11
98.8191
 21
102.898
 31
0.0
  0
LINE
  8
0
 62
     0
 10
98.8191
 20
102.898
 30
0.0
 11
98.02
 21
102.898
 31
0.0
  0
LINE
  8
0
 62
     0
 10
98.02
 20
102.898
 30
0.0
 11
98.02
 21
99.7991
 31
0.0
  0
LINE
  8
0
 62
     0
 10
98.02
 20
99.7991
 30
0.0
 11
98.8191
 21
99.7991
 31
0.0
  0
LINE
  8
0
 62
     0
 10
98.8191
 20
99.7991
 30
0.0
 11
98.8191
 21
98.7986
 31
0.0
  0
LINE
  8
0
 62
     0
 10
98.8191
 20
98.7986
 30
0.0
 11
112.82
 21
98.7986
 31
0.0
  0
LINE
  8
0
 62
     0
 10
112.82
 20
98.7986
 30
0.0
 11
112.82
 21
99.7991
 31
0.0
  0
LINE
  8
0
 62
     0
 10
112.82
 20
99.7991
 30
0.0
 11
113.619
 21
99.7991
 31
0.0
  0
LINE
  8
0
 62
     0
 10
113.619
 20
99.7991
 30
0.0
 11
113.619
 21
102.898
 31
0.0
  0
LINE
  8
0
 62
     0
 10
113.619
 20
102.898
 30
0.0
 11
112.82
 21
102.898
 31
0.0
  0
LINE
  8
0
 62
     0
 10
112.82
 20
102.898
 30
0.0
 11
112.82
 21
108.698
 31
0.0
  0
LINE
  8
0
 62
     0
 10
112.82
 20
108.698
 30
0.0
 11
113.619
 21
108.698
 31
0.0
  0
LINE
  8
0
 62
     0
 10
113.619
 20
108.698
 30
0.0
 11
113.619
 21
111.799
 31
0.0
  0
LINE
  8
0
 62
     0
 10
113.619
 20
111.799
 30
0.0
 11
112.82
 21
111.799
 31
0.0
  0
LINE
  8
0
 62
     0
 10
112.82
 20
111.799
 30
0.0
 11
112.82
 21
112.799
 31
0.0
  0
LINE
  8
0
 62
     0
 10
112.82
 20
112.799
 30
0.0
 11
98.8191
 21
112.799
 31
0.0
  0
LINE
  8
0
 62
     0
 10
117.869
 20
112.799
 30
0.0
 11
117.869
 21
111.799
 31
0.0
  0
LINE
  8
0
 62
     0
 10
117.869
 20
111.799
 30
0.0
 11
117.07
 21
111.799
 31
0.0
  0
LINE
  8
0
 62
     0
 10
117.07
 20
111.799
 30
0.0
 11
117.07
 21
108.698
 31
0.0
  0
LINE
  8
0
 62
     0
 10
117.07
 20
108.698
 30
0.0
 11
117.869
 21
108.698
 31
0.0
  0
LINE
  8
0
 62
     0
 10
117.869
 20
108.698
 30
0.0
 11
117.869
 21
102.898
 31
0.0
  0
LINE
  8
0
 62
     0
 10
117.869
 20
102.898
 30
0.0
 11
117.07
 21
102.898
 31
0.0
  0
LINE
  8
0
 62
     0
 10
117.07
 20
102.898
 30
0.0
 11
117.07
 21
99.7991
 31
0.0
  0
LINE
  8
0
 62
     0
 10
117.07
 20
99.7991
 30
0.0
 11
117.869
 21
99.7991
 31
0.0
  0
LINE
  8
0
 62
     0
 10
117.869
 20
99.7991
 30
0.0
 11
117.869
 21
98.7986
 31
0.0
  0
LINE
  8
0
 62
     0
 10
117.869
 20
98.7986
 30
0.0
 11
131.87
 21
98.7986
 31
0.0
  0
LINE
  8
0
 62
     0
 10
131.87
 20
98.7986
 30
0.0
 11
131.87
 21
99.7991
 31
0.0
  0
LINE
  8
0
 62
     0
 10
131.87
 20
99.7991
 30
0.0
 11
132.669
 21
99.7991
 31
0.0
  0
LINE
  8
0
 62
     0
 10
132.669
 20
99.7991
 30
0.0
 11
132.669
 21
102.898
 31
0.0
  0
LINE
  8
0
 62
     0
 10
132.669
 20
102.898
 30
0.0
 11
131.87
 21
102.898
 31
0.0
  0
LINE
  8
0
 62
     0
 10
131.87
 20
102.898
 30
0.0
 11
131.87
 21
108.698
 31
0.0
  0
LINE
  8
0
 62
     0
 10
131.87
 20
108.698
 30
0.0
 11
132.669
 21
108.698
 31
0.0
  0
LINE
  8
0
 62
     0
 10
132.669
 20
108.698
 30
0.0
 11
132.669
 21
111.799
 31
0.0
  0
LINE
  8
0
 62
     0
 10
132.669
 20
111.799
 30
0.0
 11
131.87
 21
111.799
 31
0.0
  0
LINE
  8
0
 62
     0
 10
131.87
 20
111.799
 30
0.0
 11
131.87
 21
112.799
 31
0.0
  0
LINE
  8
0
 62
     0
 10
131.87
 20
112.799
 30
0.0
 11
117.869
 21
112.799
 31
0.0
  0
LINE
  8
0
 62
     0
 10
136.919
 20
112.799
 30
0.0
 11
136.919
 21
111.799
 31
0.0
  0
LINE
  8
0
 62
     0
 10
136.919
 20
111.799
 30
0.0
 11
136.12
 21
111.799
 31
0.0
  0
LINE
  8
0
 62
     0
 10
136.12
 20
111.799
 30
0.0
 11
136.12
 21
108.698
 31
0.0
  0
LINE
  8
0
 62
     0
 10
136.12
 20
108.698
 30
0.0
 11
136.919
 21
108.698
 31
0.0
  0
LINE
  8
0
 62
     0
 10
136.919
 20
108.698
 30
0.0
 11
136.919
 21
102.898
 31
0.0
  0
LINE
  8
0
 62
     0
 10
136.919
 20
102.898
 30
0.0
 11
136.12
 21
102.898
 31
0.0
  0
LINE
  8
0
 62
     0
 10
136.12
 20
102.898
 30
0.0
 11
136.12
 21
99.7991
 31
0.0
  0
LINE
  8
0
 62
     0
 10
136.12
 20
99.7991
 30
0.0
 11
136.919
 21
99.7991
 31
0.0
  0
LINE
  8
0
 62
     0
 10
136.919
 20
99.7991
 30
0.0
 11
136.919
 21
98.7986
 31
0.0
  0
LINE
  8
0
 62
     0
 10
136.919
 20
98.7986
 30
0.0
 11
150.92
 21
98.7986
 31
0.0
  0
LINE
  8
0
 62
     0
 10
150.92
 20
98.7986
 30
0.0
 11
150.92
 21
99.7991
 31
0.0
  0
LINE
  8
0
 62
     0
 10
150.92
 20
99.7991
 30
0.0
 11
151.719
 21
99.7991
 31
0.0
  0
LINE
  8
0
 62
     0
 10
151.719
 20
99.7991
 30
0.0
 11
151.719
 21
102.898
 31
0.0
  0
LINE
  8
0
 62
     0
 10
151.719
 20
102.898
 30
0.0
 11
150.92
 21
102.898
 31
0.0
  0
LINE
  8
0
 62
     0
 10
150.92
 20
102.898
 30
0.0
 11
150.92
 21
108.698
 31
0.0
  0
LINE
  8
0
 62
     0
 10
150.92
 20
108.698
 30
0.0
 11
151.719
 21
108.698
 31
0.0
  0
LINE
  8
0
 62
     0
 10
151.719
 20
108.698
 30
0.0
 11
151.719
 21
111.799
 31
0.0
  0
LINE
  8
0
 62
     0
 10
151.719
 20
111.799
 30
0.0
 11
150.92
 21
111.799
 31
0.0
  0
LINE
  8
0
 62
     0
 10
150.92
 20
111.799
 30
0.0
 11
150.92
 21
112.799
 31
0.0
  0
LINE
  8
0
 62
     0
 10
150.92
 20
112.799
 30
0.0
 11
136.919
 21
112.799
 31
0.0
  0
LINE
  8
0
 62
     0
 10
22.6191
 20
131.849
 30
0.0
 11
22.6191
 21
130.849
 31
0.0
  0
LINE
  8
0
 62
     0
 10
22.6191
 20
130.849
 30
0.0
 11
21.8185
 21
130.849
 31
0.0
  0
LINE
  8
0
 62
     0
 10
21.8185
 20
130.849
 30
0.0
 11
21.8185
 21
127.748
 31
0.0
  0
LINE
  8
0
 62
     0
 10
21.8185
 20
127.748
 30
0.0
 11
22.6191
 21
127.748
 31
0.0
  0
LINE
  8
0
 62
     0
 10
22.6191
 20
127.748
 30
0.0
 11
22.6191
 21
121.948
 31
0.0
  0
LINE
  8
0
 62
     0
 10
22.6191
 20
121.948
 30
0.0
 11
21.8185
 21
121.948
 31
0.0
  0
LINE
  8
0
 62
     0
 10
21.8185
 20
121.948
 30
0.0
 11
21.8185
 21
118.849
 31
0.0
  0
LINE
  8
0
 62
     0
 10
21.8185
 20
118.849
 30
0.0
 11
22.6191
 21
118.849
 31
0.0
  0
LINE
  8
0
 62
     0
 10
22.6191
 20
118.849
 30
0.0
 11
22.6191
 21
117.849
 31
0.0
  0
LINE
  8
0
 62
     0
 10
22.6191
 20
117.849
 30
0.0
 11
36.6201
 21
117.849
 31
0.0
  0
LINE
  8
0
 62
     0
 10
36.6201
 20
117.849
 30
0.0
 11
36.6201
 21
118.849
 31
0.0
  0
LINE
  8
0
 62
     0
 10
36.6201
 20
118.849
 30
0.0
 11
37.4191
 21
118.849
 31
0.0
  0
LINE
  8
0
 62
     0
 10
37.4191
 20
118.849
 30
0.0
 11
37.4191
 21
121.948
 31
0.0
  0
LINE
  8
0
 62
     0
 10
37.4191
 20
121.948
 30
0.0
 11
36.6201
 21
121.948
 31
0.0
  0
LINE
  8
0
 62
     0
 10
36.6201
 20
121.948
 30
0.0
 11
36.6201
 21
127.748
 31
0.0
  0
LINE
  8
0
 62
     0
 10
36.6201
 20
127.748
 30
0.0
 11
37.4191
 21
127.748
 31
0.0
  0
LINE
  8
0
 62
     0
 10
37.4191
 20
127.748
 30
0.0
 11
37.4191
 21
130.849
 31
0.0
  0
LINE
  8
0
 62
     0
 10
37.4191
 20
130.849
 30
0.0
 11
36.6201
 21
130.849
 31
0.0
  0
LINE
  8
0
 62
     0
 10
36.6201
 20
130.849
 30
0.0
 11
36.6201
 21
131.849
 31
0.0
  0
LINE
  8
0
 62
     0
 10
36.6201
 20
131.849
 30
0.0
 11
22.6191
 21
131.849
 31
0.0
  0
LINE
  8
0
 62
     0
 10
41.6691
 20
131.849
 30
0.0
 11
41.6691
 21
130.849
 31
0.0
  0
LINE
  8
0
 62
     0
 10
41.6691
 20
130.849
 30
0.0
 11
40.87
 21
130.849
 31
0.0
  0
LINE
  8
0
 62
     0
 10
40.87
 20
130.849
 30
0.0
 11
40.87
 21
127.748
 31
0.0
  0
LINE
  8
0
 62
     0
 10
40.87
 20
127.748
 30
0.0
 11
41.6691
 21
127.748
 31
0.0
  0
LINE
  8
0
 62
     0
 10
41.6691
 20
127.748
 30
0.0
 11
41.6691
 21
121.948
 31
0.0
  0
LINE
  8
0
 62
     0
 10
41.6691
 20
121.948
 30
0.0
 11
40.87
 21
121.948
 31
0.0
  0
LINE
  8
0
 62
     0
 10
40.87
 20
121.948
 30
0.0
 11
40.87
 21
118.849
 31
0.0
  0
LINE
  8
0
 62
     0
 10
40.87
 20
118.849
 30
0.0
 11
41.6691
 21
118.849
 31
0.0
  0
LINE
  8
0
 62
     0
 10
41.6691
 20
118.849
 30
0.0
 11
41.6691
 21
117.849
 31
0.0
  0
LINE
  8
0
 62
     0
 10
41.6691
 20
117.849
 30
0.0
 11
55.6701
 21
117.849
 31
0.0
  0
LINE
  8
0
 62
     0
 10
55.6701
 20
117.849
 30
0.0
 11
55.6701
 21
118.849
 31
0.0
  0
LINE
  8
0
 62
     0
 10
55.6701
 20
118.849
 30
0.0
 11
56.4691
 21
118.849
 31
0.0
  0
LINE
  8
0
 62
     0
 10
56.4691
 20
118.849
 30
0.0
 11
56.4691
 21
121.948
 31
0.0
  0
LINE
  8
0
 62
     0
 10
56.4691
 20
121.948
 30
0.0
 11
55.6701
 21
121.948
 31
0.0
  0
LINE
  8
0
 62
     0
 10
55.6701
 20
121.948
 30
0.0
 11
55.6701
 21
127.748
 31
0.0
  0
LINE
  8
0
 62
     0
 10
55.6701
 20
127.748
 30
0.0
 11
56.4691
 21
127.748
 31
0.0
  0
LINE
  8
0
 62
     0
 10
56.4691
 20
127.748
 30
0.0
 11
56.4691
 21
130.849
 31
0.0
  0
LINE
  8
0
 62
     0
 10
56.4691
 20
130.849
 30
0.0
 11
55.6701
 21
130.849
 31
0.0
  0
LINE
  8
0
 62
     0
 10
55.6701
 20
130.849
 30
0.0
 11
55.6701
 21
131.849
 31
0.0
  0
LINE
  8
0
 62
     0
 10
55.6701
 20
131.849
 30
0.0
 11
41.6691
 21
131.849
 31
0.0
  0
LINE
  8
0
 62
     0
 10
60.7191
 20
131.849
 30
0.0
 11
60.7191
 21
130.849
 31
0.0
  0
LINE
  8
0
 62
     0
 10
60.7191
 20
130.849
 30
0.0
 11
59.92
 21
130.849
 31
0.0
  0
LINE
  8
0
 62
     0
 10
59.92
 20
130.849
 30
0.0
 11
59.92
 21
127.748
 31
0.0
  0
LINE
  8
0
 62
     0
 10
59.92
 20
127.748
 30
0.0
 11
60.7191
 21
127.748
 31
0.0
  0
LINE
  8
0
 62
     0
 10
60.7191
 20
127.748
 30
0.0
 11
60.7191
 21
121.948
 31
0.0
  0
LINE
  8
0
 62
     0
 10
60.7191
 20
121.948
 30
0.0
 11
59.92
 21
121.948
 31
0.0
  0
LINE
  8
0
 62
     0
 10
59.92
 20
121.948
 30
0.0
 11
59.92
 21
118.849
 31
0.0
  0
LINE
  8
0
 62
     0
 10
59.92
 20
118.849
 30
0.0
 11
60.7191
 21
118.849
 31
0.0
  0
LINE
  8
0
 62
     0
 10
60.7191
 20
118.849
 30
0.0
 11
60.7191
 21
117.849
 31
0.0
  0
LINE
  8
0
 62
     0
 10
60.7191
 20
117.849
 30
0.0
 11
74.7201
 21
117.849
 31
0.0
  0
LINE
  8
0
 62
     0
 10
74.7201
 20
117.849
 30
0.0
 11
74.7201
 21
118.849
 31
0.0
  0
LINE
  8
0
 62
     0
 10
74.7201
 20
118.849
 30
0.0
 11
75.5191
 21
118.849
 31
0.0
  0
LINE
  8
0
 62
     0
 10
75.5191
 20
118.849
 30
0.0
 11
75.5191
 21
121.948
 31
0.0
  0
LINE
  8
0
 62
     0
 10
75.5191
 20
121.948
 30
0.0
 11
74.7201
 21
121.948
 31
0.0
  0
LINE
  8
0
 62
     0
 10
74.7201
 20
121.948
 30
0.0
 11
74.7201
 21
127.748
 31
0.0
  0
LINE
  8
0
 62
     0
 10
74.7201
 20
127.748
 30
0.0
 11
75.5191
 21
127.748
 31
0.0
  0
LINE
  8
0
 62
     0
 10
75.5191
 20
127.748
 30
0.0
 11
75.5191
 21
130.849
 31
0.0
  0
LINE
  8
0
 62
     0
 10
75.5191
 20
130.849
 30
0.0
 11
74.7201
 21
130.849
 31
0.0
  0
LINE
  8
0
 62
     0
 10
74.7201
 20
130.849
 30
0.0
 11
74.7201
 21
131.849
 31
0.0
  0
LINE
  8
0
 62
     0
 10
74.7201
 20
131.849
 30
0.0
 11
60.7191
 21
131.849
 31
0.0
  0
LINE
  8
0
 62
     0
 10
79.7691
 20
131.849
 30
0.0
 11
79.7691
 21
130.849
 31
0.0
  0
LINE
  8
0
 62
     0
 10
79.7691
 20
130.849
 30
0.0
 11
78.97
 21
130.849
 31
0.0
  0
LINE
  8
0
 62
     0
 10
78.97
 20
130.849
 30
0.0
 11
78.97
 21
127.748
 31
0.0
  0
LINE
  8
0
 62
     0
 10
78.97
 20
127.748
 30
0.0
 11
79.7691
 21
127.748
 31
0.0
  0
LINE
  8
0
 62
     0
 10
79.7691
 20
127.748
 30
0.0
 11
79.7691
 21
121.948
 31
0.0
  0
LINE
  8
0
 62
     0
 10
79.7691
 20
121.948
 30
0.0
 11
78.97
 21
121.948
 31
0.0
  0
LINE
  8
0
 62
     0
 10
78.97
 20
121.948
 30
0.0
 11
78.97
 21
118.849
 31
0.0
  0
LINE
  8
0
 62
     0
 10
78.97
 20
118.849
 30
0.0
 11
79.7691
 21
118.849
 31
0.0
  0
LINE
  8
0
 62
     0
 10
79.7691
 20
118.849
 30
0.0
 11
79.7691
 21
117.849
 31
0.0
  0
LINE
  8
0
 62
     0
 10
79.7691
 20
117.849
 30
0.0
 11
93.7701
 21
117.849
 31
0.0
  0
LINE
  8
0
 62
     0
 10
93.7701
 20
117.849
 30
0.0
 11
93.7701
 21
118.849
 31
0.0
  0
LINE
  8
0
 62
     0
 10
93.7701
 20
118.849
 30
0.0
 11
94.5691
 21
118.849
 31
0.0
  0
LINE
  8
0
 62
     0
 10
94.5691
 20
118.849
 30
0.0
 11
94.5691
 21
121.948
 31
0.0
  0
LINE
  8
0
 62
     0
 10
94.5691
 20
121.948
 30
0.0
 11
93.7701
 21
121.948
 31
0.0
  0
LINE
  8
0
 62
     0
 10
93.7701
 20
121.948
 30
0.0
 11
93.7701
 21
127.748
 31
0.0
  0
LINE
  8
0
 62
     0
 10
93.7701
 20
127.748
 30
0.0
 11
94.5691
 21
127.748
 31
0.0
  0
LINE
  8
0
 62
     0
 10
94.5691
 20
127.748
 30
0.0
 11
94.5691
 21
130.849
 31
0.0
  0
LINE
  8
0
 62
     0
 10
94.5691
 20
130.849
 30
0.0
 11
93.7701
 21
130.849
 31
0.0
  0
LINE
  8
0
 62
     0
 10
93.7701
 20
130.849
 30
0.0
 11
93.7701
 21
131.849
 31
0.0
  0
LINE
  8
0
 62
     0
 10
93.7701
 20
131.849
 30
0.0
 11
79.7691
 21
131.849
 31
0.0
  0
LINE
  8
0
 62
     0
 10
98.8191
 20
131.849
 30
0.0
 11
98.8191
 21
130.849
 31
0.0
  0
LINE
  8
0
 62
     0
 10
98.8191
 20
130.849
 30
0.0
 11
98.02
 21
130.849
 31
0.0
  0
LINE
  8
0
 62
     0
 10
98.02
 20
130.849
 30
0.0
 11
98.02
 21
127.748
 31
0.0
  0
LINE
  8
0
 62
     0
 10
98.02
 20
127.748
 30
0.0
 11
98.8191
 21
127.748
 31
0.0
  0
LINE
  8
0
 62
     0
 10
98.8191
 20
127.748
 30
0.0
 11
98.8191
 21
121.948
 31
0.0
  0
LINE
  8
0
 62
     0
 10
98.8191
 20
121.948
 30
0.0
 11
98.02
 21
121.948
 31
0.0
  0
LINE
  8
0
 62
     0
 10
98.02
 20
121.948
 30
0.0
 11
98.02
 21
118.849
 31
0.0
  0
LINE
  8
0
 62
     0
 10
98.02
 20
118.849
 30
0.0
 11
98.8191
 21
118.849
 31
0.0
  0
LINE
  8
0
 62
     0
 10
98.8191
 20
118.849
 30
0.0
 11
98.8191
 21
117.849
 31
0.0
  0
LINE
  8
0
 62
     0
 10
98.8191
 20
117.849
 30
0.0
 11
112.82
 21
117.849
 31
0.0
  0
LINE
  8
0
 62
     0
 10
112.82
 20
117.849
 30
0.0
 11
112.82
 21
118.849
 31
0.0
  0
LINE
  8
0
 62
     0
 10
112.82
 20
118.849
 30
0.0
 11
113.619
 21
118.849
 31
0.0
  0
LINE
  8
0
 62
     0
 10
113.619
 20
118.849
 30
0.0
 11
113.619
 21
121.948
 31
0.0
  0
LINE
  8
0
 62
     0
 10
113.619
 20
121.948
 30
0.0
 11
112.82
 21
121.948
 31
0.0
  0
LINE
  8
0
 62
     0
 10
112.82
 20
121.948
 30
0.0
 11
112.82
 21
127.748
 31
0.0
  0
LINE
  8
0
 62
     0
 10
112.82
 20
127.748
 30
0.0
 11
113.619
 21
127.748
 31
0.0
  0
LINE
  8
0
 62
     0
 10
113.619
 20
127.748
 30
0.0
 11
113.619
 21
130.849
 31
0.0
  0
LINE
  8
0
 62
     0
 10
113.619
 20
130.849
 30
0.0
 11
112.82
 21
130.849
 31
0.0
  0
LINE
  8
0
 62
     0
 10
112.82
 20
130.849
 30
0.0
 11
112.82
 21
131.849
 31
0.0
  0
LINE
  8
0
 62
     0
 10
112.82
 20
131.849
 30
0.0
 11
98.8191
 21
131.849
 31
0.0
  0
LINE
  8
0
 62
     0
 10
117.869
 20
131.849
 30
0.0
 11
117.869
 21
130.849
 31
0.0
  0
LINE
  8
0
 62
     0
 10
117.869
 20
130.849
 30
0.0
 11
117.07
 21
130.849
 31
0.0
  0
LINE
  8
0
 62
     0
 10
117.07
 20
130.849
 30
0.0
 11
117.07
 21
127.748
 31
0.0
  0
LINE
  8
0
 62
     0
 10
117.07
 20
127.748
 30
0.0
 11
117.869
 21
127.748
 31
0.0
  0
LINE
  8
0
 62
     0
 10
117.869
 20
127.748
 30
0.0
 11
117.869
 21
121.948
 31
0.0
  0
LINE
  8
0
 62
     0
 10
117.869
 20
121.948
 30
0.0
 11
117.07
 21
121.948
 31
0.0
  0
LINE
  8
0
 62
     0
 10
117.07
 20
121.948
 30
0.0
 11
117.07
 21
118.849
 31
0.0
  0
LINE
  8
0
 62
     0
 10
117.07
 20
118.849
 30
0.0
 11
117.869
 21
118.849
 31
0.0
  0
LINE
  8
0
 62
     0
 10
117.869
 20
118.849
 30
0.0
 11
117.869
 21
117.849
 31
0.0
  0
LINE
  8
0
 62
     0
 10
117.869
 20
117.849
 30
0.0
 11
131.87
 21
117.849
 31
0.0
  0
LINE
  8
0
 62
     0
 10
131.87
 20
117.849
 30
0.0
 11
131.87
 21
118.849
 31
0.0
  0
LINE
  8
0
 62
     0
 10
131.87
 20
118.849
 30
0.0
 11
132.669
 21
118.849
 31
0.0
  0
LINE
  8
0
 62
     0
 10
132.669
 20
118.849
 30
0.0
 11
132.669
 21
121.948
 31
0.0
  0
LINE
  8
0
 62
     0
 10
132.669
 20
121.948
 30
0.0
 11
131.87
 21
121.948
 31
0.0
  0
LINE
  8
0
 62
     0
 10
131.87
 20
121.948
 30
0.0
 11
131.87
 21
127.748
 31
0.0
  0
LINE
  8
0
 62
     0
 10
131.87
 20
127.748
 30
0.0
 11
132.669
 21
127.748
 31
0.0
  0
LINE
  8
0
 62
     0
 10
132.669
 20
127.748
 30
0.0
 11
132.669
 21
130.849
 31
0.0
  0
LINE
  8
0
 62
     0
 10
132.669
 20
130.849
 30
0.0
 11
131.87
 21
130.849
 31
0.0
  0
LINE
  8
0
 62
     0
 10
131.87
 20
130.849
 30
0.0
 11
131.87
 21
131.849
 31
0.0
  0
LINE
  8
0
 62
     0
 10
131.87
 20
131.849
 30
0.0
 11
117.869
 21
131.849
 31
0.0
  0
LINE
  8
0
 62
     0
 10
136.919
 20
131.849
 30
0.0
 11
136.919
 21
130.849
 31
0.0
  0
LINE
  8
0
 62
     0
 10
136.919
 20
130.849
 30
0.0
 11
136.12
 21
130.849
 31
0.0
  0
LINE
  8
0
 62
     0
 10
136.12
 20
130.849
 30
0.0
 11
136.12
 21
127.748
 31
0.0
  0
LINE
  8
0
 62
     0
 10
136.12
 20
127.748
 30
0.0
 11
136.919
 21
127.748
 31
0.0
  0
LINE
  8
0
 62
     0
 10
136.919
 20
127.748
 30
0.0
 11
136.919
 21
121.948
 31
0.0
  0
LINE
  8
0
 62
     0
 10
136.919
 20
121.948
 30
0.0
 11
136.12
 21
121.948
 31
0.0
  0
LINE
  8
0
 62
     0
 10
136.12
 20
121.948
 30
0.0
 11
136.12
 21
118.849
 31
0.0
  0
LINE
  8
0
 62
     0
 10
136.12
 20
118.849
 30
0.0
 11
136.919
 21
118.849
 31
0.0
  0
LINE
  8
0
 62
     0
 10
136.919
 20
118.849
 30
0.0
 11
136.919
 21
117.849
 31
0.0
  0
LINE
  8
0
 62
     0
 10
136.919
 20
117.849
 30
0.0
 11
150.92
 21
117.849
 31
0.0
  0
LINE
  8
0
 62
     0
 10
150.92
 20
117.849
 30
0.0
 11
150.92
 21
118.849
 31
0.0
  0
LINE
  8
0
 62
     0
 10
150.92
 20
118.849
 30
0.0
 11
151.719
 21
118.849
 31
0.0
  0
LINE
  8
0
 62
     0
 10
151.719
 20
118.849
 30
0.0
 11
151.719
 21
121.948
 31
0.0
  0
LINE
  8
0
 62
     0
 10
151.719
 20
121.948
 30
0.0
 11
150.92
 21
121.948
 31
0.0
  0
LINE
  8
0
 62
     0
 10
150.92
 20
121.948
 30
0.0
 11
150.92
 21
127.748
 31
0.0
  0
LINE
  8
0
 62
     0
 10
150.92
 20
127.748
 30
0.0
 11
151.719
 21
127.748
 31
0.0
  0
LINE
  8
0
 62
     0
 10
151.719
 20
127.748
 30
0.0
 11
151.719
 21
130.849
 31
0.0
  0
LINE
  8
0
 62
     0
 10
151.719
 20
130.849
 30
0.0
 11
150.92
 21
130.849
 31
0.0
  0
LINE
  8
0
 62
     0
 10
150.92
 20
130.849
 30
0.0
 11
150.92
 21
131.849
 31
0.0
  0
LINE
  8
0
 62
     0
 10
150.92
 20
131.849
 30
0.0
 11
136.919
 21
131.849
 31
0.0
  0
ENDSEC
  0
EOF
