  0
SECTION
  2
HEADER
  9
$ACADVER
  1
AC1009
  9
$EXTMIN
 10
0.0
 20
0.0
 30
0.0
  9
$EXTMAX
 10
1000.0
 20
1000.0
 30
0.0
  9
$FILLMODE
 70
 0
  9
$SPLFRAME
 70
 1
  0
ENDSEC
  0
SECTION
  2
TABLES
  0
TABLE
  2
LAYER
 70
1
  0
LAYER
  2
0
 70
     0
 62
     7
  6
CONTINUOUS
  0
ENDTAB
  0
ENDSEC
  0
SECTION
  2
ENTITIES
  0
LINE
  8
0
 62
     0
 10
165.946
 20
159.155
 30
0.0
 11
166.533
 21
159.133
 31
0.0
  0
LINE
  8
0
 62
     0
 10
166.533
 20
159.133
 30
0.0
 11
167.119
 21
159.063
 31
0.0
  0
LINE
  8
0
 62
     0
 10
167.119
 20
159.063
 30
0.0
 11
167.696
 21
158.949
 31
0.0
  0
LINE
  8
0
 62
     0
 10
167.696
 20
158.949
 30
0.0
 11
168.263
 21
158.788
 31
0.0
  0
LINE
  8
0
 62
     0
 10
168.263
 20
158.788
 30
0.0
 11
168.815
 21
158.586
 31
0.0
  0
LINE
  8
0
 62
     0
 10
168.815
 20
158.586
 30
0.0
 11
169.35
 21
158.338
 31
0.0
  0
LINE
  8
0
 62
     0
 10
169.35
 20
158.338
 30
0.0
 11
169.864
 21
158.05
 31
0.0
  0
LINE
  8
0
 62
     0
 10
169.864
 20
158.05
 30
0.0
 11
170.353
 21
157.723
 31
0.0
  0
LINE
  8
0
 62
     0
 10
170.353
 20
157.723
 30
0.0
 11
170.816
 21
157.36
 31
0.0
  0
LINE
  8
0
 62
     0
 10
170.816
 20
157.36
 30
0.0
 11
171.249
 21
156.96
 31
0.0
  0
LINE
  8
0
 62
     0
 10
171.249
 20
156.96
 30
0.0
 11
171.649
 21
156.526
 31
0.0
  0
LINE
  8
0
 62
     0
 10
171.649
 20
156.526
 30
0.0
 11
172.012
 21
156.066
 31
0.0
  0
LINE
  8
0
 62
     0
 10
172.012
 20
156.066
 30
0.0
 11
172.34
 21
155.575
 31
0.0
  0
LINE
  8
0
 62
     0
 10
172.34
 20
155.575
 30
0.0
 11
172.628
 21
155.061
 31
0.0
  0
LINE
  8
0
 62
     0
 10
172.628
 20
155.061
 30
0.0
 11
172.875
 21
154.526
 31
0.0
  0
LINE
  8
0
 62
     0
 10
172.875
 20
154.526
 30
0.0
 11
173.077
 21
153.974
 31
0.0
  0
LINE
  8
0
 62
     0
 10
173.077
 20
153.974
 30
0.0
 11
173.237
 21
153.406
 31
0.0
  0
LINE
  8
0
 62
     0
 10
173.237
 20
153.406
 30
0.0
 11
173.353
 21
152.83
 31
0.0
  0
LINE
  8
0
 62
     0
 10
173.353
 20
152.83
 30
0.0
 11
173.422
 21
152.244
 31
0.0
  0
LINE
  8
0
 62
     0
 10
173.422
 20
152.244
 30
0.0
 11
173.445
 21
151.656
 31
0.0
  0
LINE
  8
0
 62
     0
 10
173.445
 20
151.656
 30
0.0
 11
173.445
 21
7.59298
 31
0.0
  0
LINE
  8
0
 62
     0
 10
173.445
 20
7.59298
 30
0.0
 11
173.422
 21
7.00458
 31
0.0
  0
LINE
  8
0
 62
     0
 10
173.422
 20
7.00458
 30
0.0
 11
173.353
 21
6.4189
 31
0.0
  0
LINE
  8
0
 62
     0
 10
173.353
 20
6.4189
 30
0.0
 11
173.237
 21
5.84151
 31
0.0
  0
LINE
  8
0
 62
     0
 10
173.237
 20
5.84151
 30
0.0
 11
173.077
 21
5.27512
 31
0.0
  0
LINE
  8
0
 62
     0
 10
173.077
 20
5.27512
 30
0.0
 11
172.875
 21
4.72253
 31
0.0
  0
LINE
  8
0
 62
     0
 10
172.875
 20
4.72253
 30
0.0
 11
172.628
 21
4.18786
 31
0.0
  0
LINE
  8
0
 62
     0
 10
172.628
 20
4.18786
 30
0.0
 11
172.34
 21
3.67386
 31
0.0
  0
LINE
  8
0
 62
     0
 10
172.34
 20
3.67386
 30
0.0
 11
172.012
 21
3.18464
 31
0.0
  0
LINE
  8
0
 62
     0
 10
172.012
 20
3.18464
 30
0.0
 11
171.649
 21
2.72162
 31
0.0
  0
LINE
  8
0
 62
     0
 10
171.649
 20
2.72162
 30
0.0
 11
171.249
 21
2.28892
 31
0.0
  0
LINE
  8
0
 62
     0
 10
171.249
 20
2.28892
 30
0.0
 11
170.816
 21
1.88929
 31
0.0
  0
LINE
  8
0
 62
     0
 10
170.816
 20
1.88929
 30
0.0
 11
170.353
 21
1.52411
 31
0.0
  0
LINE
  8
0
 62
     0
 10
170.353
 20
1.52411
 30
0.0
 11
169.864
 21
1.19751
 31
0.0
  0
LINE
  8
0
 62
     0
 10
169.864
 20
1.19751
 30
0.0
 11
169.35
 21
0.909507
 31
0.0
  0
LINE
  8
0
 62
     0
 10
169.35
 20
0.909507
 30
0.0
 11
168.815
 21
0.662838
 31
0.0
  0
LINE
  8
0
 62
     0
 10
168.815
 20
0.662838
 30
0.0
 11
168.263
 21
0.458886
 31
0.0
  0
LINE
  8
0
 62
     0
 10
168.263
 20
0.458886
 30
0.0
 11
167.696
 21
0.299034
 31
0.0
  0
LINE
  8
0
 62
     0
 10
167.696
 20
0.299034
 30
0.0
 11
167.119
 21
0.184657
 31
0.0
  0
LINE
  8
0
 62
     0
 10
167.119
 20
0.184657
 30
0.0
 11
166.533
 21
0.115755
 31
0.0
  0
LINE
  8
0
 62
     0
 10
166.533
 20
0.115755
 30
0.0
 11
165.946
 21
0.0923286
 31
0.0
  0
LINE
  8
0
 62
     0
 10
165.946
 20
0.0923286
 30
0.0
 11
7.59435
 21
0.0923286
 31
0.0
  0
LINE
  8
0
 62
     0
 10
7.59435
 20
0.0923286
 30
0.0
 11
7.00595
 21
0.115755
 31
0.0
  0
LINE
  8
0
 62
     0
 10
7.00595
 20
0.115755
 30
0.0
 11
6.42027
 21
0.184657
 31
0.0
  0
LINE
  8
0
 62
     0
 10
6.42027
 20
0.184657
 30
0.0
 11
5.84426
 21
0.299034
 31
0.0
  0
LINE
  8
0
 62
     0
 10
5.84426
 20
0.299034
 30
0.0
 11
5.2765
 21
0.458886
 31
0.0
  0
LINE
  8
0
 62
     0
 10
5.2765
 20
0.458886
 30
0.0
 11
4.72391
 21
0.662838
 31
0.0
  0
LINE
  8
0
 62
     0
 10
4.72391
 20
0.662838
 30
0.0
 11
4.18924
 21
0.909507
 31
0.0
  0
LINE
  8
0
 62
     0
 10
4.18924
 20
0.909507
 30
0.0
 11
3.67524
 21
1.19751
 31
0.0
  0
LINE
  8
0
 62
     0
 10
3.67524
 20
1.19751
 30
0.0
 11
3.18464
 21
1.52411
 31
0.0
  0
LINE
  8
0
 62
     0
 10
3.18464
 20
1.52411
 30
0.0
 11
2.72438
 21
1.88929
 31
0.0
  0
LINE
  8
0
 62
     0
 10
2.72438
 20
1.88929
 30
0.0
 11
2.2903
 21
2.28892
 31
0.0
  0
LINE
  8
0
 62
     0
 10
2.2903
 20
2.28892
 30
0.0
 11
1.89067
 21
2.72162
 31
0.0
  0
LINE
  8
0
 62
     0
 10
1.89067
 20
2.72162
 30
0.0
 11
1.52687
 21
3.18464
 31
0.0
  0
LINE
  8
0
 62
     0
 10
1.52687
 20
3.18464
 30
0.0
 11
1.20027
 21
3.67386
 31
0.0
  0
LINE
  8
0
 62
     0
 10
1.20027
 20
3.67386
 30
0.0
 11
0.912262
 21
4.18786
 31
0.0
  0
LINE
  8
0
 62
     0
 10
0.912262
 20
4.18786
 30
0.0
 11
0.664214
 21
4.72253
 31
0.0
  0
LINE
  8
0
 62
     0
 10
0.664214
 20
4.72253
 30
0.0
 11
0.461641
 21
5.27512
 31
0.0
  0
LINE
  8
0
 62
     0
 10
0.461641
 20
5.27512
 30
0.0
 11
0.30179
 21
5.84151
 31
0.0
  0
LINE
  8
0
 62
     0
 10
0.30179
 20
5.84151
 30
0.0
 11
0.187413
 21
6.4189
 31
0.0
  0
LINE
  8
0
 62
     0
 10
0.187413
 20
6.4189
 30
0.0
 11
0.117133
 21
7.00458
 31
0.0
  0
LINE
  8
0
 62
     0
 10
0.117133
 20
7.00458
 30
0.0
 11
0.0937066
 21
7.59298
 31
0.0
  0
LINE
  8
0
 62
     0
 10
0.0937066
 20
7.59298
 30
0.0
 11
0.0950846
 21
151.656
 31
0.0
  0
LINE
  8
0
 62
     0
 10
0.0950846
 20
151.656
 30
0.0
 11
0.117133
 21
152.244
 31
0.0
  0
LINE
  8
0
 62
     0
 10
0.117133
 20
152.244
 30
0.0
 11
0.187413
 21
152.83
 31
0.0
  0
LINE
  8
0
 62
     0
 10
0.187413
 20
152.83
 30
0.0
 11
0.30179
 21
153.406
 31
0.0
  0
LINE
  8
0
 62
     0
 10
0.30179
 20
153.406
 30
0.0
 11
0.461641
 21
153.974
 31
0.0
  0
LINE
  8
0
 62
     0
 10
0.461641
 20
153.974
 30
0.0
 11
0.664214
 21
154.526
 31
0.0
  0
LINE
  8
0
 62
     0
 10
0.664214
 20
154.526
 30
0.0
 11
0.912262
 21
155.061
 31
0.0
  0
LINE
  8
0
 62
     0
 10
0.912262
 20
155.061
 30
0.0
 11
1.20027
 21
155.575
 31
0.0
  0
LINE
  8
0
 62
     0
 10
1.20027
 20
155.575
 30
0.0
 11
1.52687
 21
156.066
 31
0.0
  0
LINE
  8
0
 62
     0
 10
1.52687
 20
156.066
 30
0.0
 11
1.89067
 21
156.526
 31
0.0
  0
LINE
  8
0
 62
     0
 10
1.89067
 20
156.526
 30
0.0
 11
2.2903
 21
156.96
 31
0.0
  0
LINE
  8
0
 62
     0
 10
2.2903
 20
156.96
 30
0.0
 11
2.72438
 21
157.36
 31
0.0
  0
LINE
  8
0
 62
     0
 10
2.72438
 20
157.36
 30
0.0
 11
3.18464
 21
157.723
 31
0.0
  0
LINE
  8
0
 62
     0
 10
3.18464
 20
157.723
 30
0.0
 11
3.67524
 21
158.05
 31
0.0
  0
LINE
  8
0
 62
     0
 10
3.67524
 20
158.05
 30
0.0
 11
4.18924
 21
158.338
 31
0.0
  0
LINE
  8
0
 62
     0
 10
4.18924
 20
158.338
 30
0.0
 11
4.72391
 21
158.586
 31
0.0
  0
LINE
  8
0
 62
     0
 10
4.72391
 20
158.586
 30
0.0
 11
5.2765
 21
158.788
 31
0.0
  0
LINE
  8
0
 62
     0
 10
5.2765
 20
158.788
 30
0.0
 11
5.84426
 21
158.949
 31
0.0
  0
LINE
  8
0
 62
     0
 10
5.84426
 20
158.949
 30
0.0
 11
6.42027
 21
159.063
 31
0.0
  0
LINE
  8
0
 62
     0
 10
6.42027
 20
159.063
 30
0.0
 11
7.00595
 21
159.133
 31
0.0
  0
LINE
  8
0
 62
     0
 10
7.00595
 20
159.133
 30
0.0
 11
7.59435
 21
159.156
 31
0.0
  0
LINE
  8
0
 62
     0
 10
7.59435
 20
159.156
 30
0.0
 11
165.946
 21
159.155
 31
0.0
  0
LINE
  8
0
 62
     0
 10
162.518
 20
12.9453
 30
0.0
 11
161.681
 21
12.5195
 31
0.0
  0
LINE
  8
0
 62
     0
 10
161.681
 20
12.5195
 30
0.0
 11
161.018
 21
11.8553
 31
0.0
  0
LINE
  8
0
 62
     0
 10
161.018
 20
11.8553
 30
0.0
 11
160.591
 21
11.0188
 31
0.0
  0
LINE
  8
0
 62
     0
 10
160.591
 20
11.0188
 30
0.0
 11
160.447
 21
10.0928
 31
0.0
  0
LINE
  8
0
 62
     0
 10
160.447
 20
10.0928
 30
0.0
 11
160.591
 21
9.16534
 31
0.0
  0
LINE
  8
0
 62
     0
 10
160.591
 20
9.16534
 30
0.0
 11
161.018
 21
8.32887
 31
0.0
  0
LINE
  8
0
 62
     0
 10
161.018
 20
8.32887
 30
0.0
 11
161.681
 21
7.66604
 31
0.0
  0
LINE
  8
0
 62
     0
 10
161.681
 20
7.66604
 30
0.0
 11
162.518
 21
7.23882
 31
0.0
  0
LINE
  8
0
 62
     0
 10
162.518
 20
7.23882
 30
0.0
 11
163.447
 21
7.09277
 31
0.0
  0
LINE
  8
0
 62
     0
 10
163.447
 20
7.09277
 30
0.0
 11
164.373
 21
7.23882
 31
0.0
  0
LINE
  8
0
 62
     0
 10
164.373
 20
7.23882
 30
0.0
 11
165.209
 21
7.66604
 31
0.0
  0
LINE
  8
0
 62
     0
 10
165.209
 20
7.66604
 30
0.0
 11
165.873
 21
8.32887
 31
0.0
  0
LINE
  8
0
 62
     0
 10
165.873
 20
8.32887
 30
0.0
 11
166.299
 21
9.16534
 31
0.0
  0
LINE
  8
0
 62
     0
 10
166.299
 20
9.16534
 30
0.0
 11
166.446
 21
10.0928
 31
0.0
  0
LINE
  8
0
 62
     0
 10
166.446
 20
10.0928
 30
0.0
 11
166.299
 21
11.0188
 31
0.0
  0
LINE
  8
0
 62
     0
 10
166.299
 20
11.0188
 30
0.0
 11
165.873
 21
11.8553
 31
0.0
  0
LINE
  8
0
 62
     0
 10
165.873
 20
11.8553
 30
0.0
 11
165.209
 21
12.5195
 31
0.0
  0
LINE
  8
0
 62
     0
 10
165.209
 20
12.5195
 30
0.0
 11
164.373
 21
12.9453
 31
0.0
  0
LINE
  8
0
 62
     0
 10
164.373
 20
12.9453
 30
0.0
 11
163.447
 21
13.0927
 31
0.0
  0
LINE
  8
0
 62
     0
 10
163.447
 20
13.0927
 30
0.0
 11
162.518
 21
12.9453
 31
0.0
  0
LINE
  8
0
 62
     0
 10
9.16672
 20
12.9453
 30
0.0
 11
8.33025
 21
12.5195
 31
0.0
  0
LINE
  8
0
 62
     0
 10
8.33025
 20
12.5195
 30
0.0
 11
7.66741
 21
11.8553
 31
0.0
  0
LINE
  8
0
 62
     0
 10
7.66741
 20
11.8553
 30
0.0
 11
7.2402
 21
11.0188
 31
0.0
  0
LINE
  8
0
 62
     0
 10
7.2402
 20
11.0188
 30
0.0
 11
7.09415
 21
10.0928
 31
0.0
  0
LINE
  8
0
 62
     0
 10
7.09415
 20
10.0928
 30
0.0
 11
7.2402
 21
9.16534
 31
0.0
  0
LINE
  8
0
 62
     0
 10
7.2402
 20
9.16534
 30
0.0
 11
7.66741
 21
8.32887
 31
0.0
  0
LINE
  8
0
 62
     0
 10
7.66741
 20
8.32887
 30
0.0
 11
8.33025
 21
7.66604
 31
0.0
  0
LINE
  8
0
 62
     0
 10
8.33025
 20
7.66604
 30
0.0
 11
9.16672
 21
7.23882
 31
0.0
  0
LINE
  8
0
 62
     0
 10
9.16672
 20
7.23882
 30
0.0
 11
10.0941
 21
7.09277
 31
0.0
  0
LINE
  8
0
 62
     0
 10
10.0941
 20
7.09277
 30
0.0
 11
11.0216
 21
7.23882
 31
0.0
  0
LINE
  8
0
 62
     0
 10
11.0216
 20
7.23882
 30
0.0
 11
11.858
 21
7.66604
 31
0.0
  0
LINE
  8
0
 62
     0
 10
11.858
 20
7.66604
 30
0.0
 11
12.5222
 21
8.32887
 31
0.0
  0
LINE
  8
0
 62
     0
 10
12.5222
 20
8.32887
 30
0.0
 11
12.948
 21
9.16534
 31
0.0
  0
LINE
  8
0
 62
     0
 10
12.948
 20
9.16534
 30
0.0
 11
13.0941
 21
10.0928
 31
0.0
  0
LINE
  8
0
 62
     0
 10
13.0941
 20
10.0928
 30
0.0
 11
12.948
 21
11.0188
 31
0.0
  0
LINE
  8
0
 62
     0
 10
12.948
 20
11.0188
 30
0.0
 11
12.5222
 21
11.8553
 31
0.0
  0
LINE
  8
0
 62
     0
 10
12.5222
 20
11.8553
 30
0.0
 11
11.858
 21
12.5195
 31
0.0
  0
LINE
  8
0
 62
     0
 10
11.858
 20
12.5195
 30
0.0
 11
11.0216
 21
12.9453
 31
0.0
  0
LINE
  8
0
 62
     0
 10
11.0216
 20
12.9453
 30
0.0
 11
10.0941
 21
13.0927
 31
0.0
  0
LINE
  8
0
 62
     0
 10
10.0941
 20
13.0927
 30
0.0
 11
9.16672
 21
12.9453
 31
0.0
  0
LINE
  8
0
 62
     0
 10
120.25
 20
36.6187
 30
0.0
 11
120.25
 21
35.6182
 31
0.0
  0
LINE
  8
0
 62
     0
 10
120.25
 20
35.6182
 30
0.0
 11
119.451
 21
35.6182
 31
0.0
  0
LINE
  8
0
 62
     0
 10
119.451
 20
35.6182
 30
0.0
 11
119.451
 21
32.519
 31
0.0
  0
LINE
  8
0
 62
     0
 10
119.451
 20
32.519
 30
0.0
 11
120.25
 21
32.519
 31
0.0
  0
LINE
  8
0
 62
     0
 10
120.25
 20
32.519
 30
0.0
 11
120.25
 21
31.9181
 31
0.0
  0
LINE
  8
0
 62
     0
 10
120.25
 20
31.9181
 30
0.0
 11
118.726
 21
31.9181
 31
0.0
  0
LINE
  8
0
 62
     0
 10
118.726
 20
31.9181
 30
0.0
 11
118.726
 21
35.1482
 31
0.0
  0
LINE
  8
0
 62
     0
 10
118.726
 20
35.1482
 30
0.0
 11
117.001
 21
35.1482
 31
0.0
  0
LINE
  8
0
 62
     0
 10
117.001
 20
35.1482
 30
0.0
 11
117.001
 21
36.0701
 31
0.0
  0
LINE
  8
0
 62
     0
 10
117.001
 20
36.0701
 30
0.0
 11
113.701
 21
36.0701
 31
0.0
  0
LINE
  8
0
 62
     0
 10
113.701
 20
36.0701
 30
0.0
 11
113.701
 21
35.1482
 31
0.0
  0
LINE
  8
0
 62
     0
 10
113.701
 20
35.1482
 30
0.0
 11
111.975
 21
35.1482
 31
0.0
  0
LINE
  8
0
 62
     0
 10
111.975
 20
35.1482
 30
0.0
 11
111.975
 21
31.9181
 31
0.0
  0
LINE
  8
0
 62
     0
 10
111.975
 20
31.9181
 30
0.0
 11
111.151
 21
31.9181
 31
0.0
  0
LINE
  8
0
 62
     0
 10
111.151
 20
31.9181
 30
0.0
 11
111.151
 21
29.118
 31
0.0
  0
LINE
  8
0
 62
     0
 10
111.151
 20
29.118
 30
0.0
 11
111.975
 21
29.118
 31
0.0
  0
LINE
  8
0
 62
     0
 10
111.975
 20
29.118
 30
0.0
 11
111.975
 21
22.8479
 31
0.0
  0
LINE
  8
0
 62
     0
 10
111.975
 20
22.8479
 30
0.0
 11
113.701
 21
22.8479
 31
0.0
  0
LINE
  8
0
 62
     0
 10
113.701
 20
22.8479
 30
0.0
 11
113.701
 21
21.8681
 31
0.0
  0
LINE
  8
0
 62
     0
 10
113.701
 20
21.8681
 30
0.0
 11
117.001
 21
21.8681
 31
0.0
  0
LINE
  8
0
 62
     0
 10
117.001
 20
21.8681
 30
0.0
 11
117.001
 21
22.8479
 31
0.0
  0
LINE
  8
0
 62
     0
 10
117.001
 20
22.8479
 30
0.0
 11
118.726
 21
22.8479
 31
0.0
  0
LINE
  8
0
 62
     0
 10
118.726
 20
22.8479
 30
0.0
 11
118.726
 21
27.3182
 31
0.0
  0
LINE
  8
0
 62
     0
 10
118.726
 20
27.3182
 30
0.0
 11
120.25
 21
27.3182
 31
0.0
  0
LINE
  8
0
 62
     0
 10
120.25
 20
27.3182
 30
0.0
 11
120.25
 21
26.7188
 31
0.0
  0
LINE
  8
0
 62
     0
 10
120.25
 20
26.7188
 30
0.0
 11
119.451
 21
26.7188
 31
0.0
  0
LINE
  8
0
 62
     0
 10
119.451
 20
26.7188
 30
0.0
 11
119.451
 21
23.6182
 31
0.0
  0
LINE
  8
0
 62
     0
 10
119.451
 20
23.6182
 30
0.0
 11
120.25
 21
23.6182
 31
0.0
  0
LINE
  8
0
 62
     0
 10
120.25
 20
23.6182
 30
0.0
 11
120.25
 21
22.6191
 31
0.0
  0
LINE
  8
0
 62
     0
 10
120.25
 20
22.6191
 30
0.0
 11
134.251
 21
22.6191
 31
0.0
  0
LINE
  8
0
 62
     0
 10
134.251
 20
22.6191
 30
0.0
 11
134.251
 21
23.6182
 31
0.0
  0
LINE
  8
0
 62
     0
 10
134.251
 20
23.6182
 30
0.0
 11
135.05
 21
23.6182
 31
0.0
  0
LINE
  8
0
 62
     0
 10
135.05
 20
23.6182
 30
0.0
 11
135.05
 21
26.7188
 31
0.0
  0
LINE
  8
0
 62
     0
 10
135.05
 20
26.7188
 30
0.0
 11
134.251
 21
26.7188
 31
0.0
  0
LINE
  8
0
 62
     0
 10
134.251
 20
26.7188
 30
0.0
 11
134.251
 21
27.3182
 31
0.0
  0
LINE
  8
0
 62
     0
 10
134.251
 20
27.3182
 30
0.0
 11
135.775
 21
27.3182
 31
0.0
  0
LINE
  8
0
 62
     0
 10
135.775
 20
27.3182
 30
0.0
 11
135.775
 21
22.8479
 31
0.0
  0
LINE
  8
0
 62
     0
 10
135.775
 20
22.8479
 30
0.0
 11
137.501
 21
22.8479
 31
0.0
  0
LINE
  8
0
 62
     0
 10
137.501
 20
22.8479
 30
0.0
 11
137.501
 21
21.8681
 31
0.0
  0
LINE
  8
0
 62
     0
 10
137.501
 20
21.8681
 30
0.0
 11
140.801
 21
21.8681
 31
0.0
  0
LINE
  8
0
 62
     0
 10
140.801
 20
21.8681
 30
0.0
 11
140.801
 21
22.8479
 31
0.0
  0
LINE
  8
0
 62
     0
 10
140.801
 20
22.8479
 30
0.0
 11
142.526
 21
22.8479
 31
0.0
  0
LINE
  8
0
 62
     0
 10
142.526
 20
22.8479
 30
0.0
 11
142.526
 21
29.118
 31
0.0
  0
LINE
  8
0
 62
     0
 10
142.526
 20
29.118
 30
0.0
 11
143.351
 21
29.118
 31
0.0
  0
LINE
  8
0
 62
     0
 10
143.351
 20
29.118
 30
0.0
 11
143.351
 21
31.9181
 31
0.0
  0
LINE
  8
0
 62
     0
 10
143.351
 20
31.9181
 30
0.0
 11
142.526
 21
31.9181
 31
0.0
  0
LINE
  8
0
 62
     0
 10
142.526
 20
31.9181
 30
0.0
 11
142.526
 21
35.1482
 31
0.0
  0
LINE
  8
0
 62
     0
 10
142.526
 20
35.1482
 30
0.0
 11
140.801
 21
35.1482
 31
0.0
  0
LINE
  8
0
 62
     0
 10
140.801
 20
35.1482
 30
0.0
 11
140.801
 21
36.0701
 31
0.0
  0
LINE
  8
0
 62
     0
 10
140.801
 20
36.0701
 30
0.0
 11
137.501
 21
36.0701
 31
0.0
  0
LINE
  8
0
 62
     0
 10
137.501
 20
36.0701
 30
0.0
 11
137.501
 21
35.1482
 31
0.0
  0
LINE
  8
0
 62
     0
 10
137.501
 20
35.1482
 30
0.0
 11
135.775
 21
35.1482
 31
0.0
  0
LINE
  8
0
 62
     0
 10
135.775
 20
35.1482
 30
0.0
 11
135.775
 21
31.9181
 31
0.0
  0
LINE
  8
0
 62
     0
 10
135.775
 20
31.9181
 30
0.0
 11
134.251
 21
31.9181
 31
0.0
  0
LINE
  8
0
 62
     0
 10
134.251
 20
31.9181
 30
0.0
 11
134.251
 21
32.519
 31
0.0
  0
LINE
  8
0
 62
     0
 10
134.251
 20
32.519
 30
0.0
 11
135.05
 21
32.519
 31
0.0
  0
LINE
  8
0
 62
     0
 10
135.05
 20
32.519
 30
0.0
 11
135.05
 21
35.6182
 31
0.0
  0
LINE
  8
0
 62
     0
 10
135.05
 20
35.6182
 30
0.0
 11
134.251
 21
35.6182
 31
0.0
  0
LINE
  8
0
 62
     0
 10
134.251
 20
35.6182
 30
0.0
 11
134.251
 21
36.6187
 31
0.0
  0
LINE
  8
0
 62
     0
 10
134.251
 20
36.6187
 30
0.0
 11
120.25
 21
36.6187
 31
0.0
  0
LINE
  8
0
 62
     0
 10
27.3816
 20
36.6187
 30
0.0
 11
27.3816
 21
35.6182
 31
0.0
  0
LINE
  8
0
 62
     0
 10
27.3816
 20
35.6182
 30
0.0
 11
26.5824
 21
35.6182
 31
0.0
  0
LINE
  8
0
 62
     0
 10
26.5824
 20
35.6182
 30
0.0
 11
26.5824
 21
32.519
 31
0.0
  0
LINE
  8
0
 62
     0
 10
26.5824
 20
32.519
 30
0.0
 11
27.3816
 21
32.519
 31
0.0
  0
LINE
  8
0
 62
     0
 10
27.3816
 20
32.519
 30
0.0
 11
27.3816
 21
26.7188
 31
0.0
  0
LINE
  8
0
 62
     0
 10
27.3816
 20
26.7188
 30
0.0
 11
26.5824
 21
26.7188
 31
0.0
  0
LINE
  8
0
 62
     0
 10
26.5824
 20
26.7188
 30
0.0
 11
26.5824
 21
23.6182
 31
0.0
  0
LINE
  8
0
 62
     0
 10
26.5824
 20
23.6182
 30
0.0
 11
27.3816
 21
23.6182
 31
0.0
  0
LINE
  8
0
 62
     0
 10
27.3816
 20
23.6182
 30
0.0
 11
27.3816
 21
22.6191
 31
0.0
  0
LINE
  8
0
 62
     0
 10
27.3816
 20
22.6191
 30
0.0
 11
41.3812
 21
22.6191
 31
0.0
  0
LINE
  8
0
 62
     0
 10
41.3812
 20
22.6191
 30
0.0
 11
41.3812
 21
23.6182
 31
0.0
  0
LINE
  8
0
 62
     0
 10
41.3812
 20
23.6182
 30
0.0
 11
42.1816
 21
23.6182
 31
0.0
  0
LINE
  8
0
 62
     0
 10
42.1816
 20
23.6182
 30
0.0
 11
42.1816
 21
26.7188
 31
0.0
  0
LINE
  8
0
 62
     0
 10
42.1816
 20
26.7188
 30
0.0
 11
41.3812
 21
26.7188
 31
0.0
  0
LINE
  8
0
 62
     0
 10
41.3812
 20
26.7188
 30
0.0
 11
41.3812
 21
32.519
 31
0.0
  0
LINE
  8
0
 62
     0
 10
41.3812
 20
32.519
 30
0.0
 11
42.1816
 21
32.519
 31
0.0
  0
LINE
  8
0
 62
     0
 10
42.1816
 20
32.519
 30
0.0
 11
42.1816
 21
35.6182
 31
0.0
  0
LINE
  8
0
 62
     0
 10
42.1816
 20
35.6182
 30
0.0
 11
41.3812
 21
35.6182
 31
0.0
  0
LINE
  8
0
 62
     0
 10
41.3812
 20
35.6182
 30
0.0
 11
41.3812
 21
36.6187
 31
0.0
  0
LINE
  8
0
 62
     0
 10
41.3812
 20
36.6187
 30
0.0
 11
27.3816
 21
36.6187
 31
0.0
  0
LINE
  8
0
 62
     0
 10
53.5753
 20
36.6187
 30
0.0
 11
53.5753
 21
35.6182
 31
0.0
  0
LINE
  8
0
 62
     0
 10
53.5753
 20
35.6182
 30
0.0
 11
52.7763
 21
35.6182
 31
0.0
  0
LINE
  8
0
 62
     0
 10
52.7763
 20
35.6182
 30
0.0
 11
52.7763
 21
32.519
 31
0.0
  0
LINE
  8
0
 62
     0
 10
52.7763
 20
32.519
 30
0.0
 11
53.5753
 21
32.519
 31
0.0
  0
LINE
  8
0
 62
     0
 10
53.5753
 20
32.519
 30
0.0
 11
53.5753
 21
26.7188
 31
0.0
  0
LINE
  8
0
 62
     0
 10
53.5753
 20
26.7188
 30
0.0
 11
52.7763
 21
26.7188
 31
0.0
  0
LINE
  8
0
 62
     0
 10
52.7763
 20
26.7188
 30
0.0
 11
52.7763
 21
23.6182
 31
0.0
  0
LINE
  8
0
 62
     0
 10
52.7763
 20
23.6182
 30
0.0
 11
53.5753
 21
23.6182
 31
0.0
  0
LINE
  8
0
 62
     0
 10
53.5753
 20
23.6182
 30
0.0
 11
53.5753
 21
22.6191
 31
0.0
  0
LINE
  8
0
 62
     0
 10
53.5753
 20
22.6191
 30
0.0
 11
67.5763
 21
22.6191
 31
0.0
  0
LINE
  8
0
 62
     0
 10
67.5763
 20
22.6191
 30
0.0
 11
67.5763
 21
23.6182
 31
0.0
  0
LINE
  8
0
 62
     0
 10
67.5763
 20
23.6182
 30
0.0
 11
68.3754
 21
23.6182
 31
0.0
  0
LINE
  8
0
 62
     0
 10
68.3754
 20
23.6182
 30
0.0
 11
68.3754
 21
26.7188
 31
0.0
  0
LINE
  8
0
 62
     0
 10
68.3754
 20
26.7188
 30
0.0
 11
67.5763
 21
26.7188
 31
0.0
  0
LINE
  8
0
 62
     0
 10
67.5763
 20
26.7188
 30
0.0
 11
67.5763
 21
32.519
 31
0.0
  0
LINE
  8
0
 62
     0
 10
67.5763
 20
32.519
 30
0.0
 11
68.3754
 21
32.519
 31
0.0
  0
LINE
  8
0
 62
     0
 10
68.3754
 20
32.519
 30
0.0
 11
68.3754
 21
35.6182
 31
0.0
  0
LINE
  8
0
 62
     0
 10
68.3754
 20
35.6182
 30
0.0
 11
67.5763
 21
35.6182
 31
0.0
  0
LINE
  8
0
 62
     0
 10
67.5763
 20
35.6182
 30
0.0
 11
67.5763
 21
36.6187
 31
0.0
  0
LINE
  8
0
 62
     0
 10
67.5763
 20
36.6187
 30
0.0
 11
53.5753
 21
36.6187
 31
0.0
  0
LINE
  8
0
 62
     0
 10
79.7691
 20
36.6187
 30
0.0
 11
79.7691
 21
35.6182
 31
0.0
  0
LINE
  8
0
 62
     0
 10
79.7691
 20
35.6182
 30
0.0
 11
78.97
 21
35.6182
 31
0.0
  0
LINE
  8
0
 62
     0
 10
78.97
 20
35.6182
 30
0.0
 11
78.97
 21
32.519
 31
0.0
  0
LINE
  8
0
 62
     0
 10
78.97
 20
32.519
 30
0.0
 11
79.7691
 21
32.519
 31
0.0
  0
LINE
  8
0
 62
     0
 10
79.7691
 20
32.519
 30
0.0
 11
79.7691
 21
26.7188
 31
0.0
  0
LINE
  8
0
 62
     0
 10
79.7691
 20
26.7188
 30
0.0
 11
78.97
 21
26.7188
 31
0.0
  0
LINE
  8
0
 62
     0
 10
78.97
 20
26.7188
 30
0.0
 11
78.97
 21
23.6182
 31
0.0
  0
LINE
  8
0
 62
     0
 10
78.97
 20
23.6182
 30
0.0
 11
79.7691
 21
23.6182
 31
0.0
  0
LINE
  8
0
 62
     0
 10
79.7691
 20
23.6182
 30
0.0
 11
79.7691
 21
22.6191
 31
0.0
  0
LINE
  8
0
 62
     0
 10
79.7691
 20
22.6191
 30
0.0
 11
93.7701
 21
22.6191
 31
0.0
  0
LINE
  8
0
 62
     0
 10
93.7701
 20
22.6191
 30
0.0
 11
93.7701
 21
23.6182
 31
0.0
  0
LINE
  8
0
 62
     0
 10
93.7701
 20
23.6182
 30
0.0
 11
94.5691
 21
23.6182
 31
0.0
  0
LINE
  8
0
 62
     0
 10
94.5691
 20
23.6182
 30
0.0
 11
94.5691
 21
26.7188
 31
0.0
  0
LINE
  8
0
 62
     0
 10
94.5691
 20
26.7188
 30
0.0
 11
93.7701
 21
26.7188
 31
0.0
  0
LINE
  8
0
 62
     0
 10
93.7701
 20
26.7188
 30
0.0
 11
93.7701
 21
32.519
 31
0.0
  0
LINE
  8
0
 62
     0
 10
93.7701
 20
32.519
 30
0.0
 11
94.5691
 21
32.519
 31
0.0
  0
LINE
  8
0
 62
     0
 10
94.5691
 20
32.519
 30
0.0
 11
94.5691
 21
35.6182
 31
0.0
  0
LINE
  8
0
 62
     0
 10
94.5691
 20
35.6182
 30
0.0
 11
93.7701
 21
35.6182
 31
0.0
  0
LINE
  8
0
 62
     0
 10
93.7701
 20
35.6182
 30
0.0
 11
93.7701
 21
36.6187
 31
0.0
  0
LINE
  8
0
 62
     0
 10
93.7701
 20
36.6187
 30
0.0
 11
79.7691
 21
36.6187
 31
0.0
  0
LINE
  8
0
 62
     0
 10
32.1441
 20
55.6687
 30
0.0
 11
32.1441
 21
54.6682
 31
0.0
  0
LINE
  8
0
 62
     0
 10
32.1441
 20
54.6682
 30
0.0
 11
31.3449
 21
54.6682
 31
0.0
  0
LINE
  8
0
 62
     0
 10
31.3449
 20
54.6682
 30
0.0
 11
31.3449
 21
51.5691
 31
0.0
  0
LINE
  8
0
 62
     0
 10
31.3449
 20
51.5691
 30
0.0
 11
32.1441
 21
51.5691
 31
0.0
  0
LINE
  8
0
 62
     0
 10
32.1441
 20
51.5691
 30
0.0
 11
32.1441
 21
50.9683
 31
0.0
  0
LINE
  8
0
 62
     0
 10
32.1441
 20
50.9683
 30
0.0
 11
30.62
 21
50.9683
 31
0.0
  0
LINE
  8
0
 62
     0
 10
30.62
 20
50.9683
 30
0.0
 11
30.62
 21
54.1983
 31
0.0
  0
LINE
  8
0
 62
     0
 10
30.62
 20
54.1983
 30
0.0
 11
28.8947
 21
54.1983
 31
0.0
  0
LINE
  8
0
 62
     0
 10
28.8947
 20
54.1983
 30
0.0
 11
28.8947
 21
55.1187
 31
0.0
  0
LINE
  8
0
 62
     0
 10
28.8947
 20
55.1187
 30
0.0
 11
25.5943
 21
55.1187
 31
0.0
  0
LINE
  8
0
 62
     0
 10
25.5943
 20
55.1187
 30
0.0
 11
25.5943
 21
54.1983
 31
0.0
  0
LINE
  8
0
 62
     0
 10
25.5943
 20
54.1983
 30
0.0
 11
23.8704
 21
54.1983
 31
0.0
  0
LINE
  8
0
 62
     0
 10
23.8704
 20
54.1983
 30
0.0
 11
23.8704
 21
50.9683
 31
0.0
  0
LINE
  8
0
 62
     0
 10
23.8704
 20
50.9683
 30
0.0
 11
23.0435
 21
50.9683
 31
0.0
  0
LINE
  8
0
 62
     0
 10
23.0435
 20
50.9683
 30
0.0
 11
23.0435
 21
48.1679
 31
0.0
  0
LINE
  8
0
 62
     0
 10
23.0435
 20
48.1679
 30
0.0
 11
23.8704
 21
48.1679
 31
0.0
  0
LINE
  8
0
 62
     0
 10
23.8704
 20
48.1679
 30
0.0
 11
23.8704
 21
41.898
 31
0.0
  0
LINE
  8
0
 62
     0
 10
23.8704
 20
41.898
 30
0.0
 11
25.5943
 21
41.898
 31
0.0
  0
LINE
  8
0
 62
     0
 10
25.5943
 20
41.898
 30
0.0
 11
25.5943
 21
40.918
 31
0.0
  0
LINE
  8
0
 62
     0
 10
25.5943
 20
40.918
 30
0.0
 11
28.8947
 21
40.918
 31
0.0
  0
LINE
  8
0
 62
     0
 10
28.8947
 20
40.918
 30
0.0
 11
28.8947
 21
41.898
 31
0.0
  0
LINE
  8
0
 62
     0
 10
28.8947
 20
41.898
 30
0.0
 11
30.62
 21
41.898
 31
0.0
  0
LINE
  8
0
 62
     0
 10
30.62
 20
41.898
 30
0.0
 11
30.62
 21
46.3684
 31
0.0
  0
LINE
  8
0
 62
     0
 10
30.62
 20
46.3684
 30
0.0
 11
32.1441
 21
46.3684
 31
0.0
  0
LINE
  8
0
 62
     0
 10
32.1441
 20
46.3684
 30
0.0
 11
32.1441
 21
45.7687
 31
0.0
  0
LINE
  8
0
 62
     0
 10
32.1441
 20
45.7687
 30
0.0
 11
31.3449
 21
45.7687
 31
0.0
  0
LINE
  8
0
 62
     0
 10
31.3449
 20
45.7687
 30
0.0
 11
31.3449
 21
42.6681
 31
0.0
  0
LINE
  8
0
 62
     0
 10
31.3449
 20
42.6681
 30
0.0
 11
32.1441
 21
42.6681
 31
0.0
  0
LINE
  8
0
 62
     0
 10
32.1441
 20
42.6681
 30
0.0
 11
32.1441
 21
41.6691
 31
0.0
  0
LINE
  8
0
 62
     0
 10
32.1441
 20
41.6691
 30
0.0
 11
46.1451
 21
41.6691
 31
0.0
  0
LINE
  8
0
 62
     0
 10
46.1451
 20
41.6691
 30
0.0
 11
46.1451
 21
42.6681
 31
0.0
  0
LINE
  8
0
 62
     0
 10
46.1451
 20
42.6681
 30
0.0
 11
46.9441
 21
42.6681
 31
0.0
  0
LINE
  8
0
 62
     0
 10
46.9441
 20
42.6681
 30
0.0
 11
46.9441
 21
45.7687
 31
0.0
  0
LINE
  8
0
 62
     0
 10
46.9441
 20
45.7687
 30
0.0
 11
46.1451
 21
45.7687
 31
0.0
  0
LINE
  8
0
 62
     0
 10
46.1451
 20
45.7687
 30
0.0
 11
46.1451
 21
46.3684
 31
0.0
  0
LINE
  8
0
 62
     0
 10
46.1451
 20
46.3684
 30
0.0
 11
47.6691
 21
46.3684
 31
0.0
  0
LINE
  8
0
 62
     0
 10
47.6691
 20
46.3684
 30
0.0
 11
47.6691
 21
41.898
 31
0.0
  0
LINE
  8
0
 62
     0
 10
47.6691
 20
41.898
 30
0.0
 11
49.3945
 21
41.898
 31
0.0
  0
LINE
  8
0
 62
     0
 10
49.3945
 20
41.898
 30
0.0
 11
49.3945
 21
40.918
 31
0.0
  0
LINE
  8
0
 62
     0
 10
49.3945
 20
40.918
 30
0.0
 11
52.6934
 21
40.918
 31
0.0
  0
LINE
  8
0
 62
     0
 10
52.6934
 20
40.918
 30
0.0
 11
52.6934
 21
41.898
 31
0.0
  0
LINE
  8
0
 62
     0
 10
52.6934
 20
41.898
 30
0.0
 11
54.4188
 21
41.898
 31
0.0
  0
LINE
  8
0
 62
     0
 10
54.4188
 20
41.898
 30
0.0
 11
54.4188
 21
48.1679
 31
0.0
  0
LINE
  8
0
 62
     0
 10
54.4188
 20
48.1679
 30
0.0
 11
55.2443
 21
48.1679
 31
0.0
  0
LINE
  8
0
 62
     0
 10
55.2443
 20
48.1679
 30
0.0
 11
55.2443
 21
50.9683
 31
0.0
  0
LINE
  8
0
 62
     0
 10
55.2443
 20
50.9683
 30
0.0
 11
54.4188
 21
50.9683
 31
0.0
  0
LINE
  8
0
 62
     0
 10
54.4188
 20
50.9683
 30
0.0
 11
54.4188
 21
54.1983
 31
0.0
  0
LINE
  8
0
 62
     0
 10
54.4188
 20
54.1983
 30
0.0
 11
52.6934
 21
54.1983
 31
0.0
  0
LINE
  8
0
 62
     0
 10
52.6934
 20
54.1983
 30
0.0
 11
52.6934
 21
55.1187
 31
0.0
  0
LINE
  8
0
 62
     0
 10
52.6934
 20
55.1187
 30
0.0
 11
49.3945
 21
55.1187
 31
0.0
  0
LINE
  8
0
 62
     0
 10
49.3945
 20
55.1187
 30
0.0
 11
49.3945
 21
54.1983
 31
0.0
  0
LINE
  8
0
 62
     0
 10
49.3945
 20
54.1983
 30
0.0
 11
47.6691
 21
54.1983
 31
0.0
  0
LINE
  8
0
 62
     0
 10
47.6691
 20
54.1983
 30
0.0
 11
47.6691
 21
50.9683
 31
0.0
  0
LINE
  8
0
 62
     0
 10
47.6691
 20
50.9683
 30
0.0
 11
46.1451
 21
50.9683
 31
0.0
  0
LINE
  8
0
 62
     0
 10
46.1451
 20
50.9683
 30
0.0
 11
46.1451
 21
51.5691
 31
0.0
  0
LINE
  8
0
 62
     0
 10
46.1451
 20
51.5691
 30
0.0
 11
46.9441
 21
51.5691
 31
0.0
  0
LINE
  8
0
 62
     0
 10
46.9441
 20
51.5691
 30
0.0
 11
46.9441
 21
54.6682
 31
0.0
  0
LINE
  8
0
 62
     0
 10
46.9441
 20
54.6682
 30
0.0
 11
46.1451
 21
54.6682
 31
0.0
  0
LINE
  8
0
 62
     0
 10
46.1451
 20
54.6682
 30
0.0
 11
46.1451
 21
55.6687
 31
0.0
  0
LINE
  8
0
 62
     0
 10
46.1451
 20
55.6687
 30
0.0
 11
32.1441
 21
55.6687
 31
0.0
  0
LINE
  8
0
 62
     0
 10
60.7191
 20
55.6687
 30
0.0
 11
60.7191
 21
54.6682
 31
0.0
  0
LINE
  8
0
 62
     0
 10
60.7191
 20
54.6682
 30
0.0
 11
59.92
 21
54.6682
 31
0.0
  0
LINE
  8
0
 62
     0
 10
59.92
 20
54.6682
 30
0.0
 11
59.92
 21
51.5691
 31
0.0
  0
LINE
  8
0
 62
     0
 10
59.92
 20
51.5691
 30
0.0
 11
60.7191
 21
51.5691
 31
0.0
  0
LINE
  8
0
 62
     0
 10
60.7191
 20
51.5691
 30
0.0
 11
60.7191
 21
45.7687
 31
0.0
  0
LINE
  8
0
 62
     0
 10
60.7191
 20
45.7687
 30
0.0
 11
59.92
 21
45.7687
 31
0.0
  0
LINE
  8
0
 62
     0
 10
59.92
 20
45.7687
 30
0.0
 11
59.92
 21
42.6681
 31
0.0
  0
LINE
  8
0
 62
     0
 10
59.92
 20
42.6681
 30
0.0
 11
60.7191
 21
42.6681
 31
0.0
  0
LINE
  8
0
 62
     0
 10
60.7191
 20
42.6681
 30
0.0
 11
60.7191
 21
41.6691
 31
0.0
  0
LINE
  8
0
 62
     0
 10
60.7191
 20
41.6691
 30
0.0
 11
74.7201
 21
41.6691
 31
0.0
  0
LINE
  8
0
 62
     0
 10
74.7201
 20
41.6691
 30
0.0
 11
74.7201
 21
42.6681
 31
0.0
  0
LINE
  8
0
 62
     0
 10
74.7201
 20
42.6681
 30
0.0
 11
75.5191
 21
42.6681
 31
0.0
  0
LINE
  8
0
 62
     0
 10
75.5191
 20
42.6681
 30
0.0
 11
75.5191
 21
45.7687
 31
0.0
  0
LINE
  8
0
 62
     0
 10
75.5191
 20
45.7687
 30
0.0
 11
74.7201
 21
45.7687
 31
0.0
  0
LINE
  8
0
 62
     0
 10
74.7201
 20
45.7687
 30
0.0
 11
74.7201
 21
51.5691
 31
0.0
  0
LINE
  8
0
 62
     0
 10
74.7201
 20
51.5691
 30
0.0
 11
75.5191
 21
51.5691
 31
0.0
  0
LINE
  8
0
 62
     0
 10
75.5191
 20
51.5691
 30
0.0
 11
75.5191
 21
54.6682
 31
0.0
  0
LINE
  8
0
 62
     0
 10
75.5191
 20
54.6682
 30
0.0
 11
74.7201
 21
54.6682
 31
0.0
  0
LINE
  8
0
 62
     0
 10
74.7201
 20
54.6682
 30
0.0
 11
74.7201
 21
55.6687
 31
0.0
  0
LINE
  8
0
 62
     0
 10
74.7201
 20
55.6687
 30
0.0
 11
60.7191
 21
55.6687
 31
0.0
  0
LINE
  8
0
 62
     0
 10
79.7691
 20
55.6687
 30
0.0
 11
79.7691
 21
54.6682
 31
0.0
  0
LINE
  8
0
 62
     0
 10
79.7691
 20
54.6682
 30
0.0
 11
78.97
 21
54.6682
 31
0.0
  0
LINE
  8
0
 62
     0
 10
78.97
 20
54.6682
 30
0.0
 11
78.97
 21
51.5691
 31
0.0
  0
LINE
  8
0
 62
     0
 10
78.97
 20
51.5691
 30
0.0
 11
79.7691
 21
51.5691
 31
0.0
  0
LINE
  8
0
 62
     0
 10
79.7691
 20
51.5691
 30
0.0
 11
79.7691
 21
45.7687
 31
0.0
  0
LINE
  8
0
 62
     0
 10
79.7691
 20
45.7687
 30
0.0
 11
78.97
 21
45.7687
 31
0.0
  0
LINE
  8
0
 62
     0
 10
78.97
 20
45.7687
 30
0.0
 11
78.97
 21
42.6681
 31
0.0
  0
LINE
  8
0
 62
     0
 10
78.97
 20
42.6681
 30
0.0
 11
79.7691
 21
42.6681
 31
0.0
  0
LINE
  8
0
 62
     0
 10
79.7691
 20
42.6681
 30
0.0
 11
79.7691
 21
41.6691
 31
0.0
  0
LINE
  8
0
 62
     0
 10
79.7691
 20
41.6691
 30
0.0
 11
93.7701
 21
41.6691
 31
0.0
  0
LINE
  8
0
 62
     0
 10
93.7701
 20
41.6691
 30
0.0
 11
93.7701
 21
42.6681
 31
0.0
  0
LINE
  8
0
 62
     0
 10
93.7701
 20
42.6681
 30
0.0
 11
94.5691
 21
42.6681
 31
0.0
  0
LINE
  8
0
 62
     0
 10
94.5691
 20
42.6681
 30
0.0
 11
94.5691
 21
45.7687
 31
0.0
  0
LINE
  8
0
 62
     0
 10
94.5691
 20
45.7687
 30
0.0
 11
93.7701
 21
45.7687
 31
0.0
  0
LINE
  8
0
 62
     0
 10
93.7701
 20
45.7687
 30
0.0
 11
93.7701
 21
51.5691
 31
0.0
  0
LINE
  8
0
 62
     0
 10
93.7701
 20
51.5691
 30
0.0
 11
94.5691
 21
51.5691
 31
0.0
  0
LINE
  8
0
 62
     0
 10
94.5691
 20
51.5691
 30
0.0
 11
94.5691
 21
54.6682
 31
0.0
  0
LINE
  8
0
 62
     0
 10
94.5691
 20
54.6682
 30
0.0
 11
93.7701
 21
54.6682
 31
0.0
  0
LINE
  8
0
 62
     0
 10
93.7701
 20
54.6682
 30
0.0
 11
93.7701
 21
55.6687
 31
0.0
  0
LINE
  8
0
 62
     0
 10
93.7701
 20
55.6687
 30
0.0
 11
79.7691
 21
55.6687
 31
0.0
  0
LINE
  8
0
 62
     0
 10
98.8191
 20
55.6687
 30
0.0
 11
98.8191
 21
54.6682
 31
0.0
  0
LINE
  8
0
 62
     0
 10
98.8191
 20
54.6682
 30
0.0
 11
98.02
 21
54.6682
 31
0.0
  0
LINE
  8
0
 62
     0
 10
98.02
 20
54.6682
 30
0.0
 11
98.02
 21
51.5691
 31
0.0
  0
LINE
  8
0
 62
     0
 10
98.02
 20
51.5691
 30
0.0
 11
98.8191
 21
51.5691
 31
0.0
  0
LINE
  8
0
 62
     0
 10
98.8191
 20
51.5691
 30
0.0
 11
98.8191
 21
45.7687
 31
0.0
  0
LINE
  8
0
 62
     0
 10
98.8191
 20
45.7687
 30
0.0
 11
98.02
 21
45.7687
 31
0.0
  0
LINE
  8
0
 62
     0
 10
98.02
 20
45.7687
 30
0.0
 11
98.02
 21
42.6681
 31
0.0
  0
LINE
  8
0
 62
     0
 10
98.02
 20
42.6681
 30
0.0
 11
98.8191
 21
42.6681
 31
0.0
  0
LINE
  8
0
 62
     0
 10
98.8191
 20
42.6681
 30
0.0
 11
98.8191
 21
41.6691
 31
0.0
  0
LINE
  8
0
 62
     0
 10
98.8191
 20
41.6691
 30
0.0
 11
112.82
 21
41.6691
 31
0.0
  0
LINE
  8
0
 62
     0
 10
112.82
 20
41.6691
 30
0.0
 11
112.82
 21
42.6681
 31
0.0
  0
LINE
  8
0
 62
     0
 10
112.82
 20
42.6681
 30
0.0
 11
113.619
 21
42.6681
 31
0.0
  0
LINE
  8
0
 62
     0
 10
113.619
 20
42.6681
 30
0.0
 11
113.619
 21
45.7687
 31
0.0
  0
LINE
  8
0
 62
     0
 10
113.619
 20
45.7687
 30
0.0
 11
112.82
 21
45.7687
 31
0.0
  0
LINE
  8
0
 62
     0
 10
112.82
 20
45.7687
 30
0.0
 11
112.82
 21
51.5691
 31
0.0
  0
LINE
  8
0
 62
     0
 10
112.82
 20
51.5691
 30
0.0
 11
113.619
 21
51.5691
 31
0.0
  0
LINE
  8
0
 62
     0
 10
113.619
 20
51.5691
 30
0.0
 11
113.619
 21
54.6682
 31
0.0
  0
LINE
  8
0
 62
     0
 10
113.619
 20
54.6682
 30
0.0
 11
112.82
 21
54.6682
 31
0.0
  0
LINE
  8
0
 62
     0
 10
112.82
 20
54.6682
 30
0.0
 11
112.82
 21
55.6687
 31
0.0
  0
LINE
  8
0
 62
     0
 10
112.82
 20
55.6687
 30
0.0
 11
98.8191
 21
55.6687
 31
0.0
  0
LINE
  8
0
 62
     0
 10
117.869
 20
55.6687
 30
0.0
 11
117.869
 21
54.6682
 31
0.0
  0
LINE
  8
0
 62
     0
 10
117.869
 20
54.6682
 30
0.0
 11
117.07
 21
54.6682
 31
0.0
  0
LINE
  8
0
 62
     0
 10
117.07
 20
54.6682
 30
0.0
 11
117.07
 21
51.5691
 31
0.0
  0
LINE
  8
0
 62
     0
 10
117.07
 20
51.5691
 30
0.0
 11
117.869
 21
51.5691
 31
0.0
  0
LINE
  8
0
 62
     0
 10
117.869
 20
51.5691
 30
0.0
 11
117.869
 21
45.7687
 31
0.0
  0
LINE
  8
0
 62
     0
 10
117.869
 20
45.7687
 30
0.0
 11
117.07
 21
45.7687
 31
0.0
  0
LINE
  8
0
 62
     0
 10
117.07
 20
45.7687
 30
0.0
 11
117.07
 21
42.6681
 31
0.0
  0
LINE
  8
0
 62
     0
 10
117.07
 20
42.6681
 30
0.0
 11
117.869
 21
42.6681
 31
0.0
  0
LINE
  8
0
 62
     0
 10
117.869
 20
42.6681
 30
0.0
 11
117.869
 21
41.6691
 31
0.0
  0
LINE
  8
0
 62
     0
 10
117.869
 20
41.6691
 30
0.0
 11
131.87
 21
41.6691
 31
0.0
  0
LINE
  8
0
 62
     0
 10
131.87
 20
41.6691
 30
0.0
 11
131.87
 21
42.6681
 31
0.0
  0
LINE
  8
0
 62
     0
 10
131.87
 20
42.6681
 30
0.0
 11
132.669
 21
42.6681
 31
0.0
  0
LINE
  8
0
 62
     0
 10
132.669
 20
42.6681
 30
0.0
 11
132.669
 21
45.7687
 31
0.0
  0
LINE
  8
0
 62
     0
 10
132.669
 20
45.7687
 30
0.0
 11
131.87
 21
45.7687
 31
0.0
  0
LINE
  8
0
 62
     0
 10
131.87
 20
45.7687
 30
0.0
 11
131.87
 21
51.5691
 31
0.0
  0
LINE
  8
0
 62
     0
 10
131.87
 20
51.5691
 30
0.0
 11
132.669
 21
51.5691
 31
0.0
  0
LINE
  8
0
 62
     0
 10
132.669
 20
51.5691
 30
0.0
 11
132.669
 21
54.6682
 31
0.0
  0
LINE
  8
0
 62
     0
 10
132.669
 20
54.6682
 30
0.0
 11
131.87
 21
54.6682
 31
0.0
  0
LINE
  8
0
 62
     0
 10
131.87
 20
54.6682
 30
0.0
 11
131.87
 21
55.6687
 31
0.0
  0
LINE
  8
0
 62
     0
 10
131.87
 20
55.6687
 30
0.0
 11
117.869
 21
55.6687
 31
0.0
  0
LINE
  8
0
 62
     0
 10
136.919
 20
55.6687
 30
0.0
 11
136.919
 21
54.6682
 31
0.0
  0
LINE
  8
0
 62
     0
 10
136.919
 20
54.6682
 30
0.0
 11
136.12
 21
54.6682
 31
0.0
  0
LINE
  8
0
 62
     0
 10
136.12
 20
54.6682
 30
0.0
 11
136.12
 21
51.5691
 31
0.0
  0
LINE
  8
0
 62
     0
 10
136.12
 20
51.5691
 30
0.0
 11
136.919
 21
51.5691
 31
0.0
  0
LINE
  8
0
 62
     0
 10
136.919
 20
51.5691
 30
0.0
 11
136.919
 21
45.7687
 31
0.0
  0
LINE
  8
0
 62
     0
 10
136.919
 20
45.7687
 30
0.0
 11
136.12
 21
45.7687
 31
0.0
  0
LINE
  8
0
 62
     0
 10
136.12
 20
45.7687
 30
0.0
 11
136.12
 21
42.6681
 31
0.0
  0
LINE
  8
0
 62
     0
 10
136.12
 20
42.6681
 30
0.0
 11
136.919
 21
42.6681
 31
0.0
  0
LINE
  8
0
 62
     0
 10
136.919
 20
42.6681
 30
0.0
 11
136.919
 21
41.6691
 31
0.0
  0
LINE
  8
0
 62
     0
 10
136.919
 20
41.6691
 30
0.0
 11
150.92
 21
41.6691
 31
0.0
  0
LINE
  8
0
 62
     0
 10
150.92
 20
41.6691
 30
0.0
 11
150.92
 21
42.6681
 31
0.0
  0
LINE
  8
0
 62
     0
 10
150.92
 20
42.6681
 30
0.0
 11
151.719
 21
42.6681
 31
0.0
  0
LINE
  8
0
 62
     0
 10
151.719
 20
42.6681
 30
0.0
 11
151.719
 21
45.7687
 31
0.0
  0
LINE
  8
0
 62
     0
 10
151.719
 20
45.7687
 30
0.0
 11
150.92
 21
45.7687
 31
0.0
  0
LINE
  8
0
 62
     0
 10
150.92
 20
45.7687
 30
0.0
 11
150.92
 21
51.5691
 31
0.0
  0
LINE
  8
0
 62
     0
 10
150.92
 20
51.5691
 30
0.0
 11
151.719
 21
51.5691
 31
0.0
  0
LINE
  8
0
 62
     0
 10
151.719
 20
51.5691
 30
0.0
 11
151.719
 21
54.6682
 31
0.0
  0
LINE
  8
0
 62
     0
 10
151.719
 20
54.6682
 30
0.0
 11
150.92
 21
54.6682
 31
0.0
  0
LINE
  8
0
 62
     0
 10
150.92
 20
54.6682
 30
0.0
 11
150.92
 21
55.6687
 31
0.0
  0
LINE
  8
0
 62
     0
 10
150.92
 20
55.6687
 30
0.0
 11
136.919
 21
55.6687
 31
0.0
  0
LINE
  8
0
 62
     0
 10
29.7629
 20
74.7187
 30
0.0
 11
29.7629
 21
73.7182
 31
0.0
  0
LINE
  8
0
 62
     0
 10
29.7629
 20
73.7182
 30
0.0
 11
28.9622
 21
73.7182
 31
0.0
  0
LINE
  8
0
 62
     0
 10
28.9622
 20
73.7182
 30
0.0
 11
28.9622
 21
70.6191
 31
0.0
  0
LINE
  8
0
 62
     0
 10
28.9622
 20
70.6191
 30
0.0
 11
29.7629
 21
70.6191
 31
0.0
  0
LINE
  8
0
 62
     0
 10
29.7629
 20
70.6191
 30
0.0
 11
29.7629
 21
64.8187
 31
0.0
  0
LINE
  8
0
 62
     0
 10
29.7629
 20
64.8187
 30
0.0
 11
28.9622
 21
64.8187
 31
0.0
  0
LINE
  8
0
 62
     0
 10
28.9622
 20
64.8187
 30
0.0
 11
28.9622
 21
61.7181
 31
0.0
  0
LINE
  8
0
 62
     0
 10
28.9622
 20
61.7181
 30
0.0
 11
29.7629
 21
61.7181
 31
0.0
  0
LINE
  8
0
 62
     0
 10
29.7629
 20
61.7181
 30
0.0
 11
29.7629
 21
60.7191
 31
0.0
  0
LINE
  8
0
 62
     0
 10
29.7629
 20
60.7191
 30
0.0
 11
43.7624
 21
60.7191
 31
0.0
  0
LINE
  8
0
 62
     0
 10
43.7624
 20
60.7191
 30
0.0
 11
43.7624
 21
61.7181
 31
0.0
  0
LINE
  8
0
 62
     0
 10
43.7624
 20
61.7181
 30
0.0
 11
44.5629
 21
61.7181
 31
0.0
  0
LINE
  8
0
 62
     0
 10
44.5629
 20
61.7181
 30
0.0
 11
44.5629
 21
64.8187
 31
0.0
  0
LINE
  8
0
 62
     0
 10
44.5629
 20
64.8187
 30
0.0
 11
43.7624
 21
64.8187
 31
0.0
  0
LINE
  8
0
 62
     0
 10
43.7624
 20
64.8187
 30
0.0
 11
43.7624
 21
70.6191
 31
0.0
  0
LINE
  8
0
 62
     0
 10
43.7624
 20
70.6191
 30
0.0
 11
44.5629
 21
70.6191
 31
0.0
  0
LINE
  8
0
 62
     0
 10
44.5629
 20
70.6191
 30
0.0
 11
44.5629
 21
73.7182
 31
0.0
  0
LINE
  8
0
 62
     0
 10
44.5629
 20
73.7182
 30
0.0
 11
43.7624
 21
73.7182
 31
0.0
  0
LINE
  8
0
 62
     0
 10
43.7624
 20
73.7182
 30
0.0
 11
43.7624
 21
74.7187
 31
0.0
  0
LINE
  8
0
 62
     0
 10
43.7624
 20
74.7187
 30
0.0
 11
29.7629
 21
74.7187
 31
0.0
  0
LINE
  8
0
 62
     0
 10
55.9566
 20
74.7187
 30
0.0
 11
55.9566
 21
73.7182
 31
0.0
  0
LINE
  8
0
 62
     0
 10
55.9566
 20
73.7182
 30
0.0
 11
55.1575
 21
73.7182
 31
0.0
  0
LINE
  8
0
 62
     0
 10
55.1575
 20
73.7182
 30
0.0
 11
55.1575
 21
70.6191
 31
0.0
  0
LINE
  8
0
 62
     0
 10
55.1575
 20
70.6191
 30
0.0
 11
55.9566
 21
70.6191
 31
0.0
  0
LINE
  8
0
 62
     0
 10
55.9566
 20
70.6191
 30
0.0
 11
55.9566
 21
64.8187
 31
0.0
  0
LINE
  8
0
 62
     0
 10
55.9566
 20
64.8187
 30
0.0
 11
55.1575
 21
64.8187
 31
0.0
  0
LINE
  8
0
 62
     0
 10
55.1575
 20
64.8187
 30
0.0
 11
55.1575
 21
61.7181
 31
0.0
  0
LINE
  8
0
 62
     0
 10
55.1575
 20
61.7181
 30
0.0
 11
55.9566
 21
61.7181
 31
0.0
  0
LINE
  8
0
 62
     0
 10
55.9566
 20
61.7181
 30
0.0
 11
55.9566
 21
60.7191
 31
0.0
  0
LINE
  8
0
 62
     0
 10
55.9566
 20
60.7191
 30
0.0
 11
69.9562
 21
60.7191
 31
0.0
  0
LINE
  8
0
 62
     0
 10
69.9562
 20
60.7191
 30
0.0
 11
69.9562
 21
61.7181
 31
0.0
  0
LINE
  8
0
 62
     0
 10
69.9562
 20
61.7181
 30
0.0
 11
70.7566
 21
61.7181
 31
0.0
  0
LINE
  8
0
 62
     0
 10
70.7566
 20
61.7181
 30
0.0
 11
70.7566
 21
64.8187
 31
0.0
  0
LINE
  8
0
 62
     0
 10
70.7566
 20
64.8187
 30
0.0
 11
69.9562
 21
64.8187
 31
0.0
  0
LINE
  8
0
 62
     0
 10
69.9562
 20
64.8187
 30
0.0
 11
69.9562
 21
70.6191
 31
0.0
  0
LINE
  8
0
 62
     0
 10
69.9562
 20
70.6191
 30
0.0
 11
70.7566
 21
70.6191
 31
0.0
  0
LINE
  8
0
 62
     0
 10
70.7566
 20
70.6191
 30
0.0
 11
70.7566
 21
73.7182
 31
0.0
  0
LINE
  8
0
 62
     0
 10
70.7566
 20
73.7182
 30
0.0
 11
69.9562
 21
73.7182
 31
0.0
  0
LINE
  8
0
 62
     0
 10
69.9562
 20
73.7182
 30
0.0
 11
69.9562
 21
74.7187
 31
0.0
  0
LINE
  8
0
 62
     0
 10
69.9562
 20
74.7187
 30
0.0
 11
55.9566
 21
74.7187
 31
0.0
  0
LINE
  8
0
 62
     0
 10
75.0066
 20
74.7187
 30
0.0
 11
75.0066
 21
73.7182
 31
0.0
  0
LINE
  8
0
 62
     0
 10
75.0066
 20
73.7182
 30
0.0
 11
74.2075
 21
73.7182
 31
0.0
  0
LINE
  8
0
 62
     0
 10
74.2075
 20
73.7182
 30
0.0
 11
74.2075
 21
70.6191
 31
0.0
  0
LINE
  8
0
 62
     0
 10
74.2075
 20
70.6191
 30
0.0
 11
75.0066
 21
70.6191
 31
0.0
  0
LINE
  8
0
 62
     0
 10
75.0066
 20
70.6191
 30
0.0
 11
75.0066
 21
64.8187
 31
0.0
  0
LINE
  8
0
 62
     0
 10
75.0066
 20
64.8187
 30
0.0
 11
74.2075
 21
64.8187
 31
0.0
  0
LINE
  8
0
 62
     0
 10
74.2075
 20
64.8187
 30
0.0
 11
74.2075
 21
61.7181
 31
0.0
  0
LINE
  8
0
 62
     0
 10
74.2075
 20
61.7181
 30
0.0
 11
75.0066
 21
61.7181
 31
0.0
  0
LINE
  8
0
 62
     0
 10
75.0066
 20
61.7181
 30
0.0
 11
75.0066
 21
60.7191
 31
0.0
  0
LINE
  8
0
 62
     0
 10
75.0066
 20
60.7191
 30
0.0
 11
89.0062
 21
60.7191
 31
0.0
  0
LINE
  8
0
 62
     0
 10
89.0062
 20
60.7191
 30
0.0
 11
89.0062
 21
61.7181
 31
0.0
  0
LINE
  8
0
 62
     0
 10
89.0062
 20
61.7181
 30
0.0
 11
89.8066
 21
61.7181
 31
0.0
  0
LINE
  8
0
 62
     0
 10
89.8066
 20
61.7181
 30
0.0
 11
89.8066
 21
64.8187
 31
0.0
  0
LINE
  8
0
 62
     0
 10
89.8066
 20
64.8187
 30
0.0
 11
89.0062
 21
64.8187
 31
0.0
  0
LINE
  8
0
 62
     0
 10
89.0062
 20
64.8187
 30
0.0
 11
89.0062
 21
70.6191
 31
0.0
  0
LINE
  8
0
 62
     0
 10
89.0062
 20
70.6191
 30
0.0
 11
89.8066
 21
70.6191
 31
0.0
  0
LINE
  8
0
 62
     0
 10
89.8066
 20
70.6191
 30
0.0
 11
89.8066
 21
73.7182
 31
0.0
  0
LINE
  8
0
 62
     0
 10
89.8066
 20
73.7182
 30
0.0
 11
89.0062
 21
73.7182
 31
0.0
  0
LINE
  8
0
 62
     0
 10
89.0062
 20
73.7182
 30
0.0
 11
89.0062
 21
74.7187
 31
0.0
  0
LINE
  8
0
 62
     0
 10
89.0062
 20
74.7187
 30
0.0
 11
75.0066
 21
74.7187
 31
0.0
  0
LINE
  8
0
 62
     0
 10
94.0566
 20
74.7187
 30
0.0
 11
94.0566
 21
73.7182
 31
0.0
  0
LINE
  8
0
 62
     0
 10
94.0566
 20
73.7182
 30
0.0
 11
93.2575
 21
73.7182
 31
0.0
  0
LINE
  8
0
 62
     0
 10
93.2575
 20
73.7182
 30
0.0
 11
93.2575
 21
70.6191
 31
0.0
  0
LINE
  8
0
 62
     0
 10
93.2575
 20
70.6191
 30
0.0
 11
94.0566
 21
70.6191
 31
0.0
  0
LINE
  8
0
 62
     0
 10
94.0566
 20
70.6191
 30
0.0
 11
94.0566
 21
64.8187
 31
0.0
  0
LINE
  8
0
 62
     0
 10
94.0566
 20
64.8187
 30
0.0
 11
93.2575
 21
64.8187
 31
0.0
  0
LINE
  8
0
 62
     0
 10
93.2575
 20
64.8187
 30
0.0
 11
93.2575
 21
61.7181
 31
0.0
  0
LINE
  8
0
 62
     0
 10
93.2575
 20
61.7181
 30
0.0
 11
94.0566
 21
61.7181
 31
0.0
  0
LINE
  8
0
 62
     0
 10
94.0566
 20
61.7181
 30
0.0
 11
94.0566
 21
60.7191
 31
0.0
  0
LINE
  8
0
 62
     0
 10
94.0566
 20
60.7191
 30
0.0
 11
108.056
 21
60.7191
 31
0.0
  0
LINE
  8
0
 62
     0
 10
108.056
 20
60.7191
 30
0.0
 11
108.056
 21
61.7181
 31
0.0
  0
LINE
  8
0
 62
     0
 10
108.056
 20
61.7181
 30
0.0
 11
108.857
 21
61.7181
 31
0.0
  0
LINE
  8
0
 62
     0
 10
108.857
 20
61.7181
 30
0.0
 11
108.857
 21
64.8187
 31
0.0
  0
LINE
  8
0
 62
     0
 10
108.857
 20
64.8187
 30
0.0
 11
108.056
 21
64.8187
 31
0.0
  0
LINE
  8
0
 62
     0
 10
108.056
 20
64.8187
 30
0.0
 11
108.056
 21
70.6191
 31
0.0
  0
LINE
  8
0
 62
     0
 10
108.056
 20
70.6191
 30
0.0
 11
108.857
 21
70.6191
 31
0.0
  0
LINE
  8
0
 62
     0
 10
108.857
 20
70.6191
 30
0.0
 11
108.857
 21
73.7182
 31
0.0
  0
LINE
  8
0
 62
     0
 10
108.857
 20
73.7182
 30
0.0
 11
108.056
 21
73.7182
 31
0.0
  0
LINE
  8
0
 62
     0
 10
108.056
 20
73.7182
 30
0.0
 11
108.056
 21
74.7187
 31
0.0
  0
LINE
  8
0
 62
     0
 10
108.056
 20
74.7187
 30
0.0
 11
94.0566
 21
74.7187
 31
0.0
  0
LINE
  8
0
 62
     0
 10
113.107
 20
74.7187
 30
0.0
 11
113.107
 21
73.7182
 31
0.0
  0
LINE
  8
0
 62
     0
 10
113.107
 20
73.7182
 30
0.0
 11
112.308
 21
73.7182
 31
0.0
  0
LINE
  8
0
 62
     0
 10
112.308
 20
73.7182
 30
0.0
 11
112.308
 21
70.6191
 31
0.0
  0
LINE
  8
0
 62
     0
 10
112.308
 20
70.6191
 30
0.0
 11
113.107
 21
70.6191
 31
0.0
  0
LINE
  8
0
 62
     0
 10
113.107
 20
70.6191
 30
0.0
 11
113.107
 21
64.8187
 31
0.0
  0
LINE
  8
0
 62
     0
 10
113.107
 20
64.8187
 30
0.0
 11
112.308
 21
64.8187
 31
0.0
  0
LINE
  8
0
 62
     0
 10
112.308
 20
64.8187
 30
0.0
 11
112.308
 21
61.7181
 31
0.0
  0
LINE
  8
0
 62
     0
 10
112.308
 20
61.7181
 30
0.0
 11
113.107
 21
61.7181
 31
0.0
  0
LINE
  8
0
 62
     0
 10
113.107
 20
61.7181
 30
0.0
 11
113.107
 21
60.7191
 31
0.0
  0
LINE
  8
0
 62
     0
 10
113.107
 20
60.7191
 30
0.0
 11
127.106
 21
60.7191
 31
0.0
  0
LINE
  8
0
 62
     0
 10
127.106
 20
60.7191
 30
0.0
 11
127.106
 21
61.7181
 31
0.0
  0
LINE
  8
0
 62
     0
 10
127.106
 20
61.7181
 30
0.0
 11
127.907
 21
61.7181
 31
0.0
  0
LINE
  8
0
 62
     0
 10
127.907
 20
61.7181
 30
0.0
 11
127.907
 21
64.8187
 31
0.0
  0
LINE
  8
0
 62
     0
 10
127.907
 20
64.8187
 30
0.0
 11
127.106
 21
64.8187
 31
0.0
  0
LINE
  8
0
 62
     0
 10
127.106
 20
64.8187
 30
0.0
 11
127.106
 21
70.6191
 31
0.0
  0
LINE
  8
0
 62
     0
 10
127.106
 20
70.6191
 30
0.0
 11
127.907
 21
70.6191
 31
0.0
  0
LINE
  8
0
 62
     0
 10
127.907
 20
70.6191
 30
0.0
 11
127.907
 21
73.7182
 31
0.0
  0
LINE
  8
0
 62
     0
 10
127.907
 20
73.7182
 30
0.0
 11
127.106
 21
73.7182
 31
0.0
  0
LINE
  8
0
 62
     0
 10
127.106
 20
73.7182
 30
0.0
 11
127.106
 21
74.7187
 31
0.0
  0
LINE
  8
0
 62
     0
 10
127.106
 20
74.7187
 30
0.0
 11
113.107
 21
74.7187
 31
0.0
  0
LINE
  8
0
 62
     0
 10
134.538
 20
74.7187
 30
0.0
 11
134.538
 21
73.7182
 31
0.0
  0
LINE
  8
0
 62
     0
 10
134.538
 20
73.7182
 30
0.0
 11
133.737
 21
73.7182
 31
0.0
  0
LINE
  8
0
 62
     0
 10
133.737
 20
73.7182
 30
0.0
 11
133.737
 21
70.6191
 31
0.0
  0
LINE
  8
0
 62
     0
 10
133.737
 20
70.6191
 30
0.0
 11
134.538
 21
70.6191
 31
0.0
  0
LINE
  8
0
 62
     0
 10
134.538
 20
70.6191
 30
0.0
 11
134.538
 21
64.8187
 31
0.0
  0
LINE
  8
0
 62
     0
 10
134.538
 20
64.8187
 30
0.0
 11
133.737
 21
64.8187
 31
0.0
  0
LINE
  8
0
 62
     0
 10
133.737
 20
64.8187
 30
0.0
 11
133.737
 21
61.7181
 31
0.0
  0
LINE
  8
0
 62
     0
 10
133.737
 20
61.7181
 30
0.0
 11
134.538
 21
61.7181
 31
0.0
  0
LINE
  8
0
 62
     0
 10
134.538
 20
61.7181
 30
0.0
 11
134.538
 21
60.7191
 31
0.0
  0
LINE
  8
0
 62
     0
 10
134.538
 20
60.7191
 30
0.0
 11
148.537
 21
60.7191
 31
0.0
  0
LINE
  8
0
 62
     0
 10
148.537
 20
60.7191
 30
0.0
 11
148.537
 21
61.7181
 31
0.0
  0
LINE
  8
0
 62
     0
 10
148.537
 20
61.7181
 30
0.0
 11
149.338
 21
61.7181
 31
0.0
  0
LINE
  8
0
 62
     0
 10
149.338
 20
61.7181
 30
0.0
 11
149.338
 21
64.8187
 31
0.0
  0
LINE
  8
0
 62
     0
 10
149.338
 20
64.8187
 30
0.0
 11
148.537
 21
64.8187
 31
0.0
  0
LINE
  8
0
 62
     0
 10
148.537
 20
64.8187
 30
0.0
 11
148.537
 21
70.6191
 31
0.0
  0
LINE
  8
0
 62
     0
 10
148.537
 20
70.6191
 30
0.0
 11
149.338
 21
70.6191
 31
0.0
  0
LINE
  8
0
 62
     0
 10
149.338
 20
70.6191
 30
0.0
 11
149.338
 21
73.7182
 31
0.0
  0
LINE
  8
0
 62
     0
 10
149.338
 20
73.7182
 30
0.0
 11
148.537
 21
73.7182
 31
0.0
  0
LINE
  8
0
 62
     0
 10
148.537
 20
73.7182
 30
0.0
 11
148.537
 21
74.7187
 31
0.0
  0
LINE
  8
0
 62
     0
 10
148.537
 20
74.7187
 30
0.0
 11
134.538
 21
74.7187
 31
0.0
  0
LINE
  8
0
 62
     0
 10
27.3816
 20
93.7687
 30
0.0
 11
27.3816
 21
92.7682
 31
0.0
  0
LINE
  8
0
 62
     0
 10
27.3816
 20
92.7682
 30
0.0
 11
26.5824
 21
92.7682
 31
0.0
  0
LINE
  8
0
 62
     0
 10
26.5824
 20
92.7682
 30
0.0
 11
26.5824
 21
89.6691
 31
0.0
  0
LINE
  8
0
 62
     0
 10
26.5824
 20
89.6691
 30
0.0
 11
27.3816
 21
89.6691
 31
0.0
  0
LINE
  8
0
 62
     0
 10
27.3816
 20
89.6691
 30
0.0
 11
27.3816
 21
83.8687
 31
0.0
  0
LINE
  8
0
 62
     0
 10
27.3816
 20
83.8687
 30
0.0
 11
26.5824
 21
83.8687
 31
0.0
  0
LINE
  8
0
 62
     0
 10
26.5824
 20
83.8687
 30
0.0
 11
26.5824
 21
80.7681
 31
0.0
  0
LINE
  8
0
 62
     0
 10
26.5824
 20
80.7681
 30
0.0
 11
27.3816
 21
80.7681
 31
0.0
  0
LINE
  8
0
 62
     0
 10
27.3816
 20
80.7681
 30
0.0
 11
27.3816
 21
79.7691
 31
0.0
  0
LINE
  8
0
 62
     0
 10
27.3816
 20
79.7691
 30
0.0
 11
41.3812
 21
79.7691
 31
0.0
  0
LINE
  8
0
 62
     0
 10
41.3812
 20
79.7691
 30
0.0
 11
41.3812
 21
80.7681
 31
0.0
  0
LINE
  8
0
 62
     0
 10
41.3812
 20
80.7681
 30
0.0
 11
42.1816
 21
80.7681
 31
0.0
  0
LINE
  8
0
 62
     0
 10
42.1816
 20
80.7681
 30
0.0
 11
42.1816
 21
83.8687
 31
0.0
  0
LINE
  8
0
 62
     0
 10
42.1816
 20
83.8687
 30
0.0
 11
41.3812
 21
83.8687
 31
0.0
  0
LINE
  8
0
 62
     0
 10
41.3812
 20
83.8687
 30
0.0
 11
41.3812
 21
89.6691
 31
0.0
  0
LINE
  8
0
 62
     0
 10
41.3812
 20
89.6691
 30
0.0
 11
42.1816
 21
89.6691
 31
0.0
  0
LINE
  8
0
 62
     0
 10
42.1816
 20
89.6691
 30
0.0
 11
42.1816
 21
92.7682
 31
0.0
  0
LINE
  8
0
 62
     0
 10
42.1816
 20
92.7682
 30
0.0
 11
41.3812
 21
92.7682
 31
0.0
  0
LINE
  8
0
 62
     0
 10
41.3812
 20
92.7682
 30
0.0
 11
41.3812
 21
93.7687
 31
0.0
  0
LINE
  8
0
 62
     0
 10
41.3812
 20
93.7687
 30
0.0
 11
27.3816
 21
93.7687
 31
0.0
  0
LINE
  8
0
 62
     0
 10
51.1941
 20
93.7687
 30
0.0
 11
51.1941
 21
92.7682
 31
0.0
  0
LINE
  8
0
 62
     0
 10
51.1941
 20
92.7682
 30
0.0
 11
50.395
 21
92.7682
 31
0.0
  0
LINE
  8
0
 62
     0
 10
50.395
 20
92.7682
 30
0.0
 11
50.395
 21
89.6691
 31
0.0
  0
LINE
  8
0
 62
     0
 10
50.395
 20
89.6691
 30
0.0
 11
51.1941
 21
89.6691
 31
0.0
  0
LINE
  8
0
 62
     0
 10
51.1941
 20
89.6691
 30
0.0
 11
51.1941
 21
83.8687
 31
0.0
  0
LINE
  8
0
 62
     0
 10
51.1941
 20
83.8687
 30
0.0
 11
50.395
 21
83.8687
 31
0.0
  0
LINE
  8
0
 62
     0
 10
50.395
 20
83.8687
 30
0.0
 11
50.395
 21
80.7681
 31
0.0
  0
LINE
  8
0
 62
     0
 10
50.395
 20
80.7681
 30
0.0
 11
51.1941
 21
80.7681
 31
0.0
  0
LINE
  8
0
 62
     0
 10
51.1941
 20
80.7681
 30
0.0
 11
51.1941
 21
79.7691
 31
0.0
  0
LINE
  8
0
 62
     0
 10
51.1941
 20
79.7691
 30
0.0
 11
65.1951
 21
79.7691
 31
0.0
  0
LINE
  8
0
 62
     0
 10
65.1951
 20
79.7691
 30
0.0
 11
65.1951
 21
80.7681
 31
0.0
  0
LINE
  8
0
 62
     0
 10
65.1951
 20
80.7681
 30
0.0
 11
65.9941
 21
80.7681
 31
0.0
  0
LINE
  8
0
 62
     0
 10
65.9941
 20
80.7681
 30
0.0
 11
65.9941
 21
83.8687
 31
0.0
  0
LINE
  8
0
 62
     0
 10
65.9941
 20
83.8687
 30
0.0
 11
65.1951
 21
83.8687
 31
0.0
  0
LINE
  8
0
 62
     0
 10
65.1951
 20
83.8687
 30
0.0
 11
65.1951
 21
89.6691
 31
0.0
  0
LINE
  8
0
 62
     0
 10
65.1951
 20
89.6691
 30
0.0
 11
65.9941
 21
89.6691
 31
0.0
  0
LINE
  8
0
 62
     0
 10
65.9941
 20
89.6691
 30
0.0
 11
65.9941
 21
92.7682
 31
0.0
  0
LINE
  8
0
 62
     0
 10
65.9941
 20
92.7682
 30
0.0
 11
65.1951
 21
92.7682
 31
0.0
  0
LINE
  8
0
 62
     0
 10
65.1951
 20
92.7682
 30
0.0
 11
65.1951
 21
93.7687
 31
0.0
  0
LINE
  8
0
 62
     0
 10
65.1951
 20
93.7687
 30
0.0
 11
51.1941
 21
93.7687
 31
0.0
  0
LINE
  8
0
 62
     0
 10
70.2441
 20
93.7687
 30
0.0
 11
70.2441
 21
92.7682
 31
0.0
  0
LINE
  8
0
 62
     0
 10
70.2441
 20
92.7682
 30
0.0
 11
69.445
 21
92.7682
 31
0.0
  0
LINE
  8
0
 62
     0
 10
69.445
 20
92.7682
 30
0.0
 11
69.445
 21
89.6691
 31
0.0
  0
LINE
  8
0
 62
     0
 10
69.445
 20
89.6691
 30
0.0
 11
70.2441
 21
89.6691
 31
0.0
  0
LINE
  8
0
 62
     0
 10
70.2441
 20
89.6691
 30
0.0
 11
70.2441
 21
83.8687
 31
0.0
  0
LINE
  8
0
 62
     0
 10
70.2441
 20
83.8687
 30
0.0
 11
69.445
 21
83.8687
 31
0.0
  0
LINE
  8
0
 62
     0
 10
69.445
 20
83.8687
 30
0.0
 11
69.445
 21
80.7681
 31
0.0
  0
LINE
  8
0
 62
     0
 10
69.445
 20
80.7681
 30
0.0
 11
70.2441
 21
80.7681
 31
0.0
  0
LINE
  8
0
 62
     0
 10
70.2441
 20
80.7681
 30
0.0
 11
70.2441
 21
79.7691
 31
0.0
  0
LINE
  8
0
 62
     0
 10
70.2441
 20
79.7691
 30
0.0
 11
84.2451
 21
79.7691
 31
0.0
  0
LINE
  8
0
 62
     0
 10
84.2451
 20
79.7691
 30
0.0
 11
84.2451
 21
80.7681
 31
0.0
  0
LINE
  8
0
 62
     0
 10
84.2451
 20
80.7681
 30
0.0
 11
85.0441
 21
80.7681
 31
0.0
  0
LINE
  8
0
 62
     0
 10
85.0441
 20
80.7681
 30
0.0
 11
85.0441
 21
83.8687
 31
0.0
  0
LINE
  8
0
 62
     0
 10
85.0441
 20
83.8687
 30
0.0
 11
84.2451
 21
83.8687
 31
0.0
  0
LINE
  8
0
 62
     0
 10
84.2451
 20
83.8687
 30
0.0
 11
84.2451
 21
89.6691
 31
0.0
  0
LINE
  8
0
 62
     0
 10
84.2451
 20
89.6691
 30
0.0
 11
85.0441
 21
89.6691
 31
0.0
  0
LINE
  8
0
 62
     0
 10
85.0441
 20
89.6691
 30
0.0
 11
85.0441
 21
92.7682
 31
0.0
  0
LINE
  8
0
 62
     0
 10
85.0441
 20
92.7682
 30
0.0
 11
84.2451
 21
92.7682
 31
0.0
  0
LINE
  8
0
 62
     0
 10
84.2451
 20
92.7682
 30
0.0
 11
84.2451
 21
93.7687
 31
0.0
  0
LINE
  8
0
 62
     0
 10
84.2451
 20
93.7687
 30
0.0
 11
70.2441
 21
93.7687
 31
0.0
  0
LINE
  8
0
 62
     0
 10
89.2941
 20
93.7687
 30
0.0
 11
89.2941
 21
92.7682
 31
0.0
  0
LINE
  8
0
 62
     0
 10
89.2941
 20
92.7682
 30
0.0
 11
88.495
 21
92.7682
 31
0.0
  0
LINE
  8
0
 62
     0
 10
88.495
 20
92.7682
 30
0.0
 11
88.495
 21
89.6691
 31
0.0
  0
LINE
  8
0
 62
     0
 10
88.495
 20
89.6691
 30
0.0
 11
89.2941
 21
89.6691
 31
0.0
  0
LINE
  8
0
 62
     0
 10
89.2941
 20
89.6691
 30
0.0
 11
89.2941
 21
83.8687
 31
0.0
  0
LINE
  8
0
 62
     0
 10
89.2941
 20
83.8687
 30
0.0
 11
88.495
 21
83.8687
 31
0.0
  0
LINE
  8
0
 62
     0
 10
88.495
 20
83.8687
 30
0.0
 11
88.495
 21
80.7681
 31
0.0
  0
LINE
  8
0
 62
     0
 10
88.495
 20
80.7681
 30
0.0
 11
89.2941
 21
80.7681
 31
0.0
  0
LINE
  8
0
 62
     0
 10
89.2941
 20
80.7681
 30
0.0
 11
89.2941
 21
79.7691
 31
0.0
  0
LINE
  8
0
 62
     0
 10
89.2941
 20
79.7691
 30
0.0
 11
103.295
 21
79.7691
 31
0.0
  0
LINE
  8
0
 62
     0
 10
103.295
 20
79.7691
 30
0.0
 11
103.295
 21
80.7681
 31
0.0
  0
LINE
  8
0
 62
     0
 10
103.295
 20
80.7681
 30
0.0
 11
104.094
 21
80.7681
 31
0.0
  0
LINE
  8
0
 62
     0
 10
104.094
 20
80.7681
 30
0.0
 11
104.094
 21
83.8687
 31
0.0
  0
LINE
  8
0
 62
     0
 10
104.094
 20
83.8687
 30
0.0
 11
103.295
 21
83.8687
 31
0.0
  0
LINE
  8
0
 62
     0
 10
103.295
 20
83.8687
 30
0.0
 11
103.295
 21
89.6691
 31
0.0
  0
LINE
  8
0
 62
     0
 10
103.295
 20
89.6691
 30
0.0
 11
104.094
 21
89.6691
 31
0.0
  0
LINE
  8
0
 62
     0
 10
104.094
 20
89.6691
 30
0.0
 11
104.094
 21
92.7682
 31
0.0
  0
LINE
  8
0
 62
     0
 10
104.094
 20
92.7682
 30
0.0
 11
103.295
 21
92.7682
 31
0.0
  0
LINE
  8
0
 62
     0
 10
103.295
 20
92.7682
 30
0.0
 11
103.295
 21
93.7687
 31
0.0
  0
LINE
  8
0
 62
     0
 10
103.295
 20
93.7687
 30
0.0
 11
89.2941
 21
93.7687
 31
0.0
  0
LINE
  8
0
 62
     0
 10
108.344
 20
93.7687
 30
0.0
 11
108.344
 21
92.7682
 31
0.0
  0
LINE
  8
0
 62
     0
 10
108.344
 20
92.7682
 30
0.0
 11
107.545
 21
92.7682
 31
0.0
  0
LINE
  8
0
 62
     0
 10
107.545
 20
92.7682
 30
0.0
 11
107.545
 21
89.6691
 31
0.0
  0
LINE
  8
0
 62
     0
 10
107.545
 20
89.6691
 30
0.0
 11
108.344
 21
89.6691
 31
0.0
  0
LINE
  8
0
 62
     0
 10
108.344
 20
89.6691
 30
0.0
 11
108.344
 21
83.8687
 31
0.0
  0
LINE
  8
0
 62
     0
 10
108.344
 20
83.8687
 30
0.0
 11
107.545
 21
83.8687
 31
0.0
  0
LINE
  8
0
 62
     0
 10
107.545
 20
83.8687
 30
0.0
 11
107.545
 21
80.7681
 31
0.0
  0
LINE
  8
0
 62
     0
 10
107.545
 20
80.7681
 30
0.0
 11
108.344
 21
80.7681
 31
0.0
  0
LINE
  8
0
 62
     0
 10
108.344
 20
80.7681
 30
0.0
 11
108.344
 21
79.7691
 31
0.0
  0
LINE
  8
0
 62
     0
 10
108.344
 20
79.7691
 30
0.0
 11
122.345
 21
79.7691
 31
0.0
  0
LINE
  8
0
 62
     0
 10
122.345
 20
79.7691
 30
0.0
 11
122.345
 21
80.7681
 31
0.0
  0
LINE
  8
0
 62
     0
 10
122.345
 20
80.7681
 30
0.0
 11
123.144
 21
80.7681
 31
0.0
  0
LINE
  8
0
 62
     0
 10
123.144
 20
80.7681
 30
0.0
 11
123.144
 21
83.8687
 31
0.0
  0
LINE
  8
0
 62
     0
 10
123.144
 20
83.8687
 30
0.0
 11
122.345
 21
83.8687
 31
0.0
  0
LINE
  8
0
 62
     0
 10
122.345
 20
83.8687
 30
0.0
 11
122.345
 21
89.6691
 31
0.0
  0
LINE
  8
0
 62
     0
 10
122.345
 20
89.6691
 30
0.0
 11
123.144
 21
89.6691
 31
0.0
  0
LINE
  8
0
 62
     0
 10
123.144
 20
89.6691
 30
0.0
 11
123.144
 21
92.7682
 31
0.0
  0
LINE
  8
0
 62
     0
 10
123.144
 20
92.7682
 30
0.0
 11
122.345
 21
92.7682
 31
0.0
  0
LINE
  8
0
 62
     0
 10
122.345
 20
92.7682
 30
0.0
 11
122.345
 21
93.7687
 31
0.0
  0
LINE
  8
0
 62
     0
 10
122.345
 20
93.7687
 30
0.0
 11
108.344
 21
93.7687
 31
0.0
  0
LINE
  8
0
 62
     0
 10
132.157
 20
93.7687
 30
0.0
 11
132.157
 21
92.7682
 31
0.0
  0
LINE
  8
0
 62
     0
 10
132.157
 20
92.7682
 30
0.0
 11
131.358
 21
92.7682
 31
0.0
  0
LINE
  8
0
 62
     0
 10
131.358
 20
92.7682
 30
0.0
 11
131.358
 21
89.6691
 31
0.0
  0
LINE
  8
0
 62
     0
 10
131.358
 20
89.6691
 30
0.0
 11
132.157
 21
89.6691
 31
0.0
  0
LINE
  8
0
 62
     0
 10
132.157
 20
89.6691
 30
0.0
 11
132.157
 21
83.8687
 31
0.0
  0
LINE
  8
0
 62
     0
 10
132.157
 20
83.8687
 30
0.0
 11
131.358
 21
83.8687
 31
0.0
  0
LINE
  8
0
 62
     0
 10
131.358
 20
83.8687
 30
0.0
 11
131.358
 21
80.7681
 31
0.0
  0
LINE
  8
0
 62
     0
 10
131.358
 20
80.7681
 30
0.0
 11
132.157
 21
80.7681
 31
0.0
  0
LINE
  8
0
 62
     0
 10
132.157
 20
80.7681
 30
0.0
 11
132.157
 21
79.7691
 31
0.0
  0
LINE
  8
0
 62
     0
 10
132.157
 20
79.7691
 30
0.0
 11
146.156
 21
79.7691
 31
0.0
  0
LINE
  8
0
 62
     0
 10
146.156
 20
79.7691
 30
0.0
 11
146.156
 21
80.7681
 31
0.0
  0
LINE
  8
0
 62
     0
 10
146.156
 20
80.7681
 30
0.0
 11
146.957
 21
80.7681
 31
0.0
  0
LINE
  8
0
 62
     0
 10
146.957
 20
80.7681
 30
0.0
 11
146.957
 21
83.8687
 31
0.0
  0
LINE
  8
0
 62
     0
 10
146.957
 20
83.8687
 30
0.0
 11
146.156
 21
83.8687
 31
0.0
  0
LINE
  8
0
 62
     0
 10
146.156
 20
83.8687
 30
0.0
 11
146.156
 21
89.6691
 31
0.0
  0
LINE
  8
0
 62
     0
 10
146.156
 20
89.6691
 30
0.0
 11
146.957
 21
89.6691
 31
0.0
  0
LINE
  8
0
 62
     0
 10
146.957
 20
89.6691
 30
0.0
 11
146.957
 21
92.7682
 31
0.0
  0
LINE
  8
0
 62
     0
 10
146.957
 20
92.7682
 30
0.0
 11
146.156
 21
92.7682
 31
0.0
  0
LINE
  8
0
 62
     0
 10
146.156
 20
92.7682
 30
0.0
 11
146.156
 21
93.7687
 31
0.0
  0
LINE
  8
0
 62
     0
 10
146.156
 20
93.7687
 30
0.0
 11
132.157
 21
93.7687
 31
0.0
  0
LINE
  8
0
 62
     0
 10
22.6191
 20
112.819
 30
0.0
 11
22.6191
 21
111.818
 31
0.0
  0
LINE
  8
0
 62
     0
 10
22.6191
 20
111.818
 30
0.0
 11
21.8185
 21
111.818
 31
0.0
  0
LINE
  8
0
 62
     0
 10
21.8185
 20
111.818
 30
0.0
 11
21.8185
 21
108.719
 31
0.0
  0
LINE
  8
0
 62
     0
 10
21.8185
 20
108.719
 30
0.0
 11
22.6191
 21
108.719
 31
0.0
  0
LINE
  8
0
 62
     0
 10
22.6191
 20
108.719
 30
0.0
 11
22.6191
 21
102.919
 31
0.0
  0
LINE
  8
0
 62
     0
 10
22.6191
 20
102.919
 30
0.0
 11
21.8185
 21
102.919
 31
0.0
  0
LINE
  8
0
 62
     0
 10
21.8185
 20
102.919
 30
0.0
 11
21.8185
 21
99.8181
 31
0.0
  0
LINE
  8
0
 62
     0
 10
21.8185
 20
99.8181
 30
0.0
 11
22.6191
 21
99.8181
 31
0.0
  0
LINE
  8
0
 62
     0
 10
22.6191
 20
99.8181
 30
0.0
 11
22.6191
 21
98.8191
 31
0.0
  0
LINE
  8
0
 62
     0
 10
22.6191
 20
98.8191
 30
0.0
 11
36.6201
 21
98.8191
 31
0.0
  0
LINE
  8
0
 62
     0
 10
36.6201
 20
98.8191
 30
0.0
 11
36.6201
 21
99.8181
 31
0.0
  0
LINE
  8
0
 62
     0
 10
36.6201
 20
99.8181
 30
0.0
 11
37.4191
 21
99.8181
 31
0.0
  0
LINE
  8
0
 62
     0
 10
37.4191
 20
99.8181
 30
0.0
 11
37.4191
 21
102.919
 31
0.0
  0
LINE
  8
0
 62
     0
 10
37.4191
 20
102.919
 30
0.0
 11
36.6201
 21
102.919
 31
0.0
  0
LINE
  8
0
 62
     0
 10
36.6201
 20
102.919
 30
0.0
 11
36.6201
 21
108.719
 31
0.0
  0
LINE
  8
0
 62
     0
 10
36.6201
 20
108.719
 30
0.0
 11
37.4191
 21
108.719
 31
0.0
  0
LINE
  8
0
 62
     0
 10
37.4191
 20
108.719
 30
0.0
 11
37.4191
 21
111.818
 31
0.0
  0
LINE
  8
0
 62
     0
 10
37.4191
 20
111.818
 30
0.0
 11
36.6201
 21
111.818
 31
0.0
  0
LINE
  8
0
 62
     0
 10
36.6201
 20
111.818
 30
0.0
 11
36.6201
 21
112.819
 31
0.0
  0
LINE
  8
0
 62
     0
 10
36.6201
 20
112.819
 30
0.0
 11
22.6191
 21
112.819
 31
0.0
  0
LINE
  8
0
 62
     0
 10
41.6691
 20
112.819
 30
0.0
 11
41.6691
 21
111.818
 31
0.0
  0
LINE
  8
0
 62
     0
 10
41.6691
 20
111.818
 30
0.0
 11
40.87
 21
111.818
 31
0.0
  0
LINE
  8
0
 62
     0
 10
40.87
 20
111.818
 30
0.0
 11
40.87
 21
108.719
 31
0.0
  0
LINE
  8
0
 62
     0
 10
40.87
 20
108.719
 30
0.0
 11
41.6691
 21
108.719
 31
0.0
  0
LINE
  8
0
 62
     0
 10
41.6691
 20
108.719
 30
0.0
 11
41.6691
 21
102.919
 31
0.0
  0
LINE
  8
0
 62
     0
 10
41.6691
 20
102.919
 30
0.0
 11
40.87
 21
102.919
 31
0.0
  0
LINE
  8
0
 62
     0
 10
40.87
 20
102.919
 30
0.0
 11
40.87
 21
99.8181
 31
0.0
  0
LINE
  8
0
 62
     0
 10
40.87
 20
99.8181
 30
0.0
 11
41.6691
 21
99.8181
 31
0.0
  0
LINE
  8
0
 62
     0
 10
41.6691
 20
99.8181
 30
0.0
 11
41.6691
 21
98.8191
 31
0.0
  0
LINE
  8
0
 62
     0
 10
41.6691
 20
98.8191
 30
0.0
 11
55.6701
 21
98.8191
 31
0.0
  0
LINE
  8
0
 62
     0
 10
55.6701
 20
98.8191
 30
0.0
 11
55.6701
 21
99.8181
 31
0.0
  0
LINE
  8
0
 62
     0
 10
55.6701
 20
99.8181
 30
0.0
 11
56.4691
 21
99.8181
 31
0.0
  0
LINE
  8
0
 62
     0
 10
56.4691
 20
99.8181
 30
0.0
 11
56.4691
 21
102.919
 31
0.0
  0
LINE
  8
0
 62
     0
 10
56.4691
 20
102.919
 30
0.0
 11
55.6701
 21
102.919
 31
0.0
  0
LINE
  8
0
 62
     0
 10
55.6701
 20
102.919
 30
0.0
 11
55.6701
 21
108.719
 31
0.0
  0
LINE
  8
0
 62
     0
 10
55.6701
 20
108.719
 30
0.0
 11
56.4691
 21
108.719
 31
0.0
  0
LINE
  8
0
 62
     0
 10
56.4691
 20
108.719
 30
0.0
 11
56.4691
 21
111.818
 31
0.0
  0
LINE
  8
0
 62
     0
 10
56.4691
 20
111.818
 30
0.0
 11
55.6701
 21
111.818
 31
0.0
  0
LINE
  8
0
 62
     0
 10
55.6701
 20
111.818
 30
0.0
 11
55.6701
 21
112.819
 31
0.0
  0
LINE
  8
0
 62
     0
 10
55.6701
 20
112.819
 30
0.0
 11
41.6691
 21
112.819
 31
0.0
  0
LINE
  8
0
 62
     0
 10
60.7191
 20
112.819
 30
0.0
 11
60.7191
 21
111.818
 31
0.0
  0
LINE
  8
0
 62
     0
 10
60.7191
 20
111.818
 30
0.0
 11
59.92
 21
111.818
 31
0.0
  0
LINE
  8
0
 62
     0
 10
59.92
 20
111.818
 30
0.0
 11
59.92
 21
108.719
 31
0.0
  0
LINE
  8
0
 62
     0
 10
59.92
 20
108.719
 30
0.0
 11
60.7191
 21
108.719
 31
0.0
  0
LINE
  8
0
 62
     0
 10
60.7191
 20
108.719
 30
0.0
 11
60.7191
 21
102.919
 31
0.0
  0
LINE
  8
0
 62
     0
 10
60.7191
 20
102.919
 30
0.0
 11
59.92
 21
102.919
 31
0.0
  0
LINE
  8
0
 62
     0
 10
59.92
 20
102.919
 30
0.0
 11
59.92
 21
99.8181
 31
0.0
  0
LINE
  8
0
 62
     0
 10
59.92
 20
99.8181
 30
0.0
 11
60.7191
 21
99.8181
 31
0.0
  0
LINE
  8
0
 62
     0
 10
60.7191
 20
99.8181
 30
0.0
 11
60.7191
 21
98.8191
 31
0.0
  0
LINE
  8
0
 62
     0
 10
60.7191
 20
98.8191
 30
0.0
 11
74.7201
 21
98.8191
 31
0.0
  0
LINE
  8
0
 62
     0
 10
74.7201
 20
98.8191
 30
0.0
 11
74.7201
 21
99.8181
 31
0.0
  0
LINE
  8
0
 62
     0
 10
74.7201
 20
99.8181
 30
0.0
 11
75.5191
 21
99.8181
 31
0.0
  0
LINE
  8
0
 62
     0
 10
75.5191
 20
99.8181
 30
0.0
 11
75.5191
 21
102.919
 31
0.0
  0
LINE
  8
0
 62
     0
 10
75.5191
 20
102.919
 30
0.0
 11
74.7201
 21
102.919
 31
0.0
  0
LINE
  8
0
 62
     0
 10
74.7201
 20
102.919
 30
0.0
 11
74.7201
 21
108.719
 31
0.0
  0
LINE
  8
0
 62
     0
 10
74.7201
 20
108.719
 30
0.0
 11
75.5191
 21
108.719
 31
0.0
  0
LINE
  8
0
 62
     0
 10
75.5191
 20
108.719
 30
0.0
 11
75.5191
 21
111.818
 31
0.0
  0
LINE
  8
0
 62
     0
 10
75.5191
 20
111.818
 30
0.0
 11
74.7201
 21
111.818
 31
0.0
  0
LINE
  8
0
 62
     0
 10
74.7201
 20
111.818
 30
0.0
 11
74.7201
 21
112.819
 31
0.0
  0
LINE
  8
0
 62
     0
 10
74.7201
 20
112.819
 30
0.0
 11
60.7191
 21
112.819
 31
0.0
  0
LINE
  8
0
 62
     0
 10
79.7691
 20
112.819
 30
0.0
 11
79.7691
 21
111.818
 31
0.0
  0
LINE
  8
0
 62
     0
 10
79.7691
 20
111.818
 30
0.0
 11
78.97
 21
111.818
 31
0.0
  0
LINE
  8
0
 62
     0
 10
78.97
 20
111.818
 30
0.0
 11
78.97
 21
108.719
 31
0.0
  0
LINE
  8
0
 62
     0
 10
78.97
 20
108.719
 30
0.0
 11
79.7691
 21
108.719
 31
0.0
  0
LINE
  8
0
 62
     0
 10
79.7691
 20
108.719
 30
0.0
 11
79.7691
 21
102.919
 31
0.0
  0
LINE
  8
0
 62
     0
 10
79.7691
 20
102.919
 30
0.0
 11
78.97
 21
102.919
 31
0.0
  0
LINE
  8
0
 62
     0
 10
78.97
 20
102.919
 30
0.0
 11
78.97
 21
99.8181
 31
0.0
  0
LINE
  8
0
 62
     0
 10
78.97
 20
99.8181
 30
0.0
 11
79.7691
 21
99.8181
 31
0.0
  0
LINE
  8
0
 62
     0
 10
79.7691
 20
99.8181
 30
0.0
 11
79.7691
 21
98.8191
 31
0.0
  0
LINE
  8
0
 62
     0
 10
79.7691
 20
98.8191
 30
0.0
 11
93.7701
 21
98.8191
 31
0.0
  0
LINE
  8
0
 62
     0
 10
93.7701
 20
98.8191
 30
0.0
 11
93.7701
 21
99.8181
 31
0.0
  0
LINE
  8
0
 62
     0
 10
93.7701
 20
99.8181
 30
0.0
 11
94.5691
 21
99.8181
 31
0.0
  0
LINE
  8
0
 62
     0
 10
94.5691
 20
99.8181
 30
0.0
 11
94.5691
 21
102.919
 31
0.0
  0
LINE
  8
0
 62
     0
 10
94.5691
 20
102.919
 30
0.0
 11
93.7701
 21
102.919
 31
0.0
  0
LINE
  8
0
 62
     0
 10
93.7701
 20
102.919
 30
0.0
 11
93.7701
 21
108.719
 31
0.0
  0
LINE
  8
0
 62
     0
 10
93.7701
 20
108.719
 30
0.0
 11
94.5691
 21
108.719
 31
0.0
  0
LINE
  8
0
 62
     0
 10
94.5691
 20
108.719
 30
0.0
 11
94.5691
 21
111.818
 31
0.0
  0
LINE
  8
0
 62
     0
 10
94.5691
 20
111.818
 30
0.0
 11
93.7701
 21
111.818
 31
0.0
  0
LINE
  8
0
 62
     0
 10
93.7701
 20
111.818
 30
0.0
 11
93.7701
 21
112.819
 31
0.0
  0
LINE
  8
0
 62
     0
 10
93.7701
 20
112.819
 30
0.0
 11
79.7691
 21
112.819
 31
0.0
  0
LINE
  8
0
 62
     0
 10
98.8191
 20
112.819
 30
0.0
 11
98.8191
 21
111.818
 31
0.0
  0
LINE
  8
0
 62
     0
 10
98.8191
 20
111.818
 30
0.0
 11
98.02
 21
111.818
 31
0.0
  0
LINE
  8
0
 62
     0
 10
98.02
 20
111.818
 30
0.0
 11
98.02
 21
108.719
 31
0.0
  0
LINE
  8
0
 62
     0
 10
98.02
 20
108.719
 30
0.0
 11
98.8191
 21
108.719
 31
0.0
  0
LINE
  8
0
 62
     0
 10
98.8191
 20
108.719
 30
0.0
 11
98.8191
 21
102.919
 31
0.0
  0
LINE
  8
0
 62
     0
 10
98.8191
 20
102.919
 30
0.0
 11
98.02
 21
102.919
 31
0.0
  0
LINE
  8
0
 62
     0
 10
98.02
 20
102.919
 30
0.0
 11
98.02
 21
99.8181
 31
0.0
  0
LINE
  8
0
 62
     0
 10
98.02
 20
99.8181
 30
0.0
 11
98.8191
 21
99.8181
 31
0.0
  0
LINE
  8
0
 62
     0
 10
98.8191
 20
99.8181
 30
0.0
 11
98.8191
 21
98.8191
 31
0.0
  0
LINE
  8
0
 62
     0
 10
98.8191
 20
98.8191
 30
0.0
 11
112.82
 21
98.8191
 31
0.0
  0
LINE
  8
0
 62
     0
 10
112.82
 20
98.8191
 30
0.0
 11
112.82
 21
99.8181
 31
0.0
  0
LINE
  8
0
 62
     0
 10
112.82
 20
99.8181
 30
0.0
 11
113.619
 21
99.8181
 31
0.0
  0
LINE
  8
0
 62
     0
 10
113.619
 20
99.8181
 30
0.0
 11
113.619
 21
102.919
 31
0.0
  0
LINE
  8
0
 62
     0
 10
113.619
 20
102.919
 30
0.0
 11
112.82
 21
102.919
 31
0.0
  0
LINE
  8
0
 62
     0
 10
112.82
 20
102.919
 30
0.0
 11
112.82
 21
108.719
 31
0.0
  0
LINE
  8
0
 62
     0
 10
112.82
 20
108.719
 30
0.0
 11
113.619
 21
108.719
 31
0.0
  0
LINE
  8
0
 62
     0
 10
113.619
 20
108.719
 30
0.0
 11
113.619
 21
111.818
 31
0.0
  0
LINE
  8
0
 62
     0
 10
113.619
 20
111.818
 30
0.0
 11
112.82
 21
111.818
 31
0.0
  0
LINE
  8
0
 62
     0
 10
112.82
 20
111.818
 30
0.0
 11
112.82
 21
112.819
 31
0.0
  0
LINE
  8
0
 62
     0
 10
112.82
 20
112.819
 30
0.0
 11
98.8191
 21
112.819
 31
0.0
  0
LINE
  8
0
 62
     0
 10
117.869
 20
112.819
 30
0.0
 11
117.869
 21
111.818
 31
0.0
  0
LINE
  8
0
 62
     0
 10
117.869
 20
111.818
 30
0.0
 11
117.07
 21
111.818
 31
0.0
  0
LINE
  8
0
 62
     0
 10
117.07
 20
111.818
 30
0.0
 11
117.07
 21
108.719
 31
0.0
  0
LINE
  8
0
 62
     0
 10
117.07
 20
108.719
 30
0.0
 11
117.869
 21
108.719
 31
0.0
  0
LINE
  8
0
 62
     0
 10
117.869
 20
108.719
 30
0.0
 11
117.869
 21
102.919
 31
0.0
  0
LINE
  8
0
 62
     0
 10
117.869
 20
102.919
 30
0.0
 11
117.07
 21
102.919
 31
0.0
  0
LINE
  8
0
 62
     0
 10
117.07
 20
102.919
 30
0.0
 11
117.07
 21
99.8181
 31
0.0
  0
LINE
  8
0
 62
     0
 10
117.07
 20
99.8181
 30
0.0
 11
117.869
 21
99.8181
 31
0.0
  0
LINE
  8
0
 62
     0
 10
117.869
 20
99.8181
 30
0.0
 11
117.869
 21
98.8191
 31
0.0
  0
LINE
  8
0
 62
     0
 10
117.869
 20
98.8191
 30
0.0
 11
131.87
 21
98.8191
 31
0.0
  0
LINE
  8
0
 62
     0
 10
131.87
 20
98.8191
 30
0.0
 11
131.87
 21
99.8181
 31
0.0
  0
LINE
  8
0
 62
     0
 10
131.87
 20
99.8181
 30
0.0
 11
132.669
 21
99.8181
 31
0.0
  0
LINE
  8
0
 62
     0
 10
132.669
 20
99.8181
 30
0.0
 11
132.669
 21
102.919
 31
0.0
  0
LINE
  8
0
 62
     0
 10
132.669
 20
102.919
 30
0.0
 11
131.87
 21
102.919
 31
0.0
  0
LINE
  8
0
 62
     0
 10
131.87
 20
102.919
 30
0.0
 11
131.87
 21
108.719
 31
0.0
  0
LINE
  8
0
 62
     0
 10
131.87
 20
108.719
 30
0.0
 11
132.669
 21
108.719
 31
0.0
  0
LINE
  8
0
 62
     0
 10
132.669
 20
108.719
 30
0.0
 11
132.669
 21
111.818
 31
0.0
  0
LINE
  8
0
 62
     0
 10
132.669
 20
111.818
 30
0.0
 11
131.87
 21
111.818
 31
0.0
  0
LINE
  8
0
 62
     0
 10
131.87
 20
111.818
 30
0.0
 11
131.87
 21
112.819
 31
0.0
  0
LINE
  8
0
 62
     0
 10
131.87
 20
112.819
 30
0.0
 11
117.869
 21
112.819
 31
0.0
  0
LINE
  8
0
 62
     0
 10
136.919
 20
112.819
 30
0.0
 11
136.919
 21
111.818
 31
0.0
  0
LINE
  8
0
 62
     0
 10
136.919
 20
111.818
 30
0.0
 11
136.12
 21
111.818
 31
0.0
  0
LINE
  8
0
 62
     0
 10
136.12
 20
111.818
 30
0.0
 11
136.12
 21
108.719
 31
0.0
  0
LINE
  8
0
 62
     0
 10
136.12
 20
108.719
 30
0.0
 11
136.919
 21
108.719
 31
0.0
  0
LINE
  8
0
 62
     0
 10
136.919
 20
108.719
 30
0.0
 11
136.919
 21
102.919
 31
0.0
  0
LINE
  8
0
 62
     0
 10
136.919
 20
102.919
 30
0.0
 11
136.12
 21
102.919
 31
0.0
  0
LINE
  8
0
 62
     0
 10
136.12
 20
102.919
 30
0.0
 11
136.12
 21
99.8181
 31
0.0
  0
LINE
  8
0
 62
     0
 10
136.12
 20
99.8181
 30
0.0
 11
136.919
 21
99.8181
 31
0.0
  0
LINE
  8
0
 62
     0
 10
136.919
 20
99.8181
 30
0.0
 11
136.919
 21
98.8191
 31
0.0
  0
LINE
  8
0
 62
     0
 10
136.919
 20
98.8191
 30
0.0
 11
150.92
 21
98.8191
 31
0.0
  0
LINE
  8
0
 62
     0
 10
150.92
 20
98.8191
 30
0.0
 11
150.92
 21
99.8181
 31
0.0
  0
LINE
  8
0
 62
     0
 10
150.92
 20
99.8181
 30
0.0
 11
151.719
 21
99.8181
 31
0.0
  0
LINE
  8
0
 62
     0
 10
151.719
 20
99.8181
 30
0.0
 11
151.719
 21
102.919
 31
0.0
  0
LINE
  8
0
 62
     0
 10
151.719
 20
102.919
 30
0.0
 11
150.92
 21
102.919
 31
0.0
  0
LINE
  8
0
 62
     0
 10
150.92
 20
102.919
 30
0.0
 11
150.92
 21
108.719
 31
0.0
  0
LINE
  8
0
 62
     0
 10
150.92
 20
108.719
 30
0.0
 11
151.719
 21
108.719
 31
0.0
  0
LINE
  8
0
 62
     0
 10
151.719
 20
108.719
 30
0.0
 11
151.719
 21
111.818
 31
0.0
  0
LINE
  8
0
 62
     0
 10
151.719
 20
111.818
 30
0.0
 11
150.92
 21
111.818
 31
0.0
  0
LINE
  8
0
 62
     0
 10
150.92
 20
111.818
 30
0.0
 11
150.92
 21
112.819
 31
0.0
  0
LINE
  8
0
 62
     0
 10
150.92
 20
112.819
 30
0.0
 11
136.919
 21
112.819
 31
0.0
  0
LINE
  8
0
 62
     0
 10
39.2878
 20
136.631
 30
0.0
 11
39.2878
 21
135.631
 31
0.0
  0
LINE
  8
0
 62
     0
 10
39.2878
 20
135.631
 30
0.0
 11
38.4873
 21
135.631
 31
0.0
  0
LINE
  8
0
 62
     0
 10
38.4873
 20
135.631
 30
0.0
 11
38.4873
 21
132.53
 31
0.0
  0
LINE
  8
0
 62
     0
 10
38.4873
 20
132.53
 30
0.0
 11
39.2878
 21
132.53
 31
0.0
  0
LINE
  8
0
 62
     0
 10
39.2878
 20
132.53
 30
0.0
 11
39.2878
 21
126.73
 31
0.0
  0
LINE
  8
0
 62
     0
 10
39.2878
 20
126.73
 30
0.0
 11
38.4873
 21
126.73
 31
0.0
  0
LINE
  8
0
 62
     0
 10
38.4873
 20
126.73
 30
0.0
 11
38.4873
 21
123.631
 31
0.0
  0
LINE
  8
0
 62
     0
 10
38.4873
 20
123.631
 30
0.0
 11
39.2878
 21
123.631
 31
0.0
  0
LINE
  8
0
 62
     0
 10
39.2878
 20
123.631
 30
0.0
 11
39.2878
 21
122.63
 31
0.0
  0
LINE
  8
0
 62
     0
 10
39.2878
 20
122.63
 30
0.0
 11
53.2874
 21
122.63
 31
0.0
  0
LINE
  8
0
 62
     0
 10
53.2874
 20
122.63
 30
0.0
 11
53.2874
 21
123.631
 31
0.0
  0
LINE
  8
0
 62
     0
 10
53.2874
 20
123.631
 30
0.0
 11
54.0879
 21
123.631
 31
0.0
  0
LINE
  8
0
 62
     0
 10
54.0879
 20
123.631
 30
0.0
 11
54.0879
 21
126.73
 31
0.0
  0
LINE
  8
0
 62
     0
 10
54.0879
 20
126.73
 30
0.0
 11
53.2874
 21
126.73
 31
0.0
  0
LINE
  8
0
 62
     0
 10
53.2874
 20
126.73
 30
0.0
 11
53.2874
 21
132.53
 31
0.0
  0
LINE
  8
0
 62
     0
 10
53.2874
 20
132.53
 30
0.0
 11
54.0879
 21
132.53
 31
0.0
  0
LINE
  8
0
 62
     0
 10
54.0879
 20
132.53
 30
0.0
 11
54.0879
 21
135.631
 31
0.0
  0
LINE
  8
0
 62
     0
 10
54.0879
 20
135.631
 30
0.0
 11
53.2874
 21
135.631
 31
0.0
  0
LINE
  8
0
 62
     0
 10
53.2874
 20
135.631
 30
0.0
 11
53.2874
 21
136.631
 31
0.0
  0
LINE
  8
0
 62
     0
 10
53.2874
 20
136.631
 30
0.0
 11
39.2878
 21
136.631
 31
0.0
  0
LINE
  8
0
 62
     0
 10
75.0066
 20
136.631
 30
0.0
 11
75.0066
 21
135.631
 31
0.0
  0
LINE
  8
0
 62
     0
 10
75.0066
 20
135.631
 30
0.0
 11
74.2075
 21
135.631
 31
0.0
  0
LINE
  8
0
 62
     0
 10
74.2075
 20
135.631
 30
0.0
 11
74.2075
 21
132.53
 31
0.0
  0
LINE
  8
0
 62
     0
 10
74.2075
 20
132.53
 30
0.0
 11
75.0066
 21
132.53
 31
0.0
  0
LINE
  8
0
 62
     0
 10
75.0066
 20
132.53
 30
0.0
 11
75.0066
 21
126.73
 31
0.0
  0
LINE
  8
0
 62
     0
 10
75.0066
 20
126.73
 30
0.0
 11
74.2075
 21
126.73
 31
0.0
  0
LINE
  8
0
 62
     0
 10
74.2075
 20
126.73
 30
0.0
 11
74.2075
 21
123.631
 31
0.0
  0
LINE
  8
0
 62
     0
 10
74.2075
 20
123.631
 30
0.0
 11
75.0066
 21
123.631
 31
0.0
  0
LINE
  8
0
 62
     0
 10
75.0066
 20
123.631
 30
0.0
 11
75.0066
 21
122.63
 31
0.0
  0
LINE
  8
0
 62
     0
 10
75.0066
 20
122.63
 30
0.0
 11
89.0062
 21
122.63
 31
0.0
  0
LINE
  8
0
 62
     0
 10
89.0062
 20
122.63
 30
0.0
 11
89.0062
 21
123.631
 31
0.0
  0
LINE
  8
0
 62
     0
 10
89.0062
 20
123.631
 30
0.0
 11
89.8066
 21
123.631
 31
0.0
  0
LINE
  8
0
 62
     0
 10
89.8066
 20
123.631
 30
0.0
 11
89.8066
 21
126.73
 31
0.0
  0
LINE
  8
0
 62
     0
 10
89.8066
 20
126.73
 30
0.0
 11
89.0062
 21
126.73
 31
0.0
  0
LINE
  8
0
 62
     0
 10
89.0062
 20
126.73
 30
0.0
 11
89.0062
 21
132.53
 31
0.0
  0
LINE
  8
0
 62
     0
 10
89.0062
 20
132.53
 30
0.0
 11
89.8066
 21
132.53
 31
0.0
  0
LINE
  8
0
 62
     0
 10
89.8066
 20
132.53
 30
0.0
 11
89.8066
 21
135.631
 31
0.0
  0
LINE
  8
0
 62
     0
 10
89.8066
 20
135.631
 30
0.0
 11
89.0062
 21
135.631
 31
0.0
  0
LINE
  8
0
 62
     0
 10
89.0062
 20
135.631
 30
0.0
 11
89.0062
 21
136.631
 31
0.0
  0
LINE
  8
0
 62
     0
 10
89.0062
 20
136.631
 30
0.0
 11
75.0066
 21
136.631
 31
0.0
  0
LINE
  8
0
 62
     0
 10
94.0566
 20
136.631
 30
0.0
 11
94.0566
 21
135.631
 31
0.0
  0
LINE
  8
0
 62
     0
 10
94.0566
 20
135.631
 30
0.0
 11
93.2575
 21
135.631
 31
0.0
  0
LINE
  8
0
 62
     0
 10
93.2575
 20
135.631
 30
0.0
 11
93.2575
 21
132.53
 31
0.0
  0
LINE
  8
0
 62
     0
 10
93.2575
 20
132.53
 30
0.0
 11
94.0566
 21
132.53
 31
0.0
  0
LINE
  8
0
 62
     0
 10
94.0566
 20
132.53
 30
0.0
 11
94.0566
 21
126.73
 31
0.0
  0
LINE
  8
0
 62
     0
 10
94.0566
 20
126.73
 30
0.0
 11
93.2575
 21
126.73
 31
0.0
  0
LINE
  8
0
 62
     0
 10
93.2575
 20
126.73
 30
0.0
 11
93.2575
 21
123.631
 31
0.0
  0
LINE
  8
0
 62
     0
 10
93.2575
 20
123.631
 30
0.0
 11
94.0566
 21
123.631
 31
0.0
  0
LINE
  8
0
 62
     0
 10
94.0566
 20
123.631
 30
0.0
 11
94.0566
 21
122.63
 31
0.0
  0
LINE
  8
0
 62
     0
 10
94.0566
 20
122.63
 30
0.0
 11
108.056
 21
122.63
 31
0.0
  0
LINE
  8
0
 62
     0
 10
108.056
 20
122.63
 30
0.0
 11
108.056
 21
123.631
 31
0.0
  0
LINE
  8
0
 62
     0
 10
108.056
 20
123.631
 30
0.0
 11
108.857
 21
123.631
 31
0.0
  0
LINE
  8
0
 62
     0
 10
108.857
 20
123.631
 30
0.0
 11
108.857
 21
126.73
 31
0.0
  0
LINE
  8
0
 62
     0
 10
108.857
 20
126.73
 30
0.0
 11
108.056
 21
126.73
 31
0.0
  0
LINE
  8
0
 62
     0
 10
108.056
 20
126.73
 30
0.0
 11
108.056
 21
132.53
 31
0.0
  0
LINE
  8
0
 62
     0
 10
108.056
 20
132.53
 30
0.0
 11
108.857
 21
132.53
 31
0.0
  0
LINE
  8
0
 62
     0
 10
108.857
 20
132.53
 30
0.0
 11
108.857
 21
135.631
 31
0.0
  0
LINE
  8
0
 62
     0
 10
108.857
 20
135.631
 30
0.0
 11
108.056
 21
135.631
 31
0.0
  0
LINE
  8
0
 62
     0
 10
108.056
 20
135.631
 30
0.0
 11
108.056
 21
136.631
 31
0.0
  0
LINE
  8
0
 62
     0
 10
108.056
 20
136.631
 30
0.0
 11
94.0566
 21
136.631
 31
0.0
  0
LINE
  8
0
 62
     0
 10
113.107
 20
136.631
 30
0.0
 11
113.107
 21
135.631
 31
0.0
  0
LINE
  8
0
 62
     0
 10
113.107
 20
135.631
 30
0.0
 11
112.308
 21
135.631
 31
0.0
  0
LINE
  8
0
 62
     0
 10
112.308
 20
135.631
 30
0.0
 11
112.308
 21
132.53
 31
0.0
  0
LINE
  8
0
 62
     0
 10
112.308
 20
132.53
 30
0.0
 11
113.107
 21
132.53
 31
0.0
  0
LINE
  8
0
 62
     0
 10
113.107
 20
132.53
 30
0.0
 11
113.107
 21
126.73
 31
0.0
  0
LINE
  8
0
 62
     0
 10
113.107
 20
126.73
 30
0.0
 11
112.308
 21
126.73
 31
0.0
  0
LINE
  8
0
 62
     0
 10
112.308
 20
126.73
 30
0.0
 11
112.308
 21
123.631
 31
0.0
  0
LINE
  8
0
 62
     0
 10
112.308
 20
123.631
 30
0.0
 11
113.107
 21
123.631
 31
0.0
  0
LINE
  8
0
 62
     0
 10
113.107
 20
123.631
 30
0.0
 11
113.107
 21
122.63
 31
0.0
  0
LINE
  8
0
 62
     0
 10
113.107
 20
122.63
 30
0.0
 11
127.106
 21
122.63
 31
0.0
  0
LINE
  8
0
 62
     0
 10
127.106
 20
122.63
 30
0.0
 11
127.106
 21
123.631
 31
0.0
  0
LINE
  8
0
 62
     0
 10
127.106
 20
123.631
 30
0.0
 11
127.907
 21
123.631
 31
0.0
  0
LINE
  8
0
 62
     0
 10
127.907
 20
123.631
 30
0.0
 11
127.907
 21
126.73
 31
0.0
  0
LINE
  8
0
 62
     0
 10
127.907
 20
126.73
 30
0.0
 11
127.106
 21
126.73
 31
0.0
  0
LINE
  8
0
 62
     0
 10
127.106
 20
126.73
 30
0.0
 11
127.106
 21
132.53
 31
0.0
  0
LINE
  8
0
 62
     0
 10
127.106
 20
132.53
 30
0.0
 11
127.907
 21
132.53
 31
0.0
  0
LINE
  8
0
 62
     0
 10
127.907
 20
132.53
 30
0.0
 11
127.907
 21
135.631
 31
0.0
  0
LINE
  8
0
 62
     0
 10
127.907
 20
135.631
 30
0.0
 11
127.106
 21
135.631
 31
0.0
  0
LINE
  8
0
 62
     0
 10
127.106
 20
135.631
 30
0.0
 11
127.106
 21
136.631
 31
0.0
  0
LINE
  8
0
 62
     0
 10
127.106
 20
136.631
 30
0.0
 11
113.107
 21
136.631
 31
0.0
  0
LINE
  8
0
 62
     0
 10
132.157
 20
136.631
 30
0.0
 11
132.157
 21
135.631
 31
0.0
  0
LINE
  8
0
 62
     0
 10
132.157
 20
135.631
 30
0.0
 11
131.358
 21
135.631
 31
0.0
  0
LINE
  8
0
 62
     0
 10
131.358
 20
135.631
 30
0.0
 11
131.358
 21
132.53
 31
0.0
  0
LINE
  8
0
 62
     0
 10
131.358
 20
132.53
 30
0.0
 11
132.157
 21
132.53
 31
0.0
  0
LINE
  8
0
 62
     0
 10
132.157
 20
132.53
 30
0.0
 11
132.157
 21
126.73
 31
0.0
  0
LINE
  8
0
 62
     0
 10
132.157
 20
126.73
 30
0.0
 11
131.358
 21
126.73
 31
0.0
  0
LINE
  8
0
 62
     0
 10
131.358
 20
126.73
 30
0.0
 11
131.358
 21
123.631
 31
0.0
  0
LINE
  8
0
 62
     0
 10
131.358
 20
123.631
 30
0.0
 11
132.157
 21
123.631
 31
0.0
  0
LINE
  8
0
 62
     0
 10
132.157
 20
123.631
 30
0.0
 11
132.157
 21
122.63
 31
0.0
  0
LINE
  8
0
 62
     0
 10
132.157
 20
122.63
 30
0.0
 11
146.156
 21
122.63
 31
0.0
  0
LINE
  8
0
 62
     0
 10
146.156
 20
122.63
 30
0.0
 11
146.156
 21
123.631
 31
0.0
  0
LINE
  8
0
 62
     0
 10
146.156
 20
123.631
 30
0.0
 11
146.957
 21
123.631
 31
0.0
  0
LINE
  8
0
 62
     0
 10
146.957
 20
123.631
 30
0.0
 11
146.957
 21
126.73
 31
0.0
  0
LINE
  8
0
 62
     0
 10
146.957
 20
126.73
 30
0.0
 11
146.156
 21
126.73
 31
0.0
  0
LINE
  8
0
 62
     0
 10
146.156
 20
126.73
 30
0.0
 11
146.156
 21
132.53
 31
0.0
  0
LINE
  8
0
 62
     0
 10
146.156
 20
132.53
 30
0.0
 11
146.957
 21
132.53
 31
0.0
  0
LINE
  8
0
 62
     0
 10
146.957
 20
132.53
 30
0.0
 11
146.957
 21
135.631
 31
0.0
  0
LINE
  8
0
 62
     0
 10
146.957
 20
135.631
 30
0.0
 11
146.156
 21
135.631
 31
0.0
  0
LINE
  8
0
 62
     0
 10
146.156
 20
135.631
 30
0.0
 11
146.156
 21
136.631
 31
0.0
  0
LINE
  8
0
 62
     0
 10
146.156
 20
136.631
 30
0.0
 11
132.157
 21
136.631
 31
0.0
  0
LINE
  8
0
 62
     0
 10
162.518
 20
152.01
 30
0.0
 11
161.681
 21
151.583
 31
0.0
  0
LINE
  8
0
 62
     0
 10
161.681
 20
151.583
 30
0.0
 11
161.018
 21
150.92
 31
0.0
  0
LINE
  8
0
 62
     0
 10
161.018
 20
150.92
 30
0.0
 11
160.591
 21
150.084
 31
0.0
  0
LINE
  8
0
 62
     0
 10
160.591
 20
150.084
 30
0.0
 11
160.447
 21
149.156
 31
0.0
  0
LINE
  8
0
 62
     0
 10
160.447
 20
149.156
 30
0.0
 11
160.591
 21
148.229
 31
0.0
  0
LINE
  8
0
 62
     0
 10
160.591
 20
148.229
 30
0.0
 11
161.018
 21
147.392
 31
0.0
  0
LINE
  8
0
 62
     0
 10
161.018
 20
147.392
 30
0.0
 11
161.681
 21
146.728
 31
0.0
  0
LINE
  8
0
 62
     0
 10
161.681
 20
146.728
 30
0.0
 11
162.518
 21
146.302
 31
0.0
  0
LINE
  8
0
 62
     0
 10
162.518
 20
146.302
 30
0.0
 11
163.447
 21
146.156
 31
0.0
  0
LINE
  8
0
 62
     0
 10
163.447
 20
146.156
 30
0.0
 11
164.373
 21
146.302
 31
0.0
  0
LINE
  8
0
 62
     0
 10
164.373
 20
146.302
 30
0.0
 11
165.209
 21
146.728
 31
0.0
  0
LINE
  8
0
 62
     0
 10
165.209
 20
146.728
 30
0.0
 11
165.873
 21
147.392
 31
0.0
  0
LINE
  8
0
 62
     0
 10
165.873
 20
147.392
 30
0.0
 11
166.299
 21
148.229
 31
0.0
  0
LINE
  8
0
 62
     0
 10
166.299
 20
148.229
 30
0.0
 11
166.446
 21
149.156
 31
0.0
  0
LINE
  8
0
 62
     0
 10
166.446
 20
149.156
 30
0.0
 11
166.299
 21
150.084
 31
0.0
  0
LINE
  8
0
 62
     0
 10
166.299
 20
150.084
 30
0.0
 11
165.873
 21
150.92
 31
0.0
  0
LINE
  8
0
 62
     0
 10
165.873
 20
150.92
 30
0.0
 11
165.209
 21
151.583
 31
0.0
  0
LINE
  8
0
 62
     0
 10
165.209
 20
151.583
 30
0.0
 11
164.373
 21
152.01
 31
0.0
  0
LINE
  8
0
 62
     0
 10
164.373
 20
152.01
 30
0.0
 11
163.447
 21
152.156
 31
0.0
  0
LINE
  8
0
 62
     0
 10
163.447
 20
152.156
 30
0.0
 11
162.518
 21
152.01
 31
0.0
  0
LINE
  8
0
 62
     0
 10
9.16672
 20
152.01
 30
0.0
 11
8.33025
 21
151.583
 31
0.0
  0
LINE
  8
0
 62
     0
 10
8.33025
 20
151.583
 30
0.0
 11
7.66741
 21
150.92
 31
0.0
  0
LINE
  8
0
 62
     0
 10
7.66741
 20
150.92
 30
0.0
 11
7.2402
 21
150.084
 31
0.0
  0
LINE
  8
0
 62
     0
 10
7.2402
 20
150.084
 30
0.0
 11
7.09415
 21
149.156
 31
0.0
  0
LINE
  8
0
 62
     0
 10
7.09415
 20
149.156
 30
0.0
 11
7.2402
 21
148.229
 31
0.0
  0
LINE
  8
0
 62
     0
 10
7.2402
 20
148.229
 30
0.0
 11
7.66741
 21
147.392
 31
0.0
  0
LINE
  8
0
 62
     0
 10
7.66741
 20
147.392
 30
0.0
 11
8.33025
 21
146.728
 31
0.0
  0
LINE
  8
0
 62
     0
 10
8.33025
 20
146.728
 30
0.0
 11
9.16672
 21
146.302
 31
0.0
  0
LINE
  8
0
 62
     0
 10
9.16672
 20
146.302
 30
0.0
 11
10.0941
 21
146.156
 31
0.0
  0
LINE
  8
0
 62
     0
 10
10.0941
 20
146.156
 30
0.0
 11
11.0216
 21
146.302
 31
0.0
  0
LINE
  8
0
 62
     0
 10
11.0216
 20
146.302
 30
0.0
 11
11.858
 21
146.728
 31
0.0
  0
LINE
  8
0
 62
     0
 10
11.858
 20
146.728
 30
0.0
 11
12.5222
 21
147.392
 31
0.0
  0
LINE
  8
0
 62
     0
 10
12.5222
 20
147.392
 30
0.0
 11
12.948
 21
148.229
 31
0.0
  0
LINE
  8
0
 62
     0
 10
12.948
 20
148.229
 30
0.0
 11
13.0941
 21
149.156
 31
0.0
  0
LINE
  8
0
 62
     0
 10
13.0941
 20
149.156
 30
0.0
 11
12.948
 21
150.084
 31
0.0
  0
LINE
  8
0
 62
     0
 10
12.948
 20
150.084
 30
0.0
 11
12.5222
 21
150.92
 31
0.0
  0
LINE
  8
0
 62
     0
 10
12.5222
 20
150.92
 30
0.0
 11
11.858
 21
151.583
 31
0.0
  0
LINE
  8
0
 62
     0
 10
11.858
 20
151.583
 30
0.0
 11
11.0216
 21
152.01
 31
0.0
  0
LINE
  8
0
 62
     0
 10
11.0216
 20
152.01
 30
0.0
 11
10.0941
 21
152.156
 31
0.0
  0
LINE
  8
0
 62
     0
 10
10.0941
 20
152.156
 30
0.0
 11
9.16672
 21
152.01
 31
0.0
  0
ENDSEC
  0
EOF
