<?xml version="1.0"?>
<!-- Generated by SVGo -->
<svg width="183.352mm" height="169.064mm"
     viewBox="0.000 0.000 183.352 169.064"
     xmlns="http://www.w3.org/2000/svg" 
     xmlns:xlink="http://www.w3.org/1999/xlink">
<polygon points="86.676,5.000 86.676,25.001 25.001,25.001 25.001,144.064 158.352,144.064 158.352,25.001 96.676,25.001 96.676,5.001 170.852,5.001 171.440,5.024 172.025,5.093 172.602,5.208 173.169,5.368 173.722,5.571 174.256,5.818 174.770,6.106 175.260,6.433 175.722,6.797 176.155,7.197 176.555,7.630 176.919,8.091 177.246,8.582 177.534,9.096 177.781,9.630 177.984,10.183 178.144,10.750 178.259,11.327 178.328,11.912 178.352,12.501 178.352,156.564 178.328,157.152 178.259,157.737 178.144,158.315 177.984,158.882 177.781,159.434 177.534,159.969 177.246,160.483 176.919,160.972 176.555,161.435 176.155,161.867 175.722,162.267 175.260,162.632 174.770,162.959 174.256,163.247 173.722,163.493 173.169,163.697 172.602,163.857 172.025,163.972 171.440,164.041 170.852,164.064 12.501,164.064 11.912,164.041 11.327,163.972 10.750,163.857 10.183,163.697 9.630,163.493 9.096,163.247 8.582,162.959 8.091,162.632 7.630,162.267 7.197,161.867 6.797,161.435 6.433,160.972 6.106,160.483 5.818,159.969 5.571,159.434 5.368,158.882 5.208,158.315 5.093,157.737 5.024,157.152 5.000,156.564 5.001,12.501 5.024,11.912 5.093,11.327 5.208,10.750 5.368,10.183 5.571,9.630 5.818,9.096 6.106,8.582 6.433,8.091 6.797,7.630 7.197,7.197 7.630,6.797 8.091,6.433 8.582,6.106 9.096,5.818 9.630,5.571 10.183,5.368 10.750,5.208 11.327,5.093 11.912,5.024 12.501,5.000" style="fill:none;stroke-width:0.050000mm;stroke:black"/>
<polygon points="167.424,151.211 166.588,151.637 165.924,152.301 165.498,153.137 165.352,154.064 165.498,154.991 165.924,155.827 166.588,156.491 167.424,156.917 168.352,157.064 169.279,156.917 170.115,156.491 170.779,155.827 171.205,154.991 171.352,154.064 171.205,153.137 170.779,152.301 170.115,151.637 169.279,151.211 168.352,151.064" style="fill:none;stroke-width:0.050000mm;stroke:black"/>
<polygon points="14.073,151.211 13.237,151.637 12.573,152.301 12.147,153.137 12.000,154.064 12.147,154.991 12.573,155.827 13.237,156.491 14.073,156.917 15.001,157.064 15.928,156.917 16.764,156.491 17.428,155.827 17.854,154.991 18.001,154.064 17.854,153.137 17.428,152.301 16.764,151.637 15.928,151.211 15.001,151.064" style="fill:none;stroke-width:0.050000mm;stroke:black"/>
<polygon points="167.424,12.147 166.588,12.573 165.924,13.237 165.498,14.073 165.352,15.001 165.498,15.928 165.924,16.764 166.588,17.428 167.424,17.854 168.352,18.001 169.279,17.854 170.115,17.428 170.779,16.764 171.205,15.928 171.352,15.001 171.205,14.073 170.779,13.237 170.115,12.573 169.279,12.147 168.352,12.001" style="fill:none;stroke-width:0.050000mm;stroke:black"/>
<polygon points="14.073,12.147 13.237,12.573 12.573,13.237 12.147,14.073 12.000,15.001 12.147,15.928 12.573,16.764 13.237,17.428 14.073,17.854 15.001,18.001 15.928,17.854 16.764,17.428 17.428,16.764 17.854,15.928 18.001,15.001 17.854,14.073 17.428,13.237 16.764,12.573 15.928,12.147 15.001,12.001" style="fill:none;stroke-width:0.050000mm;stroke:black"/>
</svg>
