  0
SECTION
  2
HEADER
  9
$ACADVER
  1
AC1009
  9
$EXTMIN
 10
0.0
 20
0.0
 30
0.0
  9
$EXTMAX
 10
1000.0
 20
1000.0
 30
0.0
  9
$FILLMODE
 70
 0
  9
$SPLFRAME
 70
 1
  0
ENDSEC
  0
SECTION
  2
TABLES
  0
TABLE
  2
LAYER
 70
1
  0
LAYER
  2
0
 70
     0
 62
     7
  6
CONTINUOUS
  0
ENDTAB
  0
ENDSEC
  0
SECTION
  2
ENTITIES
  0
LINE
  8
0
 62
     0
 10
163.208
 20
144.373
 30
0.0
 11
163.599
 21
144.359
 31
0.0
  0
LINE
  8
0
 62
     0
 10
163.599
 20
144.359
 30
0.0
 11
163.989
 21
144.314
 31
0.0
  0
LINE
  8
0
 62
     0
 10
163.989
 20
144.314
 30
0.0
 11
164.375
 21
144.236
 31
0.0
  0
LINE
  8
0
 62
     0
 10
164.375
 20
144.236
 30
0.0
 11
164.753
 21
144.131
 31
0.0
  0
LINE
  8
0
 62
     0
 10
164.753
 20
144.131
 30
0.0
 11
165.121
 21
143.993
 31
0.0
  0
LINE
  8
0
 62
     0
 10
165.121
 20
143.993
 30
0.0
 11
165.477
 21
143.83
 31
0.0
  0
LINE
  8
0
 62
     0
 10
165.477
 20
143.83
 30
0.0
 11
165.819
 21
143.638
 31
0.0
  0
LINE
  8
0
 62
     0
 10
165.819
 20
143.638
 30
0.0
 11
166.147
 21
143.419
 31
0.0
  0
LINE
  8
0
 62
     0
 10
166.147
 20
143.419
 30
0.0
 11
166.455
 21
143.178
 31
0.0
  0
LINE
  8
0
 62
     0
 10
166.455
 20
143.178
 30
0.0
 11
166.744
 21
142.911
 31
0.0
  0
LINE
  8
0
 62
     0
 10
166.744
 20
142.911
 30
0.0
 11
167.01
 21
142.623
 31
0.0
  0
LINE
  8
0
 62
     0
 10
167.01
 20
142.623
 30
0.0
 11
167.253
 21
142.314
 31
0.0
  0
LINE
  8
0
 62
     0
 10
167.253
 20
142.314
 30
0.0
 11
167.47
 21
141.987
 31
0.0
  0
LINE
  8
0
 62
     0
 10
167.47
 20
141.987
 30
0.0
 11
167.663
 21
141.643
 31
0.0
  0
LINE
  8
0
 62
     0
 10
167.663
 20
141.643
 30
0.0
 11
167.827
 21
141.288
 31
0.0
  0
LINE
  8
0
 62
     0
 10
167.827
 20
141.288
 30
0.0
 11
167.962
 21
140.92
 31
0.0
  0
LINE
  8
0
 62
     0
 10
167.962
 20
140.92
 30
0.0
 11
168.07
 21
140.541
 31
0.0
  0
LINE
  8
0
 62
     0
 10
168.07
 20
140.541
 30
0.0
 11
168.146
 21
140.156
 31
0.0
  0
LINE
  8
0
 62
     0
 10
168.146
 20
140.156
 30
0.0
 11
168.192
 21
139.767
 31
0.0
  0
LINE
  8
0
 62
     0
 10
168.192
 20
139.767
 30
0.0
 11
168.208
 21
139.375
 31
0.0
  0
LINE
  8
0
 62
     0
 10
168.208
 20
139.375
 30
0.0
 11
168.208
 21
5.07256
 31
0.0
  0
LINE
  8
0
 62
     0
 10
168.208
 20
5.07256
 30
0.0
 11
168.192
 21
4.68118
 31
0.0
  0
LINE
  8
0
 62
     0
 10
168.192
 20
4.68118
 30
0.0
 11
168.146
 21
4.29122
 31
0.0
  0
LINE
  8
0
 62
     0
 10
168.146
 20
4.29122
 30
0.0
 11
168.07
 21
3.90673
 31
0.0
  0
LINE
  8
0
 62
     0
 10
168.07
 20
3.90673
 30
0.0
 11
167.962
 21
3.52778
 31
0.0
  0
LINE
  8
0
 62
     0
 10
167.962
 20
3.52778
 30
0.0
 11
167.827
 21
3.15984
 31
0.0
  0
LINE
  8
0
 62
     0
 10
167.827
 20
3.15984
 30
0.0
 11
167.663
 21
2.80431
 31
0.0
  0
LINE
  8
0
 62
     0
 10
167.663
 20
2.80431
 30
0.0
 11
167.47
 21
2.46118
 31
0.0
  0
LINE
  8
0
 62
     0
 10
167.47
 20
2.46118
 30
0.0
 11
167.253
 21
2.13458
 31
0.0
  0
LINE
  8
0
 62
     0
 10
167.253
 20
2.13458
 30
0.0
 11
167.01
 21
1.8259
 31
0.0
  0
LINE
  8
0
 62
     0
 10
167.01
 20
1.8259
 30
0.0
 11
166.744
 21
1.53927
 31
0.0
  0
LINE
  8
0
 62
     0
 10
166.744
 20
1.53927
 30
0.0
 11
166.455
 21
1.27193
 31
0.0
  0
LINE
  8
0
 62
     0
 10
166.455
 20
1.27193
 30
0.0
 11
166.147
 21
1.02802
 31
0.0
  0
LINE
  8
0
 62
     0
 10
166.147
 20
1.02802
 30
0.0
 11
165.819
 21
0.808909
 31
0.0
  0
LINE
  8
0
 62
     0
 10
165.819
 20
0.808909
 30
0.0
 11
165.477
 21
0.617361
 31
0.0
  0
LINE
  8
0
 62
     0
 10
165.477
 20
0.617361
 30
0.0
 11
165.121
 21
0.454752
 31
0.0
  0
LINE
  8
0
 62
     0
 10
165.121
 20
0.454752
 30
0.0
 11
164.753
 21
0.318327
 31
0.0
  0
LINE
  8
0
 62
     0
 10
164.753
 20
0.318327
 30
0.0
 11
164.375
 21
0.212218
 31
0.0
  0
LINE
  8
0
 62
     0
 10
164.375
 20
0.212218
 30
0.0
 11
163.989
 21
0.13367
 31
0.0
  0
LINE
  8
0
 62
     0
 10
163.989
 20
0.13367
 30
0.0
 11
163.599
 21
0.0881944
 31
0.0
  0
LINE
  8
0
 62
     0
 10
163.599
 20
0.0881944
 30
0.0
 11
163.208
 21
0.0730359
 31
0.0
  0
LINE
  8
0
 62
     0
 10
163.208
 20
0.0730359
 30
0.0
 11
5.0946
 21
0.0730359
 31
0.0
  0
LINE
  8
0
 62
     0
 10
5.0946
 20
0.0730359
 30
0.0
 11
4.70186
 21
0.0881944
 31
0.0
  0
LINE
  8
0
 62
     0
 10
4.70186
 20
0.0881944
 30
0.0
 11
4.3119
 21
0.13367
 31
0.0
  0
LINE
  8
0
 62
     0
 10
4.3119
 20
0.13367
 30
0.0
 11
3.9274
 21
0.212218
 31
0.0
  0
LINE
  8
0
 62
     0
 10
3.9274
 20
0.212218
 30
0.0
 11
3.54845
 21
0.318327
 31
0.0
  0
LINE
  8
0
 62
     0
 10
3.54845
 20
0.318327
 30
0.0
 11
3.18051
 21
0.454752
 31
0.0
  0
LINE
  8
0
 62
     0
 10
3.18051
 20
0.454752
 30
0.0
 11
2.82498
 21
0.617361
 31
0.0
  0
LINE
  8
0
 62
     0
 10
2.82498
 20
0.617361
 30
0.0
 11
2.48185
 21
0.808909
 31
0.0
  0
LINE
  8
0
 62
     0
 10
2.48185
 20
0.808909
 30
0.0
 11
2.15525
 21
1.02802
 31
0.0
  0
LINE
  8
0
 62
     0
 10
2.15525
 20
1.02802
 30
0.0
 11
1.84657
 21
1.27193
 31
0.0
  0
LINE
  8
0
 62
     0
 10
1.84657
 20
1.27193
 30
0.0
 11
1.55856
 21
1.53927
 31
0.0
  0
LINE
  8
0
 62
     0
 10
1.55856
 20
1.53927
 30
0.0
 11
1.29122
 21
1.8259
 31
0.0
  0
LINE
  8
0
 62
     0
 10
1.29122
 20
1.8259
 30
0.0
 11
1.04869
 21
2.13458
 31
0.0
  0
LINE
  8
0
 62
     0
 10
1.04869
 20
2.13458
 30
0.0
 11
0.830957
 21
2.46118
 31
0.0
  0
LINE
  8
0
 62
     0
 10
0.830957
 20
2.46118
 30
0.0
 11
0.63941
 21
2.80431
 31
0.0
  0
LINE
  8
0
 62
     0
 10
0.63941
 20
2.80431
 30
0.0
 11
0.475424
 21
3.15984
 31
0.0
  0
LINE
  8
0
 62
     0
 10
0.475424
 20
3.15984
 30
0.0
 11
0.338998
 21
3.52778
 31
0.0
  0
LINE
  8
0
 62
     0
 10
0.338998
 20
3.52778
 30
0.0
 11
0.232888
 21
3.90673
 31
0.0
  0
LINE
  8
0
 62
     0
 10
0.232888
 20
3.90673
 30
0.0
 11
0.155718
 21
4.29122
 31
0.0
  0
LINE
  8
0
 62
     0
 10
0.155718
 20
4.29122
 30
0.0
 11
0.110243
 21
4.68118
 31
0.0
  0
LINE
  8
0
 62
     0
 10
0.110243
 20
4.68118
 30
0.0
 11
0.0937066
 21
5.07393
 31
0.0
  0
LINE
  8
0
 62
     0
 10
0.0937066
 20
5.07393
 30
0.0
 11
0.0950846
 21
139.375
 31
0.0
  0
LINE
  8
0
 62
     0
 10
0.0950846
 20
139.375
 30
0.0
 11
0.110243
 21
139.767
 31
0.0
  0
LINE
  8
0
 62
     0
 10
0.110243
 20
139.767
 30
0.0
 11
0.155718
 21
140.156
 31
0.0
  0
LINE
  8
0
 62
     0
 10
0.155718
 20
140.156
 30
0.0
 11
0.232888
 21
140.541
 31
0.0
  0
LINE
  8
0
 62
     0
 10
0.232888
 20
140.541
 30
0.0
 11
0.338998
 21
140.92
 31
0.0
  0
LINE
  8
0
 62
     0
 10
0.338998
 20
140.92
 30
0.0
 11
0.475424
 21
141.288
 31
0.0
  0
LINE
  8
0
 62
     0
 10
0.475424
 20
141.288
 30
0.0
 11
0.63941
 21
141.643
 31
0.0
  0
LINE
  8
0
 62
     0
 10
0.63941
 20
141.643
 30
0.0
 11
0.830957
 21
141.987
 31
0.0
  0
LINE
  8
0
 62
     0
 10
0.830957
 20
141.987
 30
0.0
 11
1.04869
 21
142.314
 31
0.0
  0
LINE
  8
0
 62
     0
 10
1.04869
 20
142.314
 30
0.0
 11
1.29122
 21
142.623
 31
0.0
  0
LINE
  8
0
 62
     0
 10
1.29122
 20
142.623
 30
0.0
 11
1.55856
 21
142.911
 31
0.0
  0
LINE
  8
0
 62
     0
 10
1.55856
 20
142.911
 30
0.0
 11
1.84657
 21
143.178
 31
0.0
  0
LINE
  8
0
 62
     0
 10
1.84657
 20
143.178
 30
0.0
 11
2.15525
 21
143.419
 31
0.0
  0
LINE
  8
0
 62
     0
 10
2.15525
 20
143.419
 30
0.0
 11
2.48185
 21
143.638
 31
0.0
  0
LINE
  8
0
 62
     0
 10
2.48185
 20
143.638
 30
0.0
 11
2.82498
 21
143.83
 31
0.0
  0
LINE
  8
0
 62
     0
 10
2.82498
 20
143.83
 30
0.0
 11
3.18051
 21
143.993
 31
0.0
  0
LINE
  8
0
 62
     0
 10
3.18051
 20
143.993
 30
0.0
 11
3.54845
 21
144.131
 31
0.0
  0
LINE
  8
0
 62
     0
 10
3.54845
 20
144.131
 30
0.0
 11
3.9274
 21
144.236
 31
0.0
  0
LINE
  8
0
 62
     0
 10
3.9274
 20
144.236
 30
0.0
 11
4.3119
 21
144.314
 31
0.0
  0
LINE
  8
0
 62
     0
 10
4.3119
 20
144.314
 30
0.0
 11
4.70186
 21
144.359
 31
0.0
  0
LINE
  8
0
 62
     0
 10
4.70186
 20
144.359
 30
0.0
 11
5.0946
 21
144.374
 31
0.0
  0
LINE
  8
0
 62
     0
 10
5.0946
 20
144.374
 30
0.0
 11
163.208
 21
144.373
 31
0.0
  0
ENDSEC
  0
EOF
