  0
SECTION
  2
HEADER
  9
$ACADVER
  1
AC1009
  9
$EXTMIN
 10
0.0
 20
0.0
 30
0.0
  9
$EXTMAX
 10
1000.0
 20
1000.0
 30
0.0
  9
$FILLMODE
 70
 0
  9
$SPLFRAME
 70
 1
  0
ENDSEC
  0
SECTION
  2
TABLES
  0
TABLE
  2
LAYER
 70
1
  0
LAYER
  2
0
 70
     0
 62
     7
  6
CONTINUOUS
  0
ENDTAB
  0
ENDSEC
  0
SECTION
  2
ENTITIES
  0
LINE
  8
0
 62
     0
 10
170.707
 20
154.373
 30
0.0
 11
171.296
 21
154.351
 31
0.0
  0
LINE
  8
0
 62
     0
 10
171.296
 20
154.351
 30
0.0
 11
171.881
 21
154.281
 31
0.0
  0
LINE
  8
0
 62
     0
 10
171.881
 20
154.281
 30
0.0
 11
172.459
 21
154.167
 31
0.0
  0
LINE
  8
0
 62
     0
 10
172.459
 20
154.167
 30
0.0
 11
173.025
 21
154.007
 31
0.0
  0
LINE
  8
0
 62
     0
 10
173.025
 20
154.007
 30
0.0
 11
173.578
 21
153.804
 31
0.0
  0
LINE
  8
0
 62
     0
 10
173.578
 20
153.804
 30
0.0
 11
174.112
 21
153.556
 31
0.0
  0
LINE
  8
0
 62
     0
 10
174.112
 20
153.556
 30
0.0
 11
174.626
 21
153.268
 31
0.0
  0
LINE
  8
0
 62
     0
 10
174.626
 20
153.268
 30
0.0
 11
175.116
 21
152.942
 31
0.0
  0
LINE
  8
0
 62
     0
 10
175.116
 20
152.942
 30
0.0
 11
175.579
 21
152.578
 31
0.0
  0
LINE
  8
0
 62
     0
 10
175.579
 20
152.578
 30
0.0
 11
176.011
 21
152.178
 31
0.0
  0
LINE
  8
0
 62
     0
 10
176.011
 20
152.178
 30
0.0
 11
176.411
 21
151.744
 31
0.0
  0
LINE
  8
0
 62
     0
 10
176.411
 20
151.744
 30
0.0
 11
176.776
 21
151.282
 31
0.0
  0
LINE
  8
0
 62
     0
 10
176.776
 20
151.282
 30
0.0
 11
177.103
 21
150.793
 31
0.0
  0
LINE
  8
0
 62
     0
 10
177.103
 20
150.793
 30
0.0
 11
177.391
 21
150.279
 31
0.0
  0
LINE
  8
0
 62
     0
 10
177.391
 20
150.279
 30
0.0
 11
177.637
 21
149.745
 31
0.0
  0
LINE
  8
0
 62
     0
 10
177.637
 20
149.745
 30
0.0
 11
177.841
 21
149.192
 31
0.0
  0
LINE
  8
0
 62
     0
 10
177.841
 20
149.192
 30
0.0
 11
178.001
 21
148.624
 31
0.0
  0
LINE
  8
0
 62
     0
 10
178.001
 20
148.624
 30
0.0
 11
178.116
 21
148.048
 31
0.0
  0
LINE
  8
0
 62
     0
 10
178.116
 20
148.048
 30
0.0
 11
178.185
 21
147.463
 31
0.0
  0
LINE
  8
0
 62
     0
 10
178.185
 20
147.463
 30
0.0
 11
178.208
 21
146.874
 31
0.0
  0
LINE
  8
0
 62
     0
 10
178.208
 20
146.874
 30
0.0
 11
178.208
 21
7.5723
 31
0.0
  0
LINE
  8
0
 62
     0
 10
178.208
 20
7.5723
 30
0.0
 11
178.185
 21
6.98528
 31
0.0
  0
LINE
  8
0
 62
     0
 10
178.185
 20
6.98528
 30
0.0
 11
178.116
 21
6.3996
 31
0.0
  0
LINE
  8
0
 62
     0
 10
178.116
 20
6.3996
 30
0.0
 11
178.001
 21
5.82221
 31
0.0
  0
LINE
  8
0
 62
     0
 10
178.001
 20
5.82221
 30
0.0
 11
177.841
 21
5.25582
 31
0.0
  0
LINE
  8
0
 62
     0
 10
177.841
 20
5.25582
 30
0.0
 11
177.637
 21
4.70323
 31
0.0
  0
LINE
  8
0
 62
     0
 10
177.637
 20
4.70323
 30
0.0
 11
177.391
 21
4.16856
 31
0.0
  0
LINE
  8
0
 62
     0
 10
177.391
 20
4.16856
 30
0.0
 11
177.103
 21
3.65457
 31
0.0
  0
LINE
  8
0
 62
     0
 10
177.103
 20
3.65457
 30
0.0
 11
176.776
 21
3.16536
 31
0.0
  0
LINE
  8
0
 62
     0
 10
176.776
 20
3.16536
 30
0.0
 11
176.411
 21
2.70233
 31
0.0
  0
LINE
  8
0
 62
     0
 10
176.411
 20
2.70233
 30
0.0
 11
176.011
 21
2.26963
 31
0.0
  0
LINE
  8
0
 62
     0
 10
176.011
 20
2.26963
 30
0.0
 11
175.579
 21
1.87
 31
0.0
  0
LINE
  8
0
 62
     0
 10
175.579
 20
1.87
 30
0.0
 11
175.116
 21
1.5062
 31
0.0
  0
LINE
  8
0
 62
     0
 10
175.116
 20
1.5062
 30
0.0
 11
174.626
 21
1.17822
 31
0.0
  0
LINE
  8
0
 62
     0
 10
174.626
 20
1.17822
 30
0.0
 11
174.112
 21
0.890214
 31
0.0
  0
LINE
  8
0
 62
     0
 10
174.112
 20
0.890214
 30
0.0
 11
173.578
 21
0.643544
 31
0.0
  0
LINE
  8
0
 62
     0
 10
173.578
 20
0.643544
 30
0.0
 11
173.025
 21
0.440972
 31
0.0
  0
LINE
  8
0
 62
     0
 10
173.025
 20
0.440972
 30
0.0
 11
172.459
 21
0.28112
 31
0.0
  0
LINE
  8
0
 62
     0
 10
172.459
 20
0.28112
 30
0.0
 11
171.881
 21
0.165365
 31
0.0
  0
LINE
  8
0
 62
     0
 10
171.881
 20
0.165365
 30
0.0
 11
171.296
 21
0.0964629
 31
0.0
  0
LINE
  8
0
 62
     0
 10
171.296
 20
0.0964629
 30
0.0
 11
170.707
 21
0.0730359
 31
0.0
  0
LINE
  8
0
 62
     0
 10
170.707
 20
0.0730359
 30
0.0
 11
7.59435
 21
0.0730359
 31
0.0
  0
LINE
  8
0
 62
     0
 10
7.59435
 20
0.0730359
 30
0.0
 11
7.00595
 21
0.0964629
 31
0.0
  0
LINE
  8
0
 62
     0
 10
7.00595
 20
0.0964629
 30
0.0
 11
6.42027
 21
0.165365
 31
0.0
  0
LINE
  8
0
 62
     0
 10
6.42027
 20
0.165365
 30
0.0
 11
5.84426
 21
0.28112
 31
0.0
  0
LINE
  8
0
 62
     0
 10
5.84426
 20
0.28112
 30
0.0
 11
5.2765
 21
0.440972
 31
0.0
  0
LINE
  8
0
 62
     0
 10
5.2765
 20
0.440972
 30
0.0
 11
4.72391
 21
0.643544
 31
0.0
  0
LINE
  8
0
 62
     0
 10
4.72391
 20
0.643544
 30
0.0
 11
4.18924
 21
0.890214
 31
0.0
  0
LINE
  8
0
 62
     0
 10
4.18924
 20
0.890214
 30
0.0
 11
3.67524
 21
1.17822
 31
0.0
  0
LINE
  8
0
 62
     0
 10
3.67524
 20
1.17822
 30
0.0
 11
3.18602
 21
1.5062
 31
0.0
  0
LINE
  8
0
 62
     0
 10
3.18602
 20
1.5062
 30
0.0
 11
2.72438
 21
1.87
 31
0.0
  0
LINE
  8
0
 62
     0
 10
2.72438
 20
1.87
 30
0.0
 11
2.2903
 21
2.26963
 31
0.0
  0
LINE
  8
0
 62
     0
 10
2.2903
 20
2.26963
 30
0.0
 11
1.89067
 21
2.70233
 31
0.0
  0
LINE
  8
0
 62
     0
 10
1.89067
 20
2.70233
 30
0.0
 11
1.52687
 21
3.16536
 31
0.0
  0
LINE
  8
0
 62
     0
 10
1.52687
 20
3.16536
 30
0.0
 11
1.20027
 21
3.65457
 31
0.0
  0
LINE
  8
0
 62
     0
 10
1.20027
 20
3.65457
 30
0.0
 11
0.912262
 21
4.16856
 31
0.0
  0
LINE
  8
0
 62
     0
 10
0.912262
 20
4.16856
 30
0.0
 11
0.664214
 21
4.70323
 31
0.0
  0
LINE
  8
0
 62
     0
 10
0.664214
 20
4.70323
 30
0.0
 11
0.461641
 21
5.25582
 31
0.0
  0
LINE
  8
0
 62
     0
 10
0.461641
 20
5.25582
 30
0.0
 11
0.30179
 21
5.82221
 31
0.0
  0
LINE
  8
0
 62
     0
 10
0.30179
 20
5.82221
 30
0.0
 11
0.187413
 21
6.3996
 31
0.0
  0
LINE
  8
0
 62
     0
 10
0.187413
 20
6.3996
 30
0.0
 11
0.117133
 21
6.98528
 31
0.0
  0
LINE
  8
0
 62
     0
 10
0.117133
 20
6.98528
 30
0.0
 11
0.0937066
 21
7.5723
 31
0.0
  0
LINE
  8
0
 62
     0
 10
0.0937066
 20
7.5723
 30
0.0
 11
0.0950846
 21
146.874
 31
0.0
  0
LINE
  8
0
 62
     0
 10
0.0950846
 20
146.874
 30
0.0
 11
0.117133
 21
147.463
 31
0.0
  0
LINE
  8
0
 62
     0
 10
0.117133
 20
147.463
 30
0.0
 11
0.187413
 21
148.048
 31
0.0
  0
LINE
  8
0
 62
     0
 10
0.187413
 20
148.048
 30
0.0
 11
0.30179
 21
148.624
 31
0.0
  0
LINE
  8
0
 62
     0
 10
0.30179
 20
148.624
 30
0.0
 11
0.461641
 21
149.192
 31
0.0
  0
LINE
  8
0
 62
     0
 10
0.461641
 20
149.192
 30
0.0
 11
0.664214
 21
149.745
 31
0.0
  0
LINE
  8
0
 62
     0
 10
0.664214
 20
149.745
 30
0.0
 11
0.912262
 21
150.279
 31
0.0
  0
LINE
  8
0
 62
     0
 10
0.912262
 20
150.279
 30
0.0
 11
1.20027
 21
150.793
 31
0.0
  0
LINE
  8
0
 62
     0
 10
1.20027
 20
150.793
 30
0.0
 11
1.52687
 21
151.282
 31
0.0
  0
LINE
  8
0
 62
     0
 10
1.52687
 20
151.282
 30
0.0
 11
1.89067
 21
151.744
 31
0.0
  0
LINE
  8
0
 62
     0
 10
1.89067
 20
151.744
 30
0.0
 11
2.2903
 21
152.178
 31
0.0
  0
LINE
  8
0
 62
     0
 10
2.2903
 20
152.178
 30
0.0
 11
2.72438
 21
152.578
 31
0.0
  0
LINE
  8
0
 62
     0
 10
2.72438
 20
152.578
 30
0.0
 11
3.18602
 21
152.942
 31
0.0
  0
LINE
  8
0
 62
     0
 10
3.18602
 20
152.942
 30
0.0
 11
3.67524
 21
153.268
 31
0.0
  0
LINE
  8
0
 62
     0
 10
3.67524
 20
153.268
 30
0.0
 11
4.18924
 21
153.556
 31
0.0
  0
LINE
  8
0
 62
     0
 10
4.18924
 20
153.556
 30
0.0
 11
4.72391
 21
153.804
 31
0.0
  0
LINE
  8
0
 62
     0
 10
4.72391
 20
153.804
 30
0.0
 11
5.2765
 21
154.007
 31
0.0
  0
LINE
  8
0
 62
     0
 10
5.2765
 20
154.007
 30
0.0
 11
5.84426
 21
154.167
 31
0.0
  0
LINE
  8
0
 62
     0
 10
5.84426
 20
154.167
 30
0.0
 11
6.42027
 21
154.281
 31
0.0
  0
LINE
  8
0
 62
     0
 10
6.42027
 20
154.281
 30
0.0
 11
7.00595
 21
154.351
 31
0.0
  0
LINE
  8
0
 62
     0
 10
7.00595
 20
154.351
 30
0.0
 11
7.59435
 21
154.375
 31
0.0
  0
LINE
  8
0
 62
     0
 10
7.59435
 20
154.375
 30
0.0
 11
170.707
 21
154.373
 31
0.0
  0
ENDSEC
  0
EOF
