  0
SECTION
  2
HEADER
  9
$ACADVER
  1
AC1009
  9
$EXTMIN
 10
0.0
 20
0.0
 30
0.0
  9
$EXTMAX
 10
1000.0
 20
1000.0
 30
0.0
  9
$FILLMODE
 70
 0
  9
$SPLFRAME
 70
 1
  0
ENDSEC
  0
SECTION
  2
TABLES
  0
TABLE
  2
LAYER
 70
1
  0
LAYER
  2
0
 70
     0
 62
     7
  6
CONTINUOUS
  0
ENDTAB
  0
ENDSEC
  0
SECTION
  2
ENTITIES
  0
POLYLINE
  8
0
 62
     0
 66
     1
 10
0
 20
0
 30
0.0
 70
     1
 40
0
 41
0
  0
VERTEX
  8
0
 10
2.08132
 20
0.485243
 30
0.0
 40
0
 41
0
  0
VERTEX
  8
0
 10
2.91465
 20
0.485243
 30
0.0
 40
0
 41
0
  0
VERTEX
  8
0
 10
2.92512
 20
0.485243
 30
0.0
 40
0
 41
0
  0
VERTEX
  8
0
 10
2.9566
 20
0.481011
 30
0.0
 40
0
 41
0
  0
VERTEX
  8
0
 10
2.99571
 20
0.468912
 30
0.0
 40
0
 41
0
  0
VERTEX
  8
0
 10
3.03114
 20
0.449707
 30
0.0
 40
0
 41
0
  0
VERTEX
  8
0
 10
3.06196
 20
0.424263
 30
0.0
 40
0
 41
0
  0
VERTEX
  8
0
 10
3.0874
 20
0.393446
 30
0.0
 40
0
 41
0
  0
VERTEX
  8
0
 10
3.10661
 20
0.358018
 30
0.0
 40
0
 41
0
  0
VERTEX
  8
0
 10
3.11871
 20
0.318901
 30
0.0
 40
0
 41
0
  0
VERTEX
  8
0
 10
3.12299
 20
0.287435
 30
0.0
 40
0
 41
0
  0
VERTEX
  8
0
 10
3.12299
 20
0.27691
 30
0.0
 40
0
 41
0
  0
VERTEX
  8
0
 10
3.12299
 20
0.266439
 30
0.0
 40
0
 41
0
  0
VERTEX
  8
0
 10
3.11871
 20
0.234972
 30
0.0
 40
0
 41
0
  0
VERTEX
  8
0
 10
3.10661
 20
0.195856
 30
0.0
 40
0
 41
0
  0
VERTEX
  8
0
 10
3.0874
 20
0.160428
 30
0.0
 40
0
 41
0
  0
VERTEX
  8
0
 10
3.06196
 20
0.129612
 30
0.0
 40
0
 41
0
  0
VERTEX
  8
0
 10
3.03114
 20
0.104167
 30
0.0
 40
0
 41
0
  0
VERTEX
  8
0
 10
2.99571
 20
0.084961
 30
0.0
 40
0
 41
0
  0
VERTEX
  8
0
 10
2.9566
 20
0.0728624
 30
0.0
 40
0
 41
0
  0
VERTEX
  8
0
 10
2.92512
 20
0.0685764
 30
0.0
 40
0
 41
0
  0
VERTEX
  8
0
 10
2.91465
 20
0.0685764
 30
0.0
 40
0
 41
0
  0
VERTEX
  8
0
 10
2.08132
 20
0.0685764
 30
0.0
 40
0
 41
0
  0
VERTEX
  8
0
 10
2.07081
 20
0.0685764
 30
0.0
 40
0
 41
0
  0
VERTEX
  8
0
 10
2.03933
 20
0.0728624
 30
0.0
 40
0
 41
0
  0
VERTEX
  8
0
 10
2.00022
 20
0.084961
 30
0.0
 40
0
 41
0
  0
VERTEX
  8
0
 10
1.96479
 20
0.104167
 30
0.0
 40
0
 41
0
  0
VERTEX
  8
0
 10
1.93397
 20
0.129612
 30
0.0
 40
0
 41
0
  0
VERTEX
  8
0
 10
1.90853
 20
0.160428
 30
0.0
 40
0
 41
0
  0
VERTEX
  8
0
 10
1.88932
 20
0.195856
 30
0.0
 40
0
 41
0
  0
VERTEX
  8
0
 10
1.87722
 20
0.234972
 30
0.0
 40
0
 41
0
  0
VERTEX
  8
0
 10
1.87299
 20
0.266439
 30
0.0
 40
0
 41
0
  0
VERTEX
  8
0
 10
1.87299
 20
0.27691
 30
0.0
 40
0
 41
0
  0
VERTEX
  8
0
 10
1.87299
 20
0.287435
 30
0.0
 40
0
 41
0
  0
VERTEX
  8
0
 10
1.87722
 20
0.318901
 30
0.0
 40
0
 41
0
  0
VERTEX
  8
0
 10
1.88932
 20
0.358018
 30
0.0
 40
0
 41
0
  0
VERTEX
  8
0
 10
1.90853
 20
0.393446
 30
0.0
 40
0
 41
0
  0
VERTEX
  8
0
 10
1.93397
 20
0.424263
 30
0.0
 40
0
 41
0
  0
VERTEX
  8
0
 10
1.96479
 20
0.449707
 30
0.0
 40
0
 41
0
  0
VERTEX
  8
0
 10
2.00022
 20
0.468912
 30
0.0
 40
0
 41
0
  0
VERTEX
  8
0
 10
2.03933
 20
0.481011
 30
0.0
 40
0
 41
0
  0
VERTEX
  8
0
 10
2.07081
 20
0.485243
 30
0.0
 40
0
 41
0
  0
VERTEX
  8
0
 10
2.08132
 20
0.485243
 30
0.0
 40
0
 41
0
  0
SEQEND
 8
0
  0
POLYLINE
  8
0
 62
     0
 66
     1
 10
0
 20
0
 30
0.0
 70
     1
 40
0
 41
0
  0
VERTEX
  8
0
 10
2.28965
 20
1.31858
 30
0.0
 40
0
 41
0
  0
VERTEX
  8
0
 10
2.70632
 20
1.31858
 30
0.0
 40
0
 41
0
  0
VERTEX
  8
0
 10
2.71679
 20
1.31858
 30
0.0
 40
0
 41
0
  0
VERTEX
  8
0
 10
2.74826
 20
1.31434
 30
0.0
 40
0
 41
0
  0
VERTEX
  8
0
 10
2.78737
 20
1.30225
 30
0.0
 40
0
 41
0
  0
VERTEX
  8
0
 10
2.82281
 20
1.28304
 30
0.0
 40
0
 41
0
  0
VERTEX
  8
0
 10
2.85363
 20
1.2576
 30
0.0
 40
0
 41
0
  0
VERTEX
  8
0
 10
2.87907
 20
1.22678
 30
0.0
 40
0
 41
0
  0
VERTEX
  8
0
 10
2.89828
 20
1.19135
 30
0.0
 40
0
 41
0
  0
VERTEX
  8
0
 10
2.91037
 20
1.15223
 30
0.0
 40
0
 41
0
  0
VERTEX
  8
0
 10
2.91465
 20
1.12077
 30
0.0
 40
0
 41
0
  0
VERTEX
  8
0
 10
2.91465
 20
1.11024
 30
0.0
 40
0
 41
0
  0
VERTEX
  8
0
 10
2.91465
 20
1.09977
 30
0.0
 40
0
 41
0
  0
VERTEX
  8
0
 10
2.91037
 20
1.06831
 30
0.0
 40
0
 41
0
  0
VERTEX
  8
0
 10
2.89828
 20
1.02919
 30
0.0
 40
0
 41
0
  0
VERTEX
  8
0
 10
2.87907
 20
0.993761
 30
0.0
 40
0
 41
0
  0
VERTEX
  8
0
 10
2.85363
 20
0.962944
 30
0.0
 40
0
 41
0
  0
VERTEX
  8
0
 10
2.82281
 20
0.9375
 30
0.0
 40
0
 41
0
  0
VERTEX
  8
0
 10
2.78737
 20
0.918294
 30
0.0
 40
0
 41
0
  0
VERTEX
  8
0
 10
2.74826
 20
0.906196
 30
0.0
 40
0
 41
0
  0
VERTEX
  8
0
 10
2.71679
 20
0.90191
 30
0.0
 40
0
 41
0
  0
VERTEX
  8
0
 10
2.70632
 20
0.90191
 30
0.0
 40
0
 41
0
  0
VERTEX
  8
0
 10
2.28965
 20
0.90191
 30
0.0
 40
0
 41
0
  0
VERTEX
  8
0
 10
2.27914
 20
0.90191
 30
0.0
 40
0
 41
0
  0
VERTEX
  8
0
 10
2.24767
 20
0.906196
 30
0.0
 40
0
 41
0
  0
VERTEX
  8
0
 10
2.20856
 20
0.918294
 30
0.0
 40
0
 41
0
  0
VERTEX
  8
0
 10
2.17312
 20
0.9375
 30
0.0
 40
0
 41
0
  0
VERTEX
  8
0
 10
2.14231
 20
0.962944
 30
0.0
 40
0
 41
0
  0
VERTEX
  8
0
 10
2.11686
 20
0.993761
 30
0.0
 40
0
 41
0
  0
VERTEX
  8
0
 10
2.09765
 20
1.02919
 30
0.0
 40
0
 41
0
  0
VERTEX
  8
0
 10
2.08556
 20
1.06831
 30
0.0
 40
0
 41
0
  0
VERTEX
  8
0
 10
2.08132
 20
1.09977
 30
0.0
 40
0
 41
0
  0
VERTEX
  8
0
 10
2.08132
 20
1.11024
 30
0.0
 40
0
 41
0
  0
VERTEX
  8
0
 10
2.08132
 20
1.12077
 30
0.0
 40
0
 41
0
  0
VERTEX
  8
0
 10
2.08556
 20
1.15223
 30
0.0
 40
0
 41
0
  0
VERTEX
  8
0
 10
2.09765
 20
1.19135
 30
0.0
 40
0
 41
0
  0
VERTEX
  8
0
 10
2.11686
 20
1.22678
 30
0.0
 40
0
 41
0
  0
VERTEX
  8
0
 10
2.14231
 20
1.2576
 30
0.0
 40
0
 41
0
  0
VERTEX
  8
0
 10
2.17312
 20
1.28304
 30
0.0
 40
0
 41
0
  0
VERTEX
  8
0
 10
2.20856
 20
1.30225
 30
0.0
 40
0
 41
0
  0
VERTEX
  8
0
 10
2.24767
 20
1.31434
 30
0.0
 40
0
 41
0
  0
VERTEX
  8
0
 10
2.27914
 20
1.31858
 30
0.0
 40
0
 41
0
  0
VERTEX
  8
0
 10
2.28965
 20
1.31858
 30
0.0
 40
0
 41
0
  0
SEQEND
 8
0
  0
POLYLINE
  8
0
 62
     0
 66
     1
 10
0
 20
0
 30
0.0
 70
     1
 40
0
 41
0
  0
VERTEX
  8
0
 10
2.49799
 20
2.15192
 30
0.0
 40
0
 41
0
  0
VERTEX
  8
0
 10
2.50846
 20
2.15192
 30
0.0
 40
0
 41
0
  0
VERTEX
  8
0
 10
2.53993
 20
2.14768
 30
0.0
 40
0
 41
0
  0
VERTEX
  8
0
 10
2.57904
 20
2.13558
 30
0.0
 40
0
 41
0
  0
VERTEX
  8
0
 10
2.61447
 20
2.11637
 30
0.0
 40
0
 41
0
  0
VERTEX
  8
0
 10
2.64529
 20
2.09093
 30
0.0
 40
0
 41
0
  0
VERTEX
  8
0
 10
2.67074
 20
2.06011
 30
0.0
 40
0
 41
0
  0
VERTEX
  8
0
 10
2.68994
 20
2.02468
 30
0.0
 40
0
 41
0
  0
VERTEX
  8
0
 10
2.70204
 20
1.98557
 30
0.0
 40
0
 41
0
  0
VERTEX
  8
0
 10
2.70632
 20
1.9541
 30
0.0
 40
0
 41
0
  0
VERTEX
  8
0
 10
2.70632
 20
1.94358
 30
0.0
 40
0
 41
0
  0
VERTEX
  8
0
 10
2.70632
 20
1.93311
 30
0.0
 40
0
 41
0
  0
VERTEX
  8
0
 10
2.70204
 20
1.90164
 30
0.0
 40
0
 41
0
  0
VERTEX
  8
0
 10
2.68994
 20
1.86253
 30
0.0
 40
0
 41
0
  0
VERTEX
  8
0
 10
2.67074
 20
1.8271
 30
0.0
 40
0
 41
0
  0
VERTEX
  8
0
 10
2.64529
 20
1.79628
 30
0.0
 40
0
 41
0
  0
VERTEX
  8
0
 10
2.61447
 20
1.77083
 30
0.0
 40
0
 41
0
  0
VERTEX
  8
0
 10
2.57904
 20
1.75162
 30
0.0
 40
0
 41
0
  0
VERTEX
  8
0
 10
2.53993
 20
1.73953
 30
0.0
 40
0
 41
0
  0
VERTEX
  8
0
 10
2.50846
 20
1.73525
 30
0.0
 40
0
 41
0
  0
VERTEX
  8
0
 10
2.49799
 20
1.73525
 30
0.0
 40
0
 41
0
  0
VERTEX
  8
0
 10
2.48747
 20
1.73525
 30
0.0
 40
0
 41
0
  0
VERTEX
  8
0
 10
2.456
 20
1.73953
 30
0.0
 40
0
 41
0
  0
VERTEX
  8
0
 10
2.41689
 20
1.75162
 30
0.0
 40
0
 41
0
  0
VERTEX
  8
0
 10
2.38146
 20
1.77083
 30
0.0
 40
0
 41
0
  0
VERTEX
  8
0
 10
2.35064
 20
1.79628
 30
0.0
 40
0
 41
0
  0
VERTEX
  8
0
 10
2.32519
 20
1.8271
 30
0.0
 40
0
 41
0
  0
VERTEX
  8
0
 10
2.30599
 20
1.86253
 30
0.0
 40
0
 41
0
  0
VERTEX
  8
0
 10
2.29389
 20
1.90164
 30
0.0
 40
0
 41
0
  0
VERTEX
  8
0
 10
2.28965
 20
1.93311
 30
0.0
 40
0
 41
0
  0
VERTEX
  8
0
 10
2.28965
 20
1.94358
 30
0.0
 40
0
 41
0
  0
VERTEX
  8
0
 10
2.28965
 20
1.9541
 30
0.0
 40
0
 41
0
  0
VERTEX
  8
0
 10
2.29389
 20
1.98557
 30
0.0
 40
0
 41
0
  0
VERTEX
  8
0
 10
2.30599
 20
2.02468
 30
0.0
 40
0
 41
0
  0
VERTEX
  8
0
 10
2.32519
 20
2.06011
 30
0.0
 40
0
 41
0
  0
VERTEX
  8
0
 10
2.35064
 20
2.09093
 30
0.0
 40
0
 41
0
  0
VERTEX
  8
0
 10
2.38146
 20
2.11637
 30
0.0
 40
0
 41
0
  0
VERTEX
  8
0
 10
2.41689
 20
2.13558
 30
0.0
 40
0
 41
0
  0
VERTEX
  8
0
 10
2.456
 20
2.14768
 30
0.0
 40
0
 41
0
  0
VERTEX
  8
0
 10
2.48747
 20
2.15192
 30
0.0
 40
0
 41
0
  0
VERTEX
  8
0
 10
2.49799
 20
2.15192
 30
0.0
 40
0
 41
0
  0
SEQEND
 8
0
  0
POLYLINE
  8
0
 62
     0
 66
     1
 10
0
 20
0
 30
0.0
 70
     1
 40
0
 41
0
  0
VERTEX
  8
0
 10
0.657226
 20
2.43126
 30
0.0
 40
0
 41
0
  0
VERTEX
  8
0
 10
0.663519
 20
2.43087
 30
0.0
 40
0
 41
0
  0
VERTEX
  8
0
 10
0.682563
 20
2.42996
 30
0.0
 40
0
 41
0
  0
VERTEX
  8
0
 10
0.693631
 20
2.42942
 30
0.0
 40
0
 41
0
  0
VERTEX
  8
0
 10
0.70204
 20
2.42806
 30
0.0
 40
0
 41
0
  0
VERTEX
  8
0
 10
0.715061
 20
2.42524
 30
0.0
 40
0
 41
0
  0
VERTEX
  8
0
 10
0.719456
 20
2.42426
 30
0.0
 40
0
 41
0
  0
VERTEX
  8
0
 10
0.731933
 20
2.42085
 30
0.0
 40
0
 41
0
  0
VERTEX
  8
0
 10
0.76774
 20
2.40429
 30
0.0
 40
0
 41
0
  0
VERTEX
  8
0
 10
0.808322
 20
2.37386
 30
0.0
 40
0
 41
0
  0
VERTEX
  8
0
 10
0.840278
 20
2.33453
 30
0.0
 40
0
 41
0
  0
VERTEX
  8
0
 10
0.858453
 20
2.29975
 30
0.0
 40
0
 41
0
  0
VERTEX
  8
0
 10
0.862685
 20
2.28749
 30
0.0
 40
0
 41
0
  0
VERTEX
  8
0
 10
0.86339
 20
2.28635
 30
0.0
 40
0
 41
0
  0
VERTEX
  8
0
 10
0.86556
 20
2.28271
 30
0.0
 40
0
 41
0
  0
VERTEX
  8
0
 10
0.866917
 20
2.27994
 30
0.0
 40
0
 41
0
  0
VERTEX
  8
0
 10
0.86914
 20
2.27447
 30
0.0
 40
0
 41
0
  0
VERTEX
  8
0
 10
0.873426
 20
2.26476
 30
0.0
 40
0
 41
0
  0
VERTEX
  8
0
 10
0.874892
 20
2.2615
 30
0.0
 40
0
 41
0
  0
VERTEX
  8
0
 10
1.40365
 20
0.952854
 30
0.0
 40
0
 41
0
  0
VERTEX
  8
0
 10
1.67171
 20
1.9534
 30
0.0
 40
0
 41
0
  0
VERTEX
  8
0
 10
1.67692
 20
1.97299
 30
0.0
 40
0
 41
0
  0
VERTEX
  8
0
 10
1.7085
 20
2.0275
 30
0.0
 40
0
 41
0
  0
VERTEX
  8
0
 10
1.76878
 20
2.07997
 30
0.0
 40
0
 41
0
  0
VERTEX
  8
0
 10
1.84429
 20
2.10596
 30
0.0
 40
0
 41
0
  0
VERTEX
  8
0
 10
1.90728
 20
2.10601
 30
0.0
 40
0
 41
0
  0
VERTEX
  8
0
 10
1.92686
 20
2.10075
 30
0.0
 40
0
 41
0
  0
VERTEX
  8
0
 10
1.9464
 20
2.09554
 30
0.0
 40
0
 41
0
  0
VERTEX
  8
0
 10
2.00097
 20
2.06396
 30
0.0
 40
0
 41
0
  0
VERTEX
  8
0
 10
2.05339
 20
2.00369
 30
0.0
 40
0
 41
0
  0
VERTEX
  8
0
 10
2.07937
 20
1.92817
 30
0.0
 40
0
 41
0
  0
VERTEX
  8
0
 10
2.07943
 20
1.86518
 30
0.0
 40
0
 41
0
  0
VERTEX
  8
0
 10
2.07422
 20
1.8456
 30
0.0
 40
0
 41
0
  0
VERTEX
  8
0
 10
1.64589
 20
0.247017
 30
0.0
 40
0
 41
0
  0
VERTEX
  8
0
 10
1.64453
 20
0.23405
 30
0.0
 40
0
 41
0
  0
VERTEX
  8
0
 10
1.63351
 20
0.195801
 30
0.0
 40
0
 41
0
  0
VERTEX
  8
0
 10
1.60872
 20
0.151096
 30
0.0
 40
0
 41
0
  0
VERTEX
  8
0
 10
1.57329
 20
0.114149
 30
0.0
 40
0
 41
0
  0
VERTEX
  8
0
 10
1.54081
 20
0.0917969
 30
0.0
 40
0
 41
0
  0
VERTEX
  8
0
 10
1.52908
 20
0.0862087
 30
0.0
 40
0
 41
0
  0
VERTEX
  8
0
 10
1.52078
 20
0.0829536
 30
0.0
 40
0
 41
0
  0
VERTEX
  8
0
 10
1.47803
 20
0.0743815
 30
0.0
 40
0
 41
0
  0
VERTEX
  8
0
 10
1.43435
 20
0.0755751
 30
0.0
 40
0
 41
0
  0
VERTEX
  8
0
 10
1.42562
 20
0.0771485
 30
0.0
 40
0
 41
0
  0
VERTEX
  8
0
 10
1.42279
 20
0.077691
 30
0.0
 40
0
 41
0
  0
VERTEX
  8
0
 10
1.39561
 20
0.08648
 30
0.0
 40
0
 41
0
  0
VERTEX
  8
0
 10
1.3929
 20
0.0872939
 30
0.0
 40
0
 41
0
  0
VERTEX
  8
0
 10
1.3877
 20
0.0883789
 30
0.0
 40
0
 41
0
  0
VERTEX
  8
0
 10
1.37375
 20
0.0924479
 30
0.0
 40
0
 41
0
  0
VERTEX
  8
0
 10
1.33415
 20
0.111979
 30
0.0
 40
0
 41
0
  0
VERTEX
  8
0
 10
1.28863
 20
0.148492
 30
0.0
 40
0
 41
0
  0
VERTEX
  8
0
 10
1.25505
 20
0.195856
 30
0.0
 40
0
 41
0
  0
VERTEX
  8
0
 10
1.23942
 20
0.237522
 30
0.0
 40
0
 41
0
  0
VERTEX
  8
0
 10
1.23747
 20
0.251844
 30
0.0
 40
0
 41
0
  0
VERTEX
  8
0
 10
0.705729
 20
1.56799
 30
0.0
 40
0
 41
0
  0
VERTEX
  8
0
 10
0.435439
 20
0.559244
 30
0.0
 40
0
 41
0
  0
VERTEX
  8
0
 10
0.430176
 20
0.539714
 30
0.0
 40
0
 41
0
  0
VERTEX
  8
0
 10
0.3986
 20
0.485189
 30
0.0
 40
0
 41
0
  0
VERTEX
  8
0
 10
0.338325
 20
0.432781
 30
0.0
 40
0
 41
0
  0
VERTEX
  8
0
 10
0.262804
 20
0.406793
 30
0.0
 40
0
 41
0
  0
VERTEX
  8
0
 10
0.199815
 20
0.406685
 30
0.0
 40
0
 41
0
  0
VERTEX
  8
0
 10
0.180285
 20
0.411893
 30
0.0
 40
0
 41
0
  0
VERTEX
  8
0
 10
0.160699
 20
0.417156
 30
0.0
 40
0
 41
0
  0
VERTEX
  8
0
 10
0.106174
 20
0.448731
 30
0.0
 40
0
 41
0
  0
VERTEX
  8
0
 10
0.0537651
 20
0.509006
 30
0.0
 40
0
 41
0
  0
VERTEX
  8
0
 10
0.0277778
 20
0.584526
 30
0.0
 40
0
 41
0
  0
VERTEX
  8
0
 10
0.0276693
 20
0.647515
 30
0.0
 40
0
 41
0
  0
VERTEX
  8
0
 10
0.0329318
 20
0.667046
 30
0.0
 40
0
 41
0
  0
VERTEX
  8
0
 10
0.464301
 20
2.27696
 30
0.0
 40
0
 41
0
  0
VERTEX
  8
0
 10
0.46799
 20
2.29047
 30
0.0
 40
0
 41
0
  0
VERTEX
  8
0
 10
0.500543
 20
2.34961
 30
0.0
 40
0
 41
0
  0
VERTEX
  8
0
 10
0.549804
 20
2.39567
 30
0.0
 40
0
 41
0
  0
VERTEX
  8
0
 10
0.561849
 20
2.40261
 30
0.0
 40
0
 41
0
  0
VERTEX
  8
0
 10
0.563531
 20
2.40386
 30
0.0
 40
0
 41
0
  0
VERTEX
  8
0
 10
0.568793
 20
2.40761
 30
0.0
 40
0
 41
0
  0
VERTEX
  8
0
 10
0.575358
 20
2.41064
 30
0.0
 40
0
 41
0
  0
VERTEX
  8
0
 10
0.577582
 20
2.41168
 30
0.0
 40
0
 41
0
  0
VERTEX
  8
0
 10
0.578071
 20
2.412
 30
0.0
 40
0
 41
0
  0
VERTEX
  8
0
 10
0.579915
 20
2.41288
 30
0.0
 40
0
 41
0
  0
VERTEX
  8
0
 10
0.58035
 20
2.41303
 30
0.0
 40
0
 41
0
  0
VERTEX
  8
0
 10
0.587619
 20
2.41644
 30
0.0
 40
0
 41
0
  0
VERTEX
  8
0
 10
0.59044
 20
2.41743
 30
0.0
 40
0
 41
0
  0
VERTEX
  8
0
 10
0.59885
 20
2.42046
 30
0.0
 40
0
 41
0
  0
VERTEX
  8
0
 10
0.603569
 20
2.42225
 30
0.0
 40
0
 41
0
  0
VERTEX
  8
0
 10
0.606228
 20
2.42301
 30
0.0
 40
0
 41
0
  0
VERTEX
  8
0
 10
0.610189
 20
2.42361
 30
0.0
 40
0
 41
0
  0
VERTEX
  8
0
 10
0.611546
 20
2.42378
 30
0.0
 40
0
 41
0
  0
VERTEX
  8
0
 10
0.613715
 20
2.42453
 30
0.0
 40
0
 41
0
  0
VERTEX
  8
0
 10
0.620443
 20
2.42681
 30
0.0
 40
0
 41
0
  0
VERTEX
  8
0
 10
0.625435
 20
2.42768
 30
0.0
 40
0
 41
0
  0
VERTEX
  8
0
 10
0.634874
 20
2.42854
 30
0.0
 40
0
 41
0
  0
VERTEX
  8
0
 10
0.651639
 20
2.4305
 30
0.0
 40
0
 41
0
  0
VERTEX
  8
0
 10
0.657226
 20
2.43126
 30
0.0
 40
0
 41
0
  0
SEQEND
 8
0
  0
POLYLINE
  8
0
 62
     0
 66
     1
 10
0
 20
0
 30
0.0
 70
     1
 40
0
 41
0
  0
VERTEX
  8
0
 10
4.34576
 20
2.42654
 30
0.0
 40
0
 41
0
  0
VERTEX
  8
0
 10
4.35465
 20
2.42654
 30
0.0
 40
0
 41
0
  0
VERTEX
  8
0
 10
4.39681
 20
2.41878
 30
0.0
 40
0
 41
0
  0
VERTEX
  8
0
 10
4.43679
 20
2.4031
 30
0.0
 40
0
 41
0
  0
VERTEX
  8
0
 10
4.44461
 20
2.39908
 30
0.0
 40
0
 41
0
  0
VERTEX
  8
0
 10
4.46213
 20
2.389
 30
0.0
 40
0
 41
0
  0
VERTEX
  8
0
 10
4.50646
 20
2.34412
 30
0.0
 40
0
 41
0
  0
VERTEX
  8
0
 10
4.54101
 20
2.27154
 30
0.0
 40
0
 41
0
  0
VERTEX
  8
0
 10
4.54585
 20
2.19065
 30
0.0
 40
0
 41
0
  0
VERTEX
  8
0
 10
4.52897
 20
2.12869
 30
0.0
 40
0
 41
0
  0
VERTEX
  8
0
 10
4.51867
 20
2.11074
 30
0.0
 40
0
 41
0
  0
VERTEX
  8
0
 10
4.1384
 20
1.45215
 30
0.0
 40
0
 41
0
  0
VERTEX
  8
0
 10
4.93024
 20
0.739258
 30
0.0
 40
0
 41
0
  0
VERTEX
  8
0
 10
4.94179
 20
0.728842
 30
0.0
 40
0
 41
0
  0
VERTEX
  8
0
 10
4.9656
 20
0.685385
 30
0.0
 40
0
 41
0
  0
VERTEX
  8
0
 10
4.97364
 20
0.618056
 30
0.0
 40
0
 41
0
  0
VERTEX
  8
0
 10
4.95481
 20
0.545899
 30
0.0
 40
0
 41
0
  0
VERTEX
  8
0
 10
4.9235
 20
0.492242
 30
0.0
 40
0
 41
0
  0
VERTEX
  8
0
 10
4.90994
 20
0.47716
 30
0.0
 40
0
 41
0
  0
VERTEX
  8
0
 10
4.89638
 20
0.462131
 30
0.0
 40
0
 41
0
  0
VERTEX
  8
0
 10
4.84631
 20
0.425347
 30
0.0
 40
0
 41
0
  0
VERTEX
  8
0
 10
4.77647
 20
0.399089
 30
0.0
 40
0
 41
0
  0
VERTEX
  8
0
 10
4.70871
 20
0.400011
 30
0.0
 40
0
 41
0
  0
VERTEX
  8
0
 10
4.66297
 20
0.419163
 30
0.0
 40
0
 41
0
  0
VERTEX
  8
0
 10
4.65142
 20
0.429579
 30
0.0
 40
0
 41
0
  0
VERTEX
  8
0
 10
3.92546
 20
1.08328
 30
0.0
 40
0
 41
0
  0
VERTEX
  8
0
 10
3.67356
 20
0.647026
 30
0.0
 40
0
 41
0
  0
VERTEX
  8
0
 10
3.75564
 20
0.340603
 30
0.0
 40
0
 41
0
  0
VERTEX
  8
0
 10
3.76085
 20
0.321072
 30
0.0
 40
0
 41
0
  0
VERTEX
  8
0
 10
3.76079
 20
0.258029
 30
0.0
 40
0
 41
0
  0
VERTEX
  8
0
 10
3.73481
 20
0.182508
 30
0.0
 40
0
 41
0
  0
VERTEX
  8
0
 10
3.6824
 20
0.122287
 30
0.0
 40
0
 41
0
  0
VERTEX
  8
0
 10
3.62788
 20
0.0907118
 30
0.0
 40
0
 41
0
  0
VERTEX
  8
0
 10
3.60835
 20
0.0854492
 30
0.0
 40
0
 41
0
  0
VERTEX
  8
0
 10
3.58876
 20
0.0802408
 30
0.0
 40
0
 41
0
  0
VERTEX
  8
0
 10
3.52576
 20
0.0802951
 30
0.0
 40
0
 41
0
  0
VERTEX
  8
0
 10
3.45025
 20
0.106282
 30
0.0
 40
0
 41
0
  0
VERTEX
  8
0
 10
3.38997
 20
0.158692
 30
0.0
 40
0
 41
0
  0
VERTEX
  8
0
 10
3.3584
 20
0.213217
 30
0.0
 40
0
 41
0
  0
VERTEX
  8
0
 10
3.35319
 20
0.232747
 30
0.0
 40
0
 41
0
  0
VERTEX
  8
0
 10
2.92182
 20
1.84261
 30
0.0
 40
0
 41
0
  0
VERTEX
  8
0
 10
2.91656
 20
1.86219
 30
0.0
 40
0
 41
0
  0
VERTEX
  8
0
 10
2.91661
 20
1.92524
 30
0.0
 40
0
 41
0
  0
VERTEX
  8
0
 10
2.9426
 20
2.00076
 30
0.0
 40
0
 41
0
  0
VERTEX
  8
0
 10
2.99501
 20
2.06104
 30
0.0
 40
0
 41
0
  0
VERTEX
  8
0
 10
3.04953
 20
2.09256
 30
0.0
 40
0
 41
0
  0
VERTEX
  8
0
 10
3.06913
 20
2.09776
 30
0.0
 40
0
 41
0
  0
VERTEX
  8
0
 10
3.08871
 20
2.10303
 30
0.0
 40
0
 41
0
  0
VERTEX
  8
0
 10
3.15169
 20
2.10297
 30
0.0
 40
0
 41
0
  0
VERTEX
  8
0
 10
3.22721
 20
2.07699
 30
0.0
 40
0
 41
0
  0
VERTEX
  8
0
 10
3.28749
 20
2.02458
 30
0.0
 40
0
 41
0
  0
VERTEX
  8
0
 10
3.31907
 20
1.97006
 30
0.0
 40
0
 41
0
  0
VERTEX
  8
0
 10
3.32433
 20
1.95047
 30
0.0
 40
0
 41
0
  0
VERTEX
  8
0
 10
3.52106
 20
1.2162
 30
0.0
 40
0
 41
0
  0
VERTEX
  8
0
 10
3.67671
 20
1.48579
 30
0.0
 40
0
 41
0
  0
VERTEX
  8
0
 10
3.6779
 20
1.48856
 30
0.0
 40
0
 41
0
  0
VERTEX
  8
0
 10
3.68153
 20
1.49681
 30
0.0
 40
0
 41
0
  0
VERTEX
  8
0
 10
3.68414
 20
1.5019
 30
0.0
 40
0
 41
0
  0
VERTEX
  8
0
 10
3.68832
 20
1.50814
 30
0.0
 40
0
 41
0
  0
VERTEX
  8
0
 10
3.69547
 20
1.51878
 30
0.0
 40
0
 41
0
  0
VERTEX
  8
0
 10
3.69781
 20
1.52235
 30
0.0
 40
0
 41
0
  0
VERTEX
  8
0
 10
4.15782
 20
2.31907
 30
0.0
 40
0
 41
0
  0
VERTEX
  8
0
 10
4.16379
 20
2.32904
 30
0.0
 40
0
 41
0
  0
VERTEX
  8
0
 10
4.18571
 20
2.35661
 30
0.0
 40
0
 41
0
  0
VERTEX
  8
0
 10
4.22032
 20
2.38732
 30
0.0
 40
0
 41
0
  0
VERTEX
  8
0
 10
4.26058
 20
2.40994
 30
0.0
 40
0
 41
0
  0
VERTEX
  8
0
 10
4.29406
 20
2.42128
 30
0.0
 40
0
 41
0
  0
VERTEX
  8
0
 10
4.30556
 20
2.42329
 30
0.0
 40
0
 41
0
  0
VERTEX
  8
0
 10
4.30886
 20
2.42389
 30
0.0
 40
0
 41
0
  0
VERTEX
  8
0
 10
4.34239
 20
2.42626
 30
0.0
 40
0
 41
0
  0
VERTEX
  8
0
 10
4.34576
 20
2.42654
 30
0.0
 40
0
 41
0
  0
SEQEND
 8
0
  0
ENDSEC
  0
EOF
