<?xml version="1.0" encoding="UTF-8"?>
<!DOCTYPE svg PUBLIC "-//W3C//DTD SVG 1.1//EN" "http://www.w3.org/Graphics/SVG/1.1/DTD/svg11.dtd">
<svg version="1.1" xmlns="http://www.w3.org/2000/svg" xmlns:xlink="http://www.w3.org/1999/xlink" x="0" y="0" width="480" height="240" viewBox="0, 0, 480, 240">
  <g id="Layer_1">
    <path d="M199.809,193.415 L279.809,193.415 C290.855,193.415 299.809,202.369 299.809,213.415 L299.809,213.415 C299.809,224.461 290.855,233.415 279.809,233.415 L199.809,233.415 C188.763,233.415 179.809,224.461 179.809,213.415 L179.809,213.415 C179.809,202.369 188.763,193.415 199.809,193.415 z" fill="#000000"/>
    <path d="M219.809,113.415 L259.809,113.415 C270.855,113.415 279.809,122.369 279.809,133.415 L279.809,133.415 C279.809,144.461 270.855,153.415 259.809,153.415 L219.809,153.415 C208.763,153.415 199.809,144.461 199.809,133.415 L199.809,133.415 C199.809,122.369 208.763,113.415 219.809,113.415 z" fill="#000000"/>
    <path d="M239.809,33.415 L239.809,33.415 C250.855,33.415 259.809,42.369 259.809,53.415 L259.809,53.415 C259.809,64.461 250.855,73.415 239.809,73.415 L239.809,73.415 C228.763,73.415 219.809,64.461 219.809,53.415 L219.809,53.415 C219.809,42.369 228.763,33.415 239.809,33.415 z" fill="#000000"/>
    <g>
      <path d="M63.092,6.6 C67.749,6.883 65.77,6.563 69.07,7.271 C75.714,9.111 80.597,13.959 82.82,20.403 C83.402,21.349 82.931,20.561 83.991,22.897 L134.749,148.526 L160.486,52.472 C163.345,41.802 174.311,35.471 184.981,38.33 C195.65,41.188 201.982,52.155 199.123,62.825 L158.003,216.286 C157.292,223.202 152.95,228.786 146.791,231.722 C143.613,232.984 140.219,233.214 136.861,232.593 C135.783,232.394 134.766,231.946 133.718,231.622 L133.217,231.515 C126.027,229.409 119.857,223.463 118.796,215.822 L67.749,89.475 L41.801,186.314 C38.942,196.984 27.975,203.315 17.306,200.456 C6.636,197.598 0.305,186.631 3.164,175.962 L44.575,21.413 C45.992,16.227 49.313,12.019 53.939,9.348 C54.826,8.708 54.33,9.01 55.449,8.477 C55.634,8.369 55.545,8.409 55.715,8.35 L56.409,8.019 C58.466,7.33 57.676,7.466 58.71,7.317 C60.463,6.712 59.052,7.161 63.092,6.6 z" fill="#000000"/>
    </g>
    <g>
      <path d="M417.193,7.053 C420.61,7.058 423.691,8.159 426.681,9.685 C436.246,15.208 439.43,27.603 433.791,37.37 L397.289,100.592 L473.302,169.033 C479.618,174.72 478.746,185.985 471.355,194.193 C463.964,202.402 452.852,204.446 446.536,198.759 L376.842,136.007 L352.662,177.888 L360.544,207.303 C363.403,217.972 357.071,228.939 346.402,231.798 C335.732,234.657 324.766,228.325 321.907,217.656 L280.496,63.108 C277.637,52.438 283.969,41.471 294.638,38.613 C305.307,35.754 316.274,42.085 319.133,52.755 L338.021,123.247 L352.966,97.362 C353.89,95.285 353.276,96.488 354.991,93.854 L399.15,17.37 C402.255,12.179 407.326,8.431 413.332,7.362 C414.603,7.136 415.906,7.156 417.193,7.053 z" fill="#000000"/>
    </g>
  </g>
</svg>
