  0
SECTION
  2
HEADER
  9
$ACADVER
  1
AC1009
  9
$EXTMIN
 10
0.0
 20
0.0
 30
0.0
  9
$EXTMAX
 10
1000.0
 20
1000.0
 30
0.0
  9
$FILLMODE
 70
 0
  9
$SPLFRAME
 70
 1
  0
ENDSEC
  0
SECTION
  2
TABLES
  0
TABLE
  2
LAYER
 70
1
  0
LAYER
  2
0
 70
     0
 62
     7
  6
CONTINUOUS
  0
ENDTAB
  0
ENDSEC
  0
SECTION
  2
ENTITIES
  0
LINE
  8
0
 62
     0
 10
256.432
 20
159.155
 30
0.0
 11
257.021
 21
159.133
 31
0.0
  0
LINE
  8
0
 62
     0
 10
257.021
 20
159.133
 30
0.0
 11
257.606
 21
159.063
 31
0.0
  0
LINE
  8
0
 62
     0
 10
257.606
 20
159.063
 30
0.0
 11
258.184
 21
158.949
 31
0.0
  0
LINE
  8
0
 62
     0
 10
258.184
 20
158.949
 30
0.0
 11
258.75
 21
158.788
 31
0.0
  0
LINE
  8
0
 62
     0
 10
258.75
 20
158.788
 30
0.0
 11
259.303
 21
158.586
 31
0.0
  0
LINE
  8
0
 62
     0
 10
259.303
 20
158.586
 30
0.0
 11
259.837
 21
158.338
 31
0.0
  0
LINE
  8
0
 62
     0
 10
259.837
 20
158.338
 30
0.0
 11
260.351
 21
158.05
 31
0.0
  0
LINE
  8
0
 62
     0
 10
260.351
 20
158.05
 30
0.0
 11
260.841
 21
157.723
 31
0.0
  0
LINE
  8
0
 62
     0
 10
260.841
 20
157.723
 30
0.0
 11
261.304
 21
157.36
 31
0.0
  0
LINE
  8
0
 62
     0
 10
261.304
 20
157.36
 30
0.0
 11
261.736
 21
156.96
 31
0.0
  0
LINE
  8
0
 62
     0
 10
261.736
 20
156.96
 30
0.0
 11
262.136
 21
156.526
 31
0.0
  0
LINE
  8
0
 62
     0
 10
262.136
 20
156.526
 30
0.0
 11
262.501
 21
156.066
 31
0.0
  0
LINE
  8
0
 62
     0
 10
262.501
 20
156.066
 30
0.0
 11
262.828
 21
155.575
 31
0.0
  0
LINE
  8
0
 62
     0
 10
262.828
 20
155.575
 30
0.0
 11
263.116
 21
155.061
 31
0.0
  0
LINE
  8
0
 62
     0
 10
263.116
 20
155.061
 30
0.0
 11
263.362
 21
154.526
 31
0.0
  0
LINE
  8
0
 62
     0
 10
263.362
 20
154.526
 30
0.0
 11
263.566
 21
153.974
 31
0.0
  0
LINE
  8
0
 62
     0
 10
263.566
 20
153.974
 30
0.0
 11
263.726
 21
153.406
 31
0.0
  0
LINE
  8
0
 62
     0
 10
263.726
 20
153.406
 30
0.0
 11
263.841
 21
152.83
 31
0.0
  0
LINE
  8
0
 62
     0
 10
263.841
 20
152.83
 30
0.0
 11
263.91
 21
152.244
 31
0.0
  0
LINE
  8
0
 62
     0
 10
263.91
 20
152.244
 30
0.0
 11
263.933
 21
151.656
 31
0.0
  0
LINE
  8
0
 62
     0
 10
263.933
 20
151.656
 30
0.0
 11
263.933
 21
7.59298
 31
0.0
  0
LINE
  8
0
 62
     0
 10
263.933
 20
7.59298
 30
0.0
 11
263.91
 21
7.00458
 31
0.0
  0
LINE
  8
0
 62
     0
 10
263.91
 20
7.00458
 30
0.0
 11
263.841
 21
6.4189
 31
0.0
  0
LINE
  8
0
 62
     0
 10
263.841
 20
6.4189
 30
0.0
 11
263.726
 21
5.84151
 31
0.0
  0
LINE
  8
0
 62
     0
 10
263.726
 20
5.84151
 30
0.0
 11
263.566
 21
5.27512
 31
0.0
  0
LINE
  8
0
 62
     0
 10
263.566
 20
5.27512
 30
0.0
 11
263.362
 21
4.72253
 31
0.0
  0
LINE
  8
0
 62
     0
 10
263.362
 20
4.72253
 30
0.0
 11
263.116
 21
4.18786
 31
0.0
  0
LINE
  8
0
 62
     0
 10
263.116
 20
4.18786
 30
0.0
 11
262.828
 21
3.67386
 31
0.0
  0
LINE
  8
0
 62
     0
 10
262.828
 20
3.67386
 30
0.0
 11
262.501
 21
3.18464
 31
0.0
  0
LINE
  8
0
 62
     0
 10
262.501
 20
3.18464
 30
0.0
 11
262.136
 21
2.72162
 31
0.0
  0
LINE
  8
0
 62
     0
 10
262.136
 20
2.72162
 30
0.0
 11
261.736
 21
2.28892
 31
0.0
  0
LINE
  8
0
 62
     0
 10
261.736
 20
2.28892
 30
0.0
 11
261.304
 21
1.88929
 31
0.0
  0
LINE
  8
0
 62
     0
 10
261.304
 20
1.88929
 30
0.0
 11
260.841
 21
1.52411
 31
0.0
  0
LINE
  8
0
 62
     0
 10
260.841
 20
1.52411
 30
0.0
 11
260.351
 21
1.19751
 31
0.0
  0
LINE
  8
0
 62
     0
 10
260.351
 20
1.19751
 30
0.0
 11
259.837
 21
0.909507
 31
0.0
  0
LINE
  8
0
 62
     0
 10
259.837
 20
0.909507
 30
0.0
 11
259.303
 21
0.662838
 31
0.0
  0
LINE
  8
0
 62
     0
 10
259.303
 20
0.662838
 30
0.0
 11
258.75
 21
0.458886
 31
0.0
  0
LINE
  8
0
 62
     0
 10
258.75
 20
0.458886
 30
0.0
 11
258.184
 21
0.299034
 31
0.0
  0
LINE
  8
0
 62
     0
 10
258.184
 20
0.299034
 30
0.0
 11
257.606
 21
0.184657
 31
0.0
  0
LINE
  8
0
 62
     0
 10
257.606
 20
0.184657
 30
0.0
 11
257.021
 21
0.115755
 31
0.0
  0
LINE
  8
0
 62
     0
 10
257.021
 20
0.115755
 30
0.0
 11
256.432
 21
0.0923286
 31
0.0
  0
LINE
  8
0
 62
     0
 10
256.432
 20
0.0923286
 30
0.0
 11
7.59435
 21
0.0923286
 31
0.0
  0
LINE
  8
0
 62
     0
 10
7.59435
 20
0.0923286
 30
0.0
 11
7.00595
 21
0.115755
 31
0.0
  0
LINE
  8
0
 62
     0
 10
7.00595
 20
0.115755
 30
0.0
 11
6.42027
 21
0.184657
 31
0.0
  0
LINE
  8
0
 62
     0
 10
6.42027
 20
0.184657
 30
0.0
 11
5.84426
 21
0.299034
 31
0.0
  0
LINE
  8
0
 62
     0
 10
5.84426
 20
0.299034
 30
0.0
 11
5.2765
 21
0.458886
 31
0.0
  0
LINE
  8
0
 62
     0
 10
5.2765
 20
0.458886
 30
0.0
 11
4.72391
 21
0.662838
 31
0.0
  0
LINE
  8
0
 62
     0
 10
4.72391
 20
0.662838
 30
0.0
 11
4.18924
 21
0.909507
 31
0.0
  0
LINE
  8
0
 62
     0
 10
4.18924
 20
0.909507
 30
0.0
 11
3.67524
 21
1.19751
 31
0.0
  0
LINE
  8
0
 62
     0
 10
3.67524
 20
1.19751
 30
0.0
 11
3.18464
 21
1.52411
 31
0.0
  0
LINE
  8
0
 62
     0
 10
3.18464
 20
1.52411
 30
0.0
 11
2.72438
 21
1.88929
 31
0.0
  0
LINE
  8
0
 62
     0
 10
2.72438
 20
1.88929
 30
0.0
 11
2.2903
 21
2.28892
 31
0.0
  0
LINE
  8
0
 62
     0
 10
2.2903
 20
2.28892
 30
0.0
 11
1.89067
 21
2.72162
 31
0.0
  0
LINE
  8
0
 62
     0
 10
1.89067
 20
2.72162
 30
0.0
 11
1.52687
 21
3.18464
 31
0.0
  0
LINE
  8
0
 62
     0
 10
1.52687
 20
3.18464
 30
0.0
 11
1.20027
 21
3.67386
 31
0.0
  0
LINE
  8
0
 62
     0
 10
1.20027
 20
3.67386
 30
0.0
 11
0.912262
 21
4.18786
 31
0.0
  0
LINE
  8
0
 62
     0
 10
0.912262
 20
4.18786
 30
0.0
 11
0.664214
 21
4.72253
 31
0.0
  0
LINE
  8
0
 62
     0
 10
0.664214
 20
4.72253
 30
0.0
 11
0.461641
 21
5.27512
 31
0.0
  0
LINE
  8
0
 62
     0
 10
0.461641
 20
5.27512
 30
0.0
 11
0.30179
 21
5.84151
 31
0.0
  0
LINE
  8
0
 62
     0
 10
0.30179
 20
5.84151
 30
0.0
 11
0.187413
 21
6.4189
 31
0.0
  0
LINE
  8
0
 62
     0
 10
0.187413
 20
6.4189
 30
0.0
 11
0.117133
 21
7.00458
 31
0.0
  0
LINE
  8
0
 62
     0
 10
0.117133
 20
7.00458
 30
0.0
 11
0.0937066
 21
7.59298
 31
0.0
  0
LINE
  8
0
 62
     0
 10
0.0937066
 20
7.59298
 30
0.0
 11
0.0950846
 21
151.656
 31
0.0
  0
LINE
  8
0
 62
     0
 10
0.0950846
 20
151.656
 30
0.0
 11
0.117133
 21
152.244
 31
0.0
  0
LINE
  8
0
 62
     0
 10
0.117133
 20
152.244
 30
0.0
 11
0.187413
 21
152.83
 31
0.0
  0
LINE
  8
0
 62
     0
 10
0.187413
 20
152.83
 30
0.0
 11
0.30179
 21
153.406
 31
0.0
  0
LINE
  8
0
 62
     0
 10
0.30179
 20
153.406
 30
0.0
 11
0.461641
 21
153.974
 31
0.0
  0
LINE
  8
0
 62
     0
 10
0.461641
 20
153.974
 30
0.0
 11
0.664214
 21
154.526
 31
0.0
  0
LINE
  8
0
 62
     0
 10
0.664214
 20
154.526
 30
0.0
 11
0.912262
 21
155.061
 31
0.0
  0
LINE
  8
0
 62
     0
 10
0.912262
 20
155.061
 30
0.0
 11
1.20027
 21
155.575
 31
0.0
  0
LINE
  8
0
 62
     0
 10
1.20027
 20
155.575
 30
0.0
 11
1.52687
 21
156.066
 31
0.0
  0
LINE
  8
0
 62
     0
 10
1.52687
 20
156.066
 30
0.0
 11
1.89067
 21
156.526
 31
0.0
  0
LINE
  8
0
 62
     0
 10
1.89067
 20
156.526
 30
0.0
 11
2.2903
 21
156.96
 31
0.0
  0
LINE
  8
0
 62
     0
 10
2.2903
 20
156.96
 30
0.0
 11
2.72438
 21
157.36
 31
0.0
  0
LINE
  8
0
 62
     0
 10
2.72438
 20
157.36
 30
0.0
 11
3.18464
 21
157.723
 31
0.0
  0
LINE
  8
0
 62
     0
 10
3.18464
 20
157.723
 30
0.0
 11
3.67524
 21
158.05
 31
0.0
  0
LINE
  8
0
 62
     0
 10
3.67524
 20
158.05
 30
0.0
 11
4.18924
 21
158.338
 31
0.0
  0
LINE
  8
0
 62
     0
 10
4.18924
 20
158.338
 30
0.0
 11
4.72391
 21
158.586
 31
0.0
  0
LINE
  8
0
 62
     0
 10
4.72391
 20
158.586
 30
0.0
 11
5.2765
 21
158.788
 31
0.0
  0
LINE
  8
0
 62
     0
 10
5.2765
 20
158.788
 30
0.0
 11
5.84426
 21
158.949
 31
0.0
  0
LINE
  8
0
 62
     0
 10
5.84426
 20
158.949
 30
0.0
 11
6.42027
 21
159.063
 31
0.0
  0
LINE
  8
0
 62
     0
 10
6.42027
 20
159.063
 30
0.0
 11
7.00595
 21
159.133
 31
0.0
  0
LINE
  8
0
 62
     0
 10
7.00595
 20
159.133
 30
0.0
 11
7.59435
 21
159.156
 31
0.0
  0
LINE
  8
0
 62
     0
 10
7.59435
 20
159.156
 30
0.0
 11
256.432
 21
159.155
 31
0.0
  0
LINE
  8
0
 62
     0
 10
253.005
 20
12.9453
 30
0.0
 11
252.17
 21
12.5195
 31
0.0
  0
LINE
  8
0
 62
     0
 10
252.17
 20
12.5195
 30
0.0
 11
251.506
 21
11.8553
 31
0.0
  0
LINE
  8
0
 62
     0
 10
251.506
 20
11.8553
 30
0.0
 11
251.08
 21
11.0188
 31
0.0
  0
LINE
  8
0
 62
     0
 10
251.08
 20
11.0188
 30
0.0
 11
250.933
 21
10.0928
 31
0.0
  0
LINE
  8
0
 62
     0
 10
250.933
 20
10.0928
 30
0.0
 11
251.08
 21
9.16534
 31
0.0
  0
LINE
  8
0
 62
     0
 10
251.08
 20
9.16534
 30
0.0
 11
251.506
 21
8.32887
 31
0.0
  0
LINE
  8
0
 62
     0
 10
251.506
 20
8.32887
 30
0.0
 11
252.17
 21
7.66604
 31
0.0
  0
LINE
  8
0
 62
     0
 10
252.17
 20
7.66604
 30
0.0
 11
253.005
 21
7.23882
 31
0.0
  0
LINE
  8
0
 62
     0
 10
253.005
 20
7.23882
 30
0.0
 11
253.933
 21
7.09277
 31
0.0
  0
LINE
  8
0
 62
     0
 10
253.933
 20
7.09277
 30
0.0
 11
254.86
 21
7.23882
 31
0.0
  0
LINE
  8
0
 62
     0
 10
254.86
 20
7.23882
 30
0.0
 11
255.697
 21
7.66604
 31
0.0
  0
LINE
  8
0
 62
     0
 10
255.697
 20
7.66604
 30
0.0
 11
256.359
 21
8.32887
 31
0.0
  0
LINE
  8
0
 62
     0
 10
256.359
 20
8.32887
 30
0.0
 11
256.785
 21
9.16534
 31
0.0
  0
LINE
  8
0
 62
     0
 10
256.785
 20
9.16534
 30
0.0
 11
256.933
 21
10.0928
 31
0.0
  0
LINE
  8
0
 62
     0
 10
256.933
 20
10.0928
 30
0.0
 11
256.785
 21
11.0188
 31
0.0
  0
LINE
  8
0
 62
     0
 10
256.785
 20
11.0188
 30
0.0
 11
256.359
 21
11.8553
 31
0.0
  0
LINE
  8
0
 62
     0
 10
256.359
 20
11.8553
 30
0.0
 11
255.697
 21
12.5195
 31
0.0
  0
LINE
  8
0
 62
     0
 10
255.697
 20
12.5195
 30
0.0
 11
254.86
 21
12.9453
 31
0.0
  0
LINE
  8
0
 62
     0
 10
254.86
 20
12.9453
 30
0.0
 11
253.933
 21
13.0927
 31
0.0
  0
LINE
  8
0
 62
     0
 10
253.933
 20
13.0927
 30
0.0
 11
253.005
 21
12.9453
 31
0.0
  0
LINE
  8
0
 62
     0
 10
9.16672
 20
12.9453
 30
0.0
 11
8.33025
 21
12.5195
 31
0.0
  0
LINE
  8
0
 62
     0
 10
8.33025
 20
12.5195
 30
0.0
 11
7.66741
 21
11.8553
 31
0.0
  0
LINE
  8
0
 62
     0
 10
7.66741
 20
11.8553
 30
0.0
 11
7.2402
 21
11.0188
 31
0.0
  0
LINE
  8
0
 62
     0
 10
7.2402
 20
11.0188
 30
0.0
 11
7.09415
 21
10.0928
 31
0.0
  0
LINE
  8
0
 62
     0
 10
7.09415
 20
10.0928
 30
0.0
 11
7.2402
 21
9.16534
 31
0.0
  0
LINE
  8
0
 62
     0
 10
7.2402
 20
9.16534
 30
0.0
 11
7.66741
 21
8.32887
 31
0.0
  0
LINE
  8
0
 62
     0
 10
7.66741
 20
8.32887
 30
0.0
 11
8.33025
 21
7.66604
 31
0.0
  0
LINE
  8
0
 62
     0
 10
8.33025
 20
7.66604
 30
0.0
 11
9.16672
 21
7.23882
 31
0.0
  0
LINE
  8
0
 62
     0
 10
9.16672
 20
7.23882
 30
0.0
 11
10.0941
 21
7.09277
 31
0.0
  0
LINE
  8
0
 62
     0
 10
10.0941
 20
7.09277
 30
0.0
 11
11.0216
 21
7.23882
 31
0.0
  0
LINE
  8
0
 62
     0
 10
11.0216
 20
7.23882
 30
0.0
 11
11.858
 21
7.66604
 31
0.0
  0
LINE
  8
0
 62
     0
 10
11.858
 20
7.66604
 30
0.0
 11
12.5222
 21
8.32887
 31
0.0
  0
LINE
  8
0
 62
     0
 10
12.5222
 20
8.32887
 30
0.0
 11
12.948
 21
9.16534
 31
0.0
  0
LINE
  8
0
 62
     0
 10
12.948
 20
9.16534
 30
0.0
 11
13.0941
 21
10.0928
 31
0.0
  0
LINE
  8
0
 62
     0
 10
13.0941
 20
10.0928
 30
0.0
 11
12.948
 21
11.0188
 31
0.0
  0
LINE
  8
0
 62
     0
 10
12.948
 20
11.0188
 30
0.0
 11
12.5222
 21
11.8553
 31
0.0
  0
LINE
  8
0
 62
     0
 10
12.5222
 20
11.8553
 30
0.0
 11
11.858
 21
12.5195
 31
0.0
  0
LINE
  8
0
 62
     0
 10
11.858
 20
12.5195
 30
0.0
 11
11.0216
 21
12.9453
 31
0.0
  0
LINE
  8
0
 62
     0
 10
11.0216
 20
12.9453
 30
0.0
 11
10.0941
 21
13.0927
 31
0.0
  0
LINE
  8
0
 62
     0
 10
10.0941
 20
13.0927
 30
0.0
 11
9.16672
 21
12.9453
 31
0.0
  0
LINE
  8
0
 62
     0
 10
20.0945
 20
139.156
 30
0.0
 11
243.933
 21
139.156
 31
0.0
  0
LINE
  8
0
 62
     0
 10
243.933
 20
139.156
 30
0.0
 11
243.933
 21
20.0918
 31
0.0
  0
LINE
  8
0
 62
     0
 10
243.933
 20
20.0918
 30
0.0
 11
20.0945
 21
20.0918
 31
0.0
  0
LINE
  8
0
 62
     0
 10
20.0945
 20
20.0918
 30
0.0
 11
20.0945
 21
139.156
 31
0.0
  0
LINE
  8
0
 62
     0
 10
253.005
 20
152.01
 30
0.0
 11
252.17
 21
151.583
 31
0.0
  0
LINE
  8
0
 62
     0
 10
252.17
 20
151.583
 30
0.0
 11
251.506
 21
150.92
 31
0.0
  0
LINE
  8
0
 62
     0
 10
251.506
 20
150.92
 30
0.0
 11
251.08
 21
150.084
 31
0.0
  0
LINE
  8
0
 62
     0
 10
251.08
 20
150.084
 30
0.0
 11
250.933
 21
149.156
 31
0.0
  0
LINE
  8
0
 62
     0
 10
250.933
 20
149.156
 30
0.0
 11
251.08
 21
148.229
 31
0.0
  0
LINE
  8
0
 62
     0
 10
251.08
 20
148.229
 30
0.0
 11
251.506
 21
147.392
 31
0.0
  0
LINE
  8
0
 62
     0
 10
251.506
 20
147.392
 30
0.0
 11
252.17
 21
146.728
 31
0.0
  0
LINE
  8
0
 62
     0
 10
252.17
 20
146.728
 30
0.0
 11
253.005
 21
146.302
 31
0.0
  0
LINE
  8
0
 62
     0
 10
253.005
 20
146.302
 30
0.0
 11
253.933
 21
146.156
 31
0.0
  0
LINE
  8
0
 62
     0
 10
253.933
 20
146.156
 30
0.0
 11
254.86
 21
146.302
 31
0.0
  0
LINE
  8
0
 62
     0
 10
254.86
 20
146.302
 30
0.0
 11
255.697
 21
146.728
 31
0.0
  0
LINE
  8
0
 62
     0
 10
255.697
 20
146.728
 30
0.0
 11
256.359
 21
147.392
 31
0.0
  0
LINE
  8
0
 62
     0
 10
256.359
 20
147.392
 30
0.0
 11
256.785
 21
148.229
 31
0.0
  0
LINE
  8
0
 62
     0
 10
256.785
 20
148.229
 30
0.0
 11
256.933
 21
149.156
 31
0.0
  0
LINE
  8
0
 62
     0
 10
256.933
 20
149.156
 30
0.0
 11
256.785
 21
150.084
 31
0.0
  0
LINE
  8
0
 62
     0
 10
256.785
 20
150.084
 30
0.0
 11
256.359
 21
150.92
 31
0.0
  0
LINE
  8
0
 62
     0
 10
256.359
 20
150.92
 30
0.0
 11
255.697
 21
151.583
 31
0.0
  0
LINE
  8
0
 62
     0
 10
255.697
 20
151.583
 30
0.0
 11
254.86
 21
152.01
 31
0.0
  0
LINE
  8
0
 62
     0
 10
254.86
 20
152.01
 30
0.0
 11
253.933
 21
152.156
 31
0.0
  0
LINE
  8
0
 62
     0
 10
253.933
 20
152.156
 30
0.0
 11
253.005
 21
152.01
 31
0.0
  0
LINE
  8
0
 62
     0
 10
9.16672
 20
152.01
 30
0.0
 11
8.33025
 21
151.583
 31
0.0
  0
LINE
  8
0
 62
     0
 10
8.33025
 20
151.583
 30
0.0
 11
7.66741
 21
150.92
 31
0.0
  0
LINE
  8
0
 62
     0
 10
7.66741
 20
150.92
 30
0.0
 11
7.2402
 21
150.084
 31
0.0
  0
LINE
  8
0
 62
     0
 10
7.2402
 20
150.084
 30
0.0
 11
7.09415
 21
149.156
 31
0.0
  0
LINE
  8
0
 62
     0
 10
7.09415
 20
149.156
 30
0.0
 11
7.2402
 21
148.229
 31
0.0
  0
LINE
  8
0
 62
     0
 10
7.2402
 20
148.229
 30
0.0
 11
7.66741
 21
147.392
 31
0.0
  0
LINE
  8
0
 62
     0
 10
7.66741
 20
147.392
 30
0.0
 11
8.33025
 21
146.728
 31
0.0
  0
LINE
  8
0
 62
     0
 10
8.33025
 20
146.728
 30
0.0
 11
9.16672
 21
146.302
 31
0.0
  0
LINE
  8
0
 62
     0
 10
9.16672
 20
146.302
 30
0.0
 11
10.0941
 21
146.156
 31
0.0
  0
LINE
  8
0
 62
     0
 10
10.0941
 20
146.156
 30
0.0
 11
11.0216
 21
146.302
 31
0.0
  0
LINE
  8
0
 62
     0
 10
11.0216
 20
146.302
 30
0.0
 11
11.858
 21
146.728
 31
0.0
  0
LINE
  8
0
 62
     0
 10
11.858
 20
146.728
 30
0.0
 11
12.5222
 21
147.392
 31
0.0
  0
LINE
  8
0
 62
     0
 10
12.5222
 20
147.392
 30
0.0
 11
12.948
 21
148.229
 31
0.0
  0
LINE
  8
0
 62
     0
 10
12.948
 20
148.229
 30
0.0
 11
13.0941
 21
149.156
 31
0.0
  0
LINE
  8
0
 62
     0
 10
13.0941
 20
149.156
 30
0.0
 11
12.948
 21
150.084
 31
0.0
  0
LINE
  8
0
 62
     0
 10
12.948
 20
150.084
 30
0.0
 11
12.5222
 21
150.92
 31
0.0
  0
LINE
  8
0
 62
     0
 10
12.5222
 20
150.92
 30
0.0
 11
11.858
 21
151.583
 31
0.0
  0
LINE
  8
0
 62
     0
 10
11.858
 20
151.583
 30
0.0
 11
11.0216
 21
152.01
 31
0.0
  0
LINE
  8
0
 62
     0
 10
11.0216
 20
152.01
 30
0.0
 11
10.0941
 21
152.156
 31
0.0
  0
LINE
  8
0
 62
     0
 10
10.0941
 20
152.156
 30
0.0
 11
9.16672
 21
152.01
 31
0.0
  0
ENDSEC
  0
EOF
