  0
SECTION
  2
HEADER
  9
$ACADVER
  1
AC1009
  9
$EXTMIN
 10
0.0
 20
0.0
 30
0.0
  9
$EXTMAX
 10
1000.0
 20
1000.0
 30
0.0
  9
$FILLMODE
 70
 0
  9
$SPLFRAME
 70
 1
  0
ENDSEC
  0
SECTION
  2
TABLES
  0
TABLE
  2
LAYER
 70
1
  0
LAYER
  2
0
 70
     0
 62
     7
  6
CONTINUOUS
  0
ENDTAB
  0
ENDSEC
  0
SECTION
  2
ENTITIES
  0
LINE
  8
0
 62
     0
 10
220.358
 20
146.874
 30
0.0
 11
220.749
 21
146.859
 31
0.0
  0
LINE
  8
0
 62
     0
 10
220.749
 20
146.859
 30
0.0
 11
221.139
 21
146.813
 31
0.0
  0
LINE
  8
0
 62
     0
 10
221.139
 20
146.813
 30
0.0
 11
221.525
 21
146.736
 31
0.0
  0
LINE
  8
0
 62
     0
 10
221.525
 20
146.736
 30
0.0
 11
221.903
 21
146.63
 31
0.0
  0
LINE
  8
0
 62
     0
 10
221.903
 20
146.63
 30
0.0
 11
222.271
 21
146.494
 31
0.0
  0
LINE
  8
0
 62
     0
 10
222.271
 20
146.494
 30
0.0
 11
222.627
 21
146.33
 31
0.0
  0
LINE
  8
0
 62
     0
 10
222.627
 20
146.33
 30
0.0
 11
222.969
 21
146.138
 31
0.0
  0
LINE
  8
0
 62
     0
 10
222.969
 20
146.138
 30
0.0
 11
223.297
 21
145.921
 31
0.0
  0
LINE
  8
0
 62
     0
 10
223.297
 20
145.921
 30
0.0
 11
223.605
 21
145.678
 31
0.0
  0
LINE
  8
0
 62
     0
 10
223.605
 20
145.678
 30
0.0
 11
223.894
 21
145.411
 31
0.0
  0
LINE
  8
0
 62
     0
 10
223.894
 20
145.411
 30
0.0
 11
224.16
 21
145.123
 31
0.0
  0
LINE
  8
0
 62
     0
 10
224.16
 20
145.123
 30
0.0
 11
224.403
 21
144.814
 31
0.0
  0
LINE
  8
0
 62
     0
 10
224.403
 20
144.814
 30
0.0
 11
224.62
 21
144.487
 31
0.0
  0
LINE
  8
0
 62
     0
 10
224.62
 20
144.487
 30
0.0
 11
224.813
 21
144.144
 31
0.0
  0
LINE
  8
0
 62
     0
 10
224.813
 20
144.144
 30
0.0
 11
224.977
 21
143.789
 31
0.0
  0
LINE
  8
0
 62
     0
 10
224.977
 20
143.789
 30
0.0
 11
225.112
 21
143.421
 31
0.0
  0
LINE
  8
0
 62
     0
 10
225.112
 20
143.421
 30
0.0
 11
225.22
 21
143.042
 31
0.0
  0
LINE
  8
0
 62
     0
 10
225.22
 20
143.042
 30
0.0
 11
225.296
 21
142.657
 31
0.0
  0
LINE
  8
0
 62
     0
 10
225.296
 20
142.657
 30
0.0
 11
225.342
 21
142.267
 31
0.0
  0
LINE
  8
0
 62
     0
 10
225.342
 20
142.267
 30
0.0
 11
225.358
 21
141.875
 31
0.0
  0
LINE
  8
0
 62
     0
 10
225.358
 20
141.875
 30
0.0
 11
225.358
 21
5.09736
 31
0.0
  0
LINE
  8
0
 62
     0
 10
225.358
 20
5.09736
 30
0.0
 11
225.342
 21
4.70598
 31
0.0
  0
LINE
  8
0
 62
     0
 10
225.342
 20
4.70598
 30
0.0
 11
225.296
 21
4.31602
 31
0.0
  0
LINE
  8
0
 62
     0
 10
225.296
 20
4.31602
 30
0.0
 11
225.22
 21
3.93016
 31
0.0
  0
LINE
  8
0
 62
     0
 10
225.22
 20
3.93016
 30
0.0
 11
225.112
 21
3.55258
 31
0.0
  0
LINE
  8
0
 62
     0
 10
225.112
 20
3.55258
 30
0.0
 11
224.977
 21
3.18464
 31
0.0
  0
LINE
  8
0
 62
     0
 10
224.977
 20
3.18464
 30
0.0
 11
224.813
 21
2.82774
 31
0.0
  0
LINE
  8
0
 62
     0
 10
224.813
 20
2.82774
 30
0.0
 11
224.62
 21
2.48598
 31
0.0
  0
LINE
  8
0
 62
     0
 10
224.62
 20
2.48598
 30
0.0
 11
224.403
 21
2.15801
 31
0.0
  0
LINE
  8
0
 62
     0
 10
224.403
 20
2.15801
 30
0.0
 11
224.16
 21
1.8507
 31
0.0
  0
LINE
  8
0
 62
     0
 10
224.16
 20
1.8507
 30
0.0
 11
223.894
 21
1.56132
 31
0.0
  0
LINE
  8
0
 62
     0
 10
223.894
 20
1.56132
 30
0.0
 11
223.605
 21
1.29536
 31
0.0
  0
LINE
  8
0
 62
     0
 10
223.605
 20
1.29536
 30
0.0
 11
223.297
 21
1.05282
 31
0.0
  0
LINE
  8
0
 62
     0
 10
223.297
 20
1.05282
 30
0.0
 11
222.969
 21
0.835092
 31
0.0
  0
LINE
  8
0
 62
     0
 10
222.969
 20
0.835092
 30
0.0
 11
222.627
 21
0.642165
 31
0.0
  0
LINE
  8
0
 62
     0
 10
222.627
 20
0.642165
 30
0.0
 11
222.271
 21
0.47818
 31
0.0
  0
LINE
  8
0
 62
     0
 10
222.271
 20
0.47818
 30
0.0
 11
221.903
 21
0.341753
 31
0.0
  0
LINE
  8
0
 62
     0
 10
221.903
 20
0.341753
 30
0.0
 11
221.525
 21
0.235645
 31
0.0
  0
LINE
  8
0
 62
     0
 10
221.525
 20
0.235645
 30
0.0
 11
221.139
 21
0.159852
 31
0.0
  0
LINE
  8
0
 62
     0
 10
221.139
 20
0.159852
 30
0.0
 11
220.749
 21
0.112999
 31
0.0
  0
LINE
  8
0
 62
     0
 10
220.749
 20
0.112999
 30
0.0
 11
220.358
 21
0.0978408
 31
0.0
  0
LINE
  8
0
 62
     0
 10
220.358
 20
0.0978408
 30
0.0
 11
5.0946
 21
0.0978408
 31
0.0
  0
LINE
  8
0
 62
     0
 10
5.0946
 20
0.0978408
 30
0.0
 11
4.70186
 21
0.112999
 31
0.0
  0
LINE
  8
0
 62
     0
 10
4.70186
 20
0.112999
 30
0.0
 11
4.3119
 21
0.159852
 31
0.0
  0
LINE
  8
0
 62
     0
 10
4.3119
 20
0.159852
 30
0.0
 11
3.9274
 21
0.235645
 31
0.0
  0
LINE
  8
0
 62
     0
 10
3.9274
 20
0.235645
 30
0.0
 11
3.54845
 21
0.341753
 31
0.0
  0
LINE
  8
0
 62
     0
 10
3.54845
 20
0.341753
 30
0.0
 11
3.18051
 21
0.47818
 31
0.0
  0
LINE
  8
0
 62
     0
 10
3.18051
 20
0.47818
 30
0.0
 11
2.82498
 21
0.642165
 31
0.0
  0
LINE
  8
0
 62
     0
 10
2.82498
 20
0.642165
 30
0.0
 11
2.48185
 21
0.835092
 31
0.0
  0
LINE
  8
0
 62
     0
 10
2.48185
 20
0.835092
 30
0.0
 11
2.15525
 21
1.05282
 31
0.0
  0
LINE
  8
0
 62
     0
 10
2.15525
 20
1.05282
 30
0.0
 11
1.84657
 21
1.29536
 31
0.0
  0
LINE
  8
0
 62
     0
 10
1.84657
 20
1.29536
 30
0.0
 11
1.55856
 21
1.56132
 31
0.0
  0
LINE
  8
0
 62
     0
 10
1.55856
 20
1.56132
 30
0.0
 11
1.29122
 21
1.8507
 31
0.0
  0
LINE
  8
0
 62
     0
 10
1.29122
 20
1.8507
 30
0.0
 11
1.04869
 21
2.15801
 31
0.0
  0
LINE
  8
0
 62
     0
 10
1.04869
 20
2.15801
 30
0.0
 11
0.830957
 21
2.48598
 31
0.0
  0
LINE
  8
0
 62
     0
 10
0.830957
 20
2.48598
 30
0.0
 11
0.63941
 21
2.82774
 31
0.0
  0
LINE
  8
0
 62
     0
 10
0.63941
 20
2.82774
 30
0.0
 11
0.475424
 21
3.18464
 31
0.0
  0
LINE
  8
0
 62
     0
 10
0.475424
 20
3.18464
 30
0.0
 11
0.338998
 21
3.55258
 31
0.0
  0
LINE
  8
0
 62
     0
 10
0.338998
 20
3.55258
 30
0.0
 11
0.232888
 21
3.93016
 31
0.0
  0
LINE
  8
0
 62
     0
 10
0.232888
 20
3.93016
 30
0.0
 11
0.155718
 21
4.31602
 31
0.0
  0
LINE
  8
0
 62
     0
 10
0.155718
 20
4.31602
 30
0.0
 11
0.110243
 21
4.70598
 31
0.0
  0
LINE
  8
0
 62
     0
 10
0.110243
 20
4.70598
 30
0.0
 11
0.0937066
 21
5.09736
 31
0.0
  0
LINE
  8
0
 62
     0
 10
0.0937066
 20
5.09736
 30
0.0
 11
0.0950846
 21
141.875
 31
0.0
  0
LINE
  8
0
 62
     0
 10
0.0950846
 20
141.875
 30
0.0
 11
0.110243
 21
142.267
 31
0.0
  0
LINE
  8
0
 62
     0
 10
0.110243
 20
142.267
 30
0.0
 11
0.155718
 21
142.657
 31
0.0
  0
LINE
  8
0
 62
     0
 10
0.155718
 20
142.657
 30
0.0
 11
0.232888
 21
143.042
 31
0.0
  0
LINE
  8
0
 62
     0
 10
0.232888
 20
143.042
 30
0.0
 11
0.338998
 21
143.421
 31
0.0
  0
LINE
  8
0
 62
     0
 10
0.338998
 20
143.421
 30
0.0
 11
0.475424
 21
143.789
 31
0.0
  0
LINE
  8
0
 62
     0
 10
0.475424
 20
143.789
 30
0.0
 11
0.63941
 21
144.144
 31
0.0
  0
LINE
  8
0
 62
     0
 10
0.63941
 20
144.144
 30
0.0
 11
0.830957
 21
144.487
 31
0.0
  0
LINE
  8
0
 62
     0
 10
0.830957
 20
144.487
 30
0.0
 11
1.04869
 21
144.814
 31
0.0
  0
LINE
  8
0
 62
     0
 10
1.04869
 20
144.814
 30
0.0
 11
1.29122
 21
145.123
 31
0.0
  0
LINE
  8
0
 62
     0
 10
1.29122
 20
145.123
 30
0.0
 11
1.55856
 21
145.411
 31
0.0
  0
LINE
  8
0
 62
     0
 10
1.55856
 20
145.411
 30
0.0
 11
1.84657
 21
145.678
 31
0.0
  0
LINE
  8
0
 62
     0
 10
1.84657
 20
145.678
 30
0.0
 11
2.15525
 21
145.921
 31
0.0
  0
LINE
  8
0
 62
     0
 10
2.15525
 20
145.921
 30
0.0
 11
2.48185
 21
146.138
 31
0.0
  0
LINE
  8
0
 62
     0
 10
2.48185
 20
146.138
 30
0.0
 11
2.82498
 21
146.33
 31
0.0
  0
LINE
  8
0
 62
     0
 10
2.82498
 20
146.33
 30
0.0
 11
3.18051
 21
146.494
 31
0.0
  0
LINE
  8
0
 62
     0
 10
3.18051
 20
146.494
 30
0.0
 11
3.54845
 21
146.63
 31
0.0
  0
LINE
  8
0
 62
     0
 10
3.54845
 20
146.63
 30
0.0
 11
3.9274
 21
146.736
 31
0.0
  0
LINE
  8
0
 62
     0
 10
3.9274
 20
146.736
 30
0.0
 11
4.3119
 21
146.813
 31
0.0
  0
LINE
  8
0
 62
     0
 10
4.3119
 20
146.813
 30
0.0
 11
4.70186
 21
146.859
 31
0.0
  0
LINE
  8
0
 62
     0
 10
4.70186
 20
146.859
 30
0.0
 11
5.0946
 21
146.875
 31
0.0
  0
LINE
  8
0
 62
     0
 10
5.0946
 20
146.875
 30
0.0
 11
220.358
 21
146.874
 31
0.0
  0
LINE
  8
0
 62
     0
 10
153.446
 20
31.6232
 30
0.0
 11
153.446
 21
30.6228
 31
0.0
  0
LINE
  8
0
 62
     0
 10
153.446
 20
30.6228
 30
0.0
 11
152.645
 21
30.6228
 31
0.0
  0
LINE
  8
0
 62
     0
 10
152.645
 20
30.6228
 30
0.0
 11
152.645
 21
27.5235
 31
0.0
  0
LINE
  8
0
 62
     0
 10
152.645
 20
27.5235
 30
0.0
 11
153.446
 21
27.5235
 31
0.0
  0
LINE
  8
0
 62
     0
 10
153.446
 20
27.5235
 30
0.0
 11
153.446
 21
21.7234
 31
0.0
  0
LINE
  8
0
 62
     0
 10
153.446
 20
21.7234
 30
0.0
 11
152.645
 21
21.7234
 31
0.0
  0
LINE
  8
0
 62
     0
 10
152.645
 20
21.7234
 30
0.0
 11
152.645
 21
18.6228
 31
0.0
  0
LINE
  8
0
 62
     0
 10
152.645
 20
18.6228
 30
0.0
 11
153.446
 21
18.6228
 31
0.0
  0
LINE
  8
0
 62
     0
 10
153.446
 20
18.6228
 30
0.0
 11
153.446
 21
17.6237
 31
0.0
  0
LINE
  8
0
 62
     0
 10
153.446
 20
17.6237
 30
0.0
 11
167.445
 21
17.6237
 31
0.0
  0
LINE
  8
0
 62
     0
 10
167.445
 20
17.6237
 30
0.0
 11
167.445
 21
18.6228
 31
0.0
  0
LINE
  8
0
 62
     0
 10
167.445
 20
18.6228
 30
0.0
 11
168.246
 21
18.6228
 31
0.0
  0
LINE
  8
0
 62
     0
 10
168.246
 20
18.6228
 30
0.0
 11
168.246
 21
21.7234
 31
0.0
  0
LINE
  8
0
 62
     0
 10
168.246
 20
21.7234
 30
0.0
 11
167.445
 21
21.7234
 31
0.0
  0
LINE
  8
0
 62
     0
 10
167.445
 20
21.7234
 30
0.0
 11
167.445
 21
27.5235
 31
0.0
  0
LINE
  8
0
 62
     0
 10
167.445
 20
27.5235
 30
0.0
 11
168.246
 21
27.5235
 31
0.0
  0
LINE
  8
0
 62
     0
 10
168.246
 20
27.5235
 30
0.0
 11
168.246
 21
30.6228
 31
0.0
  0
LINE
  8
0
 62
     0
 10
168.246
 20
30.6228
 30
0.0
 11
167.445
 21
30.6228
 31
0.0
  0
LINE
  8
0
 62
     0
 10
167.445
 20
30.6228
 30
0.0
 11
167.445
 21
31.6232
 31
0.0
  0
LINE
  8
0
 62
     0
 10
167.445
 20
31.6232
 30
0.0
 11
153.446
 21
31.6232
 31
0.0
  0
LINE
  8
0
 62
     0
 10
172.496
 20
31.6232
 30
0.0
 11
172.496
 21
30.6228
 31
0.0
  0
LINE
  8
0
 62
     0
 10
172.496
 20
30.6228
 30
0.0
 11
171.695
 21
30.6228
 31
0.0
  0
LINE
  8
0
 62
     0
 10
171.695
 20
30.6228
 30
0.0
 11
171.695
 21
27.5235
 31
0.0
  0
LINE
  8
0
 62
     0
 10
171.695
 20
27.5235
 30
0.0
 11
172.496
 21
27.5235
 31
0.0
  0
LINE
  8
0
 62
     0
 10
172.496
 20
27.5235
 30
0.0
 11
172.496
 21
21.7234
 31
0.0
  0
LINE
  8
0
 62
     0
 10
172.496
 20
21.7234
 30
0.0
 11
171.695
 21
21.7234
 31
0.0
  0
LINE
  8
0
 62
     0
 10
171.695
 20
21.7234
 30
0.0
 11
171.695
 21
18.6228
 31
0.0
  0
LINE
  8
0
 62
     0
 10
171.695
 20
18.6228
 30
0.0
 11
172.496
 21
18.6228
 31
0.0
  0
LINE
  8
0
 62
     0
 10
172.496
 20
18.6228
 30
0.0
 11
172.496
 21
17.6237
 31
0.0
  0
LINE
  8
0
 62
     0
 10
172.496
 20
17.6237
 30
0.0
 11
186.495
 21
17.6237
 31
0.0
  0
LINE
  8
0
 62
     0
 10
186.495
 20
17.6237
 30
0.0
 11
186.495
 21
18.6228
 31
0.0
  0
LINE
  8
0
 62
     0
 10
186.495
 20
18.6228
 30
0.0
 11
187.296
 21
18.6228
 31
0.0
  0
LINE
  8
0
 62
     0
 10
187.296
 20
18.6228
 30
0.0
 11
187.296
 21
21.7234
 31
0.0
  0
LINE
  8
0
 62
     0
 10
187.296
 20
21.7234
 30
0.0
 11
186.495
 21
21.7234
 31
0.0
  0
LINE
  8
0
 62
     0
 10
186.495
 20
21.7234
 30
0.0
 11
186.495
 21
27.5235
 31
0.0
  0
LINE
  8
0
 62
     0
 10
186.495
 20
27.5235
 30
0.0
 11
187.296
 21
27.5235
 31
0.0
  0
LINE
  8
0
 62
     0
 10
187.296
 20
27.5235
 30
0.0
 11
187.296
 21
30.6228
 31
0.0
  0
LINE
  8
0
 62
     0
 10
187.296
 20
30.6228
 30
0.0
 11
186.495
 21
30.6228
 31
0.0
  0
LINE
  8
0
 62
     0
 10
186.495
 20
30.6228
 30
0.0
 11
186.495
 21
31.6232
 31
0.0
  0
LINE
  8
0
 62
     0
 10
186.495
 20
31.6232
 30
0.0
 11
172.496
 21
31.6232
 31
0.0
  0
LINE
  8
0
 62
     0
 10
191.546
 20
31.6232
 30
0.0
 11
191.546
 21
30.6228
 31
0.0
  0
LINE
  8
0
 62
     0
 10
191.546
 20
30.6228
 30
0.0
 11
190.745
 21
30.6228
 31
0.0
  0
LINE
  8
0
 62
     0
 10
190.745
 20
30.6228
 30
0.0
 11
190.745
 21
27.5235
 31
0.0
  0
LINE
  8
0
 62
     0
 10
190.745
 20
27.5235
 30
0.0
 11
191.546
 21
27.5235
 31
0.0
  0
LINE
  8
0
 62
     0
 10
191.546
 20
27.5235
 30
0.0
 11
191.546
 21
21.7234
 31
0.0
  0
LINE
  8
0
 62
     0
 10
191.546
 20
21.7234
 30
0.0
 11
190.745
 21
21.7234
 31
0.0
  0
LINE
  8
0
 62
     0
 10
190.745
 20
21.7234
 30
0.0
 11
190.745
 21
18.6228
 31
0.0
  0
LINE
  8
0
 62
     0
 10
190.745
 20
18.6228
 30
0.0
 11
191.546
 21
18.6228
 31
0.0
  0
LINE
  8
0
 62
     0
 10
191.546
 20
18.6228
 30
0.0
 11
191.546
 21
17.6237
 31
0.0
  0
LINE
  8
0
 62
     0
 10
191.546
 20
17.6237
 30
0.0
 11
205.545
 21
17.6237
 31
0.0
  0
LINE
  8
0
 62
     0
 10
205.545
 20
17.6237
 30
0.0
 11
205.545
 21
18.6228
 31
0.0
  0
LINE
  8
0
 62
     0
 10
205.545
 20
18.6228
 30
0.0
 11
206.346
 21
18.6228
 31
0.0
  0
LINE
  8
0
 62
     0
 10
206.346
 20
18.6228
 30
0.0
 11
206.346
 21
21.7234
 31
0.0
  0
LINE
  8
0
 62
     0
 10
206.346
 20
21.7234
 30
0.0
 11
205.545
 21
21.7234
 31
0.0
  0
LINE
  8
0
 62
     0
 10
205.545
 20
21.7234
 30
0.0
 11
205.545
 21
27.5235
 31
0.0
  0
LINE
  8
0
 62
     0
 10
205.545
 20
27.5235
 30
0.0
 11
206.346
 21
27.5235
 31
0.0
  0
LINE
  8
0
 62
     0
 10
206.346
 20
27.5235
 30
0.0
 11
206.346
 21
30.6228
 31
0.0
  0
LINE
  8
0
 62
     0
 10
206.346
 20
30.6228
 30
0.0
 11
205.545
 21
30.6228
 31
0.0
  0
LINE
  8
0
 62
     0
 10
205.545
 20
30.6228
 30
0.0
 11
205.545
 21
31.6232
 31
0.0
  0
LINE
  8
0
 62
     0
 10
205.545
 20
31.6232
 30
0.0
 11
191.546
 21
31.6232
 31
0.0
  0
LINE
  8
0
 62
     0
 10
34.2883
 20
34.1009
 30
0.0
 11
34.2883
 21
33.1005
 31
0.0
  0
LINE
  8
0
 62
     0
 10
34.2883
 20
33.1005
 30
0.0
 11
33.4877
 21
33.1005
 31
0.0
  0
LINE
  8
0
 62
     0
 10
33.4877
 20
33.1005
 30
0.0
 11
33.4877
 21
29.9999
 31
0.0
  0
LINE
  8
0
 62
     0
 10
33.4877
 20
29.9999
 30
0.0
 11
34.2883
 21
29.9999
 31
0.0
  0
LINE
  8
0
 62
     0
 10
34.2883
 20
29.9999
 30
0.0
 11
34.2883
 21
29.3991
 31
0.0
  0
LINE
  8
0
 62
     0
 10
34.2883
 20
29.3991
 30
0.0
 11
32.7629
 21
29.3991
 31
0.0
  0
LINE
  8
0
 62
     0
 10
32.7629
 20
29.3991
 30
0.0
 11
32.7629
 21
32.6306
 31
0.0
  0
LINE
  8
0
 62
     0
 10
32.7629
 20
32.6306
 30
0.0
 11
31.0376
 21
32.6306
 31
0.0
  0
LINE
  8
0
 62
     0
 10
31.0376
 20
32.6306
 30
0.0
 11
31.0376
 21
33.5497
 31
0.0
  0
LINE
  8
0
 62
     0
 10
31.0376
 20
33.5497
 30
0.0
 11
27.7372
 21
33.5497
 31
0.0
  0
LINE
  8
0
 62
     0
 10
27.7372
 20
33.5497
 30
0.0
 11
27.7372
 21
32.6306
 31
0.0
  0
LINE
  8
0
 62
     0
 10
27.7372
 20
32.6306
 30
0.0
 11
26.0132
 21
32.6306
 31
0.0
  0
LINE
  8
0
 62
     0
 10
26.0132
 20
32.6306
 30
0.0
 11
26.0132
 21
29.3991
 31
0.0
  0
LINE
  8
0
 62
     0
 10
26.0132
 20
29.3991
 30
0.0
 11
25.1878
 21
29.3991
 31
0.0
  0
LINE
  8
0
 62
     0
 10
25.1878
 20
29.3991
 30
0.0
 11
25.1878
 21
26.6003
 31
0.0
  0
LINE
  8
0
 62
     0
 10
25.1878
 20
26.6003
 30
0.0
 11
26.0132
 21
26.6003
 31
0.0
  0
LINE
  8
0
 62
     0
 10
26.0132
 20
26.6003
 30
0.0
 11
26.0132
 21
20.3288
 31
0.0
  0
LINE
  8
0
 62
     0
 10
26.0132
 20
20.3288
 30
0.0
 11
27.7372
 21
20.3288
 31
0.0
  0
LINE
  8
0
 62
     0
 10
27.7372
 20
20.3288
 30
0.0
 11
27.7372
 21
19.3504
 31
0.0
  0
LINE
  8
0
 62
     0
 10
27.7372
 20
19.3504
 30
0.0
 11
31.0376
 21
19.3504
 31
0.0
  0
LINE
  8
0
 62
     0
 10
31.0376
 20
19.3504
 30
0.0
 11
31.0376
 21
20.3288
 31
0.0
  0
LINE
  8
0
 62
     0
 10
31.0376
 20
20.3288
 30
0.0
 11
32.7629
 21
20.3288
 31
0.0
  0
LINE
  8
0
 62
     0
 10
32.7629
 20
20.3288
 30
0.0
 11
32.7629
 21
24.8006
 31
0.0
  0
LINE
  8
0
 62
     0
 10
32.7629
 20
24.8006
 30
0.0
 11
34.2883
 21
24.8006
 31
0.0
  0
LINE
  8
0
 62
     0
 10
34.2883
 20
24.8006
 30
0.0
 11
34.2883
 21
24.1997
 31
0.0
  0
LINE
  8
0
 62
     0
 10
34.2883
 20
24.1997
 30
0.0
 11
33.4877
 21
24.1997
 31
0.0
  0
LINE
  8
0
 62
     0
 10
33.4877
 20
24.1997
 30
0.0
 11
33.4877
 21
21.1005
 31
0.0
  0
LINE
  8
0
 62
     0
 10
33.4877
 20
21.1005
 30
0.0
 11
34.2883
 21
21.1005
 31
0.0
  0
LINE
  8
0
 62
     0
 10
34.2883
 20
21.1005
 30
0.0
 11
34.2883
 21
20.1001
 31
0.0
  0
LINE
  8
0
 62
     0
 10
34.2883
 20
20.1001
 30
0.0
 11
48.2879
 21
20.1001
 31
0.0
  0
LINE
  8
0
 62
     0
 10
48.2879
 20
20.1001
 30
0.0
 11
48.2879
 21
21.1005
 31
0.0
  0
LINE
  8
0
 62
     0
 10
48.2879
 20
21.1005
 30
0.0
 11
49.0873
 21
21.1005
 31
0.0
  0
LINE
  8
0
 62
     0
 10
49.0873
 20
21.1005
 30
0.0
 11
49.0873
 21
24.1997
 31
0.0
  0
LINE
  8
0
 62
     0
 10
49.0873
 20
24.1997
 30
0.0
 11
48.2879
 21
24.1997
 31
0.0
  0
LINE
  8
0
 62
     0
 10
48.2879
 20
24.1997
 30
0.0
 11
48.2879
 21
24.8006
 31
0.0
  0
LINE
  8
0
 62
     0
 10
48.2879
 20
24.8006
 30
0.0
 11
49.8133
 21
24.8006
 31
0.0
  0
LINE
  8
0
 62
     0
 10
49.8133
 20
24.8006
 30
0.0
 11
49.8133
 21
20.3288
 31
0.0
  0
LINE
  8
0
 62
     0
 10
49.8133
 20
20.3288
 30
0.0
 11
51.5373
 21
20.3288
 31
0.0
  0
LINE
  8
0
 62
     0
 10
51.5373
 20
20.3288
 30
0.0
 11
51.5373
 21
19.3504
 31
0.0
  0
LINE
  8
0
 62
     0
 10
51.5373
 20
19.3504
 30
0.0
 11
54.8375
 21
19.3504
 31
0.0
  0
LINE
  8
0
 62
     0
 10
54.8375
 20
19.3504
 30
0.0
 11
54.8375
 21
20.3288
 31
0.0
  0
LINE
  8
0
 62
     0
 10
54.8375
 20
20.3288
 30
0.0
 11
56.563
 21
20.3288
 31
0.0
  0
LINE
  8
0
 62
     0
 10
56.563
 20
20.3288
 30
0.0
 11
56.563
 21
26.6003
 31
0.0
  0
LINE
  8
0
 62
     0
 10
56.563
 20
26.6003
 30
0.0
 11
57.3885
 21
26.6003
 31
0.0
  0
LINE
  8
0
 62
     0
 10
57.3885
 20
26.6003
 30
0.0
 11
57.3885
 21
29.3991
 31
0.0
  0
LINE
  8
0
 62
     0
 10
57.3885
 20
29.3991
 30
0.0
 11
56.563
 21
29.3991
 31
0.0
  0
LINE
  8
0
 62
     0
 10
56.563
 20
29.3991
 30
0.0
 11
56.563
 21
32.6306
 31
0.0
  0
LINE
  8
0
 62
     0
 10
56.563
 20
32.6306
 30
0.0
 11
54.8375
 21
32.6306
 31
0.0
  0
LINE
  8
0
 62
     0
 10
54.8375
 20
32.6306
 30
0.0
 11
54.8375
 21
33.5497
 31
0.0
  0
LINE
  8
0
 62
     0
 10
54.8375
 20
33.5497
 30
0.0
 11
51.5373
 21
33.5497
 31
0.0
  0
LINE
  8
0
 62
     0
 10
51.5373
 20
33.5497
 30
0.0
 11
51.5373
 21
32.6306
 31
0.0
  0
LINE
  8
0
 62
     0
 10
51.5373
 20
32.6306
 30
0.0
 11
49.8133
 21
32.6306
 31
0.0
  0
LINE
  8
0
 62
     0
 10
49.8133
 20
32.6306
 30
0.0
 11
49.8133
 21
29.3991
 31
0.0
  0
LINE
  8
0
 62
     0
 10
49.8133
 20
29.3991
 30
0.0
 11
48.2879
 21
29.3991
 31
0.0
  0
LINE
  8
0
 62
     0
 10
48.2879
 20
29.3991
 30
0.0
 11
48.2879
 21
29.9999
 31
0.0
  0
LINE
  8
0
 62
     0
 10
48.2879
 20
29.9999
 30
0.0
 11
49.0873
 21
29.9999
 31
0.0
  0
LINE
  8
0
 62
     0
 10
49.0873
 20
29.9999
 30
0.0
 11
49.0873
 21
33.1005
 31
0.0
  0
LINE
  8
0
 62
     0
 10
49.0873
 20
33.1005
 30
0.0
 11
48.2879
 21
33.1005
 31
0.0
  0
LINE
  8
0
 62
     0
 10
48.2879
 20
33.1005
 30
0.0
 11
48.2879
 21
34.1009
 31
0.0
  0
LINE
  8
0
 62
     0
 10
48.2879
 20
34.1009
 30
0.0
 11
34.2883
 21
34.1009
 31
0.0
  0
LINE
  8
0
 62
     0
 10
74.7695
 20
34.1009
 30
0.0
 11
74.7695
 21
33.1005
 31
0.0
  0
LINE
  8
0
 62
     0
 10
74.7695
 20
33.1005
 30
0.0
 11
73.9704
 21
33.1005
 31
0.0
  0
LINE
  8
0
 62
     0
 10
73.9704
 20
33.1005
 30
0.0
 11
73.9704
 21
29.9999
 31
0.0
  0
LINE
  8
0
 62
     0
 10
73.9704
 20
29.9999
 30
0.0
 11
74.7695
 21
29.9999
 31
0.0
  0
LINE
  8
0
 62
     0
 10
74.7695
 20
29.9999
 30
0.0
 11
74.7695
 21
24.1997
 31
0.0
  0
LINE
  8
0
 62
     0
 10
74.7695
 20
24.1997
 30
0.0
 11
73.9704
 21
24.1997
 31
0.0
  0
LINE
  8
0
 62
     0
 10
73.9704
 20
24.1997
 30
0.0
 11
73.9704
 21
21.1005
 31
0.0
  0
LINE
  8
0
 62
     0
 10
73.9704
 20
21.1005
 30
0.0
 11
74.7695
 21
21.1005
 31
0.0
  0
LINE
  8
0
 62
     0
 10
74.7695
 20
21.1005
 30
0.0
 11
74.7695
 21
20.1001
 31
0.0
  0
LINE
  8
0
 62
     0
 10
74.7695
 20
20.1001
 30
0.0
 11
88.7691
 21
20.1001
 31
0.0
  0
LINE
  8
0
 62
     0
 10
88.7691
 20
20.1001
 30
0.0
 11
88.7691
 21
21.1005
 31
0.0
  0
LINE
  8
0
 62
     0
 10
88.7691
 20
21.1005
 30
0.0
 11
89.5696
 21
21.1005
 31
0.0
  0
LINE
  8
0
 62
     0
 10
89.5696
 20
21.1005
 30
0.0
 11
89.5696
 21
24.1997
 31
0.0
  0
LINE
  8
0
 62
     0
 10
89.5696
 20
24.1997
 30
0.0
 11
88.7691
 21
24.1997
 31
0.0
  0
LINE
  8
0
 62
     0
 10
88.7691
 20
24.1997
 30
0.0
 11
88.7691
 21
29.9999
 31
0.0
  0
LINE
  8
0
 62
     0
 10
88.7691
 20
29.9999
 30
0.0
 11
89.5696
 21
29.9999
 31
0.0
  0
LINE
  8
0
 62
     0
 10
89.5696
 20
29.9999
 30
0.0
 11
89.5696
 21
33.1005
 31
0.0
  0
LINE
  8
0
 62
     0
 10
89.5696
 20
33.1005
 30
0.0
 11
88.7691
 21
33.1005
 31
0.0
  0
LINE
  8
0
 62
     0
 10
88.7691
 20
33.1005
 30
0.0
 11
88.7691
 21
34.1009
 31
0.0
  0
LINE
  8
0
 62
     0
 10
88.7691
 20
34.1009
 30
0.0
 11
74.7695
 21
34.1009
 31
0.0
  0
LINE
  8
0
 62
     0
 10
98.582
 20
34.1009
 30
0.0
 11
98.582
 21
33.1005
 31
0.0
  0
LINE
  8
0
 62
     0
 10
98.582
 20
33.1005
 30
0.0
 11
97.7815
 21
33.1005
 31
0.0
  0
LINE
  8
0
 62
     0
 10
97.7815
 20
33.1005
 30
0.0
 11
97.7815
 21
29.9999
 31
0.0
  0
LINE
  8
0
 62
     0
 10
97.7815
 20
29.9999
 30
0.0
 11
98.582
 21
29.9999
 31
0.0
  0
LINE
  8
0
 62
     0
 10
98.582
 20
29.9999
 30
0.0
 11
98.582
 21
24.1997
 31
0.0
  0
LINE
  8
0
 62
     0
 10
98.582
 20
24.1997
 30
0.0
 11
97.7815
 21
24.1997
 31
0.0
  0
LINE
  8
0
 62
     0
 10
97.7815
 20
24.1997
 30
0.0
 11
97.7815
 21
21.1005
 31
0.0
  0
LINE
  8
0
 62
     0
 10
97.7815
 20
21.1005
 30
0.0
 11
98.582
 21
21.1005
 31
0.0
  0
LINE
  8
0
 62
     0
 10
98.582
 20
21.1005
 30
0.0
 11
98.582
 21
20.1001
 31
0.0
  0
LINE
  8
0
 62
     0
 10
98.582
 20
20.1001
 30
0.0
 11
112.582
 21
20.1001
 31
0.0
  0
LINE
  8
0
 62
     0
 10
112.582
 20
20.1001
 30
0.0
 11
112.582
 21
21.1005
 31
0.0
  0
LINE
  8
0
 62
     0
 10
112.582
 20
21.1005
 30
0.0
 11
113.382
 21
21.1005
 31
0.0
  0
LINE
  8
0
 62
     0
 10
113.382
 20
21.1005
 30
0.0
 11
113.382
 21
24.1997
 31
0.0
  0
LINE
  8
0
 62
     0
 10
113.382
 20
24.1997
 30
0.0
 11
112.582
 21
24.1997
 31
0.0
  0
LINE
  8
0
 62
     0
 10
112.582
 20
24.1997
 30
0.0
 11
112.582
 21
29.9999
 31
0.0
  0
LINE
  8
0
 62
     0
 10
112.582
 20
29.9999
 30
0.0
 11
113.382
 21
29.9999
 31
0.0
  0
LINE
  8
0
 62
     0
 10
113.382
 20
29.9999
 30
0.0
 11
113.382
 21
33.1005
 31
0.0
  0
LINE
  8
0
 62
     0
 10
113.382
 20
33.1005
 30
0.0
 11
112.582
 21
33.1005
 31
0.0
  0
LINE
  8
0
 62
     0
 10
112.582
 20
33.1005
 30
0.0
 11
112.582
 21
34.1009
 31
0.0
  0
LINE
  8
0
 62
     0
 10
112.582
 20
34.1009
 30
0.0
 11
98.582
 21
34.1009
 31
0.0
  0
LINE
  8
0
 62
     0
 10
117.632
 20
34.1009
 30
0.0
 11
117.632
 21
33.1005
 31
0.0
  0
LINE
  8
0
 62
     0
 10
117.632
 20
33.1005
 30
0.0
 11
116.832
 21
33.1005
 31
0.0
  0
LINE
  8
0
 62
     0
 10
116.832
 20
33.1005
 30
0.0
 11
116.832
 21
29.9999
 31
0.0
  0
LINE
  8
0
 62
     0
 10
116.832
 20
29.9999
 30
0.0
 11
117.632
 21
29.9999
 31
0.0
  0
LINE
  8
0
 62
     0
 10
117.632
 20
29.9999
 30
0.0
 11
117.632
 21
24.1997
 31
0.0
  0
LINE
  8
0
 62
     0
 10
117.632
 20
24.1997
 30
0.0
 11
116.832
 21
24.1997
 31
0.0
  0
LINE
  8
0
 62
     0
 10
116.832
 20
24.1997
 30
0.0
 11
116.832
 21
21.1005
 31
0.0
  0
LINE
  8
0
 62
     0
 10
116.832
 20
21.1005
 30
0.0
 11
117.632
 21
21.1005
 31
0.0
  0
LINE
  8
0
 62
     0
 10
117.632
 20
21.1005
 30
0.0
 11
117.632
 21
20.1001
 31
0.0
  0
LINE
  8
0
 62
     0
 10
117.632
 20
20.1001
 30
0.0
 11
131.632
 21
20.1001
 31
0.0
  0
LINE
  8
0
 62
     0
 10
131.632
 20
20.1001
 30
0.0
 11
131.632
 21
21.1005
 31
0.0
  0
LINE
  8
0
 62
     0
 10
131.632
 20
21.1005
 30
0.0
 11
132.432
 21
21.1005
 31
0.0
  0
LINE
  8
0
 62
     0
 10
132.432
 20
21.1005
 30
0.0
 11
132.432
 21
24.1997
 31
0.0
  0
LINE
  8
0
 62
     0
 10
132.432
 20
24.1997
 30
0.0
 11
131.632
 21
24.1997
 31
0.0
  0
LINE
  8
0
 62
     0
 10
131.632
 20
24.1997
 30
0.0
 11
131.632
 21
29.9999
 31
0.0
  0
LINE
  8
0
 62
     0
 10
131.632
 20
29.9999
 30
0.0
 11
132.432
 21
29.9999
 31
0.0
  0
LINE
  8
0
 62
     0
 10
132.432
 20
29.9999
 30
0.0
 11
132.432
 21
33.1005
 31
0.0
  0
LINE
  8
0
 62
     0
 10
132.432
 20
33.1005
 30
0.0
 11
131.632
 21
33.1005
 31
0.0
  0
LINE
  8
0
 62
     0
 10
131.632
 20
33.1005
 30
0.0
 11
131.632
 21
34.1009
 31
0.0
  0
LINE
  8
0
 62
     0
 10
131.632
 20
34.1009
 30
0.0
 11
117.632
 21
34.1009
 31
0.0
  0
LINE
  8
0
 62
     0
 10
172.496
 20
50.6734
 30
0.0
 11
172.496
 21
49.6729
 31
0.0
  0
LINE
  8
0
 62
     0
 10
172.496
 20
49.6729
 30
0.0
 11
171.695
 21
49.6729
 31
0.0
  0
LINE
  8
0
 62
     0
 10
171.695
 20
49.6729
 30
0.0
 11
171.695
 21
46.5737
 31
0.0
  0
LINE
  8
0
 62
     0
 10
171.695
 20
46.5737
 30
0.0
 11
172.496
 21
46.5737
 31
0.0
  0
LINE
  8
0
 62
     0
 10
172.496
 20
46.5737
 30
0.0
 11
172.496
 21
40.7734
 31
0.0
  0
LINE
  8
0
 62
     0
 10
172.496
 20
40.7734
 30
0.0
 11
171.695
 21
40.7734
 31
0.0
  0
LINE
  8
0
 62
     0
 10
171.695
 20
40.7734
 30
0.0
 11
171.695
 21
37.6728
 31
0.0
  0
LINE
  8
0
 62
     0
 10
171.695
 20
37.6728
 30
0.0
 11
172.496
 21
37.6728
 31
0.0
  0
LINE
  8
0
 62
     0
 10
172.496
 20
37.6728
 30
0.0
 11
172.496
 21
36.6737
 31
0.0
  0
LINE
  8
0
 62
     0
 10
172.496
 20
36.6737
 30
0.0
 11
186.495
 21
36.6737
 31
0.0
  0
LINE
  8
0
 62
     0
 10
186.495
 20
36.6737
 30
0.0
 11
186.495
 21
37.6728
 31
0.0
  0
LINE
  8
0
 62
     0
 10
186.495
 20
37.6728
 30
0.0
 11
187.296
 21
37.6728
 31
0.0
  0
LINE
  8
0
 62
     0
 10
187.296
 20
37.6728
 30
0.0
 11
187.296
 21
40.7734
 31
0.0
  0
LINE
  8
0
 62
     0
 10
187.296
 20
40.7734
 30
0.0
 11
186.495
 21
40.7734
 31
0.0
  0
LINE
  8
0
 62
     0
 10
186.495
 20
40.7734
 30
0.0
 11
186.495
 21
46.5737
 31
0.0
  0
LINE
  8
0
 62
     0
 10
186.495
 20
46.5737
 30
0.0
 11
187.296
 21
46.5737
 31
0.0
  0
LINE
  8
0
 62
     0
 10
187.296
 20
46.5737
 30
0.0
 11
187.296
 21
49.6729
 31
0.0
  0
LINE
  8
0
 62
     0
 10
187.296
 20
49.6729
 30
0.0
 11
186.495
 21
49.6729
 31
0.0
  0
LINE
  8
0
 62
     0
 10
186.495
 20
49.6729
 30
0.0
 11
186.495
 21
50.6734
 31
0.0
  0
LINE
  8
0
 62
     0
 10
186.495
 20
50.6734
 30
0.0
 11
172.496
 21
50.6734
 31
0.0
  0
LINE
  8
0
 62
     0
 10
139.063
 20
53.1495
 30
0.0
 11
139.063
 21
52.149
 31
0.0
  0
LINE
  8
0
 62
     0
 10
139.063
 20
52.149
 30
0.0
 11
138.263
 21
52.149
 31
0.0
  0
LINE
  8
0
 62
     0
 10
138.263
 20
52.149
 30
0.0
 11
138.263
 21
49.0499
 31
0.0
  0
LINE
  8
0
 62
     0
 10
138.263
 20
49.0499
 30
0.0
 11
139.063
 21
49.0499
 31
0.0
  0
LINE
  8
0
 62
     0
 10
139.063
 20
49.0499
 30
0.0
 11
139.063
 21
48.4491
 31
0.0
  0
LINE
  8
0
 62
     0
 10
139.063
 20
48.4491
 30
0.0
 11
137.538
 21
48.4491
 31
0.0
  0
LINE
  8
0
 62
     0
 10
137.538
 20
48.4491
 30
0.0
 11
137.538
 21
51.6791
 31
0.0
  0
LINE
  8
0
 62
     0
 10
137.538
 20
51.6791
 30
0.0
 11
135.812
 21
51.6791
 31
0.0
  0
LINE
  8
0
 62
     0
 10
135.812
 20
51.6791
 30
0.0
 11
135.812
 21
52.5999
 31
0.0
  0
LINE
  8
0
 62
     0
 10
135.812
 20
52.5999
 30
0.0
 11
132.512
 21
52.5999
 31
0.0
  0
LINE
  8
0
 62
     0
 10
132.512
 20
52.5999
 30
0.0
 11
132.512
 21
51.6791
 31
0.0
  0
LINE
  8
0
 62
     0
 10
132.512
 20
51.6791
 30
0.0
 11
130.788
 21
51.6791
 31
0.0
  0
LINE
  8
0
 62
     0
 10
130.788
 20
51.6791
 30
0.0
 11
130.788
 21
48.4491
 31
0.0
  0
LINE
  8
0
 62
     0
 10
130.788
 20
48.4491
 30
0.0
 11
129.963
 21
48.4491
 31
0.0
  0
LINE
  8
0
 62
     0
 10
129.963
 20
48.4491
 30
0.0
 11
129.963
 21
45.6487
 31
0.0
  0
LINE
  8
0
 62
     0
 10
129.963
 20
45.6487
 30
0.0
 11
130.788
 21
45.6487
 31
0.0
  0
LINE
  8
0
 62
     0
 10
130.788
 20
45.6487
 30
0.0
 11
130.788
 21
39.3802
 31
0.0
  0
LINE
  8
0
 62
     0
 10
130.788
 20
39.3802
 30
0.0
 11
132.512
 21
39.3802
 31
0.0
  0
LINE
  8
0
 62
     0
 10
132.512
 20
39.3802
 30
0.0
 11
132.512
 21
38.3992
 31
0.0
  0
LINE
  8
0
 62
     0
 10
132.512
 20
38.3992
 30
0.0
 11
135.812
 21
38.3992
 31
0.0
  0
LINE
  8
0
 62
     0
 10
135.812
 20
38.3992
 30
0.0
 11
135.812
 21
39.3802
 31
0.0
  0
LINE
  8
0
 62
     0
 10
135.812
 20
39.3802
 30
0.0
 11
137.538
 21
39.3802
 31
0.0
  0
LINE
  8
0
 62
     0
 10
137.538
 20
39.3802
 30
0.0
 11
137.538
 21
43.8506
 31
0.0
  0
LINE
  8
0
 62
     0
 10
137.538
 20
43.8506
 30
0.0
 11
139.063
 21
43.8506
 31
0.0
  0
LINE
  8
0
 62
     0
 10
139.063
 20
43.8506
 30
0.0
 11
139.063
 21
43.2499
 31
0.0
  0
LINE
  8
0
 62
     0
 10
139.063
 20
43.2499
 30
0.0
 11
138.263
 21
43.2499
 31
0.0
  0
LINE
  8
0
 62
     0
 10
138.263
 20
43.2499
 30
0.0
 11
138.263
 21
40.1493
 31
0.0
  0
LINE
  8
0
 62
     0
 10
138.263
 20
40.1493
 30
0.0
 11
139.063
 21
40.1493
 31
0.0
  0
LINE
  8
0
 62
     0
 10
139.063
 20
40.1493
 30
0.0
 11
139.063
 21
39.1502
 31
0.0
  0
LINE
  8
0
 62
     0
 10
139.063
 20
39.1502
 30
0.0
 11
153.063
 21
39.1502
 31
0.0
  0
LINE
  8
0
 62
     0
 10
153.063
 20
39.1502
 30
0.0
 11
153.063
 21
40.1493
 31
0.0
  0
LINE
  8
0
 62
     0
 10
153.063
 20
40.1493
 30
0.0
 11
153.862
 21
40.1493
 31
0.0
  0
LINE
  8
0
 62
     0
 10
153.862
 20
40.1493
 30
0.0
 11
153.862
 21
43.2499
 31
0.0
  0
LINE
  8
0
 62
     0
 10
153.862
 20
43.2499
 30
0.0
 11
153.063
 21
43.2499
 31
0.0
  0
LINE
  8
0
 62
     0
 10
153.063
 20
43.2499
 30
0.0
 11
153.063
 21
43.8506
 31
0.0
  0
LINE
  8
0
 62
     0
 10
153.063
 20
43.8506
 30
0.0
 11
154.588
 21
43.8506
 31
0.0
  0
LINE
  8
0
 62
     0
 10
154.588
 20
43.8506
 30
0.0
 11
154.588
 21
39.3802
 31
0.0
  0
LINE
  8
0
 62
     0
 10
154.588
 20
39.3802
 30
0.0
 11
156.312
 21
39.3802
 31
0.0
  0
LINE
  8
0
 62
     0
 10
156.312
 20
39.3802
 30
0.0
 11
156.312
 21
38.3992
 31
0.0
  0
LINE
  8
0
 62
     0
 10
156.312
 20
38.3992
 30
0.0
 11
159.613
 21
38.3992
 31
0.0
  0
LINE
  8
0
 62
     0
 10
159.613
 20
38.3992
 30
0.0
 11
159.613
 21
39.3802
 31
0.0
  0
LINE
  8
0
 62
     0
 10
159.613
 20
39.3802
 30
0.0
 11
161.338
 21
39.3802
 31
0.0
  0
LINE
  8
0
 62
     0
 10
161.338
 20
39.3802
 30
0.0
 11
161.338
 21
45.6487
 31
0.0
  0
LINE
  8
0
 62
     0
 10
161.338
 20
45.6487
 30
0.0
 11
162.163
 21
45.6487
 31
0.0
  0
LINE
  8
0
 62
     0
 10
162.163
 20
45.6487
 30
0.0
 11
162.163
 21
48.4491
 31
0.0
  0
LINE
  8
0
 62
     0
 10
162.163
 20
48.4491
 30
0.0
 11
161.338
 21
48.4491
 31
0.0
  0
LINE
  8
0
 62
     0
 10
161.338
 20
48.4491
 30
0.0
 11
161.338
 21
51.6791
 31
0.0
  0
LINE
  8
0
 62
     0
 10
161.338
 20
51.6791
 30
0.0
 11
159.613
 21
51.6791
 31
0.0
  0
LINE
  8
0
 62
     0
 10
159.613
 20
51.6791
 30
0.0
 11
159.613
 21
52.5999
 31
0.0
  0
LINE
  8
0
 62
     0
 10
159.613
 20
52.5999
 30
0.0
 11
156.312
 21
52.5999
 31
0.0
  0
LINE
  8
0
 62
     0
 10
156.312
 20
52.5999
 30
0.0
 11
156.312
 21
51.6791
 31
0.0
  0
LINE
  8
0
 62
     0
 10
156.312
 20
51.6791
 30
0.0
 11
154.588
 21
51.6791
 31
0.0
  0
LINE
  8
0
 62
     0
 10
154.588
 20
51.6791
 30
0.0
 11
154.588
 21
48.4491
 31
0.0
  0
LINE
  8
0
 62
     0
 10
154.588
 20
48.4491
 30
0.0
 11
153.063
 21
48.4491
 31
0.0
  0
LINE
  8
0
 62
     0
 10
153.063
 20
48.4491
 30
0.0
 11
153.063
 21
49.0499
 31
0.0
  0
LINE
  8
0
 62
     0
 10
153.063
 20
49.0499
 30
0.0
 11
153.862
 21
49.0499
 31
0.0
  0
LINE
  8
0
 62
     0
 10
153.862
 20
49.0499
 30
0.0
 11
153.862
 21
52.149
 31
0.0
  0
LINE
  8
0
 62
     0
 10
153.862
 20
52.149
 30
0.0
 11
153.063
 21
52.149
 31
0.0
  0
LINE
  8
0
 62
     0
 10
153.063
 20
52.149
 30
0.0
 11
153.063
 21
53.1495
 31
0.0
  0
LINE
  8
0
 62
     0
 10
153.063
 20
53.1495
 30
0.0
 11
139.063
 21
53.1495
 31
0.0
  0
LINE
  8
0
 62
     0
 10
27.1432
 20
53.1495
 30
0.0
 11
27.1432
 21
52.149
 31
0.0
  0
LINE
  8
0
 62
     0
 10
27.1432
 20
52.149
 30
0.0
 11
26.344
 21
52.149
 31
0.0
  0
LINE
  8
0
 62
     0
 10
26.344
 20
52.149
 30
0.0
 11
26.344
 21
49.0499
 31
0.0
  0
LINE
  8
0
 62
     0
 10
26.344
 20
49.0499
 30
0.0
 11
27.1432
 21
49.0499
 31
0.0
  0
LINE
  8
0
 62
     0
 10
27.1432
 20
49.0499
 30
0.0
 11
27.1432
 21
43.2499
 31
0.0
  0
LINE
  8
0
 62
     0
 10
27.1432
 20
43.2499
 30
0.0
 11
26.344
 21
43.2499
 31
0.0
  0
LINE
  8
0
 62
     0
 10
26.344
 20
43.2499
 30
0.0
 11
26.344
 21
40.1493
 31
0.0
  0
LINE
  8
0
 62
     0
 10
26.344
 20
40.1493
 30
0.0
 11
27.1432
 21
40.1493
 31
0.0
  0
LINE
  8
0
 62
     0
 10
27.1432
 20
40.1493
 30
0.0
 11
27.1432
 21
39.1502
 31
0.0
  0
LINE
  8
0
 62
     0
 10
27.1432
 20
39.1502
 30
0.0
 11
41.1441
 21
39.1502
 31
0.0
  0
LINE
  8
0
 62
     0
 10
41.1441
 20
39.1502
 30
0.0
 11
41.1441
 21
40.1493
 31
0.0
  0
LINE
  8
0
 62
     0
 10
41.1441
 20
40.1493
 30
0.0
 11
41.9435
 21
40.1493
 31
0.0
  0
LINE
  8
0
 62
     0
 10
41.9435
 20
40.1493
 30
0.0
 11
41.9435
 21
43.2499
 31
0.0
  0
LINE
  8
0
 62
     0
 10
41.9435
 20
43.2499
 30
0.0
 11
41.1441
 21
43.2499
 31
0.0
  0
LINE
  8
0
 62
     0
 10
41.1441
 20
43.2499
 30
0.0
 11
41.1441
 21
49.0499
 31
0.0
  0
LINE
  8
0
 62
     0
 10
41.1441
 20
49.0499
 30
0.0
 11
41.9435
 21
49.0499
 31
0.0
  0
LINE
  8
0
 62
     0
 10
41.9435
 20
49.0499
 30
0.0
 11
41.9435
 21
52.149
 31
0.0
  0
LINE
  8
0
 62
     0
 10
41.9435
 20
52.149
 30
0.0
 11
41.1441
 21
52.149
 31
0.0
  0
LINE
  8
0
 62
     0
 10
41.1441
 20
52.149
 30
0.0
 11
41.1441
 21
53.1495
 31
0.0
  0
LINE
  8
0
 62
     0
 10
41.1441
 20
53.1495
 30
0.0
 11
27.1432
 21
53.1495
 31
0.0
  0
LINE
  8
0
 62
     0
 10
50.957
 20
53.1495
 30
0.0
 11
50.957
 21
52.149
 31
0.0
  0
LINE
  8
0
 62
     0
 10
50.957
 20
52.149
 30
0.0
 11
50.1565
 21
52.149
 31
0.0
  0
LINE
  8
0
 62
     0
 10
50.1565
 20
52.149
 30
0.0
 11
50.1565
 21
49.0499
 31
0.0
  0
LINE
  8
0
 62
     0
 10
50.1565
 20
49.0499
 30
0.0
 11
50.957
 21
49.0499
 31
0.0
  0
LINE
  8
0
 62
     0
 10
50.957
 20
49.0499
 30
0.0
 11
50.957
 21
43.2499
 31
0.0
  0
LINE
  8
0
 62
     0
 10
50.957
 20
43.2499
 30
0.0
 11
50.1565
 21
43.2499
 31
0.0
  0
LINE
  8
0
 62
     0
 10
50.1565
 20
43.2499
 30
0.0
 11
50.1565
 21
40.1493
 31
0.0
  0
LINE
  8
0
 62
     0
 10
50.1565
 20
40.1493
 30
0.0
 11
50.957
 21
40.1493
 31
0.0
  0
LINE
  8
0
 62
     0
 10
50.957
 20
40.1493
 30
0.0
 11
50.957
 21
39.1502
 31
0.0
  0
LINE
  8
0
 62
     0
 10
50.957
 20
39.1502
 30
0.0
 11
64.9566
 21
39.1502
 31
0.0
  0
LINE
  8
0
 62
     0
 10
64.9566
 20
39.1502
 30
0.0
 11
64.9566
 21
40.1493
 31
0.0
  0
LINE
  8
0
 62
     0
 10
64.9566
 20
40.1493
 30
0.0
 11
65.7571
 21
40.1493
 31
0.0
  0
LINE
  8
0
 62
     0
 10
65.7571
 20
40.1493
 30
0.0
 11
65.7571
 21
43.2499
 31
0.0
  0
LINE
  8
0
 62
     0
 10
65.7571
 20
43.2499
 30
0.0
 11
64.9566
 21
43.2499
 31
0.0
  0
LINE
  8
0
 62
     0
 10
64.9566
 20
43.2499
 30
0.0
 11
64.9566
 21
49.0499
 31
0.0
  0
LINE
  8
0
 62
     0
 10
64.9566
 20
49.0499
 30
0.0
 11
65.7571
 21
49.0499
 31
0.0
  0
LINE
  8
0
 62
     0
 10
65.7571
 20
49.0499
 30
0.0
 11
65.7571
 21
52.149
 31
0.0
  0
LINE
  8
0
 62
     0
 10
65.7571
 20
52.149
 30
0.0
 11
64.9566
 21
52.149
 31
0.0
  0
LINE
  8
0
 62
     0
 10
64.9566
 20
52.149
 30
0.0
 11
64.9566
 21
53.1495
 31
0.0
  0
LINE
  8
0
 62
     0
 10
64.9566
 20
53.1495
 30
0.0
 11
50.957
 21
53.1495
 31
0.0
  0
LINE
  8
0
 62
     0
 10
70.007
 20
53.1495
 30
0.0
 11
70.007
 21
52.149
 31
0.0
  0
LINE
  8
0
 62
     0
 10
70.007
 20
52.149
 30
0.0
 11
69.2065
 21
52.149
 31
0.0
  0
LINE
  8
0
 62
     0
 10
69.2065
 20
52.149
 30
0.0
 11
69.2065
 21
49.0499
 31
0.0
  0
LINE
  8
0
 62
     0
 10
69.2065
 20
49.0499
 30
0.0
 11
70.007
 21
49.0499
 31
0.0
  0
LINE
  8
0
 62
     0
 10
70.007
 20
49.0499
 30
0.0
 11
70.007
 21
43.2499
 31
0.0
  0
LINE
  8
0
 62
     0
 10
70.007
 20
43.2499
 30
0.0
 11
69.2065
 21
43.2499
 31
0.0
  0
LINE
  8
0
 62
     0
 10
69.2065
 20
43.2499
 30
0.0
 11
69.2065
 21
40.1493
 31
0.0
  0
LINE
  8
0
 62
     0
 10
69.2065
 20
40.1493
 30
0.0
 11
70.007
 21
40.1493
 31
0.0
  0
LINE
  8
0
 62
     0
 10
70.007
 20
40.1493
 30
0.0
 11
70.007
 21
39.1502
 31
0.0
  0
LINE
  8
0
 62
     0
 10
70.007
 20
39.1502
 30
0.0
 11
84.0066
 21
39.1502
 31
0.0
  0
LINE
  8
0
 62
     0
 10
84.0066
 20
39.1502
 30
0.0
 11
84.0066
 21
40.1493
 31
0.0
  0
LINE
  8
0
 62
     0
 10
84.0066
 20
40.1493
 30
0.0
 11
84.8071
 21
40.1493
 31
0.0
  0
LINE
  8
0
 62
     0
 10
84.8071
 20
40.1493
 30
0.0
 11
84.8071
 21
43.2499
 31
0.0
  0
LINE
  8
0
 62
     0
 10
84.8071
 20
43.2499
 30
0.0
 11
84.0066
 21
43.2499
 31
0.0
  0
LINE
  8
0
 62
     0
 10
84.0066
 20
43.2499
 30
0.0
 11
84.0066
 21
49.0499
 31
0.0
  0
LINE
  8
0
 62
     0
 10
84.0066
 20
49.0499
 30
0.0
 11
84.8071
 21
49.0499
 31
0.0
  0
LINE
  8
0
 62
     0
 10
84.8071
 20
49.0499
 30
0.0
 11
84.8071
 21
52.149
 31
0.0
  0
LINE
  8
0
 62
     0
 10
84.8071
 20
52.149
 30
0.0
 11
84.0066
 21
52.149
 31
0.0
  0
LINE
  8
0
 62
     0
 10
84.0066
 20
52.149
 30
0.0
 11
84.0066
 21
53.1495
 31
0.0
  0
LINE
  8
0
 62
     0
 10
84.0066
 20
53.1495
 30
0.0
 11
70.007
 21
53.1495
 31
0.0
  0
LINE
  8
0
 62
     0
 10
89.057
 20
53.1495
 30
0.0
 11
89.057
 21
52.149
 31
0.0
  0
LINE
  8
0
 62
     0
 10
89.057
 20
52.149
 30
0.0
 11
88.2565
 21
52.149
 31
0.0
  0
LINE
  8
0
 62
     0
 10
88.2565
 20
52.149
 30
0.0
 11
88.2565
 21
49.0499
 31
0.0
  0
LINE
  8
0
 62
     0
 10
88.2565
 20
49.0499
 30
0.0
 11
89.057
 21
49.0499
 31
0.0
  0
LINE
  8
0
 62
     0
 10
89.057
 20
49.0499
 30
0.0
 11
89.057
 21
43.2499
 31
0.0
  0
LINE
  8
0
 62
     0
 10
89.057
 20
43.2499
 30
0.0
 11
88.2565
 21
43.2499
 31
0.0
  0
LINE
  8
0
 62
     0
 10
88.2565
 20
43.2499
 30
0.0
 11
88.2565
 21
40.1493
 31
0.0
  0
LINE
  8
0
 62
     0
 10
88.2565
 20
40.1493
 30
0.0
 11
89.057
 21
40.1493
 31
0.0
  0
LINE
  8
0
 62
     0
 10
89.057
 20
40.1493
 30
0.0
 11
89.057
 21
39.1502
 31
0.0
  0
LINE
  8
0
 62
     0
 10
89.057
 20
39.1502
 30
0.0
 11
103.057
 21
39.1502
 31
0.0
  0
LINE
  8
0
 62
     0
 10
103.057
 20
39.1502
 30
0.0
 11
103.057
 21
40.1493
 31
0.0
  0
LINE
  8
0
 62
     0
 10
103.057
 20
40.1493
 30
0.0
 11
103.857
 21
40.1493
 31
0.0
  0
LINE
  8
0
 62
     0
 10
103.857
 20
40.1493
 30
0.0
 11
103.857
 21
43.2499
 31
0.0
  0
LINE
  8
0
 62
     0
 10
103.857
 20
43.2499
 30
0.0
 11
103.057
 21
43.2499
 31
0.0
  0
LINE
  8
0
 62
     0
 10
103.057
 20
43.2499
 30
0.0
 11
103.057
 21
49.0499
 31
0.0
  0
LINE
  8
0
 62
     0
 10
103.057
 20
49.0499
 30
0.0
 11
103.857
 21
49.0499
 31
0.0
  0
LINE
  8
0
 62
     0
 10
103.857
 20
49.0499
 30
0.0
 11
103.857
 21
52.149
 31
0.0
  0
LINE
  8
0
 62
     0
 10
103.857
 20
52.149
 30
0.0
 11
103.057
 21
52.149
 31
0.0
  0
LINE
  8
0
 62
     0
 10
103.057
 20
52.149
 30
0.0
 11
103.057
 21
53.1495
 31
0.0
  0
LINE
  8
0
 62
     0
 10
103.057
 20
53.1495
 30
0.0
 11
89.057
 21
53.1495
 31
0.0
  0
LINE
  8
0
 62
     0
 10
108.107
 20
53.1495
 30
0.0
 11
108.107
 21
52.149
 31
0.0
  0
LINE
  8
0
 62
     0
 10
108.107
 20
52.149
 30
0.0
 11
107.307
 21
52.149
 31
0.0
  0
LINE
  8
0
 62
     0
 10
107.307
 20
52.149
 30
0.0
 11
107.307
 21
49.0499
 31
0.0
  0
LINE
  8
0
 62
     0
 10
107.307
 20
49.0499
 30
0.0
 11
108.107
 21
49.0499
 31
0.0
  0
LINE
  8
0
 62
     0
 10
108.107
 20
49.0499
 30
0.0
 11
108.107
 21
43.2499
 31
0.0
  0
LINE
  8
0
 62
     0
 10
108.107
 20
43.2499
 30
0.0
 11
107.307
 21
43.2499
 31
0.0
  0
LINE
  8
0
 62
     0
 10
107.307
 20
43.2499
 30
0.0
 11
107.307
 21
40.1493
 31
0.0
  0
LINE
  8
0
 62
     0
 10
107.307
 20
40.1493
 30
0.0
 11
108.107
 21
40.1493
 31
0.0
  0
LINE
  8
0
 62
     0
 10
108.107
 20
40.1493
 30
0.0
 11
108.107
 21
39.1502
 31
0.0
  0
LINE
  8
0
 62
     0
 10
108.107
 20
39.1502
 30
0.0
 11
122.107
 21
39.1502
 31
0.0
  0
LINE
  8
0
 62
     0
 10
122.107
 20
39.1502
 30
0.0
 11
122.107
 21
40.1493
 31
0.0
  0
LINE
  8
0
 62
     0
 10
122.107
 20
40.1493
 30
0.0
 11
122.907
 21
40.1493
 31
0.0
  0
LINE
  8
0
 62
     0
 10
122.907
 20
40.1493
 30
0.0
 11
122.907
 21
43.2499
 31
0.0
  0
LINE
  8
0
 62
     0
 10
122.907
 20
43.2499
 30
0.0
 11
122.107
 21
43.2499
 31
0.0
  0
LINE
  8
0
 62
     0
 10
122.107
 20
43.2499
 30
0.0
 11
122.107
 21
49.0499
 31
0.0
  0
LINE
  8
0
 62
     0
 10
122.107
 20
49.0499
 30
0.0
 11
122.907
 21
49.0499
 31
0.0
  0
LINE
  8
0
 62
     0
 10
122.907
 20
49.0499
 30
0.0
 11
122.907
 21
52.149
 31
0.0
  0
LINE
  8
0
 62
     0
 10
122.907
 20
52.149
 30
0.0
 11
122.107
 21
52.149
 31
0.0
  0
LINE
  8
0
 62
     0
 10
122.107
 20
52.149
 30
0.0
 11
122.107
 21
53.1495
 31
0.0
  0
LINE
  8
0
 62
     0
 10
122.107
 20
53.1495
 30
0.0
 11
108.107
 21
53.1495
 31
0.0
  0
LINE
  8
0
 62
     0
 10
193.832
 20
53.1495
 30
0.0
 11
193.832
 21
52.149
 31
0.0
  0
LINE
  8
0
 62
     0
 10
193.832
 20
52.149
 30
0.0
 11
193.032
 21
52.149
 31
0.0
  0
LINE
  8
0
 62
     0
 10
193.032
 20
52.149
 30
0.0
 11
193.032
 21
49.0499
 31
0.0
  0
LINE
  8
0
 62
     0
 10
193.032
 20
49.0499
 30
0.0
 11
193.832
 21
49.0499
 31
0.0
  0
LINE
  8
0
 62
     0
 10
193.832
 20
49.0499
 30
0.0
 11
193.832
 21
43.2499
 31
0.0
  0
LINE
  8
0
 62
     0
 10
193.832
 20
43.2499
 30
0.0
 11
193.032
 21
43.2499
 31
0.0
  0
LINE
  8
0
 62
     0
 10
193.032
 20
43.2499
 30
0.0
 11
193.032
 21
40.1493
 31
0.0
  0
LINE
  8
0
 62
     0
 10
193.032
 20
40.1493
 30
0.0
 11
193.832
 21
40.1493
 31
0.0
  0
LINE
  8
0
 62
     0
 10
193.832
 20
40.1493
 30
0.0
 11
193.832
 21
39.1502
 31
0.0
  0
LINE
  8
0
 62
     0
 10
193.832
 20
39.1502
 30
0.0
 11
207.832
 21
39.1502
 31
0.0
  0
LINE
  8
0
 62
     0
 10
207.832
 20
39.1502
 30
0.0
 11
207.832
 21
40.1493
 31
0.0
  0
LINE
  8
0
 62
     0
 10
207.832
 20
40.1493
 30
0.0
 11
208.632
 21
40.1493
 31
0.0
  0
LINE
  8
0
 62
     0
 10
208.632
 20
40.1493
 30
0.0
 11
208.632
 21
43.2499
 31
0.0
  0
LINE
  8
0
 62
     0
 10
208.632
 20
43.2499
 30
0.0
 11
207.832
 21
43.2499
 31
0.0
  0
LINE
  8
0
 62
     0
 10
207.832
 20
43.2499
 30
0.0
 11
207.832
 21
49.0499
 31
0.0
  0
LINE
  8
0
 62
     0
 10
207.832
 20
49.0499
 30
0.0
 11
208.632
 21
49.0499
 31
0.0
  0
LINE
  8
0
 62
     0
 10
208.632
 20
49.0499
 30
0.0
 11
208.632
 21
52.149
 31
0.0
  0
LINE
  8
0
 62
     0
 10
208.632
 20
52.149
 30
0.0
 11
207.832
 21
52.149
 31
0.0
  0
LINE
  8
0
 62
     0
 10
207.832
 20
52.149
 30
0.0
 11
207.832
 21
53.1495
 31
0.0
  0
LINE
  8
0
 62
     0
 10
207.832
 20
53.1495
 30
0.0
 11
193.832
 21
53.1495
 31
0.0
  0
LINE
  8
0
 62
     0
 10
24.7633
 20
72.1995
 30
0.0
 11
24.7633
 21
71.199
 31
0.0
  0
LINE
  8
0
 62
     0
 10
24.7633
 20
71.199
 30
0.0
 11
23.9627
 21
71.199
 31
0.0
  0
LINE
  8
0
 62
     0
 10
23.9627
 20
71.199
 30
0.0
 11
23.9627
 21
68.0999
 31
0.0
  0
LINE
  8
0
 62
     0
 10
23.9627
 20
68.0999
 30
0.0
 11
24.7633
 21
68.0999
 31
0.0
  0
LINE
  8
0
 62
     0
 10
24.7633
 20
68.0999
 30
0.0
 11
24.7633
 21
62.2999
 31
0.0
  0
LINE
  8
0
 62
     0
 10
24.7633
 20
62.2999
 30
0.0
 11
23.9627
 21
62.2999
 31
0.0
  0
LINE
  8
0
 62
     0
 10
23.9627
 20
62.2999
 30
0.0
 11
23.9627
 21
59.1993
 31
0.0
  0
LINE
  8
0
 62
     0
 10
23.9627
 20
59.1993
 30
0.0
 11
24.7633
 21
59.1993
 31
0.0
  0
LINE
  8
0
 62
     0
 10
24.7633
 20
59.1993
 30
0.0
 11
24.7633
 21
58.2002
 31
0.0
  0
LINE
  8
0
 62
     0
 10
24.7633
 20
58.2002
 30
0.0
 11
38.7629
 21
58.2002
 31
0.0
  0
LINE
  8
0
 62
     0
 10
38.7629
 20
58.2002
 30
0.0
 11
38.7629
 21
59.1993
 31
0.0
  0
LINE
  8
0
 62
     0
 10
38.7629
 20
59.1993
 30
0.0
 11
39.5623
 21
59.1993
 31
0.0
  0
LINE
  8
0
 62
     0
 10
39.5623
 20
59.1993
 30
0.0
 11
39.5623
 21
62.2999
 31
0.0
  0
LINE
  8
0
 62
     0
 10
39.5623
 20
62.2999
 30
0.0
 11
38.7629
 21
62.2999
 31
0.0
  0
LINE
  8
0
 62
     0
 10
38.7629
 20
62.2999
 30
0.0
 11
38.7629
 21
68.0999
 31
0.0
  0
LINE
  8
0
 62
     0
 10
38.7629
 20
68.0999
 30
0.0
 11
39.5623
 21
68.0999
 31
0.0
  0
LINE
  8
0
 62
     0
 10
39.5623
 20
68.0999
 30
0.0
 11
39.5623
 21
71.199
 31
0.0
  0
LINE
  8
0
 62
     0
 10
39.5623
 20
71.199
 30
0.0
 11
38.7629
 21
71.199
 31
0.0
  0
LINE
  8
0
 62
     0
 10
38.7629
 20
71.199
 30
0.0
 11
38.7629
 21
72.1995
 31
0.0
  0
LINE
  8
0
 62
     0
 10
38.7629
 20
72.1995
 30
0.0
 11
24.7633
 21
72.1995
 31
0.0
  0
LINE
  8
0
 62
     0
 10
46.1945
 20
72.1995
 30
0.0
 11
46.1945
 21
71.199
 31
0.0
  0
LINE
  8
0
 62
     0
 10
46.1945
 20
71.199
 30
0.0
 11
45.3954
 21
71.199
 31
0.0
  0
LINE
  8
0
 62
     0
 10
45.3954
 20
71.199
 30
0.0
 11
45.3954
 21
68.0999
 31
0.0
  0
LINE
  8
0
 62
     0
 10
45.3954
 20
68.0999
 30
0.0
 11
46.1945
 21
68.0999
 31
0.0
  0
LINE
  8
0
 62
     0
 10
46.1945
 20
68.0999
 30
0.0
 11
46.1945
 21
62.2999
 31
0.0
  0
LINE
  8
0
 62
     0
 10
46.1945
 20
62.2999
 30
0.0
 11
45.3954
 21
62.2999
 31
0.0
  0
LINE
  8
0
 62
     0
 10
45.3954
 20
62.2999
 30
0.0
 11
45.3954
 21
59.1993
 31
0.0
  0
LINE
  8
0
 62
     0
 10
45.3954
 20
59.1993
 30
0.0
 11
46.1945
 21
59.1993
 31
0.0
  0
LINE
  8
0
 62
     0
 10
46.1945
 20
59.1993
 30
0.0
 11
46.1945
 21
58.2002
 31
0.0
  0
LINE
  8
0
 62
     0
 10
46.1945
 20
58.2002
 30
0.0
 11
60.1941
 21
58.2002
 31
0.0
  0
LINE
  8
0
 62
     0
 10
60.1941
 20
58.2002
 30
0.0
 11
60.1941
 21
59.1993
 31
0.0
  0
LINE
  8
0
 62
     0
 10
60.1941
 20
59.1993
 30
0.0
 11
60.9946
 21
59.1993
 31
0.0
  0
LINE
  8
0
 62
     0
 10
60.9946
 20
59.1993
 30
0.0
 11
60.9946
 21
62.2999
 31
0.0
  0
LINE
  8
0
 62
     0
 10
60.9946
 20
62.2999
 30
0.0
 11
60.1941
 21
62.2999
 31
0.0
  0
LINE
  8
0
 62
     0
 10
60.1941
 20
62.2999
 30
0.0
 11
60.1941
 21
68.0999
 31
0.0
  0
LINE
  8
0
 62
     0
 10
60.1941
 20
68.0999
 30
0.0
 11
60.9946
 21
68.0999
 31
0.0
  0
LINE
  8
0
 62
     0
 10
60.9946
 20
68.0999
 30
0.0
 11
60.9946
 21
71.199
 31
0.0
  0
LINE
  8
0
 62
     0
 10
60.9946
 20
71.199
 30
0.0
 11
60.1941
 21
71.199
 31
0.0
  0
LINE
  8
0
 62
     0
 10
60.1941
 20
71.199
 30
0.0
 11
60.1941
 21
72.1995
 31
0.0
  0
LINE
  8
0
 62
     0
 10
60.1941
 20
72.1995
 30
0.0
 11
46.1945
 21
72.1995
 31
0.0
  0
LINE
  8
0
 62
     0
 10
65.2445
 20
72.1995
 30
0.0
 11
65.2445
 21
71.199
 31
0.0
  0
LINE
  8
0
 62
     0
 10
65.2445
 20
71.199
 30
0.0
 11
64.4454
 21
71.199
 31
0.0
  0
LINE
  8
0
 62
     0
 10
64.4454
 20
71.199
 30
0.0
 11
64.4454
 21
68.0999
 31
0.0
  0
LINE
  8
0
 62
     0
 10
64.4454
 20
68.0999
 30
0.0
 11
65.2445
 21
68.0999
 31
0.0
  0
LINE
  8
0
 62
     0
 10
65.2445
 20
68.0999
 30
0.0
 11
65.2445
 21
62.2999
 31
0.0
  0
LINE
  8
0
 62
     0
 10
65.2445
 20
62.2999
 30
0.0
 11
64.4454
 21
62.2999
 31
0.0
  0
LINE
  8
0
 62
     0
 10
64.4454
 20
62.2999
 30
0.0
 11
64.4454
 21
59.1993
 31
0.0
  0
LINE
  8
0
 62
     0
 10
64.4454
 20
59.1993
 30
0.0
 11
65.2445
 21
59.1993
 31
0.0
  0
LINE
  8
0
 62
     0
 10
65.2445
 20
59.1993
 30
0.0
 11
65.2445
 21
58.2002
 31
0.0
  0
LINE
  8
0
 62
     0
 10
65.2445
 20
58.2002
 30
0.0
 11
79.2441
 21
58.2002
 31
0.0
  0
LINE
  8
0
 62
     0
 10
79.2441
 20
58.2002
 30
0.0
 11
79.2441
 21
59.1993
 31
0.0
  0
LINE
  8
0
 62
     0
 10
79.2441
 20
59.1993
 30
0.0
 11
80.0446
 21
59.1993
 31
0.0
  0
LINE
  8
0
 62
     0
 10
80.0446
 20
59.1993
 30
0.0
 11
80.0446
 21
62.2999
 31
0.0
  0
LINE
  8
0
 62
     0
 10
80.0446
 20
62.2999
 30
0.0
 11
79.2441
 21
62.2999
 31
0.0
  0
LINE
  8
0
 62
     0
 10
79.2441
 20
62.2999
 30
0.0
 11
79.2441
 21
68.0999
 31
0.0
  0
LINE
  8
0
 62
     0
 10
79.2441
 20
68.0999
 30
0.0
 11
80.0446
 21
68.0999
 31
0.0
  0
LINE
  8
0
 62
     0
 10
80.0446
 20
68.0999
 30
0.0
 11
80.0446
 21
71.199
 31
0.0
  0
LINE
  8
0
 62
     0
 10
80.0446
 20
71.199
 30
0.0
 11
79.2441
 21
71.199
 31
0.0
  0
LINE
  8
0
 62
     0
 10
79.2441
 20
71.199
 30
0.0
 11
79.2441
 21
72.1995
 31
0.0
  0
LINE
  8
0
 62
     0
 10
79.2441
 20
72.1995
 30
0.0
 11
65.2445
 21
72.1995
 31
0.0
  0
LINE
  8
0
 62
     0
 10
84.2945
 20
72.1995
 30
0.0
 11
84.2945
 21
71.199
 31
0.0
  0
LINE
  8
0
 62
     0
 10
84.2945
 20
71.199
 30
0.0
 11
83.4954
 21
71.199
 31
0.0
  0
LINE
  8
0
 62
     0
 10
83.4954
 20
71.199
 30
0.0
 11
83.4954
 21
68.0999
 31
0.0
  0
LINE
  8
0
 62
     0
 10
83.4954
 20
68.0999
 30
0.0
 11
84.2945
 21
68.0999
 31
0.0
  0
LINE
  8
0
 62
     0
 10
84.2945
 20
68.0999
 30
0.0
 11
84.2945
 21
62.2999
 31
0.0
  0
LINE
  8
0
 62
     0
 10
84.2945
 20
62.2999
 30
0.0
 11
83.4954
 21
62.2999
 31
0.0
  0
LINE
  8
0
 62
     0
 10
83.4954
 20
62.2999
 30
0.0
 11
83.4954
 21
59.1993
 31
0.0
  0
LINE
  8
0
 62
     0
 10
83.4954
 20
59.1993
 30
0.0
 11
84.2945
 21
59.1993
 31
0.0
  0
LINE
  8
0
 62
     0
 10
84.2945
 20
59.1993
 30
0.0
 11
84.2945
 21
58.2002
 31
0.0
  0
LINE
  8
0
 62
     0
 10
84.2945
 20
58.2002
 30
0.0
 11
98.2941
 21
58.2002
 31
0.0
  0
LINE
  8
0
 62
     0
 10
98.2941
 20
58.2002
 30
0.0
 11
98.2941
 21
59.1993
 31
0.0
  0
LINE
  8
0
 62
     0
 10
98.2941
 20
59.1993
 30
0.0
 11
99.0946
 21
59.1993
 31
0.0
  0
LINE
  8
0
 62
     0
 10
99.0946
 20
59.1993
 30
0.0
 11
99.0946
 21
62.2999
 31
0.0
  0
LINE
  8
0
 62
     0
 10
99.0946
 20
62.2999
 30
0.0
 11
98.2941
 21
62.2999
 31
0.0
  0
LINE
  8
0
 62
     0
 10
98.2941
 20
62.2999
 30
0.0
 11
98.2941
 21
68.0999
 31
0.0
  0
LINE
  8
0
 62
     0
 10
98.2941
 20
68.0999
 30
0.0
 11
99.0946
 21
68.0999
 31
0.0
  0
LINE
  8
0
 62
     0
 10
99.0946
 20
68.0999
 30
0.0
 11
99.0946
 21
71.199
 31
0.0
  0
LINE
  8
0
 62
     0
 10
99.0946
 20
71.199
 30
0.0
 11
98.2941
 21
71.199
 31
0.0
  0
LINE
  8
0
 62
     0
 10
98.2941
 20
71.199
 30
0.0
 11
98.2941
 21
72.1995
 31
0.0
  0
LINE
  8
0
 62
     0
 10
98.2941
 20
72.1995
 30
0.0
 11
84.2945
 21
72.1995
 31
0.0
  0
LINE
  8
0
 62
     0
 10
103.344
 20
72.1995
 30
0.0
 11
103.344
 21
71.199
 31
0.0
  0
LINE
  8
0
 62
     0
 10
103.344
 20
71.199
 30
0.0
 11
102.545
 21
71.199
 31
0.0
  0
LINE
  8
0
 62
     0
 10
102.545
 20
71.199
 30
0.0
 11
102.545
 21
68.0999
 31
0.0
  0
LINE
  8
0
 62
     0
 10
102.545
 20
68.0999
 30
0.0
 11
103.344
 21
68.0999
 31
0.0
  0
LINE
  8
0
 62
     0
 10
103.344
 20
68.0999
 30
0.0
 11
103.344
 21
62.2999
 31
0.0
  0
LINE
  8
0
 62
     0
 10
103.344
 20
62.2999
 30
0.0
 11
102.545
 21
62.2999
 31
0.0
  0
LINE
  8
0
 62
     0
 10
102.545
 20
62.2999
 30
0.0
 11
102.545
 21
59.1993
 31
0.0
  0
LINE
  8
0
 62
     0
 10
102.545
 20
59.1993
 30
0.0
 11
103.344
 21
59.1993
 31
0.0
  0
LINE
  8
0
 62
     0
 10
103.344
 20
59.1993
 30
0.0
 11
103.344
 21
58.2002
 31
0.0
  0
LINE
  8
0
 62
     0
 10
103.344
 20
58.2002
 30
0.0
 11
117.344
 21
58.2002
 31
0.0
  0
LINE
  8
0
 62
     0
 10
117.344
 20
58.2002
 30
0.0
 11
117.344
 21
59.1993
 31
0.0
  0
LINE
  8
0
 62
     0
 10
117.344
 20
59.1993
 30
0.0
 11
118.145
 21
59.1993
 31
0.0
  0
LINE
  8
0
 62
     0
 10
118.145
 20
59.1993
 30
0.0
 11
118.145
 21
62.2999
 31
0.0
  0
LINE
  8
0
 62
     0
 10
118.145
 20
62.2999
 30
0.0
 11
117.344
 21
62.2999
 31
0.0
  0
LINE
  8
0
 62
     0
 10
117.344
 20
62.2999
 30
0.0
 11
117.344
 21
68.0999
 31
0.0
  0
LINE
  8
0
 62
     0
 10
117.344
 20
68.0999
 30
0.0
 11
118.145
 21
68.0999
 31
0.0
  0
LINE
  8
0
 62
     0
 10
118.145
 20
68.0999
 30
0.0
 11
118.145
 21
71.199
 31
0.0
  0
LINE
  8
0
 62
     0
 10
118.145
 20
71.199
 30
0.0
 11
117.344
 21
71.199
 31
0.0
  0
LINE
  8
0
 62
     0
 10
117.344
 20
71.199
 30
0.0
 11
117.344
 21
72.1995
 31
0.0
  0
LINE
  8
0
 62
     0
 10
117.344
 20
72.1995
 30
0.0
 11
103.344
 21
72.1995
 31
0.0
  0
LINE
  8
0
 62
     0
 10
122.394
 20
72.1995
 30
0.0
 11
122.394
 21
71.199
 31
0.0
  0
LINE
  8
0
 62
     0
 10
122.394
 20
71.199
 30
0.0
 11
121.595
 21
71.199
 31
0.0
  0
LINE
  8
0
 62
     0
 10
121.595
 20
71.199
 30
0.0
 11
121.595
 21
68.0999
 31
0.0
  0
LINE
  8
0
 62
     0
 10
121.595
 20
68.0999
 30
0.0
 11
122.394
 21
68.0999
 31
0.0
  0
LINE
  8
0
 62
     0
 10
122.394
 20
68.0999
 30
0.0
 11
122.394
 21
62.2999
 31
0.0
  0
LINE
  8
0
 62
     0
 10
122.394
 20
62.2999
 30
0.0
 11
121.595
 21
62.2999
 31
0.0
  0
LINE
  8
0
 62
     0
 10
121.595
 20
62.2999
 30
0.0
 11
121.595
 21
59.1993
 31
0.0
  0
LINE
  8
0
 62
     0
 10
121.595
 20
59.1993
 30
0.0
 11
122.394
 21
59.1993
 31
0.0
  0
LINE
  8
0
 62
     0
 10
122.394
 20
59.1993
 30
0.0
 11
122.394
 21
58.2002
 31
0.0
  0
LINE
  8
0
 62
     0
 10
122.394
 20
58.2002
 30
0.0
 11
136.394
 21
58.2002
 31
0.0
  0
LINE
  8
0
 62
     0
 10
136.394
 20
58.2002
 30
0.0
 11
136.394
 21
59.1993
 31
0.0
  0
LINE
  8
0
 62
     0
 10
136.394
 20
59.1993
 30
0.0
 11
137.195
 21
59.1993
 31
0.0
  0
LINE
  8
0
 62
     0
 10
137.195
 20
59.1993
 30
0.0
 11
137.195
 21
62.2999
 31
0.0
  0
LINE
  8
0
 62
     0
 10
137.195
 20
62.2999
 30
0.0
 11
136.394
 21
62.2999
 31
0.0
  0
LINE
  8
0
 62
     0
 10
136.394
 20
62.2999
 30
0.0
 11
136.394
 21
68.0999
 31
0.0
  0
LINE
  8
0
 62
     0
 10
136.394
 20
68.0999
 30
0.0
 11
137.195
 21
68.0999
 31
0.0
  0
LINE
  8
0
 62
     0
 10
137.195
 20
68.0999
 30
0.0
 11
137.195
 21
71.199
 31
0.0
  0
LINE
  8
0
 62
     0
 10
137.195
 20
71.199
 30
0.0
 11
136.394
 21
71.199
 31
0.0
  0
LINE
  8
0
 62
     0
 10
136.394
 20
71.199
 30
0.0
 11
136.394
 21
72.1995
 31
0.0
  0
LINE
  8
0
 62
     0
 10
136.394
 20
72.1995
 30
0.0
 11
122.394
 21
72.1995
 31
0.0
  0
LINE
  8
0
 62
     0
 10
148.588
 20
72.1995
 30
0.0
 11
148.588
 21
71.199
 31
0.0
  0
LINE
  8
0
 62
     0
 10
148.588
 20
71.199
 30
0.0
 11
147.788
 21
71.199
 31
0.0
  0
LINE
  8
0
 62
     0
 10
147.788
 20
71.199
 30
0.0
 11
147.788
 21
68.0999
 31
0.0
  0
LINE
  8
0
 62
     0
 10
147.788
 20
68.0999
 30
0.0
 11
148.588
 21
68.0999
 31
0.0
  0
LINE
  8
0
 62
     0
 10
148.588
 20
68.0999
 30
0.0
 11
148.588
 21
62.2999
 31
0.0
  0
LINE
  8
0
 62
     0
 10
148.588
 20
62.2999
 30
0.0
 11
147.788
 21
62.2999
 31
0.0
  0
LINE
  8
0
 62
     0
 10
147.788
 20
62.2999
 30
0.0
 11
147.788
 21
59.1993
 31
0.0
  0
LINE
  8
0
 62
     0
 10
147.788
 20
59.1993
 30
0.0
 11
148.588
 21
59.1993
 31
0.0
  0
LINE
  8
0
 62
     0
 10
148.588
 20
59.1993
 30
0.0
 11
148.588
 21
58.2002
 31
0.0
  0
LINE
  8
0
 62
     0
 10
148.588
 20
58.2002
 30
0.0
 11
162.588
 21
58.2002
 31
0.0
  0
LINE
  8
0
 62
     0
 10
162.588
 20
58.2002
 30
0.0
 11
162.588
 21
59.1993
 31
0.0
  0
LINE
  8
0
 62
     0
 10
162.588
 20
59.1993
 30
0.0
 11
163.387
 21
59.1993
 31
0.0
  0
LINE
  8
0
 62
     0
 10
163.387
 20
59.1993
 30
0.0
 11
163.387
 21
62.2999
 31
0.0
  0
LINE
  8
0
 62
     0
 10
163.387
 20
62.2999
 30
0.0
 11
162.588
 21
62.2999
 31
0.0
  0
LINE
  8
0
 62
     0
 10
162.588
 20
62.2999
 30
0.0
 11
162.588
 21
68.0999
 31
0.0
  0
LINE
  8
0
 62
     0
 10
162.588
 20
68.0999
 30
0.0
 11
163.387
 21
68.0999
 31
0.0
  0
LINE
  8
0
 62
     0
 10
163.387
 20
68.0999
 30
0.0
 11
163.387
 21
71.199
 31
0.0
  0
LINE
  8
0
 62
     0
 10
163.387
 20
71.199
 30
0.0
 11
162.588
 21
71.199
 31
0.0
  0
LINE
  8
0
 62
     0
 10
162.588
 20
71.199
 30
0.0
 11
162.588
 21
72.1995
 31
0.0
  0
LINE
  8
0
 62
     0
 10
162.588
 20
72.1995
 30
0.0
 11
148.588
 21
72.1995
 31
0.0
  0
LINE
  8
0
 62
     0
 10
193.832
 20
72.1995
 30
0.0
 11
193.832
 21
71.199
 31
0.0
  0
LINE
  8
0
 62
     0
 10
193.832
 20
71.199
 30
0.0
 11
193.032
 21
71.199
 31
0.0
  0
LINE
  8
0
 62
     0
 10
193.032
 20
71.199
 30
0.0
 11
193.032
 21
68.0999
 31
0.0
  0
LINE
  8
0
 62
     0
 10
193.032
 20
68.0999
 30
0.0
 11
193.832
 21
68.0999
 31
0.0
  0
LINE
  8
0
 62
     0
 10
193.832
 20
68.0999
 30
0.0
 11
193.832
 21
62.2999
 31
0.0
  0
LINE
  8
0
 62
     0
 10
193.832
 20
62.2999
 30
0.0
 11
193.032
 21
62.2999
 31
0.0
  0
LINE
  8
0
 62
     0
 10
193.032
 20
62.2999
 30
0.0
 11
193.032
 21
59.1993
 31
0.0
  0
LINE
  8
0
 62
     0
 10
193.032
 20
59.1993
 30
0.0
 11
193.832
 21
59.1993
 31
0.0
  0
LINE
  8
0
 62
     0
 10
193.832
 20
59.1993
 30
0.0
 11
193.832
 21
58.2002
 31
0.0
  0
LINE
  8
0
 62
     0
 10
193.832
 20
58.2002
 30
0.0
 11
207.832
 21
58.2002
 31
0.0
  0
LINE
  8
0
 62
     0
 10
207.832
 20
58.2002
 30
0.0
 11
207.832
 21
59.1993
 31
0.0
  0
LINE
  8
0
 62
     0
 10
207.832
 20
59.1993
 30
0.0
 11
208.632
 21
59.1993
 31
0.0
  0
LINE
  8
0
 62
     0
 10
208.632
 20
59.1993
 30
0.0
 11
208.632
 21
62.2999
 31
0.0
  0
LINE
  8
0
 62
     0
 10
208.632
 20
62.2999
 30
0.0
 11
207.832
 21
62.2999
 31
0.0
  0
LINE
  8
0
 62
     0
 10
207.832
 20
62.2999
 30
0.0
 11
207.832
 21
68.0999
 31
0.0
  0
LINE
  8
0
 62
     0
 10
207.832
 20
68.0999
 30
0.0
 11
208.632
 21
68.0999
 31
0.0
  0
LINE
  8
0
 62
     0
 10
208.632
 20
68.0999
 30
0.0
 11
208.632
 21
71.199
 31
0.0
  0
LINE
  8
0
 62
     0
 10
208.632
 20
71.199
 30
0.0
 11
207.832
 21
71.199
 31
0.0
  0
LINE
  8
0
 62
     0
 10
207.832
 20
71.199
 30
0.0
 11
207.832
 21
72.1995
 31
0.0
  0
LINE
  8
0
 62
     0
 10
207.832
 20
72.1995
 30
0.0
 11
193.832
 21
72.1995
 31
0.0
  0
LINE
  8
0
 62
     0
 10
22.3821
 20
91.2495
 30
0.0
 11
22.3821
 21
90.249
 31
0.0
  0
LINE
  8
0
 62
     0
 10
22.3821
 20
90.249
 30
0.0
 11
21.5815
 21
90.249
 31
0.0
  0
LINE
  8
0
 62
     0
 10
21.5815
 20
90.249
 30
0.0
 11
21.5815
 21
87.1499
 31
0.0
  0
LINE
  8
0
 62
     0
 10
21.5815
 20
87.1499
 30
0.0
 11
22.3821
 21
87.1499
 31
0.0
  0
LINE
  8
0
 62
     0
 10
22.3821
 20
87.1499
 30
0.0
 11
22.3821
 21
81.3499
 31
0.0
  0
LINE
  8
0
 62
     0
 10
22.3821
 20
81.3499
 30
0.0
 11
21.5815
 21
81.3499
 31
0.0
  0
LINE
  8
0
 62
     0
 10
21.5815
 20
81.3499
 30
0.0
 11
21.5815
 21
78.2493
 31
0.0
  0
LINE
  8
0
 62
     0
 10
21.5815
 20
78.2493
 30
0.0
 11
22.3821
 21
78.2493
 31
0.0
  0
LINE
  8
0
 62
     0
 10
22.3821
 20
78.2493
 30
0.0
 11
22.3821
 21
77.2502
 31
0.0
  0
LINE
  8
0
 62
     0
 10
22.3821
 20
77.2502
 30
0.0
 11
36.3816
 21
77.2502
 31
0.0
  0
LINE
  8
0
 62
     0
 10
36.3816
 20
77.2502
 30
0.0
 11
36.3816
 21
78.2493
 31
0.0
  0
LINE
  8
0
 62
     0
 10
36.3816
 20
78.2493
 30
0.0
 11
37.1821
 21
78.2493
 31
0.0
  0
LINE
  8
0
 62
     0
 10
37.1821
 20
78.2493
 30
0.0
 11
37.1821
 21
81.3499
 31
0.0
  0
LINE
  8
0
 62
     0
 10
37.1821
 20
81.3499
 30
0.0
 11
36.3816
 21
81.3499
 31
0.0
  0
LINE
  8
0
 62
     0
 10
36.3816
 20
81.3499
 30
0.0
 11
36.3816
 21
87.1499
 31
0.0
  0
LINE
  8
0
 62
     0
 10
36.3816
 20
87.1499
 30
0.0
 11
37.1821
 21
87.1499
 31
0.0
  0
LINE
  8
0
 62
     0
 10
37.1821
 20
87.1499
 30
0.0
 11
37.1821
 21
90.249
 31
0.0
  0
LINE
  8
0
 62
     0
 10
37.1821
 20
90.249
 30
0.0
 11
36.3816
 21
90.249
 31
0.0
  0
LINE
  8
0
 62
     0
 10
36.3816
 20
90.249
 30
0.0
 11
36.3816
 21
91.2495
 31
0.0
  0
LINE
  8
0
 62
     0
 10
36.3816
 20
91.2495
 30
0.0
 11
22.3821
 21
91.2495
 31
0.0
  0
LINE
  8
0
 62
     0
 10
41.432
 20
91.2495
 30
0.0
 11
41.432
 21
90.249
 31
0.0
  0
LINE
  8
0
 62
     0
 10
41.432
 20
90.249
 30
0.0
 11
40.6315
 21
90.249
 31
0.0
  0
LINE
  8
0
 62
     0
 10
40.6315
 20
90.249
 30
0.0
 11
40.6315
 21
87.1499
 31
0.0
  0
LINE
  8
0
 62
     0
 10
40.6315
 20
87.1499
 30
0.0
 11
41.432
 21
87.1499
 31
0.0
  0
LINE
  8
0
 62
     0
 10
41.432
 20
87.1499
 30
0.0
 11
41.432
 21
81.3499
 31
0.0
  0
LINE
  8
0
 62
     0
 10
41.432
 20
81.3499
 30
0.0
 11
40.6315
 21
81.3499
 31
0.0
  0
LINE
  8
0
 62
     0
 10
40.6315
 20
81.3499
 30
0.0
 11
40.6315
 21
78.2493
 31
0.0
  0
LINE
  8
0
 62
     0
 10
40.6315
 20
78.2493
 30
0.0
 11
41.432
 21
78.2493
 31
0.0
  0
LINE
  8
0
 62
     0
 10
41.432
 20
78.2493
 30
0.0
 11
41.432
 21
77.2502
 31
0.0
  0
LINE
  8
0
 62
     0
 10
41.432
 20
77.2502
 30
0.0
 11
55.4316
 21
77.2502
 31
0.0
  0
LINE
  8
0
 62
     0
 10
55.4316
 20
77.2502
 30
0.0
 11
55.4316
 21
78.2493
 31
0.0
  0
LINE
  8
0
 62
     0
 10
55.4316
 20
78.2493
 30
0.0
 11
56.2321
 21
78.2493
 31
0.0
  0
LINE
  8
0
 62
     0
 10
56.2321
 20
78.2493
 30
0.0
 11
56.2321
 21
81.3499
 31
0.0
  0
LINE
  8
0
 62
     0
 10
56.2321
 20
81.3499
 30
0.0
 11
55.4316
 21
81.3499
 31
0.0
  0
LINE
  8
0
 62
     0
 10
55.4316
 20
81.3499
 30
0.0
 11
55.4316
 21
87.1499
 31
0.0
  0
LINE
  8
0
 62
     0
 10
55.4316
 20
87.1499
 30
0.0
 11
56.2321
 21
87.1499
 31
0.0
  0
LINE
  8
0
 62
     0
 10
56.2321
 20
87.1499
 30
0.0
 11
56.2321
 21
90.249
 31
0.0
  0
LINE
  8
0
 62
     0
 10
56.2321
 20
90.249
 30
0.0
 11
55.4316
 21
90.249
 31
0.0
  0
LINE
  8
0
 62
     0
 10
55.4316
 20
90.249
 30
0.0
 11
55.4316
 21
91.2495
 31
0.0
  0
LINE
  8
0
 62
     0
 10
55.4316
 20
91.2495
 30
0.0
 11
41.432
 21
91.2495
 31
0.0
  0
LINE
  8
0
 62
     0
 10
60.482
 20
91.2495
 30
0.0
 11
60.482
 21
90.249
 31
0.0
  0
LINE
  8
0
 62
     0
 10
60.482
 20
90.249
 30
0.0
 11
59.6815
 21
90.249
 31
0.0
  0
LINE
  8
0
 62
     0
 10
59.6815
 20
90.249
 30
0.0
 11
59.6815
 21
87.1499
 31
0.0
  0
LINE
  8
0
 62
     0
 10
59.6815
 20
87.1499
 30
0.0
 11
60.482
 21
87.1499
 31
0.0
  0
LINE
  8
0
 62
     0
 10
60.482
 20
87.1499
 30
0.0
 11
60.482
 21
81.3499
 31
0.0
  0
LINE
  8
0
 62
     0
 10
60.482
 20
81.3499
 30
0.0
 11
59.6815
 21
81.3499
 31
0.0
  0
LINE
  8
0
 62
     0
 10
59.6815
 20
81.3499
 30
0.0
 11
59.6815
 21
78.2493
 31
0.0
  0
LINE
  8
0
 62
     0
 10
59.6815
 20
78.2493
 30
0.0
 11
60.482
 21
78.2493
 31
0.0
  0
LINE
  8
0
 62
     0
 10
60.482
 20
78.2493
 30
0.0
 11
60.482
 21
77.2502
 31
0.0
  0
LINE
  8
0
 62
     0
 10
60.482
 20
77.2502
 30
0.0
 11
74.4816
 21
77.2502
 31
0.0
  0
LINE
  8
0
 62
     0
 10
74.4816
 20
77.2502
 30
0.0
 11
74.4816
 21
78.2493
 31
0.0
  0
LINE
  8
0
 62
     0
 10
74.4816
 20
78.2493
 30
0.0
 11
75.2821
 21
78.2493
 31
0.0
  0
LINE
  8
0
 62
     0
 10
75.2821
 20
78.2493
 30
0.0
 11
75.2821
 21
81.3499
 31
0.0
  0
LINE
  8
0
 62
     0
 10
75.2821
 20
81.3499
 30
0.0
 11
74.4816
 21
81.3499
 31
0.0
  0
LINE
  8
0
 62
     0
 10
74.4816
 20
81.3499
 30
0.0
 11
74.4816
 21
87.1499
 31
0.0
  0
LINE
  8
0
 62
     0
 10
74.4816
 20
87.1499
 30
0.0
 11
75.2821
 21
87.1499
 31
0.0
  0
LINE
  8
0
 62
     0
 10
75.2821
 20
87.1499
 30
0.0
 11
75.2821
 21
90.249
 31
0.0
  0
LINE
  8
0
 62
     0
 10
75.2821
 20
90.249
 30
0.0
 11
74.4816
 21
90.249
 31
0.0
  0
LINE
  8
0
 62
     0
 10
74.4816
 20
90.249
 30
0.0
 11
74.4816
 21
91.2495
 31
0.0
  0
LINE
  8
0
 62
     0
 10
74.4816
 20
91.2495
 30
0.0
 11
60.482
 21
91.2495
 31
0.0
  0
LINE
  8
0
 62
     0
 10
79.532
 20
91.2495
 30
0.0
 11
79.532
 21
90.249
 31
0.0
  0
LINE
  8
0
 62
     0
 10
79.532
 20
90.249
 30
0.0
 11
78.7315
 21
90.249
 31
0.0
  0
LINE
  8
0
 62
     0
 10
78.7315
 20
90.249
 30
0.0
 11
78.7315
 21
87.1499
 31
0.0
  0
LINE
  8
0
 62
     0
 10
78.7315
 20
87.1499
 30
0.0
 11
79.532
 21
87.1499
 31
0.0
  0
LINE
  8
0
 62
     0
 10
79.532
 20
87.1499
 30
0.0
 11
79.532
 21
81.3499
 31
0.0
  0
LINE
  8
0
 62
     0
 10
79.532
 20
81.3499
 30
0.0
 11
78.7315
 21
81.3499
 31
0.0
  0
LINE
  8
0
 62
     0
 10
78.7315
 20
81.3499
 30
0.0
 11
78.7315
 21
78.2493
 31
0.0
  0
LINE
  8
0
 62
     0
 10
78.7315
 20
78.2493
 30
0.0
 11
79.532
 21
78.2493
 31
0.0
  0
LINE
  8
0
 62
     0
 10
79.532
 20
78.2493
 30
0.0
 11
79.532
 21
77.2502
 31
0.0
  0
LINE
  8
0
 62
     0
 10
79.532
 20
77.2502
 30
0.0
 11
93.5316
 21
77.2502
 31
0.0
  0
LINE
  8
0
 62
     0
 10
93.5316
 20
77.2502
 30
0.0
 11
93.5316
 21
78.2493
 31
0.0
  0
LINE
  8
0
 62
     0
 10
93.5316
 20
78.2493
 30
0.0
 11
94.3321
 21
78.2493
 31
0.0
  0
LINE
  8
0
 62
     0
 10
94.3321
 20
78.2493
 30
0.0
 11
94.3321
 21
81.3499
 31
0.0
  0
LINE
  8
0
 62
     0
 10
94.3321
 20
81.3499
 30
0.0
 11
93.5316
 21
81.3499
 31
0.0
  0
LINE
  8
0
 62
     0
 10
93.5316
 20
81.3499
 30
0.0
 11
93.5316
 21
87.1499
 31
0.0
  0
LINE
  8
0
 62
     0
 10
93.5316
 20
87.1499
 30
0.0
 11
94.3321
 21
87.1499
 31
0.0
  0
LINE
  8
0
 62
     0
 10
94.3321
 20
87.1499
 30
0.0
 11
94.3321
 21
90.249
 31
0.0
  0
LINE
  8
0
 62
     0
 10
94.3321
 20
90.249
 30
0.0
 11
93.5316
 21
90.249
 31
0.0
  0
LINE
  8
0
 62
     0
 10
93.5316
 20
90.249
 30
0.0
 11
93.5316
 21
91.2495
 31
0.0
  0
LINE
  8
0
 62
     0
 10
93.5316
 20
91.2495
 30
0.0
 11
79.532
 21
91.2495
 31
0.0
  0
LINE
  8
0
 62
     0
 10
98.582
 20
91.2495
 30
0.0
 11
98.582
 21
90.249
 31
0.0
  0
LINE
  8
0
 62
     0
 10
98.582
 20
90.249
 30
0.0
 11
97.7815
 21
90.249
 31
0.0
  0
LINE
  8
0
 62
     0
 10
97.7815
 20
90.249
 30
0.0
 11
97.7815
 21
87.1499
 31
0.0
  0
LINE
  8
0
 62
     0
 10
97.7815
 20
87.1499
 30
0.0
 11
98.582
 21
87.1499
 31
0.0
  0
LINE
  8
0
 62
     0
 10
98.582
 20
87.1499
 30
0.0
 11
98.582
 21
81.3499
 31
0.0
  0
LINE
  8
0
 62
     0
 10
98.582
 20
81.3499
 30
0.0
 11
97.7815
 21
81.3499
 31
0.0
  0
LINE
  8
0
 62
     0
 10
97.7815
 20
81.3499
 30
0.0
 11
97.7815
 21
78.2493
 31
0.0
  0
LINE
  8
0
 62
     0
 10
97.7815
 20
78.2493
 30
0.0
 11
98.582
 21
78.2493
 31
0.0
  0
LINE
  8
0
 62
     0
 10
98.582
 20
78.2493
 30
0.0
 11
98.582
 21
77.2502
 31
0.0
  0
LINE
  8
0
 62
     0
 10
98.582
 20
77.2502
 30
0.0
 11
112.582
 21
77.2502
 31
0.0
  0
LINE
  8
0
 62
     0
 10
112.582
 20
77.2502
 30
0.0
 11
112.582
 21
78.2493
 31
0.0
  0
LINE
  8
0
 62
     0
 10
112.582
 20
78.2493
 30
0.0
 11
113.382
 21
78.2493
 31
0.0
  0
LINE
  8
0
 62
     0
 10
113.382
 20
78.2493
 30
0.0
 11
113.382
 21
81.3499
 31
0.0
  0
LINE
  8
0
 62
     0
 10
113.382
 20
81.3499
 30
0.0
 11
112.582
 21
81.3499
 31
0.0
  0
LINE
  8
0
 62
     0
 10
112.582
 20
81.3499
 30
0.0
 11
112.582
 21
87.1499
 31
0.0
  0
LINE
  8
0
 62
     0
 10
112.582
 20
87.1499
 30
0.0
 11
113.382
 21
87.1499
 31
0.0
  0
LINE
  8
0
 62
     0
 10
113.382
 20
87.1499
 30
0.0
 11
113.382
 21
90.249
 31
0.0
  0
LINE
  8
0
 62
     0
 10
113.382
 20
90.249
 30
0.0
 11
112.582
 21
90.249
 31
0.0
  0
LINE
  8
0
 62
     0
 10
112.582
 20
90.249
 30
0.0
 11
112.582
 21
91.2495
 31
0.0
  0
LINE
  8
0
 62
     0
 10
112.582
 20
91.2495
 30
0.0
 11
98.582
 21
91.2495
 31
0.0
  0
LINE
  8
0
 62
     0
 10
117.632
 20
91.2495
 30
0.0
 11
117.632
 21
90.249
 31
0.0
  0
LINE
  8
0
 62
     0
 10
117.632
 20
90.249
 30
0.0
 11
116.832
 21
90.249
 31
0.0
  0
LINE
  8
0
 62
     0
 10
116.832
 20
90.249
 30
0.0
 11
116.832
 21
87.1499
 31
0.0
  0
LINE
  8
0
 62
     0
 10
116.832
 20
87.1499
 30
0.0
 11
117.632
 21
87.1499
 31
0.0
  0
LINE
  8
0
 62
     0
 10
117.632
 20
87.1499
 30
0.0
 11
117.632
 21
81.3499
 31
0.0
  0
LINE
  8
0
 62
     0
 10
117.632
 20
81.3499
 30
0.0
 11
116.832
 21
81.3499
 31
0.0
  0
LINE
  8
0
 62
     0
 10
116.832
 20
81.3499
 30
0.0
 11
116.832
 21
78.2493
 31
0.0
  0
LINE
  8
0
 62
     0
 10
116.832
 20
78.2493
 30
0.0
 11
117.632
 21
78.2493
 31
0.0
  0
LINE
  8
0
 62
     0
 10
117.632
 20
78.2493
 30
0.0
 11
117.632
 21
77.2502
 31
0.0
  0
LINE
  8
0
 62
     0
 10
117.632
 20
77.2502
 30
0.0
 11
131.632
 21
77.2502
 31
0.0
  0
LINE
  8
0
 62
     0
 10
131.632
 20
77.2502
 30
0.0
 11
131.632
 21
78.2493
 31
0.0
  0
LINE
  8
0
 62
     0
 10
131.632
 20
78.2493
 30
0.0
 11
132.432
 21
78.2493
 31
0.0
  0
LINE
  8
0
 62
     0
 10
132.432
 20
78.2493
 30
0.0
 11
132.432
 21
81.3499
 31
0.0
  0
LINE
  8
0
 62
     0
 10
132.432
 20
81.3499
 30
0.0
 11
131.632
 21
81.3499
 31
0.0
  0
LINE
  8
0
 62
     0
 10
131.632
 20
81.3499
 30
0.0
 11
131.632
 21
87.1499
 31
0.0
  0
LINE
  8
0
 62
     0
 10
131.632
 20
87.1499
 30
0.0
 11
132.432
 21
87.1499
 31
0.0
  0
LINE
  8
0
 62
     0
 10
132.432
 20
87.1499
 30
0.0
 11
132.432
 21
90.249
 31
0.0
  0
LINE
  8
0
 62
     0
 10
132.432
 20
90.249
 30
0.0
 11
131.632
 21
90.249
 31
0.0
  0
LINE
  8
0
 62
     0
 10
131.632
 20
90.249
 30
0.0
 11
131.632
 21
91.2495
 31
0.0
  0
LINE
  8
0
 62
     0
 10
131.632
 20
91.2495
 30
0.0
 11
117.632
 21
91.2495
 31
0.0
  0
LINE
  8
0
 62
     0
 10
136.682
 20
91.2495
 30
0.0
 11
136.682
 21
90.249
 31
0.0
  0
LINE
  8
0
 62
     0
 10
136.682
 20
90.249
 30
0.0
 11
135.882
 21
90.249
 31
0.0
  0
LINE
  8
0
 62
     0
 10
135.882
 20
90.249
 30
0.0
 11
135.882
 21
87.1499
 31
0.0
  0
LINE
  8
0
 62
     0
 10
135.882
 20
87.1499
 30
0.0
 11
136.682
 21
87.1499
 31
0.0
  0
LINE
  8
0
 62
     0
 10
136.682
 20
87.1499
 30
0.0
 11
136.682
 21
81.3499
 31
0.0
  0
LINE
  8
0
 62
     0
 10
136.682
 20
81.3499
 30
0.0
 11
135.882
 21
81.3499
 31
0.0
  0
LINE
  8
0
 62
     0
 10
135.882
 20
81.3499
 30
0.0
 11
135.882
 21
78.2493
 31
0.0
  0
LINE
  8
0
 62
     0
 10
135.882
 20
78.2493
 30
0.0
 11
136.682
 21
78.2493
 31
0.0
  0
LINE
  8
0
 62
     0
 10
136.682
 20
78.2493
 30
0.0
 11
136.682
 21
77.2502
 31
0.0
  0
LINE
  8
0
 62
     0
 10
136.682
 20
77.2502
 30
0.0
 11
150.682
 21
77.2502
 31
0.0
  0
LINE
  8
0
 62
     0
 10
150.682
 20
77.2502
 30
0.0
 11
150.682
 21
78.2493
 31
0.0
  0
LINE
  8
0
 62
     0
 10
150.682
 20
78.2493
 30
0.0
 11
151.482
 21
78.2493
 31
0.0
  0
LINE
  8
0
 62
     0
 10
151.482
 20
78.2493
 30
0.0
 11
151.482
 21
81.3499
 31
0.0
  0
LINE
  8
0
 62
     0
 10
151.482
 20
81.3499
 30
0.0
 11
150.682
 21
81.3499
 31
0.0
  0
LINE
  8
0
 62
     0
 10
150.682
 20
81.3499
 30
0.0
 11
150.682
 21
87.1499
 31
0.0
  0
LINE
  8
0
 62
     0
 10
150.682
 20
87.1499
 30
0.0
 11
151.482
 21
87.1499
 31
0.0
  0
LINE
  8
0
 62
     0
 10
151.482
 20
87.1499
 30
0.0
 11
151.482
 21
90.249
 31
0.0
  0
LINE
  8
0
 62
     0
 10
151.482
 20
90.249
 30
0.0
 11
150.682
 21
90.249
 31
0.0
  0
LINE
  8
0
 62
     0
 10
150.682
 20
90.249
 30
0.0
 11
150.682
 21
91.2495
 31
0.0
  0
LINE
  8
0
 62
     0
 10
150.682
 20
91.2495
 30
0.0
 11
136.682
 21
91.2495
 31
0.0
  0
LINE
  8
0
 62
     0
 10
155.732
 20
91.2495
 30
0.0
 11
155.732
 21
90.249
 31
0.0
  0
LINE
  8
0
 62
     0
 10
155.732
 20
90.249
 30
0.0
 11
154.932
 21
90.249
 31
0.0
  0
LINE
  8
0
 62
     0
 10
154.932
 20
90.249
 30
0.0
 11
154.932
 21
87.1499
 31
0.0
  0
LINE
  8
0
 62
     0
 10
154.932
 20
87.1499
 30
0.0
 11
155.732
 21
87.1499
 31
0.0
  0
LINE
  8
0
 62
     0
 10
155.732
 20
87.1499
 30
0.0
 11
155.732
 21
81.3499
 31
0.0
  0
LINE
  8
0
 62
     0
 10
155.732
 20
81.3499
 30
0.0
 11
154.932
 21
81.3499
 31
0.0
  0
LINE
  8
0
 62
     0
 10
154.932
 20
81.3499
 30
0.0
 11
154.932
 21
78.2493
 31
0.0
  0
LINE
  8
0
 62
     0
 10
154.932
 20
78.2493
 30
0.0
 11
155.732
 21
78.2493
 31
0.0
  0
LINE
  8
0
 62
     0
 10
155.732
 20
78.2493
 30
0.0
 11
155.732
 21
77.2502
 31
0.0
  0
LINE
  8
0
 62
     0
 10
155.732
 20
77.2502
 30
0.0
 11
169.732
 21
77.2502
 31
0.0
  0
LINE
  8
0
 62
     0
 10
169.732
 20
77.2502
 30
0.0
 11
169.732
 21
78.2493
 31
0.0
  0
LINE
  8
0
 62
     0
 10
169.732
 20
78.2493
 30
0.0
 11
170.532
 21
78.2493
 31
0.0
  0
LINE
  8
0
 62
     0
 10
170.532
 20
78.2493
 30
0.0
 11
170.532
 21
81.3499
 31
0.0
  0
LINE
  8
0
 62
     0
 10
170.532
 20
81.3499
 30
0.0
 11
169.732
 21
81.3499
 31
0.0
  0
LINE
  8
0
 62
     0
 10
169.732
 20
81.3499
 30
0.0
 11
169.732
 21
87.1499
 31
0.0
  0
LINE
  8
0
 62
     0
 10
169.732
 20
87.1499
 30
0.0
 11
170.532
 21
87.1499
 31
0.0
  0
LINE
  8
0
 62
     0
 10
170.532
 20
87.1499
 30
0.0
 11
170.532
 21
90.249
 31
0.0
  0
LINE
  8
0
 62
     0
 10
170.532
 20
90.249
 30
0.0
 11
169.732
 21
90.249
 31
0.0
  0
LINE
  8
0
 62
     0
 10
169.732
 20
90.249
 30
0.0
 11
169.732
 21
91.2495
 31
0.0
  0
LINE
  8
0
 62
     0
 10
169.732
 20
91.2495
 30
0.0
 11
155.732
 21
91.2495
 31
0.0
  0
LINE
  8
0
 62
     0
 10
174.782
 20
91.2495
 30
0.0
 11
174.782
 21
90.249
 31
0.0
  0
LINE
  8
0
 62
     0
 10
174.782
 20
90.249
 30
0.0
 11
173.982
 21
90.249
 31
0.0
  0
LINE
  8
0
 62
     0
 10
173.982
 20
90.249
 30
0.0
 11
173.982
 21
87.1499
 31
0.0
  0
LINE
  8
0
 62
     0
 10
173.982
 20
87.1499
 30
0.0
 11
174.782
 21
87.1499
 31
0.0
  0
LINE
  8
0
 62
     0
 10
174.782
 20
87.1499
 30
0.0
 11
174.782
 21
81.3499
 31
0.0
  0
LINE
  8
0
 62
     0
 10
174.782
 20
81.3499
 30
0.0
 11
173.982
 21
81.3499
 31
0.0
  0
LINE
  8
0
 62
     0
 10
173.982
 20
81.3499
 30
0.0
 11
173.982
 21
78.2493
 31
0.0
  0
LINE
  8
0
 62
     0
 10
173.982
 20
78.2493
 30
0.0
 11
174.782
 21
78.2493
 31
0.0
  0
LINE
  8
0
 62
     0
 10
174.782
 20
78.2493
 30
0.0
 11
174.782
 21
77.2502
 31
0.0
  0
LINE
  8
0
 62
     0
 10
174.782
 20
77.2502
 30
0.0
 11
188.782
 21
77.2502
 31
0.0
  0
LINE
  8
0
 62
     0
 10
188.782
 20
77.2502
 30
0.0
 11
188.782
 21
78.2493
 31
0.0
  0
LINE
  8
0
 62
     0
 10
188.782
 20
78.2493
 30
0.0
 11
189.582
 21
78.2493
 31
0.0
  0
LINE
  8
0
 62
     0
 10
189.582
 20
78.2493
 30
0.0
 11
189.582
 21
81.3499
 31
0.0
  0
LINE
  8
0
 62
     0
 10
189.582
 20
81.3499
 30
0.0
 11
188.782
 21
81.3499
 31
0.0
  0
LINE
  8
0
 62
     0
 10
188.782
 20
81.3499
 30
0.0
 11
188.782
 21
87.1499
 31
0.0
  0
LINE
  8
0
 62
     0
 10
188.782
 20
87.1499
 30
0.0
 11
189.582
 21
87.1499
 31
0.0
  0
LINE
  8
0
 62
     0
 10
189.582
 20
87.1499
 30
0.0
 11
189.582
 21
90.249
 31
0.0
  0
LINE
  8
0
 62
     0
 10
189.582
 20
90.249
 30
0.0
 11
188.782
 21
90.249
 31
0.0
  0
LINE
  8
0
 62
     0
 10
188.782
 20
90.249
 30
0.0
 11
188.782
 21
91.2495
 31
0.0
  0
LINE
  8
0
 62
     0
 10
188.782
 20
91.2495
 30
0.0
 11
174.782
 21
91.2495
 31
0.0
  0
LINE
  8
0
 62
     0
 10
193.832
 20
91.2495
 30
0.0
 11
193.832
 21
90.249
 31
0.0
  0
LINE
  8
0
 62
     0
 10
193.832
 20
90.249
 30
0.0
 11
193.032
 21
90.249
 31
0.0
  0
LINE
  8
0
 62
     0
 10
193.032
 20
90.249
 30
0.0
 11
193.032
 21
87.1499
 31
0.0
  0
LINE
  8
0
 62
     0
 10
193.032
 20
87.1499
 30
0.0
 11
193.832
 21
87.1499
 31
0.0
  0
LINE
  8
0
 62
     0
 10
193.832
 20
87.1499
 30
0.0
 11
193.832
 21
81.3499
 31
0.0
  0
LINE
  8
0
 62
     0
 10
193.832
 20
81.3499
 30
0.0
 11
193.032
 21
81.3499
 31
0.0
  0
LINE
  8
0
 62
     0
 10
193.032
 20
81.3499
 30
0.0
 11
193.032
 21
78.2493
 31
0.0
  0
LINE
  8
0
 62
     0
 10
193.032
 20
78.2493
 30
0.0
 11
193.832
 21
78.2493
 31
0.0
  0
LINE
  8
0
 62
     0
 10
193.832
 20
78.2493
 30
0.0
 11
193.832
 21
77.2502
 31
0.0
  0
LINE
  8
0
 62
     0
 10
193.832
 20
77.2502
 30
0.0
 11
207.832
 21
77.2502
 31
0.0
  0
LINE
  8
0
 62
     0
 10
207.832
 20
77.2502
 30
0.0
 11
207.832
 21
78.2493
 31
0.0
  0
LINE
  8
0
 62
     0
 10
207.832
 20
78.2493
 30
0.0
 11
208.632
 21
78.2493
 31
0.0
  0
LINE
  8
0
 62
     0
 10
208.632
 20
78.2493
 30
0.0
 11
208.632
 21
81.3499
 31
0.0
  0
LINE
  8
0
 62
     0
 10
208.632
 20
81.3499
 30
0.0
 11
207.832
 21
81.3499
 31
0.0
  0
LINE
  8
0
 62
     0
 10
207.832
 20
81.3499
 30
0.0
 11
207.832
 21
87.1499
 31
0.0
  0
LINE
  8
0
 62
     0
 10
207.832
 20
87.1499
 30
0.0
 11
208.632
 21
87.1499
 31
0.0
  0
LINE
  8
0
 62
     0
 10
208.632
 20
87.1499
 30
0.0
 11
208.632
 21
90.249
 31
0.0
  0
LINE
  8
0
 62
     0
 10
208.632
 20
90.249
 30
0.0
 11
207.832
 21
90.249
 31
0.0
  0
LINE
  8
0
 62
     0
 10
207.832
 20
90.249
 30
0.0
 11
207.832
 21
91.2495
 31
0.0
  0
LINE
  8
0
 62
     0
 10
207.832
 20
91.2495
 30
0.0
 11
193.832
 21
91.2495
 31
0.0
  0
LINE
  8
0
 62
     0
 10
27.1432
 20
110.3
 30
0.0
 11
27.1432
 21
109.299
 31
0.0
  0
LINE
  8
0
 62
     0
 10
27.1432
 20
109.299
 30
0.0
 11
26.344
 21
109.299
 31
0.0
  0
LINE
  8
0
 62
     0
 10
26.344
 20
109.299
 30
0.0
 11
26.344
 21
106.2
 31
0.0
  0
LINE
  8
0
 62
     0
 10
26.344
 20
106.2
 30
0.0
 11
27.1432
 21
106.2
 31
0.0
  0
LINE
  8
0
 62
     0
 10
27.1432
 20
106.2
 30
0.0
 11
27.1432
 21
100.4
 31
0.0
  0
LINE
  8
0
 62
     0
 10
27.1432
 20
100.4
 30
0.0
 11
26.344
 21
100.4
 31
0.0
  0
LINE
  8
0
 62
     0
 10
26.344
 20
100.4
 30
0.0
 11
26.344
 21
97.2993
 31
0.0
  0
LINE
  8
0
 62
     0
 10
26.344
 20
97.2993
 30
0.0
 11
27.1432
 21
97.2993
 31
0.0
  0
LINE
  8
0
 62
     0
 10
27.1432
 20
97.2993
 30
0.0
 11
27.1432
 21
96.3002
 31
0.0
  0
LINE
  8
0
 62
     0
 10
27.1432
 20
96.3002
 30
0.0
 11
41.1441
 21
96.3002
 31
0.0
  0
LINE
  8
0
 62
     0
 10
41.1441
 20
96.3002
 30
0.0
 11
41.1441
 21
97.2993
 31
0.0
  0
LINE
  8
0
 62
     0
 10
41.1441
 20
97.2993
 30
0.0
 11
41.9435
 21
97.2993
 31
0.0
  0
LINE
  8
0
 62
     0
 10
41.9435
 20
97.2993
 30
0.0
 11
41.9435
 21
100.4
 31
0.0
  0
LINE
  8
0
 62
     0
 10
41.9435
 20
100.4
 30
0.0
 11
41.1441
 21
100.4
 31
0.0
  0
LINE
  8
0
 62
     0
 10
41.1441
 20
100.4
 30
0.0
 11
41.1441
 21
106.2
 31
0.0
  0
LINE
  8
0
 62
     0
 10
41.1441
 20
106.2
 30
0.0
 11
41.9435
 21
106.2
 31
0.0
  0
LINE
  8
0
 62
     0
 10
41.9435
 20
106.2
 30
0.0
 11
41.9435
 21
109.299
 31
0.0
  0
LINE
  8
0
 62
     0
 10
41.9435
 20
109.299
 30
0.0
 11
41.1441
 21
109.299
 31
0.0
  0
LINE
  8
0
 62
     0
 10
41.1441
 20
109.299
 30
0.0
 11
41.1441
 21
110.3
 31
0.0
  0
LINE
  8
0
 62
     0
 10
41.1441
 20
110.3
 30
0.0
 11
27.1432
 21
110.3
 31
0.0
  0
LINE
  8
0
 62
     0
 10
50.957
 20
110.3
 30
0.0
 11
50.957
 21
109.299
 31
0.0
  0
LINE
  8
0
 62
     0
 10
50.957
 20
109.299
 30
0.0
 11
50.1565
 21
109.299
 31
0.0
  0
LINE
  8
0
 62
     0
 10
50.1565
 20
109.299
 30
0.0
 11
50.1565
 21
106.2
 31
0.0
  0
LINE
  8
0
 62
     0
 10
50.1565
 20
106.2
 30
0.0
 11
50.957
 21
106.2
 31
0.0
  0
LINE
  8
0
 62
     0
 10
50.957
 20
106.2
 30
0.0
 11
50.957
 21
100.4
 31
0.0
  0
LINE
  8
0
 62
     0
 10
50.957
 20
100.4
 30
0.0
 11
50.1565
 21
100.4
 31
0.0
  0
LINE
  8
0
 62
     0
 10
50.1565
 20
100.4
 30
0.0
 11
50.1565
 21
97.2993
 31
0.0
  0
LINE
  8
0
 62
     0
 10
50.1565
 20
97.2993
 30
0.0
 11
50.957
 21
97.2993
 31
0.0
  0
LINE
  8
0
 62
     0
 10
50.957
 20
97.2993
 30
0.0
 11
50.957
 21
96.3002
 31
0.0
  0
LINE
  8
0
 62
     0
 10
50.957
 20
96.3002
 30
0.0
 11
64.9566
 21
96.3002
 31
0.0
  0
LINE
  8
0
 62
     0
 10
64.9566
 20
96.3002
 30
0.0
 11
64.9566
 21
97.2993
 31
0.0
  0
LINE
  8
0
 62
     0
 10
64.9566
 20
97.2993
 30
0.0
 11
65.7571
 21
97.2993
 31
0.0
  0
LINE
  8
0
 62
     0
 10
65.7571
 20
97.2993
 30
0.0
 11
65.7571
 21
100.4
 31
0.0
  0
LINE
  8
0
 62
     0
 10
65.7571
 20
100.4
 30
0.0
 11
64.9566
 21
100.4
 31
0.0
  0
LINE
  8
0
 62
     0
 10
64.9566
 20
100.4
 30
0.0
 11
64.9566
 21
106.2
 31
0.0
  0
LINE
  8
0
 62
     0
 10
64.9566
 20
106.2
 30
0.0
 11
65.7571
 21
106.2
 31
0.0
  0
LINE
  8
0
 62
     0
 10
65.7571
 20
106.2
 30
0.0
 11
65.7571
 21
109.299
 31
0.0
  0
LINE
  8
0
 62
     0
 10
65.7571
 20
109.299
 30
0.0
 11
64.9566
 21
109.299
 31
0.0
  0
LINE
  8
0
 62
     0
 10
64.9566
 20
109.299
 30
0.0
 11
64.9566
 21
110.3
 31
0.0
  0
LINE
  8
0
 62
     0
 10
64.9566
 20
110.3
 30
0.0
 11
50.957
 21
110.3
 31
0.0
  0
LINE
  8
0
 62
     0
 10
70.007
 20
110.3
 30
0.0
 11
70.007
 21
109.299
 31
0.0
  0
LINE
  8
0
 62
     0
 10
70.007
 20
109.299
 30
0.0
 11
69.2065
 21
109.299
 31
0.0
  0
LINE
  8
0
 62
     0
 10
69.2065
 20
109.299
 30
0.0
 11
69.2065
 21
106.2
 31
0.0
  0
LINE
  8
0
 62
     0
 10
69.2065
 20
106.2
 30
0.0
 11
70.007
 21
106.2
 31
0.0
  0
LINE
  8
0
 62
     0
 10
70.007
 20
106.2
 30
0.0
 11
70.007
 21
100.4
 31
0.0
  0
LINE
  8
0
 62
     0
 10
70.007
 20
100.4
 30
0.0
 11
69.2065
 21
100.4
 31
0.0
  0
LINE
  8
0
 62
     0
 10
69.2065
 20
100.4
 30
0.0
 11
69.2065
 21
97.2993
 31
0.0
  0
LINE
  8
0
 62
     0
 10
69.2065
 20
97.2993
 30
0.0
 11
70.007
 21
97.2993
 31
0.0
  0
LINE
  8
0
 62
     0
 10
70.007
 20
97.2993
 30
0.0
 11
70.007
 21
96.3002
 31
0.0
  0
LINE
  8
0
 62
     0
 10
70.007
 20
96.3002
 30
0.0
 11
84.0066
 21
96.3002
 31
0.0
  0
LINE
  8
0
 62
     0
 10
84.0066
 20
96.3002
 30
0.0
 11
84.0066
 21
97.2993
 31
0.0
  0
LINE
  8
0
 62
     0
 10
84.0066
 20
97.2993
 30
0.0
 11
84.8071
 21
97.2993
 31
0.0
  0
LINE
  8
0
 62
     0
 10
84.8071
 20
97.2993
 30
0.0
 11
84.8071
 21
100.4
 31
0.0
  0
LINE
  8
0
 62
     0
 10
84.8071
 20
100.4
 30
0.0
 11
84.0066
 21
100.4
 31
0.0
  0
LINE
  8
0
 62
     0
 10
84.0066
 20
100.4
 30
0.0
 11
84.0066
 21
106.2
 31
0.0
  0
LINE
  8
0
 62
     0
 10
84.0066
 20
106.2
 30
0.0
 11
84.8071
 21
106.2
 31
0.0
  0
LINE
  8
0
 62
     0
 10
84.8071
 20
106.2
 30
0.0
 11
84.8071
 21
109.299
 31
0.0
  0
LINE
  8
0
 62
     0
 10
84.8071
 20
109.299
 30
0.0
 11
84.0066
 21
109.299
 31
0.0
  0
LINE
  8
0
 62
     0
 10
84.0066
 20
109.299
 30
0.0
 11
84.0066
 21
110.3
 31
0.0
  0
LINE
  8
0
 62
     0
 10
84.0066
 20
110.3
 30
0.0
 11
70.007
 21
110.3
 31
0.0
  0
LINE
  8
0
 62
     0
 10
89.057
 20
110.3
 30
0.0
 11
89.057
 21
109.299
 31
0.0
  0
LINE
  8
0
 62
     0
 10
89.057
 20
109.299
 30
0.0
 11
88.2565
 21
109.299
 31
0.0
  0
LINE
  8
0
 62
     0
 10
88.2565
 20
109.299
 30
0.0
 11
88.2565
 21
106.2
 31
0.0
  0
LINE
  8
0
 62
     0
 10
88.2565
 20
106.2
 30
0.0
 11
89.057
 21
106.2
 31
0.0
  0
LINE
  8
0
 62
     0
 10
89.057
 20
106.2
 30
0.0
 11
89.057
 21
100.4
 31
0.0
  0
LINE
  8
0
 62
     0
 10
89.057
 20
100.4
 30
0.0
 11
88.2565
 21
100.4
 31
0.0
  0
LINE
  8
0
 62
     0
 10
88.2565
 20
100.4
 30
0.0
 11
88.2565
 21
97.2993
 31
0.0
  0
LINE
  8
0
 62
     0
 10
88.2565
 20
97.2993
 30
0.0
 11
89.057
 21
97.2993
 31
0.0
  0
LINE
  8
0
 62
     0
 10
89.057
 20
97.2993
 30
0.0
 11
89.057
 21
96.3002
 31
0.0
  0
LINE
  8
0
 62
     0
 10
89.057
 20
96.3002
 30
0.0
 11
103.057
 21
96.3002
 31
0.0
  0
LINE
  8
0
 62
     0
 10
103.057
 20
96.3002
 30
0.0
 11
103.057
 21
97.2993
 31
0.0
  0
LINE
  8
0
 62
     0
 10
103.057
 20
97.2993
 30
0.0
 11
103.857
 21
97.2993
 31
0.0
  0
LINE
  8
0
 62
     0
 10
103.857
 20
97.2993
 30
0.0
 11
103.857
 21
100.4
 31
0.0
  0
LINE
  8
0
 62
     0
 10
103.857
 20
100.4
 30
0.0
 11
103.057
 21
100.4
 31
0.0
  0
LINE
  8
0
 62
     0
 10
103.057
 20
100.4
 30
0.0
 11
103.057
 21
106.2
 31
0.0
  0
LINE
  8
0
 62
     0
 10
103.057
 20
106.2
 30
0.0
 11
103.857
 21
106.2
 31
0.0
  0
LINE
  8
0
 62
     0
 10
103.857
 20
106.2
 30
0.0
 11
103.857
 21
109.299
 31
0.0
  0
LINE
  8
0
 62
     0
 10
103.857
 20
109.299
 30
0.0
 11
103.057
 21
109.299
 31
0.0
  0
LINE
  8
0
 62
     0
 10
103.057
 20
109.299
 30
0.0
 11
103.057
 21
110.3
 31
0.0
  0
LINE
  8
0
 62
     0
 10
103.057
 20
110.3
 30
0.0
 11
89.057
 21
110.3
 31
0.0
  0
LINE
  8
0
 62
     0
 10
108.107
 20
110.3
 30
0.0
 11
108.107
 21
109.299
 31
0.0
  0
LINE
  8
0
 62
     0
 10
108.107
 20
109.299
 30
0.0
 11
107.307
 21
109.299
 31
0.0
  0
LINE
  8
0
 62
     0
 10
107.307
 20
109.299
 30
0.0
 11
107.307
 21
106.2
 31
0.0
  0
LINE
  8
0
 62
     0
 10
107.307
 20
106.2
 30
0.0
 11
108.107
 21
106.2
 31
0.0
  0
LINE
  8
0
 62
     0
 10
108.107
 20
106.2
 30
0.0
 11
108.107
 21
100.4
 31
0.0
  0
LINE
  8
0
 62
     0
 10
108.107
 20
100.4
 30
0.0
 11
107.307
 21
100.4
 31
0.0
  0
LINE
  8
0
 62
     0
 10
107.307
 20
100.4
 30
0.0
 11
107.307
 21
97.2993
 31
0.0
  0
LINE
  8
0
 62
     0
 10
107.307
 20
97.2993
 30
0.0
 11
108.107
 21
97.2993
 31
0.0
  0
LINE
  8
0
 62
     0
 10
108.107
 20
97.2993
 30
0.0
 11
108.107
 21
96.3002
 31
0.0
  0
LINE
  8
0
 62
     0
 10
108.107
 20
96.3002
 30
0.0
 11
122.107
 21
96.3002
 31
0.0
  0
LINE
  8
0
 62
     0
 10
122.107
 20
96.3002
 30
0.0
 11
122.107
 21
97.2993
 31
0.0
  0
LINE
  8
0
 62
     0
 10
122.107
 20
97.2993
 30
0.0
 11
122.907
 21
97.2993
 31
0.0
  0
LINE
  8
0
 62
     0
 10
122.907
 20
97.2993
 30
0.0
 11
122.907
 21
100.4
 31
0.0
  0
LINE
  8
0
 62
     0
 10
122.907
 20
100.4
 30
0.0
 11
122.107
 21
100.4
 31
0.0
  0
LINE
  8
0
 62
     0
 10
122.107
 20
100.4
 30
0.0
 11
122.107
 21
106.2
 31
0.0
  0
LINE
  8
0
 62
     0
 10
122.107
 20
106.2
 30
0.0
 11
122.907
 21
106.2
 31
0.0
  0
LINE
  8
0
 62
     0
 10
122.907
 20
106.2
 30
0.0
 11
122.907
 21
109.299
 31
0.0
  0
LINE
  8
0
 62
     0
 10
122.907
 20
109.299
 30
0.0
 11
122.107
 21
109.299
 31
0.0
  0
LINE
  8
0
 62
     0
 10
122.107
 20
109.299
 30
0.0
 11
122.107
 21
110.3
 31
0.0
  0
LINE
  8
0
 62
     0
 10
122.107
 20
110.3
 30
0.0
 11
108.107
 21
110.3
 31
0.0
  0
LINE
  8
0
 62
     0
 10
127.157
 20
110.3
 30
0.0
 11
127.157
 21
109.299
 31
0.0
  0
LINE
  8
0
 62
     0
 10
127.157
 20
109.299
 30
0.0
 11
126.357
 21
109.299
 31
0.0
  0
LINE
  8
0
 62
     0
 10
126.357
 20
109.299
 30
0.0
 11
126.357
 21
106.2
 31
0.0
  0
LINE
  8
0
 62
     0
 10
126.357
 20
106.2
 30
0.0
 11
127.157
 21
106.2
 31
0.0
  0
LINE
  8
0
 62
     0
 10
127.157
 20
106.2
 30
0.0
 11
127.157
 21
100.4
 31
0.0
  0
LINE
  8
0
 62
     0
 10
127.157
 20
100.4
 30
0.0
 11
126.357
 21
100.4
 31
0.0
  0
LINE
  8
0
 62
     0
 10
126.357
 20
100.4
 30
0.0
 11
126.357
 21
97.2993
 31
0.0
  0
LINE
  8
0
 62
     0
 10
126.357
 20
97.2993
 30
0.0
 11
127.157
 21
97.2993
 31
0.0
  0
LINE
  8
0
 62
     0
 10
127.157
 20
97.2993
 30
0.0
 11
127.157
 21
96.3002
 31
0.0
  0
LINE
  8
0
 62
     0
 10
127.157
 20
96.3002
 30
0.0
 11
141.157
 21
96.3002
 31
0.0
  0
LINE
  8
0
 62
     0
 10
141.157
 20
96.3002
 30
0.0
 11
141.157
 21
97.2993
 31
0.0
  0
LINE
  8
0
 62
     0
 10
141.157
 20
97.2993
 30
0.0
 11
141.957
 21
97.2993
 31
0.0
  0
LINE
  8
0
 62
     0
 10
141.957
 20
97.2993
 30
0.0
 11
141.957
 21
100.4
 31
0.0
  0
LINE
  8
0
 62
     0
 10
141.957
 20
100.4
 30
0.0
 11
141.157
 21
100.4
 31
0.0
  0
LINE
  8
0
 62
     0
 10
141.157
 20
100.4
 30
0.0
 11
141.157
 21
106.2
 31
0.0
  0
LINE
  8
0
 62
     0
 10
141.157
 20
106.2
 30
0.0
 11
141.957
 21
106.2
 31
0.0
  0
LINE
  8
0
 62
     0
 10
141.957
 20
106.2
 30
0.0
 11
141.957
 21
109.299
 31
0.0
  0
LINE
  8
0
 62
     0
 10
141.957
 20
109.299
 30
0.0
 11
141.157
 21
109.299
 31
0.0
  0
LINE
  8
0
 62
     0
 10
141.157
 20
109.299
 30
0.0
 11
141.157
 21
110.3
 31
0.0
  0
LINE
  8
0
 62
     0
 10
141.157
 20
110.3
 30
0.0
 11
127.157
 21
110.3
 31
0.0
  0
LINE
  8
0
 62
     0
 10
150.969
 20
110.3
 30
0.0
 11
150.969
 21
109.299
 31
0.0
  0
LINE
  8
0
 62
     0
 10
150.969
 20
109.299
 30
0.0
 11
150.17
 21
109.299
 31
0.0
  0
LINE
  8
0
 62
     0
 10
150.17
 20
109.299
 30
0.0
 11
150.17
 21
106.2
 31
0.0
  0
LINE
  8
0
 62
     0
 10
150.17
 20
106.2
 30
0.0
 11
150.969
 21
106.2
 31
0.0
  0
LINE
  8
0
 62
     0
 10
150.969
 20
106.2
 30
0.0
 11
150.969
 21
100.4
 31
0.0
  0
LINE
  8
0
 62
     0
 10
150.969
 20
100.4
 30
0.0
 11
150.17
 21
100.4
 31
0.0
  0
LINE
  8
0
 62
     0
 10
150.17
 20
100.4
 30
0.0
 11
150.17
 21
97.2993
 31
0.0
  0
LINE
  8
0
 62
     0
 10
150.17
 20
97.2993
 30
0.0
 11
150.969
 21
97.2993
 31
0.0
  0
LINE
  8
0
 62
     0
 10
150.969
 20
97.2993
 30
0.0
 11
150.969
 21
96.3002
 31
0.0
  0
LINE
  8
0
 62
     0
 10
150.969
 20
96.3002
 30
0.0
 11
164.969
 21
96.3002
 31
0.0
  0
LINE
  8
0
 62
     0
 10
164.969
 20
96.3002
 30
0.0
 11
164.969
 21
97.2993
 31
0.0
  0
LINE
  8
0
 62
     0
 10
164.969
 20
97.2993
 30
0.0
 11
165.77
 21
97.2993
 31
0.0
  0
LINE
  8
0
 62
     0
 10
165.77
 20
97.2993
 30
0.0
 11
165.77
 21
100.4
 31
0.0
  0
LINE
  8
0
 62
     0
 10
165.77
 20
100.4
 30
0.0
 11
164.969
 21
100.4
 31
0.0
  0
LINE
  8
0
 62
     0
 10
164.969
 20
100.4
 30
0.0
 11
164.969
 21
106.2
 31
0.0
  0
LINE
  8
0
 62
     0
 10
164.969
 20
106.2
 30
0.0
 11
165.77
 21
106.2
 31
0.0
  0
LINE
  8
0
 62
     0
 10
165.77
 20
106.2
 30
0.0
 11
165.77
 21
109.299
 31
0.0
  0
LINE
  8
0
 62
     0
 10
165.77
 20
109.299
 30
0.0
 11
164.969
 21
109.299
 31
0.0
  0
LINE
  8
0
 62
     0
 10
164.969
 20
109.299
 30
0.0
 11
164.969
 21
110.3
 31
0.0
  0
LINE
  8
0
 62
     0
 10
164.969
 20
110.3
 30
0.0
 11
150.969
 21
110.3
 31
0.0
  0
LINE
  8
0
 62
     0
 10
174.782
 20
110.3
 30
0.0
 11
174.782
 21
109.299
 31
0.0
  0
LINE
  8
0
 62
     0
 10
174.782
 20
109.299
 30
0.0
 11
173.982
 21
109.299
 31
0.0
  0
LINE
  8
0
 62
     0
 10
173.982
 20
109.299
 30
0.0
 11
173.982
 21
106.2
 31
0.0
  0
LINE
  8
0
 62
     0
 10
173.982
 20
106.2
 30
0.0
 11
174.782
 21
106.2
 31
0.0
  0
LINE
  8
0
 62
     0
 10
174.782
 20
106.2
 30
0.0
 11
174.782
 21
100.4
 31
0.0
  0
LINE
  8
0
 62
     0
 10
174.782
 20
100.4
 30
0.0
 11
173.982
 21
100.4
 31
0.0
  0
LINE
  8
0
 62
     0
 10
173.982
 20
100.4
 30
0.0
 11
173.982
 21
97.2993
 31
0.0
  0
LINE
  8
0
 62
     0
 10
173.982
 20
97.2993
 30
0.0
 11
174.782
 21
97.2993
 31
0.0
  0
LINE
  8
0
 62
     0
 10
174.782
 20
97.2993
 30
0.0
 11
174.782
 21
96.3002
 31
0.0
  0
LINE
  8
0
 62
     0
 10
174.782
 20
96.3002
 30
0.0
 11
188.782
 21
96.3002
 31
0.0
  0
LINE
  8
0
 62
     0
 10
188.782
 20
96.3002
 30
0.0
 11
188.782
 21
97.2993
 31
0.0
  0
LINE
  8
0
 62
     0
 10
188.782
 20
97.2993
 30
0.0
 11
189.582
 21
97.2993
 31
0.0
  0
LINE
  8
0
 62
     0
 10
189.582
 20
97.2993
 30
0.0
 11
189.582
 21
100.4
 31
0.0
  0
LINE
  8
0
 62
     0
 10
189.582
 20
100.4
 30
0.0
 11
188.782
 21
100.4
 31
0.0
  0
LINE
  8
0
 62
     0
 10
188.782
 20
100.4
 30
0.0
 11
188.782
 21
106.2
 31
0.0
  0
LINE
  8
0
 62
     0
 10
188.782
 20
106.2
 30
0.0
 11
189.582
 21
106.2
 31
0.0
  0
LINE
  8
0
 62
     0
 10
189.582
 20
106.2
 30
0.0
 11
189.582
 21
109.299
 31
0.0
  0
LINE
  8
0
 62
     0
 10
189.582
 20
109.299
 30
0.0
 11
188.782
 21
109.299
 31
0.0
  0
LINE
  8
0
 62
     0
 10
188.782
 20
109.299
 30
0.0
 11
188.782
 21
110.3
 31
0.0
  0
LINE
  8
0
 62
     0
 10
188.782
 20
110.3
 30
0.0
 11
174.782
 21
110.3
 31
0.0
  0
LINE
  8
0
 62
     0
 10
193.832
 20
110.3
 30
0.0
 11
193.832
 21
109.299
 31
0.0
  0
LINE
  8
0
 62
     0
 10
193.832
 20
109.299
 30
0.0
 11
193.032
 21
109.299
 31
0.0
  0
LINE
  8
0
 62
     0
 10
193.032
 20
109.299
 30
0.0
 11
193.032
 21
106.2
 31
0.0
  0
LINE
  8
0
 62
     0
 10
193.032
 20
106.2
 30
0.0
 11
193.832
 21
106.2
 31
0.0
  0
LINE
  8
0
 62
     0
 10
193.832
 20
106.2
 30
0.0
 11
193.832
 21
100.4
 31
0.0
  0
LINE
  8
0
 62
     0
 10
193.832
 20
100.4
 30
0.0
 11
193.032
 21
100.4
 31
0.0
  0
LINE
  8
0
 62
     0
 10
193.032
 20
100.4
 30
0.0
 11
193.032
 21
97.2993
 31
0.0
  0
LINE
  8
0
 62
     0
 10
193.032
 20
97.2993
 30
0.0
 11
193.832
 21
97.2993
 31
0.0
  0
LINE
  8
0
 62
     0
 10
193.832
 20
97.2993
 30
0.0
 11
193.832
 21
96.3002
 31
0.0
  0
LINE
  8
0
 62
     0
 10
193.832
 20
96.3002
 30
0.0
 11
207.832
 21
96.3002
 31
0.0
  0
LINE
  8
0
 62
     0
 10
207.832
 20
96.3002
 30
0.0
 11
207.832
 21
97.2993
 31
0.0
  0
LINE
  8
0
 62
     0
 10
207.832
 20
97.2993
 30
0.0
 11
208.632
 21
97.2993
 31
0.0
  0
LINE
  8
0
 62
     0
 10
208.632
 20
97.2993
 30
0.0
 11
208.632
 21
100.4
 31
0.0
  0
LINE
  8
0
 62
     0
 10
208.632
 20
100.4
 30
0.0
 11
207.832
 21
100.4
 31
0.0
  0
LINE
  8
0
 62
     0
 10
207.832
 20
100.4
 30
0.0
 11
207.832
 21
106.2
 31
0.0
  0
LINE
  8
0
 62
     0
 10
207.832
 20
106.2
 30
0.0
 11
208.632
 21
106.2
 31
0.0
  0
LINE
  8
0
 62
     0
 10
208.632
 20
106.2
 30
0.0
 11
208.632
 21
109.299
 31
0.0
  0
LINE
  8
0
 62
     0
 10
208.632
 20
109.299
 30
0.0
 11
207.832
 21
109.299
 31
0.0
  0
LINE
  8
0
 62
     0
 10
207.832
 20
109.299
 30
0.0
 11
207.832
 21
110.3
 31
0.0
  0
LINE
  8
0
 62
     0
 10
207.832
 20
110.3
 30
0.0
 11
193.832
 21
110.3
 31
0.0
  0
LINE
  8
0
 62
     0
 10
22.3821
 20
129.35
 30
0.0
 11
22.3821
 21
128.349
 31
0.0
  0
LINE
  8
0
 62
     0
 10
22.3821
 20
128.349
 30
0.0
 11
21.5815
 21
128.349
 31
0.0
  0
LINE
  8
0
 62
     0
 10
21.5815
 20
128.349
 30
0.0
 11
21.5815
 21
125.25
 31
0.0
  0
LINE
  8
0
 62
     0
 10
21.5815
 20
125.25
 30
0.0
 11
22.3821
 21
125.25
 31
0.0
  0
LINE
  8
0
 62
     0
 10
22.3821
 20
125.25
 30
0.0
 11
22.3821
 21
119.45
 31
0.0
  0
LINE
  8
0
 62
     0
 10
22.3821
 20
119.45
 30
0.0
 11
21.5815
 21
119.45
 31
0.0
  0
LINE
  8
0
 62
     0
 10
21.5815
 20
119.45
 30
0.0
 11
21.5815
 21
116.349
 31
0.0
  0
LINE
  8
0
 62
     0
 10
21.5815
 20
116.349
 30
0.0
 11
22.3821
 21
116.349
 31
0.0
  0
LINE
  8
0
 62
     0
 10
22.3821
 20
116.349
 30
0.0
 11
22.3821
 21
115.35
 31
0.0
  0
LINE
  8
0
 62
     0
 10
22.3821
 20
115.35
 30
0.0
 11
36.3816
 21
115.35
 31
0.0
  0
LINE
  8
0
 62
     0
 10
36.3816
 20
115.35
 30
0.0
 11
36.3816
 21
116.349
 31
0.0
  0
LINE
  8
0
 62
     0
 10
36.3816
 20
116.349
 30
0.0
 11
37.1821
 21
116.349
 31
0.0
  0
LINE
  8
0
 62
     0
 10
37.1821
 20
116.349
 30
0.0
 11
37.1821
 21
119.45
 31
0.0
  0
LINE
  8
0
 62
     0
 10
37.1821
 20
119.45
 30
0.0
 11
36.3816
 21
119.45
 31
0.0
  0
LINE
  8
0
 62
     0
 10
36.3816
 20
119.45
 30
0.0
 11
36.3816
 21
125.25
 31
0.0
  0
LINE
  8
0
 62
     0
 10
36.3816
 20
125.25
 30
0.0
 11
37.1821
 21
125.25
 31
0.0
  0
LINE
  8
0
 62
     0
 10
37.1821
 20
125.25
 30
0.0
 11
37.1821
 21
128.349
 31
0.0
  0
LINE
  8
0
 62
     0
 10
37.1821
 20
128.349
 30
0.0
 11
36.3816
 21
128.349
 31
0.0
  0
LINE
  8
0
 62
     0
 10
36.3816
 20
128.349
 30
0.0
 11
36.3816
 21
129.35
 31
0.0
  0
LINE
  8
0
 62
     0
 10
36.3816
 20
129.35
 30
0.0
 11
22.3821
 21
129.35
 31
0.0
  0
LINE
  8
0
 62
     0
 10
41.432
 20
129.35
 30
0.0
 11
41.432
 21
128.349
 31
0.0
  0
LINE
  8
0
 62
     0
 10
41.432
 20
128.349
 30
0.0
 11
40.6315
 21
128.349
 31
0.0
  0
LINE
  8
0
 62
     0
 10
40.6315
 20
128.349
 30
0.0
 11
40.6315
 21
125.25
 31
0.0
  0
LINE
  8
0
 62
     0
 10
40.6315
 20
125.25
 30
0.0
 11
41.432
 21
125.25
 31
0.0
  0
LINE
  8
0
 62
     0
 10
41.432
 20
125.25
 30
0.0
 11
41.432
 21
119.45
 31
0.0
  0
LINE
  8
0
 62
     0
 10
41.432
 20
119.45
 30
0.0
 11
40.6315
 21
119.45
 31
0.0
  0
LINE
  8
0
 62
     0
 10
40.6315
 20
119.45
 30
0.0
 11
40.6315
 21
116.349
 31
0.0
  0
LINE
  8
0
 62
     0
 10
40.6315
 20
116.349
 30
0.0
 11
41.432
 21
116.349
 31
0.0
  0
LINE
  8
0
 62
     0
 10
41.432
 20
116.349
 30
0.0
 11
41.432
 21
115.35
 31
0.0
  0
LINE
  8
0
 62
     0
 10
41.432
 20
115.35
 30
0.0
 11
55.4316
 21
115.35
 31
0.0
  0
LINE
  8
0
 62
     0
 10
55.4316
 20
115.35
 30
0.0
 11
55.4316
 21
116.349
 31
0.0
  0
LINE
  8
0
 62
     0
 10
55.4316
 20
116.349
 30
0.0
 11
56.2321
 21
116.349
 31
0.0
  0
LINE
  8
0
 62
     0
 10
56.2321
 20
116.349
 30
0.0
 11
56.2321
 21
119.45
 31
0.0
  0
LINE
  8
0
 62
     0
 10
56.2321
 20
119.45
 30
0.0
 11
55.4316
 21
119.45
 31
0.0
  0
LINE
  8
0
 62
     0
 10
55.4316
 20
119.45
 30
0.0
 11
55.4316
 21
125.25
 31
0.0
  0
LINE
  8
0
 62
     0
 10
55.4316
 20
125.25
 30
0.0
 11
56.2321
 21
125.25
 31
0.0
  0
LINE
  8
0
 62
     0
 10
56.2321
 20
125.25
 30
0.0
 11
56.2321
 21
128.349
 31
0.0
  0
LINE
  8
0
 62
     0
 10
56.2321
 20
128.349
 30
0.0
 11
55.4316
 21
128.349
 31
0.0
  0
LINE
  8
0
 62
     0
 10
55.4316
 20
128.349
 30
0.0
 11
55.4316
 21
129.35
 31
0.0
  0
LINE
  8
0
 62
     0
 10
55.4316
 20
129.35
 30
0.0
 11
41.432
 21
129.35
 31
0.0
  0
LINE
  8
0
 62
     0
 10
60.482
 20
129.35
 30
0.0
 11
60.482
 21
128.349
 31
0.0
  0
LINE
  8
0
 62
     0
 10
60.482
 20
128.349
 30
0.0
 11
59.6815
 21
128.349
 31
0.0
  0
LINE
  8
0
 62
     0
 10
59.6815
 20
128.349
 30
0.0
 11
59.6815
 21
125.25
 31
0.0
  0
LINE
  8
0
 62
     0
 10
59.6815
 20
125.25
 30
0.0
 11
60.482
 21
125.25
 31
0.0
  0
LINE
  8
0
 62
     0
 10
60.482
 20
125.25
 30
0.0
 11
60.482
 21
119.45
 31
0.0
  0
LINE
  8
0
 62
     0
 10
60.482
 20
119.45
 30
0.0
 11
59.6815
 21
119.45
 31
0.0
  0
LINE
  8
0
 62
     0
 10
59.6815
 20
119.45
 30
0.0
 11
59.6815
 21
116.349
 31
0.0
  0
LINE
  8
0
 62
     0
 10
59.6815
 20
116.349
 30
0.0
 11
60.482
 21
116.349
 31
0.0
  0
LINE
  8
0
 62
     0
 10
60.482
 20
116.349
 30
0.0
 11
60.482
 21
115.35
 31
0.0
  0
LINE
  8
0
 62
     0
 10
60.482
 20
115.35
 30
0.0
 11
74.4816
 21
115.35
 31
0.0
  0
LINE
  8
0
 62
     0
 10
74.4816
 20
115.35
 30
0.0
 11
74.4816
 21
116.349
 31
0.0
  0
LINE
  8
0
 62
     0
 10
74.4816
 20
116.349
 30
0.0
 11
75.2821
 21
116.349
 31
0.0
  0
LINE
  8
0
 62
     0
 10
75.2821
 20
116.349
 30
0.0
 11
75.2821
 21
119.45
 31
0.0
  0
LINE
  8
0
 62
     0
 10
75.2821
 20
119.45
 30
0.0
 11
74.4816
 21
119.45
 31
0.0
  0
LINE
  8
0
 62
     0
 10
74.4816
 20
119.45
 30
0.0
 11
74.4816
 21
125.25
 31
0.0
  0
LINE
  8
0
 62
     0
 10
74.4816
 20
125.25
 30
0.0
 11
75.2821
 21
125.25
 31
0.0
  0
LINE
  8
0
 62
     0
 10
75.2821
 20
125.25
 30
0.0
 11
75.2821
 21
128.349
 31
0.0
  0
LINE
  8
0
 62
     0
 10
75.2821
 20
128.349
 30
0.0
 11
74.4816
 21
128.349
 31
0.0
  0
LINE
  8
0
 62
     0
 10
74.4816
 20
128.349
 30
0.0
 11
74.4816
 21
129.35
 31
0.0
  0
LINE
  8
0
 62
     0
 10
74.4816
 20
129.35
 30
0.0
 11
60.482
 21
129.35
 31
0.0
  0
LINE
  8
0
 62
     0
 10
79.532
 20
129.35
 30
0.0
 11
79.532
 21
128.349
 31
0.0
  0
LINE
  8
0
 62
     0
 10
79.532
 20
128.349
 30
0.0
 11
78.7315
 21
128.349
 31
0.0
  0
LINE
  8
0
 62
     0
 10
78.7315
 20
128.349
 30
0.0
 11
78.7315
 21
125.25
 31
0.0
  0
LINE
  8
0
 62
     0
 10
78.7315
 20
125.25
 30
0.0
 11
79.532
 21
125.25
 31
0.0
  0
LINE
  8
0
 62
     0
 10
79.532
 20
125.25
 30
0.0
 11
79.532
 21
119.45
 31
0.0
  0
LINE
  8
0
 62
     0
 10
79.532
 20
119.45
 30
0.0
 11
78.7315
 21
119.45
 31
0.0
  0
LINE
  8
0
 62
     0
 10
78.7315
 20
119.45
 30
0.0
 11
78.7315
 21
116.349
 31
0.0
  0
LINE
  8
0
 62
     0
 10
78.7315
 20
116.349
 30
0.0
 11
79.532
 21
116.349
 31
0.0
  0
LINE
  8
0
 62
     0
 10
79.532
 20
116.349
 30
0.0
 11
79.532
 21
115.35
 31
0.0
  0
LINE
  8
0
 62
     0
 10
79.532
 20
115.35
 30
0.0
 11
93.5316
 21
115.35
 31
0.0
  0
LINE
  8
0
 62
     0
 10
93.5316
 20
115.35
 30
0.0
 11
93.5316
 21
116.349
 31
0.0
  0
LINE
  8
0
 62
     0
 10
93.5316
 20
116.349
 30
0.0
 11
94.3321
 21
116.349
 31
0.0
  0
LINE
  8
0
 62
     0
 10
94.3321
 20
116.349
 30
0.0
 11
94.3321
 21
119.45
 31
0.0
  0
LINE
  8
0
 62
     0
 10
94.3321
 20
119.45
 30
0.0
 11
93.5316
 21
119.45
 31
0.0
  0
LINE
  8
0
 62
     0
 10
93.5316
 20
119.45
 30
0.0
 11
93.5316
 21
125.25
 31
0.0
  0
LINE
  8
0
 62
     0
 10
93.5316
 20
125.25
 30
0.0
 11
94.3321
 21
125.25
 31
0.0
  0
LINE
  8
0
 62
     0
 10
94.3321
 20
125.25
 30
0.0
 11
94.3321
 21
128.349
 31
0.0
  0
LINE
  8
0
 62
     0
 10
94.3321
 20
128.349
 30
0.0
 11
93.5316
 21
128.349
 31
0.0
  0
LINE
  8
0
 62
     0
 10
93.5316
 20
128.349
 30
0.0
 11
93.5316
 21
129.35
 31
0.0
  0
LINE
  8
0
 62
     0
 10
93.5316
 20
129.35
 30
0.0
 11
79.532
 21
129.35
 31
0.0
  0
LINE
  8
0
 62
     0
 10
98.582
 20
129.35
 30
0.0
 11
98.582
 21
128.349
 31
0.0
  0
LINE
  8
0
 62
     0
 10
98.582
 20
128.349
 30
0.0
 11
97.7815
 21
128.349
 31
0.0
  0
LINE
  8
0
 62
     0
 10
97.7815
 20
128.349
 30
0.0
 11
97.7815
 21
125.25
 31
0.0
  0
LINE
  8
0
 62
     0
 10
97.7815
 20
125.25
 30
0.0
 11
98.582
 21
125.25
 31
0.0
  0
LINE
  8
0
 62
     0
 10
98.582
 20
125.25
 30
0.0
 11
98.582
 21
119.45
 31
0.0
  0
LINE
  8
0
 62
     0
 10
98.582
 20
119.45
 30
0.0
 11
97.7815
 21
119.45
 31
0.0
  0
LINE
  8
0
 62
     0
 10
97.7815
 20
119.45
 30
0.0
 11
97.7815
 21
116.349
 31
0.0
  0
LINE
  8
0
 62
     0
 10
97.7815
 20
116.349
 30
0.0
 11
98.582
 21
116.349
 31
0.0
  0
LINE
  8
0
 62
     0
 10
98.582
 20
116.349
 30
0.0
 11
98.582
 21
115.35
 31
0.0
  0
LINE
  8
0
 62
     0
 10
98.582
 20
115.35
 30
0.0
 11
112.582
 21
115.35
 31
0.0
  0
LINE
  8
0
 62
     0
 10
112.582
 20
115.35
 30
0.0
 11
112.582
 21
116.349
 31
0.0
  0
LINE
  8
0
 62
     0
 10
112.582
 20
116.349
 30
0.0
 11
113.382
 21
116.349
 31
0.0
  0
LINE
  8
0
 62
     0
 10
113.382
 20
116.349
 30
0.0
 11
113.382
 21
119.45
 31
0.0
  0
LINE
  8
0
 62
     0
 10
113.382
 20
119.45
 30
0.0
 11
112.582
 21
119.45
 31
0.0
  0
LINE
  8
0
 62
     0
 10
112.582
 20
119.45
 30
0.0
 11
112.582
 21
125.25
 31
0.0
  0
LINE
  8
0
 62
     0
 10
112.582
 20
125.25
 30
0.0
 11
113.382
 21
125.25
 31
0.0
  0
LINE
  8
0
 62
     0
 10
113.382
 20
125.25
 30
0.0
 11
113.382
 21
128.349
 31
0.0
  0
LINE
  8
0
 62
     0
 10
113.382
 20
128.349
 30
0.0
 11
112.582
 21
128.349
 31
0.0
  0
LINE
  8
0
 62
     0
 10
112.582
 20
128.349
 30
0.0
 11
112.582
 21
129.35
 31
0.0
  0
LINE
  8
0
 62
     0
 10
112.582
 20
129.35
 30
0.0
 11
98.582
 21
129.35
 31
0.0
  0
LINE
  8
0
 62
     0
 10
117.632
 20
129.35
 30
0.0
 11
117.632
 21
128.349
 31
0.0
  0
LINE
  8
0
 62
     0
 10
117.632
 20
128.349
 30
0.0
 11
116.832
 21
128.349
 31
0.0
  0
LINE
  8
0
 62
     0
 10
116.832
 20
128.349
 30
0.0
 11
116.832
 21
125.25
 31
0.0
  0
LINE
  8
0
 62
     0
 10
116.832
 20
125.25
 30
0.0
 11
117.632
 21
125.25
 31
0.0
  0
LINE
  8
0
 62
     0
 10
117.632
 20
125.25
 30
0.0
 11
117.632
 21
119.45
 31
0.0
  0
LINE
  8
0
 62
     0
 10
117.632
 20
119.45
 30
0.0
 11
116.832
 21
119.45
 31
0.0
  0
LINE
  8
0
 62
     0
 10
116.832
 20
119.45
 30
0.0
 11
116.832
 21
116.349
 31
0.0
  0
LINE
  8
0
 62
     0
 10
116.832
 20
116.349
 30
0.0
 11
117.632
 21
116.349
 31
0.0
  0
LINE
  8
0
 62
     0
 10
117.632
 20
116.349
 30
0.0
 11
117.632
 21
115.35
 31
0.0
  0
LINE
  8
0
 62
     0
 10
117.632
 20
115.35
 30
0.0
 11
131.632
 21
115.35
 31
0.0
  0
LINE
  8
0
 62
     0
 10
131.632
 20
115.35
 30
0.0
 11
131.632
 21
116.349
 31
0.0
  0
LINE
  8
0
 62
     0
 10
131.632
 20
116.349
 30
0.0
 11
132.432
 21
116.349
 31
0.0
  0
LINE
  8
0
 62
     0
 10
132.432
 20
116.349
 30
0.0
 11
132.432
 21
119.45
 31
0.0
  0
LINE
  8
0
 62
     0
 10
132.432
 20
119.45
 30
0.0
 11
131.632
 21
119.45
 31
0.0
  0
LINE
  8
0
 62
     0
 10
131.632
 20
119.45
 30
0.0
 11
131.632
 21
125.25
 31
0.0
  0
LINE
  8
0
 62
     0
 10
131.632
 20
125.25
 30
0.0
 11
132.432
 21
125.25
 31
0.0
  0
LINE
  8
0
 62
     0
 10
132.432
 20
125.25
 30
0.0
 11
132.432
 21
128.349
 31
0.0
  0
LINE
  8
0
 62
     0
 10
132.432
 20
128.349
 30
0.0
 11
131.632
 21
128.349
 31
0.0
  0
LINE
  8
0
 62
     0
 10
131.632
 20
128.349
 30
0.0
 11
131.632
 21
129.35
 31
0.0
  0
LINE
  8
0
 62
     0
 10
131.632
 20
129.35
 30
0.0
 11
117.632
 21
129.35
 31
0.0
  0
LINE
  8
0
 62
     0
 10
136.682
 20
129.35
 30
0.0
 11
136.682
 21
128.349
 31
0.0
  0
LINE
  8
0
 62
     0
 10
136.682
 20
128.349
 30
0.0
 11
135.882
 21
128.349
 31
0.0
  0
LINE
  8
0
 62
     0
 10
135.882
 20
128.349
 30
0.0
 11
135.882
 21
125.25
 31
0.0
  0
LINE
  8
0
 62
     0
 10
135.882
 20
125.25
 30
0.0
 11
136.682
 21
125.25
 31
0.0
  0
LINE
  8
0
 62
     0
 10
136.682
 20
125.25
 30
0.0
 11
136.682
 21
119.45
 31
0.0
  0
LINE
  8
0
 62
     0
 10
136.682
 20
119.45
 30
0.0
 11
135.882
 21
119.45
 31
0.0
  0
LINE
  8
0
 62
     0
 10
135.882
 20
119.45
 30
0.0
 11
135.882
 21
116.349
 31
0.0
  0
LINE
  8
0
 62
     0
 10
135.882
 20
116.349
 30
0.0
 11
136.682
 21
116.349
 31
0.0
  0
LINE
  8
0
 62
     0
 10
136.682
 20
116.349
 30
0.0
 11
136.682
 21
115.35
 31
0.0
  0
LINE
  8
0
 62
     0
 10
136.682
 20
115.35
 30
0.0
 11
150.682
 21
115.35
 31
0.0
  0
LINE
  8
0
 62
     0
 10
150.682
 20
115.35
 30
0.0
 11
150.682
 21
116.349
 31
0.0
  0
LINE
  8
0
 62
     0
 10
150.682
 20
116.349
 30
0.0
 11
151.482
 21
116.349
 31
0.0
  0
LINE
  8
0
 62
     0
 10
151.482
 20
116.349
 30
0.0
 11
151.482
 21
119.45
 31
0.0
  0
LINE
  8
0
 62
     0
 10
151.482
 20
119.45
 30
0.0
 11
150.682
 21
119.45
 31
0.0
  0
LINE
  8
0
 62
     0
 10
150.682
 20
119.45
 30
0.0
 11
150.682
 21
125.25
 31
0.0
  0
LINE
  8
0
 62
     0
 10
150.682
 20
125.25
 30
0.0
 11
151.482
 21
125.25
 31
0.0
  0
LINE
  8
0
 62
     0
 10
151.482
 20
125.25
 30
0.0
 11
151.482
 21
128.349
 31
0.0
  0
LINE
  8
0
 62
     0
 10
151.482
 20
128.349
 30
0.0
 11
150.682
 21
128.349
 31
0.0
  0
LINE
  8
0
 62
     0
 10
150.682
 20
128.349
 30
0.0
 11
150.682
 21
129.35
 31
0.0
  0
LINE
  8
0
 62
     0
 10
150.682
 20
129.35
 30
0.0
 11
136.682
 21
129.35
 31
0.0
  0
LINE
  8
0
 62
     0
 10
155.732
 20
129.35
 30
0.0
 11
155.732
 21
128.349
 31
0.0
  0
LINE
  8
0
 62
     0
 10
155.732
 20
128.349
 30
0.0
 11
154.932
 21
128.349
 31
0.0
  0
LINE
  8
0
 62
     0
 10
154.932
 20
128.349
 30
0.0
 11
154.932
 21
125.25
 31
0.0
  0
LINE
  8
0
 62
     0
 10
154.932
 20
125.25
 30
0.0
 11
155.732
 21
125.25
 31
0.0
  0
LINE
  8
0
 62
     0
 10
155.732
 20
125.25
 30
0.0
 11
155.732
 21
119.45
 31
0.0
  0
LINE
  8
0
 62
     0
 10
155.732
 20
119.45
 30
0.0
 11
154.932
 21
119.45
 31
0.0
  0
LINE
  8
0
 62
     0
 10
154.932
 20
119.45
 30
0.0
 11
154.932
 21
116.349
 31
0.0
  0
LINE
  8
0
 62
     0
 10
154.932
 20
116.349
 30
0.0
 11
155.732
 21
116.349
 31
0.0
  0
LINE
  8
0
 62
     0
 10
155.732
 20
116.349
 30
0.0
 11
155.732
 21
115.35
 31
0.0
  0
LINE
  8
0
 62
     0
 10
155.732
 20
115.35
 30
0.0
 11
169.732
 21
115.35
 31
0.0
  0
LINE
  8
0
 62
     0
 10
169.732
 20
115.35
 30
0.0
 11
169.732
 21
116.349
 31
0.0
  0
LINE
  8
0
 62
     0
 10
169.732
 20
116.349
 30
0.0
 11
170.532
 21
116.349
 31
0.0
  0
LINE
  8
0
 62
     0
 10
170.532
 20
116.349
 30
0.0
 11
170.532
 21
119.45
 31
0.0
  0
LINE
  8
0
 62
     0
 10
170.532
 20
119.45
 30
0.0
 11
169.732
 21
119.45
 31
0.0
  0
LINE
  8
0
 62
     0
 10
169.732
 20
119.45
 30
0.0
 11
169.732
 21
125.25
 31
0.0
  0
LINE
  8
0
 62
     0
 10
169.732
 20
125.25
 30
0.0
 11
170.532
 21
125.25
 31
0.0
  0
LINE
  8
0
 62
     0
 10
170.532
 20
125.25
 30
0.0
 11
170.532
 21
128.349
 31
0.0
  0
LINE
  8
0
 62
     0
 10
170.532
 20
128.349
 30
0.0
 11
169.732
 21
128.349
 31
0.0
  0
LINE
  8
0
 62
     0
 10
169.732
 20
128.349
 30
0.0
 11
169.732
 21
129.35
 31
0.0
  0
LINE
  8
0
 62
     0
 10
169.732
 20
129.35
 30
0.0
 11
155.732
 21
129.35
 31
0.0
  0
LINE
  8
0
 62
     0
 10
174.782
 20
129.35
 30
0.0
 11
174.782
 21
128.349
 31
0.0
  0
LINE
  8
0
 62
     0
 10
174.782
 20
128.349
 30
0.0
 11
173.982
 21
128.349
 31
0.0
  0
LINE
  8
0
 62
     0
 10
173.982
 20
128.349
 30
0.0
 11
173.982
 21
125.25
 31
0.0
  0
LINE
  8
0
 62
     0
 10
173.982
 20
125.25
 30
0.0
 11
174.782
 21
125.25
 31
0.0
  0
LINE
  8
0
 62
     0
 10
174.782
 20
125.25
 30
0.0
 11
174.782
 21
119.45
 31
0.0
  0
LINE
  8
0
 62
     0
 10
174.782
 20
119.45
 30
0.0
 11
173.982
 21
119.45
 31
0.0
  0
LINE
  8
0
 62
     0
 10
173.982
 20
119.45
 30
0.0
 11
173.982
 21
116.349
 31
0.0
  0
LINE
  8
0
 62
     0
 10
173.982
 20
116.349
 30
0.0
 11
174.782
 21
116.349
 31
0.0
  0
LINE
  8
0
 62
     0
 10
174.782
 20
116.349
 30
0.0
 11
174.782
 21
115.35
 31
0.0
  0
LINE
  8
0
 62
     0
 10
174.782
 20
115.35
 30
0.0
 11
188.782
 21
115.35
 31
0.0
  0
LINE
  8
0
 62
     0
 10
188.782
 20
115.35
 30
0.0
 11
188.782
 21
116.349
 31
0.0
  0
LINE
  8
0
 62
     0
 10
188.782
 20
116.349
 30
0.0
 11
189.582
 21
116.349
 31
0.0
  0
LINE
  8
0
 62
     0
 10
189.582
 20
116.349
 30
0.0
 11
189.582
 21
119.45
 31
0.0
  0
LINE
  8
0
 62
     0
 10
189.582
 20
119.45
 30
0.0
 11
188.782
 21
119.45
 31
0.0
  0
LINE
  8
0
 62
     0
 10
188.782
 20
119.45
 30
0.0
 11
188.782
 21
125.25
 31
0.0
  0
LINE
  8
0
 62
     0
 10
188.782
 20
125.25
 30
0.0
 11
189.582
 21
125.25
 31
0.0
  0
LINE
  8
0
 62
     0
 10
189.582
 20
125.25
 30
0.0
 11
189.582
 21
128.349
 31
0.0
  0
LINE
  8
0
 62
     0
 10
189.582
 20
128.349
 30
0.0
 11
188.782
 21
128.349
 31
0.0
  0
LINE
  8
0
 62
     0
 10
188.782
 20
128.349
 30
0.0
 11
188.782
 21
129.35
 31
0.0
  0
LINE
  8
0
 62
     0
 10
188.782
 20
129.35
 30
0.0
 11
174.782
 21
129.35
 31
0.0
  0
LINE
  8
0
 62
     0
 10
193.832
 20
129.35
 30
0.0
 11
193.832
 21
128.349
 31
0.0
  0
LINE
  8
0
 62
     0
 10
193.832
 20
128.349
 30
0.0
 11
193.032
 21
128.349
 31
0.0
  0
LINE
  8
0
 62
     0
 10
193.032
 20
128.349
 30
0.0
 11
193.032
 21
125.25
 31
0.0
  0
LINE
  8
0
 62
     0
 10
193.032
 20
125.25
 30
0.0
 11
193.832
 21
125.25
 31
0.0
  0
LINE
  8
0
 62
     0
 10
193.832
 20
125.25
 30
0.0
 11
193.832
 21
119.45
 31
0.0
  0
LINE
  8
0
 62
     0
 10
193.832
 20
119.45
 30
0.0
 11
193.032
 21
119.45
 31
0.0
  0
LINE
  8
0
 62
     0
 10
193.032
 20
119.45
 30
0.0
 11
193.032
 21
116.349
 31
0.0
  0
LINE
  8
0
 62
     0
 10
193.032
 20
116.349
 30
0.0
 11
193.832
 21
116.349
 31
0.0
  0
LINE
  8
0
 62
     0
 10
193.832
 20
116.349
 30
0.0
 11
193.832
 21
115.35
 31
0.0
  0
LINE
  8
0
 62
     0
 10
193.832
 20
115.35
 30
0.0
 11
207.832
 21
115.35
 31
0.0
  0
LINE
  8
0
 62
     0
 10
207.832
 20
115.35
 30
0.0
 11
207.832
 21
116.349
 31
0.0
  0
LINE
  8
0
 62
     0
 10
207.832
 20
116.349
 30
0.0
 11
208.632
 21
116.349
 31
0.0
  0
LINE
  8
0
 62
     0
 10
208.632
 20
116.349
 30
0.0
 11
208.632
 21
119.45
 31
0.0
  0
LINE
  8
0
 62
     0
 10
208.632
 20
119.45
 30
0.0
 11
207.832
 21
119.45
 31
0.0
  0
LINE
  8
0
 62
     0
 10
207.832
 20
119.45
 30
0.0
 11
207.832
 21
125.25
 31
0.0
  0
LINE
  8
0
 62
     0
 10
207.832
 20
125.25
 30
0.0
 11
208.632
 21
125.25
 31
0.0
  0
LINE
  8
0
 62
     0
 10
208.632
 20
125.25
 30
0.0
 11
208.632
 21
128.349
 31
0.0
  0
LINE
  8
0
 62
     0
 10
208.632
 20
128.349
 30
0.0
 11
207.832
 21
128.349
 31
0.0
  0
LINE
  8
0
 62
     0
 10
207.832
 20
128.349
 30
0.0
 11
207.832
 21
129.35
 31
0.0
  0
LINE
  8
0
 62
     0
 10
207.832
 20
129.35
 30
0.0
 11
193.832
 21
129.35
 31
0.0
  0
ENDSEC
  0
EOF
