  0
SECTION
  2
HEADER
  9
$ACADVER
  1
AC1009
  9
$EXTMIN
 10
0.0
 20
0.0
 30
0.0
  9
$EXTMAX
 10
1000.0
 20
1000.0
 30
0.0
  9
$FILLMODE
 70
 0
  9
$SPLFRAME
 70
 1
  0
ENDSEC
  0
SECTION
  2
TABLES
  0
TABLE
  2
LAYER
 70
1
  0
LAYER
  2
0
 70
     0
 62
     7
  6
CONTINUOUS
  0
ENDTAB
  0
ENDSEC
  0
SECTION
  2
ENTITIES
  0
LINE
  8
0
 62
     0
 10
227.857
 20
156.873
 30
0.0
 11
228.446
 21
156.851
 31
0.0
  0
LINE
  8
0
 62
     0
 10
228.446
 20
156.851
 30
0.0
 11
229.031
 21
156.781
 31
0.0
  0
LINE
  8
0
 62
     0
 10
229.031
 20
156.781
 30
0.0
 11
229.609
 21
156.668
 31
0.0
  0
LINE
  8
0
 62
     0
 10
229.609
 20
156.668
 30
0.0
 11
230.175
 21
156.507
 31
0.0
  0
LINE
  8
0
 62
     0
 10
230.175
 20
156.507
 30
0.0
 11
230.728
 21
156.304
 31
0.0
  0
LINE
  8
0
 62
     0
 10
230.728
 20
156.304
 30
0.0
 11
231.262
 21
156.056
 31
0.0
  0
LINE
  8
0
 62
     0
 10
231.262
 20
156.056
 30
0.0
 11
231.776
 21
155.768
 31
0.0
  0
LINE
  8
0
 62
     0
 10
231.776
 20
155.768
 30
0.0
 11
232.266
 21
155.441
 31
0.0
  0
LINE
  8
0
 62
     0
 10
232.266
 20
155.441
 30
0.0
 11
232.729
 21
155.078
 31
0.0
  0
LINE
  8
0
 62
     0
 10
232.729
 20
155.078
 30
0.0
 11
233.161
 21
154.678
 31
0.0
  0
LINE
  8
0
 62
     0
 10
233.161
 20
154.678
 30
0.0
 11
233.561
 21
154.244
 31
0.0
  0
LINE
  8
0
 62
     0
 10
233.561
 20
154.244
 30
0.0
 11
233.926
 21
153.784
 31
0.0
  0
LINE
  8
0
 62
     0
 10
233.926
 20
153.784
 30
0.0
 11
234.253
 21
153.293
 31
0.0
  0
LINE
  8
0
 62
     0
 10
234.253
 20
153.293
 30
0.0
 11
234.541
 21
152.779
 31
0.0
  0
LINE
  8
0
 62
     0
 10
234.541
 20
152.779
 30
0.0
 11
234.787
 21
152.244
 31
0.0
  0
LINE
  8
0
 62
     0
 10
234.787
 20
152.244
 30
0.0
 11
234.991
 21
151.692
 31
0.0
  0
LINE
  8
0
 62
     0
 10
234.991
 20
151.692
 30
0.0
 11
235.151
 21
151.125
 31
0.0
  0
LINE
  8
0
 62
     0
 10
235.151
 20
151.125
 30
0.0
 11
235.266
 21
150.548
 31
0.0
  0
LINE
  8
0
 62
     0
 10
235.266
 20
150.548
 30
0.0
 11
235.335
 21
149.962
 31
0.0
  0
LINE
  8
0
 62
     0
 10
235.335
 20
149.962
 30
0.0
 11
235.358
 21
149.374
 31
0.0
  0
LINE
  8
0
 62
     0
 10
235.358
 20
149.374
 30
0.0
 11
235.358
 21
7.59714
 31
0.0
  0
LINE
  8
0
 62
     0
 10
235.358
 20
7.59714
 30
0.0
 11
235.335
 21
7.00871
 31
0.0
  0
LINE
  8
0
 62
     0
 10
235.335
 20
7.00871
 30
0.0
 11
235.266
 21
6.42303
 31
0.0
  0
LINE
  8
0
 62
     0
 10
235.266
 20
6.42303
 30
0.0
 11
235.151
 21
5.84563
 31
0.0
  0
LINE
  8
0
 62
     0
 10
235.151
 20
5.84563
 30
0.0
 11
234.991
 21
5.27787
 31
0.0
  0
LINE
  8
0
 62
     0
 10
234.991
 20
5.27787
 30
0.0
 11
234.787
 21
4.72666
 31
0.0
  0
LINE
  8
0
 62
     0
 10
234.787
 20
4.72666
 30
0.0
 11
234.541
 21
4.19199
 31
0.0
  0
LINE
  8
0
 62
     0
 10
234.541
 20
4.19199
 30
0.0
 11
234.253
 21
3.67937
 31
0.0
  0
LINE
  8
0
 62
     0
 10
234.253
 20
3.67937
 30
0.0
 11
233.926
 21
3.18878
 31
0.0
  0
LINE
  8
0
 62
     0
 10
233.926
 20
3.18878
 30
0.0
 11
233.561
 21
2.72576
 31
0.0
  0
LINE
  8
0
 62
     0
 10
233.561
 20
2.72576
 30
0.0
 11
233.161
 21
2.29306
 31
0.0
  0
LINE
  8
0
 62
     0
 10
233.161
 20
2.29306
 30
0.0
 11
232.729
 21
1.89343
 31
0.0
  0
LINE
  8
0
 62
     0
 10
232.729
 20
1.89343
 30
0.0
 11
232.266
 21
1.52824
 31
0.0
  0
LINE
  8
0
 62
     0
 10
232.266
 20
1.52824
 30
0.0
 11
231.776
 21
1.20165
 31
0.0
  0
LINE
  8
0
 62
     0
 10
231.776
 20
1.20165
 30
0.0
 11
231.262
 21
0.913638
 31
0.0
  0
LINE
  8
0
 62
     0
 10
231.262
 20
0.913638
 30
0.0
 11
230.728
 21
0.666972
 31
0.0
  0
LINE
  8
0
 62
     0
 10
230.728
 20
0.666972
 30
0.0
 11
230.175
 21
0.463021
 31
0.0
  0
LINE
  8
0
 62
     0
 10
230.175
 20
0.463021
 30
0.0
 11
229.609
 21
0.303168
 31
0.0
  0
LINE
  8
0
 62
     0
 10
229.609
 20
0.303168
 30
0.0
 11
229.031
 21
0.188791
 31
0.0
  0
LINE
  8
0
 62
     0
 10
229.031
 20
0.188791
 30
0.0
 11
228.446
 21
0.119889
 31
0.0
  0
LINE
  8
0
 62
     0
 10
228.446
 20
0.119889
 30
0.0
 11
227.857
 21
0.0964629
 31
0.0
  0
LINE
  8
0
 62
     0
 10
227.857
 20
0.0964629
 30
0.0
 11
7.59435
 21
0.0964629
 31
0.0
  0
LINE
  8
0
 62
     0
 10
7.59435
 20
0.0964629
 30
0.0
 11
7.00595
 21
0.119889
 31
0.0
  0
LINE
  8
0
 62
     0
 10
7.00595
 20
0.119889
 30
0.0
 11
6.42027
 21
0.188791
 31
0.0
  0
LINE
  8
0
 62
     0
 10
6.42027
 20
0.188791
 30
0.0
 11
5.84426
 21
0.303168
 31
0.0
  0
LINE
  8
0
 62
     0
 10
5.84426
 20
0.303168
 30
0.0
 11
5.2765
 21
0.463021
 31
0.0
  0
LINE
  8
0
 62
     0
 10
5.2765
 20
0.463021
 30
0.0
 11
4.72391
 21
0.666972
 31
0.0
  0
LINE
  8
0
 62
     0
 10
4.72391
 20
0.666972
 30
0.0
 11
4.18924
 21
0.913638
 31
0.0
  0
LINE
  8
0
 62
     0
 10
4.18924
 20
0.913638
 30
0.0
 11
3.67524
 21
1.20165
 31
0.0
  0
LINE
  8
0
 62
     0
 10
3.67524
 20
1.20165
 30
0.0
 11
3.18464
 21
1.52824
 31
0.0
  0
LINE
  8
0
 62
     0
 10
3.18464
 20
1.52824
 30
0.0
 11
2.72438
 21
1.89343
 31
0.0
  0
LINE
  8
0
 62
     0
 10
2.72438
 20
1.89343
 30
0.0
 11
2.2903
 21
2.29306
 31
0.0
  0
LINE
  8
0
 62
     0
 10
2.2903
 20
2.29306
 30
0.0
 11
1.89067
 21
2.72576
 31
0.0
  0
LINE
  8
0
 62
     0
 10
1.89067
 20
2.72576
 30
0.0
 11
1.52687
 21
3.18878
 31
0.0
  0
LINE
  8
0
 62
     0
 10
1.52687
 20
3.18878
 30
0.0
 11
1.20027
 21
3.67937
 31
0.0
  0
LINE
  8
0
 62
     0
 10
1.20027
 20
3.67937
 30
0.0
 11
0.912262
 21
4.19199
 31
0.0
  0
LINE
  8
0
 62
     0
 10
0.912262
 20
4.19199
 30
0.0
 11
0.664214
 21
4.72666
 31
0.0
  0
LINE
  8
0
 62
     0
 10
0.664214
 20
4.72666
 30
0.0
 11
0.461641
 21
5.27787
 31
0.0
  0
LINE
  8
0
 62
     0
 10
0.461641
 20
5.27787
 30
0.0
 11
0.30179
 21
5.84563
 31
0.0
  0
LINE
  8
0
 62
     0
 10
0.30179
 20
5.84563
 30
0.0
 11
0.187413
 21
6.42303
 31
0.0
  0
LINE
  8
0
 62
     0
 10
0.187413
 20
6.42303
 30
0.0
 11
0.117133
 21
7.00871
 31
0.0
  0
LINE
  8
0
 62
     0
 10
0.117133
 20
7.00871
 30
0.0
 11
0.0937066
 21
7.59714
 31
0.0
  0
LINE
  8
0
 62
     0
 10
0.0937066
 20
7.59714
 30
0.0
 11
0.0950846
 21
149.374
 31
0.0
  0
LINE
  8
0
 62
     0
 10
0.0950846
 20
149.374
 30
0.0
 11
0.117133
 21
149.962
 31
0.0
  0
LINE
  8
0
 62
     0
 10
0.117133
 20
149.962
 30
0.0
 11
0.187413
 21
150.548
 31
0.0
  0
LINE
  8
0
 62
     0
 10
0.187413
 20
150.548
 30
0.0
 11
0.30179
 21
151.125
 31
0.0
  0
LINE
  8
0
 62
     0
 10
0.30179
 20
151.125
 30
0.0
 11
0.461641
 21
151.692
 31
0.0
  0
LINE
  8
0
 62
     0
 10
0.461641
 20
151.692
 30
0.0
 11
0.664214
 21
152.244
 31
0.0
  0
LINE
  8
0
 62
     0
 10
0.664214
 20
152.244
 30
0.0
 11
0.912262
 21
152.779
 31
0.0
  0
LINE
  8
0
 62
     0
 10
0.912262
 20
152.779
 30
0.0
 11
1.20027
 21
153.293
 31
0.0
  0
LINE
  8
0
 62
     0
 10
1.20027
 20
153.293
 30
0.0
 11
1.52687
 21
153.784
 31
0.0
  0
LINE
  8
0
 62
     0
 10
1.52687
 20
153.784
 30
0.0
 11
1.89067
 21
154.244
 31
0.0
  0
LINE
  8
0
 62
     0
 10
1.89067
 20
154.244
 30
0.0
 11
2.2903
 21
154.678
 31
0.0
  0
LINE
  8
0
 62
     0
 10
2.2903
 20
154.678
 30
0.0
 11
2.72438
 21
155.078
 31
0.0
  0
LINE
  8
0
 62
     0
 10
2.72438
 20
155.078
 30
0.0
 11
3.18464
 21
155.441
 31
0.0
  0
LINE
  8
0
 62
     0
 10
3.18464
 20
155.441
 30
0.0
 11
3.67524
 21
155.768
 31
0.0
  0
LINE
  8
0
 62
     0
 10
3.67524
 20
155.768
 30
0.0
 11
4.18924
 21
156.056
 31
0.0
  0
LINE
  8
0
 62
     0
 10
4.18924
 20
156.056
 30
0.0
 11
4.72391
 21
156.304
 31
0.0
  0
LINE
  8
0
 62
     0
 10
4.72391
 20
156.304
 30
0.0
 11
5.2765
 21
156.507
 31
0.0
  0
LINE
  8
0
 62
     0
 10
5.2765
 20
156.507
 30
0.0
 11
5.84426
 21
156.668
 31
0.0
  0
LINE
  8
0
 62
     0
 10
5.84426
 20
156.668
 30
0.0
 11
6.42027
 21
156.781
 31
0.0
  0
LINE
  8
0
 62
     0
 10
6.42027
 20
156.781
 30
0.0
 11
7.00595
 21
156.851
 31
0.0
  0
LINE
  8
0
 62
     0
 10
7.00595
 20
156.851
 30
0.0
 11
7.59435
 21
156.875
 31
0.0
  0
LINE
  8
0
 62
     0
 10
7.59435
 20
156.875
 30
0.0
 11
227.857
 21
156.873
 31
0.0
  0
LINE
  8
0
 62
     0
 10
158.446
 20
36.6229
 30
0.0
 11
158.446
 21
35.6224
 31
0.0
  0
LINE
  8
0
 62
     0
 10
158.446
 20
35.6224
 30
0.0
 11
157.646
 21
35.6224
 31
0.0
  0
LINE
  8
0
 62
     0
 10
157.646
 20
35.6224
 30
0.0
 11
157.646
 21
32.5231
 31
0.0
  0
LINE
  8
0
 62
     0
 10
157.646
 20
32.5231
 30
0.0
 11
158.446
 21
32.5231
 31
0.0
  0
LINE
  8
0
 62
     0
 10
158.446
 20
32.5231
 30
0.0
 11
158.446
 21
26.7229
 31
0.0
  0
LINE
  8
0
 62
     0
 10
158.446
 20
26.7229
 30
0.0
 11
157.646
 21
26.7229
 31
0.0
  0
LINE
  8
0
 62
     0
 10
157.646
 20
26.7229
 30
0.0
 11
157.646
 21
23.6223
 31
0.0
  0
LINE
  8
0
 62
     0
 10
157.646
 20
23.6223
 30
0.0
 11
158.446
 21
23.6223
 31
0.0
  0
LINE
  8
0
 62
     0
 10
158.446
 20
23.6223
 30
0.0
 11
158.446
 21
22.6219
 31
0.0
  0
LINE
  8
0
 62
     0
 10
158.446
 20
22.6219
 30
0.0
 11
172.446
 21
22.6219
 31
0.0
  0
LINE
  8
0
 62
     0
 10
172.446
 20
22.6219
 30
0.0
 11
172.446
 21
23.6223
 31
0.0
  0
LINE
  8
0
 62
     0
 10
172.446
 20
23.6223
 30
0.0
 11
173.246
 21
23.6223
 31
0.0
  0
LINE
  8
0
 62
     0
 10
173.246
 20
23.6223
 30
0.0
 11
173.246
 21
26.7229
 31
0.0
  0
LINE
  8
0
 62
     0
 10
173.246
 20
26.7229
 30
0.0
 11
172.446
 21
26.7229
 31
0.0
  0
LINE
  8
0
 62
     0
 10
172.446
 20
26.7229
 30
0.0
 11
172.446
 21
32.5231
 31
0.0
  0
LINE
  8
0
 62
     0
 10
172.446
 20
32.5231
 30
0.0
 11
173.246
 21
32.5231
 31
0.0
  0
LINE
  8
0
 62
     0
 10
173.246
 20
32.5231
 30
0.0
 11
173.246
 21
35.6224
 31
0.0
  0
LINE
  8
0
 62
     0
 10
173.246
 20
35.6224
 30
0.0
 11
172.446
 21
35.6224
 31
0.0
  0
LINE
  8
0
 62
     0
 10
172.446
 20
35.6224
 30
0.0
 11
172.446
 21
36.6229
 31
0.0
  0
LINE
  8
0
 62
     0
 10
172.446
 20
36.6229
 30
0.0
 11
158.446
 21
36.6229
 31
0.0
  0
LINE
  8
0
 62
     0
 10
177.496
 20
36.6229
 30
0.0
 11
177.496
 21
35.6224
 31
0.0
  0
LINE
  8
0
 62
     0
 10
177.496
 20
35.6224
 30
0.0
 11
176.696
 21
35.6224
 31
0.0
  0
LINE
  8
0
 62
     0
 10
176.696
 20
35.6224
 30
0.0
 11
176.696
 21
32.5231
 31
0.0
  0
LINE
  8
0
 62
     0
 10
176.696
 20
32.5231
 30
0.0
 11
177.496
 21
32.5231
 31
0.0
  0
LINE
  8
0
 62
     0
 10
177.496
 20
32.5231
 30
0.0
 11
177.496
 21
26.7229
 31
0.0
  0
LINE
  8
0
 62
     0
 10
177.496
 20
26.7229
 30
0.0
 11
176.696
 21
26.7229
 31
0.0
  0
LINE
  8
0
 62
     0
 10
176.696
 20
26.7229
 30
0.0
 11
176.696
 21
23.6223
 31
0.0
  0
LINE
  8
0
 62
     0
 10
176.696
 20
23.6223
 30
0.0
 11
177.496
 21
23.6223
 31
0.0
  0
LINE
  8
0
 62
     0
 10
177.496
 20
23.6223
 30
0.0
 11
177.496
 21
22.6219
 31
0.0
  0
LINE
  8
0
 62
     0
 10
177.496
 20
22.6219
 30
0.0
 11
191.496
 21
22.6219
 31
0.0
  0
LINE
  8
0
 62
     0
 10
191.496
 20
22.6219
 30
0.0
 11
191.496
 21
23.6223
 31
0.0
  0
LINE
  8
0
 62
     0
 10
191.496
 20
23.6223
 30
0.0
 11
192.296
 21
23.6223
 31
0.0
  0
LINE
  8
0
 62
     0
 10
192.296
 20
23.6223
 30
0.0
 11
192.296
 21
26.7229
 31
0.0
  0
LINE
  8
0
 62
     0
 10
192.296
 20
26.7229
 30
0.0
 11
191.496
 21
26.7229
 31
0.0
  0
LINE
  8
0
 62
     0
 10
191.496
 20
26.7229
 30
0.0
 11
191.496
 21
32.5231
 31
0.0
  0
LINE
  8
0
 62
     0
 10
191.496
 20
32.5231
 30
0.0
 11
192.296
 21
32.5231
 31
0.0
  0
LINE
  8
0
 62
     0
 10
192.296
 20
32.5231
 30
0.0
 11
192.296
 21
35.6224
 31
0.0
  0
LINE
  8
0
 62
     0
 10
192.296
 20
35.6224
 30
0.0
 11
191.496
 21
35.6224
 31
0.0
  0
LINE
  8
0
 62
     0
 10
191.496
 20
35.6224
 30
0.0
 11
191.496
 21
36.6229
 31
0.0
  0
LINE
  8
0
 62
     0
 10
191.496
 20
36.6229
 30
0.0
 11
177.496
 21
36.6229
 31
0.0
  0
LINE
  8
0
 62
     0
 10
196.546
 20
36.6229
 30
0.0
 11
196.546
 21
35.6224
 31
0.0
  0
LINE
  8
0
 62
     0
 10
196.546
 20
35.6224
 30
0.0
 11
195.746
 21
35.6224
 31
0.0
  0
LINE
  8
0
 62
     0
 10
195.746
 20
35.6224
 30
0.0
 11
195.746
 21
32.5231
 31
0.0
  0
LINE
  8
0
 62
     0
 10
195.746
 20
32.5231
 30
0.0
 11
196.546
 21
32.5231
 31
0.0
  0
LINE
  8
0
 62
     0
 10
196.546
 20
32.5231
 30
0.0
 11
196.546
 21
26.7229
 31
0.0
  0
LINE
  8
0
 62
     0
 10
196.546
 20
26.7229
 30
0.0
 11
195.746
 21
26.7229
 31
0.0
  0
LINE
  8
0
 62
     0
 10
195.746
 20
26.7229
 30
0.0
 11
195.746
 21
23.6223
 31
0.0
  0
LINE
  8
0
 62
     0
 10
195.746
 20
23.6223
 30
0.0
 11
196.546
 21
23.6223
 31
0.0
  0
LINE
  8
0
 62
     0
 10
196.546
 20
23.6223
 30
0.0
 11
196.546
 21
22.6219
 31
0.0
  0
LINE
  8
0
 62
     0
 10
196.546
 20
22.6219
 30
0.0
 11
210.546
 21
22.6219
 31
0.0
  0
LINE
  8
0
 62
     0
 10
210.546
 20
22.6219
 30
0.0
 11
210.546
 21
23.6223
 31
0.0
  0
LINE
  8
0
 62
     0
 10
210.546
 20
23.6223
 30
0.0
 11
211.346
 21
23.6223
 31
0.0
  0
LINE
  8
0
 62
     0
 10
211.346
 20
23.6223
 30
0.0
 11
211.346
 21
26.7229
 31
0.0
  0
LINE
  8
0
 62
     0
 10
211.346
 20
26.7229
 30
0.0
 11
210.546
 21
26.7229
 31
0.0
  0
LINE
  8
0
 62
     0
 10
210.546
 20
26.7229
 30
0.0
 11
210.546
 21
32.5231
 31
0.0
  0
LINE
  8
0
 62
     0
 10
210.546
 20
32.5231
 30
0.0
 11
211.346
 21
32.5231
 31
0.0
  0
LINE
  8
0
 62
     0
 10
211.346
 20
32.5231
 30
0.0
 11
211.346
 21
35.6224
 31
0.0
  0
LINE
  8
0
 62
     0
 10
211.346
 20
35.6224
 30
0.0
 11
210.546
 21
35.6224
 31
0.0
  0
LINE
  8
0
 62
     0
 10
210.546
 20
35.6224
 30
0.0
 11
210.546
 21
36.6229
 31
0.0
  0
LINE
  8
0
 62
     0
 10
210.546
 20
36.6229
 30
0.0
 11
196.546
 21
36.6229
 31
0.0
  0
LINE
  8
0
 62
     0
 10
39.2878
 20
39.0991
 30
0.0
 11
39.2878
 21
38.0986
 31
0.0
  0
LINE
  8
0
 62
     0
 10
39.2878
 20
38.0986
 30
0.0
 11
38.4873
 21
38.0986
 31
0.0
  0
LINE
  8
0
 62
     0
 10
38.4873
 20
38.0986
 30
0.0
 11
38.4873
 21
34.998
 31
0.0
  0
LINE
  8
0
 62
     0
 10
38.4873
 20
34.998
 30
0.0
 11
39.2878
 21
34.998
 31
0.0
  0
LINE
  8
0
 62
     0
 10
39.2878
 20
34.998
 30
0.0
 11
39.2878
 21
34.3986
 31
0.0
  0
LINE
  8
0
 62
     0
 10
39.2878
 20
34.3986
 30
0.0
 11
37.7624
 21
34.3986
 31
0.0
  0
LINE
  8
0
 62
     0
 10
37.7624
 20
34.3986
 30
0.0
 11
37.7624
 21
37.6287
 31
0.0
  0
LINE
  8
0
 62
     0
 10
37.7624
 20
37.6287
 30
0.0
 11
36.037
 21
37.6287
 31
0.0
  0
LINE
  8
0
 62
     0
 10
36.037
 20
37.6287
 30
0.0
 11
36.037
 21
38.548
 31
0.0
  0
LINE
  8
0
 62
     0
 10
36.037
 20
38.548
 30
0.0
 11
32.7381
 21
38.548
 31
0.0
  0
LINE
  8
0
 62
     0
 10
32.7381
 20
38.548
 30
0.0
 11
32.7381
 21
37.6287
 31
0.0
  0
LINE
  8
0
 62
     0
 10
32.7381
 20
37.6287
 30
0.0
 11
31.0128
 21
37.6287
 31
0.0
  0
LINE
  8
0
 62
     0
 10
31.0128
 20
37.6287
 30
0.0
 11
31.0128
 21
34.3986
 31
0.0
  0
LINE
  8
0
 62
     0
 10
31.0128
 20
34.3986
 30
0.0
 11
30.1873
 21
34.3986
 31
0.0
  0
LINE
  8
0
 62
     0
 10
30.1873
 20
34.3986
 30
0.0
 11
30.1873
 21
31.5984
 31
0.0
  0
LINE
  8
0
 62
     0
 10
30.1873
 20
31.5984
 30
0.0
 11
31.0128
 21
31.5984
 31
0.0
  0
LINE
  8
0
 62
     0
 10
31.0128
 20
31.5984
 30
0.0
 11
31.0128
 21
25.3284
 31
0.0
  0
LINE
  8
0
 62
     0
 10
31.0128
 20
25.3284
 30
0.0
 11
32.7381
 21
25.3284
 31
0.0
  0
LINE
  8
0
 62
     0
 10
32.7381
 20
25.3284
 30
0.0
 11
32.7381
 21
24.3485
 31
0.0
  0
LINE
  8
0
 62
     0
 10
32.7381
 20
24.3485
 30
0.0
 11
36.037
 21
24.3485
 31
0.0
  0
LINE
  8
0
 62
     0
 10
36.037
 20
24.3485
 30
0.0
 11
36.037
 21
25.3284
 31
0.0
  0
LINE
  8
0
 62
     0
 10
36.037
 20
25.3284
 30
0.0
 11
37.7624
 21
25.3284
 31
0.0
  0
LINE
  8
0
 62
     0
 10
37.7624
 20
25.3284
 30
0.0
 11
37.7624
 21
29.8001
 31
0.0
  0
LINE
  8
0
 62
     0
 10
37.7624
 20
29.8001
 30
0.0
 11
39.2878
 21
29.8001
 31
0.0
  0
LINE
  8
0
 62
     0
 10
39.2878
 20
29.8001
 30
0.0
 11
39.2878
 21
29.1979
 31
0.0
  0
LINE
  8
0
 62
     0
 10
39.2878
 20
29.1979
 30
0.0
 11
38.4873
 21
29.1979
 31
0.0
  0
LINE
  8
0
 62
     0
 10
38.4873
 20
29.1979
 30
0.0
 11
38.4873
 21
26.0987
 31
0.0
  0
LINE
  8
0
 62
     0
 10
38.4873
 20
26.0987
 30
0.0
 11
39.2878
 21
26.0987
 31
0.0
  0
LINE
  8
0
 62
     0
 10
39.2878
 20
26.0987
 30
0.0
 11
39.2878
 21
25.0982
 31
0.0
  0
LINE
  8
0
 62
     0
 10
39.2878
 20
25.0982
 30
0.0
 11
53.2874
 21
25.0982
 31
0.0
  0
LINE
  8
0
 62
     0
 10
53.2874
 20
25.0982
 30
0.0
 11
53.2874
 21
26.0987
 31
0.0
  0
LINE
  8
0
 62
     0
 10
53.2874
 20
26.0987
 30
0.0
 11
54.0879
 21
26.0987
 31
0.0
  0
LINE
  8
0
 62
     0
 10
54.0879
 20
26.0987
 30
0.0
 11
54.0879
 21
29.1979
 31
0.0
  0
LINE
  8
0
 62
     0
 10
54.0879
 20
29.1979
 30
0.0
 11
53.2874
 21
29.1979
 31
0.0
  0
LINE
  8
0
 62
     0
 10
53.2874
 20
29.1979
 30
0.0
 11
53.2874
 21
29.8001
 31
0.0
  0
LINE
  8
0
 62
     0
 10
53.2874
 20
29.8001
 30
0.0
 11
54.8128
 21
29.8001
 31
0.0
  0
LINE
  8
0
 62
     0
 10
54.8128
 20
29.8001
 30
0.0
 11
54.8128
 21
25.3284
 31
0.0
  0
LINE
  8
0
 62
     0
 10
54.8128
 20
25.3284
 30
0.0
 11
56.5383
 21
25.3284
 31
0.0
  0
LINE
  8
0
 62
     0
 10
56.5383
 20
25.3284
 30
0.0
 11
56.5383
 21
24.3485
 31
0.0
  0
LINE
  8
0
 62
     0
 10
56.5383
 20
24.3485
 30
0.0
 11
59.8371
 21
24.3485
 31
0.0
  0
LINE
  8
0
 62
     0
 10
59.8371
 20
24.3485
 30
0.0
 11
59.8371
 21
25.3284
 31
0.0
  0
LINE
  8
0
 62
     0
 10
59.8371
 20
25.3284
 30
0.0
 11
61.5625
 21
25.3284
 31
0.0
  0
LINE
  8
0
 62
     0
 10
61.5625
 20
25.3284
 30
0.0
 11
61.5625
 21
31.5984
 31
0.0
  0
LINE
  8
0
 62
     0
 10
61.5625
 20
31.5984
 30
0.0
 11
62.388
 21
31.5984
 31
0.0
  0
LINE
  8
0
 62
     0
 10
62.388
 20
31.5984
 30
0.0
 11
62.388
 21
34.3986
 31
0.0
  0
LINE
  8
0
 62
     0
 10
62.388
 20
34.3986
 30
0.0
 11
61.5625
 21
34.3986
 31
0.0
  0
LINE
  8
0
 62
     0
 10
61.5625
 20
34.3986
 30
0.0
 11
61.5625
 21
37.6287
 31
0.0
  0
LINE
  8
0
 62
     0
 10
61.5625
 20
37.6287
 30
0.0
 11
59.8371
 21
37.6287
 31
0.0
  0
LINE
  8
0
 62
     0
 10
59.8371
 20
37.6287
 30
0.0
 11
59.8371
 21
38.548
 31
0.0
  0
LINE
  8
0
 62
     0
 10
59.8371
 20
38.548
 30
0.0
 11
56.5383
 21
38.548
 31
0.0
  0
LINE
  8
0
 62
     0
 10
56.5383
 20
38.548
 30
0.0
 11
56.5383
 21
37.6287
 31
0.0
  0
LINE
  8
0
 62
     0
 10
56.5383
 20
37.6287
 30
0.0
 11
54.8128
 21
37.6287
 31
0.0
  0
LINE
  8
0
 62
     0
 10
54.8128
 20
37.6287
 30
0.0
 11
54.8128
 21
34.3986
 31
0.0
  0
LINE
  8
0
 62
     0
 10
54.8128
 20
34.3986
 30
0.0
 11
53.2874
 21
34.3986
 31
0.0
  0
LINE
  8
0
 62
     0
 10
53.2874
 20
34.3986
 30
0.0
 11
53.2874
 21
34.998
 31
0.0
  0
LINE
  8
0
 62
     0
 10
53.2874
 20
34.998
 30
0.0
 11
54.0879
 21
34.998
 31
0.0
  0
LINE
  8
0
 62
     0
 10
54.0879
 20
34.998
 30
0.0
 11
54.0879
 21
38.0986
 31
0.0
  0
LINE
  8
0
 62
     0
 10
54.0879
 20
38.0986
 30
0.0
 11
53.2874
 21
38.0986
 31
0.0
  0
LINE
  8
0
 62
     0
 10
53.2874
 20
38.0986
 30
0.0
 11
53.2874
 21
39.0991
 31
0.0
  0
LINE
  8
0
 62
     0
 10
53.2874
 20
39.0991
 30
0.0
 11
39.2878
 21
39.0991
 31
0.0
  0
LINE
  8
0
 62
     0
 10
79.7691
 20
39.0991
 30
0.0
 11
79.7691
 21
38.0986
 31
0.0
  0
LINE
  8
0
 62
     0
 10
79.7691
 20
38.0986
 30
0.0
 11
78.97
 21
38.0986
 31
0.0
  0
LINE
  8
0
 62
     0
 10
78.97
 20
38.0986
 30
0.0
 11
78.97
 21
34.998
 31
0.0
  0
LINE
  8
0
 62
     0
 10
78.97
 20
34.998
 30
0.0
 11
79.7691
 21
34.998
 31
0.0
  0
LINE
  8
0
 62
     0
 10
79.7691
 20
34.998
 30
0.0
 11
79.7691
 21
29.1979
 31
0.0
  0
LINE
  8
0
 62
     0
 10
79.7691
 20
29.1979
 30
0.0
 11
78.97
 21
29.1979
 31
0.0
  0
LINE
  8
0
 62
     0
 10
78.97
 20
29.1979
 30
0.0
 11
78.97
 21
26.0987
 31
0.0
  0
LINE
  8
0
 62
     0
 10
78.97
 20
26.0987
 30
0.0
 11
79.7691
 21
26.0987
 31
0.0
  0
LINE
  8
0
 62
     0
 10
79.7691
 20
26.0987
 30
0.0
 11
79.7691
 21
25.0982
 31
0.0
  0
LINE
  8
0
 62
     0
 10
79.7691
 20
25.0982
 30
0.0
 11
93.7701
 21
25.0982
 31
0.0
  0
LINE
  8
0
 62
     0
 10
93.7701
 20
25.0982
 30
0.0
 11
93.7701
 21
26.0987
 31
0.0
  0
LINE
  8
0
 62
     0
 10
93.7701
 20
26.0987
 30
0.0
 11
94.5691
 21
26.0987
 31
0.0
  0
LINE
  8
0
 62
     0
 10
94.5691
 20
26.0987
 30
0.0
 11
94.5691
 21
29.1979
 31
0.0
  0
LINE
  8
0
 62
     0
 10
94.5691
 20
29.1979
 30
0.0
 11
93.7701
 21
29.1979
 31
0.0
  0
LINE
  8
0
 62
     0
 10
93.7701
 20
29.1979
 30
0.0
 11
93.7701
 21
34.998
 31
0.0
  0
LINE
  8
0
 62
     0
 10
93.7701
 20
34.998
 30
0.0
 11
94.5691
 21
34.998
 31
0.0
  0
LINE
  8
0
 62
     0
 10
94.5691
 20
34.998
 30
0.0
 11
94.5691
 21
38.0986
 31
0.0
  0
LINE
  8
0
 62
     0
 10
94.5691
 20
38.0986
 30
0.0
 11
93.7701
 21
38.0986
 31
0.0
  0
LINE
  8
0
 62
     0
 10
93.7701
 20
38.0986
 30
0.0
 11
93.7701
 21
39.0991
 31
0.0
  0
LINE
  8
0
 62
     0
 10
93.7701
 20
39.0991
 30
0.0
 11
79.7691
 21
39.0991
 31
0.0
  0
LINE
  8
0
 62
     0
 10
103.582
 20
39.0991
 30
0.0
 11
103.582
 21
38.0986
 31
0.0
  0
LINE
  8
0
 62
     0
 10
103.582
 20
38.0986
 30
0.0
 11
102.783
 21
38.0986
 31
0.0
  0
LINE
  8
0
 62
     0
 10
102.783
 20
38.0986
 30
0.0
 11
102.783
 21
34.998
 31
0.0
  0
LINE
  8
0
 62
     0
 10
102.783
 20
34.998
 30
0.0
 11
103.582
 21
34.998
 31
0.0
  0
LINE
  8
0
 62
     0
 10
103.582
 20
34.998
 30
0.0
 11
103.582
 21
29.1979
 31
0.0
  0
LINE
  8
0
 62
     0
 10
103.582
 20
29.1979
 30
0.0
 11
102.783
 21
29.1979
 31
0.0
  0
LINE
  8
0
 62
     0
 10
102.783
 20
29.1979
 30
0.0
 11
102.783
 21
26.0987
 31
0.0
  0
LINE
  8
0
 62
     0
 10
102.783
 20
26.0987
 30
0.0
 11
103.582
 21
26.0987
 31
0.0
  0
LINE
  8
0
 62
     0
 10
103.582
 20
26.0987
 30
0.0
 11
103.582
 21
25.0982
 31
0.0
  0
LINE
  8
0
 62
     0
 10
103.582
 20
25.0982
 30
0.0
 11
117.581
 21
25.0982
 31
0.0
  0
LINE
  8
0
 62
     0
 10
117.581
 20
25.0982
 30
0.0
 11
117.581
 21
26.0987
 31
0.0
  0
LINE
  8
0
 62
     0
 10
117.581
 20
26.0987
 30
0.0
 11
118.382
 21
26.0987
 31
0.0
  0
LINE
  8
0
 62
     0
 10
118.382
 20
26.0987
 30
0.0
 11
118.382
 21
29.1979
 31
0.0
  0
LINE
  8
0
 62
     0
 10
118.382
 20
29.1979
 30
0.0
 11
117.581
 21
29.1979
 31
0.0
  0
LINE
  8
0
 62
     0
 10
117.581
 20
29.1979
 30
0.0
 11
117.581
 21
34.998
 31
0.0
  0
LINE
  8
0
 62
     0
 10
117.581
 20
34.998
 30
0.0
 11
118.382
 21
34.998
 31
0.0
  0
LINE
  8
0
 62
     0
 10
118.382
 20
34.998
 30
0.0
 11
118.382
 21
38.0986
 31
0.0
  0
LINE
  8
0
 62
     0
 10
118.382
 20
38.0986
 30
0.0
 11
117.581
 21
38.0986
 31
0.0
  0
LINE
  8
0
 62
     0
 10
117.581
 20
38.0986
 30
0.0
 11
117.581
 21
39.0991
 31
0.0
  0
LINE
  8
0
 62
     0
 10
117.581
 20
39.0991
 30
0.0
 11
103.582
 21
39.0991
 31
0.0
  0
LINE
  8
0
 62
     0
 10
122.632
 20
39.0991
 30
0.0
 11
122.632
 21
38.0986
 31
0.0
  0
LINE
  8
0
 62
     0
 10
122.632
 20
38.0986
 30
0.0
 11
121.833
 21
38.0986
 31
0.0
  0
LINE
  8
0
 62
     0
 10
121.833
 20
38.0986
 30
0.0
 11
121.833
 21
34.998
 31
0.0
  0
LINE
  8
0
 62
     0
 10
121.833
 20
34.998
 30
0.0
 11
122.632
 21
34.998
 31
0.0
  0
LINE
  8
0
 62
     0
 10
122.632
 20
34.998
 30
0.0
 11
122.632
 21
29.1979
 31
0.0
  0
LINE
  8
0
 62
     0
 10
122.632
 20
29.1979
 30
0.0
 11
121.833
 21
29.1979
 31
0.0
  0
LINE
  8
0
 62
     0
 10
121.833
 20
29.1979
 30
0.0
 11
121.833
 21
26.0987
 31
0.0
  0
LINE
  8
0
 62
     0
 10
121.833
 20
26.0987
 30
0.0
 11
122.632
 21
26.0987
 31
0.0
  0
LINE
  8
0
 62
     0
 10
122.632
 20
26.0987
 30
0.0
 11
122.632
 21
25.0982
 31
0.0
  0
LINE
  8
0
 62
     0
 10
122.632
 20
25.0982
 30
0.0
 11
136.631
 21
25.0982
 31
0.0
  0
LINE
  8
0
 62
     0
 10
136.631
 20
25.0982
 30
0.0
 11
136.631
 21
26.0987
 31
0.0
  0
LINE
  8
0
 62
     0
 10
136.631
 20
26.0987
 30
0.0
 11
137.432
 21
26.0987
 31
0.0
  0
LINE
  8
0
 62
     0
 10
137.432
 20
26.0987
 30
0.0
 11
137.432
 21
29.1979
 31
0.0
  0
LINE
  8
0
 62
     0
 10
137.432
 20
29.1979
 30
0.0
 11
136.631
 21
29.1979
 31
0.0
  0
LINE
  8
0
 62
     0
 10
136.631
 20
29.1979
 30
0.0
 11
136.631
 21
34.998
 31
0.0
  0
LINE
  8
0
 62
     0
 10
136.631
 20
34.998
 30
0.0
 11
137.432
 21
34.998
 31
0.0
  0
LINE
  8
0
 62
     0
 10
137.432
 20
34.998
 30
0.0
 11
137.432
 21
38.0986
 31
0.0
  0
LINE
  8
0
 62
     0
 10
137.432
 20
38.0986
 30
0.0
 11
136.631
 21
38.0986
 31
0.0
  0
LINE
  8
0
 62
     0
 10
136.631
 20
38.0986
 30
0.0
 11
136.631
 21
39.0991
 31
0.0
  0
LINE
  8
0
 62
     0
 10
136.631
 20
39.0991
 30
0.0
 11
122.632
 21
39.0991
 31
0.0
  0
LINE
  8
0
 62
     0
 10
177.496
 20
55.6729
 30
0.0
 11
177.496
 21
54.6724
 31
0.0
  0
LINE
  8
0
 62
     0
 10
177.496
 20
54.6724
 30
0.0
 11
176.696
 21
54.6724
 31
0.0
  0
LINE
  8
0
 62
     0
 10
176.696
 20
54.6724
 30
0.0
 11
176.696
 21
51.5729
 31
0.0
  0
LINE
  8
0
 62
     0
 10
176.696
 20
51.5729
 30
0.0
 11
177.496
 21
51.5729
 31
0.0
  0
LINE
  8
0
 62
     0
 10
177.496
 20
51.5729
 30
0.0
 11
177.496
 21
45.7729
 31
0.0
  0
LINE
  8
0
 62
     0
 10
177.496
 20
45.7729
 30
0.0
 11
176.696
 21
45.7729
 31
0.0
  0
LINE
  8
0
 62
     0
 10
176.696
 20
45.7729
 30
0.0
 11
176.696
 21
42.6724
 31
0.0
  0
LINE
  8
0
 62
     0
 10
176.696
 20
42.6724
 30
0.0
 11
177.496
 21
42.6724
 31
0.0
  0
LINE
  8
0
 62
     0
 10
177.496
 20
42.6724
 30
0.0
 11
177.496
 21
41.6719
 31
0.0
  0
LINE
  8
0
 62
     0
 10
177.496
 20
41.6719
 30
0.0
 11
191.496
 21
41.6719
 31
0.0
  0
LINE
  8
0
 62
     0
 10
191.496
 20
41.6719
 30
0.0
 11
191.496
 21
42.6724
 31
0.0
  0
LINE
  8
0
 62
     0
 10
191.496
 20
42.6724
 30
0.0
 11
192.296
 21
42.6724
 31
0.0
  0
LINE
  8
0
 62
     0
 10
192.296
 20
42.6724
 30
0.0
 11
192.296
 21
45.7729
 31
0.0
  0
LINE
  8
0
 62
     0
 10
192.296
 20
45.7729
 30
0.0
 11
191.496
 21
45.7729
 31
0.0
  0
LINE
  8
0
 62
     0
 10
191.496
 20
45.7729
 30
0.0
 11
191.496
 21
51.5729
 31
0.0
  0
LINE
  8
0
 62
     0
 10
191.496
 20
51.5729
 30
0.0
 11
192.296
 21
51.5729
 31
0.0
  0
LINE
  8
0
 62
     0
 10
192.296
 20
51.5729
 30
0.0
 11
192.296
 21
54.6724
 31
0.0
  0
LINE
  8
0
 62
     0
 10
192.296
 20
54.6724
 30
0.0
 11
191.496
 21
54.6724
 31
0.0
  0
LINE
  8
0
 62
     0
 10
191.496
 20
54.6724
 30
0.0
 11
191.496
 21
55.6729
 31
0.0
  0
LINE
  8
0
 62
     0
 10
191.496
 20
55.6729
 30
0.0
 11
177.496
 21
55.6729
 31
0.0
  0
LINE
  8
0
 62
     0
 10
144.063
 20
58.1491
 30
0.0
 11
144.063
 21
57.1486
 31
0.0
  0
LINE
  8
0
 62
     0
 10
144.063
 20
57.1486
 30
0.0
 11
143.262
 21
57.1486
 31
0.0
  0
LINE
  8
0
 62
     0
 10
143.262
 20
57.1486
 30
0.0
 11
143.262
 21
54.0494
 31
0.0
  0
LINE
  8
0
 62
     0
 10
143.262
 20
54.0494
 30
0.0
 11
144.063
 21
54.0494
 31
0.0
  0
LINE
  8
0
 62
     0
 10
144.063
 20
54.0494
 30
0.0
 11
144.063
 21
53.4487
 31
0.0
  0
LINE
  8
0
 62
     0
 10
144.063
 20
53.4487
 30
0.0
 11
142.537
 21
53.4487
 31
0.0
  0
LINE
  8
0
 62
     0
 10
142.537
 20
53.4487
 30
0.0
 11
142.537
 21
56.6787
 31
0.0
  0
LINE
  8
0
 62
     0
 10
142.537
 20
56.6787
 30
0.0
 11
140.812
 21
56.6787
 31
0.0
  0
LINE
  8
0
 62
     0
 10
140.812
 20
56.6787
 30
0.0
 11
140.812
 21
57.5991
 31
0.0
  0
LINE
  8
0
 62
     0
 10
140.812
 20
57.5991
 30
0.0
 11
137.513
 21
57.5991
 31
0.0
  0
LINE
  8
0
 62
     0
 10
137.513
 20
57.5991
 30
0.0
 11
137.513
 21
56.6787
 31
0.0
  0
LINE
  8
0
 62
     0
 10
137.513
 20
56.6787
 30
0.0
 11
135.788
 21
56.6787
 31
0.0
  0
LINE
  8
0
 62
     0
 10
135.788
 20
56.6787
 30
0.0
 11
135.788
 21
53.4487
 31
0.0
  0
LINE
  8
0
 62
     0
 10
135.788
 20
53.4487
 30
0.0
 11
134.962
 21
53.4487
 31
0.0
  0
LINE
  8
0
 62
     0
 10
134.962
 20
53.4487
 30
0.0
 11
134.962
 21
50.6483
 31
0.0
  0
LINE
  8
0
 62
     0
 10
134.962
 20
50.6483
 30
0.0
 11
135.788
 21
50.6483
 31
0.0
  0
LINE
  8
0
 62
     0
 10
135.788
 20
50.6483
 30
0.0
 11
135.788
 21
44.3812
 31
0.0
  0
LINE
  8
0
 62
     0
 10
135.788
 20
44.3812
 30
0.0
 11
137.513
 21
44.3812
 31
0.0
  0
LINE
  8
0
 62
     0
 10
137.513
 20
44.3812
 30
0.0
 11
137.513
 21
43.3987
 31
0.0
  0
LINE
  8
0
 62
     0
 10
137.513
 20
43.3987
 30
0.0
 11
140.812
 21
43.3987
 31
0.0
  0
LINE
  8
0
 62
     0
 10
140.812
 20
43.3987
 30
0.0
 11
140.812
 21
44.3812
 31
0.0
  0
LINE
  8
0
 62
     0
 10
140.812
 20
44.3812
 30
0.0
 11
142.537
 21
44.3812
 31
0.0
  0
LINE
  8
0
 62
     0
 10
142.537
 20
44.3812
 30
0.0
 11
142.537
 21
48.8502
 31
0.0
  0
LINE
  8
0
 62
     0
 10
142.537
 20
48.8502
 30
0.0
 11
144.063
 21
48.8502
 31
0.0
  0
LINE
  8
0
 62
     0
 10
144.063
 20
48.8502
 30
0.0
 11
144.063
 21
48.248
 31
0.0
  0
LINE
  8
0
 62
     0
 10
144.063
 20
48.248
 30
0.0
 11
143.262
 21
48.248
 31
0.0
  0
LINE
  8
0
 62
     0
 10
143.262
 20
48.248
 30
0.0
 11
143.262
 21
45.1485
 31
0.0
  0
LINE
  8
0
 62
     0
 10
143.262
 20
45.1485
 30
0.0
 11
144.063
 21
45.1485
 31
0.0
  0
LINE
  8
0
 62
     0
 10
144.063
 20
45.1485
 30
0.0
 11
144.063
 21
44.1484
 31
0.0
  0
LINE
  8
0
 62
     0
 10
144.063
 20
44.1484
 30
0.0
 11
158.062
 21
44.1484
 31
0.0
  0
LINE
  8
0
 62
     0
 10
158.062
 20
44.1484
 30
0.0
 11
158.062
 21
45.1485
 31
0.0
  0
LINE
  8
0
 62
     0
 10
158.062
 20
45.1485
 30
0.0
 11
158.863
 21
45.1485
 31
0.0
  0
LINE
  8
0
 62
     0
 10
158.863
 20
45.1485
 30
0.0
 11
158.863
 21
48.248
 31
0.0
  0
LINE
  8
0
 62
     0
 10
158.863
 20
48.248
 30
0.0
 11
158.062
 21
48.248
 31
0.0
  0
LINE
  8
0
 62
     0
 10
158.062
 20
48.248
 30
0.0
 11
158.062
 21
48.8502
 31
0.0
  0
LINE
  8
0
 62
     0
 10
158.062
 20
48.8502
 30
0.0
 11
159.588
 21
48.8502
 31
0.0
  0
LINE
  8
0
 62
     0
 10
159.588
 20
48.8502
 30
0.0
 11
159.588
 21
44.3812
 31
0.0
  0
LINE
  8
0
 62
     0
 10
159.588
 20
44.3812
 30
0.0
 11
161.313
 21
44.3812
 31
0.0
  0
LINE
  8
0
 62
     0
 10
161.313
 20
44.3812
 30
0.0
 11
161.313
 21
43.3987
 31
0.0
  0
LINE
  8
0
 62
     0
 10
161.313
 20
43.3987
 30
0.0
 11
164.612
 21
43.3987
 31
0.0
  0
LINE
  8
0
 62
     0
 10
164.612
 20
43.3987
 30
0.0
 11
164.612
 21
44.3812
 31
0.0
  0
LINE
  8
0
 62
     0
 10
164.612
 20
44.3812
 30
0.0
 11
166.338
 21
44.3812
 31
0.0
  0
LINE
  8
0
 62
     0
 10
166.338
 20
44.3812
 30
0.0
 11
166.338
 21
50.6483
 31
0.0
  0
LINE
  8
0
 62
     0
 10
166.338
 20
50.6483
 30
0.0
 11
167.163
 21
50.6483
 31
0.0
  0
LINE
  8
0
 62
     0
 10
167.163
 20
50.6483
 30
0.0
 11
167.163
 21
53.4487
 31
0.0
  0
LINE
  8
0
 62
     0
 10
167.163
 20
53.4487
 30
0.0
 11
166.338
 21
53.4487
 31
0.0
  0
LINE
  8
0
 62
     0
 10
166.338
 20
53.4487
 30
0.0
 11
166.338
 21
56.6787
 31
0.0
  0
LINE
  8
0
 62
     0
 10
166.338
 20
56.6787
 30
0.0
 11
164.612
 21
56.6787
 31
0.0
  0
LINE
  8
0
 62
     0
 10
164.612
 20
56.6787
 30
0.0
 11
164.612
 21
57.5991
 31
0.0
  0
LINE
  8
0
 62
     0
 10
164.612
 20
57.5991
 30
0.0
 11
161.313
 21
57.5991
 31
0.0
  0
LINE
  8
0
 62
     0
 10
161.313
 20
57.5991
 30
0.0
 11
161.313
 21
56.6787
 31
0.0
  0
LINE
  8
0
 62
     0
 10
161.313
 20
56.6787
 30
0.0
 11
159.588
 21
56.6787
 31
0.0
  0
LINE
  8
0
 62
     0
 10
159.588
 20
56.6787
 30
0.0
 11
159.588
 21
53.4487
 31
0.0
  0
LINE
  8
0
 62
     0
 10
159.588
 20
53.4487
 30
0.0
 11
158.062
 21
53.4487
 31
0.0
  0
LINE
  8
0
 62
     0
 10
158.062
 20
53.4487
 30
0.0
 11
158.062
 21
54.0494
 31
0.0
  0
LINE
  8
0
 62
     0
 10
158.062
 20
54.0494
 30
0.0
 11
158.863
 21
54.0494
 31
0.0
  0
LINE
  8
0
 62
     0
 10
158.863
 20
54.0494
 30
0.0
 11
158.863
 21
57.1486
 31
0.0
  0
LINE
  8
0
 62
     0
 10
158.863
 20
57.1486
 30
0.0
 11
158.062
 21
57.1486
 31
0.0
  0
LINE
  8
0
 62
     0
 10
158.062
 20
57.1486
 30
0.0
 11
158.062
 21
58.1491
 31
0.0
  0
LINE
  8
0
 62
     0
 10
158.062
 20
58.1491
 30
0.0
 11
144.063
 21
58.1491
 31
0.0
  0
LINE
  8
0
 62
     0
 10
32.1441
 20
58.1491
 30
0.0
 11
32.1441
 21
57.1486
 31
0.0
  0
LINE
  8
0
 62
     0
 10
32.1441
 20
57.1486
 30
0.0
 11
31.3449
 21
57.1486
 31
0.0
  0
LINE
  8
0
 62
     0
 10
31.3449
 20
57.1486
 30
0.0
 11
31.3449
 21
54.0494
 31
0.0
  0
LINE
  8
0
 62
     0
 10
31.3449
 20
54.0494
 30
0.0
 11
32.1441
 21
54.0494
 31
0.0
  0
LINE
  8
0
 62
     0
 10
32.1441
 20
54.0494
 30
0.0
 11
32.1441
 21
48.248
 31
0.0
  0
LINE
  8
0
 62
     0
 10
32.1441
 20
48.248
 30
0.0
 11
31.3449
 21
48.248
 31
0.0
  0
LINE
  8
0
 62
     0
 10
31.3449
 20
48.248
 30
0.0
 11
31.3449
 21
45.1485
 31
0.0
  0
LINE
  8
0
 62
     0
 10
31.3449
 20
45.1485
 30
0.0
 11
32.1441
 21
45.1485
 31
0.0
  0
LINE
  8
0
 62
     0
 10
32.1441
 20
45.1485
 30
0.0
 11
32.1441
 21
44.1484
 31
0.0
  0
LINE
  8
0
 62
     0
 10
32.1441
 20
44.1484
 30
0.0
 11
46.1451
 21
44.1484
 31
0.0
  0
LINE
  8
0
 62
     0
 10
46.1451
 20
44.1484
 30
0.0
 11
46.1451
 21
45.1485
 31
0.0
  0
LINE
  8
0
 62
     0
 10
46.1451
 20
45.1485
 30
0.0
 11
46.9441
 21
45.1485
 31
0.0
  0
LINE
  8
0
 62
     0
 10
46.9441
 20
45.1485
 30
0.0
 11
46.9441
 21
48.248
 31
0.0
  0
LINE
  8
0
 62
     0
 10
46.9441
 20
48.248
 30
0.0
 11
46.1451
 21
48.248
 31
0.0
  0
LINE
  8
0
 62
     0
 10
46.1451
 20
48.248
 30
0.0
 11
46.1451
 21
54.0494
 31
0.0
  0
LINE
  8
0
 62
     0
 10
46.1451
 20
54.0494
 30
0.0
 11
46.9441
 21
54.0494
 31
0.0
  0
LINE
  8
0
 62
     0
 10
46.9441
 20
54.0494
 30
0.0
 11
46.9441
 21
57.1486
 31
0.0
  0
LINE
  8
0
 62
     0
 10
46.9441
 20
57.1486
 30
0.0
 11
46.1451
 21
57.1486
 31
0.0
  0
LINE
  8
0
 62
     0
 10
46.1451
 20
57.1486
 30
0.0
 11
46.1451
 21
58.1491
 31
0.0
  0
LINE
  8
0
 62
     0
 10
46.1451
 20
58.1491
 30
0.0
 11
32.1441
 21
58.1491
 31
0.0
  0
LINE
  8
0
 62
     0
 10
55.9566
 20
58.1491
 30
0.0
 11
55.9566
 21
57.1486
 31
0.0
  0
LINE
  8
0
 62
     0
 10
55.9566
 20
57.1486
 30
0.0
 11
55.1575
 21
57.1486
 31
0.0
  0
LINE
  8
0
 62
     0
 10
55.1575
 20
57.1486
 30
0.0
 11
55.1575
 21
54.0494
 31
0.0
  0
LINE
  8
0
 62
     0
 10
55.1575
 20
54.0494
 30
0.0
 11
55.9566
 21
54.0494
 31
0.0
  0
LINE
  8
0
 62
     0
 10
55.9566
 20
54.0494
 30
0.0
 11
55.9566
 21
48.248
 31
0.0
  0
LINE
  8
0
 62
     0
 10
55.9566
 20
48.248
 30
0.0
 11
55.1575
 21
48.248
 31
0.0
  0
LINE
  8
0
 62
     0
 10
55.1575
 20
48.248
 30
0.0
 11
55.1575
 21
45.1485
 31
0.0
  0
LINE
  8
0
 62
     0
 10
55.1575
 20
45.1485
 30
0.0
 11
55.9566
 21
45.1485
 31
0.0
  0
LINE
  8
0
 62
     0
 10
55.9566
 20
45.1485
 30
0.0
 11
55.9566
 21
44.1484
 31
0.0
  0
LINE
  8
0
 62
     0
 10
55.9566
 20
44.1484
 30
0.0
 11
69.9562
 21
44.1484
 31
0.0
  0
LINE
  8
0
 62
     0
 10
69.9562
 20
44.1484
 30
0.0
 11
69.9562
 21
45.1485
 31
0.0
  0
LINE
  8
0
 62
     0
 10
69.9562
 20
45.1485
 30
0.0
 11
70.7566
 21
45.1485
 31
0.0
  0
LINE
  8
0
 62
     0
 10
70.7566
 20
45.1485
 30
0.0
 11
70.7566
 21
48.248
 31
0.0
  0
LINE
  8
0
 62
     0
 10
70.7566
 20
48.248
 30
0.0
 11
69.9562
 21
48.248
 31
0.0
  0
LINE
  8
0
 62
     0
 10
69.9562
 20
48.248
 30
0.0
 11
69.9562
 21
54.0494
 31
0.0
  0
LINE
  8
0
 62
     0
 10
69.9562
 20
54.0494
 30
0.0
 11
70.7566
 21
54.0494
 31
0.0
  0
LINE
  8
0
 62
     0
 10
70.7566
 20
54.0494
 30
0.0
 11
70.7566
 21
57.1486
 31
0.0
  0
LINE
  8
0
 62
     0
 10
70.7566
 20
57.1486
 30
0.0
 11
69.9562
 21
57.1486
 31
0.0
  0
LINE
  8
0
 62
     0
 10
69.9562
 20
57.1486
 30
0.0
 11
69.9562
 21
58.1491
 31
0.0
  0
LINE
  8
0
 62
     0
 10
69.9562
 20
58.1491
 30
0.0
 11
55.9566
 21
58.1491
 31
0.0
  0
LINE
  8
0
 62
     0
 10
75.0066
 20
58.1491
 30
0.0
 11
75.0066
 21
57.1486
 31
0.0
  0
LINE
  8
0
 62
     0
 10
75.0066
 20
57.1486
 30
0.0
 11
74.2075
 21
57.1486
 31
0.0
  0
LINE
  8
0
 62
     0
 10
74.2075
 20
57.1486
 30
0.0
 11
74.2075
 21
54.0494
 31
0.0
  0
LINE
  8
0
 62
     0
 10
74.2075
 20
54.0494
 30
0.0
 11
75.0066
 21
54.0494
 31
0.0
  0
LINE
  8
0
 62
     0
 10
75.0066
 20
54.0494
 30
0.0
 11
75.0066
 21
48.248
 31
0.0
  0
LINE
  8
0
 62
     0
 10
75.0066
 20
48.248
 30
0.0
 11
74.2075
 21
48.248
 31
0.0
  0
LINE
  8
0
 62
     0
 10
74.2075
 20
48.248
 30
0.0
 11
74.2075
 21
45.1485
 31
0.0
  0
LINE
  8
0
 62
     0
 10
74.2075
 20
45.1485
 30
0.0
 11
75.0066
 21
45.1485
 31
0.0
  0
LINE
  8
0
 62
     0
 10
75.0066
 20
45.1485
 30
0.0
 11
75.0066
 21
44.1484
 31
0.0
  0
LINE
  8
0
 62
     0
 10
75.0066
 20
44.1484
 30
0.0
 11
89.0062
 21
44.1484
 31
0.0
  0
LINE
  8
0
 62
     0
 10
89.0062
 20
44.1484
 30
0.0
 11
89.0062
 21
45.1485
 31
0.0
  0
LINE
  8
0
 62
     0
 10
89.0062
 20
45.1485
 30
0.0
 11
89.8066
 21
45.1485
 31
0.0
  0
LINE
  8
0
 62
     0
 10
89.8066
 20
45.1485
 30
0.0
 11
89.8066
 21
48.248
 31
0.0
  0
LINE
  8
0
 62
     0
 10
89.8066
 20
48.248
 30
0.0
 11
89.0062
 21
48.248
 31
0.0
  0
LINE
  8
0
 62
     0
 10
89.0062
 20
48.248
 30
0.0
 11
89.0062
 21
54.0494
 31
0.0
  0
LINE
  8
0
 62
     0
 10
89.0062
 20
54.0494
 30
0.0
 11
89.8066
 21
54.0494
 31
0.0
  0
LINE
  8
0
 62
     0
 10
89.8066
 20
54.0494
 30
0.0
 11
89.8066
 21
57.1486
 31
0.0
  0
LINE
  8
0
 62
     0
 10
89.8066
 20
57.1486
 30
0.0
 11
89.0062
 21
57.1486
 31
0.0
  0
LINE
  8
0
 62
     0
 10
89.0062
 20
57.1486
 30
0.0
 11
89.0062
 21
58.1491
 31
0.0
  0
LINE
  8
0
 62
     0
 10
89.0062
 20
58.1491
 30
0.0
 11
75.0066
 21
58.1491
 31
0.0
  0
LINE
  8
0
 62
     0
 10
94.0566
 20
58.1491
 30
0.0
 11
94.0566
 21
57.1486
 31
0.0
  0
LINE
  8
0
 62
     0
 10
94.0566
 20
57.1486
 30
0.0
 11
93.2575
 21
57.1486
 31
0.0
  0
LINE
  8
0
 62
     0
 10
93.2575
 20
57.1486
 30
0.0
 11
93.2575
 21
54.0494
 31
0.0
  0
LINE
  8
0
 62
     0
 10
93.2575
 20
54.0494
 30
0.0
 11
94.0566
 21
54.0494
 31
0.0
  0
LINE
  8
0
 62
     0
 10
94.0566
 20
54.0494
 30
0.0
 11
94.0566
 21
48.248
 31
0.0
  0
LINE
  8
0
 62
     0
 10
94.0566
 20
48.248
 30
0.0
 11
93.2575
 21
48.248
 31
0.0
  0
LINE
  8
0
 62
     0
 10
93.2575
 20
48.248
 30
0.0
 11
93.2575
 21
45.1485
 31
0.0
  0
LINE
  8
0
 62
     0
 10
93.2575
 20
45.1485
 30
0.0
 11
94.0566
 21
45.1485
 31
0.0
  0
LINE
  8
0
 62
     0
 10
94.0566
 20
45.1485
 30
0.0
 11
94.0566
 21
44.1484
 31
0.0
  0
LINE
  8
0
 62
     0
 10
94.0566
 20
44.1484
 30
0.0
 11
108.056
 21
44.1484
 31
0.0
  0
LINE
  8
0
 62
     0
 10
108.056
 20
44.1484
 30
0.0
 11
108.056
 21
45.1485
 31
0.0
  0
LINE
  8
0
 62
     0
 10
108.056
 20
45.1485
 30
0.0
 11
108.857
 21
45.1485
 31
0.0
  0
LINE
  8
0
 62
     0
 10
108.857
 20
45.1485
 30
0.0
 11
108.857
 21
48.248
 31
0.0
  0
LINE
  8
0
 62
     0
 10
108.857
 20
48.248
 30
0.0
 11
108.056
 21
48.248
 31
0.0
  0
LINE
  8
0
 62
     0
 10
108.056
 20
48.248
 30
0.0
 11
108.056
 21
54.0494
 31
0.0
  0
LINE
  8
0
 62
     0
 10
108.056
 20
54.0494
 30
0.0
 11
108.857
 21
54.0494
 31
0.0
  0
LINE
  8
0
 62
     0
 10
108.857
 20
54.0494
 30
0.0
 11
108.857
 21
57.1486
 31
0.0
  0
LINE
  8
0
 62
     0
 10
108.857
 20
57.1486
 30
0.0
 11
108.056
 21
57.1486
 31
0.0
  0
LINE
  8
0
 62
     0
 10
108.056
 20
57.1486
 30
0.0
 11
108.056
 21
58.1491
 31
0.0
  0
LINE
  8
0
 62
     0
 10
108.056
 20
58.1491
 30
0.0
 11
94.0566
 21
58.1491
 31
0.0
  0
LINE
  8
0
 62
     0
 10
113.107
 20
58.1491
 30
0.0
 11
113.107
 21
57.1486
 31
0.0
  0
LINE
  8
0
 62
     0
 10
113.107
 20
57.1486
 30
0.0
 11
112.308
 21
57.1486
 31
0.0
  0
LINE
  8
0
 62
     0
 10
112.308
 20
57.1486
 30
0.0
 11
112.308
 21
54.0494
 31
0.0
  0
LINE
  8
0
 62
     0
 10
112.308
 20
54.0494
 30
0.0
 11
113.107
 21
54.0494
 31
0.0
  0
LINE
  8
0
 62
     0
 10
113.107
 20
54.0494
 30
0.0
 11
113.107
 21
48.248
 31
0.0
  0
LINE
  8
0
 62
     0
 10
113.107
 20
48.248
 30
0.0
 11
112.308
 21
48.248
 31
0.0
  0
LINE
  8
0
 62
     0
 10
112.308
 20
48.248
 30
0.0
 11
112.308
 21
45.1485
 31
0.0
  0
LINE
  8
0
 62
     0
 10
112.308
 20
45.1485
 30
0.0
 11
113.107
 21
45.1485
 31
0.0
  0
LINE
  8
0
 62
     0
 10
113.107
 20
45.1485
 30
0.0
 11
113.107
 21
44.1484
 31
0.0
  0
LINE
  8
0
 62
     0
 10
113.107
 20
44.1484
 30
0.0
 11
127.106
 21
44.1484
 31
0.0
  0
LINE
  8
0
 62
     0
 10
127.106
 20
44.1484
 30
0.0
 11
127.106
 21
45.1485
 31
0.0
  0
LINE
  8
0
 62
     0
 10
127.106
 20
45.1485
 30
0.0
 11
127.907
 21
45.1485
 31
0.0
  0
LINE
  8
0
 62
     0
 10
127.907
 20
45.1485
 30
0.0
 11
127.907
 21
48.248
 31
0.0
  0
LINE
  8
0
 62
     0
 10
127.907
 20
48.248
 30
0.0
 11
127.106
 21
48.248
 31
0.0
  0
LINE
  8
0
 62
     0
 10
127.106
 20
48.248
 30
0.0
 11
127.106
 21
54.0494
 31
0.0
  0
LINE
  8
0
 62
     0
 10
127.106
 20
54.0494
 30
0.0
 11
127.907
 21
54.0494
 31
0.0
  0
LINE
  8
0
 62
     0
 10
127.907
 20
54.0494
 30
0.0
 11
127.907
 21
57.1486
 31
0.0
  0
LINE
  8
0
 62
     0
 10
127.907
 20
57.1486
 30
0.0
 11
127.106
 21
57.1486
 31
0.0
  0
LINE
  8
0
 62
     0
 10
127.106
 20
57.1486
 30
0.0
 11
127.106
 21
58.1491
 31
0.0
  0
LINE
  8
0
 62
     0
 10
127.106
 20
58.1491
 30
0.0
 11
113.107
 21
58.1491
 31
0.0
  0
LINE
  8
0
 62
     0
 10
198.832
 20
58.1491
 30
0.0
 11
198.832
 21
57.1486
 31
0.0
  0
LINE
  8
0
 62
     0
 10
198.832
 20
57.1486
 30
0.0
 11
198.033
 21
57.1486
 31
0.0
  0
LINE
  8
0
 62
     0
 10
198.033
 20
57.1486
 30
0.0
 11
198.033
 21
54.0494
 31
0.0
  0
LINE
  8
0
 62
     0
 10
198.033
 20
54.0494
 30
0.0
 11
198.832
 21
54.0494
 31
0.0
  0
LINE
  8
0
 62
     0
 10
198.832
 20
54.0494
 30
0.0
 11
198.832
 21
48.248
 31
0.0
  0
LINE
  8
0
 62
     0
 10
198.832
 20
48.248
 30
0.0
 11
198.033
 21
48.248
 31
0.0
  0
LINE
  8
0
 62
     0
 10
198.033
 20
48.248
 30
0.0
 11
198.033
 21
45.1485
 31
0.0
  0
LINE
  8
0
 62
     0
 10
198.033
 20
45.1485
 30
0.0
 11
198.832
 21
45.1485
 31
0.0
  0
LINE
  8
0
 62
     0
 10
198.832
 20
45.1485
 30
0.0
 11
198.832
 21
44.1484
 31
0.0
  0
LINE
  8
0
 62
     0
 10
198.832
 20
44.1484
 30
0.0
 11
212.831
 21
44.1484
 31
0.0
  0
LINE
  8
0
 62
     0
 10
212.831
 20
44.1484
 30
0.0
 11
212.831
 21
45.1485
 31
0.0
  0
LINE
  8
0
 62
     0
 10
212.831
 20
45.1485
 30
0.0
 11
213.632
 21
45.1485
 31
0.0
  0
LINE
  8
0
 62
     0
 10
213.632
 20
45.1485
 30
0.0
 11
213.632
 21
48.248
 31
0.0
  0
LINE
  8
0
 62
     0
 10
213.632
 20
48.248
 30
0.0
 11
212.831
 21
48.248
 31
0.0
  0
LINE
  8
0
 62
     0
 10
212.831
 20
48.248
 30
0.0
 11
212.831
 21
54.0494
 31
0.0
  0
LINE
  8
0
 62
     0
 10
212.831
 20
54.0494
 30
0.0
 11
213.632
 21
54.0494
 31
0.0
  0
LINE
  8
0
 62
     0
 10
213.632
 20
54.0494
 30
0.0
 11
213.632
 21
57.1486
 31
0.0
  0
LINE
  8
0
 62
     0
 10
213.632
 20
57.1486
 30
0.0
 11
212.831
 21
57.1486
 31
0.0
  0
LINE
  8
0
 62
     0
 10
212.831
 20
57.1486
 30
0.0
 11
212.831
 21
58.1491
 31
0.0
  0
LINE
  8
0
 62
     0
 10
212.831
 20
58.1491
 30
0.0
 11
198.832
 21
58.1491
 31
0.0
  0
LINE
  8
0
 62
     0
 10
29.7629
 20
77.1991
 30
0.0
 11
29.7629
 21
76.1986
 31
0.0
  0
LINE
  8
0
 62
     0
 10
29.7629
 20
76.1986
 30
0.0
 11
28.9622
 21
76.1986
 31
0.0
  0
LINE
  8
0
 62
     0
 10
28.9622
 20
76.1986
 30
0.0
 11
28.9622
 21
73.0994
 31
0.0
  0
LINE
  8
0
 62
     0
 10
28.9622
 20
73.0994
 30
0.0
 11
29.7629
 21
73.0994
 31
0.0
  0
LINE
  8
0
 62
     0
 10
29.7629
 20
73.0994
 30
0.0
 11
29.7629
 21
67.298
 31
0.0
  0
LINE
  8
0
 62
     0
 10
29.7629
 20
67.298
 30
0.0
 11
28.9622
 21
67.298
 31
0.0
  0
LINE
  8
0
 62
     0
 10
28.9622
 20
67.298
 30
0.0
 11
28.9622
 21
64.1985
 31
0.0
  0
LINE
  8
0
 62
     0
 10
28.9622
 20
64.1985
 30
0.0
 11
29.7629
 21
64.1985
 31
0.0
  0
LINE
  8
0
 62
     0
 10
29.7629
 20
64.1985
 30
0.0
 11
29.7629
 21
63.1984
 31
0.0
  0
LINE
  8
0
 62
     0
 10
29.7629
 20
63.1984
 30
0.0
 11
43.7624
 21
63.1984
 31
0.0
  0
LINE
  8
0
 62
     0
 10
43.7624
 20
63.1984
 30
0.0
 11
43.7624
 21
64.1985
 31
0.0
  0
LINE
  8
0
 62
     0
 10
43.7624
 20
64.1985
 30
0.0
 11
44.5629
 21
64.1985
 31
0.0
  0
LINE
  8
0
 62
     0
 10
44.5629
 20
64.1985
 30
0.0
 11
44.5629
 21
67.298
 31
0.0
  0
LINE
  8
0
 62
     0
 10
44.5629
 20
67.298
 30
0.0
 11
43.7624
 21
67.298
 31
0.0
  0
LINE
  8
0
 62
     0
 10
43.7624
 20
67.298
 30
0.0
 11
43.7624
 21
73.0994
 31
0.0
  0
LINE
  8
0
 62
     0
 10
43.7624
 20
73.0994
 30
0.0
 11
44.5629
 21
73.0994
 31
0.0
  0
LINE
  8
0
 62
     0
 10
44.5629
 20
73.0994
 30
0.0
 11
44.5629
 21
76.1986
 31
0.0
  0
LINE
  8
0
 62
     0
 10
44.5629
 20
76.1986
 30
0.0
 11
43.7624
 21
76.1986
 31
0.0
  0
LINE
  8
0
 62
     0
 10
43.7624
 20
76.1986
 30
0.0
 11
43.7624
 21
77.1991
 31
0.0
  0
LINE
  8
0
 62
     0
 10
43.7624
 20
77.1991
 30
0.0
 11
29.7629
 21
77.1991
 31
0.0
  0
LINE
  8
0
 62
     0
 10
51.1941
 20
77.1991
 30
0.0
 11
51.1941
 21
76.1986
 31
0.0
  0
LINE
  8
0
 62
     0
 10
51.1941
 20
76.1986
 30
0.0
 11
50.395
 21
76.1986
 31
0.0
  0
LINE
  8
0
 62
     0
 10
50.395
 20
76.1986
 30
0.0
 11
50.395
 21
73.0994
 31
0.0
  0
LINE
  8
0
 62
     0
 10
50.395
 20
73.0994
 30
0.0
 11
51.1941
 21
73.0994
 31
0.0
  0
LINE
  8
0
 62
     0
 10
51.1941
 20
73.0994
 30
0.0
 11
51.1941
 21
67.298
 31
0.0
  0
LINE
  8
0
 62
     0
 10
51.1941
 20
67.298
 30
0.0
 11
50.395
 21
67.298
 31
0.0
  0
LINE
  8
0
 62
     0
 10
50.395
 20
67.298
 30
0.0
 11
50.395
 21
64.1985
 31
0.0
  0
LINE
  8
0
 62
     0
 10
50.395
 20
64.1985
 30
0.0
 11
51.1941
 21
64.1985
 31
0.0
  0
LINE
  8
0
 62
     0
 10
51.1941
 20
64.1985
 30
0.0
 11
51.1941
 21
63.1984
 31
0.0
  0
LINE
  8
0
 62
     0
 10
51.1941
 20
63.1984
 30
0.0
 11
65.1951
 21
63.1984
 31
0.0
  0
LINE
  8
0
 62
     0
 10
65.1951
 20
63.1984
 30
0.0
 11
65.1951
 21
64.1985
 31
0.0
  0
LINE
  8
0
 62
     0
 10
65.1951
 20
64.1985
 30
0.0
 11
65.9941
 21
64.1985
 31
0.0
  0
LINE
  8
0
 62
     0
 10
65.9941
 20
64.1985
 30
0.0
 11
65.9941
 21
67.298
 31
0.0
  0
LINE
  8
0
 62
     0
 10
65.9941
 20
67.298
 30
0.0
 11
65.1951
 21
67.298
 31
0.0
  0
LINE
  8
0
 62
     0
 10
65.1951
 20
67.298
 30
0.0
 11
65.1951
 21
73.0994
 31
0.0
  0
LINE
  8
0
 62
     0
 10
65.1951
 20
73.0994
 30
0.0
 11
65.9941
 21
73.0994
 31
0.0
  0
LINE
  8
0
 62
     0
 10
65.9941
 20
73.0994
 30
0.0
 11
65.9941
 21
76.1986
 31
0.0
  0
LINE
  8
0
 62
     0
 10
65.9941
 20
76.1986
 30
0.0
 11
65.1951
 21
76.1986
 31
0.0
  0
LINE
  8
0
 62
     0
 10
65.1951
 20
76.1986
 30
0.0
 11
65.1951
 21
77.1991
 31
0.0
  0
LINE
  8
0
 62
     0
 10
65.1951
 20
77.1991
 30
0.0
 11
51.1941
 21
77.1991
 31
0.0
  0
LINE
  8
0
 62
     0
 10
70.2441
 20
77.1991
 30
0.0
 11
70.2441
 21
76.1986
 31
0.0
  0
LINE
  8
0
 62
     0
 10
70.2441
 20
76.1986
 30
0.0
 11
69.445
 21
76.1986
 31
0.0
  0
LINE
  8
0
 62
     0
 10
69.445
 20
76.1986
 30
0.0
 11
69.445
 21
73.0994
 31
0.0
  0
LINE
  8
0
 62
     0
 10
69.445
 20
73.0994
 30
0.0
 11
70.2441
 21
73.0994
 31
0.0
  0
LINE
  8
0
 62
     0
 10
70.2441
 20
73.0994
 30
0.0
 11
70.2441
 21
67.298
 31
0.0
  0
LINE
  8
0
 62
     0
 10
70.2441
 20
67.298
 30
0.0
 11
69.445
 21
67.298
 31
0.0
  0
LINE
  8
0
 62
     0
 10
69.445
 20
67.298
 30
0.0
 11
69.445
 21
64.1985
 31
0.0
  0
LINE
  8
0
 62
     0
 10
69.445
 20
64.1985
 30
0.0
 11
70.2441
 21
64.1985
 31
0.0
  0
LINE
  8
0
 62
     0
 10
70.2441
 20
64.1985
 30
0.0
 11
70.2441
 21
63.1984
 31
0.0
  0
LINE
  8
0
 62
     0
 10
70.2441
 20
63.1984
 30
0.0
 11
84.2451
 21
63.1984
 31
0.0
  0
LINE
  8
0
 62
     0
 10
84.2451
 20
63.1984
 30
0.0
 11
84.2451
 21
64.1985
 31
0.0
  0
LINE
  8
0
 62
     0
 10
84.2451
 20
64.1985
 30
0.0
 11
85.0441
 21
64.1985
 31
0.0
  0
LINE
  8
0
 62
     0
 10
85.0441
 20
64.1985
 30
0.0
 11
85.0441
 21
67.298
 31
0.0
  0
LINE
  8
0
 62
     0
 10
85.0441
 20
67.298
 30
0.0
 11
84.2451
 21
67.298
 31
0.0
  0
LINE
  8
0
 62
     0
 10
84.2451
 20
67.298
 30
0.0
 11
84.2451
 21
73.0994
 31
0.0
  0
LINE
  8
0
 62
     0
 10
84.2451
 20
73.0994
 30
0.0
 11
85.0441
 21
73.0994
 31
0.0
  0
LINE
  8
0
 62
     0
 10
85.0441
 20
73.0994
 30
0.0
 11
85.0441
 21
76.1986
 31
0.0
  0
LINE
  8
0
 62
     0
 10
85.0441
 20
76.1986
 30
0.0
 11
84.2451
 21
76.1986
 31
0.0
  0
LINE
  8
0
 62
     0
 10
84.2451
 20
76.1986
 30
0.0
 11
84.2451
 21
77.1991
 31
0.0
  0
LINE
  8
0
 62
     0
 10
84.2451
 20
77.1991
 30
0.0
 11
70.2441
 21
77.1991
 31
0.0
  0
LINE
  8
0
 62
     0
 10
89.2941
 20
77.1991
 30
0.0
 11
89.2941
 21
76.1986
 31
0.0
  0
LINE
  8
0
 62
     0
 10
89.2941
 20
76.1986
 30
0.0
 11
88.495
 21
76.1986
 31
0.0
  0
LINE
  8
0
 62
     0
 10
88.495
 20
76.1986
 30
0.0
 11
88.495
 21
73.0994
 31
0.0
  0
LINE
  8
0
 62
     0
 10
88.495
 20
73.0994
 30
0.0
 11
89.2941
 21
73.0994
 31
0.0
  0
LINE
  8
0
 62
     0
 10
89.2941
 20
73.0994
 30
0.0
 11
89.2941
 21
67.298
 31
0.0
  0
LINE
  8
0
 62
     0
 10
89.2941
 20
67.298
 30
0.0
 11
88.495
 21
67.298
 31
0.0
  0
LINE
  8
0
 62
     0
 10
88.495
 20
67.298
 30
0.0
 11
88.495
 21
64.1985
 31
0.0
  0
LINE
  8
0
 62
     0
 10
88.495
 20
64.1985
 30
0.0
 11
89.2941
 21
64.1985
 31
0.0
  0
LINE
  8
0
 62
     0
 10
89.2941
 20
64.1985
 30
0.0
 11
89.2941
 21
63.1984
 31
0.0
  0
LINE
  8
0
 62
     0
 10
89.2941
 20
63.1984
 30
0.0
 11
103.295
 21
63.1984
 31
0.0
  0
LINE
  8
0
 62
     0
 10
103.295
 20
63.1984
 30
0.0
 11
103.295
 21
64.1985
 31
0.0
  0
LINE
  8
0
 62
     0
 10
103.295
 20
64.1985
 30
0.0
 11
104.094
 21
64.1985
 31
0.0
  0
LINE
  8
0
 62
     0
 10
104.094
 20
64.1985
 30
0.0
 11
104.094
 21
67.298
 31
0.0
  0
LINE
  8
0
 62
     0
 10
104.094
 20
67.298
 30
0.0
 11
103.295
 21
67.298
 31
0.0
  0
LINE
  8
0
 62
     0
 10
103.295
 20
67.298
 30
0.0
 11
103.295
 21
73.0994
 31
0.0
  0
LINE
  8
0
 62
     0
 10
103.295
 20
73.0994
 30
0.0
 11
104.094
 21
73.0994
 31
0.0
  0
LINE
  8
0
 62
     0
 10
104.094
 20
73.0994
 30
0.0
 11
104.094
 21
76.1986
 31
0.0
  0
LINE
  8
0
 62
     0
 10
104.094
 20
76.1986
 30
0.0
 11
103.295
 21
76.1986
 31
0.0
  0
LINE
  8
0
 62
     0
 10
103.295
 20
76.1986
 30
0.0
 11
103.295
 21
77.1991
 31
0.0
  0
LINE
  8
0
 62
     0
 10
103.295
 20
77.1991
 30
0.0
 11
89.2941
 21
77.1991
 31
0.0
  0
LINE
  8
0
 62
     0
 10
108.344
 20
77.1991
 30
0.0
 11
108.344
 21
76.1986
 31
0.0
  0
LINE
  8
0
 62
     0
 10
108.344
 20
76.1986
 30
0.0
 11
107.545
 21
76.1986
 31
0.0
  0
LINE
  8
0
 62
     0
 10
107.545
 20
76.1986
 30
0.0
 11
107.545
 21
73.0994
 31
0.0
  0
LINE
  8
0
 62
     0
 10
107.545
 20
73.0994
 30
0.0
 11
108.344
 21
73.0994
 31
0.0
  0
LINE
  8
0
 62
     0
 10
108.344
 20
73.0994
 30
0.0
 11
108.344
 21
67.298
 31
0.0
  0
LINE
  8
0
 62
     0
 10
108.344
 20
67.298
 30
0.0
 11
107.545
 21
67.298
 31
0.0
  0
LINE
  8
0
 62
     0
 10
107.545
 20
67.298
 30
0.0
 11
107.545
 21
64.1985
 31
0.0
  0
LINE
  8
0
 62
     0
 10
107.545
 20
64.1985
 30
0.0
 11
108.344
 21
64.1985
 31
0.0
  0
LINE
  8
0
 62
     0
 10
108.344
 20
64.1985
 30
0.0
 11
108.344
 21
63.1984
 31
0.0
  0
LINE
  8
0
 62
     0
 10
108.344
 20
63.1984
 30
0.0
 11
122.345
 21
63.1984
 31
0.0
  0
LINE
  8
0
 62
     0
 10
122.345
 20
63.1984
 30
0.0
 11
122.345
 21
64.1985
 31
0.0
  0
LINE
  8
0
 62
     0
 10
122.345
 20
64.1985
 30
0.0
 11
123.144
 21
64.1985
 31
0.0
  0
LINE
  8
0
 62
     0
 10
123.144
 20
64.1985
 30
0.0
 11
123.144
 21
67.298
 31
0.0
  0
LINE
  8
0
 62
     0
 10
123.144
 20
67.298
 30
0.0
 11
122.345
 21
67.298
 31
0.0
  0
LINE
  8
0
 62
     0
 10
122.345
 20
67.298
 30
0.0
 11
122.345
 21
73.0994
 31
0.0
  0
LINE
  8
0
 62
     0
 10
122.345
 20
73.0994
 30
0.0
 11
123.144
 21
73.0994
 31
0.0
  0
LINE
  8
0
 62
     0
 10
123.144
 20
73.0994
 30
0.0
 11
123.144
 21
76.1986
 31
0.0
  0
LINE
  8
0
 62
     0
 10
123.144
 20
76.1986
 30
0.0
 11
122.345
 21
76.1986
 31
0.0
  0
LINE
  8
0
 62
     0
 10
122.345
 20
76.1986
 30
0.0
 11
122.345
 21
77.1991
 31
0.0
  0
LINE
  8
0
 62
     0
 10
122.345
 20
77.1991
 30
0.0
 11
108.344
 21
77.1991
 31
0.0
  0
LINE
  8
0
 62
     0
 10
127.394
 20
77.1991
 30
0.0
 11
127.394
 21
76.1986
 31
0.0
  0
LINE
  8
0
 62
     0
 10
127.394
 20
76.1986
 30
0.0
 11
126.595
 21
76.1986
 31
0.0
  0
LINE
  8
0
 62
     0
 10
126.595
 20
76.1986
 30
0.0
 11
126.595
 21
73.0994
 31
0.0
  0
LINE
  8
0
 62
     0
 10
126.595
 20
73.0994
 30
0.0
 11
127.394
 21
73.0994
 31
0.0
  0
LINE
  8
0
 62
     0
 10
127.394
 20
73.0994
 30
0.0
 11
127.394
 21
67.298
 31
0.0
  0
LINE
  8
0
 62
     0
 10
127.394
 20
67.298
 30
0.0
 11
126.595
 21
67.298
 31
0.0
  0
LINE
  8
0
 62
     0
 10
126.595
 20
67.298
 30
0.0
 11
126.595
 21
64.1985
 31
0.0
  0
LINE
  8
0
 62
     0
 10
126.595
 20
64.1985
 30
0.0
 11
127.394
 21
64.1985
 31
0.0
  0
LINE
  8
0
 62
     0
 10
127.394
 20
64.1985
 30
0.0
 11
127.394
 21
63.1984
 31
0.0
  0
LINE
  8
0
 62
     0
 10
127.394
 20
63.1984
 30
0.0
 11
141.395
 21
63.1984
 31
0.0
  0
LINE
  8
0
 62
     0
 10
141.395
 20
63.1984
 30
0.0
 11
141.395
 21
64.1985
 31
0.0
  0
LINE
  8
0
 62
     0
 10
141.395
 20
64.1985
 30
0.0
 11
142.194
 21
64.1985
 31
0.0
  0
LINE
  8
0
 62
     0
 10
142.194
 20
64.1985
 30
0.0
 11
142.194
 21
67.298
 31
0.0
  0
LINE
  8
0
 62
     0
 10
142.194
 20
67.298
 30
0.0
 11
141.395
 21
67.298
 31
0.0
  0
LINE
  8
0
 62
     0
 10
141.395
 20
67.298
 30
0.0
 11
141.395
 21
73.0994
 31
0.0
  0
LINE
  8
0
 62
     0
 10
141.395
 20
73.0994
 30
0.0
 11
142.194
 21
73.0994
 31
0.0
  0
LINE
  8
0
 62
     0
 10
142.194
 20
73.0994
 30
0.0
 11
142.194
 21
76.1986
 31
0.0
  0
LINE
  8
0
 62
     0
 10
142.194
 20
76.1986
 30
0.0
 11
141.395
 21
76.1986
 31
0.0
  0
LINE
  8
0
 62
     0
 10
141.395
 20
76.1986
 30
0.0
 11
141.395
 21
77.1991
 31
0.0
  0
LINE
  8
0
 62
     0
 10
141.395
 20
77.1991
 30
0.0
 11
127.394
 21
77.1991
 31
0.0
  0
LINE
  8
0
 62
     0
 10
153.588
 20
77.1991
 30
0.0
 11
153.588
 21
76.1986
 31
0.0
  0
LINE
  8
0
 62
     0
 10
153.588
 20
76.1986
 30
0.0
 11
152.787
 21
76.1986
 31
0.0
  0
LINE
  8
0
 62
     0
 10
152.787
 20
76.1986
 30
0.0
 11
152.787
 21
73.0994
 31
0.0
  0
LINE
  8
0
 62
     0
 10
152.787
 20
73.0994
 30
0.0
 11
153.588
 21
73.0994
 31
0.0
  0
LINE
  8
0
 62
     0
 10
153.588
 20
73.0994
 30
0.0
 11
153.588
 21
67.298
 31
0.0
  0
LINE
  8
0
 62
     0
 10
153.588
 20
67.298
 30
0.0
 11
152.787
 21
67.298
 31
0.0
  0
LINE
  8
0
 62
     0
 10
152.787
 20
67.298
 30
0.0
 11
152.787
 21
64.1985
 31
0.0
  0
LINE
  8
0
 62
     0
 10
152.787
 20
64.1985
 30
0.0
 11
153.588
 21
64.1985
 31
0.0
  0
LINE
  8
0
 62
     0
 10
153.588
 20
64.1985
 30
0.0
 11
153.588
 21
63.1984
 31
0.0
  0
LINE
  8
0
 62
     0
 10
153.588
 20
63.1984
 30
0.0
 11
167.587
 21
63.1984
 31
0.0
  0
LINE
  8
0
 62
     0
 10
167.587
 20
63.1984
 30
0.0
 11
167.587
 21
64.1985
 31
0.0
  0
LINE
  8
0
 62
     0
 10
167.587
 20
64.1985
 30
0.0
 11
168.388
 21
64.1985
 31
0.0
  0
LINE
  8
0
 62
     0
 10
168.388
 20
64.1985
 30
0.0
 11
168.388
 21
67.298
 31
0.0
  0
LINE
  8
0
 62
     0
 10
168.388
 20
67.298
 30
0.0
 11
167.587
 21
67.298
 31
0.0
  0
LINE
  8
0
 62
     0
 10
167.587
 20
67.298
 30
0.0
 11
167.587
 21
73.0994
 31
0.0
  0
LINE
  8
0
 62
     0
 10
167.587
 20
73.0994
 30
0.0
 11
168.388
 21
73.0994
 31
0.0
  0
LINE
  8
0
 62
     0
 10
168.388
 20
73.0994
 30
0.0
 11
168.388
 21
76.1986
 31
0.0
  0
LINE
  8
0
 62
     0
 10
168.388
 20
76.1986
 30
0.0
 11
167.587
 21
76.1986
 31
0.0
  0
LINE
  8
0
 62
     0
 10
167.587
 20
76.1986
 30
0.0
 11
167.587
 21
77.1991
 31
0.0
  0
LINE
  8
0
 62
     0
 10
167.587
 20
77.1991
 30
0.0
 11
153.588
 21
77.1991
 31
0.0
  0
LINE
  8
0
 62
     0
 10
198.832
 20
77.1991
 30
0.0
 11
198.832
 21
76.1986
 31
0.0
  0
LINE
  8
0
 62
     0
 10
198.832
 20
76.1986
 30
0.0
 11
198.033
 21
76.1986
 31
0.0
  0
LINE
  8
0
 62
     0
 10
198.033
 20
76.1986
 30
0.0
 11
198.033
 21
73.0994
 31
0.0
  0
LINE
  8
0
 62
     0
 10
198.033
 20
73.0994
 30
0.0
 11
198.832
 21
73.0994
 31
0.0
  0
LINE
  8
0
 62
     0
 10
198.832
 20
73.0994
 30
0.0
 11
198.832
 21
67.298
 31
0.0
  0
LINE
  8
0
 62
     0
 10
198.832
 20
67.298
 30
0.0
 11
198.033
 21
67.298
 31
0.0
  0
LINE
  8
0
 62
     0
 10
198.033
 20
67.298
 30
0.0
 11
198.033
 21
64.1985
 31
0.0
  0
LINE
  8
0
 62
     0
 10
198.033
 20
64.1985
 30
0.0
 11
198.832
 21
64.1985
 31
0.0
  0
LINE
  8
0
 62
     0
 10
198.832
 20
64.1985
 30
0.0
 11
198.832
 21
63.1984
 31
0.0
  0
LINE
  8
0
 62
     0
 10
198.832
 20
63.1984
 30
0.0
 11
212.831
 21
63.1984
 31
0.0
  0
LINE
  8
0
 62
     0
 10
212.831
 20
63.1984
 30
0.0
 11
212.831
 21
64.1985
 31
0.0
  0
LINE
  8
0
 62
     0
 10
212.831
 20
64.1985
 30
0.0
 11
213.632
 21
64.1985
 31
0.0
  0
LINE
  8
0
 62
     0
 10
213.632
 20
64.1985
 30
0.0
 11
213.632
 21
67.298
 31
0.0
  0
LINE
  8
0
 62
     0
 10
213.632
 20
67.298
 30
0.0
 11
212.831
 21
67.298
 31
0.0
  0
LINE
  8
0
 62
     0
 10
212.831
 20
67.298
 30
0.0
 11
212.831
 21
73.0994
 31
0.0
  0
LINE
  8
0
 62
     0
 10
212.831
 20
73.0994
 30
0.0
 11
213.632
 21
73.0994
 31
0.0
  0
LINE
  8
0
 62
     0
 10
213.632
 20
73.0994
 30
0.0
 11
213.632
 21
76.1986
 31
0.0
  0
LINE
  8
0
 62
     0
 10
213.632
 20
76.1986
 30
0.0
 11
212.831
 21
76.1986
 31
0.0
  0
LINE
  8
0
 62
     0
 10
212.831
 20
76.1986
 30
0.0
 11
212.831
 21
77.1991
 31
0.0
  0
LINE
  8
0
 62
     0
 10
212.831
 20
77.1991
 30
0.0
 11
198.832
 21
77.1991
 31
0.0
  0
LINE
  8
0
 62
     0
 10
27.3816
 20
96.2491
 30
0.0
 11
27.3816
 21
95.2486
 31
0.0
  0
LINE
  8
0
 62
     0
 10
27.3816
 20
95.2486
 30
0.0
 11
26.5824
 21
95.2486
 31
0.0
  0
LINE
  8
0
 62
     0
 10
26.5824
 20
95.2486
 30
0.0
 11
26.5824
 21
92.148
 31
0.0
  0
LINE
  8
0
 62
     0
 10
26.5824
 20
92.148
 30
0.0
 11
27.3816
 21
92.148
 31
0.0
  0
LINE
  8
0
 62
     0
 10
27.3816
 20
92.148
 30
0.0
 11
27.3816
 21
86.348
 31
0.0
  0
LINE
  8
0
 62
     0
 10
27.3816
 20
86.348
 30
0.0
 11
26.5824
 21
86.348
 31
0.0
  0
LINE
  8
0
 62
     0
 10
26.5824
 20
86.348
 30
0.0
 11
26.5824
 21
83.2485
 31
0.0
  0
LINE
  8
0
 62
     0
 10
26.5824
 20
83.2485
 30
0.0
 11
27.3816
 21
83.2485
 31
0.0
  0
LINE
  8
0
 62
     0
 10
27.3816
 20
83.2485
 30
0.0
 11
27.3816
 21
82.2484
 31
0.0
  0
LINE
  8
0
 62
     0
 10
27.3816
 20
82.2484
 30
0.0
 11
41.3812
 21
82.2484
 31
0.0
  0
LINE
  8
0
 62
     0
 10
41.3812
 20
82.2484
 30
0.0
 11
41.3812
 21
83.2485
 31
0.0
  0
LINE
  8
0
 62
     0
 10
41.3812
 20
83.2485
 30
0.0
 11
42.1816
 21
83.2485
 31
0.0
  0
LINE
  8
0
 62
     0
 10
42.1816
 20
83.2485
 30
0.0
 11
42.1816
 21
86.348
 31
0.0
  0
LINE
  8
0
 62
     0
 10
42.1816
 20
86.348
 30
0.0
 11
41.3812
 21
86.348
 31
0.0
  0
LINE
  8
0
 62
     0
 10
41.3812
 20
86.348
 30
0.0
 11
41.3812
 21
92.148
 31
0.0
  0
LINE
  8
0
 62
     0
 10
41.3812
 20
92.148
 30
0.0
 11
42.1816
 21
92.148
 31
0.0
  0
LINE
  8
0
 62
     0
 10
42.1816
 20
92.148
 30
0.0
 11
42.1816
 21
95.2486
 31
0.0
  0
LINE
  8
0
 62
     0
 10
42.1816
 20
95.2486
 30
0.0
 11
41.3812
 21
95.2486
 31
0.0
  0
LINE
  8
0
 62
     0
 10
41.3812
 20
95.2486
 30
0.0
 11
41.3812
 21
96.2491
 31
0.0
  0
LINE
  8
0
 62
     0
 10
41.3812
 20
96.2491
 30
0.0
 11
27.3816
 21
96.2491
 31
0.0
  0
LINE
  8
0
 62
     0
 10
46.4316
 20
96.2491
 30
0.0
 11
46.4316
 21
95.2486
 31
0.0
  0
LINE
  8
0
 62
     0
 10
46.4316
 20
95.2486
 30
0.0
 11
45.6325
 21
95.2486
 31
0.0
  0
LINE
  8
0
 62
     0
 10
45.6325
 20
95.2486
 30
0.0
 11
45.6325
 21
92.148
 31
0.0
  0
LINE
  8
0
 62
     0
 10
45.6325
 20
92.148
 30
0.0
 11
46.4316
 21
92.148
 31
0.0
  0
LINE
  8
0
 62
     0
 10
46.4316
 20
92.148
 30
0.0
 11
46.4316
 21
86.348
 31
0.0
  0
LINE
  8
0
 62
     0
 10
46.4316
 20
86.348
 30
0.0
 11
45.6325
 21
86.348
 31
0.0
  0
LINE
  8
0
 62
     0
 10
45.6325
 20
86.348
 30
0.0
 11
45.6325
 21
83.2485
 31
0.0
  0
LINE
  8
0
 62
     0
 10
45.6325
 20
83.2485
 30
0.0
 11
46.4316
 21
83.2485
 31
0.0
  0
LINE
  8
0
 62
     0
 10
46.4316
 20
83.2485
 30
0.0
 11
46.4316
 21
82.2484
 31
0.0
  0
LINE
  8
0
 62
     0
 10
46.4316
 20
82.2484
 30
0.0
 11
60.4312
 21
82.2484
 31
0.0
  0
LINE
  8
0
 62
     0
 10
60.4312
 20
82.2484
 30
0.0
 11
60.4312
 21
83.2485
 31
0.0
  0
LINE
  8
0
 62
     0
 10
60.4312
 20
83.2485
 30
0.0
 11
61.2316
 21
83.2485
 31
0.0
  0
LINE
  8
0
 62
     0
 10
61.2316
 20
83.2485
 30
0.0
 11
61.2316
 21
86.348
 31
0.0
  0
LINE
  8
0
 62
     0
 10
61.2316
 20
86.348
 30
0.0
 11
60.4312
 21
86.348
 31
0.0
  0
LINE
  8
0
 62
     0
 10
60.4312
 20
86.348
 30
0.0
 11
60.4312
 21
92.148
 31
0.0
  0
LINE
  8
0
 62
     0
 10
60.4312
 20
92.148
 30
0.0
 11
61.2316
 21
92.148
 31
0.0
  0
LINE
  8
0
 62
     0
 10
61.2316
 20
92.148
 30
0.0
 11
61.2316
 21
95.2486
 31
0.0
  0
LINE
  8
0
 62
     0
 10
61.2316
 20
95.2486
 30
0.0
 11
60.4312
 21
95.2486
 31
0.0
  0
LINE
  8
0
 62
     0
 10
60.4312
 20
95.2486
 30
0.0
 11
60.4312
 21
96.2491
 31
0.0
  0
LINE
  8
0
 62
     0
 10
60.4312
 20
96.2491
 30
0.0
 11
46.4316
 21
96.2491
 31
0.0
  0
LINE
  8
0
 62
     0
 10
65.4816
 20
96.2491
 30
0.0
 11
65.4816
 21
95.2486
 31
0.0
  0
LINE
  8
0
 62
     0
 10
65.4816
 20
95.2486
 30
0.0
 11
64.6825
 21
95.2486
 31
0.0
  0
LINE
  8
0
 62
     0
 10
64.6825
 20
95.2486
 30
0.0
 11
64.6825
 21
92.148
 31
0.0
  0
LINE
  8
0
 62
     0
 10
64.6825
 20
92.148
 30
0.0
 11
65.4816
 21
92.148
 31
0.0
  0
LINE
  8
0
 62
     0
 10
65.4816
 20
92.148
 30
0.0
 11
65.4816
 21
86.348
 31
0.0
  0
LINE
  8
0
 62
     0
 10
65.4816
 20
86.348
 30
0.0
 11
64.6825
 21
86.348
 31
0.0
  0
LINE
  8
0
 62
     0
 10
64.6825
 20
86.348
 30
0.0
 11
64.6825
 21
83.2485
 31
0.0
  0
LINE
  8
0
 62
     0
 10
64.6825
 20
83.2485
 30
0.0
 11
65.4816
 21
83.2485
 31
0.0
  0
LINE
  8
0
 62
     0
 10
65.4816
 20
83.2485
 30
0.0
 11
65.4816
 21
82.2484
 31
0.0
  0
LINE
  8
0
 62
     0
 10
65.4816
 20
82.2484
 30
0.0
 11
79.4812
 21
82.2484
 31
0.0
  0
LINE
  8
0
 62
     0
 10
79.4812
 20
82.2484
 30
0.0
 11
79.4812
 21
83.2485
 31
0.0
  0
LINE
  8
0
 62
     0
 10
79.4812
 20
83.2485
 30
0.0
 11
80.2816
 21
83.2485
 31
0.0
  0
LINE
  8
0
 62
     0
 10
80.2816
 20
83.2485
 30
0.0
 11
80.2816
 21
86.348
 31
0.0
  0
LINE
  8
0
 62
     0
 10
80.2816
 20
86.348
 30
0.0
 11
79.4812
 21
86.348
 31
0.0
  0
LINE
  8
0
 62
     0
 10
79.4812
 20
86.348
 30
0.0
 11
79.4812
 21
92.148
 31
0.0
  0
LINE
  8
0
 62
     0
 10
79.4812
 20
92.148
 30
0.0
 11
80.2816
 21
92.148
 31
0.0
  0
LINE
  8
0
 62
     0
 10
80.2816
 20
92.148
 30
0.0
 11
80.2816
 21
95.2486
 31
0.0
  0
LINE
  8
0
 62
     0
 10
80.2816
 20
95.2486
 30
0.0
 11
79.4812
 21
95.2486
 31
0.0
  0
LINE
  8
0
 62
     0
 10
79.4812
 20
95.2486
 30
0.0
 11
79.4812
 21
96.2491
 31
0.0
  0
LINE
  8
0
 62
     0
 10
79.4812
 20
96.2491
 30
0.0
 11
65.4816
 21
96.2491
 31
0.0
  0
LINE
  8
0
 62
     0
 10
84.5316
 20
96.2491
 30
0.0
 11
84.5316
 21
95.2486
 31
0.0
  0
LINE
  8
0
 62
     0
 10
84.5316
 20
95.2486
 30
0.0
 11
83.7325
 21
95.2486
 31
0.0
  0
LINE
  8
0
 62
     0
 10
83.7325
 20
95.2486
 30
0.0
 11
83.7325
 21
92.148
 31
0.0
  0
LINE
  8
0
 62
     0
 10
83.7325
 20
92.148
 30
0.0
 11
84.5316
 21
92.148
 31
0.0
  0
LINE
  8
0
 62
     0
 10
84.5316
 20
92.148
 30
0.0
 11
84.5316
 21
86.348
 31
0.0
  0
LINE
  8
0
 62
     0
 10
84.5316
 20
86.348
 30
0.0
 11
83.7325
 21
86.348
 31
0.0
  0
LINE
  8
0
 62
     0
 10
83.7325
 20
86.348
 30
0.0
 11
83.7325
 21
83.2485
 31
0.0
  0
LINE
  8
0
 62
     0
 10
83.7325
 20
83.2485
 30
0.0
 11
84.5316
 21
83.2485
 31
0.0
  0
LINE
  8
0
 62
     0
 10
84.5316
 20
83.2485
 30
0.0
 11
84.5316
 21
82.2484
 31
0.0
  0
LINE
  8
0
 62
     0
 10
84.5316
 20
82.2484
 30
0.0
 11
98.5312
 21
82.2484
 31
0.0
  0
LINE
  8
0
 62
     0
 10
98.5312
 20
82.2484
 30
0.0
 11
98.5312
 21
83.2485
 31
0.0
  0
LINE
  8
0
 62
     0
 10
98.5312
 20
83.2485
 30
0.0
 11
99.3316
 21
83.2485
 31
0.0
  0
LINE
  8
0
 62
     0
 10
99.3316
 20
83.2485
 30
0.0
 11
99.3316
 21
86.348
 31
0.0
  0
LINE
  8
0
 62
     0
 10
99.3316
 20
86.348
 30
0.0
 11
98.5312
 21
86.348
 31
0.0
  0
LINE
  8
0
 62
     0
 10
98.5312
 20
86.348
 30
0.0
 11
98.5312
 21
92.148
 31
0.0
  0
LINE
  8
0
 62
     0
 10
98.5312
 20
92.148
 30
0.0
 11
99.3316
 21
92.148
 31
0.0
  0
LINE
  8
0
 62
     0
 10
99.3316
 20
92.148
 30
0.0
 11
99.3316
 21
95.2486
 31
0.0
  0
LINE
  8
0
 62
     0
 10
99.3316
 20
95.2486
 30
0.0
 11
98.5312
 21
95.2486
 31
0.0
  0
LINE
  8
0
 62
     0
 10
98.5312
 20
95.2486
 30
0.0
 11
98.5312
 21
96.2491
 31
0.0
  0
LINE
  8
0
 62
     0
 10
98.5312
 20
96.2491
 30
0.0
 11
84.5316
 21
96.2491
 31
0.0
  0
LINE
  8
0
 62
     0
 10
103.582
 20
96.2491
 30
0.0
 11
103.582
 21
95.2486
 31
0.0
  0
LINE
  8
0
 62
     0
 10
103.582
 20
95.2486
 30
0.0
 11
102.783
 21
95.2486
 31
0.0
  0
LINE
  8
0
 62
     0
 10
102.783
 20
95.2486
 30
0.0
 11
102.783
 21
92.148
 31
0.0
  0
LINE
  8
0
 62
     0
 10
102.783
 20
92.148
 30
0.0
 11
103.582
 21
92.148
 31
0.0
  0
LINE
  8
0
 62
     0
 10
103.582
 20
92.148
 30
0.0
 11
103.582
 21
86.348
 31
0.0
  0
LINE
  8
0
 62
     0
 10
103.582
 20
86.348
 30
0.0
 11
102.783
 21
86.348
 31
0.0
  0
LINE
  8
0
 62
     0
 10
102.783
 20
86.348
 30
0.0
 11
102.783
 21
83.2485
 31
0.0
  0
LINE
  8
0
 62
     0
 10
102.783
 20
83.2485
 30
0.0
 11
103.582
 21
83.2485
 31
0.0
  0
LINE
  8
0
 62
     0
 10
103.582
 20
83.2485
 30
0.0
 11
103.582
 21
82.2484
 31
0.0
  0
LINE
  8
0
 62
     0
 10
103.582
 20
82.2484
 30
0.0
 11
117.581
 21
82.2484
 31
0.0
  0
LINE
  8
0
 62
     0
 10
117.581
 20
82.2484
 30
0.0
 11
117.581
 21
83.2485
 31
0.0
  0
LINE
  8
0
 62
     0
 10
117.581
 20
83.2485
 30
0.0
 11
118.382
 21
83.2485
 31
0.0
  0
LINE
  8
0
 62
     0
 10
118.382
 20
83.2485
 30
0.0
 11
118.382
 21
86.348
 31
0.0
  0
LINE
  8
0
 62
     0
 10
118.382
 20
86.348
 30
0.0
 11
117.581
 21
86.348
 31
0.0
  0
LINE
  8
0
 62
     0
 10
117.581
 20
86.348
 30
0.0
 11
117.581
 21
92.148
 31
0.0
  0
LINE
  8
0
 62
     0
 10
117.581
 20
92.148
 30
0.0
 11
118.382
 21
92.148
 31
0.0
  0
LINE
  8
0
 62
     0
 10
118.382
 20
92.148
 30
0.0
 11
118.382
 21
95.2486
 31
0.0
  0
LINE
  8
0
 62
     0
 10
118.382
 20
95.2486
 30
0.0
 11
117.581
 21
95.2486
 31
0.0
  0
LINE
  8
0
 62
     0
 10
117.581
 20
95.2486
 30
0.0
 11
117.581
 21
96.2491
 31
0.0
  0
LINE
  8
0
 62
     0
 10
117.581
 20
96.2491
 30
0.0
 11
103.582
 21
96.2491
 31
0.0
  0
LINE
  8
0
 62
     0
 10
122.632
 20
96.2491
 30
0.0
 11
122.632
 21
95.2486
 31
0.0
  0
LINE
  8
0
 62
     0
 10
122.632
 20
95.2486
 30
0.0
 11
121.833
 21
95.2486
 31
0.0
  0
LINE
  8
0
 62
     0
 10
121.833
 20
95.2486
 30
0.0
 11
121.833
 21
92.148
 31
0.0
  0
LINE
  8
0
 62
     0
 10
121.833
 20
92.148
 30
0.0
 11
122.632
 21
92.148
 31
0.0
  0
LINE
  8
0
 62
     0
 10
122.632
 20
92.148
 30
0.0
 11
122.632
 21
86.348
 31
0.0
  0
LINE
  8
0
 62
     0
 10
122.632
 20
86.348
 30
0.0
 11
121.833
 21
86.348
 31
0.0
  0
LINE
  8
0
 62
     0
 10
121.833
 20
86.348
 30
0.0
 11
121.833
 21
83.2485
 31
0.0
  0
LINE
  8
0
 62
     0
 10
121.833
 20
83.2485
 30
0.0
 11
122.632
 21
83.2485
 31
0.0
  0
LINE
  8
0
 62
     0
 10
122.632
 20
83.2485
 30
0.0
 11
122.632
 21
82.2484
 31
0.0
  0
LINE
  8
0
 62
     0
 10
122.632
 20
82.2484
 30
0.0
 11
136.631
 21
82.2484
 31
0.0
  0
LINE
  8
0
 62
     0
 10
136.631
 20
82.2484
 30
0.0
 11
136.631
 21
83.2485
 31
0.0
  0
LINE
  8
0
 62
     0
 10
136.631
 20
83.2485
 30
0.0
 11
137.432
 21
83.2485
 31
0.0
  0
LINE
  8
0
 62
     0
 10
137.432
 20
83.2485
 30
0.0
 11
137.432
 21
86.348
 31
0.0
  0
LINE
  8
0
 62
     0
 10
137.432
 20
86.348
 30
0.0
 11
136.631
 21
86.348
 31
0.0
  0
LINE
  8
0
 62
     0
 10
136.631
 20
86.348
 30
0.0
 11
136.631
 21
92.148
 31
0.0
  0
LINE
  8
0
 62
     0
 10
136.631
 20
92.148
 30
0.0
 11
137.432
 21
92.148
 31
0.0
  0
LINE
  8
0
 62
     0
 10
137.432
 20
92.148
 30
0.0
 11
137.432
 21
95.2486
 31
0.0
  0
LINE
  8
0
 62
     0
 10
137.432
 20
95.2486
 30
0.0
 11
136.631
 21
95.2486
 31
0.0
  0
LINE
  8
0
 62
     0
 10
136.631
 20
95.2486
 30
0.0
 11
136.631
 21
96.2491
 31
0.0
  0
LINE
  8
0
 62
     0
 10
136.631
 20
96.2491
 30
0.0
 11
122.632
 21
96.2491
 31
0.0
  0
LINE
  8
0
 62
     0
 10
141.682
 20
96.2491
 30
0.0
 11
141.682
 21
95.2486
 31
0.0
  0
LINE
  8
0
 62
     0
 10
141.682
 20
95.2486
 30
0.0
 11
140.883
 21
95.2486
 31
0.0
  0
LINE
  8
0
 62
     0
 10
140.883
 20
95.2486
 30
0.0
 11
140.883
 21
92.148
 31
0.0
  0
LINE
  8
0
 62
     0
 10
140.883
 20
92.148
 30
0.0
 11
141.682
 21
92.148
 31
0.0
  0
LINE
  8
0
 62
     0
 10
141.682
 20
92.148
 30
0.0
 11
141.682
 21
86.348
 31
0.0
  0
LINE
  8
0
 62
     0
 10
141.682
 20
86.348
 30
0.0
 11
140.883
 21
86.348
 31
0.0
  0
LINE
  8
0
 62
     0
 10
140.883
 20
86.348
 30
0.0
 11
140.883
 21
83.2485
 31
0.0
  0
LINE
  8
0
 62
     0
 10
140.883
 20
83.2485
 30
0.0
 11
141.682
 21
83.2485
 31
0.0
  0
LINE
  8
0
 62
     0
 10
141.682
 20
83.2485
 30
0.0
 11
141.682
 21
82.2484
 31
0.0
  0
LINE
  8
0
 62
     0
 10
141.682
 20
82.2484
 30
0.0
 11
155.681
 21
82.2484
 31
0.0
  0
LINE
  8
0
 62
     0
 10
155.681
 20
82.2484
 30
0.0
 11
155.681
 21
83.2485
 31
0.0
  0
LINE
  8
0
 62
     0
 10
155.681
 20
83.2485
 30
0.0
 11
156.482
 21
83.2485
 31
0.0
  0
LINE
  8
0
 62
     0
 10
156.482
 20
83.2485
 30
0.0
 11
156.482
 21
86.348
 31
0.0
  0
LINE
  8
0
 62
     0
 10
156.482
 20
86.348
 30
0.0
 11
155.681
 21
86.348
 31
0.0
  0
LINE
  8
0
 62
     0
 10
155.681
 20
86.348
 30
0.0
 11
155.681
 21
92.148
 31
0.0
  0
LINE
  8
0
 62
     0
 10
155.681
 20
92.148
 30
0.0
 11
156.482
 21
92.148
 31
0.0
  0
LINE
  8
0
 62
     0
 10
156.482
 20
92.148
 30
0.0
 11
156.482
 21
95.2486
 31
0.0
  0
LINE
  8
0
 62
     0
 10
156.482
 20
95.2486
 30
0.0
 11
155.681
 21
95.2486
 31
0.0
  0
LINE
  8
0
 62
     0
 10
155.681
 20
95.2486
 30
0.0
 11
155.681
 21
96.2491
 31
0.0
  0
LINE
  8
0
 62
     0
 10
155.681
 20
96.2491
 30
0.0
 11
141.682
 21
96.2491
 31
0.0
  0
LINE
  8
0
 62
     0
 10
160.732
 20
96.2491
 30
0.0
 11
160.732
 21
95.2486
 31
0.0
  0
LINE
  8
0
 62
     0
 10
160.732
 20
95.2486
 30
0.0
 11
159.933
 21
95.2486
 31
0.0
  0
LINE
  8
0
 62
     0
 10
159.933
 20
95.2486
 30
0.0
 11
159.933
 21
92.148
 31
0.0
  0
LINE
  8
0
 62
     0
 10
159.933
 20
92.148
 30
0.0
 11
160.732
 21
92.148
 31
0.0
  0
LINE
  8
0
 62
     0
 10
160.732
 20
92.148
 30
0.0
 11
160.732
 21
86.348
 31
0.0
  0
LINE
  8
0
 62
     0
 10
160.732
 20
86.348
 30
0.0
 11
159.933
 21
86.348
 31
0.0
  0
LINE
  8
0
 62
     0
 10
159.933
 20
86.348
 30
0.0
 11
159.933
 21
83.2485
 31
0.0
  0
LINE
  8
0
 62
     0
 10
159.933
 20
83.2485
 30
0.0
 11
160.732
 21
83.2485
 31
0.0
  0
LINE
  8
0
 62
     0
 10
160.732
 20
83.2485
 30
0.0
 11
160.732
 21
82.2484
 31
0.0
  0
LINE
  8
0
 62
     0
 10
160.732
 20
82.2484
 30
0.0
 11
174.731
 21
82.2484
 31
0.0
  0
LINE
  8
0
 62
     0
 10
174.731
 20
82.2484
 30
0.0
 11
174.731
 21
83.2485
 31
0.0
  0
LINE
  8
0
 62
     0
 10
174.731
 20
83.2485
 30
0.0
 11
175.532
 21
83.2485
 31
0.0
  0
LINE
  8
0
 62
     0
 10
175.532
 20
83.2485
 30
0.0
 11
175.532
 21
86.348
 31
0.0
  0
LINE
  8
0
 62
     0
 10
175.532
 20
86.348
 30
0.0
 11
174.731
 21
86.348
 31
0.0
  0
LINE
  8
0
 62
     0
 10
174.731
 20
86.348
 30
0.0
 11
174.731
 21
92.148
 31
0.0
  0
LINE
  8
0
 62
     0
 10
174.731
 20
92.148
 30
0.0
 11
175.532
 21
92.148
 31
0.0
  0
LINE
  8
0
 62
     0
 10
175.532
 20
92.148
 30
0.0
 11
175.532
 21
95.2486
 31
0.0
  0
LINE
  8
0
 62
     0
 10
175.532
 20
95.2486
 30
0.0
 11
174.731
 21
95.2486
 31
0.0
  0
LINE
  8
0
 62
     0
 10
174.731
 20
95.2486
 30
0.0
 11
174.731
 21
96.2491
 31
0.0
  0
LINE
  8
0
 62
     0
 10
174.731
 20
96.2491
 30
0.0
 11
160.732
 21
96.2491
 31
0.0
  0
LINE
  8
0
 62
     0
 10
179.782
 20
96.2491
 30
0.0
 11
179.782
 21
95.2486
 31
0.0
  0
LINE
  8
0
 62
     0
 10
179.782
 20
95.2486
 30
0.0
 11
178.983
 21
95.2486
 31
0.0
  0
LINE
  8
0
 62
     0
 10
178.983
 20
95.2486
 30
0.0
 11
178.983
 21
92.148
 31
0.0
  0
LINE
  8
0
 62
     0
 10
178.983
 20
92.148
 30
0.0
 11
179.782
 21
92.148
 31
0.0
  0
LINE
  8
0
 62
     0
 10
179.782
 20
92.148
 30
0.0
 11
179.782
 21
86.348
 31
0.0
  0
LINE
  8
0
 62
     0
 10
179.782
 20
86.348
 30
0.0
 11
178.983
 21
86.348
 31
0.0
  0
LINE
  8
0
 62
     0
 10
178.983
 20
86.348
 30
0.0
 11
178.983
 21
83.2485
 31
0.0
  0
LINE
  8
0
 62
     0
 10
178.983
 20
83.2485
 30
0.0
 11
179.782
 21
83.2485
 31
0.0
  0
LINE
  8
0
 62
     0
 10
179.782
 20
83.2485
 30
0.0
 11
179.782
 21
82.2484
 31
0.0
  0
LINE
  8
0
 62
     0
 10
179.782
 20
82.2484
 30
0.0
 11
193.781
 21
82.2484
 31
0.0
  0
LINE
  8
0
 62
     0
 10
193.781
 20
82.2484
 30
0.0
 11
193.781
 21
83.2485
 31
0.0
  0
LINE
  8
0
 62
     0
 10
193.781
 20
83.2485
 30
0.0
 11
194.582
 21
83.2485
 31
0.0
  0
LINE
  8
0
 62
     0
 10
194.582
 20
83.2485
 30
0.0
 11
194.582
 21
86.348
 31
0.0
  0
LINE
  8
0
 62
     0
 10
194.582
 20
86.348
 30
0.0
 11
193.781
 21
86.348
 31
0.0
  0
LINE
  8
0
 62
     0
 10
193.781
 20
86.348
 30
0.0
 11
193.781
 21
92.148
 31
0.0
  0
LINE
  8
0
 62
     0
 10
193.781
 20
92.148
 30
0.0
 11
194.582
 21
92.148
 31
0.0
  0
LINE
  8
0
 62
     0
 10
194.582
 20
92.148
 30
0.0
 11
194.582
 21
95.2486
 31
0.0
  0
LINE
  8
0
 62
     0
 10
194.582
 20
95.2486
 30
0.0
 11
193.781
 21
95.2486
 31
0.0
  0
LINE
  8
0
 62
     0
 10
193.781
 20
95.2486
 30
0.0
 11
193.781
 21
96.2491
 31
0.0
  0
LINE
  8
0
 62
     0
 10
193.781
 20
96.2491
 30
0.0
 11
179.782
 21
96.2491
 31
0.0
  0
LINE
  8
0
 62
     0
 10
198.832
 20
96.2491
 30
0.0
 11
198.832
 21
95.2486
 31
0.0
  0
LINE
  8
0
 62
     0
 10
198.832
 20
95.2486
 30
0.0
 11
198.033
 21
95.2486
 31
0.0
  0
LINE
  8
0
 62
     0
 10
198.033
 20
95.2486
 30
0.0
 11
198.033
 21
92.148
 31
0.0
  0
LINE
  8
0
 62
     0
 10
198.033
 20
92.148
 30
0.0
 11
198.832
 21
92.148
 31
0.0
  0
LINE
  8
0
 62
     0
 10
198.832
 20
92.148
 30
0.0
 11
198.832
 21
86.348
 31
0.0
  0
LINE
  8
0
 62
     0
 10
198.832
 20
86.348
 30
0.0
 11
198.033
 21
86.348
 31
0.0
  0
LINE
  8
0
 62
     0
 10
198.033
 20
86.348
 30
0.0
 11
198.033
 21
83.2485
 31
0.0
  0
LINE
  8
0
 62
     0
 10
198.033
 20
83.2485
 30
0.0
 11
198.832
 21
83.2485
 31
0.0
  0
LINE
  8
0
 62
     0
 10
198.832
 20
83.2485
 30
0.0
 11
198.832
 21
82.2484
 31
0.0
  0
LINE
  8
0
 62
     0
 10
198.832
 20
82.2484
 30
0.0
 11
212.831
 21
82.2484
 31
0.0
  0
LINE
  8
0
 62
     0
 10
212.831
 20
82.2484
 30
0.0
 11
212.831
 21
83.2485
 31
0.0
  0
LINE
  8
0
 62
     0
 10
212.831
 20
83.2485
 30
0.0
 11
213.632
 21
83.2485
 31
0.0
  0
LINE
  8
0
 62
     0
 10
213.632
 20
83.2485
 30
0.0
 11
213.632
 21
86.348
 31
0.0
  0
LINE
  8
0
 62
     0
 10
213.632
 20
86.348
 30
0.0
 11
212.831
 21
86.348
 31
0.0
  0
LINE
  8
0
 62
     0
 10
212.831
 20
86.348
 30
0.0
 11
212.831
 21
92.148
 31
0.0
  0
LINE
  8
0
 62
     0
 10
212.831
 20
92.148
 30
0.0
 11
213.632
 21
92.148
 31
0.0
  0
LINE
  8
0
 62
     0
 10
213.632
 20
92.148
 30
0.0
 11
213.632
 21
95.2486
 31
0.0
  0
LINE
  8
0
 62
     0
 10
213.632
 20
95.2486
 30
0.0
 11
212.831
 21
95.2486
 31
0.0
  0
LINE
  8
0
 62
     0
 10
212.831
 20
95.2486
 30
0.0
 11
212.831
 21
96.2491
 31
0.0
  0
LINE
  8
0
 62
     0
 10
212.831
 20
96.2491
 30
0.0
 11
198.832
 21
96.2491
 31
0.0
  0
LINE
  8
0
 62
     0
 10
32.1441
 20
115.299
 30
0.0
 11
32.1441
 21
114.299
 31
0.0
  0
LINE
  8
0
 62
     0
 10
32.1441
 20
114.299
 30
0.0
 11
31.3449
 21
114.299
 31
0.0
  0
LINE
  8
0
 62
     0
 10
31.3449
 20
114.299
 30
0.0
 11
31.3449
 21
111.198
 31
0.0
  0
LINE
  8
0
 62
     0
 10
31.3449
 20
111.198
 30
0.0
 11
32.1441
 21
111.198
 31
0.0
  0
LINE
  8
0
 62
     0
 10
32.1441
 20
111.198
 30
0.0
 11
32.1441
 21
105.398
 31
0.0
  0
LINE
  8
0
 62
     0
 10
32.1441
 20
105.398
 30
0.0
 11
31.3449
 21
105.398
 31
0.0
  0
LINE
  8
0
 62
     0
 10
31.3449
 20
105.398
 30
0.0
 11
31.3449
 21
102.299
 31
0.0
  0
LINE
  8
0
 62
     0
 10
31.3449
 20
102.299
 30
0.0
 11
32.1441
 21
102.299
 31
0.0
  0
LINE
  8
0
 62
     0
 10
32.1441
 20
102.299
 30
0.0
 11
32.1441
 21
101.298
 31
0.0
  0
LINE
  8
0
 62
     0
 10
32.1441
 20
101.298
 30
0.0
 11
46.1451
 21
101.298
 31
0.0
  0
LINE
  8
0
 62
     0
 10
46.1451
 20
101.298
 30
0.0
 11
46.1451
 21
102.299
 31
0.0
  0
LINE
  8
0
 62
     0
 10
46.1451
 20
102.299
 30
0.0
 11
46.9441
 21
102.299
 31
0.0
  0
LINE
  8
0
 62
     0
 10
46.9441
 20
102.299
 30
0.0
 11
46.9441
 21
105.398
 31
0.0
  0
LINE
  8
0
 62
     0
 10
46.9441
 20
105.398
 30
0.0
 11
46.1451
 21
105.398
 31
0.0
  0
LINE
  8
0
 62
     0
 10
46.1451
 20
105.398
 30
0.0
 11
46.1451
 21
111.198
 31
0.0
  0
LINE
  8
0
 62
     0
 10
46.1451
 20
111.198
 30
0.0
 11
46.9441
 21
111.198
 31
0.0
  0
LINE
  8
0
 62
     0
 10
46.9441
 20
111.198
 30
0.0
 11
46.9441
 21
114.299
 31
0.0
  0
LINE
  8
0
 62
     0
 10
46.9441
 20
114.299
 30
0.0
 11
46.1451
 21
114.299
 31
0.0
  0
LINE
  8
0
 62
     0
 10
46.1451
 20
114.299
 30
0.0
 11
46.1451
 21
115.299
 31
0.0
  0
LINE
  8
0
 62
     0
 10
46.1451
 20
115.299
 30
0.0
 11
32.1441
 21
115.299
 31
0.0
  0
LINE
  8
0
 62
     0
 10
55.9566
 20
115.299
 30
0.0
 11
55.9566
 21
114.299
 31
0.0
  0
LINE
  8
0
 62
     0
 10
55.9566
 20
114.299
 30
0.0
 11
55.1575
 21
114.299
 31
0.0
  0
LINE
  8
0
 62
     0
 10
55.1575
 20
114.299
 30
0.0
 11
55.1575
 21
111.198
 31
0.0
  0
LINE
  8
0
 62
     0
 10
55.1575
 20
111.198
 30
0.0
 11
55.9566
 21
111.198
 31
0.0
  0
LINE
  8
0
 62
     0
 10
55.9566
 20
111.198
 30
0.0
 11
55.9566
 21
105.398
 31
0.0
  0
LINE
  8
0
 62
     0
 10
55.9566
 20
105.398
 30
0.0
 11
55.1575
 21
105.398
 31
0.0
  0
LINE
  8
0
 62
     0
 10
55.1575
 20
105.398
 30
0.0
 11
55.1575
 21
102.299
 31
0.0
  0
LINE
  8
0
 62
     0
 10
55.1575
 20
102.299
 30
0.0
 11
55.9566
 21
102.299
 31
0.0
  0
LINE
  8
0
 62
     0
 10
55.9566
 20
102.299
 30
0.0
 11
55.9566
 21
101.298
 31
0.0
  0
LINE
  8
0
 62
     0
 10
55.9566
 20
101.298
 30
0.0
 11
69.9562
 21
101.298
 31
0.0
  0
LINE
  8
0
 62
     0
 10
69.9562
 20
101.298
 30
0.0
 11
69.9562
 21
102.299
 31
0.0
  0
LINE
  8
0
 62
     0
 10
69.9562
 20
102.299
 30
0.0
 11
70.7566
 21
102.299
 31
0.0
  0
LINE
  8
0
 62
     0
 10
70.7566
 20
102.299
 30
0.0
 11
70.7566
 21
105.398
 31
0.0
  0
LINE
  8
0
 62
     0
 10
70.7566
 20
105.398
 30
0.0
 11
69.9562
 21
105.398
 31
0.0
  0
LINE
  8
0
 62
     0
 10
69.9562
 20
105.398
 30
0.0
 11
69.9562
 21
111.198
 31
0.0
  0
LINE
  8
0
 62
     0
 10
69.9562
 20
111.198
 30
0.0
 11
70.7566
 21
111.198
 31
0.0
  0
LINE
  8
0
 62
     0
 10
70.7566
 20
111.198
 30
0.0
 11
70.7566
 21
114.299
 31
0.0
  0
LINE
  8
0
 62
     0
 10
70.7566
 20
114.299
 30
0.0
 11
69.9562
 21
114.299
 31
0.0
  0
LINE
  8
0
 62
     0
 10
69.9562
 20
114.299
 30
0.0
 11
69.9562
 21
115.299
 31
0.0
  0
LINE
  8
0
 62
     0
 10
69.9562
 20
115.299
 30
0.0
 11
55.9566
 21
115.299
 31
0.0
  0
LINE
  8
0
 62
     0
 10
75.0066
 20
115.299
 30
0.0
 11
75.0066
 21
114.299
 31
0.0
  0
LINE
  8
0
 62
     0
 10
75.0066
 20
114.299
 30
0.0
 11
74.2075
 21
114.299
 31
0.0
  0
LINE
  8
0
 62
     0
 10
74.2075
 20
114.299
 30
0.0
 11
74.2075
 21
111.198
 31
0.0
  0
LINE
  8
0
 62
     0
 10
74.2075
 20
111.198
 30
0.0
 11
75.0066
 21
111.198
 31
0.0
  0
LINE
  8
0
 62
     0
 10
75.0066
 20
111.198
 30
0.0
 11
75.0066
 21
105.398
 31
0.0
  0
LINE
  8
0
 62
     0
 10
75.0066
 20
105.398
 30
0.0
 11
74.2075
 21
105.398
 31
0.0
  0
LINE
  8
0
 62
     0
 10
74.2075
 20
105.398
 30
0.0
 11
74.2075
 21
102.299
 31
0.0
  0
LINE
  8
0
 62
     0
 10
74.2075
 20
102.299
 30
0.0
 11
75.0066
 21
102.299
 31
0.0
  0
LINE
  8
0
 62
     0
 10
75.0066
 20
102.299
 30
0.0
 11
75.0066
 21
101.298
 31
0.0
  0
LINE
  8
0
 62
     0
 10
75.0066
 20
101.298
 30
0.0
 11
89.0062
 21
101.298
 31
0.0
  0
LINE
  8
0
 62
     0
 10
89.0062
 20
101.298
 30
0.0
 11
89.0062
 21
102.299
 31
0.0
  0
LINE
  8
0
 62
     0
 10
89.0062
 20
102.299
 30
0.0
 11
89.8066
 21
102.299
 31
0.0
  0
LINE
  8
0
 62
     0
 10
89.8066
 20
102.299
 30
0.0
 11
89.8066
 21
105.398
 31
0.0
  0
LINE
  8
0
 62
     0
 10
89.8066
 20
105.398
 30
0.0
 11
89.0062
 21
105.398
 31
0.0
  0
LINE
  8
0
 62
     0
 10
89.0062
 20
105.398
 30
0.0
 11
89.0062
 21
111.198
 31
0.0
  0
LINE
  8
0
 62
     0
 10
89.0062
 20
111.198
 30
0.0
 11
89.8066
 21
111.198
 31
0.0
  0
LINE
  8
0
 62
     0
 10
89.8066
 20
111.198
 30
0.0
 11
89.8066
 21
114.299
 31
0.0
  0
LINE
  8
0
 62
     0
 10
89.8066
 20
114.299
 30
0.0
 11
89.0062
 21
114.299
 31
0.0
  0
LINE
  8
0
 62
     0
 10
89.0062
 20
114.299
 30
0.0
 11
89.0062
 21
115.299
 31
0.0
  0
LINE
  8
0
 62
     0
 10
89.0062
 20
115.299
 30
0.0
 11
75.0066
 21
115.299
 31
0.0
  0
LINE
  8
0
 62
     0
 10
94.0566
 20
115.299
 30
0.0
 11
94.0566
 21
114.299
 31
0.0
  0
LINE
  8
0
 62
     0
 10
94.0566
 20
114.299
 30
0.0
 11
93.2575
 21
114.299
 31
0.0
  0
LINE
  8
0
 62
     0
 10
93.2575
 20
114.299
 30
0.0
 11
93.2575
 21
111.198
 31
0.0
  0
LINE
  8
0
 62
     0
 10
93.2575
 20
111.198
 30
0.0
 11
94.0566
 21
111.198
 31
0.0
  0
LINE
  8
0
 62
     0
 10
94.0566
 20
111.198
 30
0.0
 11
94.0566
 21
105.398
 31
0.0
  0
LINE
  8
0
 62
     0
 10
94.0566
 20
105.398
 30
0.0
 11
93.2575
 21
105.398
 31
0.0
  0
LINE
  8
0
 62
     0
 10
93.2575
 20
105.398
 30
0.0
 11
93.2575
 21
102.299
 31
0.0
  0
LINE
  8
0
 62
     0
 10
93.2575
 20
102.299
 30
0.0
 11
94.0566
 21
102.299
 31
0.0
  0
LINE
  8
0
 62
     0
 10
94.0566
 20
102.299
 30
0.0
 11
94.0566
 21
101.298
 31
0.0
  0
LINE
  8
0
 62
     0
 10
94.0566
 20
101.298
 30
0.0
 11
108.056
 21
101.298
 31
0.0
  0
LINE
  8
0
 62
     0
 10
108.056
 20
101.298
 30
0.0
 11
108.056
 21
102.299
 31
0.0
  0
LINE
  8
0
 62
     0
 10
108.056
 20
102.299
 30
0.0
 11
108.857
 21
102.299
 31
0.0
  0
LINE
  8
0
 62
     0
 10
108.857
 20
102.299
 30
0.0
 11
108.857
 21
105.398
 31
0.0
  0
LINE
  8
0
 62
     0
 10
108.857
 20
105.398
 30
0.0
 11
108.056
 21
105.398
 31
0.0
  0
LINE
  8
0
 62
     0
 10
108.056
 20
105.398
 30
0.0
 11
108.056
 21
111.198
 31
0.0
  0
LINE
  8
0
 62
     0
 10
108.056
 20
111.198
 30
0.0
 11
108.857
 21
111.198
 31
0.0
  0
LINE
  8
0
 62
     0
 10
108.857
 20
111.198
 30
0.0
 11
108.857
 21
114.299
 31
0.0
  0
LINE
  8
0
 62
     0
 10
108.857
 20
114.299
 30
0.0
 11
108.056
 21
114.299
 31
0.0
  0
LINE
  8
0
 62
     0
 10
108.056
 20
114.299
 30
0.0
 11
108.056
 21
115.299
 31
0.0
  0
LINE
  8
0
 62
     0
 10
108.056
 20
115.299
 30
0.0
 11
94.0566
 21
115.299
 31
0.0
  0
LINE
  8
0
 62
     0
 10
113.107
 20
115.299
 30
0.0
 11
113.107
 21
114.299
 31
0.0
  0
LINE
  8
0
 62
     0
 10
113.107
 20
114.299
 30
0.0
 11
112.308
 21
114.299
 31
0.0
  0
LINE
  8
0
 62
     0
 10
112.308
 20
114.299
 30
0.0
 11
112.308
 21
111.198
 31
0.0
  0
LINE
  8
0
 62
     0
 10
112.308
 20
111.198
 30
0.0
 11
113.107
 21
111.198
 31
0.0
  0
LINE
  8
0
 62
     0
 10
113.107
 20
111.198
 30
0.0
 11
113.107
 21
105.398
 31
0.0
  0
LINE
  8
0
 62
     0
 10
113.107
 20
105.398
 30
0.0
 11
112.308
 21
105.398
 31
0.0
  0
LINE
  8
0
 62
     0
 10
112.308
 20
105.398
 30
0.0
 11
112.308
 21
102.299
 31
0.0
  0
LINE
  8
0
 62
     0
 10
112.308
 20
102.299
 30
0.0
 11
113.107
 21
102.299
 31
0.0
  0
LINE
  8
0
 62
     0
 10
113.107
 20
102.299
 30
0.0
 11
113.107
 21
101.298
 31
0.0
  0
LINE
  8
0
 62
     0
 10
113.107
 20
101.298
 30
0.0
 11
127.106
 21
101.298
 31
0.0
  0
LINE
  8
0
 62
     0
 10
127.106
 20
101.298
 30
0.0
 11
127.106
 21
102.299
 31
0.0
  0
LINE
  8
0
 62
     0
 10
127.106
 20
102.299
 30
0.0
 11
127.907
 21
102.299
 31
0.0
  0
LINE
  8
0
 62
     0
 10
127.907
 20
102.299
 30
0.0
 11
127.907
 21
105.398
 31
0.0
  0
LINE
  8
0
 62
     0
 10
127.907
 20
105.398
 30
0.0
 11
127.106
 21
105.398
 31
0.0
  0
LINE
  8
0
 62
     0
 10
127.106
 20
105.398
 30
0.0
 11
127.106
 21
111.198
 31
0.0
  0
LINE
  8
0
 62
     0
 10
127.106
 20
111.198
 30
0.0
 11
127.907
 21
111.198
 31
0.0
  0
LINE
  8
0
 62
     0
 10
127.907
 20
111.198
 30
0.0
 11
127.907
 21
114.299
 31
0.0
  0
LINE
  8
0
 62
     0
 10
127.907
 20
114.299
 30
0.0
 11
127.106
 21
114.299
 31
0.0
  0
LINE
  8
0
 62
     0
 10
127.106
 20
114.299
 30
0.0
 11
127.106
 21
115.299
 31
0.0
  0
LINE
  8
0
 62
     0
 10
127.106
 20
115.299
 30
0.0
 11
113.107
 21
115.299
 31
0.0
  0
LINE
  8
0
 62
     0
 10
132.157
 20
115.299
 30
0.0
 11
132.157
 21
114.299
 31
0.0
  0
LINE
  8
0
 62
     0
 10
132.157
 20
114.299
 30
0.0
 11
131.358
 21
114.299
 31
0.0
  0
LINE
  8
0
 62
     0
 10
131.358
 20
114.299
 30
0.0
 11
131.358
 21
111.198
 31
0.0
  0
LINE
  8
0
 62
     0
 10
131.358
 20
111.198
 30
0.0
 11
132.157
 21
111.198
 31
0.0
  0
LINE
  8
0
 62
     0
 10
132.157
 20
111.198
 30
0.0
 11
132.157
 21
105.398
 31
0.0
  0
LINE
  8
0
 62
     0
 10
132.157
 20
105.398
 30
0.0
 11
131.358
 21
105.398
 31
0.0
  0
LINE
  8
0
 62
     0
 10
131.358
 20
105.398
 30
0.0
 11
131.358
 21
102.299
 31
0.0
  0
LINE
  8
0
 62
     0
 10
131.358
 20
102.299
 30
0.0
 11
132.157
 21
102.299
 31
0.0
  0
LINE
  8
0
 62
     0
 10
132.157
 20
102.299
 30
0.0
 11
132.157
 21
101.298
 31
0.0
  0
LINE
  8
0
 62
     0
 10
132.157
 20
101.298
 30
0.0
 11
146.156
 21
101.298
 31
0.0
  0
LINE
  8
0
 62
     0
 10
146.156
 20
101.298
 30
0.0
 11
146.156
 21
102.299
 31
0.0
  0
LINE
  8
0
 62
     0
 10
146.156
 20
102.299
 30
0.0
 11
146.957
 21
102.299
 31
0.0
  0
LINE
  8
0
 62
     0
 10
146.957
 20
102.299
 30
0.0
 11
146.957
 21
105.398
 31
0.0
  0
LINE
  8
0
 62
     0
 10
146.957
 20
105.398
 30
0.0
 11
146.156
 21
105.398
 31
0.0
  0
LINE
  8
0
 62
     0
 10
146.156
 20
105.398
 30
0.0
 11
146.156
 21
111.198
 31
0.0
  0
LINE
  8
0
 62
     0
 10
146.156
 20
111.198
 30
0.0
 11
146.957
 21
111.198
 31
0.0
  0
LINE
  8
0
 62
     0
 10
146.957
 20
111.198
 30
0.0
 11
146.957
 21
114.299
 31
0.0
  0
LINE
  8
0
 62
     0
 10
146.957
 20
114.299
 30
0.0
 11
146.156
 21
114.299
 31
0.0
  0
LINE
  8
0
 62
     0
 10
146.156
 20
114.299
 30
0.0
 11
146.156
 21
115.299
 31
0.0
  0
LINE
  8
0
 62
     0
 10
146.156
 20
115.299
 30
0.0
 11
132.157
 21
115.299
 31
0.0
  0
LINE
  8
0
 62
     0
 10
155.969
 20
115.299
 30
0.0
 11
155.969
 21
114.299
 31
0.0
  0
LINE
  8
0
 62
     0
 10
155.969
 20
114.299
 30
0.0
 11
155.17
 21
114.299
 31
0.0
  0
LINE
  8
0
 62
     0
 10
155.17
 20
114.299
 30
0.0
 11
155.17
 21
111.198
 31
0.0
  0
LINE
  8
0
 62
     0
 10
155.17
 20
111.198
 30
0.0
 11
155.969
 21
111.198
 31
0.0
  0
LINE
  8
0
 62
     0
 10
155.969
 20
111.198
 30
0.0
 11
155.969
 21
105.398
 31
0.0
  0
LINE
  8
0
 62
     0
 10
155.969
 20
105.398
 30
0.0
 11
155.17
 21
105.398
 31
0.0
  0
LINE
  8
0
 62
     0
 10
155.17
 20
105.398
 30
0.0
 11
155.17
 21
102.299
 31
0.0
  0
LINE
  8
0
 62
     0
 10
155.17
 20
102.299
 30
0.0
 11
155.969
 21
102.299
 31
0.0
  0
LINE
  8
0
 62
     0
 10
155.969
 20
102.299
 30
0.0
 11
155.969
 21
101.298
 31
0.0
  0
LINE
  8
0
 62
     0
 10
155.969
 20
101.298
 30
0.0
 11
169.97
 21
101.298
 31
0.0
  0
LINE
  8
0
 62
     0
 10
169.97
 20
101.298
 30
0.0
 11
169.97
 21
102.299
 31
0.0
  0
LINE
  8
0
 62
     0
 10
169.97
 20
102.299
 30
0.0
 11
170.769
 21
102.299
 31
0.0
  0
LINE
  8
0
 62
     0
 10
170.769
 20
102.299
 30
0.0
 11
170.769
 21
105.398
 31
0.0
  0
LINE
  8
0
 62
     0
 10
170.769
 20
105.398
 30
0.0
 11
169.97
 21
105.398
 31
0.0
  0
LINE
  8
0
 62
     0
 10
169.97
 20
105.398
 30
0.0
 11
169.97
 21
111.198
 31
0.0
  0
LINE
  8
0
 62
     0
 10
169.97
 20
111.198
 30
0.0
 11
170.769
 21
111.198
 31
0.0
  0
LINE
  8
0
 62
     0
 10
170.769
 20
111.198
 30
0.0
 11
170.769
 21
114.299
 31
0.0
  0
LINE
  8
0
 62
     0
 10
170.769
 20
114.299
 30
0.0
 11
169.97
 21
114.299
 31
0.0
  0
LINE
  8
0
 62
     0
 10
169.97
 20
114.299
 30
0.0
 11
169.97
 21
115.299
 31
0.0
  0
LINE
  8
0
 62
     0
 10
169.97
 20
115.299
 30
0.0
 11
155.969
 21
115.299
 31
0.0
  0
LINE
  8
0
 62
     0
 10
179.782
 20
115.299
 30
0.0
 11
179.782
 21
114.299
 31
0.0
  0
LINE
  8
0
 62
     0
 10
179.782
 20
114.299
 30
0.0
 11
178.983
 21
114.299
 31
0.0
  0
LINE
  8
0
 62
     0
 10
178.983
 20
114.299
 30
0.0
 11
178.983
 21
111.198
 31
0.0
  0
LINE
  8
0
 62
     0
 10
178.983
 20
111.198
 30
0.0
 11
179.782
 21
111.198
 31
0.0
  0
LINE
  8
0
 62
     0
 10
179.782
 20
111.198
 30
0.0
 11
179.782
 21
105.398
 31
0.0
  0
LINE
  8
0
 62
     0
 10
179.782
 20
105.398
 30
0.0
 11
178.983
 21
105.398
 31
0.0
  0
LINE
  8
0
 62
     0
 10
178.983
 20
105.398
 30
0.0
 11
178.983
 21
102.299
 31
0.0
  0
LINE
  8
0
 62
     0
 10
178.983
 20
102.299
 30
0.0
 11
179.782
 21
102.299
 31
0.0
  0
LINE
  8
0
 62
     0
 10
179.782
 20
102.299
 30
0.0
 11
179.782
 21
101.298
 31
0.0
  0
LINE
  8
0
 62
     0
 10
179.782
 20
101.298
 30
0.0
 11
193.781
 21
101.298
 31
0.0
  0
LINE
  8
0
 62
     0
 10
193.781
 20
101.298
 30
0.0
 11
193.781
 21
102.299
 31
0.0
  0
LINE
  8
0
 62
     0
 10
193.781
 20
102.299
 30
0.0
 11
194.582
 21
102.299
 31
0.0
  0
LINE
  8
0
 62
     0
 10
194.582
 20
102.299
 30
0.0
 11
194.582
 21
105.398
 31
0.0
  0
LINE
  8
0
 62
     0
 10
194.582
 20
105.398
 30
0.0
 11
193.781
 21
105.398
 31
0.0
  0
LINE
  8
0
 62
     0
 10
193.781
 20
105.398
 30
0.0
 11
193.781
 21
111.198
 31
0.0
  0
LINE
  8
0
 62
     0
 10
193.781
 20
111.198
 30
0.0
 11
194.582
 21
111.198
 31
0.0
  0
LINE
  8
0
 62
     0
 10
194.582
 20
111.198
 30
0.0
 11
194.582
 21
114.299
 31
0.0
  0
LINE
  8
0
 62
     0
 10
194.582
 20
114.299
 30
0.0
 11
193.781
 21
114.299
 31
0.0
  0
LINE
  8
0
 62
     0
 10
193.781
 20
114.299
 30
0.0
 11
193.781
 21
115.299
 31
0.0
  0
LINE
  8
0
 62
     0
 10
193.781
 20
115.299
 30
0.0
 11
179.782
 21
115.299
 31
0.0
  0
LINE
  8
0
 62
     0
 10
198.832
 20
115.299
 30
0.0
 11
198.832
 21
114.299
 31
0.0
  0
LINE
  8
0
 62
     0
 10
198.832
 20
114.299
 30
0.0
 11
198.033
 21
114.299
 31
0.0
  0
LINE
  8
0
 62
     0
 10
198.033
 20
114.299
 30
0.0
 11
198.033
 21
111.198
 31
0.0
  0
LINE
  8
0
 62
     0
 10
198.033
 20
111.198
 30
0.0
 11
198.832
 21
111.198
 31
0.0
  0
LINE
  8
0
 62
     0
 10
198.832
 20
111.198
 30
0.0
 11
198.832
 21
105.398
 31
0.0
  0
LINE
  8
0
 62
     0
 10
198.832
 20
105.398
 30
0.0
 11
198.033
 21
105.398
 31
0.0
  0
LINE
  8
0
 62
     0
 10
198.033
 20
105.398
 30
0.0
 11
198.033
 21
102.299
 31
0.0
  0
LINE
  8
0
 62
     0
 10
198.033
 20
102.299
 30
0.0
 11
198.832
 21
102.299
 31
0.0
  0
LINE
  8
0
 62
     0
 10
198.832
 20
102.299
 30
0.0
 11
198.832
 21
101.298
 31
0.0
  0
LINE
  8
0
 62
     0
 10
198.832
 20
101.298
 30
0.0
 11
212.831
 21
101.298
 31
0.0
  0
LINE
  8
0
 62
     0
 10
212.831
 20
101.298
 30
0.0
 11
212.831
 21
102.299
 31
0.0
  0
LINE
  8
0
 62
     0
 10
212.831
 20
102.299
 30
0.0
 11
213.632
 21
102.299
 31
0.0
  0
LINE
  8
0
 62
     0
 10
213.632
 20
102.299
 30
0.0
 11
213.632
 21
105.398
 31
0.0
  0
LINE
  8
0
 62
     0
 10
213.632
 20
105.398
 30
0.0
 11
212.831
 21
105.398
 31
0.0
  0
LINE
  8
0
 62
     0
 10
212.831
 20
105.398
 30
0.0
 11
212.831
 21
111.198
 31
0.0
  0
LINE
  8
0
 62
     0
 10
212.831
 20
111.198
 30
0.0
 11
213.632
 21
111.198
 31
0.0
  0
LINE
  8
0
 62
     0
 10
213.632
 20
111.198
 30
0.0
 11
213.632
 21
114.299
 31
0.0
  0
LINE
  8
0
 62
     0
 10
213.632
 20
114.299
 30
0.0
 11
212.831
 21
114.299
 31
0.0
  0
LINE
  8
0
 62
     0
 10
212.831
 20
114.299
 30
0.0
 11
212.831
 21
115.299
 31
0.0
  0
LINE
  8
0
 62
     0
 10
212.831
 20
115.299
 30
0.0
 11
198.832
 21
115.299
 31
0.0
  0
LINE
  8
0
 62
     0
 10
27.3816
 20
134.349
 30
0.0
 11
27.3816
 21
133.349
 31
0.0
  0
LINE
  8
0
 62
     0
 10
27.3816
 20
133.349
 30
0.0
 11
26.5824
 21
133.349
 31
0.0
  0
LINE
  8
0
 62
     0
 10
26.5824
 20
133.349
 30
0.0
 11
26.5824
 21
130.248
 31
0.0
  0
LINE
  8
0
 62
     0
 10
26.5824
 20
130.248
 30
0.0
 11
27.3816
 21
130.248
 31
0.0
  0
LINE
  8
0
 62
     0
 10
27.3816
 20
130.248
 30
0.0
 11
27.3816
 21
124.448
 31
0.0
  0
LINE
  8
0
 62
     0
 10
27.3816
 20
124.448
 30
0.0
 11
26.5824
 21
124.448
 31
0.0
  0
LINE
  8
0
 62
     0
 10
26.5824
 20
124.448
 30
0.0
 11
26.5824
 21
121.349
 31
0.0
  0
LINE
  8
0
 62
     0
 10
26.5824
 20
121.349
 30
0.0
 11
27.3816
 21
121.349
 31
0.0
  0
LINE
  8
0
 62
     0
 10
27.3816
 20
121.349
 30
0.0
 11
27.3816
 21
120.348
 31
0.0
  0
LINE
  8
0
 62
     0
 10
27.3816
 20
120.348
 30
0.0
 11
41.3812
 21
120.348
 31
0.0
  0
LINE
  8
0
 62
     0
 10
41.3812
 20
120.348
 30
0.0
 11
41.3812
 21
121.349
 31
0.0
  0
LINE
  8
0
 62
     0
 10
41.3812
 20
121.349
 30
0.0
 11
42.1816
 21
121.349
 31
0.0
  0
LINE
  8
0
 62
     0
 10
42.1816
 20
121.349
 30
0.0
 11
42.1816
 21
124.448
 31
0.0
  0
LINE
  8
0
 62
     0
 10
42.1816
 20
124.448
 30
0.0
 11
41.3812
 21
124.448
 31
0.0
  0
LINE
  8
0
 62
     0
 10
41.3812
 20
124.448
 30
0.0
 11
41.3812
 21
130.248
 31
0.0
  0
LINE
  8
0
 62
     0
 10
41.3812
 20
130.248
 30
0.0
 11
42.1816
 21
130.248
 31
0.0
  0
LINE
  8
0
 62
     0
 10
42.1816
 20
130.248
 30
0.0
 11
42.1816
 21
133.349
 31
0.0
  0
LINE
  8
0
 62
     0
 10
42.1816
 20
133.349
 30
0.0
 11
41.3812
 21
133.349
 31
0.0
  0
LINE
  8
0
 62
     0
 10
41.3812
 20
133.349
 30
0.0
 11
41.3812
 21
134.349
 31
0.0
  0
LINE
  8
0
 62
     0
 10
41.3812
 20
134.349
 30
0.0
 11
27.3816
 21
134.349
 31
0.0
  0
LINE
  8
0
 62
     0
 10
46.4316
 20
134.349
 30
0.0
 11
46.4316
 21
133.349
 31
0.0
  0
LINE
  8
0
 62
     0
 10
46.4316
 20
133.349
 30
0.0
 11
45.6325
 21
133.349
 31
0.0
  0
LINE
  8
0
 62
     0
 10
45.6325
 20
133.349
 30
0.0
 11
45.6325
 21
130.248
 31
0.0
  0
LINE
  8
0
 62
     0
 10
45.6325
 20
130.248
 30
0.0
 11
46.4316
 21
130.248
 31
0.0
  0
LINE
  8
0
 62
     0
 10
46.4316
 20
130.248
 30
0.0
 11
46.4316
 21
124.448
 31
0.0
  0
LINE
  8
0
 62
     0
 10
46.4316
 20
124.448
 30
0.0
 11
45.6325
 21
124.448
 31
0.0
  0
LINE
  8
0
 62
     0
 10
45.6325
 20
124.448
 30
0.0
 11
45.6325
 21
121.349
 31
0.0
  0
LINE
  8
0
 62
     0
 10
45.6325
 20
121.349
 30
0.0
 11
46.4316
 21
121.349
 31
0.0
  0
LINE
  8
0
 62
     0
 10
46.4316
 20
121.349
 30
0.0
 11
46.4316
 21
120.348
 31
0.0
  0
LINE
  8
0
 62
     0
 10
46.4316
 20
120.348
 30
0.0
 11
60.4312
 21
120.348
 31
0.0
  0
LINE
  8
0
 62
     0
 10
60.4312
 20
120.348
 30
0.0
 11
60.4312
 21
121.349
 31
0.0
  0
LINE
  8
0
 62
     0
 10
60.4312
 20
121.349
 30
0.0
 11
61.2316
 21
121.349
 31
0.0
  0
LINE
  8
0
 62
     0
 10
61.2316
 20
121.349
 30
0.0
 11
61.2316
 21
124.448
 31
0.0
  0
LINE
  8
0
 62
     0
 10
61.2316
 20
124.448
 30
0.0
 11
60.4312
 21
124.448
 31
0.0
  0
LINE
  8
0
 62
     0
 10
60.4312
 20
124.448
 30
0.0
 11
60.4312
 21
130.248
 31
0.0
  0
LINE
  8
0
 62
     0
 10
60.4312
 20
130.248
 30
0.0
 11
61.2316
 21
130.248
 31
0.0
  0
LINE
  8
0
 62
     0
 10
61.2316
 20
130.248
 30
0.0
 11
61.2316
 21
133.349
 31
0.0
  0
LINE
  8
0
 62
     0
 10
61.2316
 20
133.349
 30
0.0
 11
60.4312
 21
133.349
 31
0.0
  0
LINE
  8
0
 62
     0
 10
60.4312
 20
133.349
 30
0.0
 11
60.4312
 21
134.349
 31
0.0
  0
LINE
  8
0
 62
     0
 10
60.4312
 20
134.349
 30
0.0
 11
46.4316
 21
134.349
 31
0.0
  0
LINE
  8
0
 62
     0
 10
65.4816
 20
134.349
 30
0.0
 11
65.4816
 21
133.349
 31
0.0
  0
LINE
  8
0
 62
     0
 10
65.4816
 20
133.349
 30
0.0
 11
64.6825
 21
133.349
 31
0.0
  0
LINE
  8
0
 62
     0
 10
64.6825
 20
133.349
 30
0.0
 11
64.6825
 21
130.248
 31
0.0
  0
LINE
  8
0
 62
     0
 10
64.6825
 20
130.248
 30
0.0
 11
65.4816
 21
130.248
 31
0.0
  0
LINE
  8
0
 62
     0
 10
65.4816
 20
130.248
 30
0.0
 11
65.4816
 21
124.448
 31
0.0
  0
LINE
  8
0
 62
     0
 10
65.4816
 20
124.448
 30
0.0
 11
64.6825
 21
124.448
 31
0.0
  0
LINE
  8
0
 62
     0
 10
64.6825
 20
124.448
 30
0.0
 11
64.6825
 21
121.349
 31
0.0
  0
LINE
  8
0
 62
     0
 10
64.6825
 20
121.349
 30
0.0
 11
65.4816
 21
121.349
 31
0.0
  0
LINE
  8
0
 62
     0
 10
65.4816
 20
121.349
 30
0.0
 11
65.4816
 21
120.348
 31
0.0
  0
LINE
  8
0
 62
     0
 10
65.4816
 20
120.348
 30
0.0
 11
79.4812
 21
120.348
 31
0.0
  0
LINE
  8
0
 62
     0
 10
79.4812
 20
120.348
 30
0.0
 11
79.4812
 21
121.349
 31
0.0
  0
LINE
  8
0
 62
     0
 10
79.4812
 20
121.349
 30
0.0
 11
80.2816
 21
121.349
 31
0.0
  0
LINE
  8
0
 62
     0
 10
80.2816
 20
121.349
 30
0.0
 11
80.2816
 21
124.448
 31
0.0
  0
LINE
  8
0
 62
     0
 10
80.2816
 20
124.448
 30
0.0
 11
79.4812
 21
124.448
 31
0.0
  0
LINE
  8
0
 62
     0
 10
79.4812
 20
124.448
 30
0.0
 11
79.4812
 21
130.248
 31
0.0
  0
LINE
  8
0
 62
     0
 10
79.4812
 20
130.248
 30
0.0
 11
80.2816
 21
130.248
 31
0.0
  0
LINE
  8
0
 62
     0
 10
80.2816
 20
130.248
 30
0.0
 11
80.2816
 21
133.349
 31
0.0
  0
LINE
  8
0
 62
     0
 10
80.2816
 20
133.349
 30
0.0
 11
79.4812
 21
133.349
 31
0.0
  0
LINE
  8
0
 62
     0
 10
79.4812
 20
133.349
 30
0.0
 11
79.4812
 21
134.349
 31
0.0
  0
LINE
  8
0
 62
     0
 10
79.4812
 20
134.349
 30
0.0
 11
65.4816
 21
134.349
 31
0.0
  0
LINE
  8
0
 62
     0
 10
84.5316
 20
134.349
 30
0.0
 11
84.5316
 21
133.349
 31
0.0
  0
LINE
  8
0
 62
     0
 10
84.5316
 20
133.349
 30
0.0
 11
83.7325
 21
133.349
 31
0.0
  0
LINE
  8
0
 62
     0
 10
83.7325
 20
133.349
 30
0.0
 11
83.7325
 21
130.248
 31
0.0
  0
LINE
  8
0
 62
     0
 10
83.7325
 20
130.248
 30
0.0
 11
84.5316
 21
130.248
 31
0.0
  0
LINE
  8
0
 62
     0
 10
84.5316
 20
130.248
 30
0.0
 11
84.5316
 21
124.448
 31
0.0
  0
LINE
  8
0
 62
     0
 10
84.5316
 20
124.448
 30
0.0
 11
83.7325
 21
124.448
 31
0.0
  0
LINE
  8
0
 62
     0
 10
83.7325
 20
124.448
 30
0.0
 11
83.7325
 21
121.349
 31
0.0
  0
LINE
  8
0
 62
     0
 10
83.7325
 20
121.349
 30
0.0
 11
84.5316
 21
121.349
 31
0.0
  0
LINE
  8
0
 62
     0
 10
84.5316
 20
121.349
 30
0.0
 11
84.5316
 21
120.348
 31
0.0
  0
LINE
  8
0
 62
     0
 10
84.5316
 20
120.348
 30
0.0
 11
98.5312
 21
120.348
 31
0.0
  0
LINE
  8
0
 62
     0
 10
98.5312
 20
120.348
 30
0.0
 11
98.5312
 21
121.349
 31
0.0
  0
LINE
  8
0
 62
     0
 10
98.5312
 20
121.349
 30
0.0
 11
99.3316
 21
121.349
 31
0.0
  0
LINE
  8
0
 62
     0
 10
99.3316
 20
121.349
 30
0.0
 11
99.3316
 21
124.448
 31
0.0
  0
LINE
  8
0
 62
     0
 10
99.3316
 20
124.448
 30
0.0
 11
98.5312
 21
124.448
 31
0.0
  0
LINE
  8
0
 62
     0
 10
98.5312
 20
124.448
 30
0.0
 11
98.5312
 21
130.248
 31
0.0
  0
LINE
  8
0
 62
     0
 10
98.5312
 20
130.248
 30
0.0
 11
99.3316
 21
130.248
 31
0.0
  0
LINE
  8
0
 62
     0
 10
99.3316
 20
130.248
 30
0.0
 11
99.3316
 21
133.349
 31
0.0
  0
LINE
  8
0
 62
     0
 10
99.3316
 20
133.349
 30
0.0
 11
98.5312
 21
133.349
 31
0.0
  0
LINE
  8
0
 62
     0
 10
98.5312
 20
133.349
 30
0.0
 11
98.5312
 21
134.349
 31
0.0
  0
LINE
  8
0
 62
     0
 10
98.5312
 20
134.349
 30
0.0
 11
84.5316
 21
134.349
 31
0.0
  0
LINE
  8
0
 62
     0
 10
103.582
 20
134.349
 30
0.0
 11
103.582
 21
133.349
 31
0.0
  0
LINE
  8
0
 62
     0
 10
103.582
 20
133.349
 30
0.0
 11
102.783
 21
133.349
 31
0.0
  0
LINE
  8
0
 62
     0
 10
102.783
 20
133.349
 30
0.0
 11
102.783
 21
130.248
 31
0.0
  0
LINE
  8
0
 62
     0
 10
102.783
 20
130.248
 30
0.0
 11
103.582
 21
130.248
 31
0.0
  0
LINE
  8
0
 62
     0
 10
103.582
 20
130.248
 30
0.0
 11
103.582
 21
124.448
 31
0.0
  0
LINE
  8
0
 62
     0
 10
103.582
 20
124.448
 30
0.0
 11
102.783
 21
124.448
 31
0.0
  0
LINE
  8
0
 62
     0
 10
102.783
 20
124.448
 30
0.0
 11
102.783
 21
121.349
 31
0.0
  0
LINE
  8
0
 62
     0
 10
102.783
 20
121.349
 30
0.0
 11
103.582
 21
121.349
 31
0.0
  0
LINE
  8
0
 62
     0
 10
103.582
 20
121.349
 30
0.0
 11
103.582
 21
120.348
 31
0.0
  0
LINE
  8
0
 62
     0
 10
103.582
 20
120.348
 30
0.0
 11
117.581
 21
120.348
 31
0.0
  0
LINE
  8
0
 62
     0
 10
117.581
 20
120.348
 30
0.0
 11
117.581
 21
121.349
 31
0.0
  0
LINE
  8
0
 62
     0
 10
117.581
 20
121.349
 30
0.0
 11
118.382
 21
121.349
 31
0.0
  0
LINE
  8
0
 62
     0
 10
118.382
 20
121.349
 30
0.0
 11
118.382
 21
124.448
 31
0.0
  0
LINE
  8
0
 62
     0
 10
118.382
 20
124.448
 30
0.0
 11
117.581
 21
124.448
 31
0.0
  0
LINE
  8
0
 62
     0
 10
117.581
 20
124.448
 30
0.0
 11
117.581
 21
130.248
 31
0.0
  0
LINE
  8
0
 62
     0
 10
117.581
 20
130.248
 30
0.0
 11
118.382
 21
130.248
 31
0.0
  0
LINE
  8
0
 62
     0
 10
118.382
 20
130.248
 30
0.0
 11
118.382
 21
133.349
 31
0.0
  0
LINE
  8
0
 62
     0
 10
118.382
 20
133.349
 30
0.0
 11
117.581
 21
133.349
 31
0.0
  0
LINE
  8
0
 62
     0
 10
117.581
 20
133.349
 30
0.0
 11
117.581
 21
134.349
 31
0.0
  0
LINE
  8
0
 62
     0
 10
117.581
 20
134.349
 30
0.0
 11
103.582
 21
134.349
 31
0.0
  0
LINE
  8
0
 62
     0
 10
122.632
 20
134.349
 30
0.0
 11
122.632
 21
133.349
 31
0.0
  0
LINE
  8
0
 62
     0
 10
122.632
 20
133.349
 30
0.0
 11
121.833
 21
133.349
 31
0.0
  0
LINE
  8
0
 62
     0
 10
121.833
 20
133.349
 30
0.0
 11
121.833
 21
130.248
 31
0.0
  0
LINE
  8
0
 62
     0
 10
121.833
 20
130.248
 30
0.0
 11
122.632
 21
130.248
 31
0.0
  0
LINE
  8
0
 62
     0
 10
122.632
 20
130.248
 30
0.0
 11
122.632
 21
124.448
 31
0.0
  0
LINE
  8
0
 62
     0
 10
122.632
 20
124.448
 30
0.0
 11
121.833
 21
124.448
 31
0.0
  0
LINE
  8
0
 62
     0
 10
121.833
 20
124.448
 30
0.0
 11
121.833
 21
121.349
 31
0.0
  0
LINE
  8
0
 62
     0
 10
121.833
 20
121.349
 30
0.0
 11
122.632
 21
121.349
 31
0.0
  0
LINE
  8
0
 62
     0
 10
122.632
 20
121.349
 30
0.0
 11
122.632
 21
120.348
 31
0.0
  0
LINE
  8
0
 62
     0
 10
122.632
 20
120.348
 30
0.0
 11
136.631
 21
120.348
 31
0.0
  0
LINE
  8
0
 62
     0
 10
136.631
 20
120.348
 30
0.0
 11
136.631
 21
121.349
 31
0.0
  0
LINE
  8
0
 62
     0
 10
136.631
 20
121.349
 30
0.0
 11
137.432
 21
121.349
 31
0.0
  0
LINE
  8
0
 62
     0
 10
137.432
 20
121.349
 30
0.0
 11
137.432
 21
124.448
 31
0.0
  0
LINE
  8
0
 62
     0
 10
137.432
 20
124.448
 30
0.0
 11
136.631
 21
124.448
 31
0.0
  0
LINE
  8
0
 62
     0
 10
136.631
 20
124.448
 30
0.0
 11
136.631
 21
130.248
 31
0.0
  0
LINE
  8
0
 62
     0
 10
136.631
 20
130.248
 30
0.0
 11
137.432
 21
130.248
 31
0.0
  0
LINE
  8
0
 62
     0
 10
137.432
 20
130.248
 30
0.0
 11
137.432
 21
133.349
 31
0.0
  0
LINE
  8
0
 62
     0
 10
137.432
 20
133.349
 30
0.0
 11
136.631
 21
133.349
 31
0.0
  0
LINE
  8
0
 62
     0
 10
136.631
 20
133.349
 30
0.0
 11
136.631
 21
134.349
 31
0.0
  0
LINE
  8
0
 62
     0
 10
136.631
 20
134.349
 30
0.0
 11
122.632
 21
134.349
 31
0.0
  0
LINE
  8
0
 62
     0
 10
141.682
 20
134.349
 30
0.0
 11
141.682
 21
133.349
 31
0.0
  0
LINE
  8
0
 62
     0
 10
141.682
 20
133.349
 30
0.0
 11
140.883
 21
133.349
 31
0.0
  0
LINE
  8
0
 62
     0
 10
140.883
 20
133.349
 30
0.0
 11
140.883
 21
130.248
 31
0.0
  0
LINE
  8
0
 62
     0
 10
140.883
 20
130.248
 30
0.0
 11
141.682
 21
130.248
 31
0.0
  0
LINE
  8
0
 62
     0
 10
141.682
 20
130.248
 30
0.0
 11
141.682
 21
124.448
 31
0.0
  0
LINE
  8
0
 62
     0
 10
141.682
 20
124.448
 30
0.0
 11
140.883
 21
124.448
 31
0.0
  0
LINE
  8
0
 62
     0
 10
140.883
 20
124.448
 30
0.0
 11
140.883
 21
121.349
 31
0.0
  0
LINE
  8
0
 62
     0
 10
140.883
 20
121.349
 30
0.0
 11
141.682
 21
121.349
 31
0.0
  0
LINE
  8
0
 62
     0
 10
141.682
 20
121.349
 30
0.0
 11
141.682
 21
120.348
 31
0.0
  0
LINE
  8
0
 62
     0
 10
141.682
 20
120.348
 30
0.0
 11
155.681
 21
120.348
 31
0.0
  0
LINE
  8
0
 62
     0
 10
155.681
 20
120.348
 30
0.0
 11
155.681
 21
121.349
 31
0.0
  0
LINE
  8
0
 62
     0
 10
155.681
 20
121.349
 30
0.0
 11
156.482
 21
121.349
 31
0.0
  0
LINE
  8
0
 62
     0
 10
156.482
 20
121.349
 30
0.0
 11
156.482
 21
124.448
 31
0.0
  0
LINE
  8
0
 62
     0
 10
156.482
 20
124.448
 30
0.0
 11
155.681
 21
124.448
 31
0.0
  0
LINE
  8
0
 62
     0
 10
155.681
 20
124.448
 30
0.0
 11
155.681
 21
130.248
 31
0.0
  0
LINE
  8
0
 62
     0
 10
155.681
 20
130.248
 30
0.0
 11
156.482
 21
130.248
 31
0.0
  0
LINE
  8
0
 62
     0
 10
156.482
 20
130.248
 30
0.0
 11
156.482
 21
133.349
 31
0.0
  0
LINE
  8
0
 62
     0
 10
156.482
 20
133.349
 30
0.0
 11
155.681
 21
133.349
 31
0.0
  0
LINE
  8
0
 62
     0
 10
155.681
 20
133.349
 30
0.0
 11
155.681
 21
134.349
 31
0.0
  0
LINE
  8
0
 62
     0
 10
155.681
 20
134.349
 30
0.0
 11
141.682
 21
134.349
 31
0.0
  0
LINE
  8
0
 62
     0
 10
160.732
 20
134.349
 30
0.0
 11
160.732
 21
133.349
 31
0.0
  0
LINE
  8
0
 62
     0
 10
160.732
 20
133.349
 30
0.0
 11
159.933
 21
133.349
 31
0.0
  0
LINE
  8
0
 62
     0
 10
159.933
 20
133.349
 30
0.0
 11
159.933
 21
130.248
 31
0.0
  0
LINE
  8
0
 62
     0
 10
159.933
 20
130.248
 30
0.0
 11
160.732
 21
130.248
 31
0.0
  0
LINE
  8
0
 62
     0
 10
160.732
 20
130.248
 30
0.0
 11
160.732
 21
124.448
 31
0.0
  0
LINE
  8
0
 62
     0
 10
160.732
 20
124.448
 30
0.0
 11
159.933
 21
124.448
 31
0.0
  0
LINE
  8
0
 62
     0
 10
159.933
 20
124.448
 30
0.0
 11
159.933
 21
121.349
 31
0.0
  0
LINE
  8
0
 62
     0
 10
159.933
 20
121.349
 30
0.0
 11
160.732
 21
121.349
 31
0.0
  0
LINE
  8
0
 62
     0
 10
160.732
 20
121.349
 30
0.0
 11
160.732
 21
120.348
 31
0.0
  0
LINE
  8
0
 62
     0
 10
160.732
 20
120.348
 30
0.0
 11
174.731
 21
120.348
 31
0.0
  0
LINE
  8
0
 62
     0
 10
174.731
 20
120.348
 30
0.0
 11
174.731
 21
121.349
 31
0.0
  0
LINE
  8
0
 62
     0
 10
174.731
 20
121.349
 30
0.0
 11
175.532
 21
121.349
 31
0.0
  0
LINE
  8
0
 62
     0
 10
175.532
 20
121.349
 30
0.0
 11
175.532
 21
124.448
 31
0.0
  0
LINE
  8
0
 62
     0
 10
175.532
 20
124.448
 30
0.0
 11
174.731
 21
124.448
 31
0.0
  0
LINE
  8
0
 62
     0
 10
174.731
 20
124.448
 30
0.0
 11
174.731
 21
130.248
 31
0.0
  0
LINE
  8
0
 62
     0
 10
174.731
 20
130.248
 30
0.0
 11
175.532
 21
130.248
 31
0.0
  0
LINE
  8
0
 62
     0
 10
175.532
 20
130.248
 30
0.0
 11
175.532
 21
133.349
 31
0.0
  0
LINE
  8
0
 62
     0
 10
175.532
 20
133.349
 30
0.0
 11
174.731
 21
133.349
 31
0.0
  0
LINE
  8
0
 62
     0
 10
174.731
 20
133.349
 30
0.0
 11
174.731
 21
134.349
 31
0.0
  0
LINE
  8
0
 62
     0
 10
174.731
 20
134.349
 30
0.0
 11
160.732
 21
134.349
 31
0.0
  0
LINE
  8
0
 62
     0
 10
179.782
 20
134.349
 30
0.0
 11
179.782
 21
133.349
 31
0.0
  0
LINE
  8
0
 62
     0
 10
179.782
 20
133.349
 30
0.0
 11
178.983
 21
133.349
 31
0.0
  0
LINE
  8
0
 62
     0
 10
178.983
 20
133.349
 30
0.0
 11
178.983
 21
130.248
 31
0.0
  0
LINE
  8
0
 62
     0
 10
178.983
 20
130.248
 30
0.0
 11
179.782
 21
130.248
 31
0.0
  0
LINE
  8
0
 62
     0
 10
179.782
 20
130.248
 30
0.0
 11
179.782
 21
124.448
 31
0.0
  0
LINE
  8
0
 62
     0
 10
179.782
 20
124.448
 30
0.0
 11
178.983
 21
124.448
 31
0.0
  0
LINE
  8
0
 62
     0
 10
178.983
 20
124.448
 30
0.0
 11
178.983
 21
121.349
 31
0.0
  0
LINE
  8
0
 62
     0
 10
178.983
 20
121.349
 30
0.0
 11
179.782
 21
121.349
 31
0.0
  0
LINE
  8
0
 62
     0
 10
179.782
 20
121.349
 30
0.0
 11
179.782
 21
120.348
 31
0.0
  0
LINE
  8
0
 62
     0
 10
179.782
 20
120.348
 30
0.0
 11
193.781
 21
120.348
 31
0.0
  0
LINE
  8
0
 62
     0
 10
193.781
 20
120.348
 30
0.0
 11
193.781
 21
121.349
 31
0.0
  0
LINE
  8
0
 62
     0
 10
193.781
 20
121.349
 30
0.0
 11
194.582
 21
121.349
 31
0.0
  0
LINE
  8
0
 62
     0
 10
194.582
 20
121.349
 30
0.0
 11
194.582
 21
124.448
 31
0.0
  0
LINE
  8
0
 62
     0
 10
194.582
 20
124.448
 30
0.0
 11
193.781
 21
124.448
 31
0.0
  0
LINE
  8
0
 62
     0
 10
193.781
 20
124.448
 30
0.0
 11
193.781
 21
130.248
 31
0.0
  0
LINE
  8
0
 62
     0
 10
193.781
 20
130.248
 30
0.0
 11
194.582
 21
130.248
 31
0.0
  0
LINE
  8
0
 62
     0
 10
194.582
 20
130.248
 30
0.0
 11
194.582
 21
133.349
 31
0.0
  0
LINE
  8
0
 62
     0
 10
194.582
 20
133.349
 30
0.0
 11
193.781
 21
133.349
 31
0.0
  0
LINE
  8
0
 62
     0
 10
193.781
 20
133.349
 30
0.0
 11
193.781
 21
134.349
 31
0.0
  0
LINE
  8
0
 62
     0
 10
193.781
 20
134.349
 30
0.0
 11
179.782
 21
134.349
 31
0.0
  0
LINE
  8
0
 62
     0
 10
198.832
 20
134.349
 30
0.0
 11
198.832
 21
133.349
 31
0.0
  0
LINE
  8
0
 62
     0
 10
198.832
 20
133.349
 30
0.0
 11
198.033
 21
133.349
 31
0.0
  0
LINE
  8
0
 62
     0
 10
198.033
 20
133.349
 30
0.0
 11
198.033
 21
130.248
 31
0.0
  0
LINE
  8
0
 62
     0
 10
198.033
 20
130.248
 30
0.0
 11
198.832
 21
130.248
 31
0.0
  0
LINE
  8
0
 62
     0
 10
198.832
 20
130.248
 30
0.0
 11
198.832
 21
124.448
 31
0.0
  0
LINE
  8
0
 62
     0
 10
198.832
 20
124.448
 30
0.0
 11
198.033
 21
124.448
 31
0.0
  0
LINE
  8
0
 62
     0
 10
198.033
 20
124.448
 30
0.0
 11
198.033
 21
121.349
 31
0.0
  0
LINE
  8
0
 62
     0
 10
198.033
 20
121.349
 30
0.0
 11
198.832
 21
121.349
 31
0.0
  0
LINE
  8
0
 62
     0
 10
198.832
 20
121.349
 30
0.0
 11
198.832
 21
120.348
 31
0.0
  0
LINE
  8
0
 62
     0
 10
198.832
 20
120.348
 30
0.0
 11
212.831
 21
120.348
 31
0.0
  0
LINE
  8
0
 62
     0
 10
212.831
 20
120.348
 30
0.0
 11
212.831
 21
121.349
 31
0.0
  0
LINE
  8
0
 62
     0
 10
212.831
 20
121.349
 30
0.0
 11
213.632
 21
121.349
 31
0.0
  0
LINE
  8
0
 62
     0
 10
213.632
 20
121.349
 30
0.0
 11
213.632
 21
124.448
 31
0.0
  0
LINE
  8
0
 62
     0
 10
213.632
 20
124.448
 30
0.0
 11
212.831
 21
124.448
 31
0.0
  0
LINE
  8
0
 62
     0
 10
212.831
 20
124.448
 30
0.0
 11
212.831
 21
130.248
 31
0.0
  0
LINE
  8
0
 62
     0
 10
212.831
 20
130.248
 30
0.0
 11
213.632
 21
130.248
 31
0.0
  0
LINE
  8
0
 62
     0
 10
213.632
 20
130.248
 30
0.0
 11
213.632
 21
133.349
 31
0.0
  0
LINE
  8
0
 62
     0
 10
213.632
 20
133.349
 30
0.0
 11
212.831
 21
133.349
 31
0.0
  0
LINE
  8
0
 62
     0
 10
212.831
 20
133.349
 30
0.0
 11
212.831
 21
134.349
 31
0.0
  0
LINE
  8
0
 62
     0
 10
212.831
 20
134.349
 30
0.0
 11
198.832
 21
134.349
 31
0.0
  0
ENDSEC
  0
EOF
