  0
SECTION
  2
HEADER
  9
$ACADVER
  1
AC1009
  9
$EXTMIN
 10
0.0
 20
0.0
 30
0.0
  9
$EXTMAX
 10
1000.0
 20
1000.0
 30
0.0
  9
$FILLMODE
 70
 0
  9
$SPLFRAME
 70
 1
  0
ENDSEC
  0
SECTION
  2
TABLES
  0
TABLE
  2
LAYER
 70
1
  0
LAYER
  2
0
 70
     0
 62
     7
  6
CONTINUOUS
  0
ENDTAB
  0
ENDSEC
  0
SECTION
  2
ENTITIES
  0
LINE
  8
0
 62
     0
 10
220.358
 20
146.874
 30
0.0
 11
220.749
 21
146.859
 31
0.0
  0
LINE
  8
0
 62
     0
 10
220.749
 20
146.859
 30
0.0
 11
221.139
 21
146.813
 31
0.0
  0
LINE
  8
0
 62
     0
 10
221.139
 20
146.813
 30
0.0
 11
221.525
 21
146.736
 31
0.0
  0
LINE
  8
0
 62
     0
 10
221.525
 20
146.736
 30
0.0
 11
221.903
 21
146.63
 31
0.0
  0
LINE
  8
0
 62
     0
 10
221.903
 20
146.63
 30
0.0
 11
222.271
 21
146.494
 31
0.0
  0
LINE
  8
0
 62
     0
 10
222.271
 20
146.494
 30
0.0
 11
222.627
 21
146.33
 31
0.0
  0
LINE
  8
0
 62
     0
 10
222.627
 20
146.33
 30
0.0
 11
222.969
 21
146.138
 31
0.0
  0
LINE
  8
0
 62
     0
 10
222.969
 20
146.138
 30
0.0
 11
223.297
 21
145.921
 31
0.0
  0
LINE
  8
0
 62
     0
 10
223.297
 20
145.921
 30
0.0
 11
223.605
 21
145.678
 31
0.0
  0
LINE
  8
0
 62
     0
 10
223.605
 20
145.678
 30
0.0
 11
223.894
 21
145.411
 31
0.0
  0
LINE
  8
0
 62
     0
 10
223.894
 20
145.411
 30
0.0
 11
224.16
 21
145.123
 31
0.0
  0
LINE
  8
0
 62
     0
 10
224.16
 20
145.123
 30
0.0
 11
224.403
 21
144.814
 31
0.0
  0
LINE
  8
0
 62
     0
 10
224.403
 20
144.814
 30
0.0
 11
224.62
 21
144.487
 31
0.0
  0
LINE
  8
0
 62
     0
 10
224.62
 20
144.487
 30
0.0
 11
224.813
 21
144.144
 31
0.0
  0
LINE
  8
0
 62
     0
 10
224.813
 20
144.144
 30
0.0
 11
224.977
 21
143.789
 31
0.0
  0
LINE
  8
0
 62
     0
 10
224.977
 20
143.789
 30
0.0
 11
225.112
 21
143.421
 31
0.0
  0
LINE
  8
0
 62
     0
 10
225.112
 20
143.421
 30
0.0
 11
225.22
 21
143.042
 31
0.0
  0
LINE
  8
0
 62
     0
 10
225.22
 20
143.042
 30
0.0
 11
225.296
 21
142.657
 31
0.0
  0
LINE
  8
0
 62
     0
 10
225.296
 20
142.657
 30
0.0
 11
225.342
 21
142.267
 31
0.0
  0
LINE
  8
0
 62
     0
 10
225.342
 20
142.267
 30
0.0
 11
225.358
 21
141.875
 31
0.0
  0
LINE
  8
0
 62
     0
 10
225.358
 20
141.875
 30
0.0
 11
225.358
 21
5.09736
 31
0.0
  0
LINE
  8
0
 62
     0
 10
225.358
 20
5.09736
 30
0.0
 11
225.342
 21
4.70598
 31
0.0
  0
LINE
  8
0
 62
     0
 10
225.342
 20
4.70598
 30
0.0
 11
225.296
 21
4.31602
 31
0.0
  0
LINE
  8
0
 62
     0
 10
225.296
 20
4.31602
 30
0.0
 11
225.22
 21
3.93016
 31
0.0
  0
LINE
  8
0
 62
     0
 10
225.22
 20
3.93016
 30
0.0
 11
225.112
 21
3.55258
 31
0.0
  0
LINE
  8
0
 62
     0
 10
225.112
 20
3.55258
 30
0.0
 11
224.977
 21
3.18464
 31
0.0
  0
LINE
  8
0
 62
     0
 10
224.977
 20
3.18464
 30
0.0
 11
224.813
 21
2.82774
 31
0.0
  0
LINE
  8
0
 62
     0
 10
224.813
 20
2.82774
 30
0.0
 11
224.62
 21
2.48598
 31
0.0
  0
LINE
  8
0
 62
     0
 10
224.62
 20
2.48598
 30
0.0
 11
224.403
 21
2.15801
 31
0.0
  0
LINE
  8
0
 62
     0
 10
224.403
 20
2.15801
 30
0.0
 11
224.16
 21
1.8507
 31
0.0
  0
LINE
  8
0
 62
     0
 10
224.16
 20
1.8507
 30
0.0
 11
223.894
 21
1.56132
 31
0.0
  0
LINE
  8
0
 62
     0
 10
223.894
 20
1.56132
 30
0.0
 11
223.605
 21
1.29536
 31
0.0
  0
LINE
  8
0
 62
     0
 10
223.605
 20
1.29536
 30
0.0
 11
223.297
 21
1.05282
 31
0.0
  0
LINE
  8
0
 62
     0
 10
223.297
 20
1.05282
 30
0.0
 11
222.969
 21
0.835092
 31
0.0
  0
LINE
  8
0
 62
     0
 10
222.969
 20
0.835092
 30
0.0
 11
222.627
 21
0.642165
 31
0.0
  0
LINE
  8
0
 62
     0
 10
222.627
 20
0.642165
 30
0.0
 11
222.271
 21
0.47818
 31
0.0
  0
LINE
  8
0
 62
     0
 10
222.271
 20
0.47818
 30
0.0
 11
221.903
 21
0.341753
 31
0.0
  0
LINE
  8
0
 62
     0
 10
221.903
 20
0.341753
 30
0.0
 11
221.525
 21
0.235645
 31
0.0
  0
LINE
  8
0
 62
     0
 10
221.525
 20
0.235645
 30
0.0
 11
221.139
 21
0.159852
 31
0.0
  0
LINE
  8
0
 62
     0
 10
221.139
 20
0.159852
 30
0.0
 11
220.749
 21
0.112999
 31
0.0
  0
LINE
  8
0
 62
     0
 10
220.749
 20
0.112999
 30
0.0
 11
220.358
 21
0.0978408
 31
0.0
  0
LINE
  8
0
 62
     0
 10
220.358
 20
0.0978408
 30
0.0
 11
5.0946
 21
0.0978408
 31
0.0
  0
LINE
  8
0
 62
     0
 10
5.0946
 20
0.0978408
 30
0.0
 11
4.70186
 21
0.112999
 31
0.0
  0
LINE
  8
0
 62
     0
 10
4.70186
 20
0.112999
 30
0.0
 11
4.3119
 21
0.159852
 31
0.0
  0
LINE
  8
0
 62
     0
 10
4.3119
 20
0.159852
 30
0.0
 11
3.9274
 21
0.235645
 31
0.0
  0
LINE
  8
0
 62
     0
 10
3.9274
 20
0.235645
 30
0.0
 11
3.54845
 21
0.341753
 31
0.0
  0
LINE
  8
0
 62
     0
 10
3.54845
 20
0.341753
 30
0.0
 11
3.18051
 21
0.47818
 31
0.0
  0
LINE
  8
0
 62
     0
 10
3.18051
 20
0.47818
 30
0.0
 11
2.82498
 21
0.642165
 31
0.0
  0
LINE
  8
0
 62
     0
 10
2.82498
 20
0.642165
 30
0.0
 11
2.48185
 21
0.835092
 31
0.0
  0
LINE
  8
0
 62
     0
 10
2.48185
 20
0.835092
 30
0.0
 11
2.15525
 21
1.05282
 31
0.0
  0
LINE
  8
0
 62
     0
 10
2.15525
 20
1.05282
 30
0.0
 11
1.84657
 21
1.29536
 31
0.0
  0
LINE
  8
0
 62
     0
 10
1.84657
 20
1.29536
 30
0.0
 11
1.55856
 21
1.56132
 31
0.0
  0
LINE
  8
0
 62
     0
 10
1.55856
 20
1.56132
 30
0.0
 11
1.29122
 21
1.8507
 31
0.0
  0
LINE
  8
0
 62
     0
 10
1.29122
 20
1.8507
 30
0.0
 11
1.04869
 21
2.15801
 31
0.0
  0
LINE
  8
0
 62
     0
 10
1.04869
 20
2.15801
 30
0.0
 11
0.830957
 21
2.48598
 31
0.0
  0
LINE
  8
0
 62
     0
 10
0.830957
 20
2.48598
 30
0.0
 11
0.63941
 21
2.82774
 31
0.0
  0
LINE
  8
0
 62
     0
 10
0.63941
 20
2.82774
 30
0.0
 11
0.475424
 21
3.18464
 31
0.0
  0
LINE
  8
0
 62
     0
 10
0.475424
 20
3.18464
 30
0.0
 11
0.338998
 21
3.55258
 31
0.0
  0
LINE
  8
0
 62
     0
 10
0.338998
 20
3.55258
 30
0.0
 11
0.232888
 21
3.93016
 31
0.0
  0
LINE
  8
0
 62
     0
 10
0.232888
 20
3.93016
 30
0.0
 11
0.155718
 21
4.31602
 31
0.0
  0
LINE
  8
0
 62
     0
 10
0.155718
 20
4.31602
 30
0.0
 11
0.110243
 21
4.70598
 31
0.0
  0
LINE
  8
0
 62
     0
 10
0.110243
 20
4.70598
 30
0.0
 11
0.0937066
 21
5.09736
 31
0.0
  0
LINE
  8
0
 62
     0
 10
0.0937066
 20
5.09736
 30
0.0
 11
0.0950846
 21
141.875
 31
0.0
  0
LINE
  8
0
 62
     0
 10
0.0950846
 20
141.875
 30
0.0
 11
0.110243
 21
142.267
 31
0.0
  0
LINE
  8
0
 62
     0
 10
0.110243
 20
142.267
 30
0.0
 11
0.155718
 21
142.657
 31
0.0
  0
LINE
  8
0
 62
     0
 10
0.155718
 20
142.657
 30
0.0
 11
0.232888
 21
143.042
 31
0.0
  0
LINE
  8
0
 62
     0
 10
0.232888
 20
143.042
 30
0.0
 11
0.338998
 21
143.421
 31
0.0
  0
LINE
  8
0
 62
     0
 10
0.338998
 20
143.421
 30
0.0
 11
0.475424
 21
143.789
 31
0.0
  0
LINE
  8
0
 62
     0
 10
0.475424
 20
143.789
 30
0.0
 11
0.63941
 21
144.144
 31
0.0
  0
LINE
  8
0
 62
     0
 10
0.63941
 20
144.144
 30
0.0
 11
0.830957
 21
144.487
 31
0.0
  0
LINE
  8
0
 62
     0
 10
0.830957
 20
144.487
 30
0.0
 11
1.04869
 21
144.814
 31
0.0
  0
LINE
  8
0
 62
     0
 10
1.04869
 20
144.814
 30
0.0
 11
1.29122
 21
145.123
 31
0.0
  0
LINE
  8
0
 62
     0
 10
1.29122
 20
145.123
 30
0.0
 11
1.55856
 21
145.411
 31
0.0
  0
LINE
  8
0
 62
     0
 10
1.55856
 20
145.411
 30
0.0
 11
1.84657
 21
145.678
 31
0.0
  0
LINE
  8
0
 62
     0
 10
1.84657
 20
145.678
 30
0.0
 11
2.15525
 21
145.921
 31
0.0
  0
LINE
  8
0
 62
     0
 10
2.15525
 20
145.921
 30
0.0
 11
2.48185
 21
146.138
 31
0.0
  0
LINE
  8
0
 62
     0
 10
2.48185
 20
146.138
 30
0.0
 11
2.82498
 21
146.33
 31
0.0
  0
LINE
  8
0
 62
     0
 10
2.82498
 20
146.33
 30
0.0
 11
3.18051
 21
146.494
 31
0.0
  0
LINE
  8
0
 62
     0
 10
3.18051
 20
146.494
 30
0.0
 11
3.54845
 21
146.63
 31
0.0
  0
LINE
  8
0
 62
     0
 10
3.54845
 20
146.63
 30
0.0
 11
3.9274
 21
146.736
 31
0.0
  0
LINE
  8
0
 62
     0
 10
3.9274
 20
146.736
 30
0.0
 11
4.3119
 21
146.813
 31
0.0
  0
LINE
  8
0
 62
     0
 10
4.3119
 20
146.813
 30
0.0
 11
4.70186
 21
146.859
 31
0.0
  0
LINE
  8
0
 62
     0
 10
4.70186
 20
146.859
 30
0.0
 11
5.0946
 21
146.875
 31
0.0
  0
LINE
  8
0
 62
     0
 10
5.0946
 20
146.875
 30
0.0
 11
220.358
 21
146.874
 31
0.0
  0
ENDSEC
  0
EOF
