  0
SECTION
  2
HEADER
  9
$ACADVER
  1
AC1009
  9
$EXTMIN
 10
0.0
 20
0.0
 30
0.0
  9
$EXTMAX
 10
1000.0
 20
1000.0
 30
0.0
  9
$FILLMODE
 70
 0
  9
$SPLFRAME
 70
 1
  0
ENDSEC
  0
SECTION
  2
TABLES
  0
TABLE
  2
LAYER
 70
1
  0
LAYER
  2
0
 70
     0
 62
     7
  6
CONTINUOUS
  0
ENDTAB
  0
ENDSEC
  0
SECTION
  2
ENTITIES
  0
LINE
  8
0
 62
     0
 10
227.857
 20
156.873
 30
0.0
 11
228.446
 21
156.851
 31
0.0
  0
LINE
  8
0
 62
     0
 10
228.446
 20
156.851
 30
0.0
 11
229.031
 21
156.781
 31
0.0
  0
LINE
  8
0
 62
     0
 10
229.031
 20
156.781
 30
0.0
 11
229.609
 21
156.668
 31
0.0
  0
LINE
  8
0
 62
     0
 10
229.609
 20
156.668
 30
0.0
 11
230.175
 21
156.507
 31
0.0
  0
LINE
  8
0
 62
     0
 10
230.175
 20
156.507
 30
0.0
 11
230.728
 21
156.304
 31
0.0
  0
LINE
  8
0
 62
     0
 10
230.728
 20
156.304
 30
0.0
 11
231.262
 21
156.056
 31
0.0
  0
LINE
  8
0
 62
     0
 10
231.262
 20
156.056
 30
0.0
 11
231.776
 21
155.768
 31
0.0
  0
LINE
  8
0
 62
     0
 10
231.776
 20
155.768
 30
0.0
 11
232.266
 21
155.441
 31
0.0
  0
LINE
  8
0
 62
     0
 10
232.266
 20
155.441
 30
0.0
 11
232.729
 21
155.078
 31
0.0
  0
LINE
  8
0
 62
     0
 10
232.729
 20
155.078
 30
0.0
 11
233.161
 21
154.678
 31
0.0
  0
LINE
  8
0
 62
     0
 10
233.161
 20
154.678
 30
0.0
 11
233.561
 21
154.244
 31
0.0
  0
LINE
  8
0
 62
     0
 10
233.561
 20
154.244
 30
0.0
 11
233.926
 21
153.782
 31
0.0
  0
LINE
  8
0
 62
     0
 10
233.926
 20
153.782
 30
0.0
 11
234.253
 21
153.293
 31
0.0
  0
LINE
  8
0
 62
     0
 10
234.253
 20
153.293
 30
0.0
 11
234.541
 21
152.779
 31
0.0
  0
LINE
  8
0
 62
     0
 10
234.541
 20
152.779
 30
0.0
 11
234.787
 21
152.244
 31
0.0
  0
LINE
  8
0
 62
     0
 10
234.787
 20
152.244
 30
0.0
 11
234.991
 21
151.692
 31
0.0
  0
LINE
  8
0
 62
     0
 10
234.991
 20
151.692
 30
0.0
 11
235.151
 21
151.125
 31
0.0
  0
LINE
  8
0
 62
     0
 10
235.151
 20
151.125
 30
0.0
 11
235.266
 21
150.548
 31
0.0
  0
LINE
  8
0
 62
     0
 10
235.266
 20
150.548
 30
0.0
 11
235.335
 21
149.962
 31
0.0
  0
LINE
  8
0
 62
     0
 10
235.335
 20
149.962
 30
0.0
 11
235.358
 21
149.374
 31
0.0
  0
LINE
  8
0
 62
     0
 10
235.358
 20
149.374
 30
0.0
 11
235.358
 21
7.59714
 31
0.0
  0
LINE
  8
0
 62
     0
 10
235.358
 20
7.59714
 30
0.0
 11
235.335
 21
7.00871
 31
0.0
  0
LINE
  8
0
 62
     0
 10
235.335
 20
7.00871
 30
0.0
 11
235.266
 21
6.42303
 31
0.0
  0
LINE
  8
0
 62
     0
 10
235.266
 20
6.42303
 30
0.0
 11
235.151
 21
5.84563
 31
0.0
  0
LINE
  8
0
 62
     0
 10
235.151
 20
5.84563
 30
0.0
 11
234.991
 21
5.27787
 31
0.0
  0
LINE
  8
0
 62
     0
 10
234.991
 20
5.27787
 30
0.0
 11
234.787
 21
4.72666
 31
0.0
  0
LINE
  8
0
 62
     0
 10
234.787
 20
4.72666
 30
0.0
 11
234.541
 21
4.19199
 31
0.0
  0
LINE
  8
0
 62
     0
 10
234.541
 20
4.19199
 30
0.0
 11
234.253
 21
3.67937
 31
0.0
  0
LINE
  8
0
 62
     0
 10
234.253
 20
3.67937
 30
0.0
 11
233.926
 21
3.18878
 31
0.0
  0
LINE
  8
0
 62
     0
 10
233.926
 20
3.18878
 30
0.0
 11
233.561
 21
2.72576
 31
0.0
  0
LINE
  8
0
 62
     0
 10
233.561
 20
2.72576
 30
0.0
 11
233.161
 21
2.29306
 31
0.0
  0
LINE
  8
0
 62
     0
 10
233.161
 20
2.29306
 30
0.0
 11
232.729
 21
1.89343
 31
0.0
  0
LINE
  8
0
 62
     0
 10
232.729
 20
1.89343
 30
0.0
 11
232.266
 21
1.52824
 31
0.0
  0
LINE
  8
0
 62
     0
 10
232.266
 20
1.52824
 30
0.0
 11
231.776
 21
1.20165
 31
0.0
  0
LINE
  8
0
 62
     0
 10
231.776
 20
1.20165
 30
0.0
 11
231.262
 21
0.913638
 31
0.0
  0
LINE
  8
0
 62
     0
 10
231.262
 20
0.913638
 30
0.0
 11
230.728
 21
0.666972
 31
0.0
  0
LINE
  8
0
 62
     0
 10
230.728
 20
0.666972
 30
0.0
 11
230.175
 21
0.463021
 31
0.0
  0
LINE
  8
0
 62
     0
 10
230.175
 20
0.463021
 30
0.0
 11
229.609
 21
0.303168
 31
0.0
  0
LINE
  8
0
 62
     0
 10
229.609
 20
0.303168
 30
0.0
 11
229.031
 21
0.188791
 31
0.0
  0
LINE
  8
0
 62
     0
 10
229.031
 20
0.188791
 30
0.0
 11
228.446
 21
0.119889
 31
0.0
  0
LINE
  8
0
 62
     0
 10
228.446
 20
0.119889
 30
0.0
 11
227.857
 21
0.0964629
 31
0.0
  0
LINE
  8
0
 62
     0
 10
227.857
 20
0.0964629
 30
0.0
 11
7.59435
 21
0.0964629
 31
0.0
  0
LINE
  8
0
 62
     0
 10
7.59435
 20
0.0964629
 30
0.0
 11
7.00595
 21
0.119889
 31
0.0
  0
LINE
  8
0
 62
     0
 10
7.00595
 20
0.119889
 30
0.0
 11
6.42027
 21
0.188791
 31
0.0
  0
LINE
  8
0
 62
     0
 10
6.42027
 20
0.188791
 30
0.0
 11
5.84426
 21
0.303168
 31
0.0
  0
LINE
  8
0
 62
     0
 10
5.84426
 20
0.303168
 30
0.0
 11
5.2765
 21
0.463021
 31
0.0
  0
LINE
  8
0
 62
     0
 10
5.2765
 20
0.463021
 30
0.0
 11
4.72391
 21
0.666972
 31
0.0
  0
LINE
  8
0
 62
     0
 10
4.72391
 20
0.666972
 30
0.0
 11
4.18924
 21
0.913638
 31
0.0
  0
LINE
  8
0
 62
     0
 10
4.18924
 20
0.913638
 30
0.0
 11
3.67524
 21
1.20165
 31
0.0
  0
LINE
  8
0
 62
     0
 10
3.67524
 20
1.20165
 30
0.0
 11
3.18602
 21
1.52824
 31
0.0
  0
LINE
  8
0
 62
     0
 10
3.18602
 20
1.52824
 30
0.0
 11
2.72438
 21
1.89343
 31
0.0
  0
LINE
  8
0
 62
     0
 10
2.72438
 20
1.89343
 30
0.0
 11
2.2903
 21
2.29306
 31
0.0
  0
LINE
  8
0
 62
     0
 10
2.2903
 20
2.29306
 30
0.0
 11
1.89067
 21
2.72576
 31
0.0
  0
LINE
  8
0
 62
     0
 10
1.89067
 20
2.72576
 30
0.0
 11
1.52687
 21
3.18878
 31
0.0
  0
LINE
  8
0
 62
     0
 10
1.52687
 20
3.18878
 30
0.0
 11
1.20027
 21
3.67937
 31
0.0
  0
LINE
  8
0
 62
     0
 10
1.20027
 20
3.67937
 30
0.0
 11
0.912262
 21
4.19199
 31
0.0
  0
LINE
  8
0
 62
     0
 10
0.912262
 20
4.19199
 30
0.0
 11
0.664214
 21
4.72666
 31
0.0
  0
LINE
  8
0
 62
     0
 10
0.664214
 20
4.72666
 30
0.0
 11
0.461641
 21
5.27787
 31
0.0
  0
LINE
  8
0
 62
     0
 10
0.461641
 20
5.27787
 30
0.0
 11
0.30179
 21
5.84563
 31
0.0
  0
LINE
  8
0
 62
     0
 10
0.30179
 20
5.84563
 30
0.0
 11
0.187413
 21
6.42303
 31
0.0
  0
LINE
  8
0
 62
     0
 10
0.187413
 20
6.42303
 30
0.0
 11
0.117133
 21
7.00871
 31
0.0
  0
LINE
  8
0
 62
     0
 10
0.117133
 20
7.00871
 30
0.0
 11
0.0937066
 21
7.59714
 31
0.0
  0
LINE
  8
0
 62
     0
 10
0.0937066
 20
7.59714
 30
0.0
 11
0.0950846
 21
149.374
 31
0.0
  0
LINE
  8
0
 62
     0
 10
0.0950846
 20
149.374
 30
0.0
 11
0.117133
 21
149.962
 31
0.0
  0
LINE
  8
0
 62
     0
 10
0.117133
 20
149.962
 30
0.0
 11
0.187413
 21
150.548
 31
0.0
  0
LINE
  8
0
 62
     0
 10
0.187413
 20
150.548
 30
0.0
 11
0.30179
 21
151.125
 31
0.0
  0
LINE
  8
0
 62
     0
 10
0.30179
 20
151.125
 30
0.0
 11
0.461641
 21
151.692
 31
0.0
  0
LINE
  8
0
 62
     0
 10
0.461641
 20
151.692
 30
0.0
 11
0.664214
 21
152.244
 31
0.0
  0
LINE
  8
0
 62
     0
 10
0.664214
 20
152.244
 30
0.0
 11
0.912262
 21
152.779
 31
0.0
  0
LINE
  8
0
 62
     0
 10
0.912262
 20
152.779
 30
0.0
 11
1.20027
 21
153.293
 31
0.0
  0
LINE
  8
0
 62
     0
 10
1.20027
 20
153.293
 30
0.0
 11
1.52687
 21
153.782
 31
0.0
  0
LINE
  8
0
 62
     0
 10
1.52687
 20
153.782
 30
0.0
 11
1.89067
 21
154.244
 31
0.0
  0
LINE
  8
0
 62
     0
 10
1.89067
 20
154.244
 30
0.0
 11
2.2903
 21
154.678
 31
0.0
  0
LINE
  8
0
 62
     0
 10
2.2903
 20
154.678
 30
0.0
 11
2.72438
 21
155.078
 31
0.0
  0
LINE
  8
0
 62
     0
 10
2.72438
 20
155.078
 30
0.0
 11
3.18602
 21
155.441
 31
0.0
  0
LINE
  8
0
 62
     0
 10
3.18602
 20
155.441
 30
0.0
 11
3.67524
 21
155.768
 31
0.0
  0
LINE
  8
0
 62
     0
 10
3.67524
 20
155.768
 30
0.0
 11
4.18924
 21
156.056
 31
0.0
  0
LINE
  8
0
 62
     0
 10
4.18924
 20
156.056
 30
0.0
 11
4.72391
 21
156.304
 31
0.0
  0
LINE
  8
0
 62
     0
 10
4.72391
 20
156.304
 30
0.0
 11
5.2765
 21
156.507
 31
0.0
  0
LINE
  8
0
 62
     0
 10
5.2765
 20
156.507
 30
0.0
 11
5.84426
 21
156.668
 31
0.0
  0
LINE
  8
0
 62
     0
 10
5.84426
 20
156.668
 30
0.0
 11
6.42027
 21
156.781
 31
0.0
  0
LINE
  8
0
 62
     0
 10
6.42027
 20
156.781
 30
0.0
 11
7.00595
 21
156.851
 31
0.0
  0
LINE
  8
0
 62
     0
 10
7.00595
 20
156.851
 30
0.0
 11
7.59435
 21
156.875
 31
0.0
  0
LINE
  8
0
 62
     0
 10
7.59435
 20
156.875
 30
0.0
 11
227.857
 21
156.873
 31
0.0
  0
ENDSEC
  0
EOF
