<?xml version="1.0"?>
<!-- Generated by SVGo -->
<svg width="273.839mm" height="169.064mm"
     viewBox="0.000 0.000 273.839 169.064"
     xmlns="http://www.w3.org/2000/svg" 
     xmlns:xlink="http://www.w3.org/1999/xlink">
<polygon points="261.339,5.001 261.927,5.024 262.512,5.093 263.090,5.208 263.657,5.368 264.209,5.571 264.744,5.818 265.258,6.106 265.747,6.433 266.210,6.797 266.642,7.197 267.042,7.630 267.407,8.091 267.734,8.582 268.022,9.096 268.268,9.630 268.472,10.183 268.632,10.750 268.747,11.327 268.816,11.912 268.839,12.501 268.839,156.564 268.816,157.152 268.747,157.737 268.632,158.315 268.472,158.882 268.268,159.434 268.022,159.969 267.734,160.483 267.407,160.972 267.042,161.435 266.642,161.867 266.210,162.267 265.747,162.632 265.258,162.959 264.744,163.247 264.209,163.493 263.657,163.697 263.090,163.857 262.512,163.972 261.927,164.041 261.339,164.064 12.501,164.064 11.912,164.041 11.327,163.972 10.750,163.857 10.183,163.697 9.630,163.493 9.096,163.247 8.582,162.959 8.091,162.632 7.630,162.267 7.197,161.867 6.797,161.435 6.433,160.972 6.106,160.483 5.818,159.969 5.571,159.434 5.368,158.882 5.208,158.315 5.093,157.737 5.024,157.152 5.000,156.564 5.001,12.501 5.024,11.912 5.093,11.327 5.208,10.750 5.368,10.183 5.571,9.630 5.818,9.096 6.106,8.582 6.433,8.091 6.797,7.630 7.197,7.197 7.630,6.797 8.091,6.433 8.582,6.106 9.096,5.818 9.630,5.571 10.183,5.368 10.750,5.208 11.327,5.093 11.912,5.024 12.501,5.000" style="fill:none;stroke-width:0.050000mm;stroke:black"/>
<polygon points="257.912,151.211 257.076,151.637 256.412,152.301 255.986,153.137 255.839,154.064 255.986,154.991 256.412,155.827 257.076,156.491 257.912,156.917 258.839,157.064 259.766,156.917 260.602,156.491 261.266,155.827 261.691,154.991 261.839,154.064 261.691,153.137 261.266,152.301 260.602,151.637 259.766,151.211 258.839,151.064" style="fill:none;stroke-width:0.050000mm;stroke:black"/>
<polygon points="14.073,151.211 13.237,151.637 12.573,152.301 12.147,153.137 12.000,154.064 12.147,154.991 12.573,155.827 13.237,156.491 14.073,156.917 15.001,157.064 15.928,156.917 16.764,156.491 17.428,155.827 17.854,154.991 18.001,154.064 17.854,153.137 17.428,152.301 16.764,151.637 15.928,151.211 15.001,151.064" style="fill:none;stroke-width:0.050000mm;stroke:black"/>
<polygon points="44.385,127.538 44.385,128.538 43.585,128.538 43.585,131.638 44.385,131.638 44.385,132.238 42.860,132.238 42.860,129.008 41.135,129.008 41.135,128.087 37.835,128.087 37.835,129.008 36.110,129.008 36.110,132.238 35.285,132.238 35.285,135.038 36.110,135.038 36.110,141.308 37.835,141.308 37.835,142.288 41.135,142.288 41.135,141.308 42.860,141.308 42.860,136.838 44.385,136.838 44.385,137.438 43.585,137.438 43.585,140.538 44.385,140.538 44.385,141.538 58.385,141.538 58.385,140.538 59.185,140.538 59.185,137.438 58.385,137.438 58.385,136.838 59.910,136.838 59.910,141.308 61.635,141.308 61.635,142.288 64.935,142.288 64.935,141.308 66.660,141.308 66.660,135.038 67.485,135.038 67.485,132.238 66.660,132.238 66.660,129.008 64.935,129.008 64.935,128.087 61.635,128.087 61.635,129.008 59.910,129.008 59.910,132.238 58.385,132.238 58.385,131.638 59.185,131.638 59.185,128.538 58.385,128.538 58.385,127.538" style="fill:none;stroke-width:0.050000mm;stroke:black"/>
<polygon points="84.676,127.538 84.676,128.538 83.876,128.538 83.876,131.638 84.676,131.638 84.676,137.438 83.876,137.438 83.876,140.538 84.676,140.538 84.676,141.538 98.676,141.538 98.676,140.538 99.476,140.538 99.476,137.438 98.676,137.438 98.676,131.638 99.476,131.638 99.476,128.538 98.676,128.538 98.676,127.538" style="fill:none;stroke-width:0.050000mm;stroke:black"/>
<polygon points="110.869,127.538 110.869,128.538 110.069,128.538 110.069,131.638 110.869,131.638 110.869,137.438 110.069,137.438 110.069,140.538 110.869,140.538 110.869,141.538 124.869,141.538 124.869,140.538 125.669,140.538 125.669,137.438 124.869,137.438 124.869,131.638 125.669,131.638 125.669,128.538 124.869,128.538 124.869,127.538" style="fill:none;stroke-width:0.050000mm;stroke:black"/>
<polygon points="137.063,127.538 137.063,128.538 136.263,128.538 136.263,131.638 137.063,131.638 137.063,137.438 136.263,137.438 136.263,140.538 137.063,140.538 137.063,141.538 151.063,141.538 151.063,140.538 151.863,140.538 151.863,137.438 151.063,137.438 151.063,131.638 151.863,131.638 151.863,128.538 151.063,128.538 151.063,127.538" style="fill:none;stroke-width:0.050000mm;stroke:black"/>
<polygon points="163.257,127.538 163.257,128.538 162.457,128.538 162.457,131.638 163.257,131.638 163.257,137.438 162.457,137.438 162.457,140.538 163.257,140.538 163.257,141.538 177.257,141.538 177.257,140.538 178.057,140.538 178.057,137.438 177.257,137.438 177.257,131.638 178.057,131.638 178.057,128.538 177.257,128.538 177.257,127.538" style="fill:none;stroke-width:0.050000mm;stroke:black"/>
<polygon points="194.213,118.013 194.213,119.013 193.413,119.013 193.413,122.113 194.213,122.113 194.213,127.913 193.413,127.913 193.413,131.013 194.213,131.013 194.213,132.013 208.213,132.013 208.213,131.013 209.013,131.013 209.013,127.913 208.213,127.913 208.213,122.113 209.013,122.113 209.013,119.013 208.213,119.013 208.213,118.013" style="fill:none;stroke-width:0.050000mm;stroke:black"/>
<polygon points="213.263,118.013 213.263,119.013 212.463,119.013 212.463,122.113 213.263,122.113 213.263,127.913 212.463,127.913 212.463,131.013 213.263,131.013 213.263,132.013 227.263,132.013 227.263,131.013 228.063,131.013 228.063,127.913 227.263,127.913 227.263,122.113 228.063,122.113 228.063,119.013 227.263,119.013 227.263,118.013" style="fill:none;stroke-width:0.050000mm;stroke:black"/>
<polygon points="232.313,118.013 232.313,119.013 231.513,119.013 231.513,122.113 232.313,122.113 232.313,127.913 231.513,127.913 231.513,131.013 232.313,131.013 232.313,132.013 246.313,132.013 246.313,131.013 247.113,131.013 247.113,127.913 246.313,127.913 246.313,122.113 247.113,122.113 247.113,119.013 246.313,119.013 246.313,118.013" style="fill:none;stroke-width:0.050000mm;stroke:black"/>
<polygon points="148.969,108.488 148.969,109.488 148.169,109.488 148.169,112.588 148.969,112.588 148.969,113.188 147.444,113.188 147.444,109.958 145.719,109.958 145.719,109.038 142.419,109.038 142.419,109.958 140.694,109.958 140.694,113.188 139.869,113.188 139.869,115.988 140.694,115.988 140.694,122.258 142.419,122.258 142.419,123.238 145.719,123.238 145.719,122.258 147.444,122.258 147.444,117.788 148.969,117.788 148.969,118.388 148.169,118.388 148.169,121.488 148.969,121.488 148.969,122.488 162.969,122.488 162.969,121.488 163.769,121.488 163.769,118.388 162.969,118.388 162.969,117.788 164.494,117.788 164.494,122.258 166.219,122.258 166.219,123.238 169.519,123.238 169.519,122.258 171.244,122.258 171.244,115.988 172.069,115.988 172.069,113.188 171.244,113.188 171.244,109.958 169.519,109.958 169.519,109.038 166.219,109.038 166.219,109.958 164.494,109.958 164.494,113.188 162.969,113.188 162.969,112.588 163.769,112.588 163.769,109.488 162.969,109.488 162.969,108.488" style="fill:none;stroke-width:0.050000mm;stroke:black"/>
<polygon points="32.288,108.488 32.288,109.488 31.488,109.488 31.488,112.588 32.288,112.588 32.288,118.388 31.488,118.388 31.488,121.488 32.288,121.488 32.288,122.488 46.288,122.488 46.288,121.488 47.088,121.488 47.088,118.388 46.288,118.388 46.288,112.588 47.088,112.588 47.088,109.488 46.288,109.488 46.288,108.488" style="fill:none;stroke-width:0.050000mm;stroke:black"/>
<polygon points="56.101,108.488 56.101,109.488 55.301,109.488 55.301,112.588 56.101,112.588 56.101,118.388 55.301,118.388 55.301,121.488 56.101,121.488 56.101,122.488 70.101,122.488 70.101,121.488 70.901,121.488 70.901,118.388 70.101,118.388 70.101,112.588 70.901,112.588 70.901,109.488 70.101,109.488 70.101,108.488" style="fill:none;stroke-width:0.050000mm;stroke:black"/>
<polygon points="75.151,108.488 75.151,109.488 74.351,109.488 74.351,112.588 75.151,112.588 75.151,118.388 74.351,118.388 74.351,121.488 75.151,121.488 75.151,122.488 89.151,122.488 89.151,121.488 89.951,121.488 89.951,118.388 89.151,118.388 89.151,112.588 89.951,112.588 89.951,109.488 89.151,109.488 89.151,108.488" style="fill:none;stroke-width:0.050000mm;stroke:black"/>
<polygon points="94.201,108.488 94.201,109.488 93.401,109.488 93.401,112.588 94.201,112.588 94.201,118.388 93.401,118.388 93.401,121.488 94.201,121.488 94.201,122.488 108.201,122.488 108.201,121.488 109.001,121.488 109.001,118.388 108.201,118.388 108.201,112.588 109.001,112.588 109.001,109.488 108.201,109.488 108.201,108.488" style="fill:none;stroke-width:0.050000mm;stroke:black"/>
<polygon points="113.251,108.488 113.251,109.488 112.451,109.488 112.451,112.588 113.251,112.588 113.251,118.388 112.451,118.388 112.451,121.488 113.251,121.488 113.251,122.488 127.251,122.488 127.251,121.488 128.051,121.488 128.051,118.388 127.251,118.388 127.251,112.588 128.051,112.588 128.051,109.488 127.251,109.488 127.251,108.488" style="fill:none;stroke-width:0.050000mm;stroke:black"/>
<polygon points="213.263,98.963 213.263,99.963 212.463,99.963 212.463,103.063 213.263,103.063 213.263,108.863 212.463,108.863 212.463,111.963 213.263,111.963 213.263,112.963 227.263,112.963 227.263,111.963 228.063,111.963 228.063,108.863 227.263,108.863 227.263,103.063 228.063,103.063 228.063,99.963 227.263,99.963 227.263,98.963" style="fill:none;stroke-width:0.050000mm;stroke:black"/>
<polygon points="158.494,89.438 158.494,90.438 157.694,90.438 157.694,93.538 158.494,93.538 158.494,94.138 156.969,94.138 156.969,90.908 155.244,90.908 155.244,89.988 151.944,89.988 151.944,90.908 150.219,90.908 150.219,94.138 149.394,94.138 149.394,96.938 150.219,96.938 150.219,103.208 151.944,103.208 151.944,104.188 155.244,104.188 155.244,103.208 156.969,103.208 156.969,98.738 158.494,98.738 158.494,99.338 157.694,99.338 157.694,102.438 158.494,102.438 158.494,103.438 172.494,103.438 172.494,102.438 173.294,102.438 173.294,99.338 172.494,99.338 172.494,98.738 174.019,98.738 174.019,103.208 175.744,103.208 175.744,104.188 179.044,104.188 179.044,103.208 180.769,103.208 180.769,96.938 181.594,96.938 181.594,94.138 180.769,94.138 180.769,90.908 179.044,90.908 179.044,89.988 175.744,89.988 175.744,90.908 174.019,90.908 174.019,94.138 172.494,94.138 172.494,93.538 173.294,93.538 173.294,90.438 172.494,90.438 172.494,89.438" style="fill:none;stroke-width:0.050000mm;stroke:black"/>
<polygon points="29.907,89.438 29.907,90.438 29.107,90.438 29.107,93.538 29.907,93.538 29.907,99.338 29.107,99.338 29.107,102.438 29.907,102.438 29.907,103.438 43.907,103.438 43.907,102.438 44.707,102.438 44.707,99.338 43.907,99.338 43.907,93.538 44.707,93.538 44.707,90.438 43.907,90.438 43.907,89.438" style="fill:none;stroke-width:0.050000mm;stroke:black"/>
<polygon points="51.338,89.438 51.338,90.438 50.538,90.438 50.538,93.538 51.338,93.538 51.338,99.338 50.538,99.338 50.538,102.438 51.338,102.438 51.338,103.438 65.338,103.438 65.338,102.438 66.138,102.438 66.138,99.338 65.338,99.338 65.338,93.538 66.138,93.538 66.138,90.438 65.338,90.438 65.338,89.438" style="fill:none;stroke-width:0.050000mm;stroke:black"/>
<polygon points="70.388,89.438 70.388,90.438 69.588,90.438 69.588,93.538 70.388,93.538 70.388,99.338 69.588,99.338 69.588,102.438 70.388,102.438 70.388,103.438 84.388,103.438 84.388,102.438 85.188,102.438 85.188,99.338 84.388,99.338 84.388,93.538 85.188,93.538 85.188,90.438 84.388,90.438 84.388,89.438" style="fill:none;stroke-width:0.050000mm;stroke:black"/>
<polygon points="89.438,89.438 89.438,90.438 88.638,90.438 88.638,93.538 89.438,93.538 89.438,99.338 88.638,99.338 88.638,102.438 89.438,102.438 89.438,103.438 103.438,103.438 103.438,102.438 104.238,102.438 104.238,99.338 103.438,99.338 103.438,93.538 104.238,93.538 104.238,90.438 103.438,90.438 103.438,89.438" style="fill:none;stroke-width:0.050000mm;stroke:black"/>
<polygon points="108.488,89.438 108.488,90.438 107.688,90.438 107.688,93.538 108.488,93.538 108.488,99.338 107.688,99.338 107.688,102.438 108.488,102.438 108.488,103.438 122.488,103.438 122.488,102.438 123.288,102.438 123.288,99.338 122.488,99.338 122.488,93.538 123.288,93.538 123.288,90.438 122.488,90.438 122.488,89.438" style="fill:none;stroke-width:0.050000mm;stroke:black"/>
<polygon points="127.538,89.438 127.538,90.438 126.738,90.438 126.738,93.538 127.538,93.538 127.538,99.338 126.738,99.338 126.738,102.438 127.538,102.438 127.538,103.438 141.538,103.438 141.538,102.438 142.338,102.438 142.338,99.338 141.538,99.338 141.538,93.538 142.338,93.538 142.338,90.438 141.538,90.438 141.538,89.438" style="fill:none;stroke-width:0.050000mm;stroke:black"/>
<polygon points="27.526,70.388 27.526,71.388 26.725,71.388 26.725,74.488 27.526,74.488 27.526,80.288 26.725,80.288 26.725,83.388 27.526,83.388 27.526,84.388 41.526,84.388 41.526,83.388 42.325,83.388 42.325,80.288 41.526,80.288 41.526,74.488 42.325,74.488 42.325,71.388 41.526,71.388 41.526,70.388" style="fill:none;stroke-width:0.050000mm;stroke:black"/>
<polygon points="46.576,70.388 46.576,71.388 45.776,71.388 45.776,74.488 46.576,74.488 46.576,80.288 45.776,80.288 45.776,83.388 46.576,83.388 46.576,84.388 60.576,84.388 60.576,83.388 61.376,83.388 61.376,80.288 60.576,80.288 60.576,74.488 61.376,74.488 61.376,71.388 60.576,71.388 60.576,70.388" style="fill:none;stroke-width:0.050000mm;stroke:black"/>
<polygon points="65.626,70.388 65.626,71.388 64.826,71.388 64.826,74.488 65.626,74.488 65.626,80.288 64.826,80.288 64.826,83.388 65.626,83.388 65.626,84.388 79.626,84.388 79.626,83.388 80.426,83.388 80.426,80.288 79.626,80.288 79.626,74.488 80.426,74.488 80.426,71.388 79.626,71.388 79.626,70.388" style="fill:none;stroke-width:0.050000mm;stroke:black"/>
<polygon points="84.676,70.388 84.676,71.388 83.876,71.388 83.876,74.488 84.676,74.488 84.676,80.288 83.876,80.288 83.876,83.388 84.676,83.388 84.676,84.388 98.676,84.388 98.676,83.388 99.476,83.388 99.476,80.288 98.676,80.288 98.676,74.488 99.476,74.488 99.476,71.388 98.676,71.388 98.676,70.388" style="fill:none;stroke-width:0.050000mm;stroke:black"/>
<polygon points="103.726,70.388 103.726,71.388 102.926,71.388 102.926,74.488 103.726,74.488 103.726,80.288 102.926,80.288 102.926,83.388 103.726,83.388 103.726,84.388 117.726,84.388 117.726,83.388 118.525,83.388 118.525,80.288 117.726,80.288 117.726,74.488 118.525,74.488 118.525,71.388 117.726,71.388 117.726,70.388" style="fill:none;stroke-width:0.050000mm;stroke:black"/>
<polygon points="122.776,70.388 122.776,71.388 121.976,71.388 121.976,74.488 122.776,74.488 122.776,80.288 121.976,80.288 121.976,83.388 122.776,83.388 122.776,84.388 136.776,84.388 136.776,83.388 137.576,83.388 137.576,80.288 136.776,80.288 136.776,74.488 137.576,74.488 137.576,71.388 136.776,71.388 136.776,70.388" style="fill:none;stroke-width:0.050000mm;stroke:black"/>
<polygon points="141.826,70.388 141.826,71.388 141.026,71.388 141.026,74.488 141.826,74.488 141.826,80.288 141.026,80.288 141.026,83.388 141.826,83.388 141.826,84.388 155.826,84.388 155.826,83.388 156.626,83.388 156.626,80.288 155.826,80.288 155.826,74.488 156.626,74.488 156.626,71.388 155.826,71.388 155.826,70.388" style="fill:none;stroke-width:0.050000mm;stroke:black"/>
<polygon points="165.638,70.388 165.638,71.388 164.838,71.388 164.838,74.488 165.638,74.488 165.638,80.288 164.838,80.288 164.838,83.388 165.638,83.388 165.638,84.388 179.638,84.388 179.638,83.388 180.438,83.388 180.438,80.288 179.638,80.288 179.638,74.488 180.438,74.488 180.438,71.388 179.638,71.388 179.638,70.388" style="fill:none;stroke-width:0.050000mm;stroke:black"/>
<polygon points="194.213,70.388 194.213,71.388 193.413,71.388 193.413,74.488 194.213,74.488 194.213,80.288 193.413,80.288 193.413,83.388 194.213,83.388 194.213,84.388 208.213,84.388 208.213,83.388 209.013,83.388 209.013,80.288 208.213,80.288 208.213,74.488 209.013,74.488 209.013,71.388 208.213,71.388 208.213,70.388" style="fill:none;stroke-width:0.050000mm;stroke:black"/>
<polygon points="213.263,70.388 213.263,71.388 212.463,71.388 212.463,74.488 213.263,74.488 213.263,80.288 212.463,80.288 212.463,83.388 213.263,83.388 213.263,84.388 227.263,84.388 227.263,83.388 228.063,83.388 228.063,80.288 227.263,80.288 227.263,74.488 228.063,74.488 228.063,71.388 227.263,71.388 227.263,70.388" style="fill:none;stroke-width:0.050000mm;stroke:black"/>
<polygon points="232.313,70.388 232.313,71.388 231.513,71.388 231.513,74.488 232.313,74.488 232.313,80.288 231.513,80.288 231.513,83.388 232.313,83.388 232.313,84.388 246.313,84.388 246.313,83.388 247.113,83.388 247.113,80.288 246.313,80.288 246.313,74.488 247.113,74.488 247.113,71.388 246.313,71.388 246.313,70.388" style="fill:none;stroke-width:0.050000mm;stroke:black"/>
<polygon points="160.876,51.338 160.876,52.338 160.076,52.338 160.076,55.438 160.876,55.438 160.876,56.038 159.351,56.038 159.351,52.808 157.626,52.808 157.626,51.888 154.326,51.888 154.326,52.808 152.601,52.808 152.601,56.038 151.776,56.038 151.776,58.838 152.601,58.838 152.601,65.108 154.326,65.108 154.326,66.088 157.626,66.088 157.626,65.108 159.351,65.108 159.351,60.638 160.876,60.638 160.876,61.238 160.076,61.238 160.076,64.338 160.876,64.338 160.876,65.338 174.876,65.338 174.876,64.338 175.676,64.338 175.676,61.238 174.876,61.238 174.876,60.638 176.401,60.638 176.401,65.108 178.126,65.108 178.126,66.088 181.426,66.088 181.426,65.108 183.151,65.108 183.151,58.838 183.976,58.838 183.976,56.038 183.151,56.038 183.151,52.808 181.426,52.808 181.426,51.888 178.126,51.888 178.126,52.808 176.401,52.808 176.401,56.038 174.876,56.038 174.876,55.438 175.676,55.438 175.676,52.338 174.876,52.338 174.876,51.338" style="fill:none;stroke-width:0.050000mm;stroke:black"/>
<polygon points="32.288,51.338 32.288,52.338 31.488,52.338 31.488,55.438 32.288,55.438 32.288,61.238 31.488,61.238 31.488,64.338 32.288,64.338 32.288,65.338 46.288,65.338 46.288,64.338 47.088,64.338 47.088,61.238 46.288,61.238 46.288,55.438 47.088,55.438 47.088,52.338 46.288,52.338 46.288,51.338" style="fill:none;stroke-width:0.050000mm;stroke:black"/>
<polygon points="56.101,51.338 56.101,52.338 55.301,52.338 55.301,55.438 56.101,55.438 56.101,61.238 55.301,61.238 55.301,64.338 56.101,64.338 56.101,65.338 70.101,65.338 70.101,64.338 70.901,64.338 70.901,61.238 70.101,61.238 70.101,55.438 70.901,55.438 70.901,52.338 70.101,52.338 70.101,51.338" style="fill:none;stroke-width:0.050000mm;stroke:black"/>
<polygon points="75.151,51.338 75.151,52.338 74.351,52.338 74.351,55.438 75.151,55.438 75.151,61.238 74.351,61.238 74.351,64.338 75.151,64.338 75.151,65.338 89.151,65.338 89.151,64.338 89.951,64.338 89.951,61.238 89.151,61.238 89.151,55.438 89.951,55.438 89.951,52.338 89.151,52.338 89.151,51.338" style="fill:none;stroke-width:0.050000mm;stroke:black"/>
<polygon points="94.201,51.338 94.201,52.338 93.401,52.338 93.401,55.438 94.201,55.438 94.201,61.238 93.401,61.238 93.401,64.338 94.201,64.338 94.201,65.338 108.201,65.338 108.201,64.338 109.001,64.338 109.001,61.238 108.201,61.238 108.201,55.438 109.001,55.438 109.001,52.338 108.201,52.338 108.201,51.338" style="fill:none;stroke-width:0.050000mm;stroke:black"/>
<polygon points="113.251,51.338 113.251,52.338 112.451,52.338 112.451,55.438 113.251,55.438 113.251,61.238 112.451,61.238 112.451,64.338 113.251,64.338 113.251,65.338 127.251,65.338 127.251,64.338 128.051,64.338 128.051,61.238 127.251,61.238 127.251,55.438 128.051,55.438 128.051,52.338 127.251,52.338 127.251,51.338" style="fill:none;stroke-width:0.050000mm;stroke:black"/>
<polygon points="132.301,51.338 132.301,52.338 131.501,52.338 131.501,55.438 132.301,55.438 132.301,61.238 131.501,61.238 131.501,64.338 132.301,64.338 132.301,65.338 146.301,65.338 146.301,64.338 147.101,64.338 147.101,61.238 146.301,61.238 146.301,55.438 147.101,55.438 147.101,52.338 146.301,52.338 146.301,51.338" style="fill:none;stroke-width:0.050000mm;stroke:black"/>
<polygon points="194.213,51.338 194.213,52.338 193.413,52.338 193.413,55.438 194.213,55.438 194.213,61.238 193.413,61.238 193.413,64.338 194.213,64.338 194.213,65.338 208.213,65.338 208.213,64.338 209.013,64.338 209.013,61.238 208.213,61.238 208.213,55.438 209.013,55.438 209.013,52.338 208.213,52.338 208.213,51.338" style="fill:none;stroke-width:0.050000mm;stroke:black"/>
<polygon points="213.263,51.338 213.263,52.338 212.463,52.338 212.463,55.438 213.263,55.438 213.263,61.238 212.463,61.238 212.463,64.338 213.263,64.338 213.263,65.338 227.263,65.338 227.263,64.338 228.063,64.338 228.063,61.238 227.263,61.238 227.263,55.438 228.063,55.438 228.063,52.338 227.263,52.338 227.263,51.338" style="fill:none;stroke-width:0.050000mm;stroke:black"/>
<polygon points="232.313,51.338 232.313,52.338 231.513,52.338 231.513,55.438 232.313,55.438 232.313,61.238 231.513,61.238 231.513,64.338 232.313,64.338 232.313,65.338 246.313,65.338 246.313,64.338 247.113,64.338 247.113,61.238 246.313,61.238 246.313,55.438 247.113,55.438 247.113,52.338 246.313,52.338 246.313,51.338" style="fill:none;stroke-width:0.050000mm;stroke:black"/>
<polygon points="32.288,27.526 32.288,28.526 31.488,28.526 31.488,31.626 32.288,31.626 32.288,37.426 31.488,37.426 31.488,40.526 32.288,40.526 32.288,41.526 46.288,41.526 46.288,40.526 47.088,40.526 47.088,37.426 46.288,37.426 46.288,31.626 47.088,31.626 47.088,28.526 46.288,28.526 46.288,27.526" style="fill:none;stroke-width:0.050000mm;stroke:black"/>
<polygon points="51.338,27.526 51.338,28.526 50.538,28.526 50.538,31.626 51.338,31.626 51.338,37.426 50.538,37.426 50.538,40.526 51.338,40.526 51.338,41.526 65.338,41.526 65.338,40.526 66.138,40.526 66.138,37.426 65.338,37.426 65.338,31.626 66.138,31.626 66.138,28.526 65.338,28.526 65.338,27.526" style="fill:none;stroke-width:0.050000mm;stroke:black"/>
<polygon points="70.388,27.526 70.388,28.526 69.588,28.526 69.588,31.626 70.388,31.626 70.388,37.426 69.588,37.426 69.588,40.526 70.388,40.526 70.388,41.526 84.388,41.526 84.388,40.526 85.188,40.526 85.188,37.426 84.388,37.426 84.388,31.626 85.188,31.626 85.188,28.526 84.388,28.526 84.388,27.526" style="fill:none;stroke-width:0.050000mm;stroke:black"/>
<polygon points="89.438,27.526 89.438,28.526 88.638,28.526 88.638,31.626 89.438,31.626 89.438,37.426 88.638,37.426 88.638,40.526 89.438,40.526 89.438,41.526 103.438,41.526 103.438,40.526 104.238,40.526 104.238,37.426 103.438,37.426 103.438,31.626 104.238,31.626 104.238,28.526 103.438,28.526 103.438,27.526" style="fill:none;stroke-width:0.050000mm;stroke:black"/>
<polygon points="113.251,27.526 113.251,28.526 112.451,28.526 112.451,31.626 113.251,31.626 113.251,37.426 112.451,37.426 112.451,40.526 113.251,40.526 113.251,41.526 127.251,41.526 127.251,40.526 128.051,40.526 128.051,37.426 127.251,37.426 127.251,31.626 128.051,31.626 128.051,28.526 127.251,28.526 127.251,27.526" style="fill:none;stroke-width:0.050000mm;stroke:black"/>
<polygon points="132.301,27.526 132.301,28.526 131.501,28.526 131.501,31.626 132.301,31.626 132.301,37.426 131.501,37.426 131.501,40.526 132.301,40.526 132.301,41.526 146.301,41.526 146.301,40.526 147.101,40.526 147.101,37.426 146.301,37.426 146.301,31.626 147.101,31.626 147.101,28.526 146.301,28.526 146.301,27.526" style="fill:none;stroke-width:0.050000mm;stroke:black"/>
<polygon points="151.351,27.526 151.351,28.526 150.551,28.526 150.551,31.626 151.351,31.626 151.351,37.426 150.551,37.426 150.551,40.526 151.351,40.526 151.351,41.526 165.351,41.526 165.351,40.526 166.151,40.526 166.151,37.426 165.351,37.426 165.351,31.626 166.151,31.626 166.151,28.526 165.351,28.526 165.351,27.526" style="fill:none;stroke-width:0.050000mm;stroke:black"/>
<polygon points="170.401,27.526 170.401,28.526 169.601,28.526 169.601,31.626 170.401,31.626 170.401,37.426 169.601,37.426 169.601,40.526 170.401,40.526 170.401,41.526 184.401,41.526 184.401,40.526 185.201,40.526 185.201,37.426 184.401,37.426 184.401,31.626 185.201,31.626 185.201,28.526 184.401,28.526 184.401,27.526" style="fill:none;stroke-width:0.050000mm;stroke:black"/>
<polygon points="194.213,27.526 194.213,28.526 193.413,28.526 193.413,31.626 194.213,31.626 194.213,37.426 193.413,37.426 193.413,40.526 194.213,40.526 194.213,41.526 208.213,41.526 208.213,40.526 209.013,40.526 209.013,37.426 208.213,37.426 208.213,31.626 209.013,31.626 209.013,28.526 208.213,28.526 208.213,27.526" style="fill:none;stroke-width:0.050000mm;stroke:black"/>
<polygon points="213.263,27.526 213.263,28.526 212.463,28.526 212.463,31.626 213.263,31.626 213.263,37.426 212.463,37.426 212.463,40.526 213.263,40.526 213.263,41.526 227.263,41.526 227.263,40.526 228.063,40.526 228.063,37.426 227.263,37.426 227.263,31.626 228.063,31.626 228.063,28.526 227.263,28.526 227.263,27.526" style="fill:none;stroke-width:0.050000mm;stroke:black"/>
<polygon points="232.313,27.526 232.313,28.526 231.513,28.526 231.513,31.626 232.313,31.626 232.313,37.426 231.513,37.426 231.513,40.526 232.313,40.526 232.313,41.526 246.313,41.526 246.313,40.526 247.113,40.526 247.113,37.426 246.313,37.426 246.313,31.626 247.113,31.626 247.113,28.526 246.313,28.526 246.313,27.526" style="fill:none;stroke-width:0.050000mm;stroke:black"/>
<polygon points="257.912,12.147 257.076,12.573 256.412,13.237 255.986,14.073 255.839,15.001 255.986,15.928 256.412,16.764 257.076,17.428 257.912,17.854 258.839,18.001 259.766,17.854 260.602,17.428 261.266,16.764 261.691,15.928 261.839,15.001 261.691,14.073 261.266,13.237 260.602,12.573 259.766,12.147 258.839,12.001" style="fill:none;stroke-width:0.050000mm;stroke:black"/>
<polygon points="14.073,12.147 13.237,12.573 12.573,13.237 12.147,14.073 12.000,15.001 12.147,15.928 12.573,16.764 13.237,17.428 14.073,17.854 15.001,18.001 15.928,17.854 16.764,17.428 17.428,16.764 17.854,15.928 18.001,15.001 17.854,14.073 17.428,13.237 16.764,12.573 15.928,12.147 15.001,12.001" style="fill:none;stroke-width:0.050000mm;stroke:black"/>
</svg>
