solid 
 facet normal -4.540216e-01 -8.909907e-01  0.000000e+00
   outer loop
     vertex  2.579120e+02  1.512110e+02  0.000000e+00
     vertex  2.579120e+02  1.512110e+02  1.500000e+02
     vertex  2.570760e+02  1.516370e+02  1.500000e+02
   endloop
 endfacet
 facet normal -4.540216e-01 -8.909907e-01  0.000000e+00
   outer loop
     vertex  2.570760e+02  1.516370e+02  0.000000e+00
     vertex  2.579120e+02  1.512110e+02  0.000000e+00
     vertex  2.570760e+02  1.516370e+02  1.500000e+02
   endloop
 endfacet
 facet normal -7.071068e-01 -7.071068e-01  0.000000e+00
   outer loop
     vertex  2.564120e+02  1.523010e+02  0.000000e+00
     vertex  2.570760e+02  1.516370e+02  0.000000e+00
     vertex  2.570760e+02  1.516370e+02  1.500000e+02
   endloop
 endfacet
 facet normal -7.071068e-01 -7.071068e-01  0.000000e+00
   outer loop
     vertex  2.564120e+02  1.523010e+02  0.000000e+00
     vertex  2.570760e+02  1.516370e+02  1.500000e+02
     vertex  2.564120e+02  1.523010e+02  1.500000e+02
   endloop
 endfacet
 facet normal -8.909907e-01 -4.540216e-01  0.000000e+00
   outer loop
     vertex  2.564120e+02  1.523010e+02  0.000000e+00
     vertex  2.564120e+02  1.523010e+02  1.500000e+02
     vertex  2.559860e+02  1.531370e+02  1.500000e+02
   endloop
 endfacet
 facet normal -8.909907e-01 -4.540216e-01  0.000000e+00
   outer loop
     vertex  2.559860e+02  1.531370e+02  0.000000e+00
     vertex  2.564120e+02  1.523010e+02  0.000000e+00
     vertex  2.559860e+02  1.531370e+02  1.500000e+02
   endloop
 endfacet
 facet normal -9.876591e-01 -1.566191e-01  0.000000e+00
   outer loop
     vertex  2.559860e+02  1.531370e+02  0.000000e+00
     vertex  2.559860e+02  1.531370e+02  1.500000e+02
     vertex  2.558390e+02  1.540640e+02  1.500000e+02
   endloop
 endfacet
 facet normal -9.876591e-01 -1.566191e-01  0.000000e+00
   outer loop
     vertex  2.558390e+02  1.540640e+02  0.000000e+00
     vertex  2.559860e+02  1.531370e+02  0.000000e+00
     vertex  2.558390e+02  1.540640e+02  1.500000e+02
   endloop
 endfacet
 facet normal -9.876591e-01  1.566191e-01  0.000000e+00
   outer loop
     vertex  2.558390e+02  1.540640e+02  0.000000e+00
     vertex  2.558390e+02  1.540640e+02  1.500000e+02
     vertex  2.559860e+02  1.549910e+02  1.500000e+02
   endloop
 endfacet
 facet normal -9.876591e-01  1.566191e-01  0.000000e+00
   outer loop
     vertex  2.559860e+02  1.549910e+02  0.000000e+00
     vertex  2.558390e+02  1.540640e+02  0.000000e+00
     vertex  2.559860e+02  1.549910e+02  1.500000e+02
   endloop
 endfacet
 facet normal -8.909907e-01  4.540216e-01  0.000000e+00
   outer loop
     vertex  2.559860e+02  1.549910e+02  0.000000e+00
     vertex  2.559860e+02  1.549910e+02  1.500000e+02
     vertex  2.564120e+02  1.558270e+02  1.500000e+02
   endloop
 endfacet
 facet normal -8.909907e-01  4.540216e-01  0.000000e+00
   outer loop
     vertex  2.564120e+02  1.558270e+02  0.000000e+00
     vertex  2.559860e+02  1.549910e+02  0.000000e+00
     vertex  2.564120e+02  1.558270e+02  1.500000e+02
   endloop
 endfacet
 facet normal -7.071068e-01  7.071068e-01  0.000000e+00
   outer loop
     vertex  2.570760e+02  1.564910e+02  0.000000e+00
     vertex  2.564120e+02  1.558270e+02  0.000000e+00
     vertex  2.564120e+02  1.558270e+02  1.500000e+02
   endloop
 endfacet
 facet normal -7.071068e-01  7.071068e-01  0.000000e+00
   outer loop
     vertex  2.570760e+02  1.564910e+02  0.000000e+00
     vertex  2.564120e+02  1.558270e+02  1.500000e+02
     vertex  2.570760e+02  1.564910e+02  1.500000e+02
   endloop
 endfacet
 facet normal -4.540216e-01  8.909907e-01  0.000000e+00
   outer loop
     vertex  2.570760e+02  1.564910e+02  0.000000e+00
     vertex  2.570760e+02  1.564910e+02  1.500000e+02
     vertex  2.579120e+02  1.569170e+02  1.500000e+02
   endloop
 endfacet
 facet normal -4.540216e-01  8.909907e-01  0.000000e+00
   outer loop
     vertex  2.579120e+02  1.569170e+02  0.000000e+00
     vertex  2.570760e+02  1.564910e+02  0.000000e+00
     vertex  2.579120e+02  1.569170e+02  1.500000e+02
   endloop
 endfacet
 facet normal -1.566191e-01  9.876591e-01  0.000000e+00
   outer loop
     vertex  2.579120e+02  1.569170e+02  0.000000e+00
     vertex  2.579120e+02  1.569170e+02  1.500000e+02
     vertex  2.588390e+02  1.570640e+02  1.500000e+02
   endloop
 endfacet
 facet normal -1.566191e-01  9.876591e-01  0.000000e+00
   outer loop
     vertex  2.588390e+02  1.570640e+02  0.000000e+00
     vertex  2.579120e+02  1.569170e+02  0.000000e+00
     vertex  2.588390e+02  1.570640e+02  1.500000e+02
   endloop
 endfacet
 facet normal  1.566191e-01  9.876591e-01 -0.000000e+00
   outer loop
     vertex  2.588390e+02  1.570640e+02  0.000000e+00
     vertex  2.588390e+02  1.570640e+02  1.500000e+02
     vertex  2.597660e+02  1.569170e+02  1.500000e+02
   endloop
 endfacet
 facet normal  1.566191e-01  9.876591e-01 -0.000000e+00
   outer loop
     vertex  2.597660e+02  1.569170e+02  0.000000e+00
     vertex  2.588390e+02  1.570640e+02  0.000000e+00
     vertex  2.597660e+02  1.569170e+02  1.500000e+02
   endloop
 endfacet
 facet normal  4.540216e-01  8.909907e-01 -0.000000e+00
   outer loop
     vertex  2.597660e+02  1.569170e+02  0.000000e+00
     vertex  2.597660e+02  1.569170e+02  1.500000e+02
     vertex  2.606020e+02  1.564910e+02  1.500000e+02
   endloop
 endfacet
 facet normal  4.540216e-01  8.909907e-01 -0.000000e+00
   outer loop
     vertex  2.606020e+02  1.564910e+02  0.000000e+00
     vertex  2.597660e+02  1.569170e+02  0.000000e+00
     vertex  2.606020e+02  1.564910e+02  1.500000e+02
   endloop
 endfacet
 facet normal  7.071068e-01  7.071068e-01  0.000000e+00
   outer loop
     vertex  2.612660e+02  1.558270e+02  0.000000e+00
     vertex  2.606020e+02  1.564910e+02  0.000000e+00
     vertex  2.606020e+02  1.564910e+02  1.500000e+02
   endloop
 endfacet
 facet normal  7.071068e-01  7.071068e-01 -0.000000e+00
   outer loop
     vertex  2.612660e+02  1.558270e+02  0.000000e+00
     vertex  2.606020e+02  1.564910e+02  1.500000e+02
     vertex  2.612660e+02  1.558270e+02  1.500000e+02
   endloop
 endfacet
 facet normal  8.914216e-01  4.531749e-01 -0.000000e+00
   outer loop
     vertex  2.612660e+02  1.558270e+02  0.000000e+00
     vertex  2.612660e+02  1.558270e+02  1.500000e+02
     vertex  2.616910e+02  1.549910e+02  1.500000e+02
   endloop
 endfacet
 facet normal  8.914216e-01  4.531749e-01 -0.000000e+00
   outer loop
     vertex  2.616910e+02  1.549910e+02  0.000000e+00
     vertex  2.612660e+02  1.558270e+02  0.000000e+00
     vertex  2.616910e+02  1.549910e+02  1.500000e+02
   endloop
 endfacet
 facet normal  9.874938e-01  1.576581e-01  0.000000e+00
   outer loop
     vertex  2.618390e+02  1.540640e+02  0.000000e+00
     vertex  2.616910e+02  1.549910e+02  0.000000e+00
     vertex  2.616910e+02  1.549910e+02  1.500000e+02
   endloop
 endfacet
 facet normal  9.874938e-01  1.576581e-01 -0.000000e+00
   outer loop
     vertex  2.618390e+02  1.540640e+02  0.000000e+00
     vertex  2.616910e+02  1.549910e+02  1.500000e+02
     vertex  2.618390e+02  1.540640e+02  1.500000e+02
   endloop
 endfacet
 facet normal  9.874938e-01 -1.576581e-01  0.000000e+00
   outer loop
     vertex  2.616910e+02  1.531370e+02  0.000000e+00
     vertex  2.618390e+02  1.540640e+02  0.000000e+00
     vertex  2.618390e+02  1.540640e+02  1.500000e+02
   endloop
 endfacet
 facet normal  9.874938e-01 -1.576581e-01  0.000000e+00
   outer loop
     vertex  2.616910e+02  1.531370e+02  0.000000e+00
     vertex  2.618390e+02  1.540640e+02  1.500000e+02
     vertex  2.616910e+02  1.531370e+02  1.500000e+02
   endloop
 endfacet
 facet normal  8.914216e-01 -4.531749e-01  0.000000e+00
   outer loop
     vertex  2.616910e+02  1.531370e+02  0.000000e+00
     vertex  2.616910e+02  1.531370e+02  1.500000e+02
     vertex  2.612660e+02  1.523010e+02  1.500000e+02
   endloop
 endfacet
 facet normal  8.914216e-01 -4.531749e-01  0.000000e+00
   outer loop
     vertex  2.612660e+02  1.523010e+02  0.000000e+00
     vertex  2.616910e+02  1.531370e+02  0.000000e+00
     vertex  2.612660e+02  1.523010e+02  1.500000e+02
   endloop
 endfacet
 facet normal  7.071068e-01 -7.071068e-01  0.000000e+00
   outer loop
     vertex  2.606020e+02  1.516370e+02  0.000000e+00
     vertex  2.612660e+02  1.523010e+02  0.000000e+00
     vertex  2.612660e+02  1.523010e+02  1.500000e+02
   endloop
 endfacet
 facet normal  7.071068e-01 -7.071068e-01  0.000000e+00
   outer loop
     vertex  2.606020e+02  1.516370e+02  0.000000e+00
     vertex  2.612660e+02  1.523010e+02  1.500000e+02
     vertex  2.606020e+02  1.516370e+02  1.500000e+02
   endloop
 endfacet
 facet normal  4.540216e-01 -8.909907e-01  0.000000e+00
   outer loop
     vertex  2.606020e+02  1.516370e+02  0.000000e+00
     vertex  2.606020e+02  1.516370e+02  1.500000e+02
     vertex  2.597660e+02  1.512110e+02  1.500000e+02
   endloop
 endfacet
 facet normal  4.540216e-01 -8.909907e-01  0.000000e+00
   outer loop
     vertex  2.597660e+02  1.512110e+02  0.000000e+00
     vertex  2.606020e+02  1.516370e+02  0.000000e+00
     vertex  2.597660e+02  1.512110e+02  1.500000e+02
   endloop
 endfacet
 facet normal  1.566191e-01 -9.876591e-01  0.000000e+00
   outer loop
     vertex  2.597660e+02  1.512110e+02  0.000000e+00
     vertex  2.597660e+02  1.512110e+02  1.500000e+02
     vertex  2.588390e+02  1.510640e+02  1.500000e+02
   endloop
 endfacet
 facet normal  1.566191e-01 -9.876591e-01  0.000000e+00
   outer loop
     vertex  2.588390e+02  1.510640e+02  0.000000e+00
     vertex  2.597660e+02  1.512110e+02  0.000000e+00
     vertex  2.588390e+02  1.510640e+02  1.500000e+02
   endloop
 endfacet
 facet normal -1.566191e-01 -9.876591e-01  0.000000e+00
   outer loop
     vertex  2.588390e+02  1.510640e+02  0.000000e+00
     vertex  2.588390e+02  1.510640e+02  1.500000e+02
     vertex  2.579120e+02  1.512110e+02  1.500000e+02
   endloop
 endfacet
 facet normal -1.566191e-01 -9.876591e-01  0.000000e+00
   outer loop
     vertex  2.579120e+02  1.512110e+02  0.000000e+00
     vertex  2.588390e+02  1.510640e+02  0.000000e+00
     vertex  2.579120e+02  1.512110e+02  1.500000e+02
   endloop
 endfacet
 facet normal  0.000000e+00  0.000000e+00 -1.000000e+00
   outer loop
     vertex  2.616910e+02  1.531370e+02  0.000000e+00
     vertex  2.612660e+02  1.523010e+02  0.000000e+00
     vertex  2.606020e+02  1.516370e+02  0.000000e+00
   endloop
 endfacet
 facet normal  0.000000e+00  0.000000e+00 -1.000000e+00
   outer loop
     vertex  2.616910e+02  1.531370e+02  0.000000e+00
     vertex  2.606020e+02  1.516370e+02  0.000000e+00
     vertex  2.597660e+02  1.512110e+02  0.000000e+00
   endloop
 endfacet
 facet normal  0.000000e+00  0.000000e+00 -1.000000e+00
   outer loop
     vertex  2.579120e+02  1.512110e+02  0.000000e+00
     vertex  2.597660e+02  1.512110e+02  0.000000e+00
     vertex  2.588390e+02  1.510640e+02  0.000000e+00
   endloop
 endfacet
 facet normal  0.000000e+00  0.000000e+00 -1.000000e+00
   outer loop
     vertex  2.579120e+02  1.512110e+02  0.000000e+00
     vertex  2.616910e+02  1.531370e+02  0.000000e+00
     vertex  2.597660e+02  1.512110e+02  0.000000e+00
   endloop
 endfacet
 facet normal  0.000000e+00  0.000000e+00 -1.000000e+00
   outer loop
     vertex  2.616910e+02  1.549910e+02  0.000000e+00
     vertex  2.618390e+02  1.540640e+02  0.000000e+00
     vertex  2.616910e+02  1.531370e+02  0.000000e+00
   endloop
 endfacet
 facet normal  0.000000e+00  0.000000e+00 -1.000000e+00
   outer loop
     vertex  2.570760e+02  1.516370e+02  0.000000e+00
     vertex  2.616910e+02  1.531370e+02  0.000000e+00
     vertex  2.579120e+02  1.512110e+02  0.000000e+00
   endloop
 endfacet
 facet normal  0.000000e+00  0.000000e+00 -1.000000e+00
   outer loop
     vertex  2.564120e+02  1.523010e+02  0.000000e+00
     vertex  2.616910e+02  1.531370e+02  0.000000e+00
     vertex  2.570760e+02  1.516370e+02  0.000000e+00
   endloop
 endfacet
 facet normal  0.000000e+00  0.000000e+00 -1.000000e+00
   outer loop
     vertex  2.606020e+02  1.564910e+02  0.000000e+00
     vertex  2.612660e+02  1.558270e+02  0.000000e+00
     vertex  2.616910e+02  1.549910e+02  0.000000e+00
   endloop
 endfacet
 facet normal  0.000000e+00  0.000000e+00 -1.000000e+00
   outer loop
     vertex  2.597660e+02  1.569170e+02  0.000000e+00
     vertex  2.606020e+02  1.564910e+02  0.000000e+00
     vertex  2.616910e+02  1.549910e+02  0.000000e+00
   endloop
 endfacet
 facet normal  0.000000e+00  0.000000e+00 -1.000000e+00
   outer loop
     vertex  2.579120e+02  1.569170e+02  0.000000e+00
     vertex  2.588390e+02  1.570640e+02  0.000000e+00
     vertex  2.597660e+02  1.569170e+02  0.000000e+00
   endloop
 endfacet
 facet normal  0.000000e+00  0.000000e+00 -1.000000e+00
   outer loop
     vertex  2.579120e+02  1.569170e+02  0.000000e+00
     vertex  2.597660e+02  1.569170e+02  0.000000e+00
     vertex  2.616910e+02  1.549910e+02  0.000000e+00
   endloop
 endfacet
 facet normal  0.000000e+00 -0.000000e+00 -1.000000e+00
   outer loop
     vertex  2.559860e+02  1.549910e+02  0.000000e+00
     vertex  2.559860e+02  1.531370e+02  0.000000e+00
     vertex  2.558390e+02  1.540640e+02  0.000000e+00
   endloop
 endfacet
 facet normal  0.000000e+00  0.000000e+00 -1.000000e+00
   outer loop
     vertex  2.570760e+02  1.564910e+02  0.000000e+00
     vertex  2.579120e+02  1.569170e+02  0.000000e+00
     vertex  2.616910e+02  1.549910e+02  0.000000e+00
   endloop
 endfacet
 facet normal  0.000000e+00 -0.000000e+00 -1.000000e+00
   outer loop
     vertex  2.564120e+02  1.558270e+02  0.000000e+00
     vertex  2.564120e+02  1.523010e+02  0.000000e+00
     vertex  2.559860e+02  1.531370e+02  0.000000e+00
   endloop
 endfacet
 facet normal  0.000000e+00  0.000000e+00 -1.000000e+00
   outer loop
     vertex  2.564120e+02  1.558270e+02  0.000000e+00
     vertex  2.616910e+02  1.549910e+02  0.000000e+00
     vertex  2.616910e+02  1.531370e+02  0.000000e+00
   endloop
 endfacet
 facet normal  0.000000e+00  0.000000e+00 -1.000000e+00
   outer loop
     vertex  2.564120e+02  1.558270e+02  0.000000e+00
     vertex  2.616910e+02  1.531370e+02  0.000000e+00
     vertex  2.564120e+02  1.523010e+02  0.000000e+00
   endloop
 endfacet
 facet normal  0.000000e+00  0.000000e+00 -1.000000e+00
   outer loop
     vertex  2.564120e+02  1.558270e+02  0.000000e+00
     vertex  2.559860e+02  1.531370e+02  0.000000e+00
     vertex  2.559860e+02  1.549910e+02  0.000000e+00
   endloop
 endfacet
 facet normal  0.000000e+00  0.000000e+00 -1.000000e+00
   outer loop
     vertex  2.564120e+02  1.558270e+02  0.000000e+00
     vertex  2.570760e+02  1.564910e+02  0.000000e+00
     vertex  2.616910e+02  1.549910e+02  0.000000e+00
   endloop
 endfacet
 facet normal  0.000000e+00  0.000000e+00  1.000000e+00
   outer loop
     vertex  2.616910e+02  1.531370e+02  1.500000e+02
     vertex  2.606020e+02  1.516370e+02  1.500000e+02
     vertex  2.612660e+02  1.523010e+02  1.500000e+02
   endloop
 endfacet
 facet normal  0.000000e+00  0.000000e+00  1.000000e+00
   outer loop
     vertex  2.616910e+02  1.531370e+02  1.500000e+02
     vertex  2.597660e+02  1.512110e+02  1.500000e+02
     vertex  2.606020e+02  1.516370e+02  1.500000e+02
   endloop
 endfacet
 facet normal -0.000000e+00  0.000000e+00  1.000000e+00
   outer loop
     vertex  2.579120e+02  1.512110e+02  1.500000e+02
     vertex  2.588390e+02  1.510640e+02  1.500000e+02
     vertex  2.597660e+02  1.512110e+02  1.500000e+02
   endloop
 endfacet
 facet normal  0.000000e+00  0.000000e+00  1.000000e+00
   outer loop
     vertex  2.579120e+02  1.512110e+02  1.500000e+02
     vertex  2.597660e+02  1.512110e+02  1.500000e+02
     vertex  2.616910e+02  1.531370e+02  1.500000e+02
   endloop
 endfacet
 facet normal  0.000000e+00  0.000000e+00  1.000000e+00
   outer loop
     vertex  2.616910e+02  1.549910e+02  1.500000e+02
     vertex  2.616910e+02  1.531370e+02  1.500000e+02
     vertex  2.618390e+02  1.540640e+02  1.500000e+02
   endloop
 endfacet
 facet normal -0.000000e+00  0.000000e+00  1.000000e+00
   outer loop
     vertex  2.570760e+02  1.516370e+02  1.500000e+02
     vertex  2.579120e+02  1.512110e+02  1.500000e+02
     vertex  2.616910e+02  1.531370e+02  1.500000e+02
   endloop
 endfacet
 facet normal -0.000000e+00  0.000000e+00  1.000000e+00
   outer loop
     vertex  2.564120e+02  1.523010e+02  1.500000e+02
     vertex  2.570760e+02  1.516370e+02  1.500000e+02
     vertex  2.616910e+02  1.531370e+02  1.500000e+02
   endloop
 endfacet
 facet normal  0.000000e+00  0.000000e+00  1.000000e+00
   outer loop
     vertex  2.606020e+02  1.564910e+02  1.500000e+02
     vertex  2.616910e+02  1.549910e+02  1.500000e+02
     vertex  2.612660e+02  1.558270e+02  1.500000e+02
   endloop
 endfacet
 facet normal  0.000000e+00  0.000000e+00  1.000000e+00
   outer loop
     vertex  2.597660e+02  1.569170e+02  1.500000e+02
     vertex  2.616910e+02  1.549910e+02  1.500000e+02
     vertex  2.606020e+02  1.564910e+02  1.500000e+02
   endloop
 endfacet
 facet normal  0.000000e+00  0.000000e+00  1.000000e+00
   outer loop
     vertex  2.579120e+02  1.569170e+02  1.500000e+02
     vertex  2.597660e+02  1.569170e+02  1.500000e+02
     vertex  2.588390e+02  1.570640e+02  1.500000e+02
   endloop
 endfacet
 facet normal -0.000000e+00  0.000000e+00  1.000000e+00
   outer loop
     vertex  2.579120e+02  1.569170e+02  1.500000e+02
     vertex  2.616910e+02  1.549910e+02  1.500000e+02
     vertex  2.597660e+02  1.569170e+02  1.500000e+02
   endloop
 endfacet
 facet normal  0.000000e+00  0.000000e+00  1.000000e+00
   outer loop
     vertex  2.559860e+02  1.549910e+02  1.500000e+02
     vertex  2.558390e+02  1.540640e+02  1.500000e+02
     vertex  2.559860e+02  1.531370e+02  1.500000e+02
   endloop
 endfacet
 facet normal -0.000000e+00  0.000000e+00  1.000000e+00
   outer loop
     vertex  2.570760e+02  1.564910e+02  1.500000e+02
     vertex  2.616910e+02  1.549910e+02  1.500000e+02
     vertex  2.579120e+02  1.569170e+02  1.500000e+02
   endloop
 endfacet
 facet normal  0.000000e+00  0.000000e+00  1.000000e+00
   outer loop
     vertex  2.564120e+02  1.558270e+02  1.500000e+02
     vertex  2.559860e+02  1.531370e+02  1.500000e+02
     vertex  2.564120e+02  1.523010e+02  1.500000e+02
   endloop
 endfacet
 facet normal  0.000000e+00  0.000000e+00  1.000000e+00
   outer loop
     vertex  2.564120e+02  1.558270e+02  1.500000e+02
     vertex  2.616910e+02  1.531370e+02  1.500000e+02
     vertex  2.616910e+02  1.549910e+02  1.500000e+02
   endloop
 endfacet
 facet normal  0.000000e+00  0.000000e+00  1.000000e+00
   outer loop
     vertex  2.564120e+02  1.558270e+02  1.500000e+02
     vertex  2.564120e+02  1.523010e+02  1.500000e+02
     vertex  2.616910e+02  1.531370e+02  1.500000e+02
   endloop
 endfacet
 facet normal  0.000000e+00  0.000000e+00  1.000000e+00
   outer loop
     vertex  2.564120e+02  1.558270e+02  1.500000e+02
     vertex  2.559860e+02  1.549910e+02  1.500000e+02
     vertex  2.559860e+02  1.531370e+02  1.500000e+02
   endloop
 endfacet
 facet normal -0.000000e+00  0.000000e+00  1.000000e+00
   outer loop
     vertex  2.564120e+02  1.558270e+02  1.500000e+02
     vertex  2.616910e+02  1.549910e+02  1.500000e+02
     vertex  2.570760e+02  1.564910e+02  1.500000e+02
   endloop
 endfacet
endsolid
