<?xml version="1.0"?>
<!-- Generated by SVGo -->
<svg width="183.352mm" height="169.064mm"
     viewBox="0.000 0.000 183.352 169.064"
     xmlns="http://www.w3.org/2000/svg" 
     xmlns:xlink="http://www.w3.org/1999/xlink">
<polygon points="170.852,5.001 171.440,5.024 172.025,5.093 172.602,5.208 173.169,5.368 173.722,5.571 174.256,5.818 174.770,6.106 175.260,6.433 175.722,6.797 176.155,7.197 176.555,7.630 176.919,8.091 177.246,8.582 177.534,9.096 177.781,9.630 177.984,10.183 178.144,10.750 178.259,11.327 178.328,11.912 178.352,12.501 178.352,156.564 178.328,157.152 178.259,157.737 178.144,158.315 177.984,158.882 177.781,159.434 177.534,159.969 177.246,160.483 176.919,160.972 176.555,161.435 176.155,161.867 175.722,162.267 175.260,162.632 174.770,162.959 174.256,163.247 173.722,163.493 173.169,163.697 172.602,163.857 172.025,163.972 171.440,164.041 170.852,164.064 12.501,164.064 11.912,164.041 11.327,163.972 10.750,163.857 10.183,163.697 9.630,163.493 9.096,163.247 8.582,162.959 8.091,162.632 7.630,162.267 7.197,161.867 6.797,161.435 6.433,160.972 6.106,160.483 5.818,159.969 5.571,159.434 5.368,158.882 5.208,158.315 5.093,157.737 5.024,157.152 5.000,156.564 5.001,12.501 5.024,11.912 5.093,11.327 5.208,10.750 5.368,10.183 5.571,9.630 5.818,9.096 6.106,8.582 6.433,8.091 6.797,7.630 7.197,7.197 7.630,6.797 8.091,6.433 8.582,6.106 9.096,5.818 9.630,5.571 10.183,5.368 10.750,5.208 11.327,5.093 11.912,5.024 12.501,5.000" style="fill:none;stroke-width:0.050000mm;stroke:black"/>
<polygon points="167.424,151.211 166.588,151.637 165.924,152.301 165.498,153.137 165.352,154.064 165.498,154.991 165.924,155.827 166.588,156.491 167.424,156.917 168.352,157.064 169.279,156.917 170.115,156.491 170.779,155.827 171.205,154.991 171.352,154.064 171.205,153.137 170.779,152.301 170.115,151.637 169.279,151.211 168.352,151.064" style="fill:none;stroke-width:0.050000mm;stroke:black"/>
<polygon points="14.073,151.211 13.237,151.637 12.573,152.301 12.147,153.137 12.000,154.064 12.147,154.991 12.573,155.827 13.237,156.491 14.073,156.917 15.001,157.064 15.928,156.917 16.764,156.491 17.428,155.827 17.854,154.991 18.001,154.064 17.854,153.137 17.428,152.301 16.764,151.637 15.928,151.211 15.001,151.064" style="fill:none;stroke-width:0.050000mm;stroke:black"/>
<polygon points="125.157,127.538 125.157,128.538 124.357,128.538 124.357,131.638 125.157,131.638 125.157,132.238 123.632,132.238 123.632,129.008 121.907,129.008 121.907,128.087 118.607,128.087 118.607,129.008 116.882,129.008 116.882,132.238 116.057,132.238 116.057,135.038 116.882,135.038 116.882,141.308 118.607,141.308 118.607,142.288 121.907,142.288 121.907,141.308 123.632,141.308 123.632,136.838 125.157,136.838 125.157,137.438 124.357,137.438 124.357,140.538 125.157,140.538 125.157,141.538 139.157,141.538 139.157,140.538 139.957,140.538 139.957,137.438 139.157,137.438 139.157,136.838 140.682,136.838 140.682,141.308 142.407,141.308 142.407,142.288 145.707,142.288 145.707,141.308 147.432,141.308 147.432,135.038 148.257,135.038 148.257,132.238 147.432,132.238 147.432,129.008 145.707,129.008 145.707,128.087 142.407,128.087 142.407,129.008 140.682,129.008 140.682,132.238 139.157,132.238 139.157,131.638 139.957,131.638 139.957,128.538 139.157,128.538 139.157,127.538" style="fill:none;stroke-width:0.050000mm;stroke:black"/>
<polygon points="32.288,127.538 32.288,128.538 31.488,128.538 31.488,131.638 32.288,131.638 32.288,137.438 31.488,137.438 31.488,140.538 32.288,140.538 32.288,141.538 46.288,141.538 46.288,140.538 47.088,140.538 47.088,137.438 46.288,137.438 46.288,131.638 47.088,131.638 47.088,128.538 46.288,128.538 46.288,127.538" style="fill:none;stroke-width:0.050000mm;stroke:black"/>
<polygon points="58.482,127.538 58.482,128.538 57.682,128.538 57.682,131.638 58.482,131.638 58.482,137.438 57.682,137.438 57.682,140.538 58.482,140.538 58.482,141.538 72.482,141.538 72.482,140.538 73.282,140.538 73.282,137.438 72.482,137.438 72.482,131.638 73.282,131.638 73.282,128.538 72.482,128.538 72.482,127.538" style="fill:none;stroke-width:0.050000mm;stroke:black"/>
<polygon points="84.676,127.538 84.676,128.538 83.876,128.538 83.876,131.638 84.676,131.638 84.676,137.438 83.876,137.438 83.876,140.538 84.676,140.538 84.676,141.538 98.676,141.538 98.676,140.538 99.476,140.538 99.476,137.438 98.676,137.438 98.676,131.638 99.476,131.638 99.476,128.538 98.676,128.538 98.676,127.538" style="fill:none;stroke-width:0.050000mm;stroke:black"/>
<polygon points="37.051,108.488 37.051,109.488 36.251,109.488 36.251,112.588 37.051,112.588 37.051,113.188 35.526,113.188 35.526,109.958 33.801,109.958 33.801,109.038 30.500,109.038 30.500,109.958 28.776,109.958 28.776,113.188 27.950,113.188 27.950,115.988 28.776,115.988 28.776,122.258 30.500,122.258 30.500,123.238 33.801,123.238 33.801,122.258 35.526,122.258 35.526,117.788 37.051,117.788 37.051,118.388 36.251,118.388 36.251,121.488 37.051,121.488 37.051,122.488 51.051,122.488 51.051,121.488 51.850,121.488 51.850,118.388 51.051,118.388 51.051,117.788 52.575,117.788 52.575,122.258 54.301,122.258 54.301,123.238 57.600,123.238 57.600,122.258 59.325,122.258 59.325,115.988 60.151,115.988 60.151,113.188 59.325,113.188 59.325,109.958 57.600,109.958 57.600,109.038 54.301,109.038 54.301,109.958 52.575,109.958 52.575,113.188 51.051,113.188 51.051,112.588 51.850,112.588 51.850,109.488 51.051,109.488 51.051,108.488" style="fill:none;stroke-width:0.050000mm;stroke:black"/>
<polygon points="65.626,108.488 65.626,109.488 64.826,109.488 64.826,112.588 65.626,112.588 65.626,118.388 64.826,118.388 64.826,121.488 65.626,121.488 65.626,122.488 79.626,122.488 79.626,121.488 80.426,121.488 80.426,118.388 79.626,118.388 79.626,112.588 80.426,112.588 80.426,109.488 79.626,109.488 79.626,108.488" style="fill:none;stroke-width:0.050000mm;stroke:black"/>
<polygon points="84.676,108.488 84.676,109.488 83.876,109.488 83.876,112.588 84.676,112.588 84.676,118.388 83.876,118.388 83.876,121.488 84.676,121.488 84.676,122.488 98.676,122.488 98.676,121.488 99.476,121.488 99.476,118.388 98.676,118.388 98.676,112.588 99.476,112.588 99.476,109.488 98.676,109.488 98.676,108.488" style="fill:none;stroke-width:0.050000mm;stroke:black"/>
<polygon points="103.726,108.488 103.726,109.488 102.926,109.488 102.926,112.588 103.726,112.588 103.726,118.388 102.926,118.388 102.926,121.488 103.726,121.488 103.726,122.488 117.726,122.488 117.726,121.488 118.525,121.488 118.525,118.388 117.726,118.388 117.726,112.588 118.525,112.588 118.525,109.488 117.726,109.488 117.726,108.488" style="fill:none;stroke-width:0.050000mm;stroke:black"/>
<polygon points="122.776,108.488 122.776,109.488 121.976,109.488 121.976,112.588 122.776,112.588 122.776,118.388 121.976,118.388 121.976,121.488 122.776,121.488 122.776,122.488 136.776,122.488 136.776,121.488 137.576,121.488 137.576,118.388 136.776,118.388 136.776,112.588 137.576,112.588 137.576,109.488 136.776,109.488 136.776,108.488" style="fill:none;stroke-width:0.050000mm;stroke:black"/>
<polygon points="141.826,108.488 141.826,109.488 141.026,109.488 141.026,112.588 141.826,112.588 141.826,118.388 141.026,118.388 141.026,121.488 141.826,121.488 141.826,122.488 155.826,122.488 155.826,121.488 156.626,121.488 156.626,118.388 155.826,118.388 155.826,112.588 156.626,112.588 156.626,109.488 155.826,109.488 155.826,108.488" style="fill:none;stroke-width:0.050000mm;stroke:black"/>
<polygon points="34.669,89.438 34.669,90.438 33.869,90.438 33.869,93.538 34.669,93.538 34.669,99.338 33.869,99.338 33.869,102.438 34.669,102.438 34.669,103.438 48.669,103.438 48.669,102.438 49.469,102.438 49.469,99.338 48.669,99.338 48.669,93.538 49.469,93.538 49.469,90.438 48.669,90.438 48.669,89.438" style="fill:none;stroke-width:0.050000mm;stroke:black"/>
<polygon points="60.863,89.438 60.863,90.438 60.063,90.438 60.063,93.538 60.863,93.538 60.863,99.338 60.063,99.338 60.063,102.438 60.863,102.438 60.863,103.438 74.863,103.438 74.863,102.438 75.663,102.438 75.663,99.338 74.863,99.338 74.863,93.538 75.663,93.538 75.663,90.438 74.863,90.438 74.863,89.438" style="fill:none;stroke-width:0.050000mm;stroke:black"/>
<polygon points="79.913,89.438 79.913,90.438 79.113,90.438 79.113,93.538 79.913,93.538 79.913,99.338 79.113,99.338 79.113,102.438 79.913,102.438 79.913,103.438 93.913,103.438 93.913,102.438 94.713,102.438 94.713,99.338 93.913,99.338 93.913,93.538 94.713,93.538 94.713,90.438 93.913,90.438 93.913,89.438" style="fill:none;stroke-width:0.050000mm;stroke:black"/>
<polygon points="98.963,89.438 98.963,90.438 98.163,90.438 98.163,93.538 98.963,93.538 98.963,99.338 98.163,99.338 98.163,102.438 98.963,102.438 98.963,103.438 112.963,103.438 112.963,102.438 113.763,102.438 113.763,99.338 112.963,99.338 112.963,93.538 113.763,93.538 113.763,90.438 112.963,90.438 112.963,89.438" style="fill:none;stroke-width:0.050000mm;stroke:black"/>
<polygon points="118.013,89.438 118.013,90.438 117.213,90.438 117.213,93.538 118.013,93.538 118.013,99.338 117.213,99.338 117.213,102.438 118.013,102.438 118.013,103.438 132.013,103.438 132.013,102.438 132.813,102.438 132.813,99.338 132.013,99.338 132.013,93.538 132.813,93.538 132.813,90.438 132.013,90.438 132.013,89.438" style="fill:none;stroke-width:0.050000mm;stroke:black"/>
<polygon points="139.444,89.438 139.444,90.438 138.644,90.438 138.644,93.538 139.444,93.538 139.444,99.338 138.644,99.338 138.644,102.438 139.444,102.438 139.444,103.438 153.444,103.438 153.444,102.438 154.244,102.438 154.244,99.338 153.444,99.338 153.444,93.538 154.244,93.538 154.244,90.438 153.444,90.438 153.444,89.438" style="fill:none;stroke-width:0.050000mm;stroke:black"/>
<polygon points="32.288,70.388 32.288,71.388 31.488,71.388 31.488,74.488 32.288,74.488 32.288,80.288 31.488,80.288 31.488,83.388 32.288,83.388 32.288,84.388 46.288,84.388 46.288,83.388 47.088,83.388 47.088,80.288 46.288,80.288 46.288,74.488 47.088,74.488 47.088,71.388 46.288,71.388 46.288,70.388" style="fill:none;stroke-width:0.050000mm;stroke:black"/>
<polygon points="56.101,70.388 56.101,71.388 55.301,71.388 55.301,74.488 56.101,74.488 56.101,80.288 55.301,80.288 55.301,83.388 56.101,83.388 56.101,84.388 70.101,84.388 70.101,83.388 70.901,83.388 70.901,80.288 70.101,80.288 70.101,74.488 70.901,74.488 70.901,71.388 70.101,71.388 70.101,70.388" style="fill:none;stroke-width:0.050000mm;stroke:black"/>
<polygon points="75.151,70.388 75.151,71.388 74.351,71.388 74.351,74.488 75.151,74.488 75.151,80.288 74.351,80.288 74.351,83.388 75.151,83.388 75.151,84.388 89.151,84.388 89.151,83.388 89.951,83.388 89.951,80.288 89.151,80.288 89.151,74.488 89.951,74.488 89.951,71.388 89.151,71.388 89.151,70.388" style="fill:none;stroke-width:0.050000mm;stroke:black"/>
<polygon points="94.201,70.388 94.201,71.388 93.401,71.388 93.401,74.488 94.201,74.488 94.201,80.288 93.401,80.288 93.401,83.388 94.201,83.388 94.201,84.388 108.201,84.388 108.201,83.388 109.001,83.388 109.001,80.288 108.201,80.288 108.201,74.488 109.001,74.488 109.001,71.388 108.201,71.388 108.201,70.388" style="fill:none;stroke-width:0.050000mm;stroke:black"/>
<polygon points="113.251,70.388 113.251,71.388 112.451,71.388 112.451,74.488 113.251,74.488 113.251,80.288 112.451,80.288 112.451,83.388 113.251,83.388 113.251,84.388 127.251,84.388 127.251,83.388 128.051,83.388 128.051,80.288 127.251,80.288 127.251,74.488 128.051,74.488 128.051,71.388 127.251,71.388 127.251,70.388" style="fill:none;stroke-width:0.050000mm;stroke:black"/>
<polygon points="137.063,70.388 137.063,71.388 136.263,71.388 136.263,74.488 137.063,74.488 137.063,80.288 136.263,80.288 136.263,83.388 137.063,83.388 137.063,84.388 151.063,84.388 151.063,83.388 151.863,83.388 151.863,80.288 151.063,80.288 151.063,74.488 151.863,74.488 151.863,71.388 151.063,71.388 151.063,70.388" style="fill:none;stroke-width:0.050000mm;stroke:black"/>
<polygon points="27.526,51.338 27.526,52.338 26.725,52.338 26.725,55.438 27.526,55.438 27.526,61.238 26.725,61.238 26.725,64.338 27.526,64.338 27.526,65.338 41.526,65.338 41.526,64.338 42.325,64.338 42.325,61.238 41.526,61.238 41.526,55.438 42.325,55.438 42.325,52.338 41.526,52.338 41.526,51.338" style="fill:none;stroke-width:0.050000mm;stroke:black"/>
<polygon points="46.576,51.338 46.576,52.338 45.776,52.338 45.776,55.438 46.576,55.438 46.576,61.238 45.776,61.238 45.776,64.338 46.576,64.338 46.576,65.338 60.576,65.338 60.576,64.338 61.376,64.338 61.376,61.238 60.576,61.238 60.576,55.438 61.376,55.438 61.376,52.338 60.576,52.338 60.576,51.338" style="fill:none;stroke-width:0.050000mm;stroke:black"/>
<polygon points="65.626,51.338 65.626,52.338 64.826,52.338 64.826,55.438 65.626,55.438 65.626,61.238 64.826,61.238 64.826,64.338 65.626,64.338 65.626,65.338 79.626,65.338 79.626,64.338 80.426,64.338 80.426,61.238 79.626,61.238 79.626,55.438 80.426,55.438 80.426,52.338 79.626,52.338 79.626,51.338" style="fill:none;stroke-width:0.050000mm;stroke:black"/>
<polygon points="84.676,51.338 84.676,52.338 83.876,52.338 83.876,55.438 84.676,55.438 84.676,61.238 83.876,61.238 83.876,64.338 84.676,64.338 84.676,65.338 98.676,65.338 98.676,64.338 99.476,64.338 99.476,61.238 98.676,61.238 98.676,55.438 99.476,55.438 99.476,52.338 98.676,52.338 98.676,51.338" style="fill:none;stroke-width:0.050000mm;stroke:black"/>
<polygon points="103.726,51.338 103.726,52.338 102.926,52.338 102.926,55.438 103.726,55.438 103.726,61.238 102.926,61.238 102.926,64.338 103.726,64.338 103.726,65.338 117.726,65.338 117.726,64.338 118.525,64.338 118.525,61.238 117.726,61.238 117.726,55.438 118.525,55.438 118.525,52.338 117.726,52.338 117.726,51.338" style="fill:none;stroke-width:0.050000mm;stroke:black"/>
<polygon points="122.776,51.338 122.776,52.338 121.976,52.338 121.976,55.438 122.776,55.438 122.776,61.238 121.976,61.238 121.976,64.338 122.776,64.338 122.776,65.338 136.776,65.338 136.776,64.338 137.576,64.338 137.576,61.238 136.776,61.238 136.776,55.438 137.576,55.438 137.576,52.338 136.776,52.338 136.776,51.338" style="fill:none;stroke-width:0.050000mm;stroke:black"/>
<polygon points="141.826,51.338 141.826,52.338 141.026,52.338 141.026,55.438 141.826,55.438 141.826,61.238 141.026,61.238 141.026,64.338 141.826,64.338 141.826,65.338 155.826,65.338 155.826,64.338 156.626,64.338 156.626,61.238 155.826,61.238 155.826,55.438 156.626,55.438 156.626,52.338 155.826,52.338 155.826,51.338" style="fill:none;stroke-width:0.050000mm;stroke:black"/>
<polygon points="44.194,27.526 44.194,28.526 43.394,28.526 43.394,31.626 44.194,31.626 44.194,37.426 43.394,37.426 43.394,40.526 44.194,40.526 44.194,41.526 58.194,41.526 58.194,40.526 58.994,40.526 58.994,37.426 58.194,37.426 58.194,31.626 58.994,31.626 58.994,28.526 58.194,28.526 58.194,27.526" style="fill:none;stroke-width:0.050000mm;stroke:black"/>
<polygon points="79.913,27.526 79.913,28.526 79.113,28.526 79.113,31.626 79.913,31.626 79.913,37.426 79.113,37.426 79.113,40.526 79.913,40.526 79.913,41.526 93.913,41.526 93.913,40.526 94.713,40.526 94.713,37.426 93.913,37.426 93.913,31.626 94.713,31.626 94.713,28.526 93.913,28.526 93.913,27.526" style="fill:none;stroke-width:0.050000mm;stroke:black"/>
<polygon points="98.963,27.526 98.963,28.526 98.163,28.526 98.163,31.626 98.963,31.626 98.963,37.426 98.163,37.426 98.163,40.526 98.963,40.526 98.963,41.526 112.963,41.526 112.963,40.526 113.763,40.526 113.763,37.426 112.963,37.426 112.963,31.626 113.763,31.626 113.763,28.526 112.963,28.526 112.963,27.526" style="fill:none;stroke-width:0.050000mm;stroke:black"/>
<polygon points="118.013,27.526 118.013,28.526 117.213,28.526 117.213,31.626 118.013,31.626 118.013,37.426 117.213,37.426 117.213,40.526 118.013,40.526 118.013,41.526 132.013,41.526 132.013,40.526 132.813,40.526 132.813,37.426 132.013,37.426 132.013,31.626 132.813,31.626 132.813,28.526 132.013,28.526 132.013,27.526" style="fill:none;stroke-width:0.050000mm;stroke:black"/>
<polygon points="137.063,27.526 137.063,28.526 136.263,28.526 136.263,31.626 137.063,31.626 137.063,37.426 136.263,37.426 136.263,40.526 137.063,40.526 137.063,41.526 151.063,41.526 151.063,40.526 151.863,40.526 151.863,37.426 151.063,37.426 151.063,31.626 151.863,31.626 151.863,28.526 151.063,28.526 151.063,27.526" style="fill:none;stroke-width:0.050000mm;stroke:black"/>
<polygon points="167.424,12.147 166.588,12.573 165.924,13.237 165.498,14.073 165.352,15.001 165.498,15.928 165.924,16.764 166.588,17.428 167.424,17.854 168.352,18.001 169.279,17.854 170.115,17.428 170.779,16.764 171.205,15.928 171.352,15.001 171.205,14.073 170.779,13.237 170.115,12.573 169.279,12.147 168.352,12.001" style="fill:none;stroke-width:0.050000mm;stroke:black"/>
<polygon points="14.073,12.147 13.237,12.573 12.573,13.237 12.147,14.073 12.000,15.001 12.147,15.928 12.573,16.764 13.237,17.428 14.073,17.854 15.001,18.001 15.928,17.854 16.764,17.428 17.428,16.764 17.854,15.928 18.001,15.001 17.854,14.073 17.428,13.237 16.764,12.573 15.928,12.147 15.001,12.001" style="fill:none;stroke-width:0.050000mm;stroke:black"/>
</svg>
