<?xml version="1.0"?>
<!-- Generated by SVGo -->
<svg width="273.839mm" height="169.064mm"
     viewBox="0.000 0.000 273.839 169.064"
     xmlns="http://www.w3.org/2000/svg" 
     xmlns:xlink="http://www.w3.org/1999/xlink">
<polygon points="261.339,5.001 261.927,5.024 262.512,5.093 263.090,5.208 263.657,5.368 264.209,5.571 264.744,5.818 265.258,6.106 265.747,6.433 266.210,6.797 266.642,7.197 267.042,7.630 267.407,8.091 267.734,8.582 268.022,9.096 268.268,9.630 268.472,10.183 268.632,10.750 268.747,11.327 268.816,11.912 268.839,12.501 268.839,156.564 268.816,157.152 268.747,157.737 268.632,158.315 268.472,158.882 268.268,159.434 268.022,159.969 267.734,160.483 267.407,160.972 267.042,161.435 266.642,161.867 266.210,162.267 265.747,162.632 265.258,162.959 264.744,163.247 264.209,163.493 263.657,163.697 263.090,163.857 262.512,163.972 261.927,164.041 261.339,164.064 12.501,164.064 11.912,164.041 11.327,163.972 10.750,163.857 10.183,163.697 9.630,163.493 9.096,163.247 8.582,162.959 8.091,162.632 7.630,162.267 7.197,161.867 6.797,161.435 6.433,160.972 6.106,160.483 5.818,159.969 5.571,159.434 5.368,158.882 5.208,158.315 5.093,157.737 5.024,157.152 5.000,156.564 5.001,12.501 5.024,11.912 5.093,11.327 5.208,10.750 5.368,10.183 5.571,9.630 5.818,9.096 6.106,8.582 6.433,8.091 6.797,7.630 7.197,7.197 7.630,6.797 8.091,6.433 8.582,6.106 9.096,5.818 9.630,5.571 10.183,5.368 10.750,5.208 11.327,5.093 11.912,5.024 12.501,5.000" style="fill:none;stroke-width:0.050000mm;stroke:black"/>
<polygon points="257.912,151.211 257.076,151.637 256.412,152.301 255.986,153.137 255.839,154.064 255.986,154.991 256.412,155.827 257.076,156.491 257.912,156.917 258.839,157.064 259.766,156.917 260.602,156.491 261.266,155.827 261.691,154.991 261.839,154.064 261.691,153.137 261.266,152.301 260.602,151.637 259.766,151.211 258.839,151.064" style="fill:none;stroke-width:0.050000mm;stroke:black"/>
<polygon points="14.073,151.211 13.237,151.637 12.573,152.301 12.147,153.137 12.000,154.064 12.147,154.991 12.573,155.827 13.237,156.491 14.073,156.917 15.001,157.064 15.928,156.917 16.764,156.491 17.428,155.827 17.854,154.991 18.001,154.064 17.854,153.137 17.428,152.301 16.764,151.637 15.928,151.211 15.001,151.064" style="fill:none;stroke-width:0.050000mm;stroke:black"/>
<polygon points="25.000,48.812 25.000,125.014 25.190,125.014 25.190,144.064 182.164,144.064 182.164,105.964 186.927,105.964 186.927,48.812" style="fill:none;stroke-width:0.050000mm;stroke:black"/>
<polygon points="210.737,96.437 210.737,115.487 191.687,115.487 191.687,134.539 248.839,134.539 248.839,115.487 229.789,115.487 229.789,96.437" style="fill:none;stroke-width:0.050000mm;stroke:black"/>
<polygon points="191.687,48.812 191.687,86.914 248.839,86.914 248.839,48.812" style="fill:none;stroke-width:0.050000mm;stroke:black"/>
<polygon points="29.762,25.000 29.762,44.052 105.964,44.052 105.964,25.000" style="fill:none;stroke-width:0.050000mm;stroke:black"/>
<polygon points="110.725,25.000 110.725,44.052 186.927,44.052 186.927,25.000" style="fill:none;stroke-width:0.050000mm;stroke:black"/>
<polygon points="191.687,25.000 191.687,44.052 248.839,44.052 248.839,25.000" style="fill:none;stroke-width:0.050000mm;stroke:black"/>
<polygon points="257.912,12.147 257.076,12.573 256.412,13.237 255.986,14.073 255.839,15.001 255.986,15.928 256.412,16.764 257.076,17.428 257.912,17.854 258.839,18.001 259.766,17.854 260.602,17.428 261.266,16.764 261.691,15.928 261.839,15.001 261.691,14.073 261.266,13.237 260.602,12.573 259.766,12.147 258.839,12.001" style="fill:none;stroke-width:0.050000mm;stroke:black"/>
<polygon points="14.073,12.147 13.237,12.573 12.573,13.237 12.147,14.073 12.000,15.001 12.147,15.928 12.573,16.764 13.237,17.428 14.073,17.854 15.001,18.001 15.928,17.854 16.764,17.428 17.428,16.764 17.854,15.928 18.001,15.001 17.854,14.073 17.428,13.237 16.764,12.573 15.928,12.147 15.001,12.001" style="fill:none;stroke-width:0.050000mm;stroke:black"/>
</svg>
