<?xml version="1.0"?>
<!DOCTYPE svg PUBLIC "-//W3C//DTD SVG 1.1//EN" "http://www.w3.org/Graphics/SVG/1.1/DTD/svg11.dtd">
<svg width="563.209552113mm" height="306.319801601mm" viewBox="0 0 563.209552113 306.319801601" xmlns="http://www.w3.org/2000/svg" version="1.1">
<g id="Part__Feature" transform="translate(239.209801,56.249313) scale(1,-1)">
<path id="Part__Feature_f0000"  d="M 52.1991407435 -241.846772929 Q 51.0041258095 -241.975655213 49.7793238265 -242.101332889 Q -2.21659970136 -247.415821391 -54.1104231812 -241.203097533 Q -55.3087312588 -241.059152324 -56.4771115078 -240.91277802 L -56.4771115078 -240.91277802 Q -2.19488993467 -247.688482203 52.1991407435 -241.846772929 L 52.1991407435 -241.846772929 Z " stroke="#191919" stroke-width="0.35 px" style="stroke-width:0.35;stroke-miterlimit:4;stroke-dasharray:none;fill:#cccccc;fill-rule: evenodd "/>
<path id="Part__Feature_f0001"  d="M 248.554669003 -206.890688498 L 248.554669003 -206.890688498 L 52.1991407435 -241.846772929 L 52.1991407435 -241.846772929 L 248.554669003 -206.890688498 Z " stroke="#191919" stroke-width="0.35 px" style="stroke-width:0.35;stroke-miterlimit:4;stroke-dasharray:none;fill:#cccccc;fill-rule: evenodd "/>
<path id="Part__Feature_f0002"  d="M 50.534593779 -230.079961482 Q 50.7684655974 -230.609696062 51.3163533743 -230.386790107 Q 51.7306710958 -230.16135305 52.1449888173 -229.935915993 C 53.4246449369 -235.670273469 53.4526154418 -241.822458747 52.1991407435 -241.846772929 Q 51.0041258095 -241.975655213 49.7793238265 -242.101332889 C 49.8436917956 -242.143148027 49.7927325155 -240.960862677 49.5927509129 -238.533127686 C 49.3981295875 -236.14822631 49.0863943841 -232.882097154 48.8360582955 -230.409130353 C 49.4051215022 -230.290009861 49.9741759211 -230.179729562 50.534593779 -230.079961482 Z " stroke="#191919" stroke-width="0.35 px" style="stroke-width:0.35;stroke-miterlimit:4;stroke-dasharray:none;fill:#cccccc;fill-rule: evenodd "/>
<path id="Part__Feature_f0003"  d="M -56.4771115078 -240.91277802 Q -2.19488993467 -247.688482203 52.1991407435 -241.846772929 L 248.554669003 -206.890688499 C 271.267535294 -202.942207601 291.790345604 -189.612851924 304.318624377 -170.67256098 C 317.04436998 -151.780381665 321.544326691 -127.50843014 316.538477501 -104.760845131 L 283.051388931 50.3900671262 L -195.129908055 38.2330758946 L -231.361424672 -116.318654657 C -236.769528588 -138.976515502 -232.705739419 -163.321813962 -220.325985757 -182.429672718 C -208.144178983 -201.582619453 -187.873041495 -215.26280178 -165.245972094 -219.600985568 L -56.4771115078 -240.91277802 Z M 15.9598264475 39.5686191723 L 268.991340893 46.2823412789 A 5 5 0 0 0 273.989 42.4383L 306.538477501 -94.7608451313 A 84.5783 84.5783 0 0 0 238.915 -196.827A 5 5 0 0 0 238.2 -196.902L -154.727578005 -209.584253897 A 5 5 0 0 0 -155.773 -209.508A 81.0427 81.0427 0 0 0 -221.361 -116.319L -186.026765031 30.5063930972 A 5 5 0 0 0 -181.298 34.3347L -136.874107702 35.513454089 A 10 10 0 0 0 -134.893 35.7632L -104.902857828 36.5256611991 A 10 10 0 0 0 -103.107 36.4094L -15.9397662484 38.722222623 A 10 10 0 0 0 -14.8021 38.8163L 15.1882461182 39.578784579 A 10 10 0 0 0 15.9598 39.5686Z " stroke="#191919" stroke-width="0.35 px" style="stroke-width:0.35;stroke-miterlimit:4;stroke-dasharray:none;fill:#cccccc;fill-rule: evenodd "/>
<path id="Part__Feature_f0004"  d="M 49.7793238274 -242.101332897 C 49.8436917956 -242.143148027 49.7927325155 -240.960862677 49.5927509129 -238.533127686 C 49.3981295875 -236.14822631 49.0863943841 -232.882097154 48.8360582955 -230.409130353 Q -2.08795536422 -235.622682721 -52.9127651633 -229.538594038 C -53.2205791831 -232.004923824 -53.6003049172 -235.262808177 -53.8436787004 -237.642181698 C -54.093295814 -240.064257299 -54.1692574437 -241.244507012 -54.1104231812 -241.203097533 Q -2.21659970136 -247.415821391 49.7793238274 -242.101332897 Z " stroke="#191919" stroke-width="0.35 px" style="stroke-width:0.35;stroke-miterlimit:4;stroke-dasharray:none;fill:#cccccc;fill-rule: evenodd "/>
<path id="Part__Feature_f0005"  d="M -56.4771115078 -240.91277802 L -165.245972094 -219.600985568 L -165.245972094 -219.600985568 L -56.4771115078 -240.91277802 L -56.4771115078 -240.91277802 Z " stroke="#191919" stroke-width="0.35 px" style="stroke-width:0.35;stroke-miterlimit:4;stroke-dasharray:none;fill:#cccccc;fill-rule: evenodd "/>
<path id="Part__Feature_f0006"  d="M -54.5837920005 -229.090924494 C -54.0325214442 -229.230093972 -53.4726476807 -229.379923832 -52.9127651633 -229.538594038 C -53.2205791831 -232.004923824 -53.6003049172 -235.262808177 -53.8436787004 -237.642181698 C -54.093295814 -240.064257299 -54.1692574437 -241.244507012 -54.1104231812 -241.203097533 Q -55.3087312588 -241.059152324 -56.4771115078 -240.91277802 C -57.7466340988 -240.863300373 -57.6274370493 -234.714033336 -56.2462838161 -229.004587991 C -55.7450107533 -229.178354601 -54.9264888996 -229.910228975 -54.5837920005 -229.090924494 Z " stroke="#191919" stroke-width="0.35 px" style="stroke-width:0.35;stroke-miterlimit:4;stroke-dasharray:none;fill:#cccccc;fill-rule: evenodd "/>
<path id="Part__Feature_f0007"  d="M 52.1991407435 -241.846772929 L 248.554669003 -206.890688498 M 248.554669003 -206.890688498 L 248.500517077 -194.979831563 L 52.1449888173 -229.935915993 C 53.4246449369 -235.670273469 53.4526154418 -241.822458747 52.1991407435 -241.846772929 Z " stroke="#191919" stroke-width="0.35 px" style="stroke-width:0.35;stroke-miterlimit:4;stroke-dasharray:none;fill:#cccccc;fill-rule: evenodd "/>
<path id="Part__Feature_f0008"  d="M 316.538477501 -104.760845131 L 316.538477501 -104.760845131 C 321.544326691 -127.50843014 317.04436998 -151.780381665 304.318624377 -170.67256098 C 291.790345604 -189.612851924 271.267535294 -202.942207601 248.554669003 -206.890688498 L 248.554669003 -206.890688498 C 270.362193777 -203.073065142 290.466035189 -190.671646748 303.395448095 -172.02669437 C 316.446949782 -153.535246457 321.531166305 -128.996184953 316.819023198 -106.11111003 C 316.725507966 -105.66102173 316.631992734 -105.210933431 316.538477501 -104.760845131 Z " stroke="#191919" stroke-width="0.35 px" style="stroke-width:0.35;stroke-miterlimit:4;stroke-dasharray:none;fill:#cccccc;fill-rule: evenodd "/>
<path id="Part__Feature_f0009"  d="M -0.0352741771284 -3.9806129702 L 48.8360582955 -230.409130353 C 49.4051215022 -230.290009861 49.9741759211 -230.179729562 50.534593779 -230.079961482 L 1.56010089449 -3.17348579584 C 1.03406984048 -3.43257330969 0.499402225664 -3.7021730429 -0.0352741771284 -3.9806129702 Z " stroke="#191919" stroke-width="0.35 px" style="stroke-width:0.35;stroke-miterlimit:4;stroke-dasharray:none;fill:#cccccc;fill-rule: evenodd "/>
<path id="Part__Feature_f0010"  d="M 50.534593779 -230.079961482 Q 50.7684655974 -230.609696062 51.3163533743 -230.386790107 Q 51.7306710958 -230.16135305 52.1449888173 -229.935915993 L 248.500517077 -194.979831563 C 267.56985977 -191.631204093 285.184197088 -180.9310598 296.677915687 -164.561141781 C 308.265933201 -148.337334765 312.911953504 -126.556822892 308.739798796 -106.141842418 C 308.647233681 -105.69621756 308.554668567 -105.250592701 308.462103452 -104.804967842 L 275.982021594 45.6803250163 L 1.56010089449 -3.17348579585 L 50.534593779 -230.079961482 Z M 120.01899562 -14.5138361935 M 120.01899562 -14.5138361935 L 118.265785706 -13.3207662418 L 45.7756133764 -25.9881202217 M 45.7756133764 -25.9881202217 L 44.637005028 -27.686523302 L 48.3352675169 -45.0854803599 M 48.3352675169 -45.0854803599 L 50.0884774311 -46.2785503116 L 122.578649761 -33.6111963318 M 122.578649761 -33.6111963318 L 123.717258109 -31.9127932514 L 120.01899562 -14.5138361935 Z M 210.160480145 -80.195361087 L 213.305814476 -79.6457270875 M 213.305814476 -79.6457270875 L 214.444422824 -77.9473240071 L 202.940720449 -23.826659442 M 202.940720449 -23.826659442 L 201.187510534 -22.6335894903 L 46.0636313499 -49.7408376208 M 46.0636313499 -49.7408376208 L 44.9250230014 -51.4392407012 L 64.2341652631 -142.281612773 M 64.2341652631 -142.281612773 L 65.9873751773 -143.474682725 L 216.5200109 -117.169735159 M 216.5200109 -117.169735159 L 217.658619249 -115.471332078 L 210.160480145 -80.195361087 Z M 276.279657676 -77.6609193593 M 276.279657676 -77.6609193593 L 274.526447761 -76.4678494076 L 257.609310925 -79.42404821 L 254.013891765 -62.5089309727 M 254.013891765 -62.5089309727 L 252.260681851 -61.315861021 L 234.859647425 -64.3566189004 M 234.859647425 -64.3566189004 L 233.721039076 -66.0550219807 L 237.316458236 -82.9701392181 L 220.3993214 -85.9263380205 M 220.3993214 -85.9263380205 L 219.260713052 -87.6247411009 L 222.958975541 -105.023698159 M 222.958975541 -105.023698159 L 224.712185455 -106.216768111 L 278.839311816 -96.758279498 M 278.839311816 -96.758279498 L 279.977920165 -95.0598764176 L 276.279657676 -77.6609193593 Z M 262.620137875 -13.397931222 M 262.620137875 -13.397931222 L 260.86692796 -12.2048612703 L 206.739801599 -21.6633498833 M 206.739801599 -21.6633498833 L 205.601193251 -23.3617529636 L 213.202175683 -59.1215637754 M 213.202175683 -59.1215637754 L 214.955385597 -60.3146337271 L 269.082511958 -50.8561451141 M 269.082511958 -50.8561451141 L 270.221120307 -49.1577420337 L 262.620137875 -13.397931222 Z M 257.741840379 9.5526540577 M 257.741840379 9.5526540577 L 255.988630465 10.7457240094 L 201.861504104 1.28723539642 M 201.861504104 1.28723539642 L 200.722895755 -0.411167683926 L 204.421158244 -17.8101247418 M 204.421158244 -17.8101247418 L 206.174368158 -19.0031946935 L 260.30149452 -9.54470608056 M 260.30149452 -9.54470608056 L 261.440102868 -7.84630300022 L 257.741840379 9.5526540577 Z M 198.062422953 -0.87607416231 M 198.062422953 -0.876074162309 L 196.309213039 0.316995789401 L 123.81904071 -12.3503581905 M 123.81904071 -12.3503581905 L 122.680432361 -14.0487612708 L 126.37869485 -31.4477183287 M 126.37869485 -31.4477183287 L 128.131904764 -32.6407882804 L 200.622077094 -19.9734343006 M 200.622077094 -19.9734343006 L 201.760685442 -18.2750312202 L 198.062422953 -0.87607416231 Z " stroke="#191919" stroke-width="0.35 px" style="stroke-width:0.35;stroke-miterlimit:4;stroke-dasharray:none;fill:#cccccc;fill-rule: evenodd "/>
<path id="Part__Feature_f0011"  d="M -165.245972094 -219.600985568 C -186.968525557 -215.40956309 -206.838535426 -202.666130195 -219.428621968 -183.797954288 C -232.143468006 -165.081483209 -236.783512065 -140.45241752 -231.663791853 -117.654405879 C -231.563002793 -117.209155472 -231.462213732 -116.763905064 -231.361424672 -116.318654657 L -231.361424672 -116.318654657 C -236.769528588 -138.976515502 -232.705739419 -163.321813962 -220.325985757 -182.429672718 C -208.144178983 -201.582619453 -187.873041495 -215.26280178 -165.245972094 -219.600985568 L -165.245972094 -219.600985568 Z " stroke="#191919" stroke-width="0.35 px" style="stroke-width:0.35;stroke-miterlimit:4;stroke-dasharray:none;fill:#cccccc;fill-rule: evenodd "/>
<path id="Part__Feature_f0012"  d="M -231.361424672 -116.318654657 L -196.217241032 33.5948711255 C -196.003618966 34.5061125795 -195.790198696 35.4164932415 -195.576980221 36.3260131114 C -195.366290657 37.2247454811 -195.126465526 38.247760594 -195.129908055 38.2330758946 L -195.129908055 38.2330758946 L -231.361424672 -116.318654657 L -231.361424672 -116.318654657 Z " stroke="#191919" stroke-width="0.35 px" style="stroke-width:0.35;stroke-miterlimit:4;stroke-dasharray:none;fill:#cccccc;fill-rule: evenodd "/>
<path id="Part__Feature_f0013"  d="M 267.705243437 49.999916032 L -184.50957046 38.5030809153 C -187.135281454 38.4363264317 -189.540330031 38.3751819356 -191.72471619 38.319647427 C -193.802451999 38.2668243321 -195.155085233 38.2324358053 -195.129908055 38.2330758946 L -195.129908055 38.2330758946 L 283.051388931 50.3900671262 L 283.051388931 50.3900671262 L 267.705243437 49.999916032 Z M -8.20588828974 42.9853187857 M -8.20588828974 42.9853187857 L -8.20588828974 42.9853187857 Z M -110.252822709 40.3909394263 M -110.252822709 40.3909394263 L -115.126247997 40.267040418 L -124.873098572 40.0192424013 L -129.74652386 39.895343393 L -124.873098572 40.0192424013 L -115.126247997 40.267040418 L -110.252822709 40.3909394263 Z M 4.98984787415 43.3207991774 M 4.98984787415 43.3207991774 L 6.58933104552 43.3614634673 L 6.58933104552 43.3614634673 M 6.58933104552 43.3614634673 L 4.98984787415 43.3207991774 L -4.80698655056 43.0717304017 M -4.80698655056 43.0717304017 L -6.40646972193 43.0310661118 L -6.40646972193 43.0310661118 M -6.40646972193 43.0310661118 L -4.80698655056 43.0717304017 L 4.98984787415 43.3207991774 Z M 11.7876513525 43.4936224095 M 11.7876513525 43.4936224095 L 11.7876513525 43.4936224095 Z " stroke="#191919" stroke-width="0.35 px" style="stroke-width:0.35;stroke-miterlimit:4;stroke-dasharray:none;fill:#cccccc;fill-rule: evenodd "/>
<path id="Part__Feature_f0014"  d="M 284.058395643 45.724447727 C 283.860573369 46.6409892282 283.66293961 47.5566573021 283.465494369 48.4714519488 C 283.270394823 49.3753786198 283.048203045 50.404827835 283.051388931 50.3900671262 L 283.051388931 50.3900671262 L 316.538477501 -104.760845131 L 316.538477501 -104.760845131 L 284.058395643 45.724447727 Z " stroke="#191919" stroke-width="0.35 px" style="stroke-width:0.35;stroke-miterlimit:4;stroke-dasharray:none;fill:#cccccc;fill-rule: evenodd "/>
<path id="Part__Feature_f0015"  d="M 15.9598264475 39.5686191723 L 15.9598264475 39.5686191723 A 10 10 0 0 1 15.1882 39.5788L 15.1882461182 39.578784579 A 10 10 0 0 0 25.4392 29.8362L 25.4391677513 29.8361665698 A 10 10 0 0 1 15.9598 39.5686Z " stroke="#191919" stroke-width="0.35 px" style="stroke-width:0.35;stroke-miterlimit:4;stroke-dasharray:none;fill:#cccccc;fill-rule: evenodd "/>
<path id="Part__Feature_f0016"  d="M -14.8020633451 38.8163291432 L -14.8020633451 38.8163291432 L 15.1882461182 39.578784579 L 15.1882461182 39.578784579 L -14.8020633451 38.8163291432 Z M 11.8893120773 39.4949144811 M 11.8893120773 39.4949144811 L 11.8893120773 39.4949144811 Z M -4.70532582578 39.0730224733 L 5.09150859892 39.322091249 M 5.09150859892 39.322091249 L 6.6909917703 39.3627555389 L 6.6909917703 39.3627555389 M 6.6909917703 39.3627555389 L 5.09150859892 39.322091249 L -4.70532582578 39.0730224733 M -4.70532582578 39.0730224733 L -6.30480899716 39.0323581834 L -6.30480899716 39.0323581834 M -6.30480899716 39.0323581834 L -4.70532582578 39.0730224733 Z M -8.10422756497 38.9866108572 M -8.10422756496 38.9866108572 L -8.10422756496 38.9866108572 Z " stroke="#191919" stroke-width="0.35 px" style="stroke-width:0.35;stroke-miterlimit:4;stroke-dasharray:none;fill:#cccccc;fill-rule: evenodd "/>
<path id="Part__Feature_f0017"  d="M -24.5446813543 28.5654075102 A 10 10 0 0 0 -15.9398 38.7222L -15.9397662484 38.722222623 A 10 10 0 0 0 -14.8021 38.8163L -14.8020633451 38.8163291432 A 10 10 0 0 1 -24.5447 28.5654L -24.5446813543 28.5654075102 Z " stroke="#191919" stroke-width="0.35 px" style="stroke-width:0.35;stroke-miterlimit:4;stroke-dasharray:none;fill:#cccccc;fill-rule: evenodd "/>
<path id="Part__Feature_f0018"  d="M -103.10737185 36.4093918202 L -15.9397662484 38.722222623 L -15.9397662484 38.722222623 L -103.10737185 36.4093918202 L -103.10737185 36.4093918202 Z " stroke="#191919" stroke-width="0.35 px" style="stroke-width:0.35;stroke-miterlimit:4;stroke-dasharray:none;fill:#cccccc;fill-rule: evenodd "/>
<path id="Part__Feature_f0019"  d="M -103.10737185 36.4093918202 L -103.10737185 36.4093918202 A 10 10 0 0 1 -104.903 36.5257L -104.902857828 36.5256611991 A 10 10 0 0 0 -94.6519 26.783L -94.6519361949 26.7830431899 A 10 10 0 0 1 -103.107 36.4094Z " stroke="#191919" stroke-width="0.35 px" style="stroke-width:0.35;stroke-miterlimit:4;stroke-dasharray:none;fill:#cccccc;fill-rule: evenodd "/>
<path id="Part__Feature_f0020"  d="M -134.893167291 35.7632057633 L -134.893167291 35.7632057633 L -104.902857828 36.5256611991 L -104.902857828 36.5256611991 L -134.893167291 35.7632057633 Z M -110.151161984 36.3922314978 M -110.151161984 36.3922314978 L -115.024587272 36.2683324895 L -124.771437847 36.0205344729 L -129.644863135 35.8966354646 L -124.771437847 36.0205344729 L -115.024587272 36.2683324895 L -110.151161984 36.3922314978 Z " stroke="#191919" stroke-width="0.35 px" style="stroke-width:0.35;stroke-miterlimit:4;stroke-dasharray:none;fill:#cccccc;fill-rule: evenodd "/>
<path id="Part__Feature_f0021"  d="M -144.6357853 25.5122841303 A 10 10 0 0 0 -136.874 35.5135L -136.874107702 35.513454089 A 10 10 0 0 0 -134.893 35.7632L -134.893167291 35.7632057633 A 10 10 0 0 1 -144.636 25.5123L -144.6357853 25.5122841303 Z " stroke="#191919" stroke-width="0.35 px" style="stroke-width:0.35;stroke-miterlimit:4;stroke-dasharray:none;fill:#cccccc;fill-rule: evenodd "/>
<path id="Part__Feature_f0022"  d="M -181.29817467 34.3347438358 L -136.874107702 35.513454089 L -136.874107702 35.513454089 L -181.29817467 34.3347438358 L -181.29817467 34.3347438358 Z " stroke="#191919" stroke-width="0.35 px" style="stroke-width:0.35;stroke-miterlimit:4;stroke-dasharray:none;fill:#cccccc;fill-rule: evenodd "/>
<path id="Part__Feature_f0023"  d="M -181.29817467 34.3347438358 L -181.29817467 34.3347438358 A 5 5 0 0 1 -186.027 30.5064L -186.026765031 30.5063930972 A 5 5 0 0 0 -181.298 34.3347Z " stroke="#191919" stroke-width="0.35 px" style="stroke-width:0.35;stroke-miterlimit:4;stroke-dasharray:none;fill:#cccccc;fill-rule: evenodd "/>
<path id="Part__Feature_f0024"  d="M -221.361424672 -116.318654656 L -186.026765031 30.5063930972 L -186.026765031 30.5063930972 L -221.361424672 -116.318654657 L -221.361424672 -116.318654657 Z " stroke="#191919" stroke-width="0.35 px" style="stroke-width:0.35;stroke-miterlimit:4;stroke-dasharray:none;fill:#cccccc;fill-rule: evenodd "/>
<path id="Part__Feature_f0025"  d="M -155.773283563 -209.508016587 A 81.0427 81.0427 0 0 0 -221.361 -116.319L -221.361424672 -116.318654657 A 81.0427 81.0427 0 0 1 -155.773 -209.508L -155.773283563 -209.508016587 Z " stroke="#191919" stroke-width="0.35 px" style="stroke-width:0.35;stroke-miterlimit:4;stroke-dasharray:none;fill:#cccccc;fill-rule: evenodd "/>
<path id="Part__Feature_f0026"  d="M -155.773283563 -209.508016587 L -155.773283563 -209.508016587 A 5 5 0 0 1 -154.728 -209.584L -154.727578005 -209.584253897 A 5 5 0 0 0 -155.773 -209.508Z " stroke="#191919" stroke-width="0.35 px" style="stroke-width:0.35;stroke-miterlimit:4;stroke-dasharray:none;fill:#cccccc;fill-rule: evenodd "/>
<path id="Part__Feature_f0027"  d="M 238.199504664 -196.902151771 L -154.727578005 -209.584253897 L -154.727578005 -209.584253897 L 238.199504664 -196.902151772 L 238.199504664 -196.902151772 Z " stroke="#191919" stroke-width="0.35 px" style="stroke-width:0.35;stroke-miterlimit:4;stroke-dasharray:none;fill:#cccccc;fill-rule: evenodd "/>
<path id="Part__Feature_f0028"  d="M 238.199504664 -196.902151772 L 238.199504664 -196.902151772 A 5 5 0 0 1 238.915 -196.827L 238.915467405 -196.827194268 A 5 5 0 0 0 238.2 -196.902Z " stroke="#191919" stroke-width="0.35 px" style="stroke-width:0.35;stroke-miterlimit:4;stroke-dasharray:none;fill:#cccccc;fill-rule: evenodd "/>
<path id="Part__Feature_f0029"  d="M 306.538477501 -94.7608451313 A 84.5783 84.5783 0 0 0 238.915 -196.827L 238.915467405 -196.827194268 A 84.5783 84.5783 0 0 1 306.538 -94.7608L 306.538477501 -94.7608451313 Z " stroke="#191919" stroke-width="0.35 px" style="stroke-width:0.35;stroke-miterlimit:4;stroke-dasharray:none;fill:#cccccc;fill-rule: evenodd "/>
<path id="Part__Feature_f0030"  d="M 273.988923472 42.4382796932 L 306.538477501 -94.7608451313 L 306.538477501 -94.7608451313 L 273.988923473 42.4382796932 L 273.988923473 42.4382796932 Z " stroke="#191919" stroke-width="0.35 px" style="stroke-width:0.35;stroke-miterlimit:4;stroke-dasharray:none;fill:#cccccc;fill-rule: evenodd "/>
<path id="Part__Feature_f0031"  d="M 268.991340893 46.2823412789 A 5 5 0 0 0 273.989 42.4383L 273.988923473 42.4382796932 A 5 5 0 0 1 268.991 46.2823L 268.991340893 46.2823412789 Z " stroke="#191919" stroke-width="0.35 px" style="stroke-width:0.35;stroke-miterlimit:4;stroke-dasharray:none;fill:#cccccc;fill-rule: evenodd "/>
<path id="Part__Feature_f0032"  d="M 15.9598264475 39.5686191723 L 268.991340893 46.2823412789 L 268.991340893 46.2823412789 L 15.9598264475 39.5686191723 L 15.9598264475 39.5686191723 Z " stroke="#191919" stroke-width="0.35 px" style="stroke-width:0.35;stroke-miterlimit:4;stroke-dasharray:none;fill:#cccccc;fill-rule: evenodd "/>
<path id="Part__Feature_f0033"  d="M 48.8360582955 -230.409130353 Q -2.08795536422 -235.622682721 -52.9127651633 -229.538594038 L -0.0352741771284 -3.9806129702 L 48.8360582955 -230.409130353 Z " stroke="#191919" stroke-width="0.35 px" style="stroke-width:0.35;stroke-miterlimit:4;stroke-dasharray:none;fill:#cccccc;fill-rule: evenodd "/>
<path id="Part__Feature_f0034"  d="M -56.4771115078 -240.91277802 C -57.7466340988 -240.863300373 -57.6274370493 -234.714033336 -56.2462838161 -229.004587991 L -165.015144402 -207.692795539 M -165.015144402 -207.692795539 L -165.245972094 -219.600985568 L -56.4771115078 -240.91277802 Z " stroke="#191919" stroke-width="0.35 px" style="stroke-width:0.35;stroke-miterlimit:4;stroke-dasharray:none;fill:#cccccc;fill-rule: evenodd "/>
<path id="Part__Feature_f0035"  d="M -54.5837920005 -229.090924494 L -1.61563513424 -3.14619260879 L -188.173172131 33.4072426989 L -223.317355771 -116.506283083 C -223.417126098 -116.947132416 -223.516896425 -117.387981749 -223.616666751 -117.828831081 C -228.15351494 -138.169293977 -223.900458348 -160.034979788 -212.608039618 -176.456715248 C -201.412300078 -193.023518455 -184.004142673 -204.018263438 -165.015144402 -207.692795539 L -56.246283816 -229.004587991 C -55.7450107533 -229.178354601 -54.9264888996 -229.910228975 -54.5837920005 -229.090924494 Z M -127.418971726 -11.0888214873 L -131.420741937 -28.422392612 M -131.420741937 -28.422392612 L -133.193754344 -29.5855806282 L -164.249805186 -23.6111580434 M -164.249805186 -23.6111580434 L -165.357777119 -21.8937392918 L -161.356006907 -4.5601681671 M -161.356006907 -4.5601681671 L -159.582994501 -3.3969801509 L -128.526943658 -9.37140273568 M -128.526943658 -9.37140273568 L -127.418971726 -11.0888214873 Z M -45.0948442477 -26.9259647536 L -49.0966144591 -44.2595358782 M -49.0966144591 -44.2595358782 L -50.8696268653 -45.4227238944 L -123.088221612 -31.5296373047 M -123.088221611 -31.5296373047 L -124.196193544 -29.812218553 L -120.194423333 -12.4786474283 M -120.194423333 -12.4786474283 L -118.421410926 -11.3154594122 L -46.2028161802 -25.2085460019 M -46.2028161802 -25.2085460019 L -45.0948442477 -26.9259647536 Z M -45.7994493668 -50.6702345367 L -66.6932476136 -141.171217565 M -66.6932476136 -141.171217565 L -68.4662600199 -142.334405581 L -195.567606418 -117.883223481 M -195.567606418 -117.883223481 L -196.67557835 -116.165804729 L -175.781780104 -25.6648217008 M -175.781780104 -25.6648217007 L -174.008767697 -24.5016336846 L -46.9074212992 -48.9528157851 M -46.9074212992 -48.9528157851 L -45.7994493668 -50.6702345367 Z " stroke="#191919" stroke-width="0.35 px" style="stroke-width:0.35;stroke-miterlimit:4;stroke-dasharray:none;fill:#cccccc;fill-rule: evenodd "/>
<path id="Part__Feature_f0036"  d="M -52.9127651633 -229.538594038 L -0.0352741771284 -3.9806129702 C -0.564934734536 -3.69302582553 -1.09458653791 -3.41427902572 -1.61563513424 -3.14619260879 L -54.5837920006 -229.090924494 C -54.0325214442 -229.230093972 -53.4726476807 -229.379923832 -52.9127651633 -229.538594038 Z " stroke="#191919" stroke-width="0.35 px" style="stroke-width:0.35;stroke-miterlimit:4;stroke-dasharray:none;fill:#cccccc;fill-rule: evenodd "/>
<path id="Part__Feature_f0037"  d="M 248.554669003 -206.890688498 C 270.362193777 -203.073065142 290.466035189 -190.671646748 303.395448095 -172.02669437 C 316.446949782 -153.535246457 321.531166305 -128.996184953 316.819023198 -106.11111003 C 316.725507966 -105.66102173 316.631992734 -105.210933431 316.538477501 -104.760845131 Q 316.447127599 -104.201107494 314.140164046 -104.186122569 Q 311.679272681 -104.227155159 308.462103452 -104.804967842 C 308.554668567 -105.250592701 308.647233681 -105.69621756 308.739798796 -106.141842418 C 312.911953504 -126.556822892 308.265933201 -148.337334765 296.677915687 -164.561141781 C 285.184197088 -180.9310598 267.56985977 -191.631204093 248.500517077 -194.979831563 M 248.500517077 -194.979831563 L 248.554669003 -206.890688498 Z " stroke="#191919" stroke-width="0.35 px" style="stroke-width:0.35;stroke-miterlimit:4;stroke-dasharray:none;fill:#cccccc;fill-rule: evenodd "/>
<path id="Part__Feature_f0038"  d="M 1.56010089449 -3.17348579585 Q 0.893497140902 0.142760894475 0.0242781303469 2.34616007942 Q -0.89023898784 0.158090834805 -1.61563513424 -3.14619260879 C -1.09458653791 -3.41427902572 -0.564934734536 -3.69302582553 -0.0352741771284 -3.9806129702 C 0.499402225664 -3.7021730429 1.03406984048 -3.43257330969 1.56010089449 -3.17348579585 Z " stroke="#191919" stroke-width="0.35 px" style="stroke-width:0.35;stroke-miterlimit:4;stroke-dasharray:none;fill:#cccccc;fill-rule: evenodd "/>
<path id="Part__Feature_f0039"  d="M 275.982021594 45.6803250163 Q 271.944940144 48.3965442768 267.705243437 49.999916032 L 0.0242781303469 2.34616007942 Q 0.893497140902 0.142760894475 1.56010089449 -3.17348579585 L 275.982021594 45.6803250163 Z " stroke="#191919" stroke-width="0.35 px" style="stroke-width:0.35;stroke-miterlimit:4;stroke-dasharray:none;fill:#cccccc;fill-rule: evenodd "/>
<path id="Part__Feature_f0040"  d="M 316.538477501 -104.760845131 L 284.058395643 45.724447727 C 283.975341199 46.5033698426 280.413573956 46.4839112558 275.982021594 45.6803250163 L 308.462103452 -104.804967842 Q 311.679272681 -104.227155159 314.140164046 -104.186122569 Q 316.447127599 -104.201107494 316.538477501 -104.760845131 Z " stroke="#191919" stroke-width="0.35 px" style="stroke-width:0.35;stroke-miterlimit:4;stroke-dasharray:none;fill:#cccccc;fill-rule: evenodd "/>
<path id="Part__Feature_f0041"  d="M 122.578649761 -33.6111963318 M 122.578649761 -33.6111963318 L 123.717258109 -31.9127932514 L 122.018722625 -33.9784438995 M 122.018722625 -33.9784438995 L 120.880114277 -35.6768469799 L 122.578649761 -33.6111963318 Z " stroke="#191919" stroke-width="0.35 px" style="stroke-width:0.35;stroke-miterlimit:4;stroke-dasharray:none;fill:#cccccc;fill-rule: evenodd "/>
<path id="Part__Feature_f0042"  d="M 123.717258109 -31.9127932514 L 120.01899562 -14.5138361935 L 118.320460137 -16.5794868416 L 122.018722625 -33.9784438995 L 123.717258109 -31.9127932514 Z " stroke="#191919" stroke-width="0.35 px" style="stroke-width:0.35;stroke-miterlimit:4;stroke-dasharray:none;fill:#cccccc;fill-rule: evenodd "/>
<path id="Part__Feature_f0043"  d="M 120.01899562 -14.5138361935 M 120.01899562 -14.5138361935 L 118.265785706 -13.3207662418 L 116.567250222 -15.3864168899 M 116.567250222 -15.3864168899 L 118.320460137 -16.5794868416 L 120.01899562 -14.5138361935 Z " stroke="#191919" stroke-width="0.35 px" style="stroke-width:0.35;stroke-miterlimit:4;stroke-dasharray:none;fill:#cccccc;fill-rule: evenodd "/>
<path id="Part__Feature_f0044"  d="M 118.265785706 -13.3207662418 L 45.7756133764 -25.9881202217 L 44.0770778928 -28.0537708698 L 116.567250222 -15.3864168899 L 118.265785706 -13.3207662418 Z " stroke="#191919" stroke-width="0.35 px" style="stroke-width:0.35;stroke-miterlimit:4;stroke-dasharray:none;fill:#cccccc;fill-rule: evenodd "/>
<path id="Part__Feature_f0045"  d="M 45.7756133764 -25.9881202217 M 45.7756133764 -25.9881202217 L 44.637005028 -27.686523302 L 42.9384695444 -29.7521739501 M 42.9384695444 -29.7521739501 L 44.0770778928 -28.0537708698 L 45.7756133764 -25.9881202217 Z " stroke="#191919" stroke-width="0.35 px" style="stroke-width:0.35;stroke-miterlimit:4;stroke-dasharray:none;fill:#cccccc;fill-rule: evenodd "/>
<path id="Part__Feature_f0046"  d="M 44.637005028 -27.686523302 L 48.3352675169 -45.0854803599 L 46.6367320333 -47.151131008 L 42.9384695444 -29.7521739501 L 44.637005028 -27.686523302 Z " stroke="#191919" stroke-width="0.35 px" style="stroke-width:0.35;stroke-miterlimit:4;stroke-dasharray:none;fill:#cccccc;fill-rule: evenodd "/>
<path id="Part__Feature_f0047"  d="M 48.3352675169 -45.0854803599 M 48.3352675169 -45.0854803599 L 50.0884774311 -46.2785503116 L 48.3899419476 -48.3442009597 M 48.3899419476 -48.3442009597 L 46.6367320333 -47.151131008 L 48.3352675169 -45.0854803599 Z " stroke="#191919" stroke-width="0.35 px" style="stroke-width:0.35;stroke-miterlimit:4;stroke-dasharray:none;fill:#cccccc;fill-rule: evenodd "/>
<path id="Part__Feature_f0048"  d="M 50.0884774311 -46.2785503116 L 122.578649761 -33.6111963318 L 120.880114277 -35.6768469799 L 48.3899419476 -48.3442009597 L 50.0884774311 -46.2785503116 Z " stroke="#191919" stroke-width="0.35 px" style="stroke-width:0.35;stroke-miterlimit:4;stroke-dasharray:none;fill:#cccccc;fill-rule: evenodd "/>
<path id="Part__Feature_f0049"  d="M 216.5200109 -117.169735159 M 216.5200109 -117.169735159 L 217.658619249 -115.471332078 L 215.960083765 -117.536982726 M 215.960083765 -117.536982726 L 214.821475417 -119.235385807 L 216.5200109 -117.169735159 Z " stroke="#191919" stroke-width="0.35 px" style="stroke-width:0.35;stroke-miterlimit:4;stroke-dasharray:none;fill:#cccccc;fill-rule: evenodd "/>
<path id="Part__Feature_f0050"  d="M 217.658619249 -115.471332078 L 210.160480145 -80.195361087 L 208.461944662 -82.2610117351 L 215.960083765 -117.536982726 L 217.658619249 -115.471332078 Z " stroke="#191919" stroke-width="0.35 px" style="stroke-width:0.35;stroke-miterlimit:4;stroke-dasharray:none;fill:#cccccc;fill-rule: evenodd "/>
<path id="Part__Feature_f0051"  d="M 210.160480145 -80.195361087 L 213.305814476 -79.6457270875 L 211.607278992 -81.7113777356 L 208.461944662 -82.2610117351 L 210.160480145 -80.195361087 Z " stroke="#191919" stroke-width="0.35 px" style="stroke-width:0.35;stroke-miterlimit:4;stroke-dasharray:none;fill:#cccccc;fill-rule: evenodd "/>
<path id="Part__Feature_f0052"  d="M 213.305814476 -79.6457270875 M 213.305814476 -79.6457270875 L 214.444422824 -77.9473240071 L 212.74588734 -80.0129746552 M 212.74588734 -80.0129746552 L 211.607278992 -81.7113777356 L 213.305814476 -79.6457270875 Z " stroke="#191919" stroke-width="0.35 px" style="stroke-width:0.35;stroke-miterlimit:4;stroke-dasharray:none;fill:#cccccc;fill-rule: evenodd "/>
<path id="Part__Feature_f0053"  d="M 214.444422824 -77.9473240071 L 202.940720449 -23.826659442 L 201.242184965 -25.8923100901 L 212.74588734 -80.0129746552 L 214.444422824 -77.9473240071 Z " stroke="#191919" stroke-width="0.35 px" style="stroke-width:0.35;stroke-miterlimit:4;stroke-dasharray:none;fill:#cccccc;fill-rule: evenodd "/>
<path id="Part__Feature_f0054"  d="M 202.940720449 -23.826659442 M 202.940720449 -23.826659442 L 201.187510534 -22.6335894903 L 199.488975051 -24.6992401384 M 199.488975051 -24.6992401384 L 201.242184965 -25.8923100901 L 202.940720449 -23.826659442 Z " stroke="#191919" stroke-width="0.35 px" style="stroke-width:0.35;stroke-miterlimit:4;stroke-dasharray:none;fill:#cccccc;fill-rule: evenodd "/>
<path id="Part__Feature_f0055"  d="M 201.187510534 -22.6335894903 L 46.0636313499 -49.7408376208 L 44.3650958663 -51.8064882689 L 199.488975051 -24.6992401384 L 201.187510534 -22.6335894903 Z " stroke="#191919" stroke-width="0.35 px" style="stroke-width:0.35;stroke-miterlimit:4;stroke-dasharray:none;fill:#cccccc;fill-rule: evenodd "/>
<path id="Part__Feature_f0056"  d="M 46.0636313499 -49.7408376208 M 46.0636313499 -49.7408376208 L 44.9250230014 -51.4392407012 L 43.2264875179 -53.5048913493 M 43.2264875179 -53.5048913493 L 44.3650958663 -51.8064882689 L 46.0636313499 -49.7408376208 Z " stroke="#191919" stroke-width="0.35 px" style="stroke-width:0.35;stroke-miterlimit:4;stroke-dasharray:none;fill:#cccccc;fill-rule: evenodd "/>
<path id="Part__Feature_f0057"  d="M 44.9250230015 -51.4392407012 L 64.2341652631 -142.281612773 L 62.5356297795 -144.347263422 L 43.2264875179 -53.5048913493 L 44.9250230015 -51.4392407012 Z " stroke="#191919" stroke-width="0.35 px" style="stroke-width:0.35;stroke-miterlimit:4;stroke-dasharray:none;fill:#cccccc;fill-rule: evenodd "/>
<path id="Part__Feature_f0058"  d="M 64.2341652631 -142.281612773 M 64.2341652631 -142.281612773 L 65.9873751773 -143.474682725 L 64.2888396938 -145.540333373 M 64.2888396938 -145.540333373 L 62.5356297795 -144.347263422 L 64.2341652631 -142.281612773 Z " stroke="#191919" stroke-width="0.35 px" style="stroke-width:0.35;stroke-miterlimit:4;stroke-dasharray:none;fill:#cccccc;fill-rule: evenodd "/>
<path id="Part__Feature_f0059"  d="M 65.9873751773 -143.474682725 L 216.5200109 -117.169735159 L 214.821475417 -119.235385807 L 64.2888396938 -145.540333373 L 65.9873751773 -143.474682725 Z " stroke="#191919" stroke-width="0.35 px" style="stroke-width:0.35;stroke-miterlimit:4;stroke-dasharray:none;fill:#cccccc;fill-rule: evenodd "/>
<path id="Part__Feature_f0060"  d="M 278.839311816 -96.758279498 M 278.839311816 -96.758279498 L 279.977920165 -95.0598764176 L 278.279384681 -97.1255270657 M 278.279384681 -97.1255270657 L 277.140776333 -98.8239301461 L 278.839311816 -96.758279498 Z " stroke="#191919" stroke-width="0.35 px" style="stroke-width:0.35;stroke-miterlimit:4;stroke-dasharray:none;fill:#cccccc;fill-rule: evenodd "/>
<path id="Part__Feature_f0061"  d="M 279.977920165 -95.0598764176 L 276.279657676 -77.6609193593 L 274.581122192 -79.7265700074 L 278.279384681 -97.1255270657 L 279.977920165 -95.0598764176 Z " stroke="#191919" stroke-width="0.35 px" style="stroke-width:0.35;stroke-miterlimit:4;stroke-dasharray:none;fill:#cccccc;fill-rule: evenodd "/>
<path id="Part__Feature_f0062"  d="M 276.279657676 -77.6609193593 M 276.279657676 -77.6609193593 L 274.526447761 -76.4678494076 L 272.827912278 -78.5335000556 M 272.827912278 -78.5335000556 L 274.581122192 -79.7265700074 L 276.279657676 -77.6609193593 Z " stroke="#191919" stroke-width="0.35 px" style="stroke-width:0.35;stroke-miterlimit:4;stroke-dasharray:none;fill:#cccccc;fill-rule: evenodd "/>
<path id="Part__Feature_f0063"  d="M 274.526447761 -76.4678494076 L 257.609310925 -79.42404821 L 255.910775442 -81.4896988581 L 272.827912278 -78.5335000556 L 274.526447761 -76.4678494076 Z " stroke="#191919" stroke-width="0.35 px" style="stroke-width:0.35;stroke-miterlimit:4;stroke-dasharray:none;fill:#cccccc;fill-rule: evenodd "/>
<path id="Part__Feature_f0064"  d="M 257.609310925 -79.42404821 L 254.013891765 -62.5089309727 L 252.315356281 -64.5745816208 L 255.910775442 -81.4896988581 L 257.609310925 -79.42404821 Z " stroke="#191919" stroke-width="0.35 px" style="stroke-width:0.35;stroke-miterlimit:4;stroke-dasharray:none;fill:#cccccc;fill-rule: evenodd "/>
<path id="Part__Feature_f0065"  d="M 254.013891765 -62.5089309727 M 254.013891765 -62.5089309727 L 252.260681851 -61.315861021 L 250.562146367 -63.3815116691 M 250.562146367 -63.3815116691 L 252.315356281 -64.5745816208 L 254.013891765 -62.5089309727 Z " stroke="#191919" stroke-width="0.35 px" style="stroke-width:0.35;stroke-miterlimit:4;stroke-dasharray:none;fill:#cccccc;fill-rule: evenodd "/>
<path id="Part__Feature_f0066"  d="M 252.260681851 -61.315861021 L 234.859647425 -64.3566189004 L 233.161111941 -66.4222695485 L 250.562146367 -63.3815116691 L 252.260681851 -61.315861021 Z " stroke="#191919" stroke-width="0.35 px" style="stroke-width:0.35;stroke-miterlimit:4;stroke-dasharray:none;fill:#cccccc;fill-rule: evenodd "/>
<path id="Part__Feature_f0067"  d="M 234.859647425 -64.3566189004 M 234.859647425 -64.3566189004 L 233.721039076 -66.0550219807 L 232.022503593 -68.1206726288 M 232.022503593 -68.1206726288 L 233.161111941 -66.4222695485 L 234.859647425 -64.3566189004 Z " stroke="#191919" stroke-width="0.35 px" style="stroke-width:0.35;stroke-miterlimit:4;stroke-dasharray:none;fill:#cccccc;fill-rule: evenodd "/>
<path id="Part__Feature_f0068"  d="M 233.721039076 -66.0550219807 L 237.316458236 -82.9701392181 L 235.617922753 -85.0357898661 L 232.022503593 -68.1206726288 L 233.721039076 -66.0550219807 Z " stroke="#191919" stroke-width="0.35 px" style="stroke-width:0.35;stroke-miterlimit:4;stroke-dasharray:none;fill:#cccccc;fill-rule: evenodd "/>
<path id="Part__Feature_f0069"  d="M 237.316458236 -82.9701392181 L 220.3993214 -85.9263380205 L 218.700785917 -87.9919886686 L 235.617922753 -85.0357898661 L 237.316458236 -82.9701392181 Z " stroke="#191919" stroke-width="0.35 px" style="stroke-width:0.35;stroke-miterlimit:4;stroke-dasharray:none;fill:#cccccc;fill-rule: evenodd "/>
<path id="Part__Feature_f0070"  d="M 220.3993214 -85.9263380205 M 220.3993214 -85.9263380205 L 219.260713052 -87.6247411009 L 217.562177568 -89.690391749 M 217.562177568 -89.690391749 L 218.700785917 -87.9919886686 L 220.3993214 -85.9263380205 Z " stroke="#191919" stroke-width="0.35 px" style="stroke-width:0.35;stroke-miterlimit:4;stroke-dasharray:none;fill:#cccccc;fill-rule: evenodd "/>
<path id="Part__Feature_f0071"  d="M 219.260713052 -87.6247411009 L 222.958975541 -105.023698159 L 221.260440057 -107.089348807 L 217.562177568 -89.690391749 L 219.260713052 -87.6247411009 Z " stroke="#191919" stroke-width="0.35 px" style="stroke-width:0.35;stroke-miterlimit:4;stroke-dasharray:none;fill:#cccccc;fill-rule: evenodd "/>
<path id="Part__Feature_f0072"  d="M 222.958975541 -105.023698159 M 222.958975541 -105.023698159 L 224.712185455 -106.216768111 L 223.013649971 -108.282418759 M 223.013649971 -108.282418759 L 221.260440057 -107.089348807 L 222.958975541 -105.023698159 Z " stroke="#191919" stroke-width="0.35 px" style="stroke-width:0.35;stroke-miterlimit:4;stroke-dasharray:none;fill:#cccccc;fill-rule: evenodd "/>
<path id="Part__Feature_f0073"  d="M 224.712185455 -106.216768111 L 278.839311816 -96.758279498 L 277.140776333 -98.8239301461 L 223.013649971 -108.282418759 L 224.712185455 -106.216768111 Z " stroke="#191919" stroke-width="0.35 px" style="stroke-width:0.35;stroke-miterlimit:4;stroke-dasharray:none;fill:#cccccc;fill-rule: evenodd "/>
<path id="Part__Feature_f0074"  d="M 269.082511958 -50.8561451141 M 269.082511958 -50.8561451141 L 270.221120307 -49.1577420337 L 268.522584823 -51.2233926818 M 268.522584823 -51.2233926818 L 267.383976475 -52.9217957622 L 269.082511958 -50.8561451141 Z " stroke="#191919" stroke-width="0.35 px" style="stroke-width:0.35;stroke-miterlimit:4;stroke-dasharray:none;fill:#cccccc;fill-rule: evenodd "/>
<path id="Part__Feature_f0075"  d="M 270.221120307 -49.1577420337 L 262.620137875 -13.397931222 L 260.921602391 -15.4635818701 L 268.522584823 -51.2233926818 L 270.221120307 -49.1577420337 Z " stroke="#191919" stroke-width="0.35 px" style="stroke-width:0.35;stroke-miterlimit:4;stroke-dasharray:none;fill:#cccccc;fill-rule: evenodd "/>
<path id="Part__Feature_f0076"  d="M 262.620137875 -13.397931222 M 262.620137875 -13.397931222 L 260.86692796 -12.2048612703 L 259.168392477 -14.2705119184 M 259.168392477 -14.2705119184 L 260.921602391 -15.4635818701 L 262.620137875 -13.397931222 Z " stroke="#191919" stroke-width="0.35 px" style="stroke-width:0.35;stroke-miterlimit:4;stroke-dasharray:none;fill:#cccccc;fill-rule: evenodd "/>
<path id="Part__Feature_f0077"  d="M 260.86692796 -12.2048612703 L 206.739801599 -21.6633498833 L 205.041266115 -23.7290005314 L 259.168392477 -14.2705119184 L 260.86692796 -12.2048612703 Z " stroke="#191919" stroke-width="0.35 px" style="stroke-width:0.35;stroke-miterlimit:4;stroke-dasharray:none;fill:#cccccc;fill-rule: evenodd "/>
<path id="Part__Feature_f0078"  d="M 206.739801599 -21.6633498833 M 206.739801599 -21.6633498833 L 205.601193251 -23.3617529636 L 203.902657767 -25.4274036117 M 203.902657767 -25.4274036117 L 205.041266115 -23.7290005314 L 206.739801599 -21.6633498833 Z " stroke="#191919" stroke-width="0.35 px" style="stroke-width:0.35;stroke-miterlimit:4;stroke-dasharray:none;fill:#cccccc;fill-rule: evenodd "/>
<path id="Part__Feature_f0079"  d="M 205.601193251 -23.3617529636 L 213.202175683 -59.1215637754 L 211.503640199 -61.1872144235 L 203.902657767 -25.4274036117 L 205.601193251 -23.3617529636 Z " stroke="#191919" stroke-width="0.35 px" style="stroke-width:0.35;stroke-miterlimit:4;stroke-dasharray:none;fill:#cccccc;fill-rule: evenodd "/>
<path id="Part__Feature_f0080"  d="M 213.202175683 -59.1215637754 M 213.202175683 -59.1215637754 L 214.955385597 -60.3146337271 L 213.256850113 -62.3802843752 M 213.256850113 -62.3802843752 L 211.503640199 -61.1872144234 L 213.202175683 -59.1215637754 Z " stroke="#191919" stroke-width="0.35 px" style="stroke-width:0.35;stroke-miterlimit:4;stroke-dasharray:none;fill:#cccccc;fill-rule: evenodd "/>
<path id="Part__Feature_f0081"  d="M 214.955385597 -60.3146337271 L 269.082511958 -50.8561451141 L 267.383976475 -52.9217957622 L 213.256850113 -62.3802843752 L 214.955385597 -60.3146337271 Z " stroke="#191919" stroke-width="0.35 px" style="stroke-width:0.35;stroke-miterlimit:4;stroke-dasharray:none;fill:#cccccc;fill-rule: evenodd "/>
<path id="Part__Feature_f0082"  d="M 260.30149452 -9.54470608056 M 260.30149452 -9.54470608056 L 261.440102868 -7.84630300022 L 259.741567385 -9.91195364831 M 259.741567385 -9.91195364831 L 258.602959036 -11.6103567287 L 260.30149452 -9.54470608056 Z " stroke="#191919" stroke-width="0.35 px" style="stroke-width:0.35;stroke-miterlimit:4;stroke-dasharray:none;fill:#cccccc;fill-rule: evenodd "/>
<path id="Part__Feature_f0083"  d="M 261.440102868 -7.84630300022 L 257.741840379 9.5526540577 L 256.043304896 7.48700340961 L 259.741567385 -9.91195364831 L 261.440102868 -7.84630300022 Z " stroke="#191919" stroke-width="0.35 px" style="stroke-width:0.35;stroke-miterlimit:4;stroke-dasharray:none;fill:#cccccc;fill-rule: evenodd "/>
<path id="Part__Feature_f0084"  d="M 257.741840379 9.5526540577 M 257.741840379 9.5526540577 L 255.988630465 10.7457240094 L 254.290094981 8.68007336132 M 254.290094981 8.68007336132 L 256.043304896 7.48700340961 L 257.741840379 9.5526540577 Z " stroke="#191919" stroke-width="0.35 px" style="stroke-width:0.35;stroke-miterlimit:4;stroke-dasharray:none;fill:#cccccc;fill-rule: evenodd "/>
<path id="Part__Feature_f0085"  d="M 255.988630465 10.7457240094 L 201.861504104 1.28723539642 L 200.16296862 -0.778415251671 L 254.290094981 8.68007336132 L 255.988630465 10.7457240094 Z " stroke="#191919" stroke-width="0.35 px" style="stroke-width:0.35;stroke-miterlimit:4;stroke-dasharray:none;fill:#cccccc;fill-rule: evenodd "/>
<path id="Part__Feature_f0086"  d="M 201.861504104 1.28723539642 M 201.861504104 1.28723539642 L 200.722895755 -0.411167683926 L 199.024360272 -2.47681833202 M 199.024360272 -2.47681833202 L 200.16296862 -0.778415251672 L 201.861504104 1.28723539642 Z " stroke="#191919" stroke-width="0.35 px" style="stroke-width:0.35;stroke-miterlimit:4;stroke-dasharray:none;fill:#cccccc;fill-rule: evenodd "/>
<path id="Part__Feature_f0087"  d="M 200.722895755 -0.411167683926 L 204.421158244 -17.8101247418 L 202.722622761 -19.8757753899 L 199.024360272 -2.47681833202 L 200.722895755 -0.411167683926 Z " stroke="#191919" stroke-width="0.35 px" style="stroke-width:0.35;stroke-miterlimit:4;stroke-dasharray:none;fill:#cccccc;fill-rule: evenodd "/>
<path id="Part__Feature_f0088"  d="M 204.421158244 -17.8101247418 M 204.421158244 -17.8101247418 L 206.174368158 -19.0031946935 L 204.475832675 -21.0688453416 M 204.475832675 -21.0688453416 L 202.722622761 -19.8757753899 L 204.421158244 -17.8101247418 Z " stroke="#191919" stroke-width="0.35 px" style="stroke-width:0.35;stroke-miterlimit:4;stroke-dasharray:none;fill:#cccccc;fill-rule: evenodd "/>
<path id="Part__Feature_f0089"  d="M 206.174368158 -19.0031946936 L 260.30149452 -9.54470608056 L 258.602959036 -11.6103567287 L 204.475832675 -21.0688453416 L 206.174368158 -19.0031946936 Z " stroke="#191919" stroke-width="0.35 px" style="stroke-width:0.35;stroke-miterlimit:4;stroke-dasharray:none;fill:#cccccc;fill-rule: evenodd "/>
<path id="Part__Feature_f0090"  d="M 200.622077094 -19.9734343006 M 200.622077094 -19.9734343006 L 201.760685442 -18.2750312202 L 200.062149959 -20.3406818683 M 200.062149959 -20.3406818683 L 198.92354161 -22.0390849487 L 200.622077094 -19.9734343006 Z " stroke="#191919" stroke-width="0.35 px" style="stroke-width:0.35;stroke-miterlimit:4;stroke-dasharray:none;fill:#cccccc;fill-rule: evenodd "/>
<path id="Part__Feature_f0091"  d="M 201.760685442 -18.2750312202 L 198.062422953 -0.87607416231 L 196.36388747 -2.9417248104 L 200.062149959 -20.3406818683 L 201.760685442 -18.2750312202 Z " stroke="#191919" stroke-width="0.35 px" style="stroke-width:0.35;stroke-miterlimit:4;stroke-dasharray:none;fill:#cccccc;fill-rule: evenodd "/>
<path id="Part__Feature_f0092"  d="M 198.062422953 -0.87607416231 M 198.062422953 -0.876074162309 L 196.309213039 0.316995789401 L 194.610677556 -1.74865485869 M 194.610677556 -1.74865485869 L 196.36388747 -2.9417248104 L 198.062422953 -0.87607416231 Z " stroke="#191919" stroke-width="0.35 px" style="stroke-width:0.35;stroke-miterlimit:4;stroke-dasharray:none;fill:#cccccc;fill-rule: evenodd "/>
<path id="Part__Feature_f0093"  d="M 196.309213039 0.316995789401 L 123.81904071 -12.3503581905 L 122.120505226 -14.4160088386 L 194.610677556 -1.74865485869 L 196.309213039 0.316995789401 Z " stroke="#191919" stroke-width="0.35 px" style="stroke-width:0.35;stroke-miterlimit:4;stroke-dasharray:none;fill:#cccccc;fill-rule: evenodd "/>
<path id="Part__Feature_f0094"  d="M 123.81904071 -12.3503581905 M 123.81904071 -12.3503581905 L 122.680432361 -14.0487612708 L 120.981896878 -16.1144119189 M 120.981896878 -16.1144119189 L 122.120505226 -14.4160088386 L 123.81904071 -12.3503581905 Z " stroke="#191919" stroke-width="0.35 px" style="stroke-width:0.35;stroke-miterlimit:4;stroke-dasharray:none;fill:#cccccc;fill-rule: evenodd "/>
<path id="Part__Feature_f0095"  d="M 122.680432361 -14.0487612708 L 126.37869485 -31.4477183287 L 124.680159366 -33.5133689768 L 120.981896878 -16.1144119189 L 122.680432361 -14.0487612708 Z " stroke="#191919" stroke-width="0.35 px" style="stroke-width:0.35;stroke-miterlimit:4;stroke-dasharray:none;fill:#cccccc;fill-rule: evenodd "/>
<path id="Part__Feature_f0096"  d="M 126.37869485 -31.4477183287 M 126.37869485 -31.4477183287 L 128.131904764 -32.6407882804 L 126.433369281 -34.7064389285 M 126.433369281 -34.7064389285 L 124.680159366 -33.5133689768 L 126.37869485 -31.4477183287 Z " stroke="#191919" stroke-width="0.35 px" style="stroke-width:0.35;stroke-miterlimit:4;stroke-dasharray:none;fill:#cccccc;fill-rule: evenodd "/>
<path id="Part__Feature_f0097"  d="M 128.131904764 -32.6407882804 L 200.622077094 -19.9734343006 L 198.92354161 -22.0390849487 L 126.433369281 -34.7064389285 L 128.131904764 -32.6407882804 Z " stroke="#191919" stroke-width="0.35 px" style="stroke-width:0.35;stroke-miterlimit:4;stroke-dasharray:none;fill:#cccccc;fill-rule: evenodd "/>
<path id="Part__Feature_f0098"  d="M -165.245972094 -219.600985568 M -165.245972094 -219.600985568 L -165.015144402 -207.692795539 C -184.004142673 -204.018263438 -201.412300078 -193.023518455 -212.608039618 -176.456715248 C -223.900458348 -160.034979788 -228.15351494 -138.169293977 -223.616666751 -117.828831081 C -223.516896425 -117.387981749 -223.417126098 -116.947132416 -223.317355771 -116.506283083 Q -226.515263971 -115.874662987 -228.963881186 -115.790249614 Q -231.260709195 -115.763975171 -231.361424672 -116.318654657 C -231.462213732 -116.763905064 -231.563002793 -117.209155472 -231.663791853 -117.654405879 C -236.783512065 -140.45241752 -232.143468006 -165.081483209 -219.428621968 -183.797954288 C -206.838535426 -202.666130195 -186.968525557 -215.40956309 -165.245972094 -219.600985568 Z " stroke="#191919" stroke-width="0.35 px" style="stroke-width:0.35;stroke-miterlimit:4;stroke-dasharray:none;fill:#cccccc;fill-rule: evenodd "/>
<path id="Part__Feature_f0099"  d="M -231.361424672 -116.318654657 Q -231.260709195 -115.763975171 -228.963881186 -115.790249614 Q -226.515263971 -115.874662987 -223.317355771 -116.506283083 L -188.173172131 33.4072426989 C -192.577355958 34.2847293543 -196.120873569 34.3673821314 -196.217241032 33.5948711255 L -231.361424672 -116.318654656 Z " stroke="#191919" stroke-width="0.35 px" style="stroke-width:0.35;stroke-miterlimit:4;stroke-dasharray:none;fill:#cccccc;fill-rule: evenodd "/>
<path id="Part__Feature_f0100"  d="M -196.217241032 33.5948711255 C -196.120873569 34.3673821314 -192.577355958 34.2847293543 -188.173172131 33.4072426989 Q -186.435931781 36.5132689066 -184.50957046 38.5030809153 C -187.135281454 38.4363264317 -189.540330031 38.3751819356 -191.72471619 38.319647427 C -193.802451999 38.2668243321 -195.155085233 38.2324358053 -195.129908055 38.2330758946 C -195.126465526 38.247760594 -195.366290657 37.2247454811 -195.576980221 36.3260131114 C -195.790198696 35.4164932415 -196.003618966 34.5061125795 -196.217241032 33.5948711255 Z " stroke="#191919" stroke-width="0.35 px" style="stroke-width:0.35;stroke-miterlimit:4;stroke-dasharray:none;fill:#cccccc;fill-rule: evenodd "/>
<path id="Part__Feature_f0101"  d="M 267.705243437 49.999916032 L 283.051388931 50.3900671262 C 283.048203045 50.404827835 283.270394823 49.3753786198 283.465494369 48.4714519488 C 283.66293961 47.5566573021 283.860573369 46.6409892282 284.058395643 45.724447727 C 283.975341199 46.5033698426 280.413573956 46.4839112558 275.982021594 45.6803250163 Q 271.944940144 48.3965442768 267.705243437 49.999916032 Z " stroke="#191919" stroke-width="0.35 px" style="stroke-width:0.35;stroke-miterlimit:4;stroke-dasharray:none;fill:#cccccc;fill-rule: evenodd "/>
<path id="Part__Feature_f0102"  d="M 267.705243437 49.999916032 L -184.50957046 38.5030809153 L 0.0242781303469 2.34616007942 L 267.705243437 49.999916032 Z " stroke="#191919" stroke-width="0.35 px" style="stroke-width:0.35;stroke-miterlimit:4;stroke-dasharray:none;fill:#cccccc;fill-rule: evenodd "/>
<path id="Part__Feature_f0103"  d="M -8.10422756497 38.9866108572 M -8.10422756496 38.9866108572 L -8.10422756496 38.9866108572 L -8.20588828974 42.9853187857 M -8.20588828974 42.9853187857 L -8.20588828974 42.9853187857 Z " stroke="#191919" stroke-width="0.35 px" style="stroke-width:0.35;stroke-miterlimit:4;stroke-dasharray:none;fill:#cccccc;fill-rule: evenodd "/>
<path id="Part__Feature_f0104"  d="M -110.151161984 36.3922314978 M -110.151161984 36.3922314978 L -115.024587272 36.2683324895 L -124.771437847 36.0205344729 L -129.644863135 35.8966354646 L -124.771437847 36.0205344729 L -115.024587272 36.2683324895 L -110.151161984 36.3922314978 L -110.252822709 40.3909394263 M -110.252822709 40.3909394263 L -115.126247997 40.267040418 L -124.873098572 40.0192424013 L -129.74652386 39.895343393 L -124.873098572 40.0192424013 L -115.126247997 40.267040418 L -110.252822709 40.3909394263 Z " stroke="#191919" stroke-width="0.35 px" style="stroke-width:0.35;stroke-miterlimit:4;stroke-dasharray:none;fill:#cccccc;fill-rule: evenodd "/>
<path id="Part__Feature_f0105"  d="M -6.30480899716 39.0323581834 L -6.40646972193 43.0310661118 M -6.40646972193 43.0310661118 L -4.80698655056 43.0717304017 L -4.70532582578 39.0730224733 M -4.70532582578 39.0730224733 L -6.30480899716 39.0323581834 Z " stroke="#191919" stroke-width="0.35 px" style="stroke-width:0.35;stroke-miterlimit:4;stroke-dasharray:none;fill:#cccccc;fill-rule: evenodd "/>
<path id="Part__Feature_f0106"  d="M -6.30480899716 39.0323581834 L -6.30480899716 39.0323581834 L -6.40646972193 43.0310661118 L -6.40646972193 43.0310661118 L -6.30480899716 39.0323581834 Z " stroke="#191919" stroke-width="0.35 px" style="stroke-width:0.35;stroke-miterlimit:4;stroke-dasharray:none;fill:#cccccc;fill-rule: evenodd "/>
<path id="Part__Feature_f0107"  d="M 4.98984787414 43.3207991774 L -4.80698655056 43.0717304017 L -4.70532582578 39.0730224733 L 5.09150859892 39.322091249 L 4.98984787415 43.3207991774 Z " stroke="#191919" stroke-width="0.35 px" style="stroke-width:0.35;stroke-miterlimit:4;stroke-dasharray:none;fill:#cccccc;fill-rule: evenodd "/>
<path id="Part__Feature_f0108"  d="M -6.30480899716 39.0323581834 M -6.30480899716 39.0323581834 L -4.70532582578 39.0730224733 L -4.80698655056 43.0717304017 M -4.80698655056 43.0717304017 L -6.40646972193 43.0310661118 L -6.30480899716 39.0323581834 Z " stroke="#191919" stroke-width="0.35 px" style="stroke-width:0.35;stroke-miterlimit:4;stroke-dasharray:none;fill:#cccccc;fill-rule: evenodd "/>
<path id="Part__Feature_f0109"  d="M 6.6909917703 39.3627555389 M 6.6909917703 39.3627555389 L 5.09150859892 39.322091249 L 4.98984787415 43.3207991774 M 4.98984787415 43.3207991774 L 6.58933104552 43.3614634673 L 6.6909917703 39.3627555389 Z " stroke="#191919" stroke-width="0.35 px" style="stroke-width:0.35;stroke-miterlimit:4;stroke-dasharray:none;fill:#cccccc;fill-rule: evenodd "/>
<path id="Part__Feature_f0110"  d="M 5.09150859892 39.322091249 L 4.98984787415 43.3207991774 L -4.80698655056 43.0717304017 L -4.70532582578 39.0730224733 L 5.09150859892 39.322091249 Z " stroke="#191919" stroke-width="0.35 px" style="stroke-width:0.35;stroke-miterlimit:4;stroke-dasharray:none;fill:#cccccc;fill-rule: evenodd "/>
<path id="Part__Feature_f0111"  d="M 6.58933104552 43.3614634673 L 6.6909917703 39.3627555389 L 6.6909917703 39.3627555389 L 6.58933104552 43.3614634673 L 6.58933104552 43.3614634673 Z " stroke="#191919" stroke-width="0.35 px" style="stroke-width:0.35;stroke-miterlimit:4;stroke-dasharray:none;fill:#cccccc;fill-rule: evenodd "/>
<path id="Part__Feature_f0112"  d="M 6.6909917703 39.3627555389 L 6.58933104552 43.3614634673 M 6.58933104552 43.3614634673 L 4.98984787415 43.3207991774 L 5.09150859892 39.322091249 M 5.09150859892 39.322091249 L 6.6909917703 39.3627555389 Z " stroke="#191919" stroke-width="0.35 px" style="stroke-width:0.35;stroke-miterlimit:4;stroke-dasharray:none;fill:#cccccc;fill-rule: evenodd "/>
<path id="Part__Feature_f0113"  d="M 11.8893120773 39.4949144811 M 11.8893120773 39.4949144811 L 11.8893120773 39.4949144811 L 11.7876513525 43.4936224095 M 11.7876513525 43.4936224095 L 11.7876513525 43.4936224095 Z " stroke="#191919" stroke-width="0.35 px" style="stroke-width:0.35;stroke-miterlimit:4;stroke-dasharray:none;fill:#cccccc;fill-rule: evenodd "/>
<path id="Part__Feature_f0114"  d="M 25.4391677513 29.8361665698 L 25.4391677513 29.8361665698 L 26.7493972921 -21.7002086086 L 26.6478075728 -17.7042936009 L 25.4391677513 29.8361665698 Z " stroke="#191919" stroke-width="0.35 px" style="stroke-width:0.35;stroke-miterlimit:4;stroke-dasharray:none;fill:#cccccc;fill-rule: evenodd "/>
<circle cx="-155.129908055" cy="18.2330758946" r="2.1" stroke="#191919" stroke-width="0.35 px" style="stroke-width:0.35;stroke-miterlimit:4;stroke-dasharray:none;fill:#cccccc"/>
<path id="Part__Feature_f0116"  d="M 9.12662168769 -30.2485575231 L 10.8305752209 -40.0 L -11.3996446875 -40.0 L -9.49250686522 -30.0863776657 L -9.48551309396 -30.0455196182 A 8.82622 8.50021 128.928 0 1 -16.2979 -19.6637L -16.3367084883 -19.6539675826 L -23.3600041142 -18.0325120258 L -24.5446813543 28.5654075102 A 10 10 0 0 0 -14.8021 38.8163L 15.1882461182 39.578784579 A 10 10 0 0 0 25.4392 29.8362L 26.6478075728 -17.7042936009 L 16.1427358995 -19.9371717261 L 16.1021531262 -19.9466581085 A 8.81981 8.49857 50.5704 0 1 9.12056 -30.2094L 9.12662168769 -30.2485575231 Z " stroke="#191919" stroke-width="0.35 px" style="stroke-width:0.35;stroke-miterlimit:4;stroke-dasharray:none;fill:#cccccc;fill-rule: evenodd "/>
<path id="Part__Feature_f0117"  d="M -24.5446813543 28.5654075102 L -23.2572351079 -22.0748129339 L -23.3600041142 -18.0325120257 L -24.5446813543 28.5654075102 L -24.5446813543 28.5654075102 Z " stroke="#191919" stroke-width="0.35 px" style="stroke-width:0.35;stroke-miterlimit:4;stroke-dasharray:none;fill:#cccccc;fill-rule: evenodd "/>
<path id="Part__Feature_f0118"  d="M -24.5446813543 28.5654075102 L -23.2572351079 -22.0748129339 L -93.8239919496 -5.78319342826 L -94.6519361949 26.7830431899 A 10 10 0 0 1 -103.107 36.4094L -15.9397662484 38.722222623 A 10 10 0 0 1 -24.5447 28.5654Z " stroke="#191919" stroke-width="0.35 px" style="stroke-width:0.35;stroke-miterlimit:4;stroke-dasharray:none;fill:#cccccc;fill-rule: evenodd "/>
<path id="Part__Feature_f0119"  d="M -94.6519361949 26.7830431899 L -94.6519361949 26.7830431899 L -93.8239919496 -5.78319342826 L -93.9473301761 -0.931825853375 L -94.6519361949 26.7830431899 Z " stroke="#191919" stroke-width="0.35 px" style="stroke-width:0.35;stroke-miterlimit:4;stroke-dasharray:none;fill:#cccccc;fill-rule: evenodd "/>
<path id="Part__Feature_f0120"  d="M -94.6519361949 26.7830431899 A 10 10 0 0 1 -104.903 36.5257L -134.893167291 35.7632057633 A 10 10 0 0 1 -144.636 25.5123L -144.258787013 10.6834891794 L -93.9473301761 -0.931825853375 L -94.6519361949 26.7830431899 Z " stroke="#191919" stroke-width="0.35 px" style="stroke-width:0.35;stroke-miterlimit:4;stroke-dasharray:none;fill:#cccccc;fill-rule: evenodd "/>
<path id="Part__Feature_f0121"  d="M -144.6357853 25.5122841303 L -144.135448786 5.83212160452 L -144.258787013 10.6834891794 L -144.6357853 25.5122841303 L -144.6357853 25.5122841303 Z " stroke="#191919" stroke-width="0.35 px" style="stroke-width:0.35;stroke-miterlimit:4;stroke-dasharray:none;fill:#cccccc;fill-rule: evenodd "/>
<path id="Part__Feature_f0122"  d="M -188.173172131 33.4072426989 L -1.61563513424 -3.14619260879 Q -0.89023898784 0.158090834805 0.0242781303469 2.34616007942 L -184.50957046 38.5030809153 Q -186.435931781 36.5132689066 -188.173172131 33.4072426989 Z " stroke="#191919" stroke-width="0.35 px" style="stroke-width:0.35;stroke-miterlimit:4;stroke-dasharray:none;fill:#cccccc;fill-rule: evenodd "/>
<path id="Part__Feature_f0123"  d="M -128.526943658 -9.37140273568 L -126.834967797 -11.4661924116 M -126.834967797 -11.4661924115 L -125.726995865 -13.1836111632 L -127.418971726 -11.0888214873 M -127.418971726 -11.0888214873 L -128.526943658 -9.37140273568 Z " stroke="#191919" stroke-width="0.35 px" style="stroke-width:0.35;stroke-miterlimit:4;stroke-dasharray:none;fill:#cccccc;fill-rule: evenodd "/>
<path id="Part__Feature_f0124"  d="M -127.418971726 -11.0888214873 L -125.726995865 -13.1836111632 L -129.728766076 -30.5171822879 L -131.420741937 -28.422392612 L -127.418971726 -11.0888214873 Z " stroke="#191919" stroke-width="0.35 px" style="stroke-width:0.35;stroke-miterlimit:4;stroke-dasharray:none;fill:#cccccc;fill-rule: evenodd "/>
<path id="Part__Feature_f0125"  d="M -131.420741937 -28.422392612 L -129.728766076 -30.5171822879 M -129.728766076 -30.5171822879 L -131.501778482 -31.6803703041 L -133.193754344 -29.5855806282 M -133.193754344 -29.5855806282 L -131.420741937 -28.422392612 Z " stroke="#191919" stroke-width="0.35 px" style="stroke-width:0.35;stroke-miterlimit:4;stroke-dasharray:none;fill:#cccccc;fill-rule: evenodd "/>
<path id="Part__Feature_f0126"  d="M -133.193754344 -29.5855806282 L -131.501778482 -31.6803703041 L -162.557829325 -25.7059477193 L -164.249805186 -23.6111580434 L -133.193754344 -29.5855806282 Z " stroke="#191919" stroke-width="0.35 px" style="stroke-width:0.35;stroke-miterlimit:4;stroke-dasharray:none;fill:#cccccc;fill-rule: evenodd "/>
<path id="Part__Feature_f0127"  d="M -164.249805186 -23.6111580434 L -162.557829325 -25.7059477193 M -162.557829325 -25.7059477193 L -163.665801257 -23.9885289676 L -165.357777119 -21.8937392918 M -165.357777119 -21.8937392918 L -164.249805186 -23.6111580434 Z " stroke="#191919" stroke-width="0.35 px" style="stroke-width:0.35;stroke-miterlimit:4;stroke-dasharray:none;fill:#cccccc;fill-rule: evenodd "/>
<path id="Part__Feature_f0128"  d="M -165.357777119 -21.8937392918 L -163.665801257 -23.9885289676 L -159.664031046 -6.65495784297 L -161.356006907 -4.5601681671 L -165.357777119 -21.8937392918 Z " stroke="#191919" stroke-width="0.35 px" style="stroke-width:0.35;stroke-miterlimit:4;stroke-dasharray:none;fill:#cccccc;fill-rule: evenodd "/>
<path id="Part__Feature_f0129"  d="M -161.356006907 -4.5601681671 L -159.664031046 -6.65495784297 M -159.664031046 -6.65495784297 L -157.89101864 -5.49176982677 L -159.582994501 -3.3969801509 M -159.582994501 -3.3969801509 L -161.356006907 -4.5601681671 Z " stroke="#191919" stroke-width="0.35 px" style="stroke-width:0.35;stroke-miterlimit:4;stroke-dasharray:none;fill:#cccccc;fill-rule: evenodd "/>
<path id="Part__Feature_f0130"  d="M -159.582994501 -3.3969801509 L -157.89101864 -5.49176982677 L -126.834967797 -11.4661924116 L -128.526943658 -9.37140273568 L -159.582994501 -3.3969801509 Z " stroke="#191919" stroke-width="0.35 px" style="stroke-width:0.35;stroke-miterlimit:4;stroke-dasharray:none;fill:#cccccc;fill-rule: evenodd "/>
<path id="Part__Feature_f0131"  d="M -46.2028161802 -25.2085460019 L -44.5108403189 -27.3033356777 M -44.5108403189 -27.3033356777 L -43.4028683865 -29.0207544294 L -45.0948442477 -26.9259647536 M -45.0948442477 -26.9259647536 L -46.2028161802 -25.2085460019 Z " stroke="#191919" stroke-width="0.35 px" style="stroke-width:0.35;stroke-miterlimit:4;stroke-dasharray:none;fill:#cccccc;fill-rule: evenodd "/>
<path id="Part__Feature_f0132"  d="M -45.0948442477 -26.9259647536 L -43.4028683865 -29.0207544294 L -47.4046385978 -46.3543255541 L -49.0966144591 -44.2595358782 L -45.0948442477 -26.9259647536 Z " stroke="#191919" stroke-width="0.35 px" style="stroke-width:0.35;stroke-miterlimit:4;stroke-dasharray:none;fill:#cccccc;fill-rule: evenodd "/>
<path id="Part__Feature_f0133"  d="M -49.0966144591 -44.2595358782 L -47.4046385978 -46.3543255541 M -47.4046385978 -46.3543255541 L -49.1776510041 -47.5175135703 L -50.8696268653 -45.4227238944 M -50.8696268653 -45.4227238944 L -49.0966144591 -44.2595358782 Z " stroke="#191919" stroke-width="0.35 px" style="stroke-width:0.35;stroke-miterlimit:4;stroke-dasharray:none;fill:#cccccc;fill-rule: evenodd "/>
<path id="Part__Feature_f0134"  d="M -50.8696268653 -45.4227238944 L -49.1776510041 -47.5175135703 L -121.39624575 -33.6244269806 L -123.088221612 -31.5296373047 L -50.8696268653 -45.4227238944 Z " stroke="#191919" stroke-width="0.35 px" style="stroke-width:0.35;stroke-miterlimit:4;stroke-dasharray:none;fill:#cccccc;fill-rule: evenodd "/>
<path id="Part__Feature_f0135"  d="M -123.088221612 -31.5296373047 L -121.39624575 -33.6244269806 M -121.39624575 -33.6244269806 L -122.504217683 -31.9070082289 L -124.196193544 -29.812218553 M -124.196193544 -29.812218553 L -123.088221611 -31.5296373047 Z " stroke="#191919" stroke-width="0.35 px" style="stroke-width:0.35;stroke-miterlimit:4;stroke-dasharray:none;fill:#cccccc;fill-rule: evenodd "/>
<path id="Part__Feature_f0136"  d="M -124.196193544 -29.812218553 L -122.504217683 -31.9070082289 L -118.502447471 -14.5734371042 L -120.194423333 -12.4786474283 L -124.196193544 -29.812218553 Z " stroke="#191919" stroke-width="0.35 px" style="stroke-width:0.35;stroke-miterlimit:4;stroke-dasharray:none;fill:#cccccc;fill-rule: evenodd "/>
<path id="Part__Feature_f0137"  d="M -120.194423333 -12.4786474283 L -118.502447471 -14.5734371042 M -118.502447471 -14.5734371042 L -116.729435065 -13.410249088 L -118.421410926 -11.3154594122 M -118.421410926 -11.3154594122 L -120.194423333 -12.4786474283 Z " stroke="#191919" stroke-width="0.35 px" style="stroke-width:0.35;stroke-miterlimit:4;stroke-dasharray:none;fill:#cccccc;fill-rule: evenodd "/>
<path id="Part__Feature_f0138"  d="M -118.421410926 -11.3154594122 L -116.729435065 -13.410249088 L -44.5108403189 -27.3033356777 L -46.2028161802 -25.2085460019 L -118.421410926 -11.3154594122 Z " stroke="#191919" stroke-width="0.35 px" style="stroke-width:0.35;stroke-miterlimit:4;stroke-dasharray:none;fill:#cccccc;fill-rule: evenodd "/>
<path id="Part__Feature_f0139"  d="M -46.9074212992 -48.9528157851 L -45.215445438 -51.0476054609 M -45.215445438 -51.0476054609 L -44.1074735056 -52.7650242126 L -45.7994493668 -50.6702345367 M -45.7994493668 -50.6702345367 L -46.9074212992 -48.9528157851 Z " stroke="#191919" stroke-width="0.35 px" style="stroke-width:0.35;stroke-miterlimit:4;stroke-dasharray:none;fill:#cccccc;fill-rule: evenodd "/>
<path id="Part__Feature_f0140"  d="M -45.7994493668 -50.6702345367 L -44.1074735055 -52.7650242126 L -65.0012717524 -143.266007241 L -66.6932476136 -141.171217565 L -45.7994493668 -50.6702345367 Z " stroke="#191919" stroke-width="0.35 px" style="stroke-width:0.35;stroke-miterlimit:4;stroke-dasharray:none;fill:#cccccc;fill-rule: evenodd "/>
<path id="Part__Feature_f0141"  d="M -66.6932476136 -141.171217565 L -65.0012717524 -143.266007241 M -65.0012717524 -143.266007241 L -66.7742841587 -144.429195257 L -68.4662600199 -142.334405581 M -68.4662600199 -142.334405581 L -66.6932476136 -141.171217565 Z " stroke="#191919" stroke-width="0.35 px" style="stroke-width:0.35;stroke-miterlimit:4;stroke-dasharray:none;fill:#cccccc;fill-rule: evenodd "/>
<path id="Part__Feature_f0142"  d="M -68.4662600199 -142.334405581 L -66.7742841587 -144.429195257 L -193.875630557 -119.978013157 L -195.567606418 -117.883223481 L -68.4662600199 -142.334405581 Z " stroke="#191919" stroke-width="0.35 px" style="stroke-width:0.35;stroke-miterlimit:4;stroke-dasharray:none;fill:#cccccc;fill-rule: evenodd "/>
<path id="Part__Feature_f0143"  d="M -195.567606418 -117.883223481 L -193.875630557 -119.978013157 M -193.875630557 -119.978013157 L -194.983602489 -118.260594405 L -196.67557835 -116.165804729 M -196.67557835 -116.165804729 L -195.567606418 -117.883223481 Z " stroke="#191919" stroke-width="0.35 px" style="stroke-width:0.35;stroke-miterlimit:4;stroke-dasharray:none;fill:#cccccc;fill-rule: evenodd "/>
<path id="Part__Feature_f0144"  d="M -196.67557835 -116.165804729 L -194.983602489 -118.260594405 L -174.089804243 -27.7596113766 L -175.781780104 -25.6648217008 L -196.67557835 -116.165804729 Z " stroke="#191919" stroke-width="0.35 px" style="stroke-width:0.35;stroke-miterlimit:4;stroke-dasharray:none;fill:#cccccc;fill-rule: evenodd "/>
<path id="Part__Feature_f0145"  d="M -175.781780104 -25.6648217008 L -174.089804243 -27.7596113766 M -174.089804242 -27.7596113766 L -172.316791836 -26.5964233604 L -174.008767697 -24.5016336846 M -174.008767697 -24.5016336846 L -175.781780104 -25.6648217007 Z " stroke="#191919" stroke-width="0.35 px" style="stroke-width:0.35;stroke-miterlimit:4;stroke-dasharray:none;fill:#cccccc;fill-rule: evenodd "/>
<path id="Part__Feature_f0146"  d="M -174.008767697 -24.5016336846 L -172.316791836 -26.5964233604 L -45.215445438 -51.0476054609 L -46.9074212992 -48.9528157851 L -174.008767697 -24.5016336846 Z " stroke="#191919" stroke-width="0.35 px" style="stroke-width:0.35;stroke-miterlimit:4;stroke-dasharray:none;fill:#cccccc;fill-rule: evenodd "/>
<path id="Part__Feature_f0147"  d="M 302.180077327 -115.504583409 L 302.172806522 -115.46678289 L 272.659024729 23.384643582 L 272.650296825 23.4221232453 M 272.650296825 23.4221232453 L 262.762001396 30.1512205876 L 262.724172421 30.1453739853 L 22.8592099399 -11.7690238783 L 22.8201308262 -11.7766816057 M 22.8201308262 -11.7766816057 L 16.4000372326 -21.3565362803 L 16.4072955369 -21.3942658108 L 45.9201133917 -160.245860728 L 45.9292717294 -160.285034322 M 45.9292717294 -160.285034322 L 55.8181664847 -167.012267314 L 55.8559349338 -167.0064287 L 295.720692548 -125.091067012 L 295.758212302 -125.08374674 M 295.758212302 -125.08374674 L 302.180077327 -115.504583409 Z M 200.062149959 -20.3406818683 L 196.36388747 -2.9417248104 M 196.36388747 -2.9417248104 L 194.610677556 -1.74865485869 L 122.120505226 -14.4160088386 M 122.120505226 -14.4160088386 L 120.981896878 -16.1144119189 L 124.680159366 -33.5133689768 M 124.680159366 -33.5133689768 L 126.433369281 -34.7064389285 L 198.92354161 -22.0390849487 M 198.92354161 -22.0390849487 L 200.062149959 -20.3406818683 Z M 122.018722625 -33.9784438995 L 118.320460137 -16.5794868416 M 118.320460137 -16.5794868416 L 116.567250222 -15.3864168899 L 44.0770778928 -28.0537708698 M 44.0770778928 -28.0537708698 L 42.9384695444 -29.7521739501 L 46.6367320333 -47.151131008 M 46.6367320333 -47.151131008 L 48.3899419476 -48.3442009597 L 120.880114277 -35.6768469799 M 120.880114277 -35.6768469799 L 122.018722625 -33.9784438995 Z M 215.960083765 -117.536982726 L 208.461944662 -82.2610117351 L 211.607278992 -81.7113777356 M 211.607278992 -81.7113777356 L 212.74588734 -80.0129746552 L 201.242184965 -25.8923100901 M 201.242184965 -25.8923100901 L 199.488975051 -24.6992401384 L 44.3650958663 -51.8064882689 M 44.3650958663 -51.8064882689 L 43.2264875179 -53.5048913493 L 62.5356297795 -144.347263422 M 62.5356297795 -144.347263422 L 64.2888396938 -145.540333373 L 214.821475417 -119.235385807 M 214.821475417 -119.235385807 L 215.960083765 -117.536982726 Z M 293.081577705 -114.556376979 M 293.081577705 -114.556376979 L 293.081577705 -114.556376979 Z M 268.522584823 -51.2233926818 L 260.921602391 -15.4635818701 M 260.921602391 -15.4635818701 L 259.168392477 -14.2705119184 L 205.041266115 -23.7290005314 M 205.041266115 -23.7290005314 L 203.902657767 -25.4274036117 L 211.503640199 -61.1872144235 M 211.503640199 -61.1872144234 L 213.256850113 -62.3802843752 L 267.383976475 -52.9217957622 M 267.383976475 -52.9217957622 L 268.522584823 -51.2233926818 Z M 278.279384681 -97.1255270657 L 274.581122192 -79.7265700074 M 274.581122192 -79.7265700074 L 272.827912278 -78.5335000556 L 255.910775442 -81.4896988581 L 252.315356281 -64.5745816208 M 252.315356281 -64.5745816208 L 250.562146367 -63.3815116691 L 233.161111941 -66.4222695485 M 233.161111941 -66.4222695485 L 232.022503593 -68.1206726288 L 235.617922753 -85.0357898661 L 218.700785917 -87.9919886686 M 218.700785917 -87.9919886686 L 217.562177568 -89.690391749 L 221.260440057 -107.089348807 M 221.260440057 -107.089348807 L 223.013649971 -108.282418759 L 277.140776333 -98.8239301461 M 277.140776333 -98.8239301461 L 278.279384681 -97.1255270657 Z M 259.741567385 -9.91195364831 L 256.043304896 7.48700340961 M 256.043304896 7.48700340961 L 254.290094981 8.68007336132 L 200.16296862 -0.778415251671 M 200.16296862 -0.778415251672 L 199.024360272 -2.47681833202 L 202.722622761 -19.8757753899 M 202.722622761 -19.8757753899 L 204.475832675 -21.0688453416 L 258.602959036 -11.6103567287 M 258.602959036 -11.6103567287 L 259.741567385 -9.91195364831 Z M 264.592131855 19.4759277735 M 264.592131855 19.4759277735 L 264.592131855 19.4759277735 Z M 58.0360352257 -155.629601008 M 58.0360352257 -155.629601008 L 58.0360352257 -155.629601008 Z M 29.5465893748 -21.5972962554 M 29.5465893748 -21.5972962554 L 29.5465893748 -21.5972962554 Z " stroke="#191919" stroke-width="0.35 px" style="stroke-width:0.35;stroke-miterlimit:4;stroke-dasharray:none;fill:#cccccc;fill-rule: evenodd "/>
<path id="Part__Feature_f0148"  d="M 22.8592099399 -11.7690238783 L 16.1427358995 -19.9371717261 L 26.6478075728 -17.7042936009 L 26.7493972921 -21.7002086086 L 261.041623113 28.0991647049 L 262.724172421 30.1453739853 L 22.8592099399 -11.7690238783 Z " stroke="#191919" stroke-width="0.35 px" style="stroke-width:0.35;stroke-miterlimit:4;stroke-dasharray:none;fill:#cccccc;fill-rule: evenodd "/>
<path id="Part__Feature_f0149"  d="M 262.724172421 30.1453739853 L 261.041623113 28.0991647049 L 261.080848463 28.1067094898 L 262.762001396 30.1512205876 L 262.724172421 30.1453739853 Z " stroke="#191919" stroke-width="0.35 px" style="stroke-width:0.35;stroke-miterlimit:4;stroke-dasharray:none;fill:#cccccc;fill-rule: evenodd "/>
<path id="Part__Feature_f0150"  d="M 262.762001396 30.1512205876 L 261.080848463 28.1067094898 A 8.81982 8.49858 50.5704 0 0 271.022 21.442L 272.650296825 23.4221232453 M 272.650296825 23.4221232453 L 262.762001396 30.1512205876 Z " stroke="#191919" stroke-width="0.35 px" style="stroke-width:0.35;stroke-miterlimit:4;stroke-dasharray:none;fill:#cccccc;fill-rule: evenodd "/>
<path id="Part__Feature_f0151"  d="M 272.650296825 23.4221232453 L 271.022116187 21.4420336783 L 271.029698991 21.4031614185 L 272.659024729 23.384643582 L 272.650296825 23.4221232453 Z " stroke="#191919" stroke-width="0.35 px" style="stroke-width:0.35;stroke-miterlimit:4;stroke-dasharray:none;fill:#cccccc;fill-rule: evenodd "/>
<path id="Part__Feature_f0152"  d="M 272.659024729 23.384643582 L 271.029698991 21.4031614185 L 296.213573268 -122.714022735 L 302.172806522 -115.46678289 L 272.659024729 23.384643582 Z " stroke="#191919" stroke-width="0.35 px" style="stroke-width:0.35;stroke-miterlimit:4;stroke-dasharray:none;fill:#cccccc;fill-rule: evenodd "/>
<path id="Part__Feature_f0153"  d="M 302.172806522 -115.46678289 L 296.213573268 -122.714022735 L 296.219641573 -122.753285657 L 302.180077327 -115.504583409 L 302.172806522 -115.46678289 Z " stroke="#191919" stroke-width="0.35 px" style="stroke-width:0.35;stroke-miterlimit:4;stroke-dasharray:none;fill:#cccccc;fill-rule: evenodd "/>
<path id="Part__Feature_f0154"  d="M 302.180077327 -115.504583409 L 296.219641573 -122.753285657 A 8.82162 8.50031 50.5704 0 0 289.236 -133.015L 295.758212302 -125.08374674 M 295.758212302 -125.08374674 L 302.180077327 -115.504583409 Z " stroke="#191919" stroke-width="0.35 px" style="stroke-width:0.35;stroke-miterlimit:4;stroke-dasharray:none;fill:#cccccc;fill-rule: evenodd "/>
<path id="Part__Feature_f0155"  d="M 295.758212302 -125.08374674 L 289.236251687 -133.015339752 L 289.197289478 -133.024414246 L 295.720692548 -125.091067012 L 295.758212302 -125.08374674 Z " stroke="#191919" stroke-width="0.35 px" style="stroke-width:0.35;stroke-miterlimit:4;stroke-dasharray:none;fill:#cccccc;fill-rule: evenodd "/>
<path id="Part__Feature_f0156"  d="M 295.720692548 -125.091067012 L 289.197289478 -133.024414246 L 228.554669003 -145.914401145 L 228.554669003 -140.416301851 M 228.554669003 -140.416301851 L 228.495020265 -138.373790236 L 47.8217631942 -176.777076544 L 55.8559349338 -167.0064287 L 295.720692548 -125.091067012 Z " stroke="#191919" stroke-width="0.35 px" style="stroke-width:0.35;stroke-miterlimit:4;stroke-dasharray:none;fill:#cccccc;fill-rule: evenodd "/>
<path id="Part__Feature_f0157"  d="M -16.3367084883 -19.6539675826 L -23.3600041142 -18.0325120258 L -23.2572351079 -22.0748129339 L -93.8239919496 -5.78319342826 L -93.9473301761 -0.931825853375 L -144.258787013 10.6834891794 L -144.135448786 5.83212160453 L -170.227469988 11.8559393422 L -175.087845896 17.8734396543 L -23.0189288903 -11.3808907434 L -16.3367084883 -19.6539675826 Z " stroke="#191919" stroke-width="0.35 px" style="stroke-width:0.35;stroke-miterlimit:4;stroke-dasharray:none;fill:#cccccc;fill-rule: evenodd "/>
<path id="Part__Feature_f0158"  d="M 228.554669003 -153.060561601 L 228.554669003 -153.060561601 L 228.554669003 -145.914401145 L 228.554669003 -140.416301851 L 228.554669003 -140.416301851 L 228.554669003 -153.060561601 Z " stroke="#191919" stroke-width="0.35 px" style="stroke-width:0.35;stroke-miterlimit:4;stroke-dasharray:none;fill:#cccccc;fill-rule: evenodd "/>
<path id="Part__Feature_f0159"  d="M -170.227469988 11.8559393422 L -170.266519659 11.8641615546 L -175.125486238 17.8799170137 L -175.087845896 17.8734396543 L -170.227469988 11.8559393422 Z " stroke="#191919" stroke-width="0.35 px" style="stroke-width:0.35;stroke-miterlimit:4;stroke-dasharray:none;fill:#cccccc;fill-rule: evenodd "/>
<path id="Part__Feature_f0160"  d="M 194.744082286 -188.040345706 L 194.744082286 -188.040345706 A 35 35 0 0 1 228.555 -153.061L 228.554669003 -153.060561601 A 35 35 0 0 0 194.744 -188.04Z " stroke="#191919" stroke-width="0.35 px" style="stroke-width:0.35;stroke-miterlimit:4;stroke-dasharray:none;fill:#cccccc;fill-rule: evenodd "/>
<path id="Part__Feature_f0161"  d="M -170.266519659 11.8641615546 A 8.82632 8.50031 128.928 0 1 -180.325 5.37733L -185.126036942 11.3212312655 M -185.126036942 11.3212312655 L -175.125486238 17.8799170137 L -170.266519659 11.8641615546 Z " stroke="#191919" stroke-width="0.35 px" style="stroke-width:0.35;stroke-miterlimit:4;stroke-dasharray:none;fill:#cccccc;fill-rule: evenodd "/>
<path id="Part__Feature_f0162"  d="M -109.056558812 -198.370441414 L -109.056558812 -198.370441414 L 194.744082286 -188.040345706 L 194.744082286 -188.040345706 L -109.056558812 -198.370441414 Z " stroke="#191919" stroke-width="0.35 px" style="stroke-width:0.35;stroke-miterlimit:4;stroke-dasharray:none;fill:#cccccc;fill-rule: evenodd "/>
<path id="Part__Feature_f0163"  d="M -180.325111155 5.37733454473 L -180.333765209 5.33685257475 L -185.135878065 11.2822189741 L -185.126036942 11.3212312655 L -180.325111155 5.37733454473 Z " stroke="#191919" stroke-width="0.35 px" style="stroke-width:0.35;stroke-miterlimit:4;stroke-dasharray:none;fill:#cccccc;fill-rule: evenodd "/>
<path id="Part__Feature_f0164"  d="M -145.245972094 -163.390657309 L -145.245972094 -163.390657309 A 35 35 0 0 1 -109.057 -198.37L -109.056558812 -198.370441414 A 35 35 0 0 0 -145.246 -163.391Z " stroke="#191919" stroke-width="0.35 px" style="stroke-width:0.35;stroke-miterlimit:4;stroke-dasharray:none;fill:#cccccc;fill-rule: evenodd "/>
<path id="Part__Feature_f0165"  d="M -180.333765209 5.33685257475 L -207.968248363 -138.317239627 L -217.070826332 -127.047583369 L -185.135878065 11.2822189741 L -180.333765209 5.33685257475 Z " stroke="#191919" stroke-width="0.35 px" style="stroke-width:0.35;stroke-miterlimit:4;stroke-dasharray:none;fill:#cccccc;fill-rule: evenodd "/>
<path id="Part__Feature_f0166"  d="M -145.245972094 -154.095409411 L -145.245972094 -161.650785349 L -145.245972094 -163.390657309 L -145.245972094 -163.390657309 L -145.245972094 -154.095409411 Z " stroke="#191919" stroke-width="0.35 px" style="stroke-width:0.35;stroke-miterlimit:4;stroke-dasharray:none;fill:#cccccc;fill-rule: evenodd "/>
<path id="Part__Feature_f0167"  d="M -207.968248363 -138.317239627 L -207.97497282 -138.356316684 L -217.078743303 -127.085184006 L -217.070826332 -127.047583369 L -207.968248363 -138.317239627 Z " stroke="#191919" stroke-width="0.35 px" style="stroke-width:0.35;stroke-miterlimit:4;stroke-dasharray:none;fill:#cccccc;fill-rule: evenodd "/>
<path id="Part__Feature_f0168"  d="M -201.124230941 -148.750641401 L -145.245972094 -161.650785349 L -145.245972094 -154.095409411 L -50.7447298186 -175.912116905 L -58.7233941051 -166.033947861 L -210.792532791 -136.780577666 L -201.124230941 -148.750641401 Z " stroke="#191919" stroke-width="0.35 px" style="stroke-width:0.35;stroke-miterlimit:4;stroke-dasharray:none;fill:#cccccc;fill-rule: evenodd "/>
<path id="Part__Feature_f0169"  d="M -207.97497282 -138.356316684 A 8.82452 8.49857 128.928 0 1 -201.165 -148.74L -210.831453127 -136.772258858 M -210.831453127 -136.772258858 L -217.078743303 -127.085184006 L -207.97497282 -138.356316684 Z " stroke="#191919" stroke-width="0.35 px" style="stroke-width:0.35;stroke-miterlimit:4;stroke-dasharray:none;fill:#cccccc;fill-rule: evenodd "/>
<path id="Part__Feature_f0170"  d="M -201.164670485 -148.740441705 L -201.124230941 -148.750641401 L -210.792532791 -136.780577666 L -210.831453127 -136.772258858 L -201.164670485 -148.740441705 Z " stroke="#191919" stroke-width="0.35 px" style="stroke-width:0.35;stroke-miterlimit:4;stroke-dasharray:none;fill:#cccccc;fill-rule: evenodd "/>
<circle cx="-155.129908055" cy="18.2330758946" r="2.1" stroke="#191919" stroke-width="0.35 px" style="stroke-width:0.35;stroke-miterlimit:4;stroke-dasharray:none;fill:#cccccc"/>
<circle cx="279.377266793" cy="-145.584584984" r="2.1" stroke="#191919" stroke-width="0.35 px" style="stroke-width:0.35;stroke-miterlimit:4;stroke-dasharray:none;fill:#cccccc"/>
<circle cx="-195.382656935" cy="-157.341266126" r="2.1" stroke="#191919" stroke-width="0.35 px" style="stroke-width:0.35;stroke-miterlimit:4;stroke-dasharray:none;fill:#cccccc"/>
<circle cx="243.051388931" cy="30.3900671262" r="2.1" stroke="#191919" stroke-width="0.35 px" style="stroke-width:0.35;stroke-miterlimit:4;stroke-dasharray:none;fill:#cccccc"/>
<path id="Part__Feature_f0175"  d="M 45.9201133917 -160.245860728 L 37.8326818262 -170.081279779 L 15.1024594197 -40.0 L 10.8305752209 -40.0 L 9.12662168769 -30.2485575231 L 16.4072955369 -21.3942658108 L 45.9201133917 -160.245860728 Z " stroke="#191919" stroke-width="0.35 px" style="stroke-width:0.35;stroke-miterlimit:4;stroke-dasharray:none;fill:#cccccc;fill-rule: evenodd "/>
<path id="Part__Feature_f0176"  d="M 16.4072955369 -21.3942658108 L 9.12662168769 -30.2485575231 L 9.12056358865 -30.2093683794 L 16.4000372326 -21.3565362803 L 16.4072955369 -21.3942658108 Z " stroke="#191919" stroke-width="0.35 px" style="stroke-width:0.35;stroke-miterlimit:4;stroke-dasharray:none;fill:#cccccc;fill-rule: evenodd "/>
<path id="Part__Feature_f0177"  d="M 16.4000372326 -21.3565362803 L 9.12056358866 -30.2093683794 A 8.81981 8.49857 50.5704 0 0 16.1022 -19.9467L 22.8201308262 -11.7766816057 M 22.8201308262 -11.7766816057 L 16.4000372326 -21.3565362803 Z " stroke="#191919" stroke-width="0.35 px" style="stroke-width:0.35;stroke-miterlimit:4;stroke-dasharray:none;fill:#cccccc;fill-rule: evenodd "/>
<path id="Part__Feature_f0178"  d="M 22.8201308262 -11.7766816057 L 16.1021531262 -19.9466581085 L 16.1427358995 -19.9371717261 L 22.8592099399 -11.7690238783 L 22.8201308262 -11.7766816057 Z " stroke="#191919" stroke-width="0.35 px" style="stroke-width:0.35;stroke-miterlimit:4;stroke-dasharray:none;fill:#cccccc;fill-rule: evenodd "/>
<path id="Part__Feature_f0179"  d="M -16.2978854272 -19.6637264039 L -16.3367084883 -19.6539675826 L -23.0189288903 -11.3808907434 L -22.9815631342 -11.3888453148 L -16.2978854272 -19.6637264039 Z " stroke="#191919" stroke-width="0.35 px" style="stroke-width:0.35;stroke-miterlimit:4;stroke-dasharray:none;fill:#cccccc;fill-rule: evenodd "/>
<path id="Part__Feature_f0180"  d="M -9.48551309396 -30.0455196182 A 8.82622 8.50021 128.928 0 1 -16.2979 -19.6637L -22.9815631342 -11.3888453148 M -22.9815631342 -11.3888453148 L -16.7321795729 -21.073617316 L -9.48551309396 -30.0455196182 Z " stroke="#191919" stroke-width="0.35 px" style="stroke-width:0.35;stroke-miterlimit:4;stroke-dasharray:none;fill:#cccccc;fill-rule: evenodd "/>
<path id="Part__Feature_f0181"  d="M -9.49250686523 -30.0863776657 L -9.48551309396 -30.0455196182 L -16.7321795729 -21.073617316 L -16.7404212732 -21.1129303362 L -9.49250686524 -30.0863776657 Z " stroke="#191919" stroke-width="0.35 px" style="stroke-width:0.35;stroke-miterlimit:4;stroke-dasharray:none;fill:#cccccc;fill-rule: evenodd "/>
<path id="Part__Feature_f0182"  d="M -40.6394392551 -169.392805423 L -15.7474366323 -40.0 L -11.3996446875 -40.0 L -9.49250686522 -30.0863776657 L -16.7404212732 -21.1129303362 L -48.6763298676 -159.442547936 L -40.6394392551 -169.392805423 Z " stroke="#191919" stroke-width="0.35 px" style="stroke-width:0.35;stroke-miterlimit:4;stroke-dasharray:none;fill:#cccccc;fill-rule: evenodd "/>
<path id="Part__Feature_f0183"  d="M 10.8305752209 -40.0 L -11.3996446875 -40.0 L -15.7474366324 -40.0 L 15.1024594197 -40.0 L 10.8305752209 -40.0 Z " stroke="#191919" stroke-width="0.35 px" style="stroke-width:0.35;stroke-miterlimit:4;stroke-dasharray:none;fill:#cccccc;fill-rule: evenodd "/>
<path id="Part__Feature_f0184"  d="M -22.9815631342 -11.3888453148 M -22.9815631342 -11.3888453148 L -16.7321795729 -21.073617316 L -16.7404212732 -21.1129303362 L -48.6763298676 -159.442547936 L -48.6861514212 -159.481487709 M -48.6861514211 -159.481487709 L -58.6856956244 -166.040433808 L -58.7233941051 -166.033947861 L -210.792532791 -136.780577666 L -210.831453127 -136.772258858 M -210.831453127 -136.772258858 L -217.078743303 -127.085184006 L -217.070826332 -127.047583369 L -185.135878065 11.2822189741 L -185.126036942 11.3212312655 M -185.126036942 11.3212312655 L -175.125486238 17.8799170137 L -175.087845896 17.8734396543 L -23.0189288903 -11.3808907434 L -22.9815631342 -11.3888453148 Z M -47.4046385978 -46.3543255541 M -47.4046385978 -46.3543255541 L -49.1776510041 -47.5175135703 L -121.39624575 -33.6244269806 M -121.39624575 -33.6244269806 L -122.504217683 -31.9070082289 L -118.502447471 -14.5734371042 M -118.502447471 -14.5734371042 L -116.729435065 -13.410249088 L -44.5108403189 -27.3033356777 M -44.5108403189 -27.3033356777 L -43.4028683865 -29.0207544294 L -47.4046385978 -46.3543255541 Z M -65.0012717524 -143.266007241 M -65.0012717524 -143.266007241 L -66.7742841587 -144.429195257 L -193.875630557 -119.978013157 M -193.875630557 -119.978013157 L -194.983602489 -118.260594405 L -174.089804243 -27.7596113766 M -174.089804242 -27.7596113766 L -172.316791836 -26.5964233604 L -45.215445438 -51.0476054609 M -45.215445438 -51.0476054609 L -44.1074735056 -52.7650242126 L -65.0012717524 -143.266007241 Z M -129.728766076 -30.5171822879 M -129.728766076 -30.5171822879 L -131.501778482 -31.6803703041 L -162.557829325 -25.7059477193 M -162.557829325 -25.7059477193 L -163.665801257 -23.9885289676 L -159.664031046 -6.65495784297 M -159.664031046 -6.65495784297 L -157.89101864 -5.49176982677 L -126.834967797 -11.4661924116 M -126.834967797 -11.4661924115 L -125.726995865 -13.1836111632 L -129.728766076 -30.5171822879 Z M -173.109298478 6.46148674971 M -173.109298478 6.4614867497 L -173.109298478 6.4614867497 Z M -203.936806282 -127.06711957 M -203.936806283 -127.06711957 L -203.936806283 -127.06711957 Z M -25.8415418728 -21.8692181273 M -25.8415418728 -21.8692181273 L -25.8415418728 -21.8692181273 Z M -56.6690496775 -155.397824447 M -56.6690496775 -155.397824447 L -56.6690496775 -155.397824447 Z " stroke="#191919" stroke-width="0.35 px" style="stroke-width:0.35;stroke-miterlimit:4;stroke-dasharray:none;fill:#cccccc;fill-rule: evenodd "/>
<path id="Part__Feature_f0185"  d="M 55.8559349338 -167.0064287 L 47.8217631942 -176.777076544 L 47.7826005525 -176.784610687 L 55.8181664847 -167.012267314 L 55.8559349338 -167.0064287 Z " stroke="#191919" stroke-width="0.35 px" style="stroke-width:0.35;stroke-miterlimit:4;stroke-dasharray:none;fill:#cccccc;fill-rule: evenodd "/>
<path id="Part__Feature_f0186"  d="M 55.8181664847 -167.012267314 L 47.7826005525 -176.784610687 A 8.82161 8.50031 50.5704 0 0 37.8406 -170.122L 45.9292717294 -160.285034322 M 45.9292717294 -160.285034322 L 55.8181664847 -167.012267314 Z " stroke="#191919" stroke-width="0.35 px" style="stroke-width:0.35;stroke-miterlimit:4;stroke-dasharray:none;fill:#cccccc;fill-rule: evenodd "/>
<path id="Part__Feature_f0187"  d="M 45.9292717294 -160.285034322 L 37.8406444285 -170.12190755 L 37.8326818262 -170.081279779 L 45.9201133917 -160.245860728 L 45.9292717294 -160.285034322 Z " stroke="#191919" stroke-width="0.35 px" style="stroke-width:0.35;stroke-miterlimit:4;stroke-dasharray:none;fill:#cccccc;fill-rule: evenodd "/>
<path id="Part__Feature_f0188"  d="M 293.081577705 -114.556376979 M 293.081577705 -114.556376979 L 293.081577705 -114.556376979 L 294.270552544 -113.110421525 M 294.270552544 -113.110421525 L 294.270552544 -113.110421525 Z " stroke="#191919" stroke-width="0.35 px" style="stroke-width:0.35;stroke-miterlimit:4;stroke-dasharray:none;fill:#cccccc;fill-rule: evenodd "/>
<path id="Part__Feature_f0189"  d="M 264.592131855 19.4759277735 M 264.592131855 19.4759277735 L 264.592131855 19.4759277735 L 265.781106693 20.9218832271 M 265.781106693 20.9218832271 L 265.781106693 20.9218832271 Z " stroke="#191919" stroke-width="0.35 px" style="stroke-width:0.35;stroke-miterlimit:4;stroke-dasharray:none;fill:#cccccc;fill-rule: evenodd "/>
<path id="Part__Feature_f0190"  d="M 58.0360352257 -155.629601008 M 58.0360352257 -155.629601008 L 58.0360352257 -155.629601008 L 59.2250100642 -154.183645554 M 59.2250100642 -154.183645554 L 59.2250100642 -154.183645554 Z " stroke="#191919" stroke-width="0.35 px" style="stroke-width:0.35;stroke-miterlimit:4;stroke-dasharray:none;fill:#cccccc;fill-rule: evenodd "/>
<path id="Part__Feature_f0191"  d="M 29.5465893748 -21.5972962554 M 29.5465893748 -21.5972962554 L 29.5465893748 -21.5972962554 L 30.7355642133 -20.1513408017 M 30.7355642133 -20.1513408017 L 30.7355642133 -20.1513408017 Z " stroke="#191919" stroke-width="0.35 px" style="stroke-width:0.35;stroke-miterlimit:4;stroke-dasharray:none;fill:#cccccc;fill-rule: evenodd "/>
<path id="Part__Feature_f0192"  d="M 228.554669003 -140.416301851 L 228.554669003 -140.416301851 M 228.554669003 -140.416301851 L 228.495020265 -138.373790236 A 35 35 0 0 0 228.555 -140.416Z " stroke="#191919" stroke-width="0.35 px" style="stroke-width:0.35;stroke-miterlimit:4;stroke-dasharray:none;fill:#cccccc;fill-rule: evenodd "/>
<circle cx="0.0" cy="-94.9324979851" r="1.25" stroke="#191919" stroke-width="0.35 px" style="stroke-width:0.35;stroke-miterlimit:4;stroke-dasharray:none;fill:#cccccc"/>
<path id="Part__Feature_f0194"  d="M -50.7447298186 -175.912116905 L -50.7056198854 -175.920350333 L -58.6856956244 -166.040433808 L -58.7233941051 -166.033947861 L -50.7447298186 -175.912116905 Z " stroke="#191919" stroke-width="0.35 px" style="stroke-width:0.35;stroke-miterlimit:4;stroke-dasharray:none;fill:#cccccc;fill-rule: evenodd "/>
<circle cx="-155.129908055" cy="18.2330758946" r="2.1" stroke="#191919" stroke-width="0.35 px" style="stroke-width:0.35;stroke-miterlimit:4;stroke-dasharray:none;fill:#cccccc"/>
<circle cx="279.377266793" cy="-145.584584984" r="2.1" stroke="#191919" stroke-width="0.35 px" style="stroke-width:0.35;stroke-miterlimit:4;stroke-dasharray:none;fill:#cccccc"/>
<circle cx="-195.382656935" cy="-157.341266126" r="2.1" stroke="#191919" stroke-width="0.35 px" style="stroke-width:0.35;stroke-miterlimit:4;stroke-dasharray:none;fill:#cccccc"/>
<circle cx="243.051388931" cy="30.3900671262" r="2.1" stroke="#191919" stroke-width="0.35 px" style="stroke-width:0.35;stroke-miterlimit:4;stroke-dasharray:none;fill:#cccccc"/>
<path id="Part__Feature_f0199"  d="M -40.6480759065 -169.433212192 L -40.6394392551 -169.392805423 L -48.6763298676 -159.442547936 L -48.6861514212 -159.481487709 L -40.6480759065 -169.433212192 Z " stroke="#191919" stroke-width="0.35 px" style="stroke-width:0.35;stroke-miterlimit:4;stroke-dasharray:none;fill:#cccccc;fill-rule: evenodd "/>
<path id="Part__Feature_f0200"  d="M -50.7056198854 -175.920350333 A 8.82452 8.49857 128.928 0 1 -40.6481 -169.433L -48.6861514212 -159.481487709 M -48.6861514211 -159.481487709 L -58.6856956244 -166.040433808 L -50.7056198854 -175.920350333 Z " stroke="#191919" stroke-width="0.35 px" style="stroke-width:0.35;stroke-miterlimit:4;stroke-dasharray:none;fill:#cccccc;fill-rule: evenodd "/>
<path id="Part__Feature_f0201"  d="M -173.109298478 6.46148674971 M -173.109298478 6.4614867497 L -173.109298478 6.4614867497 L -174.293681581 7.92783952281 M -174.293681581 7.92783952281 L -174.293681581 7.92783952281 Z " stroke="#191919" stroke-width="0.35 px" style="stroke-width:0.35;stroke-miterlimit:4;stroke-dasharray:none;fill:#cccccc;fill-rule: evenodd "/>
<path id="Part__Feature_f0202"  d="M -203.936806282 -127.06711957 M -203.936806283 -127.06711957 L -203.936806283 -127.06711957 L -205.121189385 -125.600766797 M -205.121189385 -125.600766797 L -205.121189385 -125.600766797 Z " stroke="#191919" stroke-width="0.35 px" style="stroke-width:0.35;stroke-miterlimit:4;stroke-dasharray:none;fill:#cccccc;fill-rule: evenodd "/>
<path id="Part__Feature_f0203"  d="M -25.8415418728 -21.8692181273 M -25.8415418728 -21.8692181273 L -25.8415418728 -21.8692181273 L -27.0259249757 -20.4028653542 M -27.0259249757 -20.4028653542 L -27.0259249757 -20.4028653542 Z " stroke="#191919" stroke-width="0.35 px" style="stroke-width:0.35;stroke-miterlimit:4;stroke-dasharray:none;fill:#cccccc;fill-rule: evenodd "/>
<path id="Part__Feature_f0204"  d="M -56.6690496775 -155.397824447 M -56.6690496775 -155.397824447 L -56.6690496775 -155.397824447 L -57.8534327803 -153.931471674 M -57.8534327803 -153.931471674 L -57.8534327803 -153.931471674 Z " stroke="#191919" stroke-width="0.35 px" style="stroke-width:0.35;stroke-miterlimit:4;stroke-dasharray:none;fill:#cccccc;fill-rule: evenodd "/>
<path id="Part__Feature_f0205"  d="M 294.270552544 -113.110421525 M 294.270552544 -113.110421525 L 294.270552544 -113.110421525 Z " stroke="#191919" stroke-width="0.35 px" style="stroke-width:0.35;stroke-miterlimit:4;stroke-dasharray:none;fill:#cccccc;fill-rule: evenodd "/>
<path id="Part__Feature_f0206"  d="M 265.781106693 20.9218832271 M 265.781106693 20.9218832271 L 265.781106693 20.9218832271 Z " stroke="#191919" stroke-width="0.35 px" style="stroke-width:0.35;stroke-miterlimit:4;stroke-dasharray:none;fill:#cccccc;fill-rule: evenodd "/>
<path id="Part__Feature_f0207"  d="M 59.2250100642 -154.183645554 M 59.2250100642 -154.183645554 L 59.2250100642 -154.183645554 Z " stroke="#191919" stroke-width="0.35 px" style="stroke-width:0.35;stroke-miterlimit:4;stroke-dasharray:none;fill:#cccccc;fill-rule: evenodd "/>
<path id="Part__Feature_f0208"  d="M 30.7355642133 -20.1513408017 M 30.7355642133 -20.1513408017 L 30.7355642133 -20.1513408017 Z " stroke="#191919" stroke-width="0.35 px" style="stroke-width:0.35;stroke-miterlimit:4;stroke-dasharray:none;fill:#cccccc;fill-rule: evenodd "/>
<circle cx="0.0" cy="-94.9324979851" r="1.25" stroke="#191919" stroke-width="0.35 px" style="stroke-width:0.35;stroke-miterlimit:4;stroke-dasharray:none;fill:#cccccc"/>
<circle cx="22.5" cy="-154.932497985" r="1.25" stroke="#191919" stroke-width="0.35 px" style="stroke-width:0.35;stroke-miterlimit:4;stroke-dasharray:none;fill:#cccccc"/>
<circle cx="-22.5" cy="-154.932497985" r="1.25" stroke="#191919" stroke-width="0.35 px" style="stroke-width:0.35;stroke-miterlimit:4;stroke-dasharray:none;fill:#cccccc"/>
<path id="Part__Feature_f0212"  d="M -174.293681581 7.92783952281 M -174.293681581 7.92783952281 L -174.293681581 7.92783952281 Z " stroke="#191919" stroke-width="0.35 px" style="stroke-width:0.35;stroke-miterlimit:4;stroke-dasharray:none;fill:#cccccc;fill-rule: evenodd "/>
<path id="Part__Feature_f0213"  d="M -205.121189385 -125.600766797 M -205.121189385 -125.600766797 L -205.121189385 -125.600766797 Z " stroke="#191919" stroke-width="0.35 px" style="stroke-width:0.35;stroke-miterlimit:4;stroke-dasharray:none;fill:#cccccc;fill-rule: evenodd "/>
<path id="Part__Feature_f0214"  d="M -27.0259249757 -20.4028653542 M -27.0259249757 -20.4028653542 L -27.0259249757 -20.4028653542 Z " stroke="#191919" stroke-width="0.35 px" style="stroke-width:0.35;stroke-miterlimit:4;stroke-dasharray:none;fill:#cccccc;fill-rule: evenodd "/>
<path id="Part__Feature_f0215"  d="M -57.8534327803 -153.931471674 M -57.8534327803 -153.931471674 L -57.8534327803 -153.931471674 Z " stroke="#191919" stroke-width="0.35 px" style="stroke-width:0.35;stroke-miterlimit:4;stroke-dasharray:none;fill:#cccccc;fill-rule: evenodd "/>
<circle cx="0.0" cy="-94.9324979851" r="1.25" stroke="#191919" stroke-width="0.35 px" style="stroke-width:0.35;stroke-miterlimit:4;stroke-dasharray:none;fill:#cccccc"/>
<circle cx="22.5" cy="-154.932497985" r="1.25" stroke="#191919" stroke-width="0.35 px" style="stroke-width:0.35;stroke-miterlimit:4;stroke-dasharray:none;fill:#cccccc"/>
<circle cx="-22.5" cy="-154.932497985" r="1.25" stroke="#191919" stroke-width="0.35 px" style="stroke-width:0.35;stroke-miterlimit:4;stroke-dasharray:none;fill:#cccccc"/>
<title>Open CASCADE STEP translator 7.3 1</title>
</g>
</svg>