<?xml version="1.0" encoding="UTF-8"?>
<!DOCTYPE svg PUBLIC "-//W3C//DTD SVG 1.1//EN" "http://www.w3.org/Graphics/SVG/1.1/DTD/svg11.dtd">
<svg version="1.1" xmlns="http://www.w3.org/2000/svg" xmlns:xlink="http://www.w3.org/1999/xlink" x="0" y="0" width="1710" height="963" viewBox="0, 0, 1710, 963">
  <g id="Layer_1">
    <path d="M0,0 L1710,0 L1710,63 L0,63 L0,0 z" fill="#FF0000"/>
    <path d="M0,900 L1710,900 L1710,963 L0,963 L0,900 z" fill="#FF0000"/>
    <path d="M0,63 L63,63 L63,297 L0,297 L0,63 z" fill="#FF0000"/>
    <path d="M0,666 L63,666 L63,900 L0,900 L0,666 z" fill="#FF0000"/>
    <path d="M1647,666 L1710,666 L1710,900 L1647,900 L1647,666 z" fill="#FF0000"/>
    <path d="M252.863,795.928 L559.557,864.122 C659.823,879.408 765.909,883.052 867.45,874.564 L1426.377,789.592 C1483.724,780.907 1534.673,752.47 1570.968,711.254 C1618.443,657.727 1640.964,581.911 1626.351,505.059 L1542.587,63 L186.674,63.15 L72.918,498.51 C52.897,574.945 70.717,652.781 115.222,709.502 C148.571,752.319 196.962,783.53 252.863,795.928" fill="#0100FF" id="Part__Feature_cs_w0000"/>
    <path d="M1647,63 L1710,63 L1710,297 L1647,297 L1647,63 z" fill="#FF0000"/>
  </g>
</svg>
