<?xml version="1.0"?>
<!DOCTYPE svg PUBLIC "-//W3C//DTD SVG 1.1//EN" "http://www.w3.org/Graphics/SVG/1.1/DTD/svg11.dtd">
<svg width="540.45781565mm" height="266.463807247mm" viewBox="0 0 540.45781565 266.463807247" xmlns="http://www.w3.org/2000/svg" version="1.1">
<g id="Part__Feature_cs" transform="translate(226.923713,51.580947) scale(1,-1)">
<path id="Part__Feature_cs_w0000"  d="M 273.988923473 42.4382796932 A 5 5 0 0 1 268.991 46.2823L -181.29817467 34.3347438358 A 5 5 0 0 1 -186.027 30.5064L -221.361424672 -116.318654657 A 81.0427 81.0427 0 0 1 -155.773 -209.508A 5 5 0 0 1 -154.728 -209.584L 238.199504664 -196.902151772 A 5 5 0 0 1 238.915 -196.827A 84.5783 84.5783 0 0 1 306.538 -94.7608L 273.988923473 42.4382796932 " stroke="#191919" stroke-width="0.35 px" style="stroke-width:0.35;stroke-miterlimit:4;stroke-dasharray:none;fill:none;fill-rule: evenodd "/>
<circle cx="279.377266793" cy="-145.584584984" r="2.75" stroke="#191919" stroke-width="0.35 px" style="stroke-width:0.35;stroke-miterlimit:4;stroke-dasharray:none;fill:none"/>
<circle cx="243.051388931" cy="30.3900671262" r="2.75" stroke="#191919" stroke-width="0.35 px" style="stroke-width:0.35;stroke-miterlimit:4;stroke-dasharray:none;fill:none"/>
<circle cx="-195.382656935" cy="-157.341266126" r="2.75" stroke="#191919" stroke-width="0.35 px" style="stroke-width:0.35;stroke-miterlimit:4;stroke-dasharray:none;fill:none"/>
<circle cx="-155.129908055" cy="18.2330758946" r="2.75" stroke="#191919" stroke-width="0.35 px" style="stroke-width:0.35;stroke-miterlimit:4;stroke-dasharray:none;fill:none"/>
<title>Part__Feature_cs</title>
</g>
</svg>