  0
SECTION
  2
HEADER
  9
$ACADVER
  1
AC1009
  9
$EXTMIN
 10
0.0
 20
0.0
 30
0.0
  9
$EXTMAX
 10
1000.0
 20
1000.0
 30
0.0
  9
$FILLMODE
 70
 0
  9
$SPLFRAME
 70
 1
  0
ENDSEC
  0
SECTION
  2
TABLES
  0
TABLE
  2
LAYER
 70
1
  0
LAYER
  2
0
 70
     0
 62
     7
  6
CONTINUOUS
  0
ENDTAB
  0
ENDSEC
  0
SECTION
  2
ENTITIES
  0
LINE
  8
0
 62
     0
 10
256.432
 20
159.155
 30
0.0
 11
257.021
 21
159.133
 31
0.0
  0
LINE
  8
0
 62
     0
 10
257.021
 20
159.133
 30
0.0
 11
257.606
 21
159.063
 31
0.0
  0
LINE
  8
0
 62
     0
 10
257.606
 20
159.063
 30
0.0
 11
258.184
 21
158.949
 31
0.0
  0
LINE
  8
0
 62
     0
 10
258.184
 20
158.949
 30
0.0
 11
258.75
 21
158.788
 31
0.0
  0
LINE
  8
0
 62
     0
 10
258.75
 20
158.788
 30
0.0
 11
259.303
 21
158.586
 31
0.0
  0
LINE
  8
0
 62
     0
 10
259.303
 20
158.586
 30
0.0
 11
259.837
 21
158.338
 31
0.0
  0
LINE
  8
0
 62
     0
 10
259.837
 20
158.338
 30
0.0
 11
260.351
 21
158.05
 31
0.0
  0
LINE
  8
0
 62
     0
 10
260.351
 20
158.05
 30
0.0
 11
260.841
 21
157.723
 31
0.0
  0
LINE
  8
0
 62
     0
 10
260.841
 20
157.723
 30
0.0
 11
261.304
 21
157.36
 31
0.0
  0
LINE
  8
0
 62
     0
 10
261.304
 20
157.36
 30
0.0
 11
261.736
 21
156.96
 31
0.0
  0
LINE
  8
0
 62
     0
 10
261.736
 20
156.96
 30
0.0
 11
262.136
 21
156.526
 31
0.0
  0
LINE
  8
0
 62
     0
 10
262.136
 20
156.526
 30
0.0
 11
262.501
 21
156.066
 31
0.0
  0
LINE
  8
0
 62
     0
 10
262.501
 20
156.066
 30
0.0
 11
262.828
 21
155.575
 31
0.0
  0
LINE
  8
0
 62
     0
 10
262.828
 20
155.575
 30
0.0
 11
263.116
 21
155.061
 31
0.0
  0
LINE
  8
0
 62
     0
 10
263.116
 20
155.061
 30
0.0
 11
263.362
 21
154.526
 31
0.0
  0
LINE
  8
0
 62
     0
 10
263.362
 20
154.526
 30
0.0
 11
263.566
 21
153.974
 31
0.0
  0
LINE
  8
0
 62
     0
 10
263.566
 20
153.974
 30
0.0
 11
263.726
 21
153.406
 31
0.0
  0
LINE
  8
0
 62
     0
 10
263.726
 20
153.406
 30
0.0
 11
263.841
 21
152.83
 31
0.0
  0
LINE
  8
0
 62
     0
 10
263.841
 20
152.83
 30
0.0
 11
263.91
 21
152.244
 31
0.0
  0
LINE
  8
0
 62
     0
 10
263.91
 20
152.244
 30
0.0
 11
263.933
 21
151.656
 31
0.0
  0
LINE
  8
0
 62
     0
 10
263.933
 20
151.656
 30
0.0
 11
263.933
 21
7.59298
 31
0.0
  0
LINE
  8
0
 62
     0
 10
263.933
 20
7.59298
 30
0.0
 11
263.91
 21
7.00458
 31
0.0
  0
LINE
  8
0
 62
     0
 10
263.91
 20
7.00458
 30
0.0
 11
263.841
 21
6.4189
 31
0.0
  0
LINE
  8
0
 62
     0
 10
263.841
 20
6.4189
 30
0.0
 11
263.726
 21
5.84151
 31
0.0
  0
LINE
  8
0
 62
     0
 10
263.726
 20
5.84151
 30
0.0
 11
263.566
 21
5.27512
 31
0.0
  0
LINE
  8
0
 62
     0
 10
263.566
 20
5.27512
 30
0.0
 11
263.362
 21
4.72253
 31
0.0
  0
LINE
  8
0
 62
     0
 10
263.362
 20
4.72253
 30
0.0
 11
263.116
 21
4.18786
 31
0.0
  0
LINE
  8
0
 62
     0
 10
263.116
 20
4.18786
 30
0.0
 11
262.828
 21
3.67386
 31
0.0
  0
LINE
  8
0
 62
     0
 10
262.828
 20
3.67386
 30
0.0
 11
262.501
 21
3.18464
 31
0.0
  0
LINE
  8
0
 62
     0
 10
262.501
 20
3.18464
 30
0.0
 11
262.136
 21
2.72162
 31
0.0
  0
LINE
  8
0
 62
     0
 10
262.136
 20
2.72162
 30
0.0
 11
261.736
 21
2.28892
 31
0.0
  0
LINE
  8
0
 62
     0
 10
261.736
 20
2.28892
 30
0.0
 11
261.304
 21
1.88929
 31
0.0
  0
LINE
  8
0
 62
     0
 10
261.304
 20
1.88929
 30
0.0
 11
260.841
 21
1.52411
 31
0.0
  0
LINE
  8
0
 62
     0
 10
260.841
 20
1.52411
 30
0.0
 11
260.351
 21
1.19751
 31
0.0
  0
LINE
  8
0
 62
     0
 10
260.351
 20
1.19751
 30
0.0
 11
259.837
 21
0.909507
 31
0.0
  0
LINE
  8
0
 62
     0
 10
259.837
 20
0.909507
 30
0.0
 11
259.303
 21
0.662838
 31
0.0
  0
LINE
  8
0
 62
     0
 10
259.303
 20
0.662838
 30
0.0
 11
258.75
 21
0.458886
 31
0.0
  0
LINE
  8
0
 62
     0
 10
258.75
 20
0.458886
 30
0.0
 11
258.184
 21
0.299034
 31
0.0
  0
LINE
  8
0
 62
     0
 10
258.184
 20
0.299034
 30
0.0
 11
257.606
 21
0.184657
 31
0.0
  0
LINE
  8
0
 62
     0
 10
257.606
 20
0.184657
 30
0.0
 11
257.021
 21
0.115755
 31
0.0
  0
LINE
  8
0
 62
     0
 10
257.021
 20
0.115755
 30
0.0
 11
256.432
 21
0.0923286
 31
0.0
  0
LINE
  8
0
 62
     0
 10
256.432
 20
0.0923286
 30
0.0
 11
7.59435
 21
0.0923286
 31
0.0
  0
LINE
  8
0
 62
     0
 10
7.59435
 20
0.0923286
 30
0.0
 11
7.00595
 21
0.115755
 31
0.0
  0
LINE
  8
0
 62
     0
 10
7.00595
 20
0.115755
 30
0.0
 11
6.42027
 21
0.184657
 31
0.0
  0
LINE
  8
0
 62
     0
 10
6.42027
 20
0.184657
 30
0.0
 11
5.84426
 21
0.299034
 31
0.0
  0
LINE
  8
0
 62
     0
 10
5.84426
 20
0.299034
 30
0.0
 11
5.2765
 21
0.458886
 31
0.0
  0
LINE
  8
0
 62
     0
 10
5.2765
 20
0.458886
 30
0.0
 11
4.72391
 21
0.662838
 31
0.0
  0
LINE
  8
0
 62
     0
 10
4.72391
 20
0.662838
 30
0.0
 11
4.18924
 21
0.909507
 31
0.0
  0
LINE
  8
0
 62
     0
 10
4.18924
 20
0.909507
 30
0.0
 11
3.67524
 21
1.19751
 31
0.0
  0
LINE
  8
0
 62
     0
 10
3.67524
 20
1.19751
 30
0.0
 11
3.18464
 21
1.52411
 31
0.0
  0
LINE
  8
0
 62
     0
 10
3.18464
 20
1.52411
 30
0.0
 11
2.72438
 21
1.88929
 31
0.0
  0
LINE
  8
0
 62
     0
 10
2.72438
 20
1.88929
 30
0.0
 11
2.2903
 21
2.28892
 31
0.0
  0
LINE
  8
0
 62
     0
 10
2.2903
 20
2.28892
 30
0.0
 11
1.89067
 21
2.72162
 31
0.0
  0
LINE
  8
0
 62
     0
 10
1.89067
 20
2.72162
 30
0.0
 11
1.52687
 21
3.18464
 31
0.0
  0
LINE
  8
0
 62
     0
 10
1.52687
 20
3.18464
 30
0.0
 11
1.20027
 21
3.67386
 31
0.0
  0
LINE
  8
0
 62
     0
 10
1.20027
 20
3.67386
 30
0.0
 11
0.912262
 21
4.18786
 31
0.0
  0
LINE
  8
0
 62
     0
 10
0.912262
 20
4.18786
 30
0.0
 11
0.664214
 21
4.72253
 31
0.0
  0
LINE
  8
0
 62
     0
 10
0.664214
 20
4.72253
 30
0.0
 11
0.461641
 21
5.27512
 31
0.0
  0
LINE
  8
0
 62
     0
 10
0.461641
 20
5.27512
 30
0.0
 11
0.30179
 21
5.84151
 31
0.0
  0
LINE
  8
0
 62
     0
 10
0.30179
 20
5.84151
 30
0.0
 11
0.187413
 21
6.4189
 31
0.0
  0
LINE
  8
0
 62
     0
 10
0.187413
 20
6.4189
 30
0.0
 11
0.117133
 21
7.00458
 31
0.0
  0
LINE
  8
0
 62
     0
 10
0.117133
 20
7.00458
 30
0.0
 11
0.0937066
 21
7.59298
 31
0.0
  0
LINE
  8
0
 62
     0
 10
0.0937066
 20
7.59298
 30
0.0
 11
0.0950846
 21
151.656
 31
0.0
  0
LINE
  8
0
 62
     0
 10
0.0950846
 20
151.656
 30
0.0
 11
0.117133
 21
152.244
 31
0.0
  0
LINE
  8
0
 62
     0
 10
0.117133
 20
152.244
 30
0.0
 11
0.187413
 21
152.83
 31
0.0
  0
LINE
  8
0
 62
     0
 10
0.187413
 20
152.83
 30
0.0
 11
0.30179
 21
153.406
 31
0.0
  0
LINE
  8
0
 62
     0
 10
0.30179
 20
153.406
 30
0.0
 11
0.461641
 21
153.974
 31
0.0
  0
LINE
  8
0
 62
     0
 10
0.461641
 20
153.974
 30
0.0
 11
0.664214
 21
154.526
 31
0.0
  0
LINE
  8
0
 62
     0
 10
0.664214
 20
154.526
 30
0.0
 11
0.912262
 21
155.061
 31
0.0
  0
LINE
  8
0
 62
     0
 10
0.912262
 20
155.061
 30
0.0
 11
1.20027
 21
155.575
 31
0.0
  0
LINE
  8
0
 62
     0
 10
1.20027
 20
155.575
 30
0.0
 11
1.52687
 21
156.066
 31
0.0
  0
LINE
  8
0
 62
     0
 10
1.52687
 20
156.066
 30
0.0
 11
1.89067
 21
156.526
 31
0.0
  0
LINE
  8
0
 62
     0
 10
1.89067
 20
156.526
 30
0.0
 11
2.2903
 21
156.96
 31
0.0
  0
LINE
  8
0
 62
     0
 10
2.2903
 20
156.96
 30
0.0
 11
2.72438
 21
157.36
 31
0.0
  0
LINE
  8
0
 62
     0
 10
2.72438
 20
157.36
 30
0.0
 11
3.18464
 21
157.723
 31
0.0
  0
LINE
  8
0
 62
     0
 10
3.18464
 20
157.723
 30
0.0
 11
3.67524
 21
158.05
 31
0.0
  0
LINE
  8
0
 62
     0
 10
3.67524
 20
158.05
 30
0.0
 11
4.18924
 21
158.338
 31
0.0
  0
LINE
  8
0
 62
     0
 10
4.18924
 20
158.338
 30
0.0
 11
4.72391
 21
158.586
 31
0.0
  0
LINE
  8
0
 62
     0
 10
4.72391
 20
158.586
 30
0.0
 11
5.2765
 21
158.788
 31
0.0
  0
LINE
  8
0
 62
     0
 10
5.2765
 20
158.788
 30
0.0
 11
5.84426
 21
158.949
 31
0.0
  0
LINE
  8
0
 62
     0
 10
5.84426
 20
158.949
 30
0.0
 11
6.42027
 21
159.063
 31
0.0
  0
LINE
  8
0
 62
     0
 10
6.42027
 20
159.063
 30
0.0
 11
7.00595
 21
159.133
 31
0.0
  0
LINE
  8
0
 62
     0
 10
7.00595
 20
159.133
 30
0.0
 11
7.59435
 21
159.156
 31
0.0
  0
LINE
  8
0
 62
     0
 10
7.59435
 20
159.156
 30
0.0
 11
256.432
 21
159.155
 31
0.0
  0
LINE
  8
0
 62
     0
 10
253.005
 20
12.9453
 30
0.0
 11
252.17
 21
12.5195
 31
0.0
  0
LINE
  8
0
 62
     0
 10
252.17
 20
12.5195
 30
0.0
 11
251.506
 21
11.8553
 31
0.0
  0
LINE
  8
0
 62
     0
 10
251.506
 20
11.8553
 30
0.0
 11
251.08
 21
11.0188
 31
0.0
  0
LINE
  8
0
 62
     0
 10
251.08
 20
11.0188
 30
0.0
 11
250.933
 21
10.0928
 31
0.0
  0
LINE
  8
0
 62
     0
 10
250.933
 20
10.0928
 30
0.0
 11
251.08
 21
9.16534
 31
0.0
  0
LINE
  8
0
 62
     0
 10
251.08
 20
9.16534
 30
0.0
 11
251.506
 21
8.32887
 31
0.0
  0
LINE
  8
0
 62
     0
 10
251.506
 20
8.32887
 30
0.0
 11
252.17
 21
7.66604
 31
0.0
  0
LINE
  8
0
 62
     0
 10
252.17
 20
7.66604
 30
0.0
 11
253.005
 21
7.23882
 31
0.0
  0
LINE
  8
0
 62
     0
 10
253.005
 20
7.23882
 30
0.0
 11
253.933
 21
7.09277
 31
0.0
  0
LINE
  8
0
 62
     0
 10
253.933
 20
7.09277
 30
0.0
 11
254.86
 21
7.23882
 31
0.0
  0
LINE
  8
0
 62
     0
 10
254.86
 20
7.23882
 30
0.0
 11
255.697
 21
7.66604
 31
0.0
  0
LINE
  8
0
 62
     0
 10
255.697
 20
7.66604
 30
0.0
 11
256.359
 21
8.32887
 31
0.0
  0
LINE
  8
0
 62
     0
 10
256.359
 20
8.32887
 30
0.0
 11
256.785
 21
9.16534
 31
0.0
  0
LINE
  8
0
 62
     0
 10
256.785
 20
9.16534
 30
0.0
 11
256.933
 21
10.0928
 31
0.0
  0
LINE
  8
0
 62
     0
 10
256.933
 20
10.0928
 30
0.0
 11
256.785
 21
11.0188
 31
0.0
  0
LINE
  8
0
 62
     0
 10
256.785
 20
11.0188
 30
0.0
 11
256.359
 21
11.8553
 31
0.0
  0
LINE
  8
0
 62
     0
 10
256.359
 20
11.8553
 30
0.0
 11
255.697
 21
12.5195
 31
0.0
  0
LINE
  8
0
 62
     0
 10
255.697
 20
12.5195
 30
0.0
 11
254.86
 21
12.9453
 31
0.0
  0
LINE
  8
0
 62
     0
 10
254.86
 20
12.9453
 30
0.0
 11
253.933
 21
13.0927
 31
0.0
  0
LINE
  8
0
 62
     0
 10
253.933
 20
13.0927
 30
0.0
 11
253.005
 21
12.9453
 31
0.0
  0
LINE
  8
0
 62
     0
 10
9.16672
 20
12.9453
 30
0.0
 11
8.33025
 21
12.5195
 31
0.0
  0
LINE
  8
0
 62
     0
 10
8.33025
 20
12.5195
 30
0.0
 11
7.66741
 21
11.8553
 31
0.0
  0
LINE
  8
0
 62
     0
 10
7.66741
 20
11.8553
 30
0.0
 11
7.2402
 21
11.0188
 31
0.0
  0
LINE
  8
0
 62
     0
 10
7.2402
 20
11.0188
 30
0.0
 11
7.09415
 21
10.0928
 31
0.0
  0
LINE
  8
0
 62
     0
 10
7.09415
 20
10.0928
 30
0.0
 11
7.2402
 21
9.16534
 31
0.0
  0
LINE
  8
0
 62
     0
 10
7.2402
 20
9.16534
 30
0.0
 11
7.66741
 21
8.32887
 31
0.0
  0
LINE
  8
0
 62
     0
 10
7.66741
 20
8.32887
 30
0.0
 11
8.33025
 21
7.66604
 31
0.0
  0
LINE
  8
0
 62
     0
 10
8.33025
 20
7.66604
 30
0.0
 11
9.16672
 21
7.23882
 31
0.0
  0
LINE
  8
0
 62
     0
 10
9.16672
 20
7.23882
 30
0.0
 11
10.0941
 21
7.09277
 31
0.0
  0
LINE
  8
0
 62
     0
 10
10.0941
 20
7.09277
 30
0.0
 11
11.0216
 21
7.23882
 31
0.0
  0
LINE
  8
0
 62
     0
 10
11.0216
 20
7.23882
 30
0.0
 11
11.858
 21
7.66604
 31
0.0
  0
LINE
  8
0
 62
     0
 10
11.858
 20
7.66604
 30
0.0
 11
12.5222
 21
8.32887
 31
0.0
  0
LINE
  8
0
 62
     0
 10
12.5222
 20
8.32887
 30
0.0
 11
12.948
 21
9.16534
 31
0.0
  0
LINE
  8
0
 62
     0
 10
12.948
 20
9.16534
 30
0.0
 11
13.0941
 21
10.0928
 31
0.0
  0
LINE
  8
0
 62
     0
 10
13.0941
 20
10.0928
 30
0.0
 11
12.948
 21
11.0188
 31
0.0
  0
LINE
  8
0
 62
     0
 10
12.948
 20
11.0188
 30
0.0
 11
12.5222
 21
11.8553
 31
0.0
  0
LINE
  8
0
 62
     0
 10
12.5222
 20
11.8553
 30
0.0
 11
11.858
 21
12.5195
 31
0.0
  0
LINE
  8
0
 62
     0
 10
11.858
 20
12.5195
 30
0.0
 11
11.0216
 21
12.9453
 31
0.0
  0
LINE
  8
0
 62
     0
 10
11.0216
 20
12.9453
 30
0.0
 11
10.0941
 21
13.0927
 31
0.0
  0
LINE
  8
0
 62
     0
 10
10.0941
 20
13.0927
 30
0.0
 11
9.16672
 21
12.9453
 31
0.0
  0
LINE
  8
0
 62
     0
 10
39.2878
 20
36.6187
 30
0.0
 11
39.2878
 21
35.6182
 31
0.0
  0
LINE
  8
0
 62
     0
 10
39.2878
 20
35.6182
 30
0.0
 11
38.4873
 21
35.6182
 31
0.0
  0
LINE
  8
0
 62
     0
 10
38.4873
 20
35.6182
 30
0.0
 11
38.4873
 21
32.519
 31
0.0
  0
LINE
  8
0
 62
     0
 10
38.4873
 20
32.519
 30
0.0
 11
39.2878
 21
32.519
 31
0.0
  0
LINE
  8
0
 62
     0
 10
39.2878
 20
32.519
 30
0.0
 11
39.2878
 21
31.9181
 31
0.0
  0
LINE
  8
0
 62
     0
 10
39.2878
 20
31.9181
 30
0.0
 11
37.7624
 21
31.9181
 31
0.0
  0
LINE
  8
0
 62
     0
 10
37.7624
 20
31.9181
 30
0.0
 11
37.7624
 21
35.1482
 31
0.0
  0
LINE
  8
0
 62
     0
 10
37.7624
 20
35.1482
 30
0.0
 11
36.037
 21
35.1482
 31
0.0
  0
LINE
  8
0
 62
     0
 10
36.037
 20
35.1482
 30
0.0
 11
36.037
 21
36.0701
 31
0.0
  0
LINE
  8
0
 62
     0
 10
36.037
 20
36.0701
 30
0.0
 11
32.7381
 21
36.0701
 31
0.0
  0
LINE
  8
0
 62
     0
 10
32.7381
 20
36.0701
 30
0.0
 11
32.7381
 21
35.1482
 31
0.0
  0
LINE
  8
0
 62
     0
 10
32.7381
 20
35.1482
 30
0.0
 11
31.0128
 21
35.1482
 31
0.0
  0
LINE
  8
0
 62
     0
 10
31.0128
 20
35.1482
 30
0.0
 11
31.0128
 21
31.9181
 31
0.0
  0
LINE
  8
0
 62
     0
 10
31.0128
 20
31.9181
 30
0.0
 11
30.1873
 21
31.9181
 31
0.0
  0
LINE
  8
0
 62
     0
 10
30.1873
 20
31.9181
 30
0.0
 11
30.1873
 21
29.118
 31
0.0
  0
LINE
  8
0
 62
     0
 10
30.1873
 20
29.118
 30
0.0
 11
31.0128
 21
29.118
 31
0.0
  0
LINE
  8
0
 62
     0
 10
31.0128
 20
29.118
 30
0.0
 11
31.0128
 21
22.8479
 31
0.0
  0
LINE
  8
0
 62
     0
 10
31.0128
 20
22.8479
 30
0.0
 11
32.7381
 21
22.8479
 31
0.0
  0
LINE
  8
0
 62
     0
 10
32.7381
 20
22.8479
 30
0.0
 11
32.7381
 21
21.8681
 31
0.0
  0
LINE
  8
0
 62
     0
 10
32.7381
 20
21.8681
 30
0.0
 11
36.037
 21
21.8681
 31
0.0
  0
LINE
  8
0
 62
     0
 10
36.037
 20
21.8681
 30
0.0
 11
36.037
 21
22.8479
 31
0.0
  0
LINE
  8
0
 62
     0
 10
36.037
 20
22.8479
 30
0.0
 11
37.7624
 21
22.8479
 31
0.0
  0
LINE
  8
0
 62
     0
 10
37.7624
 20
22.8479
 30
0.0
 11
37.7624
 21
27.3182
 31
0.0
  0
LINE
  8
0
 62
     0
 10
37.7624
 20
27.3182
 30
0.0
 11
39.2878
 21
27.3182
 31
0.0
  0
LINE
  8
0
 62
     0
 10
39.2878
 20
27.3182
 30
0.0
 11
39.2878
 21
26.7188
 31
0.0
  0
LINE
  8
0
 62
     0
 10
39.2878
 20
26.7188
 30
0.0
 11
38.4873
 21
26.7188
 31
0.0
  0
LINE
  8
0
 62
     0
 10
38.4873
 20
26.7188
 30
0.0
 11
38.4873
 21
23.6182
 31
0.0
  0
LINE
  8
0
 62
     0
 10
38.4873
 20
23.6182
 30
0.0
 11
39.2878
 21
23.6182
 31
0.0
  0
LINE
  8
0
 62
     0
 10
39.2878
 20
23.6182
 30
0.0
 11
39.2878
 21
22.6191
 31
0.0
  0
LINE
  8
0
 62
     0
 10
39.2878
 20
22.6191
 30
0.0
 11
53.2874
 21
22.6191
 31
0.0
  0
LINE
  8
0
 62
     0
 10
53.2874
 20
22.6191
 30
0.0
 11
53.2874
 21
23.6182
 31
0.0
  0
LINE
  8
0
 62
     0
 10
53.2874
 20
23.6182
 30
0.0
 11
54.0879
 21
23.6182
 31
0.0
  0
LINE
  8
0
 62
     0
 10
54.0879
 20
23.6182
 30
0.0
 11
54.0879
 21
26.7188
 31
0.0
  0
LINE
  8
0
 62
     0
 10
54.0879
 20
26.7188
 30
0.0
 11
53.2874
 21
26.7188
 31
0.0
  0
LINE
  8
0
 62
     0
 10
53.2874
 20
26.7188
 30
0.0
 11
53.2874
 21
27.3182
 31
0.0
  0
LINE
  8
0
 62
     0
 10
53.2874
 20
27.3182
 30
0.0
 11
54.8128
 21
27.3182
 31
0.0
  0
LINE
  8
0
 62
     0
 10
54.8128
 20
27.3182
 30
0.0
 11
54.8128
 21
22.8479
 31
0.0
  0
LINE
  8
0
 62
     0
 10
54.8128
 20
22.8479
 30
0.0
 11
56.5383
 21
22.8479
 31
0.0
  0
LINE
  8
0
 62
     0
 10
56.5383
 20
22.8479
 30
0.0
 11
56.5383
 21
21.8681
 31
0.0
  0
LINE
  8
0
 62
     0
 10
56.5383
 20
21.8681
 30
0.0
 11
59.8371
 21
21.8681
 31
0.0
  0
LINE
  8
0
 62
     0
 10
59.8371
 20
21.8681
 30
0.0
 11
59.8371
 21
22.8479
 31
0.0
  0
LINE
  8
0
 62
     0
 10
59.8371
 20
22.8479
 30
0.0
 11
61.5625
 21
22.8479
 31
0.0
  0
LINE
  8
0
 62
     0
 10
61.5625
 20
22.8479
 30
0.0
 11
61.5625
 21
29.118
 31
0.0
  0
LINE
  8
0
 62
     0
 10
61.5625
 20
29.118
 30
0.0
 11
62.388
 21
29.118
 31
0.0
  0
LINE
  8
0
 62
     0
 10
62.388
 20
29.118
 30
0.0
 11
62.388
 21
31.9181
 31
0.0
  0
LINE
  8
0
 62
     0
 10
62.388
 20
31.9181
 30
0.0
 11
61.5625
 21
31.9181
 31
0.0
  0
LINE
  8
0
 62
     0
 10
61.5625
 20
31.9181
 30
0.0
 11
61.5625
 21
35.1482
 31
0.0
  0
LINE
  8
0
 62
     0
 10
61.5625
 20
35.1482
 30
0.0
 11
59.8371
 21
35.1482
 31
0.0
  0
LINE
  8
0
 62
     0
 10
59.8371
 20
35.1482
 30
0.0
 11
59.8371
 21
36.0701
 31
0.0
  0
LINE
  8
0
 62
     0
 10
59.8371
 20
36.0701
 30
0.0
 11
56.5383
 21
36.0701
 31
0.0
  0
LINE
  8
0
 62
     0
 10
56.5383
 20
36.0701
 30
0.0
 11
56.5383
 21
35.1482
 31
0.0
  0
LINE
  8
0
 62
     0
 10
56.5383
 20
35.1482
 30
0.0
 11
54.8128
 21
35.1482
 31
0.0
  0
LINE
  8
0
 62
     0
 10
54.8128
 20
35.1482
 30
0.0
 11
54.8128
 21
31.9181
 31
0.0
  0
LINE
  8
0
 62
     0
 10
54.8128
 20
31.9181
 30
0.0
 11
53.2874
 21
31.9181
 31
0.0
  0
LINE
  8
0
 62
     0
 10
53.2874
 20
31.9181
 30
0.0
 11
53.2874
 21
32.519
 31
0.0
  0
LINE
  8
0
 62
     0
 10
53.2874
 20
32.519
 30
0.0
 11
54.0879
 21
32.519
 31
0.0
  0
LINE
  8
0
 62
     0
 10
54.0879
 20
32.519
 30
0.0
 11
54.0879
 21
35.6182
 31
0.0
  0
LINE
  8
0
 62
     0
 10
54.0879
 20
35.6182
 30
0.0
 11
53.2874
 21
35.6182
 31
0.0
  0
LINE
  8
0
 62
     0
 10
53.2874
 20
35.6182
 30
0.0
 11
53.2874
 21
36.6187
 31
0.0
  0
LINE
  8
0
 62
     0
 10
53.2874
 20
36.6187
 30
0.0
 11
39.2878
 21
36.6187
 31
0.0
  0
LINE
  8
0
 62
     0
 10
79.7691
 20
36.6187
 30
0.0
 11
79.7691
 21
35.6182
 31
0.0
  0
LINE
  8
0
 62
     0
 10
79.7691
 20
35.6182
 30
0.0
 11
78.97
 21
35.6182
 31
0.0
  0
LINE
  8
0
 62
     0
 10
78.97
 20
35.6182
 30
0.0
 11
78.97
 21
32.519
 31
0.0
  0
LINE
  8
0
 62
     0
 10
78.97
 20
32.519
 30
0.0
 11
79.7691
 21
32.519
 31
0.0
  0
LINE
  8
0
 62
     0
 10
79.7691
 20
32.519
 30
0.0
 11
79.7691
 21
26.7188
 31
0.0
  0
LINE
  8
0
 62
     0
 10
79.7691
 20
26.7188
 30
0.0
 11
78.97
 21
26.7188
 31
0.0
  0
LINE
  8
0
 62
     0
 10
78.97
 20
26.7188
 30
0.0
 11
78.97
 21
23.6182
 31
0.0
  0
LINE
  8
0
 62
     0
 10
78.97
 20
23.6182
 30
0.0
 11
79.7691
 21
23.6182
 31
0.0
  0
LINE
  8
0
 62
     0
 10
79.7691
 20
23.6182
 30
0.0
 11
79.7691
 21
22.6191
 31
0.0
  0
LINE
  8
0
 62
     0
 10
79.7691
 20
22.6191
 30
0.0
 11
93.7701
 21
22.6191
 31
0.0
  0
LINE
  8
0
 62
     0
 10
93.7701
 20
22.6191
 30
0.0
 11
93.7701
 21
23.6182
 31
0.0
  0
LINE
  8
0
 62
     0
 10
93.7701
 20
23.6182
 30
0.0
 11
94.5691
 21
23.6182
 31
0.0
  0
LINE
  8
0
 62
     0
 10
94.5691
 20
23.6182
 30
0.0
 11
94.5691
 21
26.7188
 31
0.0
  0
LINE
  8
0
 62
     0
 10
94.5691
 20
26.7188
 30
0.0
 11
93.7701
 21
26.7188
 31
0.0
  0
LINE
  8
0
 62
     0
 10
93.7701
 20
26.7188
 30
0.0
 11
93.7701
 21
32.519
 31
0.0
  0
LINE
  8
0
 62
     0
 10
93.7701
 20
32.519
 30
0.0
 11
94.5691
 21
32.519
 31
0.0
  0
LINE
  8
0
 62
     0
 10
94.5691
 20
32.519
 30
0.0
 11
94.5691
 21
35.6182
 31
0.0
  0
LINE
  8
0
 62
     0
 10
94.5691
 20
35.6182
 30
0.0
 11
93.7701
 21
35.6182
 31
0.0
  0
LINE
  8
0
 62
     0
 10
93.7701
 20
35.6182
 30
0.0
 11
93.7701
 21
36.6187
 31
0.0
  0
LINE
  8
0
 62
     0
 10
93.7701
 20
36.6187
 30
0.0
 11
79.7691
 21
36.6187
 31
0.0
  0
LINE
  8
0
 62
     0
 10
105.963
 20
36.6187
 30
0.0
 11
105.963
 21
35.6182
 31
0.0
  0
LINE
  8
0
 62
     0
 10
105.963
 20
35.6182
 30
0.0
 11
105.162
 21
35.6182
 31
0.0
  0
LINE
  8
0
 62
     0
 10
105.162
 20
35.6182
 30
0.0
 11
105.162
 21
32.519
 31
0.0
  0
LINE
  8
0
 62
     0
 10
105.162
 20
32.519
 30
0.0
 11
105.963
 21
32.519
 31
0.0
  0
LINE
  8
0
 62
     0
 10
105.963
 20
32.519
 30
0.0
 11
105.963
 21
26.7188
 31
0.0
  0
LINE
  8
0
 62
     0
 10
105.963
 20
26.7188
 30
0.0
 11
105.162
 21
26.7188
 31
0.0
  0
LINE
  8
0
 62
     0
 10
105.162
 20
26.7188
 30
0.0
 11
105.162
 21
23.6182
 31
0.0
  0
LINE
  8
0
 62
     0
 10
105.162
 20
23.6182
 30
0.0
 11
105.963
 21
23.6182
 31
0.0
  0
LINE
  8
0
 62
     0
 10
105.963
 20
23.6182
 30
0.0
 11
105.963
 21
22.6191
 31
0.0
  0
LINE
  8
0
 62
     0
 10
105.963
 20
22.6191
 30
0.0
 11
119.962
 21
22.6191
 31
0.0
  0
LINE
  8
0
 62
     0
 10
119.962
 20
22.6191
 30
0.0
 11
119.962
 21
23.6182
 31
0.0
  0
LINE
  8
0
 62
     0
 10
119.962
 20
23.6182
 30
0.0
 11
120.763
 21
23.6182
 31
0.0
  0
LINE
  8
0
 62
     0
 10
120.763
 20
23.6182
 30
0.0
 11
120.763
 21
26.7188
 31
0.0
  0
LINE
  8
0
 62
     0
 10
120.763
 20
26.7188
 30
0.0
 11
119.962
 21
26.7188
 31
0.0
  0
LINE
  8
0
 62
     0
 10
119.962
 20
26.7188
 30
0.0
 11
119.962
 21
32.519
 31
0.0
  0
LINE
  8
0
 62
     0
 10
119.962
 20
32.519
 30
0.0
 11
120.763
 21
32.519
 31
0.0
  0
LINE
  8
0
 62
     0
 10
120.763
 20
32.519
 30
0.0
 11
120.763
 21
35.6182
 31
0.0
  0
LINE
  8
0
 62
     0
 10
120.763
 20
35.6182
 30
0.0
 11
119.962
 21
35.6182
 31
0.0
  0
LINE
  8
0
 62
     0
 10
119.962
 20
35.6182
 30
0.0
 11
119.962
 21
36.6187
 31
0.0
  0
LINE
  8
0
 62
     0
 10
119.962
 20
36.6187
 30
0.0
 11
105.963
 21
36.6187
 31
0.0
  0
LINE
  8
0
 62
     0
 10
132.157
 20
36.6187
 30
0.0
 11
132.157
 21
35.6182
 31
0.0
  0
LINE
  8
0
 62
     0
 10
132.157
 20
35.6182
 30
0.0
 11
131.358
 21
35.6182
 31
0.0
  0
LINE
  8
0
 62
     0
 10
131.358
 20
35.6182
 30
0.0
 11
131.358
 21
32.519
 31
0.0
  0
LINE
  8
0
 62
     0
 10
131.358
 20
32.519
 30
0.0
 11
132.157
 21
32.519
 31
0.0
  0
LINE
  8
0
 62
     0
 10
132.157
 20
32.519
 30
0.0
 11
132.157
 21
26.7188
 31
0.0
  0
LINE
  8
0
 62
     0
 10
132.157
 20
26.7188
 30
0.0
 11
131.358
 21
26.7188
 31
0.0
  0
LINE
  8
0
 62
     0
 10
131.358
 20
26.7188
 30
0.0
 11
131.358
 21
23.6182
 31
0.0
  0
LINE
  8
0
 62
     0
 10
131.358
 20
23.6182
 30
0.0
 11
132.157
 21
23.6182
 31
0.0
  0
LINE
  8
0
 62
     0
 10
132.157
 20
23.6182
 30
0.0
 11
132.157
 21
22.6191
 31
0.0
  0
LINE
  8
0
 62
     0
 10
132.157
 20
22.6191
 30
0.0
 11
146.156
 21
22.6191
 31
0.0
  0
LINE
  8
0
 62
     0
 10
146.156
 20
22.6191
 30
0.0
 11
146.156
 21
23.6182
 31
0.0
  0
LINE
  8
0
 62
     0
 10
146.156
 20
23.6182
 30
0.0
 11
146.957
 21
23.6182
 31
0.0
  0
LINE
  8
0
 62
     0
 10
146.957
 20
23.6182
 30
0.0
 11
146.957
 21
26.7188
 31
0.0
  0
LINE
  8
0
 62
     0
 10
146.957
 20
26.7188
 30
0.0
 11
146.156
 21
26.7188
 31
0.0
  0
LINE
  8
0
 62
     0
 10
146.156
 20
26.7188
 30
0.0
 11
146.156
 21
32.519
 31
0.0
  0
LINE
  8
0
 62
     0
 10
146.156
 20
32.519
 30
0.0
 11
146.957
 21
32.519
 31
0.0
  0
LINE
  8
0
 62
     0
 10
146.957
 20
32.519
 30
0.0
 11
146.957
 21
35.6182
 31
0.0
  0
LINE
  8
0
 62
     0
 10
146.957
 20
35.6182
 30
0.0
 11
146.156
 21
35.6182
 31
0.0
  0
LINE
  8
0
 62
     0
 10
146.156
 20
35.6182
 30
0.0
 11
146.156
 21
36.6187
 31
0.0
  0
LINE
  8
0
 62
     0
 10
146.156
 20
36.6187
 30
0.0
 11
132.157
 21
36.6187
 31
0.0
  0
LINE
  8
0
 62
     0
 10
158.35
 20
36.6187
 30
0.0
 11
158.35
 21
35.6182
 31
0.0
  0
LINE
  8
0
 62
     0
 10
158.35
 20
35.6182
 30
0.0
 11
157.551
 21
35.6182
 31
0.0
  0
LINE
  8
0
 62
     0
 10
157.551
 20
35.6182
 30
0.0
 11
157.551
 21
32.519
 31
0.0
  0
LINE
  8
0
 62
     0
 10
157.551
 20
32.519
 30
0.0
 11
158.35
 21
32.519
 31
0.0
  0
LINE
  8
0
 62
     0
 10
158.35
 20
32.519
 30
0.0
 11
158.35
 21
26.7188
 31
0.0
  0
LINE
  8
0
 62
     0
 10
158.35
 20
26.7188
 30
0.0
 11
157.551
 21
26.7188
 31
0.0
  0
LINE
  8
0
 62
     0
 10
157.551
 20
26.7188
 30
0.0
 11
157.551
 21
23.6182
 31
0.0
  0
LINE
  8
0
 62
     0
 10
157.551
 20
23.6182
 30
0.0
 11
158.35
 21
23.6182
 31
0.0
  0
LINE
  8
0
 62
     0
 10
158.35
 20
23.6182
 30
0.0
 11
158.35
 21
22.6191
 31
0.0
  0
LINE
  8
0
 62
     0
 10
158.35
 20
22.6191
 30
0.0
 11
172.351
 21
22.6191
 31
0.0
  0
LINE
  8
0
 62
     0
 10
172.351
 20
22.6191
 30
0.0
 11
172.351
 21
23.6182
 31
0.0
  0
LINE
  8
0
 62
     0
 10
172.351
 20
23.6182
 30
0.0
 11
173.15
 21
23.6182
 31
0.0
  0
LINE
  8
0
 62
     0
 10
173.15
 20
23.6182
 30
0.0
 11
173.15
 21
26.7188
 31
0.0
  0
LINE
  8
0
 62
     0
 10
173.15
 20
26.7188
 30
0.0
 11
172.351
 21
26.7188
 31
0.0
  0
LINE
  8
0
 62
     0
 10
172.351
 20
26.7188
 30
0.0
 11
172.351
 21
32.519
 31
0.0
  0
LINE
  8
0
 62
     0
 10
172.351
 20
32.519
 30
0.0
 11
173.15
 21
32.519
 31
0.0
  0
LINE
  8
0
 62
     0
 10
173.15
 20
32.519
 30
0.0
 11
173.15
 21
35.6182
 31
0.0
  0
LINE
  8
0
 62
     0
 10
173.15
 20
35.6182
 30
0.0
 11
172.351
 21
35.6182
 31
0.0
  0
LINE
  8
0
 62
     0
 10
172.351
 20
35.6182
 30
0.0
 11
172.351
 21
36.6187
 31
0.0
  0
LINE
  8
0
 62
     0
 10
172.351
 20
36.6187
 30
0.0
 11
158.35
 21
36.6187
 31
0.0
  0
LINE
  8
0
 62
     0
 10
189.307
 20
46.1437
 30
0.0
 11
189.307
 21
45.1432
 31
0.0
  0
LINE
  8
0
 62
     0
 10
189.307
 20
45.1432
 30
0.0
 11
188.508
 21
45.1432
 31
0.0
  0
LINE
  8
0
 62
     0
 10
188.508
 20
45.1432
 30
0.0
 11
188.508
 21
42.0441
 31
0.0
  0
LINE
  8
0
 62
     0
 10
188.508
 20
42.0441
 30
0.0
 11
189.307
 21
42.0441
 31
0.0
  0
LINE
  8
0
 62
     0
 10
189.307
 20
42.0441
 30
0.0
 11
189.307
 21
36.2437
 31
0.0
  0
LINE
  8
0
 62
     0
 10
189.307
 20
36.2437
 30
0.0
 11
188.508
 21
36.2437
 31
0.0
  0
LINE
  8
0
 62
     0
 10
188.508
 20
36.2437
 30
0.0
 11
188.508
 21
33.1432
 31
0.0
  0
LINE
  8
0
 62
     0
 10
188.508
 20
33.1432
 30
0.0
 11
189.307
 21
33.1432
 31
0.0
  0
LINE
  8
0
 62
     0
 10
189.307
 20
33.1432
 30
0.0
 11
189.307
 21
32.1441
 31
0.0
  0
LINE
  8
0
 62
     0
 10
189.307
 20
32.1441
 30
0.0
 11
203.306
 21
32.1441
 31
0.0
  0
LINE
  8
0
 62
     0
 10
203.306
 20
32.1441
 30
0.0
 11
203.306
 21
33.1432
 31
0.0
  0
LINE
  8
0
 62
     0
 10
203.306
 20
33.1432
 30
0.0
 11
204.107
 21
33.1432
 31
0.0
  0
LINE
  8
0
 62
     0
 10
204.107
 20
33.1432
 30
0.0
 11
204.107
 21
36.2437
 31
0.0
  0
LINE
  8
0
 62
     0
 10
204.107
 20
36.2437
 30
0.0
 11
203.306
 21
36.2437
 31
0.0
  0
LINE
  8
0
 62
     0
 10
203.306
 20
36.2437
 30
0.0
 11
203.306
 21
42.0441
 31
0.0
  0
LINE
  8
0
 62
     0
 10
203.306
 20
42.0441
 30
0.0
 11
204.107
 21
42.0441
 31
0.0
  0
LINE
  8
0
 62
     0
 10
204.107
 20
42.0441
 30
0.0
 11
204.107
 21
45.1432
 31
0.0
  0
LINE
  8
0
 62
     0
 10
204.107
 20
45.1432
 30
0.0
 11
203.306
 21
45.1432
 31
0.0
  0
LINE
  8
0
 62
     0
 10
203.306
 20
45.1432
 30
0.0
 11
203.306
 21
46.1437
 31
0.0
  0
LINE
  8
0
 62
     0
 10
203.306
 20
46.1437
 30
0.0
 11
189.307
 21
46.1437
 31
0.0
  0
LINE
  8
0
 62
     0
 10
208.357
 20
46.1437
 30
0.0
 11
208.357
 21
45.1432
 31
0.0
  0
LINE
  8
0
 62
     0
 10
208.357
 20
45.1432
 30
0.0
 11
207.558
 21
45.1432
 31
0.0
  0
LINE
  8
0
 62
     0
 10
207.558
 20
45.1432
 30
0.0
 11
207.558
 21
42.0441
 31
0.0
  0
LINE
  8
0
 62
     0
 10
207.558
 20
42.0441
 30
0.0
 11
208.357
 21
42.0441
 31
0.0
  0
LINE
  8
0
 62
     0
 10
208.357
 20
42.0441
 30
0.0
 11
208.357
 21
36.2437
 31
0.0
  0
LINE
  8
0
 62
     0
 10
208.357
 20
36.2437
 30
0.0
 11
207.558
 21
36.2437
 31
0.0
  0
LINE
  8
0
 62
     0
 10
207.558
 20
36.2437
 30
0.0
 11
207.558
 21
33.1432
 31
0.0
  0
LINE
  8
0
 62
     0
 10
207.558
 20
33.1432
 30
0.0
 11
208.357
 21
33.1432
 31
0.0
  0
LINE
  8
0
 62
     0
 10
208.357
 20
33.1432
 30
0.0
 11
208.357
 21
32.1441
 31
0.0
  0
LINE
  8
0
 62
     0
 10
208.357
 20
32.1441
 30
0.0
 11
222.356
 21
32.1441
 31
0.0
  0
LINE
  8
0
 62
     0
 10
222.356
 20
32.1441
 30
0.0
 11
222.356
 21
33.1432
 31
0.0
  0
LINE
  8
0
 62
     0
 10
222.356
 20
33.1432
 30
0.0
 11
223.157
 21
33.1432
 31
0.0
  0
LINE
  8
0
 62
     0
 10
223.157
 20
33.1432
 30
0.0
 11
223.157
 21
36.2437
 31
0.0
  0
LINE
  8
0
 62
     0
 10
223.157
 20
36.2437
 30
0.0
 11
222.356
 21
36.2437
 31
0.0
  0
LINE
  8
0
 62
     0
 10
222.356
 20
36.2437
 30
0.0
 11
222.356
 21
42.0441
 31
0.0
  0
LINE
  8
0
 62
     0
 10
222.356
 20
42.0441
 30
0.0
 11
223.157
 21
42.0441
 31
0.0
  0
LINE
  8
0
 62
     0
 10
223.157
 20
42.0441
 30
0.0
 11
223.157
 21
45.1432
 31
0.0
  0
LINE
  8
0
 62
     0
 10
223.157
 20
45.1432
 30
0.0
 11
222.356
 21
45.1432
 31
0.0
  0
LINE
  8
0
 62
     0
 10
222.356
 20
45.1432
 30
0.0
 11
222.356
 21
46.1437
 31
0.0
  0
LINE
  8
0
 62
     0
 10
222.356
 20
46.1437
 30
0.0
 11
208.357
 21
46.1437
 31
0.0
  0
LINE
  8
0
 62
     0
 10
227.407
 20
46.1437
 30
0.0
 11
227.407
 21
45.1432
 31
0.0
  0
LINE
  8
0
 62
     0
 10
227.407
 20
45.1432
 30
0.0
 11
226.608
 21
45.1432
 31
0.0
  0
LINE
  8
0
 62
     0
 10
226.608
 20
45.1432
 30
0.0
 11
226.608
 21
42.0441
 31
0.0
  0
LINE
  8
0
 62
     0
 10
226.608
 20
42.0441
 30
0.0
 11
227.407
 21
42.0441
 31
0.0
  0
LINE
  8
0
 62
     0
 10
227.407
 20
42.0441
 30
0.0
 11
227.407
 21
36.2437
 31
0.0
  0
LINE
  8
0
 62
     0
 10
227.407
 20
36.2437
 30
0.0
 11
226.608
 21
36.2437
 31
0.0
  0
LINE
  8
0
 62
     0
 10
226.608
 20
36.2437
 30
0.0
 11
226.608
 21
33.1432
 31
0.0
  0
LINE
  8
0
 62
     0
 10
226.608
 20
33.1432
 30
0.0
 11
227.407
 21
33.1432
 31
0.0
  0
LINE
  8
0
 62
     0
 10
227.407
 20
33.1432
 30
0.0
 11
227.407
 21
32.1441
 31
0.0
  0
LINE
  8
0
 62
     0
 10
227.407
 20
32.1441
 30
0.0
 11
241.406
 21
32.1441
 31
0.0
  0
LINE
  8
0
 62
     0
 10
241.406
 20
32.1441
 30
0.0
 11
241.406
 21
33.1432
 31
0.0
  0
LINE
  8
0
 62
     0
 10
241.406
 20
33.1432
 30
0.0
 11
242.207
 21
33.1432
 31
0.0
  0
LINE
  8
0
 62
     0
 10
242.207
 20
33.1432
 30
0.0
 11
242.207
 21
36.2437
 31
0.0
  0
LINE
  8
0
 62
     0
 10
242.207
 20
36.2437
 30
0.0
 11
241.406
 21
36.2437
 31
0.0
  0
LINE
  8
0
 62
     0
 10
241.406
 20
36.2437
 30
0.0
 11
241.406
 21
42.0441
 31
0.0
  0
LINE
  8
0
 62
     0
 10
241.406
 20
42.0441
 30
0.0
 11
242.207
 21
42.0441
 31
0.0
  0
LINE
  8
0
 62
     0
 10
242.207
 20
42.0441
 30
0.0
 11
242.207
 21
45.1432
 31
0.0
  0
LINE
  8
0
 62
     0
 10
242.207
 20
45.1432
 30
0.0
 11
241.406
 21
45.1432
 31
0.0
  0
LINE
  8
0
 62
     0
 10
241.406
 20
45.1432
 30
0.0
 11
241.406
 21
46.1437
 31
0.0
  0
LINE
  8
0
 62
     0
 10
241.406
 20
46.1437
 30
0.0
 11
227.407
 21
46.1437
 31
0.0
  0
LINE
  8
0
 62
     0
 10
144.063
 20
55.6687
 30
0.0
 11
144.063
 21
54.6682
 31
0.0
  0
LINE
  8
0
 62
     0
 10
144.063
 20
54.6682
 30
0.0
 11
143.262
 21
54.6682
 31
0.0
  0
LINE
  8
0
 62
     0
 10
143.262
 20
54.6682
 30
0.0
 11
143.262
 21
51.5691
 31
0.0
  0
LINE
  8
0
 62
     0
 10
143.262
 20
51.5691
 30
0.0
 11
144.063
 21
51.5691
 31
0.0
  0
LINE
  8
0
 62
     0
 10
144.063
 20
51.5691
 30
0.0
 11
144.063
 21
50.9683
 31
0.0
  0
LINE
  8
0
 62
     0
 10
144.063
 20
50.9683
 30
0.0
 11
142.537
 21
50.9683
 31
0.0
  0
LINE
  8
0
 62
     0
 10
142.537
 20
50.9683
 30
0.0
 11
142.537
 21
54.1983
 31
0.0
  0
LINE
  8
0
 62
     0
 10
142.537
 20
54.1983
 30
0.0
 11
140.812
 21
54.1983
 31
0.0
  0
LINE
  8
0
 62
     0
 10
140.812
 20
54.1983
 30
0.0
 11
140.812
 21
55.1187
 31
0.0
  0
LINE
  8
0
 62
     0
 10
140.812
 20
55.1187
 30
0.0
 11
137.513
 21
55.1187
 31
0.0
  0
LINE
  8
0
 62
     0
 10
137.513
 20
55.1187
 30
0.0
 11
137.513
 21
54.1983
 31
0.0
  0
LINE
  8
0
 62
     0
 10
137.513
 20
54.1983
 30
0.0
 11
135.788
 21
54.1983
 31
0.0
  0
LINE
  8
0
 62
     0
 10
135.788
 20
54.1983
 30
0.0
 11
135.788
 21
50.9683
 31
0.0
  0
LINE
  8
0
 62
     0
 10
135.788
 20
50.9683
 30
0.0
 11
134.962
 21
50.9683
 31
0.0
  0
LINE
  8
0
 62
     0
 10
134.962
 20
50.9683
 30
0.0
 11
134.962
 21
48.1679
 31
0.0
  0
LINE
  8
0
 62
     0
 10
134.962
 20
48.1679
 30
0.0
 11
135.788
 21
48.1679
 31
0.0
  0
LINE
  8
0
 62
     0
 10
135.788
 20
48.1679
 30
0.0
 11
135.788
 21
41.898
 31
0.0
  0
LINE
  8
0
 62
     0
 10
135.788
 20
41.898
 30
0.0
 11
137.513
 21
41.898
 31
0.0
  0
LINE
  8
0
 62
     0
 10
137.513
 20
41.898
 30
0.0
 11
137.513
 21
40.918
 31
0.0
  0
LINE
  8
0
 62
     0
 10
137.513
 20
40.918
 30
0.0
 11
140.812
 21
40.918
 31
0.0
  0
LINE
  8
0
 62
     0
 10
140.812
 20
40.918
 30
0.0
 11
140.812
 21
41.898
 31
0.0
  0
LINE
  8
0
 62
     0
 10
140.812
 20
41.898
 30
0.0
 11
142.537
 21
41.898
 31
0.0
  0
LINE
  8
0
 62
     0
 10
142.537
 20
41.898
 30
0.0
 11
142.537
 21
46.3684
 31
0.0
  0
LINE
  8
0
 62
     0
 10
142.537
 20
46.3684
 30
0.0
 11
144.063
 21
46.3684
 31
0.0
  0
LINE
  8
0
 62
     0
 10
144.063
 20
46.3684
 30
0.0
 11
144.063
 21
45.7687
 31
0.0
  0
LINE
  8
0
 62
     0
 10
144.063
 20
45.7687
 30
0.0
 11
143.262
 21
45.7687
 31
0.0
  0
LINE
  8
0
 62
     0
 10
143.262
 20
45.7687
 30
0.0
 11
143.262
 21
42.6681
 31
0.0
  0
LINE
  8
0
 62
     0
 10
143.262
 20
42.6681
 30
0.0
 11
144.063
 21
42.6681
 31
0.0
  0
LINE
  8
0
 62
     0
 10
144.063
 20
42.6681
 30
0.0
 11
144.063
 21
41.6691
 31
0.0
  0
LINE
  8
0
 62
     0
 10
144.063
 20
41.6691
 30
0.0
 11
158.062
 21
41.6691
 31
0.0
  0
LINE
  8
0
 62
     0
 10
158.062
 20
41.6691
 30
0.0
 11
158.062
 21
42.6681
 31
0.0
  0
LINE
  8
0
 62
     0
 10
158.062
 20
42.6681
 30
0.0
 11
158.863
 21
42.6681
 31
0.0
  0
LINE
  8
0
 62
     0
 10
158.863
 20
42.6681
 30
0.0
 11
158.863
 21
45.7687
 31
0.0
  0
LINE
  8
0
 62
     0
 10
158.863
 20
45.7687
 30
0.0
 11
158.062
 21
45.7687
 31
0.0
  0
LINE
  8
0
 62
     0
 10
158.062
 20
45.7687
 30
0.0
 11
158.062
 21
46.3684
 31
0.0
  0
LINE
  8
0
 62
     0
 10
158.062
 20
46.3684
 30
0.0
 11
159.588
 21
46.3684
 31
0.0
  0
LINE
  8
0
 62
     0
 10
159.588
 20
46.3684
 30
0.0
 11
159.588
 21
41.898
 31
0.0
  0
LINE
  8
0
 62
     0
 10
159.588
 20
41.898
 30
0.0
 11
161.313
 21
41.898
 31
0.0
  0
LINE
  8
0
 62
     0
 10
161.313
 20
41.898
 30
0.0
 11
161.313
 21
40.918
 31
0.0
  0
LINE
  8
0
 62
     0
 10
161.313
 20
40.918
 30
0.0
 11
164.612
 21
40.918
 31
0.0
  0
LINE
  8
0
 62
     0
 10
164.612
 20
40.918
 30
0.0
 11
164.612
 21
41.898
 31
0.0
  0
LINE
  8
0
 62
     0
 10
164.612
 20
41.898
 30
0.0
 11
166.338
 21
41.898
 31
0.0
  0
LINE
  8
0
 62
     0
 10
166.338
 20
41.898
 30
0.0
 11
166.338
 21
48.1679
 31
0.0
  0
LINE
  8
0
 62
     0
 10
166.338
 20
48.1679
 30
0.0
 11
167.163
 21
48.1679
 31
0.0
  0
LINE
  8
0
 62
     0
 10
167.163
 20
48.1679
 30
0.0
 11
167.163
 21
50.9683
 31
0.0
  0
LINE
  8
0
 62
     0
 10
167.163
 20
50.9683
 30
0.0
 11
166.338
 21
50.9683
 31
0.0
  0
LINE
  8
0
 62
     0
 10
166.338
 20
50.9683
 30
0.0
 11
166.338
 21
54.1983
 31
0.0
  0
LINE
  8
0
 62
     0
 10
166.338
 20
54.1983
 30
0.0
 11
164.612
 21
54.1983
 31
0.0
  0
LINE
  8
0
 62
     0
 10
164.612
 20
54.1983
 30
0.0
 11
164.612
 21
55.1187
 31
0.0
  0
LINE
  8
0
 62
     0
 10
164.612
 20
55.1187
 30
0.0
 11
161.313
 21
55.1187
 31
0.0
  0
LINE
  8
0
 62
     0
 10
161.313
 20
55.1187
 30
0.0
 11
161.313
 21
54.1983
 31
0.0
  0
LINE
  8
0
 62
     0
 10
161.313
 20
54.1983
 30
0.0
 11
159.588
 21
54.1983
 31
0.0
  0
LINE
  8
0
 62
     0
 10
159.588
 20
54.1983
 30
0.0
 11
159.588
 21
50.9683
 31
0.0
  0
LINE
  8
0
 62
     0
 10
159.588
 20
50.9683
 30
0.0
 11
158.062
 21
50.9683
 31
0.0
  0
LINE
  8
0
 62
     0
 10
158.062
 20
50.9683
 30
0.0
 11
158.062
 21
51.5691
 31
0.0
  0
LINE
  8
0
 62
     0
 10
158.062
 20
51.5691
 30
0.0
 11
158.863
 21
51.5691
 31
0.0
  0
LINE
  8
0
 62
     0
 10
158.863
 20
51.5691
 30
0.0
 11
158.863
 21
54.6682
 31
0.0
  0
LINE
  8
0
 62
     0
 10
158.863
 20
54.6682
 30
0.0
 11
158.062
 21
54.6682
 31
0.0
  0
LINE
  8
0
 62
     0
 10
158.062
 20
54.6682
 30
0.0
 11
158.062
 21
55.6687
 31
0.0
  0
LINE
  8
0
 62
     0
 10
158.062
 20
55.6687
 30
0.0
 11
144.063
 21
55.6687
 31
0.0
  0
LINE
  8
0
 62
     0
 10
27.3816
 20
55.6687
 30
0.0
 11
27.3816
 21
54.6682
 31
0.0
  0
LINE
  8
0
 62
     0
 10
27.3816
 20
54.6682
 30
0.0
 11
26.5824
 21
54.6682
 31
0.0
  0
LINE
  8
0
 62
     0
 10
26.5824
 20
54.6682
 30
0.0
 11
26.5824
 21
51.5691
 31
0.0
  0
LINE
  8
0
 62
     0
 10
26.5824
 20
51.5691
 30
0.0
 11
27.3816
 21
51.5691
 31
0.0
  0
LINE
  8
0
 62
     0
 10
27.3816
 20
51.5691
 30
0.0
 11
27.3816
 21
45.7687
 31
0.0
  0
LINE
  8
0
 62
     0
 10
27.3816
 20
45.7687
 30
0.0
 11
26.5824
 21
45.7687
 31
0.0
  0
LINE
  8
0
 62
     0
 10
26.5824
 20
45.7687
 30
0.0
 11
26.5824
 21
42.6681
 31
0.0
  0
LINE
  8
0
 62
     0
 10
26.5824
 20
42.6681
 30
0.0
 11
27.3816
 21
42.6681
 31
0.0
  0
LINE
  8
0
 62
     0
 10
27.3816
 20
42.6681
 30
0.0
 11
27.3816
 21
41.6691
 31
0.0
  0
LINE
  8
0
 62
     0
 10
27.3816
 20
41.6691
 30
0.0
 11
41.3812
 21
41.6691
 31
0.0
  0
LINE
  8
0
 62
     0
 10
41.3812
 20
41.6691
 30
0.0
 11
41.3812
 21
42.6681
 31
0.0
  0
LINE
  8
0
 62
     0
 10
41.3812
 20
42.6681
 30
0.0
 11
42.1816
 21
42.6681
 31
0.0
  0
LINE
  8
0
 62
     0
 10
42.1816
 20
42.6681
 30
0.0
 11
42.1816
 21
45.7687
 31
0.0
  0
LINE
  8
0
 62
     0
 10
42.1816
 20
45.7687
 30
0.0
 11
41.3812
 21
45.7687
 31
0.0
  0
LINE
  8
0
 62
     0
 10
41.3812
 20
45.7687
 30
0.0
 11
41.3812
 21
51.5691
 31
0.0
  0
LINE
  8
0
 62
     0
 10
41.3812
 20
51.5691
 30
0.0
 11
42.1816
 21
51.5691
 31
0.0
  0
LINE
  8
0
 62
     0
 10
42.1816
 20
51.5691
 30
0.0
 11
42.1816
 21
54.6682
 31
0.0
  0
LINE
  8
0
 62
     0
 10
42.1816
 20
54.6682
 30
0.0
 11
41.3812
 21
54.6682
 31
0.0
  0
LINE
  8
0
 62
     0
 10
41.3812
 20
54.6682
 30
0.0
 11
41.3812
 21
55.6687
 31
0.0
  0
LINE
  8
0
 62
     0
 10
41.3812
 20
55.6687
 30
0.0
 11
27.3816
 21
55.6687
 31
0.0
  0
LINE
  8
0
 62
     0
 10
51.1941
 20
55.6687
 30
0.0
 11
51.1941
 21
54.6682
 31
0.0
  0
LINE
  8
0
 62
     0
 10
51.1941
 20
54.6682
 30
0.0
 11
50.395
 21
54.6682
 31
0.0
  0
LINE
  8
0
 62
     0
 10
50.395
 20
54.6682
 30
0.0
 11
50.395
 21
51.5691
 31
0.0
  0
LINE
  8
0
 62
     0
 10
50.395
 20
51.5691
 30
0.0
 11
51.1941
 21
51.5691
 31
0.0
  0
LINE
  8
0
 62
     0
 10
51.1941
 20
51.5691
 30
0.0
 11
51.1941
 21
45.7687
 31
0.0
  0
LINE
  8
0
 62
     0
 10
51.1941
 20
45.7687
 30
0.0
 11
50.395
 21
45.7687
 31
0.0
  0
LINE
  8
0
 62
     0
 10
50.395
 20
45.7687
 30
0.0
 11
50.395
 21
42.6681
 31
0.0
  0
LINE
  8
0
 62
     0
 10
50.395
 20
42.6681
 30
0.0
 11
51.1941
 21
42.6681
 31
0.0
  0
LINE
  8
0
 62
     0
 10
51.1941
 20
42.6681
 30
0.0
 11
51.1941
 21
41.6691
 31
0.0
  0
LINE
  8
0
 62
     0
 10
51.1941
 20
41.6691
 30
0.0
 11
65.1951
 21
41.6691
 31
0.0
  0
LINE
  8
0
 62
     0
 10
65.1951
 20
41.6691
 30
0.0
 11
65.1951
 21
42.6681
 31
0.0
  0
LINE
  8
0
 62
     0
 10
65.1951
 20
42.6681
 30
0.0
 11
65.9941
 21
42.6681
 31
0.0
  0
LINE
  8
0
 62
     0
 10
65.9941
 20
42.6681
 30
0.0
 11
65.9941
 21
45.7687
 31
0.0
  0
LINE
  8
0
 62
     0
 10
65.9941
 20
45.7687
 30
0.0
 11
65.1951
 21
45.7687
 31
0.0
  0
LINE
  8
0
 62
     0
 10
65.1951
 20
45.7687
 30
0.0
 11
65.1951
 21
51.5691
 31
0.0
  0
LINE
  8
0
 62
     0
 10
65.1951
 20
51.5691
 30
0.0
 11
65.9941
 21
51.5691
 31
0.0
  0
LINE
  8
0
 62
     0
 10
65.9941
 20
51.5691
 30
0.0
 11
65.9941
 21
54.6682
 31
0.0
  0
LINE
  8
0
 62
     0
 10
65.9941
 20
54.6682
 30
0.0
 11
65.1951
 21
54.6682
 31
0.0
  0
LINE
  8
0
 62
     0
 10
65.1951
 20
54.6682
 30
0.0
 11
65.1951
 21
55.6687
 31
0.0
  0
LINE
  8
0
 62
     0
 10
65.1951
 20
55.6687
 30
0.0
 11
51.1941
 21
55.6687
 31
0.0
  0
LINE
  8
0
 62
     0
 10
70.2441
 20
55.6687
 30
0.0
 11
70.2441
 21
54.6682
 31
0.0
  0
LINE
  8
0
 62
     0
 10
70.2441
 20
54.6682
 30
0.0
 11
69.445
 21
54.6682
 31
0.0
  0
LINE
  8
0
 62
     0
 10
69.445
 20
54.6682
 30
0.0
 11
69.445
 21
51.5691
 31
0.0
  0
LINE
  8
0
 62
     0
 10
69.445
 20
51.5691
 30
0.0
 11
70.2441
 21
51.5691
 31
0.0
  0
LINE
  8
0
 62
     0
 10
70.2441
 20
51.5691
 30
0.0
 11
70.2441
 21
45.7687
 31
0.0
  0
LINE
  8
0
 62
     0
 10
70.2441
 20
45.7687
 30
0.0
 11
69.445
 21
45.7687
 31
0.0
  0
LINE
  8
0
 62
     0
 10
69.445
 20
45.7687
 30
0.0
 11
69.445
 21
42.6681
 31
0.0
  0
LINE
  8
0
 62
     0
 10
69.445
 20
42.6681
 30
0.0
 11
70.2441
 21
42.6681
 31
0.0
  0
LINE
  8
0
 62
     0
 10
70.2441
 20
42.6681
 30
0.0
 11
70.2441
 21
41.6691
 31
0.0
  0
LINE
  8
0
 62
     0
 10
70.2441
 20
41.6691
 30
0.0
 11
84.2451
 21
41.6691
 31
0.0
  0
LINE
  8
0
 62
     0
 10
84.2451
 20
41.6691
 30
0.0
 11
84.2451
 21
42.6681
 31
0.0
  0
LINE
  8
0
 62
     0
 10
84.2451
 20
42.6681
 30
0.0
 11
85.0441
 21
42.6681
 31
0.0
  0
LINE
  8
0
 62
     0
 10
85.0441
 20
42.6681
 30
0.0
 11
85.0441
 21
45.7687
 31
0.0
  0
LINE
  8
0
 62
     0
 10
85.0441
 20
45.7687
 30
0.0
 11
84.2451
 21
45.7687
 31
0.0
  0
LINE
  8
0
 62
     0
 10
84.2451
 20
45.7687
 30
0.0
 11
84.2451
 21
51.5691
 31
0.0
  0
LINE
  8
0
 62
     0
 10
84.2451
 20
51.5691
 30
0.0
 11
85.0441
 21
51.5691
 31
0.0
  0
LINE
  8
0
 62
     0
 10
85.0441
 20
51.5691
 30
0.0
 11
85.0441
 21
54.6682
 31
0.0
  0
LINE
  8
0
 62
     0
 10
85.0441
 20
54.6682
 30
0.0
 11
84.2451
 21
54.6682
 31
0.0
  0
LINE
  8
0
 62
     0
 10
84.2451
 20
54.6682
 30
0.0
 11
84.2451
 21
55.6687
 31
0.0
  0
LINE
  8
0
 62
     0
 10
84.2451
 20
55.6687
 30
0.0
 11
70.2441
 21
55.6687
 31
0.0
  0
LINE
  8
0
 62
     0
 10
89.2941
 20
55.6687
 30
0.0
 11
89.2941
 21
54.6682
 31
0.0
  0
LINE
  8
0
 62
     0
 10
89.2941
 20
54.6682
 30
0.0
 11
88.495
 21
54.6682
 31
0.0
  0
LINE
  8
0
 62
     0
 10
88.495
 20
54.6682
 30
0.0
 11
88.495
 21
51.5691
 31
0.0
  0
LINE
  8
0
 62
     0
 10
88.495
 20
51.5691
 30
0.0
 11
89.2941
 21
51.5691
 31
0.0
  0
LINE
  8
0
 62
     0
 10
89.2941
 20
51.5691
 30
0.0
 11
89.2941
 21
45.7687
 31
0.0
  0
LINE
  8
0
 62
     0
 10
89.2941
 20
45.7687
 30
0.0
 11
88.495
 21
45.7687
 31
0.0
  0
LINE
  8
0
 62
     0
 10
88.495
 20
45.7687
 30
0.0
 11
88.495
 21
42.6681
 31
0.0
  0
LINE
  8
0
 62
     0
 10
88.495
 20
42.6681
 30
0.0
 11
89.2941
 21
42.6681
 31
0.0
  0
LINE
  8
0
 62
     0
 10
89.2941
 20
42.6681
 30
0.0
 11
89.2941
 21
41.6691
 31
0.0
  0
LINE
  8
0
 62
     0
 10
89.2941
 20
41.6691
 30
0.0
 11
103.295
 21
41.6691
 31
0.0
  0
LINE
  8
0
 62
     0
 10
103.295
 20
41.6691
 30
0.0
 11
103.295
 21
42.6681
 31
0.0
  0
LINE
  8
0
 62
     0
 10
103.295
 20
42.6681
 30
0.0
 11
104.094
 21
42.6681
 31
0.0
  0
LINE
  8
0
 62
     0
 10
104.094
 20
42.6681
 30
0.0
 11
104.094
 21
45.7687
 31
0.0
  0
LINE
  8
0
 62
     0
 10
104.094
 20
45.7687
 30
0.0
 11
103.295
 21
45.7687
 31
0.0
  0
LINE
  8
0
 62
     0
 10
103.295
 20
45.7687
 30
0.0
 11
103.295
 21
51.5691
 31
0.0
  0
LINE
  8
0
 62
     0
 10
103.295
 20
51.5691
 30
0.0
 11
104.094
 21
51.5691
 31
0.0
  0
LINE
  8
0
 62
     0
 10
104.094
 20
51.5691
 30
0.0
 11
104.094
 21
54.6682
 31
0.0
  0
LINE
  8
0
 62
     0
 10
104.094
 20
54.6682
 30
0.0
 11
103.295
 21
54.6682
 31
0.0
  0
LINE
  8
0
 62
     0
 10
103.295
 20
54.6682
 30
0.0
 11
103.295
 21
55.6687
 31
0.0
  0
LINE
  8
0
 62
     0
 10
103.295
 20
55.6687
 30
0.0
 11
89.2941
 21
55.6687
 31
0.0
  0
LINE
  8
0
 62
     0
 10
108.344
 20
55.6687
 30
0.0
 11
108.344
 21
54.6682
 31
0.0
  0
LINE
  8
0
 62
     0
 10
108.344
 20
54.6682
 30
0.0
 11
107.545
 21
54.6682
 31
0.0
  0
LINE
  8
0
 62
     0
 10
107.545
 20
54.6682
 30
0.0
 11
107.545
 21
51.5691
 31
0.0
  0
LINE
  8
0
 62
     0
 10
107.545
 20
51.5691
 30
0.0
 11
108.344
 21
51.5691
 31
0.0
  0
LINE
  8
0
 62
     0
 10
108.344
 20
51.5691
 30
0.0
 11
108.344
 21
45.7687
 31
0.0
  0
LINE
  8
0
 62
     0
 10
108.344
 20
45.7687
 30
0.0
 11
107.545
 21
45.7687
 31
0.0
  0
LINE
  8
0
 62
     0
 10
107.545
 20
45.7687
 30
0.0
 11
107.545
 21
42.6681
 31
0.0
  0
LINE
  8
0
 62
     0
 10
107.545
 20
42.6681
 30
0.0
 11
108.344
 21
42.6681
 31
0.0
  0
LINE
  8
0
 62
     0
 10
108.344
 20
42.6681
 30
0.0
 11
108.344
 21
41.6691
 31
0.0
  0
LINE
  8
0
 62
     0
 10
108.344
 20
41.6691
 30
0.0
 11
122.345
 21
41.6691
 31
0.0
  0
LINE
  8
0
 62
     0
 10
122.345
 20
41.6691
 30
0.0
 11
122.345
 21
42.6681
 31
0.0
  0
LINE
  8
0
 62
     0
 10
122.345
 20
42.6681
 30
0.0
 11
123.144
 21
42.6681
 31
0.0
  0
LINE
  8
0
 62
     0
 10
123.144
 20
42.6681
 30
0.0
 11
123.144
 21
45.7687
 31
0.0
  0
LINE
  8
0
 62
     0
 10
123.144
 20
45.7687
 30
0.0
 11
122.345
 21
45.7687
 31
0.0
  0
LINE
  8
0
 62
     0
 10
122.345
 20
45.7687
 30
0.0
 11
122.345
 21
51.5691
 31
0.0
  0
LINE
  8
0
 62
     0
 10
122.345
 20
51.5691
 30
0.0
 11
123.144
 21
51.5691
 31
0.0
  0
LINE
  8
0
 62
     0
 10
123.144
 20
51.5691
 30
0.0
 11
123.144
 21
54.6682
 31
0.0
  0
LINE
  8
0
 62
     0
 10
123.144
 20
54.6682
 30
0.0
 11
122.345
 21
54.6682
 31
0.0
  0
LINE
  8
0
 62
     0
 10
122.345
 20
54.6682
 30
0.0
 11
122.345
 21
55.6687
 31
0.0
  0
LINE
  8
0
 62
     0
 10
122.345
 20
55.6687
 30
0.0
 11
108.344
 21
55.6687
 31
0.0
  0
LINE
  8
0
 62
     0
 10
208.357
 20
65.1937
 30
0.0
 11
208.357
 21
64.1932
 31
0.0
  0
LINE
  8
0
 62
     0
 10
208.357
 20
64.1932
 30
0.0
 11
207.558
 21
64.1932
 31
0.0
  0
LINE
  8
0
 62
     0
 10
207.558
 20
64.1932
 30
0.0
 11
207.558
 21
61.0941
 31
0.0
  0
LINE
  8
0
 62
     0
 10
207.558
 20
61.0941
 30
0.0
 11
208.357
 21
61.0941
 31
0.0
  0
LINE
  8
0
 62
     0
 10
208.357
 20
61.0941
 30
0.0
 11
208.357
 21
55.2937
 31
0.0
  0
LINE
  8
0
 62
     0
 10
208.357
 20
55.2937
 30
0.0
 11
207.558
 21
55.2937
 31
0.0
  0
LINE
  8
0
 62
     0
 10
207.558
 20
55.2937
 30
0.0
 11
207.558
 21
52.1931
 31
0.0
  0
LINE
  8
0
 62
     0
 10
207.558
 20
52.1931
 30
0.0
 11
208.357
 21
52.1931
 31
0.0
  0
LINE
  8
0
 62
     0
 10
208.357
 20
52.1931
 30
0.0
 11
208.357
 21
51.1941
 31
0.0
  0
LINE
  8
0
 62
     0
 10
208.357
 20
51.1941
 30
0.0
 11
222.356
 21
51.1941
 31
0.0
  0
LINE
  8
0
 62
     0
 10
222.356
 20
51.1941
 30
0.0
 11
222.356
 21
52.1931
 31
0.0
  0
LINE
  8
0
 62
     0
 10
222.356
 20
52.1931
 30
0.0
 11
223.157
 21
52.1931
 31
0.0
  0
LINE
  8
0
 62
     0
 10
223.157
 20
52.1931
 30
0.0
 11
223.157
 21
55.2937
 31
0.0
  0
LINE
  8
0
 62
     0
 10
223.157
 20
55.2937
 30
0.0
 11
222.356
 21
55.2937
 31
0.0
  0
LINE
  8
0
 62
     0
 10
222.356
 20
55.2937
 30
0.0
 11
222.356
 21
61.0941
 31
0.0
  0
LINE
  8
0
 62
     0
 10
222.356
 20
61.0941
 30
0.0
 11
223.157
 21
61.0941
 31
0.0
  0
LINE
  8
0
 62
     0
 10
223.157
 20
61.0941
 30
0.0
 11
223.157
 21
64.1932
 31
0.0
  0
LINE
  8
0
 62
     0
 10
223.157
 20
64.1932
 30
0.0
 11
222.356
 21
64.1932
 31
0.0
  0
LINE
  8
0
 62
     0
 10
222.356
 20
64.1932
 30
0.0
 11
222.356
 21
65.1937
 31
0.0
  0
LINE
  8
0
 62
     0
 10
222.356
 20
65.1937
 30
0.0
 11
208.357
 21
65.1937
 31
0.0
  0
LINE
  8
0
 62
     0
 10
153.588
 20
74.7187
 30
0.0
 11
153.588
 21
73.7182
 31
0.0
  0
LINE
  8
0
 62
     0
 10
153.588
 20
73.7182
 30
0.0
 11
152.787
 21
73.7182
 31
0.0
  0
LINE
  8
0
 62
     0
 10
152.787
 20
73.7182
 30
0.0
 11
152.787
 21
70.6191
 31
0.0
  0
LINE
  8
0
 62
     0
 10
152.787
 20
70.6191
 30
0.0
 11
153.588
 21
70.6191
 31
0.0
  0
LINE
  8
0
 62
     0
 10
153.588
 20
70.6191
 30
0.0
 11
153.588
 21
70.0183
 31
0.0
  0
LINE
  8
0
 62
     0
 10
153.588
 20
70.0183
 30
0.0
 11
152.062
 21
70.0183
 31
0.0
  0
LINE
  8
0
 62
     0
 10
152.062
 20
70.0183
 30
0.0
 11
152.062
 21
73.2483
 31
0.0
  0
LINE
  8
0
 62
     0
 10
152.062
 20
73.2483
 30
0.0
 11
150.337
 21
73.2483
 31
0.0
  0
LINE
  8
0
 62
     0
 10
150.337
 20
73.2483
 30
0.0
 11
150.337
 21
74.1687
 31
0.0
  0
LINE
  8
0
 62
     0
 10
150.337
 20
74.1687
 30
0.0
 11
147.038
 21
74.1687
 31
0.0
  0
LINE
  8
0
 62
     0
 10
147.038
 20
74.1687
 30
0.0
 11
147.038
 21
73.2483
 31
0.0
  0
LINE
  8
0
 62
     0
 10
147.038
 20
73.2483
 30
0.0
 11
145.313
 21
73.2483
 31
0.0
  0
LINE
  8
0
 62
     0
 10
145.313
 20
73.2483
 30
0.0
 11
145.313
 21
70.0183
 31
0.0
  0
LINE
  8
0
 62
     0
 10
145.313
 20
70.0183
 30
0.0
 11
144.487
 21
70.0183
 31
0.0
  0
LINE
  8
0
 62
     0
 10
144.487
 20
70.0183
 30
0.0
 11
144.487
 21
67.2179
 31
0.0
  0
LINE
  8
0
 62
     0
 10
144.487
 20
67.2179
 30
0.0
 11
145.313
 21
67.2179
 31
0.0
  0
LINE
  8
0
 62
     0
 10
145.313
 20
67.2179
 30
0.0
 11
145.313
 21
60.948
 31
0.0
  0
LINE
  8
0
 62
     0
 10
145.313
 20
60.948
 30
0.0
 11
147.038
 21
60.948
 31
0.0
  0
LINE
  8
0
 62
     0
 10
147.038
 20
60.948
 30
0.0
 11
147.038
 21
59.968
 31
0.0
  0
LINE
  8
0
 62
     0
 10
147.038
 20
59.968
 30
0.0
 11
150.337
 21
59.968
 31
0.0
  0
LINE
  8
0
 62
     0
 10
150.337
 20
59.968
 30
0.0
 11
150.337
 21
60.948
 31
0.0
  0
LINE
  8
0
 62
     0
 10
150.337
 20
60.948
 30
0.0
 11
152.062
 21
60.948
 31
0.0
  0
LINE
  8
0
 62
     0
 10
152.062
 20
60.948
 30
0.0
 11
152.062
 21
65.4184
 31
0.0
  0
LINE
  8
0
 62
     0
 10
152.062
 20
65.4184
 30
0.0
 11
153.588
 21
65.4184
 31
0.0
  0
LINE
  8
0
 62
     0
 10
153.588
 20
65.4184
 30
0.0
 11
153.588
 21
64.8187
 31
0.0
  0
LINE
  8
0
 62
     0
 10
153.588
 20
64.8187
 30
0.0
 11
152.787
 21
64.8187
 31
0.0
  0
LINE
  8
0
 62
     0
 10
152.787
 20
64.8187
 30
0.0
 11
152.787
 21
61.7181
 31
0.0
  0
LINE
  8
0
 62
     0
 10
152.787
 20
61.7181
 30
0.0
 11
153.588
 21
61.7181
 31
0.0
  0
LINE
  8
0
 62
     0
 10
153.588
 20
61.7181
 30
0.0
 11
153.588
 21
60.7191
 31
0.0
  0
LINE
  8
0
 62
     0
 10
153.588
 20
60.7191
 30
0.0
 11
167.587
 21
60.7191
 31
0.0
  0
LINE
  8
0
 62
     0
 10
167.587
 20
60.7191
 30
0.0
 11
167.587
 21
61.7181
 31
0.0
  0
LINE
  8
0
 62
     0
 10
167.587
 20
61.7181
 30
0.0
 11
168.388
 21
61.7181
 31
0.0
  0
LINE
  8
0
 62
     0
 10
168.388
 20
61.7181
 30
0.0
 11
168.388
 21
64.8187
 31
0.0
  0
LINE
  8
0
 62
     0
 10
168.388
 20
64.8187
 30
0.0
 11
167.587
 21
64.8187
 31
0.0
  0
LINE
  8
0
 62
     0
 10
167.587
 20
64.8187
 30
0.0
 11
167.587
 21
65.4184
 31
0.0
  0
LINE
  8
0
 62
     0
 10
167.587
 20
65.4184
 30
0.0
 11
169.113
 21
65.4184
 31
0.0
  0
LINE
  8
0
 62
     0
 10
169.113
 20
65.4184
 30
0.0
 11
169.113
 21
60.948
 31
0.0
  0
LINE
  8
0
 62
     0
 10
169.113
 20
60.948
 30
0.0
 11
170.838
 21
60.948
 31
0.0
  0
LINE
  8
0
 62
     0
 10
170.838
 20
60.948
 30
0.0
 11
170.838
 21
59.968
 31
0.0
  0
LINE
  8
0
 62
     0
 10
170.838
 20
59.968
 30
0.0
 11
174.137
 21
59.968
 31
0.0
  0
LINE
  8
0
 62
     0
 10
174.137
 20
59.968
 30
0.0
 11
174.137
 21
60.948
 31
0.0
  0
LINE
  8
0
 62
     0
 10
174.137
 20
60.948
 30
0.0
 11
175.863
 21
60.948
 31
0.0
  0
LINE
  8
0
 62
     0
 10
175.863
 20
60.948
 30
0.0
 11
175.863
 21
67.2179
 31
0.0
  0
LINE
  8
0
 62
     0
 10
175.863
 20
67.2179
 30
0.0
 11
176.688
 21
67.2179
 31
0.0
  0
LINE
  8
0
 62
     0
 10
176.688
 20
67.2179
 30
0.0
 11
176.688
 21
70.0183
 31
0.0
  0
LINE
  8
0
 62
     0
 10
176.688
 20
70.0183
 30
0.0
 11
175.863
 21
70.0183
 31
0.0
  0
LINE
  8
0
 62
     0
 10
175.863
 20
70.0183
 30
0.0
 11
175.863
 21
73.2483
 31
0.0
  0
LINE
  8
0
 62
     0
 10
175.863
 20
73.2483
 30
0.0
 11
174.137
 21
73.2483
 31
0.0
  0
LINE
  8
0
 62
     0
 10
174.137
 20
73.2483
 30
0.0
 11
174.137
 21
74.1687
 31
0.0
  0
LINE
  8
0
 62
     0
 10
174.137
 20
74.1687
 30
0.0
 11
170.838
 21
74.1687
 31
0.0
  0
LINE
  8
0
 62
     0
 10
170.838
 20
74.1687
 30
0.0
 11
170.838
 21
73.2483
 31
0.0
  0
LINE
  8
0
 62
     0
 10
170.838
 20
73.2483
 30
0.0
 11
169.113
 21
73.2483
 31
0.0
  0
LINE
  8
0
 62
     0
 10
169.113
 20
73.2483
 30
0.0
 11
169.113
 21
70.0183
 31
0.0
  0
LINE
  8
0
 62
     0
 10
169.113
 20
70.0183
 30
0.0
 11
167.587
 21
70.0183
 31
0.0
  0
LINE
  8
0
 62
     0
 10
167.587
 20
70.0183
 30
0.0
 11
167.587
 21
70.6191
 31
0.0
  0
LINE
  8
0
 62
     0
 10
167.587
 20
70.6191
 30
0.0
 11
168.388
 21
70.6191
 31
0.0
  0
LINE
  8
0
 62
     0
 10
168.388
 20
70.6191
 30
0.0
 11
168.388
 21
73.7182
 31
0.0
  0
LINE
  8
0
 62
     0
 10
168.388
 20
73.7182
 30
0.0
 11
167.587
 21
73.7182
 31
0.0
  0
LINE
  8
0
 62
     0
 10
167.587
 20
73.7182
 30
0.0
 11
167.587
 21
74.7187
 31
0.0
  0
LINE
  8
0
 62
     0
 10
167.587
 20
74.7187
 30
0.0
 11
153.588
 21
74.7187
 31
0.0
  0
LINE
  8
0
 62
     0
 10
25.0004
 20
74.7187
 30
0.0
 11
25.0004
 21
73.7182
 31
0.0
  0
LINE
  8
0
 62
     0
 10
25.0004
 20
73.7182
 30
0.0
 11
24.2011
 21
73.7182
 31
0.0
  0
LINE
  8
0
 62
     0
 10
24.2011
 20
73.7182
 30
0.0
 11
24.2011
 21
70.6191
 31
0.0
  0
LINE
  8
0
 62
     0
 10
24.2011
 20
70.6191
 30
0.0
 11
25.0004
 21
70.6191
 31
0.0
  0
LINE
  8
0
 62
     0
 10
25.0004
 20
70.6191
 30
0.0
 11
25.0004
 21
64.8187
 31
0.0
  0
LINE
  8
0
 62
     0
 10
25.0004
 20
64.8187
 30
0.0
 11
24.2011
 21
64.8187
 31
0.0
  0
LINE
  8
0
 62
     0
 10
24.2011
 20
64.8187
 30
0.0
 11
24.2011
 21
61.7181
 31
0.0
  0
LINE
  8
0
 62
     0
 10
24.2011
 20
61.7181
 30
0.0
 11
25.0004
 21
61.7181
 31
0.0
  0
LINE
  8
0
 62
     0
 10
25.0004
 20
61.7181
 30
0.0
 11
25.0004
 21
60.7191
 31
0.0
  0
LINE
  8
0
 62
     0
 10
25.0004
 20
60.7191
 30
0.0
 11
39.0013
 21
60.7191
 31
0.0
  0
LINE
  8
0
 62
     0
 10
39.0013
 20
60.7191
 30
0.0
 11
39.0013
 21
61.7181
 31
0.0
  0
LINE
  8
0
 62
     0
 10
39.0013
 20
61.7181
 30
0.0
 11
39.8004
 21
61.7181
 31
0.0
  0
LINE
  8
0
 62
     0
 10
39.8004
 20
61.7181
 30
0.0
 11
39.8004
 21
64.8187
 31
0.0
  0
LINE
  8
0
 62
     0
 10
39.8004
 20
64.8187
 30
0.0
 11
39.0013
 21
64.8187
 31
0.0
  0
LINE
  8
0
 62
     0
 10
39.0013
 20
64.8187
 30
0.0
 11
39.0013
 21
70.6191
 31
0.0
  0
LINE
  8
0
 62
     0
 10
39.0013
 20
70.6191
 30
0.0
 11
39.8004
 21
70.6191
 31
0.0
  0
LINE
  8
0
 62
     0
 10
39.8004
 20
70.6191
 30
0.0
 11
39.8004
 21
73.7182
 31
0.0
  0
LINE
  8
0
 62
     0
 10
39.8004
 20
73.7182
 30
0.0
 11
39.0013
 21
73.7182
 31
0.0
  0
LINE
  8
0
 62
     0
 10
39.0013
 20
73.7182
 30
0.0
 11
39.0013
 21
74.7187
 31
0.0
  0
LINE
  8
0
 62
     0
 10
39.0013
 20
74.7187
 30
0.0
 11
25.0004
 21
74.7187
 31
0.0
  0
LINE
  8
0
 62
     0
 10
46.4316
 20
74.7187
 30
0.0
 11
46.4316
 21
73.7182
 31
0.0
  0
LINE
  8
0
 62
     0
 10
46.4316
 20
73.7182
 30
0.0
 11
45.6325
 21
73.7182
 31
0.0
  0
LINE
  8
0
 62
     0
 10
45.6325
 20
73.7182
 30
0.0
 11
45.6325
 21
70.6191
 31
0.0
  0
LINE
  8
0
 62
     0
 10
45.6325
 20
70.6191
 30
0.0
 11
46.4316
 21
70.6191
 31
0.0
  0
LINE
  8
0
 62
     0
 10
46.4316
 20
70.6191
 30
0.0
 11
46.4316
 21
64.8187
 31
0.0
  0
LINE
  8
0
 62
     0
 10
46.4316
 20
64.8187
 30
0.0
 11
45.6325
 21
64.8187
 31
0.0
  0
LINE
  8
0
 62
     0
 10
45.6325
 20
64.8187
 30
0.0
 11
45.6325
 21
61.7181
 31
0.0
  0
LINE
  8
0
 62
     0
 10
45.6325
 20
61.7181
 30
0.0
 11
46.4316
 21
61.7181
 31
0.0
  0
LINE
  8
0
 62
     0
 10
46.4316
 20
61.7181
 30
0.0
 11
46.4316
 21
60.7191
 31
0.0
  0
LINE
  8
0
 62
     0
 10
46.4316
 20
60.7191
 30
0.0
 11
60.4312
 21
60.7191
 31
0.0
  0
LINE
  8
0
 62
     0
 10
60.4312
 20
60.7191
 30
0.0
 11
60.4312
 21
61.7181
 31
0.0
  0
LINE
  8
0
 62
     0
 10
60.4312
 20
61.7181
 30
0.0
 11
61.2316
 21
61.7181
 31
0.0
  0
LINE
  8
0
 62
     0
 10
61.2316
 20
61.7181
 30
0.0
 11
61.2316
 21
64.8187
 31
0.0
  0
LINE
  8
0
 62
     0
 10
61.2316
 20
64.8187
 30
0.0
 11
60.4312
 21
64.8187
 31
0.0
  0
LINE
  8
0
 62
     0
 10
60.4312
 20
64.8187
 30
0.0
 11
60.4312
 21
70.6191
 31
0.0
  0
LINE
  8
0
 62
     0
 10
60.4312
 20
70.6191
 30
0.0
 11
61.2316
 21
70.6191
 31
0.0
  0
LINE
  8
0
 62
     0
 10
61.2316
 20
70.6191
 30
0.0
 11
61.2316
 21
73.7182
 31
0.0
  0
LINE
  8
0
 62
     0
 10
61.2316
 20
73.7182
 30
0.0
 11
60.4312
 21
73.7182
 31
0.0
  0
LINE
  8
0
 62
     0
 10
60.4312
 20
73.7182
 30
0.0
 11
60.4312
 21
74.7187
 31
0.0
  0
LINE
  8
0
 62
     0
 10
60.4312
 20
74.7187
 30
0.0
 11
46.4316
 21
74.7187
 31
0.0
  0
LINE
  8
0
 62
     0
 10
65.4816
 20
74.7187
 30
0.0
 11
65.4816
 21
73.7182
 31
0.0
  0
LINE
  8
0
 62
     0
 10
65.4816
 20
73.7182
 30
0.0
 11
64.6825
 21
73.7182
 31
0.0
  0
LINE
  8
0
 62
     0
 10
64.6825
 20
73.7182
 30
0.0
 11
64.6825
 21
70.6191
 31
0.0
  0
LINE
  8
0
 62
     0
 10
64.6825
 20
70.6191
 30
0.0
 11
65.4816
 21
70.6191
 31
0.0
  0
LINE
  8
0
 62
     0
 10
65.4816
 20
70.6191
 30
0.0
 11
65.4816
 21
64.8187
 31
0.0
  0
LINE
  8
0
 62
     0
 10
65.4816
 20
64.8187
 30
0.0
 11
64.6825
 21
64.8187
 31
0.0
  0
LINE
  8
0
 62
     0
 10
64.6825
 20
64.8187
 30
0.0
 11
64.6825
 21
61.7181
 31
0.0
  0
LINE
  8
0
 62
     0
 10
64.6825
 20
61.7181
 30
0.0
 11
65.4816
 21
61.7181
 31
0.0
  0
LINE
  8
0
 62
     0
 10
65.4816
 20
61.7181
 30
0.0
 11
65.4816
 21
60.7191
 31
0.0
  0
LINE
  8
0
 62
     0
 10
65.4816
 20
60.7191
 30
0.0
 11
79.4812
 21
60.7191
 31
0.0
  0
LINE
  8
0
 62
     0
 10
79.4812
 20
60.7191
 30
0.0
 11
79.4812
 21
61.7181
 31
0.0
  0
LINE
  8
0
 62
     0
 10
79.4812
 20
61.7181
 30
0.0
 11
80.2816
 21
61.7181
 31
0.0
  0
LINE
  8
0
 62
     0
 10
80.2816
 20
61.7181
 30
0.0
 11
80.2816
 21
64.8187
 31
0.0
  0
LINE
  8
0
 62
     0
 10
80.2816
 20
64.8187
 30
0.0
 11
79.4812
 21
64.8187
 31
0.0
  0
LINE
  8
0
 62
     0
 10
79.4812
 20
64.8187
 30
0.0
 11
79.4812
 21
70.6191
 31
0.0
  0
LINE
  8
0
 62
     0
 10
79.4812
 20
70.6191
 30
0.0
 11
80.2816
 21
70.6191
 31
0.0
  0
LINE
  8
0
 62
     0
 10
80.2816
 20
70.6191
 30
0.0
 11
80.2816
 21
73.7182
 31
0.0
  0
LINE
  8
0
 62
     0
 10
80.2816
 20
73.7182
 30
0.0
 11
79.4812
 21
73.7182
 31
0.0
  0
LINE
  8
0
 62
     0
 10
79.4812
 20
73.7182
 30
0.0
 11
79.4812
 21
74.7187
 31
0.0
  0
LINE
  8
0
 62
     0
 10
79.4812
 20
74.7187
 30
0.0
 11
65.4816
 21
74.7187
 31
0.0
  0
LINE
  8
0
 62
     0
 10
84.5316
 20
74.7187
 30
0.0
 11
84.5316
 21
73.7182
 31
0.0
  0
LINE
  8
0
 62
     0
 10
84.5316
 20
73.7182
 30
0.0
 11
83.7325
 21
73.7182
 31
0.0
  0
LINE
  8
0
 62
     0
 10
83.7325
 20
73.7182
 30
0.0
 11
83.7325
 21
70.6191
 31
0.0
  0
LINE
  8
0
 62
     0
 10
83.7325
 20
70.6191
 30
0.0
 11
84.5316
 21
70.6191
 31
0.0
  0
LINE
  8
0
 62
     0
 10
84.5316
 20
70.6191
 30
0.0
 11
84.5316
 21
64.8187
 31
0.0
  0
LINE
  8
0
 62
     0
 10
84.5316
 20
64.8187
 30
0.0
 11
83.7325
 21
64.8187
 31
0.0
  0
LINE
  8
0
 62
     0
 10
83.7325
 20
64.8187
 30
0.0
 11
83.7325
 21
61.7181
 31
0.0
  0
LINE
  8
0
 62
     0
 10
83.7325
 20
61.7181
 30
0.0
 11
84.5316
 21
61.7181
 31
0.0
  0
LINE
  8
0
 62
     0
 10
84.5316
 20
61.7181
 30
0.0
 11
84.5316
 21
60.7191
 31
0.0
  0
LINE
  8
0
 62
     0
 10
84.5316
 20
60.7191
 30
0.0
 11
98.5312
 21
60.7191
 31
0.0
  0
LINE
  8
0
 62
     0
 10
98.5312
 20
60.7191
 30
0.0
 11
98.5312
 21
61.7181
 31
0.0
  0
LINE
  8
0
 62
     0
 10
98.5312
 20
61.7181
 30
0.0
 11
99.3316
 21
61.7181
 31
0.0
  0
LINE
  8
0
 62
     0
 10
99.3316
 20
61.7181
 30
0.0
 11
99.3316
 21
64.8187
 31
0.0
  0
LINE
  8
0
 62
     0
 10
99.3316
 20
64.8187
 30
0.0
 11
98.5312
 21
64.8187
 31
0.0
  0
LINE
  8
0
 62
     0
 10
98.5312
 20
64.8187
 30
0.0
 11
98.5312
 21
70.6191
 31
0.0
  0
LINE
  8
0
 62
     0
 10
98.5312
 20
70.6191
 30
0.0
 11
99.3316
 21
70.6191
 31
0.0
  0
LINE
  8
0
 62
     0
 10
99.3316
 20
70.6191
 30
0.0
 11
99.3316
 21
73.7182
 31
0.0
  0
LINE
  8
0
 62
     0
 10
99.3316
 20
73.7182
 30
0.0
 11
98.5312
 21
73.7182
 31
0.0
  0
LINE
  8
0
 62
     0
 10
98.5312
 20
73.7182
 30
0.0
 11
98.5312
 21
74.7187
 31
0.0
  0
LINE
  8
0
 62
     0
 10
98.5312
 20
74.7187
 30
0.0
 11
84.5316
 21
74.7187
 31
0.0
  0
LINE
  8
0
 62
     0
 10
103.582
 20
74.7187
 30
0.0
 11
103.582
 21
73.7182
 31
0.0
  0
LINE
  8
0
 62
     0
 10
103.582
 20
73.7182
 30
0.0
 11
102.783
 21
73.7182
 31
0.0
  0
LINE
  8
0
 62
     0
 10
102.783
 20
73.7182
 30
0.0
 11
102.783
 21
70.6191
 31
0.0
  0
LINE
  8
0
 62
     0
 10
102.783
 20
70.6191
 30
0.0
 11
103.582
 21
70.6191
 31
0.0
  0
LINE
  8
0
 62
     0
 10
103.582
 20
70.6191
 30
0.0
 11
103.582
 21
64.8187
 31
0.0
  0
LINE
  8
0
 62
     0
 10
103.582
 20
64.8187
 30
0.0
 11
102.783
 21
64.8187
 31
0.0
  0
LINE
  8
0
 62
     0
 10
102.783
 20
64.8187
 30
0.0
 11
102.783
 21
61.7181
 31
0.0
  0
LINE
  8
0
 62
     0
 10
102.783
 20
61.7181
 30
0.0
 11
103.582
 21
61.7181
 31
0.0
  0
LINE
  8
0
 62
     0
 10
103.582
 20
61.7181
 30
0.0
 11
103.582
 21
60.7191
 31
0.0
  0
LINE
  8
0
 62
     0
 10
103.582
 20
60.7191
 30
0.0
 11
117.581
 21
60.7191
 31
0.0
  0
LINE
  8
0
 62
     0
 10
117.581
 20
60.7191
 30
0.0
 11
117.581
 21
61.7181
 31
0.0
  0
LINE
  8
0
 62
     0
 10
117.581
 20
61.7181
 30
0.0
 11
118.382
 21
61.7181
 31
0.0
  0
LINE
  8
0
 62
     0
 10
118.382
 20
61.7181
 30
0.0
 11
118.382
 21
64.8187
 31
0.0
  0
LINE
  8
0
 62
     0
 10
118.382
 20
64.8187
 30
0.0
 11
117.581
 21
64.8187
 31
0.0
  0
LINE
  8
0
 62
     0
 10
117.581
 20
64.8187
 30
0.0
 11
117.581
 21
70.6191
 31
0.0
  0
LINE
  8
0
 62
     0
 10
117.581
 20
70.6191
 30
0.0
 11
118.382
 21
70.6191
 31
0.0
  0
LINE
  8
0
 62
     0
 10
118.382
 20
70.6191
 30
0.0
 11
118.382
 21
73.7182
 31
0.0
  0
LINE
  8
0
 62
     0
 10
118.382
 20
73.7182
 30
0.0
 11
117.581
 21
73.7182
 31
0.0
  0
LINE
  8
0
 62
     0
 10
117.581
 20
73.7182
 30
0.0
 11
117.581
 21
74.7187
 31
0.0
  0
LINE
  8
0
 62
     0
 10
117.581
 20
74.7187
 30
0.0
 11
103.582
 21
74.7187
 31
0.0
  0
LINE
  8
0
 62
     0
 10
122.632
 20
74.7187
 30
0.0
 11
122.632
 21
73.7182
 31
0.0
  0
LINE
  8
0
 62
     0
 10
122.632
 20
73.7182
 30
0.0
 11
121.833
 21
73.7182
 31
0.0
  0
LINE
  8
0
 62
     0
 10
121.833
 20
73.7182
 30
0.0
 11
121.833
 21
70.6191
 31
0.0
  0
LINE
  8
0
 62
     0
 10
121.833
 20
70.6191
 30
0.0
 11
122.632
 21
70.6191
 31
0.0
  0
LINE
  8
0
 62
     0
 10
122.632
 20
70.6191
 30
0.0
 11
122.632
 21
64.8187
 31
0.0
  0
LINE
  8
0
 62
     0
 10
122.632
 20
64.8187
 30
0.0
 11
121.833
 21
64.8187
 31
0.0
  0
LINE
  8
0
 62
     0
 10
121.833
 20
64.8187
 30
0.0
 11
121.833
 21
61.7181
 31
0.0
  0
LINE
  8
0
 62
     0
 10
121.833
 20
61.7181
 30
0.0
 11
122.632
 21
61.7181
 31
0.0
  0
LINE
  8
0
 62
     0
 10
122.632
 20
61.7181
 30
0.0
 11
122.632
 21
60.7191
 31
0.0
  0
LINE
  8
0
 62
     0
 10
122.632
 20
60.7191
 30
0.0
 11
136.631
 21
60.7191
 31
0.0
  0
LINE
  8
0
 62
     0
 10
136.631
 20
60.7191
 30
0.0
 11
136.631
 21
61.7181
 31
0.0
  0
LINE
  8
0
 62
     0
 10
136.631
 20
61.7181
 30
0.0
 11
137.432
 21
61.7181
 31
0.0
  0
LINE
  8
0
 62
     0
 10
137.432
 20
61.7181
 30
0.0
 11
137.432
 21
64.8187
 31
0.0
  0
LINE
  8
0
 62
     0
 10
137.432
 20
64.8187
 30
0.0
 11
136.631
 21
64.8187
 31
0.0
  0
LINE
  8
0
 62
     0
 10
136.631
 20
64.8187
 30
0.0
 11
136.631
 21
70.6191
 31
0.0
  0
LINE
  8
0
 62
     0
 10
136.631
 20
70.6191
 30
0.0
 11
137.432
 21
70.6191
 31
0.0
  0
LINE
  8
0
 62
     0
 10
137.432
 20
70.6191
 30
0.0
 11
137.432
 21
73.7182
 31
0.0
  0
LINE
  8
0
 62
     0
 10
137.432
 20
73.7182
 30
0.0
 11
136.631
 21
73.7182
 31
0.0
  0
LINE
  8
0
 62
     0
 10
136.631
 20
73.7182
 30
0.0
 11
136.631
 21
74.7187
 31
0.0
  0
LINE
  8
0
 62
     0
 10
136.631
 20
74.7187
 30
0.0
 11
122.632
 21
74.7187
 31
0.0
  0
LINE
  8
0
 62
     0
 10
22.6191
 20
93.7687
 30
0.0
 11
22.6191
 21
92.7682
 31
0.0
  0
LINE
  8
0
 62
     0
 10
22.6191
 20
92.7682
 30
0.0
 11
21.8185
 21
92.7682
 31
0.0
  0
LINE
  8
0
 62
     0
 10
21.8185
 20
92.7682
 30
0.0
 11
21.8185
 21
89.6691
 31
0.0
  0
LINE
  8
0
 62
     0
 10
21.8185
 20
89.6691
 30
0.0
 11
22.6191
 21
89.6691
 31
0.0
  0
LINE
  8
0
 62
     0
 10
22.6191
 20
89.6691
 30
0.0
 11
22.6191
 21
83.8687
 31
0.0
  0
LINE
  8
0
 62
     0
 10
22.6191
 20
83.8687
 30
0.0
 11
21.8185
 21
83.8687
 31
0.0
  0
LINE
  8
0
 62
     0
 10
21.8185
 20
83.8687
 30
0.0
 11
21.8185
 21
80.7681
 31
0.0
  0
LINE
  8
0
 62
     0
 10
21.8185
 20
80.7681
 30
0.0
 11
22.6191
 21
80.7681
 31
0.0
  0
LINE
  8
0
 62
     0
 10
22.6191
 20
80.7681
 30
0.0
 11
22.6191
 21
79.7691
 31
0.0
  0
LINE
  8
0
 62
     0
 10
22.6191
 20
79.7691
 30
0.0
 11
36.6201
 21
79.7691
 31
0.0
  0
LINE
  8
0
 62
     0
 10
36.6201
 20
79.7691
 30
0.0
 11
36.6201
 21
80.7681
 31
0.0
  0
LINE
  8
0
 62
     0
 10
36.6201
 20
80.7681
 30
0.0
 11
37.4191
 21
80.7681
 31
0.0
  0
LINE
  8
0
 62
     0
 10
37.4191
 20
80.7681
 30
0.0
 11
37.4191
 21
83.8687
 31
0.0
  0
LINE
  8
0
 62
     0
 10
37.4191
 20
83.8687
 30
0.0
 11
36.6201
 21
83.8687
 31
0.0
  0
LINE
  8
0
 62
     0
 10
36.6201
 20
83.8687
 30
0.0
 11
36.6201
 21
89.6691
 31
0.0
  0
LINE
  8
0
 62
     0
 10
36.6201
 20
89.6691
 30
0.0
 11
37.4191
 21
89.6691
 31
0.0
  0
LINE
  8
0
 62
     0
 10
37.4191
 20
89.6691
 30
0.0
 11
37.4191
 21
92.7682
 31
0.0
  0
LINE
  8
0
 62
     0
 10
37.4191
 20
92.7682
 30
0.0
 11
36.6201
 21
92.7682
 31
0.0
  0
LINE
  8
0
 62
     0
 10
36.6201
 20
92.7682
 30
0.0
 11
36.6201
 21
93.7687
 31
0.0
  0
LINE
  8
0
 62
     0
 10
36.6201
 20
93.7687
 30
0.0
 11
22.6191
 21
93.7687
 31
0.0
  0
LINE
  8
0
 62
     0
 10
41.6691
 20
93.7687
 30
0.0
 11
41.6691
 21
92.7682
 31
0.0
  0
LINE
  8
0
 62
     0
 10
41.6691
 20
92.7682
 30
0.0
 11
40.87
 21
92.7682
 31
0.0
  0
LINE
  8
0
 62
     0
 10
40.87
 20
92.7682
 30
0.0
 11
40.87
 21
89.6691
 31
0.0
  0
LINE
  8
0
 62
     0
 10
40.87
 20
89.6691
 30
0.0
 11
41.6691
 21
89.6691
 31
0.0
  0
LINE
  8
0
 62
     0
 10
41.6691
 20
89.6691
 30
0.0
 11
41.6691
 21
83.8687
 31
0.0
  0
LINE
  8
0
 62
     0
 10
41.6691
 20
83.8687
 30
0.0
 11
40.87
 21
83.8687
 31
0.0
  0
LINE
  8
0
 62
     0
 10
40.87
 20
83.8687
 30
0.0
 11
40.87
 21
80.7681
 31
0.0
  0
LINE
  8
0
 62
     0
 10
40.87
 20
80.7681
 30
0.0
 11
41.6691
 21
80.7681
 31
0.0
  0
LINE
  8
0
 62
     0
 10
41.6691
 20
80.7681
 30
0.0
 11
41.6691
 21
79.7691
 31
0.0
  0
LINE
  8
0
 62
     0
 10
41.6691
 20
79.7691
 30
0.0
 11
55.6701
 21
79.7691
 31
0.0
  0
LINE
  8
0
 62
     0
 10
55.6701
 20
79.7691
 30
0.0
 11
55.6701
 21
80.7681
 31
0.0
  0
LINE
  8
0
 62
     0
 10
55.6701
 20
80.7681
 30
0.0
 11
56.4691
 21
80.7681
 31
0.0
  0
LINE
  8
0
 62
     0
 10
56.4691
 20
80.7681
 30
0.0
 11
56.4691
 21
83.8687
 31
0.0
  0
LINE
  8
0
 62
     0
 10
56.4691
 20
83.8687
 30
0.0
 11
55.6701
 21
83.8687
 31
0.0
  0
LINE
  8
0
 62
     0
 10
55.6701
 20
83.8687
 30
0.0
 11
55.6701
 21
89.6691
 31
0.0
  0
LINE
  8
0
 62
     0
 10
55.6701
 20
89.6691
 30
0.0
 11
56.4691
 21
89.6691
 31
0.0
  0
LINE
  8
0
 62
     0
 10
56.4691
 20
89.6691
 30
0.0
 11
56.4691
 21
92.7682
 31
0.0
  0
LINE
  8
0
 62
     0
 10
56.4691
 20
92.7682
 30
0.0
 11
55.6701
 21
92.7682
 31
0.0
  0
LINE
  8
0
 62
     0
 10
55.6701
 20
92.7682
 30
0.0
 11
55.6701
 21
93.7687
 31
0.0
  0
LINE
  8
0
 62
     0
 10
55.6701
 20
93.7687
 30
0.0
 11
41.6691
 21
93.7687
 31
0.0
  0
LINE
  8
0
 62
     0
 10
60.7191
 20
93.7687
 30
0.0
 11
60.7191
 21
92.7682
 31
0.0
  0
LINE
  8
0
 62
     0
 10
60.7191
 20
92.7682
 30
0.0
 11
59.92
 21
92.7682
 31
0.0
  0
LINE
  8
0
 62
     0
 10
59.92
 20
92.7682
 30
0.0
 11
59.92
 21
89.6691
 31
0.0
  0
LINE
  8
0
 62
     0
 10
59.92
 20
89.6691
 30
0.0
 11
60.7191
 21
89.6691
 31
0.0
  0
LINE
  8
0
 62
     0
 10
60.7191
 20
89.6691
 30
0.0
 11
60.7191
 21
83.8687
 31
0.0
  0
LINE
  8
0
 62
     0
 10
60.7191
 20
83.8687
 30
0.0
 11
59.92
 21
83.8687
 31
0.0
  0
LINE
  8
0
 62
     0
 10
59.92
 20
83.8687
 30
0.0
 11
59.92
 21
80.7681
 31
0.0
  0
LINE
  8
0
 62
     0
 10
59.92
 20
80.7681
 30
0.0
 11
60.7191
 21
80.7681
 31
0.0
  0
LINE
  8
0
 62
     0
 10
60.7191
 20
80.7681
 30
0.0
 11
60.7191
 21
79.7691
 31
0.0
  0
LINE
  8
0
 62
     0
 10
60.7191
 20
79.7691
 30
0.0
 11
74.7201
 21
79.7691
 31
0.0
  0
LINE
  8
0
 62
     0
 10
74.7201
 20
79.7691
 30
0.0
 11
74.7201
 21
80.7681
 31
0.0
  0
LINE
  8
0
 62
     0
 10
74.7201
 20
80.7681
 30
0.0
 11
75.5191
 21
80.7681
 31
0.0
  0
LINE
  8
0
 62
     0
 10
75.5191
 20
80.7681
 30
0.0
 11
75.5191
 21
83.8687
 31
0.0
  0
LINE
  8
0
 62
     0
 10
75.5191
 20
83.8687
 30
0.0
 11
74.7201
 21
83.8687
 31
0.0
  0
LINE
  8
0
 62
     0
 10
74.7201
 20
83.8687
 30
0.0
 11
74.7201
 21
89.6691
 31
0.0
  0
LINE
  8
0
 62
     0
 10
74.7201
 20
89.6691
 30
0.0
 11
75.5191
 21
89.6691
 31
0.0
  0
LINE
  8
0
 62
     0
 10
75.5191
 20
89.6691
 30
0.0
 11
75.5191
 21
92.7682
 31
0.0
  0
LINE
  8
0
 62
     0
 10
75.5191
 20
92.7682
 30
0.0
 11
74.7201
 21
92.7682
 31
0.0
  0
LINE
  8
0
 62
     0
 10
74.7201
 20
92.7682
 30
0.0
 11
74.7201
 21
93.7687
 31
0.0
  0
LINE
  8
0
 62
     0
 10
74.7201
 20
93.7687
 30
0.0
 11
60.7191
 21
93.7687
 31
0.0
  0
LINE
  8
0
 62
     0
 10
79.7691
 20
93.7687
 30
0.0
 11
79.7691
 21
92.7682
 31
0.0
  0
LINE
  8
0
 62
     0
 10
79.7691
 20
92.7682
 30
0.0
 11
78.97
 21
92.7682
 31
0.0
  0
LINE
  8
0
 62
     0
 10
78.97
 20
92.7682
 30
0.0
 11
78.97
 21
89.6691
 31
0.0
  0
LINE
  8
0
 62
     0
 10
78.97
 20
89.6691
 30
0.0
 11
79.7691
 21
89.6691
 31
0.0
  0
LINE
  8
0
 62
     0
 10
79.7691
 20
89.6691
 30
0.0
 11
79.7691
 21
83.8687
 31
0.0
  0
LINE
  8
0
 62
     0
 10
79.7691
 20
83.8687
 30
0.0
 11
78.97
 21
83.8687
 31
0.0
  0
LINE
  8
0
 62
     0
 10
78.97
 20
83.8687
 30
0.0
 11
78.97
 21
80.7681
 31
0.0
  0
LINE
  8
0
 62
     0
 10
78.97
 20
80.7681
 30
0.0
 11
79.7691
 21
80.7681
 31
0.0
  0
LINE
  8
0
 62
     0
 10
79.7691
 20
80.7681
 30
0.0
 11
79.7691
 21
79.7691
 31
0.0
  0
LINE
  8
0
 62
     0
 10
79.7691
 20
79.7691
 30
0.0
 11
93.7701
 21
79.7691
 31
0.0
  0
LINE
  8
0
 62
     0
 10
93.7701
 20
79.7691
 30
0.0
 11
93.7701
 21
80.7681
 31
0.0
  0
LINE
  8
0
 62
     0
 10
93.7701
 20
80.7681
 30
0.0
 11
94.5691
 21
80.7681
 31
0.0
  0
LINE
  8
0
 62
     0
 10
94.5691
 20
80.7681
 30
0.0
 11
94.5691
 21
83.8687
 31
0.0
  0
LINE
  8
0
 62
     0
 10
94.5691
 20
83.8687
 30
0.0
 11
93.7701
 21
83.8687
 31
0.0
  0
LINE
  8
0
 62
     0
 10
93.7701
 20
83.8687
 30
0.0
 11
93.7701
 21
89.6691
 31
0.0
  0
LINE
  8
0
 62
     0
 10
93.7701
 20
89.6691
 30
0.0
 11
94.5691
 21
89.6691
 31
0.0
  0
LINE
  8
0
 62
     0
 10
94.5691
 20
89.6691
 30
0.0
 11
94.5691
 21
92.7682
 31
0.0
  0
LINE
  8
0
 62
     0
 10
94.5691
 20
92.7682
 30
0.0
 11
93.7701
 21
92.7682
 31
0.0
  0
LINE
  8
0
 62
     0
 10
93.7701
 20
92.7682
 30
0.0
 11
93.7701
 21
93.7687
 31
0.0
  0
LINE
  8
0
 62
     0
 10
93.7701
 20
93.7687
 30
0.0
 11
79.7691
 21
93.7687
 31
0.0
  0
LINE
  8
0
 62
     0
 10
98.8191
 20
93.7687
 30
0.0
 11
98.8191
 21
92.7682
 31
0.0
  0
LINE
  8
0
 62
     0
 10
98.8191
 20
92.7682
 30
0.0
 11
98.02
 21
92.7682
 31
0.0
  0
LINE
  8
0
 62
     0
 10
98.02
 20
92.7682
 30
0.0
 11
98.02
 21
89.6691
 31
0.0
  0
LINE
  8
0
 62
     0
 10
98.02
 20
89.6691
 30
0.0
 11
98.8191
 21
89.6691
 31
0.0
  0
LINE
  8
0
 62
     0
 10
98.8191
 20
89.6691
 30
0.0
 11
98.8191
 21
83.8687
 31
0.0
  0
LINE
  8
0
 62
     0
 10
98.8191
 20
83.8687
 30
0.0
 11
98.02
 21
83.8687
 31
0.0
  0
LINE
  8
0
 62
     0
 10
98.02
 20
83.8687
 30
0.0
 11
98.02
 21
80.7681
 31
0.0
  0
LINE
  8
0
 62
     0
 10
98.02
 20
80.7681
 30
0.0
 11
98.8191
 21
80.7681
 31
0.0
  0
LINE
  8
0
 62
     0
 10
98.8191
 20
80.7681
 30
0.0
 11
98.8191
 21
79.7691
 31
0.0
  0
LINE
  8
0
 62
     0
 10
98.8191
 20
79.7691
 30
0.0
 11
112.82
 21
79.7691
 31
0.0
  0
LINE
  8
0
 62
     0
 10
112.82
 20
79.7691
 30
0.0
 11
112.82
 21
80.7681
 31
0.0
  0
LINE
  8
0
 62
     0
 10
112.82
 20
80.7681
 30
0.0
 11
113.619
 21
80.7681
 31
0.0
  0
LINE
  8
0
 62
     0
 10
113.619
 20
80.7681
 30
0.0
 11
113.619
 21
83.8687
 31
0.0
  0
LINE
  8
0
 62
     0
 10
113.619
 20
83.8687
 30
0.0
 11
112.82
 21
83.8687
 31
0.0
  0
LINE
  8
0
 62
     0
 10
112.82
 20
83.8687
 30
0.0
 11
112.82
 21
89.6691
 31
0.0
  0
LINE
  8
0
 62
     0
 10
112.82
 20
89.6691
 30
0.0
 11
113.619
 21
89.6691
 31
0.0
  0
LINE
  8
0
 62
     0
 10
113.619
 20
89.6691
 30
0.0
 11
113.619
 21
92.7682
 31
0.0
  0
LINE
  8
0
 62
     0
 10
113.619
 20
92.7682
 30
0.0
 11
112.82
 21
92.7682
 31
0.0
  0
LINE
  8
0
 62
     0
 10
112.82
 20
92.7682
 30
0.0
 11
112.82
 21
93.7687
 31
0.0
  0
LINE
  8
0
 62
     0
 10
112.82
 20
93.7687
 30
0.0
 11
98.8191
 21
93.7687
 31
0.0
  0
LINE
  8
0
 62
     0
 10
117.869
 20
93.7687
 30
0.0
 11
117.869
 21
92.7682
 31
0.0
  0
LINE
  8
0
 62
     0
 10
117.869
 20
92.7682
 30
0.0
 11
117.07
 21
92.7682
 31
0.0
  0
LINE
  8
0
 62
     0
 10
117.07
 20
92.7682
 30
0.0
 11
117.07
 21
89.6691
 31
0.0
  0
LINE
  8
0
 62
     0
 10
117.07
 20
89.6691
 30
0.0
 11
117.869
 21
89.6691
 31
0.0
  0
LINE
  8
0
 62
     0
 10
117.869
 20
89.6691
 30
0.0
 11
117.869
 21
83.8687
 31
0.0
  0
LINE
  8
0
 62
     0
 10
117.869
 20
83.8687
 30
0.0
 11
117.07
 21
83.8687
 31
0.0
  0
LINE
  8
0
 62
     0
 10
117.07
 20
83.8687
 30
0.0
 11
117.07
 21
80.7681
 31
0.0
  0
LINE
  8
0
 62
     0
 10
117.07
 20
80.7681
 30
0.0
 11
117.869
 21
80.7681
 31
0.0
  0
LINE
  8
0
 62
     0
 10
117.869
 20
80.7681
 30
0.0
 11
117.869
 21
79.7691
 31
0.0
  0
LINE
  8
0
 62
     0
 10
117.869
 20
79.7691
 30
0.0
 11
131.87
 21
79.7691
 31
0.0
  0
LINE
  8
0
 62
     0
 10
131.87
 20
79.7691
 30
0.0
 11
131.87
 21
80.7681
 31
0.0
  0
LINE
  8
0
 62
     0
 10
131.87
 20
80.7681
 30
0.0
 11
132.669
 21
80.7681
 31
0.0
  0
LINE
  8
0
 62
     0
 10
132.669
 20
80.7681
 30
0.0
 11
132.669
 21
83.8687
 31
0.0
  0
LINE
  8
0
 62
     0
 10
132.669
 20
83.8687
 30
0.0
 11
131.87
 21
83.8687
 31
0.0
  0
LINE
  8
0
 62
     0
 10
131.87
 20
83.8687
 30
0.0
 11
131.87
 21
89.6691
 31
0.0
  0
LINE
  8
0
 62
     0
 10
131.87
 20
89.6691
 30
0.0
 11
132.669
 21
89.6691
 31
0.0
  0
LINE
  8
0
 62
     0
 10
132.669
 20
89.6691
 30
0.0
 11
132.669
 21
92.7682
 31
0.0
  0
LINE
  8
0
 62
     0
 10
132.669
 20
92.7682
 30
0.0
 11
131.87
 21
92.7682
 31
0.0
  0
LINE
  8
0
 62
     0
 10
131.87
 20
92.7682
 30
0.0
 11
131.87
 21
93.7687
 31
0.0
  0
LINE
  8
0
 62
     0
 10
131.87
 20
93.7687
 30
0.0
 11
117.869
 21
93.7687
 31
0.0
  0
LINE
  8
0
 62
     0
 10
136.919
 20
93.7687
 30
0.0
 11
136.919
 21
92.7682
 31
0.0
  0
LINE
  8
0
 62
     0
 10
136.919
 20
92.7682
 30
0.0
 11
136.12
 21
92.7682
 31
0.0
  0
LINE
  8
0
 62
     0
 10
136.12
 20
92.7682
 30
0.0
 11
136.12
 21
89.6691
 31
0.0
  0
LINE
  8
0
 62
     0
 10
136.12
 20
89.6691
 30
0.0
 11
136.919
 21
89.6691
 31
0.0
  0
LINE
  8
0
 62
     0
 10
136.919
 20
89.6691
 30
0.0
 11
136.919
 21
83.8687
 31
0.0
  0
LINE
  8
0
 62
     0
 10
136.919
 20
83.8687
 30
0.0
 11
136.12
 21
83.8687
 31
0.0
  0
LINE
  8
0
 62
     0
 10
136.12
 20
83.8687
 30
0.0
 11
136.12
 21
80.7681
 31
0.0
  0
LINE
  8
0
 62
     0
 10
136.12
 20
80.7681
 30
0.0
 11
136.919
 21
80.7681
 31
0.0
  0
LINE
  8
0
 62
     0
 10
136.919
 20
80.7681
 30
0.0
 11
136.919
 21
79.7691
 31
0.0
  0
LINE
  8
0
 62
     0
 10
136.919
 20
79.7691
 30
0.0
 11
150.92
 21
79.7691
 31
0.0
  0
LINE
  8
0
 62
     0
 10
150.92
 20
79.7691
 30
0.0
 11
150.92
 21
80.7681
 31
0.0
  0
LINE
  8
0
 62
     0
 10
150.92
 20
80.7681
 30
0.0
 11
151.719
 21
80.7681
 31
0.0
  0
LINE
  8
0
 62
     0
 10
151.719
 20
80.7681
 30
0.0
 11
151.719
 21
83.8687
 31
0.0
  0
LINE
  8
0
 62
     0
 10
151.719
 20
83.8687
 30
0.0
 11
150.92
 21
83.8687
 31
0.0
  0
LINE
  8
0
 62
     0
 10
150.92
 20
83.8687
 30
0.0
 11
150.92
 21
89.6691
 31
0.0
  0
LINE
  8
0
 62
     0
 10
150.92
 20
89.6691
 30
0.0
 11
151.719
 21
89.6691
 31
0.0
  0
LINE
  8
0
 62
     0
 10
151.719
 20
89.6691
 30
0.0
 11
151.719
 21
92.7682
 31
0.0
  0
LINE
  8
0
 62
     0
 10
151.719
 20
92.7682
 30
0.0
 11
150.92
 21
92.7682
 31
0.0
  0
LINE
  8
0
 62
     0
 10
150.92
 20
92.7682
 30
0.0
 11
150.92
 21
93.7687
 31
0.0
  0
LINE
  8
0
 62
     0
 10
150.92
 20
93.7687
 30
0.0
 11
136.919
 21
93.7687
 31
0.0
  0
LINE
  8
0
 62
     0
 10
160.732
 20
93.7687
 30
0.0
 11
160.732
 21
92.7682
 31
0.0
  0
LINE
  8
0
 62
     0
 10
160.732
 20
92.7682
 30
0.0
 11
159.933
 21
92.7682
 31
0.0
  0
LINE
  8
0
 62
     0
 10
159.933
 20
92.7682
 30
0.0
 11
159.933
 21
89.6691
 31
0.0
  0
LINE
  8
0
 62
     0
 10
159.933
 20
89.6691
 30
0.0
 11
160.732
 21
89.6691
 31
0.0
  0
LINE
  8
0
 62
     0
 10
160.732
 20
89.6691
 30
0.0
 11
160.732
 21
83.8687
 31
0.0
  0
LINE
  8
0
 62
     0
 10
160.732
 20
83.8687
 30
0.0
 11
159.933
 21
83.8687
 31
0.0
  0
LINE
  8
0
 62
     0
 10
159.933
 20
83.8687
 30
0.0
 11
159.933
 21
80.7681
 31
0.0
  0
LINE
  8
0
 62
     0
 10
159.933
 20
80.7681
 30
0.0
 11
160.732
 21
80.7681
 31
0.0
  0
LINE
  8
0
 62
     0
 10
160.732
 20
80.7681
 30
0.0
 11
160.732
 21
79.7691
 31
0.0
  0
LINE
  8
0
 62
     0
 10
160.732
 20
79.7691
 30
0.0
 11
174.731
 21
79.7691
 31
0.0
  0
LINE
  8
0
 62
     0
 10
174.731
 20
79.7691
 30
0.0
 11
174.731
 21
80.7681
 31
0.0
  0
LINE
  8
0
 62
     0
 10
174.731
 20
80.7681
 30
0.0
 11
175.532
 21
80.7681
 31
0.0
  0
LINE
  8
0
 62
     0
 10
175.532
 20
80.7681
 30
0.0
 11
175.532
 21
83.8687
 31
0.0
  0
LINE
  8
0
 62
     0
 10
175.532
 20
83.8687
 30
0.0
 11
174.731
 21
83.8687
 31
0.0
  0
LINE
  8
0
 62
     0
 10
174.731
 20
83.8687
 30
0.0
 11
174.731
 21
89.6691
 31
0.0
  0
LINE
  8
0
 62
     0
 10
174.731
 20
89.6691
 30
0.0
 11
175.532
 21
89.6691
 31
0.0
  0
LINE
  8
0
 62
     0
 10
175.532
 20
89.6691
 30
0.0
 11
175.532
 21
92.7682
 31
0.0
  0
LINE
  8
0
 62
     0
 10
175.532
 20
92.7682
 30
0.0
 11
174.731
 21
92.7682
 31
0.0
  0
LINE
  8
0
 62
     0
 10
174.731
 20
92.7682
 30
0.0
 11
174.731
 21
93.7687
 31
0.0
  0
LINE
  8
0
 62
     0
 10
174.731
 20
93.7687
 30
0.0
 11
160.732
 21
93.7687
 31
0.0
  0
LINE
  8
0
 62
     0
 10
189.307
 20
93.7687
 30
0.0
 11
189.307
 21
92.7682
 31
0.0
  0
LINE
  8
0
 62
     0
 10
189.307
 20
92.7682
 30
0.0
 11
188.508
 21
92.7682
 31
0.0
  0
LINE
  8
0
 62
     0
 10
188.508
 20
92.7682
 30
0.0
 11
188.508
 21
89.6691
 31
0.0
  0
LINE
  8
0
 62
     0
 10
188.508
 20
89.6691
 30
0.0
 11
189.307
 21
89.6691
 31
0.0
  0
LINE
  8
0
 62
     0
 10
189.307
 20
89.6691
 30
0.0
 11
189.307
 21
83.8687
 31
0.0
  0
LINE
  8
0
 62
     0
 10
189.307
 20
83.8687
 30
0.0
 11
188.508
 21
83.8687
 31
0.0
  0
LINE
  8
0
 62
     0
 10
188.508
 20
83.8687
 30
0.0
 11
188.508
 21
80.7681
 31
0.0
  0
LINE
  8
0
 62
     0
 10
188.508
 20
80.7681
 30
0.0
 11
189.307
 21
80.7681
 31
0.0
  0
LINE
  8
0
 62
     0
 10
189.307
 20
80.7681
 30
0.0
 11
189.307
 21
79.7691
 31
0.0
  0
LINE
  8
0
 62
     0
 10
189.307
 20
79.7691
 30
0.0
 11
203.306
 21
79.7691
 31
0.0
  0
LINE
  8
0
 62
     0
 10
203.306
 20
79.7691
 30
0.0
 11
203.306
 21
80.7681
 31
0.0
  0
LINE
  8
0
 62
     0
 10
203.306
 20
80.7681
 30
0.0
 11
204.107
 21
80.7681
 31
0.0
  0
LINE
  8
0
 62
     0
 10
204.107
 20
80.7681
 30
0.0
 11
204.107
 21
83.8687
 31
0.0
  0
LINE
  8
0
 62
     0
 10
204.107
 20
83.8687
 30
0.0
 11
203.306
 21
83.8687
 31
0.0
  0
LINE
  8
0
 62
     0
 10
203.306
 20
83.8687
 30
0.0
 11
203.306
 21
89.6691
 31
0.0
  0
LINE
  8
0
 62
     0
 10
203.306
 20
89.6691
 30
0.0
 11
204.107
 21
89.6691
 31
0.0
  0
LINE
  8
0
 62
     0
 10
204.107
 20
89.6691
 30
0.0
 11
204.107
 21
92.7682
 31
0.0
  0
LINE
  8
0
 62
     0
 10
204.107
 20
92.7682
 30
0.0
 11
203.306
 21
92.7682
 31
0.0
  0
LINE
  8
0
 62
     0
 10
203.306
 20
92.7682
 30
0.0
 11
203.306
 21
93.7687
 31
0.0
  0
LINE
  8
0
 62
     0
 10
203.306
 20
93.7687
 30
0.0
 11
189.307
 21
93.7687
 31
0.0
  0
LINE
  8
0
 62
     0
 10
208.357
 20
93.7687
 30
0.0
 11
208.357
 21
92.7682
 31
0.0
  0
LINE
  8
0
 62
     0
 10
208.357
 20
92.7682
 30
0.0
 11
207.558
 21
92.7682
 31
0.0
  0
LINE
  8
0
 62
     0
 10
207.558
 20
92.7682
 30
0.0
 11
207.558
 21
89.6691
 31
0.0
  0
LINE
  8
0
 62
     0
 10
207.558
 20
89.6691
 30
0.0
 11
208.357
 21
89.6691
 31
0.0
  0
LINE
  8
0
 62
     0
 10
208.357
 20
89.6691
 30
0.0
 11
208.357
 21
83.8687
 31
0.0
  0
LINE
  8
0
 62
     0
 10
208.357
 20
83.8687
 30
0.0
 11
207.558
 21
83.8687
 31
0.0
  0
LINE
  8
0
 62
     0
 10
207.558
 20
83.8687
 30
0.0
 11
207.558
 21
80.7681
 31
0.0
  0
LINE
  8
0
 62
     0
 10
207.558
 20
80.7681
 30
0.0
 11
208.357
 21
80.7681
 31
0.0
  0
LINE
  8
0
 62
     0
 10
208.357
 20
80.7681
 30
0.0
 11
208.357
 21
79.7691
 31
0.0
  0
LINE
  8
0
 62
     0
 10
208.357
 20
79.7691
 30
0.0
 11
222.356
 21
79.7691
 31
0.0
  0
LINE
  8
0
 62
     0
 10
222.356
 20
79.7691
 30
0.0
 11
222.356
 21
80.7681
 31
0.0
  0
LINE
  8
0
 62
     0
 10
222.356
 20
80.7681
 30
0.0
 11
223.157
 21
80.7681
 31
0.0
  0
LINE
  8
0
 62
     0
 10
223.157
 20
80.7681
 30
0.0
 11
223.157
 21
83.8687
 31
0.0
  0
LINE
  8
0
 62
     0
 10
223.157
 20
83.8687
 30
0.0
 11
222.356
 21
83.8687
 31
0.0
  0
LINE
  8
0
 62
     0
 10
222.356
 20
83.8687
 30
0.0
 11
222.356
 21
89.6691
 31
0.0
  0
LINE
  8
0
 62
     0
 10
222.356
 20
89.6691
 30
0.0
 11
223.157
 21
89.6691
 31
0.0
  0
LINE
  8
0
 62
     0
 10
223.157
 20
89.6691
 30
0.0
 11
223.157
 21
92.7682
 31
0.0
  0
LINE
  8
0
 62
     0
 10
223.157
 20
92.7682
 30
0.0
 11
222.356
 21
92.7682
 31
0.0
  0
LINE
  8
0
 62
     0
 10
222.356
 20
92.7682
 30
0.0
 11
222.356
 21
93.7687
 31
0.0
  0
LINE
  8
0
 62
     0
 10
222.356
 20
93.7687
 30
0.0
 11
208.357
 21
93.7687
 31
0.0
  0
LINE
  8
0
 62
     0
 10
227.407
 20
93.7687
 30
0.0
 11
227.407
 21
92.7682
 31
0.0
  0
LINE
  8
0
 62
     0
 10
227.407
 20
92.7682
 30
0.0
 11
226.608
 21
92.7682
 31
0.0
  0
LINE
  8
0
 62
     0
 10
226.608
 20
92.7682
 30
0.0
 11
226.608
 21
89.6691
 31
0.0
  0
LINE
  8
0
 62
     0
 10
226.608
 20
89.6691
 30
0.0
 11
227.407
 21
89.6691
 31
0.0
  0
LINE
  8
0
 62
     0
 10
227.407
 20
89.6691
 30
0.0
 11
227.407
 21
83.8687
 31
0.0
  0
LINE
  8
0
 62
     0
 10
227.407
 20
83.8687
 30
0.0
 11
226.608
 21
83.8687
 31
0.0
  0
LINE
  8
0
 62
     0
 10
226.608
 20
83.8687
 30
0.0
 11
226.608
 21
80.7681
 31
0.0
  0
LINE
  8
0
 62
     0
 10
226.608
 20
80.7681
 30
0.0
 11
227.407
 21
80.7681
 31
0.0
  0
LINE
  8
0
 62
     0
 10
227.407
 20
80.7681
 30
0.0
 11
227.407
 21
79.7691
 31
0.0
  0
LINE
  8
0
 62
     0
 10
227.407
 20
79.7691
 30
0.0
 11
241.406
 21
79.7691
 31
0.0
  0
LINE
  8
0
 62
     0
 10
241.406
 20
79.7691
 30
0.0
 11
241.406
 21
80.7681
 31
0.0
  0
LINE
  8
0
 62
     0
 10
241.406
 20
80.7681
 30
0.0
 11
242.207
 21
80.7681
 31
0.0
  0
LINE
  8
0
 62
     0
 10
242.207
 20
80.7681
 30
0.0
 11
242.207
 21
83.8687
 31
0.0
  0
LINE
  8
0
 62
     0
 10
242.207
 20
83.8687
 30
0.0
 11
241.406
 21
83.8687
 31
0.0
  0
LINE
  8
0
 62
     0
 10
241.406
 20
83.8687
 30
0.0
 11
241.406
 21
89.6691
 31
0.0
  0
LINE
  8
0
 62
     0
 10
241.406
 20
89.6691
 30
0.0
 11
242.207
 21
89.6691
 31
0.0
  0
LINE
  8
0
 62
     0
 10
242.207
 20
89.6691
 30
0.0
 11
242.207
 21
92.7682
 31
0.0
  0
LINE
  8
0
 62
     0
 10
242.207
 20
92.7682
 30
0.0
 11
241.406
 21
92.7682
 31
0.0
  0
LINE
  8
0
 62
     0
 10
241.406
 20
92.7682
 30
0.0
 11
241.406
 21
93.7687
 31
0.0
  0
LINE
  8
0
 62
     0
 10
241.406
 20
93.7687
 30
0.0
 11
227.407
 21
93.7687
 31
0.0
  0
LINE
  8
0
 62
     0
 10
155.969
 20
112.819
 30
0.0
 11
155.969
 21
111.818
 31
0.0
  0
LINE
  8
0
 62
     0
 10
155.969
 20
111.818
 30
0.0
 11
155.17
 21
111.818
 31
0.0
  0
LINE
  8
0
 62
     0
 10
155.17
 20
111.818
 30
0.0
 11
155.17
 21
108.719
 31
0.0
  0
LINE
  8
0
 62
     0
 10
155.17
 20
108.719
 30
0.0
 11
155.969
 21
108.719
 31
0.0
  0
LINE
  8
0
 62
     0
 10
155.969
 20
108.719
 30
0.0
 11
155.969
 21
108.118
 31
0.0
  0
LINE
  8
0
 62
     0
 10
155.969
 20
108.118
 30
0.0
 11
154.445
 21
108.118
 31
0.0
  0
LINE
  8
0
 62
     0
 10
154.445
 20
108.118
 30
0.0
 11
154.445
 21
111.348
 31
0.0
  0
LINE
  8
0
 62
     0
 10
154.445
 20
111.348
 30
0.0
 11
152.72
 21
111.348
 31
0.0
  0
LINE
  8
0
 62
     0
 10
152.72
 20
111.348
 30
0.0
 11
152.72
 21
112.269
 31
0.0
  0
LINE
  8
0
 62
     0
 10
152.72
 20
112.269
 30
0.0
 11
149.419
 21
112.269
 31
0.0
  0
LINE
  8
0
 62
     0
 10
149.419
 20
112.269
 30
0.0
 11
149.419
 21
111.348
 31
0.0
  0
LINE
  8
0
 62
     0
 10
149.419
 20
111.348
 30
0.0
 11
147.695
 21
111.348
 31
0.0
  0
LINE
  8
0
 62
     0
 10
147.695
 20
111.348
 30
0.0
 11
147.695
 21
108.118
 31
0.0
  0
LINE
  8
0
 62
     0
 10
147.695
 20
108.118
 30
0.0
 11
146.87
 21
108.118
 31
0.0
  0
LINE
  8
0
 62
     0
 10
146.87
 20
108.118
 30
0.0
 11
146.87
 21
105.318
 31
0.0
  0
LINE
  8
0
 62
     0
 10
146.87
 20
105.318
 30
0.0
 11
147.695
 21
105.318
 31
0.0
  0
LINE
  8
0
 62
     0
 10
147.695
 20
105.318
 30
0.0
 11
147.695
 21
99.048
 31
0.0
  0
LINE
  8
0
 62
     0
 10
147.695
 20
99.048
 30
0.0
 11
149.419
 21
99.048
 31
0.0
  0
LINE
  8
0
 62
     0
 10
149.419
 20
99.048
 30
0.0
 11
149.419
 21
98.068
 31
0.0
  0
LINE
  8
0
 62
     0
 10
149.419
 20
98.068
 30
0.0
 11
152.72
 21
98.068
 31
0.0
  0
LINE
  8
0
 62
     0
 10
152.72
 20
98.068
 30
0.0
 11
152.72
 21
99.048
 31
0.0
  0
LINE
  8
0
 62
     0
 10
152.72
 20
99.048
 30
0.0
 11
154.445
 21
99.048
 31
0.0
  0
LINE
  8
0
 62
     0
 10
154.445
 20
99.048
 30
0.0
 11
154.445
 21
103.518
 31
0.0
  0
LINE
  8
0
 62
     0
 10
154.445
 20
103.518
 30
0.0
 11
155.969
 21
103.518
 31
0.0
  0
LINE
  8
0
 62
     0
 10
155.969
 20
103.518
 30
0.0
 11
155.969
 21
102.919
 31
0.0
  0
LINE
  8
0
 62
     0
 10
155.969
 20
102.919
 30
0.0
 11
155.17
 21
102.919
 31
0.0
  0
LINE
  8
0
 62
     0
 10
155.17
 20
102.919
 30
0.0
 11
155.17
 21
99.8181
 31
0.0
  0
LINE
  8
0
 62
     0
 10
155.17
 20
99.8181
 30
0.0
 11
155.969
 21
99.8181
 31
0.0
  0
LINE
  8
0
 62
     0
 10
155.969
 20
99.8181
 30
0.0
 11
155.969
 21
98.8191
 31
0.0
  0
LINE
  8
0
 62
     0
 10
155.969
 20
98.8191
 30
0.0
 11
169.97
 21
98.8191
 31
0.0
  0
LINE
  8
0
 62
     0
 10
169.97
 20
98.8191
 30
0.0
 11
169.97
 21
99.8181
 31
0.0
  0
LINE
  8
0
 62
     0
 10
169.97
 20
99.8181
 30
0.0
 11
170.769
 21
99.8181
 31
0.0
  0
LINE
  8
0
 62
     0
 10
170.769
 20
99.8181
 30
0.0
 11
170.769
 21
102.919
 31
0.0
  0
LINE
  8
0
 62
     0
 10
170.769
 20
102.919
 30
0.0
 11
169.97
 21
102.919
 31
0.0
  0
LINE
  8
0
 62
     0
 10
169.97
 20
102.919
 30
0.0
 11
169.97
 21
103.518
 31
0.0
  0
LINE
  8
0
 62
     0
 10
169.97
 20
103.518
 30
0.0
 11
171.494
 21
103.518
 31
0.0
  0
LINE
  8
0
 62
     0
 10
171.494
 20
103.518
 30
0.0
 11
171.494
 21
99.048
 31
0.0
  0
LINE
  8
0
 62
     0
 10
171.494
 20
99.048
 30
0.0
 11
173.22
 21
99.048
 31
0.0
  0
LINE
  8
0
 62
     0
 10
173.22
 20
99.048
 30
0.0
 11
173.22
 21
98.068
 31
0.0
  0
LINE
  8
0
 62
     0
 10
173.22
 20
98.068
 30
0.0
 11
176.52
 21
98.068
 31
0.0
  0
LINE
  8
0
 62
     0
 10
176.52
 20
98.068
 30
0.0
 11
176.52
 21
99.048
 31
0.0
  0
LINE
  8
0
 62
     0
 10
176.52
 20
99.048
 30
0.0
 11
178.245
 21
99.048
 31
0.0
  0
LINE
  8
0
 62
     0
 10
178.245
 20
99.048
 30
0.0
 11
178.245
 21
105.318
 31
0.0
  0
LINE
  8
0
 62
     0
 10
178.245
 20
105.318
 30
0.0
 11
179.069
 21
105.318
 31
0.0
  0
LINE
  8
0
 62
     0
 10
179.069
 20
105.318
 30
0.0
 11
179.069
 21
108.118
 31
0.0
  0
LINE
  8
0
 62
     0
 10
179.069
 20
108.118
 30
0.0
 11
178.245
 21
108.118
 31
0.0
  0
LINE
  8
0
 62
     0
 10
178.245
 20
108.118
 30
0.0
 11
178.245
 21
111.348
 31
0.0
  0
LINE
  8
0
 62
     0
 10
178.245
 20
111.348
 30
0.0
 11
176.52
 21
111.348
 31
0.0
  0
LINE
  8
0
 62
     0
 10
176.52
 20
111.348
 30
0.0
 11
176.52
 21
112.269
 31
0.0
  0
LINE
  8
0
 62
     0
 10
176.52
 20
112.269
 30
0.0
 11
173.22
 21
112.269
 31
0.0
  0
LINE
  8
0
 62
     0
 10
173.22
 20
112.269
 30
0.0
 11
173.22
 21
111.348
 31
0.0
  0
LINE
  8
0
 62
     0
 10
173.22
 20
111.348
 30
0.0
 11
171.494
 21
111.348
 31
0.0
  0
LINE
  8
0
 62
     0
 10
171.494
 20
111.348
 30
0.0
 11
171.494
 21
108.118
 31
0.0
  0
LINE
  8
0
 62
     0
 10
171.494
 20
108.118
 30
0.0
 11
169.97
 21
108.118
 31
0.0
  0
LINE
  8
0
 62
     0
 10
169.97
 20
108.118
 30
0.0
 11
169.97
 21
108.719
 31
0.0
  0
LINE
  8
0
 62
     0
 10
169.97
 20
108.719
 30
0.0
 11
170.769
 21
108.719
 31
0.0
  0
LINE
  8
0
 62
     0
 10
170.769
 20
108.719
 30
0.0
 11
170.769
 21
111.818
 31
0.0
  0
LINE
  8
0
 62
     0
 10
170.769
 20
111.818
 30
0.0
 11
169.97
 21
111.818
 31
0.0
  0
LINE
  8
0
 62
     0
 10
169.97
 20
111.818
 30
0.0
 11
169.97
 21
112.819
 31
0.0
  0
LINE
  8
0
 62
     0
 10
169.97
 20
112.819
 30
0.0
 11
155.969
 21
112.819
 31
0.0
  0
LINE
  8
0
 62
     0
 10
27.3816
 20
112.819
 30
0.0
 11
27.3816
 21
111.818
 31
0.0
  0
LINE
  8
0
 62
     0
 10
27.3816
 20
111.818
 30
0.0
 11
26.5824
 21
111.818
 31
0.0
  0
LINE
  8
0
 62
     0
 10
26.5824
 20
111.818
 30
0.0
 11
26.5824
 21
108.719
 31
0.0
  0
LINE
  8
0
 62
     0
 10
26.5824
 20
108.719
 30
0.0
 11
27.3816
 21
108.719
 31
0.0
  0
LINE
  8
0
 62
     0
 10
27.3816
 20
108.719
 30
0.0
 11
27.3816
 21
102.919
 31
0.0
  0
LINE
  8
0
 62
     0
 10
27.3816
 20
102.919
 30
0.0
 11
26.5824
 21
102.919
 31
0.0
  0
LINE
  8
0
 62
     0
 10
26.5824
 20
102.919
 30
0.0
 11
26.5824
 21
99.8181
 31
0.0
  0
LINE
  8
0
 62
     0
 10
26.5824
 20
99.8181
 30
0.0
 11
27.3816
 21
99.8181
 31
0.0
  0
LINE
  8
0
 62
     0
 10
27.3816
 20
99.8181
 30
0.0
 11
27.3816
 21
98.8191
 31
0.0
  0
LINE
  8
0
 62
     0
 10
27.3816
 20
98.8191
 30
0.0
 11
41.3812
 21
98.8191
 31
0.0
  0
LINE
  8
0
 62
     0
 10
41.3812
 20
98.8191
 30
0.0
 11
41.3812
 21
99.8181
 31
0.0
  0
LINE
  8
0
 62
     0
 10
41.3812
 20
99.8181
 30
0.0
 11
42.1816
 21
99.8181
 31
0.0
  0
LINE
  8
0
 62
     0
 10
42.1816
 20
99.8181
 30
0.0
 11
42.1816
 21
102.919
 31
0.0
  0
LINE
  8
0
 62
     0
 10
42.1816
 20
102.919
 30
0.0
 11
41.3812
 21
102.919
 31
0.0
  0
LINE
  8
0
 62
     0
 10
41.3812
 20
102.919
 30
0.0
 11
41.3812
 21
108.719
 31
0.0
  0
LINE
  8
0
 62
     0
 10
41.3812
 20
108.719
 30
0.0
 11
42.1816
 21
108.719
 31
0.0
  0
LINE
  8
0
 62
     0
 10
42.1816
 20
108.719
 30
0.0
 11
42.1816
 21
111.818
 31
0.0
  0
LINE
  8
0
 62
     0
 10
42.1816
 20
111.818
 30
0.0
 11
41.3812
 21
111.818
 31
0.0
  0
LINE
  8
0
 62
     0
 10
41.3812
 20
111.818
 30
0.0
 11
41.3812
 21
112.819
 31
0.0
  0
LINE
  8
0
 62
     0
 10
41.3812
 20
112.819
 30
0.0
 11
27.3816
 21
112.819
 31
0.0
  0
LINE
  8
0
 62
     0
 10
51.1941
 20
112.819
 30
0.0
 11
51.1941
 21
111.818
 31
0.0
  0
LINE
  8
0
 62
     0
 10
51.1941
 20
111.818
 30
0.0
 11
50.395
 21
111.818
 31
0.0
  0
LINE
  8
0
 62
     0
 10
50.395
 20
111.818
 30
0.0
 11
50.395
 21
108.719
 31
0.0
  0
LINE
  8
0
 62
     0
 10
50.395
 20
108.719
 30
0.0
 11
51.1941
 21
108.719
 31
0.0
  0
LINE
  8
0
 62
     0
 10
51.1941
 20
108.719
 30
0.0
 11
51.1941
 21
102.919
 31
0.0
  0
LINE
  8
0
 62
     0
 10
51.1941
 20
102.919
 30
0.0
 11
50.395
 21
102.919
 31
0.0
  0
LINE
  8
0
 62
     0
 10
50.395
 20
102.919
 30
0.0
 11
50.395
 21
99.8181
 31
0.0
  0
LINE
  8
0
 62
     0
 10
50.395
 20
99.8181
 30
0.0
 11
51.1941
 21
99.8181
 31
0.0
  0
LINE
  8
0
 62
     0
 10
51.1941
 20
99.8181
 30
0.0
 11
51.1941
 21
98.8191
 31
0.0
  0
LINE
  8
0
 62
     0
 10
51.1941
 20
98.8191
 30
0.0
 11
65.1951
 21
98.8191
 31
0.0
  0
LINE
  8
0
 62
     0
 10
65.1951
 20
98.8191
 30
0.0
 11
65.1951
 21
99.8181
 31
0.0
  0
LINE
  8
0
 62
     0
 10
65.1951
 20
99.8181
 30
0.0
 11
65.9941
 21
99.8181
 31
0.0
  0
LINE
  8
0
 62
     0
 10
65.9941
 20
99.8181
 30
0.0
 11
65.9941
 21
102.919
 31
0.0
  0
LINE
  8
0
 62
     0
 10
65.9941
 20
102.919
 30
0.0
 11
65.1951
 21
102.919
 31
0.0
  0
LINE
  8
0
 62
     0
 10
65.1951
 20
102.919
 30
0.0
 11
65.1951
 21
108.719
 31
0.0
  0
LINE
  8
0
 62
     0
 10
65.1951
 20
108.719
 30
0.0
 11
65.9941
 21
108.719
 31
0.0
  0
LINE
  8
0
 62
     0
 10
65.9941
 20
108.719
 30
0.0
 11
65.9941
 21
111.818
 31
0.0
  0
LINE
  8
0
 62
     0
 10
65.9941
 20
111.818
 30
0.0
 11
65.1951
 21
111.818
 31
0.0
  0
LINE
  8
0
 62
     0
 10
65.1951
 20
111.818
 30
0.0
 11
65.1951
 21
112.819
 31
0.0
  0
LINE
  8
0
 62
     0
 10
65.1951
 20
112.819
 30
0.0
 11
51.1941
 21
112.819
 31
0.0
  0
LINE
  8
0
 62
     0
 10
70.2441
 20
112.819
 30
0.0
 11
70.2441
 21
111.818
 31
0.0
  0
LINE
  8
0
 62
     0
 10
70.2441
 20
111.818
 30
0.0
 11
69.445
 21
111.818
 31
0.0
  0
LINE
  8
0
 62
     0
 10
69.445
 20
111.818
 30
0.0
 11
69.445
 21
108.719
 31
0.0
  0
LINE
  8
0
 62
     0
 10
69.445
 20
108.719
 30
0.0
 11
70.2441
 21
108.719
 31
0.0
  0
LINE
  8
0
 62
     0
 10
70.2441
 20
108.719
 30
0.0
 11
70.2441
 21
102.919
 31
0.0
  0
LINE
  8
0
 62
     0
 10
70.2441
 20
102.919
 30
0.0
 11
69.445
 21
102.919
 31
0.0
  0
LINE
  8
0
 62
     0
 10
69.445
 20
102.919
 30
0.0
 11
69.445
 21
99.8181
 31
0.0
  0
LINE
  8
0
 62
     0
 10
69.445
 20
99.8181
 30
0.0
 11
70.2441
 21
99.8181
 31
0.0
  0
LINE
  8
0
 62
     0
 10
70.2441
 20
99.8181
 30
0.0
 11
70.2441
 21
98.8191
 31
0.0
  0
LINE
  8
0
 62
     0
 10
70.2441
 20
98.8191
 30
0.0
 11
84.2451
 21
98.8191
 31
0.0
  0
LINE
  8
0
 62
     0
 10
84.2451
 20
98.8191
 30
0.0
 11
84.2451
 21
99.8181
 31
0.0
  0
LINE
  8
0
 62
     0
 10
84.2451
 20
99.8181
 30
0.0
 11
85.0441
 21
99.8181
 31
0.0
  0
LINE
  8
0
 62
     0
 10
85.0441
 20
99.8181
 30
0.0
 11
85.0441
 21
102.919
 31
0.0
  0
LINE
  8
0
 62
     0
 10
85.0441
 20
102.919
 30
0.0
 11
84.2451
 21
102.919
 31
0.0
  0
LINE
  8
0
 62
     0
 10
84.2451
 20
102.919
 30
0.0
 11
84.2451
 21
108.719
 31
0.0
  0
LINE
  8
0
 62
     0
 10
84.2451
 20
108.719
 30
0.0
 11
85.0441
 21
108.719
 31
0.0
  0
LINE
  8
0
 62
     0
 10
85.0441
 20
108.719
 30
0.0
 11
85.0441
 21
111.818
 31
0.0
  0
LINE
  8
0
 62
     0
 10
85.0441
 20
111.818
 30
0.0
 11
84.2451
 21
111.818
 31
0.0
  0
LINE
  8
0
 62
     0
 10
84.2451
 20
111.818
 30
0.0
 11
84.2451
 21
112.819
 31
0.0
  0
LINE
  8
0
 62
     0
 10
84.2451
 20
112.819
 30
0.0
 11
70.2441
 21
112.819
 31
0.0
  0
LINE
  8
0
 62
     0
 10
89.2941
 20
112.819
 30
0.0
 11
89.2941
 21
111.818
 31
0.0
  0
LINE
  8
0
 62
     0
 10
89.2941
 20
111.818
 30
0.0
 11
88.495
 21
111.818
 31
0.0
  0
LINE
  8
0
 62
     0
 10
88.495
 20
111.818
 30
0.0
 11
88.495
 21
108.719
 31
0.0
  0
LINE
  8
0
 62
     0
 10
88.495
 20
108.719
 30
0.0
 11
89.2941
 21
108.719
 31
0.0
  0
LINE
  8
0
 62
     0
 10
89.2941
 20
108.719
 30
0.0
 11
89.2941
 21
102.919
 31
0.0
  0
LINE
  8
0
 62
     0
 10
89.2941
 20
102.919
 30
0.0
 11
88.495
 21
102.919
 31
0.0
  0
LINE
  8
0
 62
     0
 10
88.495
 20
102.919
 30
0.0
 11
88.495
 21
99.8181
 31
0.0
  0
LINE
  8
0
 62
     0
 10
88.495
 20
99.8181
 30
0.0
 11
89.2941
 21
99.8181
 31
0.0
  0
LINE
  8
0
 62
     0
 10
89.2941
 20
99.8181
 30
0.0
 11
89.2941
 21
98.8191
 31
0.0
  0
LINE
  8
0
 62
     0
 10
89.2941
 20
98.8191
 30
0.0
 11
103.295
 21
98.8191
 31
0.0
  0
LINE
  8
0
 62
     0
 10
103.295
 20
98.8191
 30
0.0
 11
103.295
 21
99.8181
 31
0.0
  0
LINE
  8
0
 62
     0
 10
103.295
 20
99.8181
 30
0.0
 11
104.094
 21
99.8181
 31
0.0
  0
LINE
  8
0
 62
     0
 10
104.094
 20
99.8181
 30
0.0
 11
104.094
 21
102.919
 31
0.0
  0
LINE
  8
0
 62
     0
 10
104.094
 20
102.919
 30
0.0
 11
103.295
 21
102.919
 31
0.0
  0
LINE
  8
0
 62
     0
 10
103.295
 20
102.919
 30
0.0
 11
103.295
 21
108.719
 31
0.0
  0
LINE
  8
0
 62
     0
 10
103.295
 20
108.719
 30
0.0
 11
104.094
 21
108.719
 31
0.0
  0
LINE
  8
0
 62
     0
 10
104.094
 20
108.719
 30
0.0
 11
104.094
 21
111.818
 31
0.0
  0
LINE
  8
0
 62
     0
 10
104.094
 20
111.818
 30
0.0
 11
103.295
 21
111.818
 31
0.0
  0
LINE
  8
0
 62
     0
 10
103.295
 20
111.818
 30
0.0
 11
103.295
 21
112.819
 31
0.0
  0
LINE
  8
0
 62
     0
 10
103.295
 20
112.819
 30
0.0
 11
89.2941
 21
112.819
 31
0.0
  0
LINE
  8
0
 62
     0
 10
108.344
 20
112.819
 30
0.0
 11
108.344
 21
111.818
 31
0.0
  0
LINE
  8
0
 62
     0
 10
108.344
 20
111.818
 30
0.0
 11
107.545
 21
111.818
 31
0.0
  0
LINE
  8
0
 62
     0
 10
107.545
 20
111.818
 30
0.0
 11
107.545
 21
108.719
 31
0.0
  0
LINE
  8
0
 62
     0
 10
107.545
 20
108.719
 30
0.0
 11
108.344
 21
108.719
 31
0.0
  0
LINE
  8
0
 62
     0
 10
108.344
 20
108.719
 30
0.0
 11
108.344
 21
102.919
 31
0.0
  0
LINE
  8
0
 62
     0
 10
108.344
 20
102.919
 30
0.0
 11
107.545
 21
102.919
 31
0.0
  0
LINE
  8
0
 62
     0
 10
107.545
 20
102.919
 30
0.0
 11
107.545
 21
99.8181
 31
0.0
  0
LINE
  8
0
 62
     0
 10
107.545
 20
99.8181
 30
0.0
 11
108.344
 21
99.8181
 31
0.0
  0
LINE
  8
0
 62
     0
 10
108.344
 20
99.8181
 30
0.0
 11
108.344
 21
98.8191
 31
0.0
  0
LINE
  8
0
 62
     0
 10
108.344
 20
98.8191
 30
0.0
 11
122.345
 21
98.8191
 31
0.0
  0
LINE
  8
0
 62
     0
 10
122.345
 20
98.8191
 30
0.0
 11
122.345
 21
99.8181
 31
0.0
  0
LINE
  8
0
 62
     0
 10
122.345
 20
99.8181
 30
0.0
 11
123.144
 21
99.8181
 31
0.0
  0
LINE
  8
0
 62
     0
 10
123.144
 20
99.8181
 30
0.0
 11
123.144
 21
102.919
 31
0.0
  0
LINE
  8
0
 62
     0
 10
123.144
 20
102.919
 30
0.0
 11
122.345
 21
102.919
 31
0.0
  0
LINE
  8
0
 62
     0
 10
122.345
 20
102.919
 30
0.0
 11
122.345
 21
108.719
 31
0.0
  0
LINE
  8
0
 62
     0
 10
122.345
 20
108.719
 30
0.0
 11
123.144
 21
108.719
 31
0.0
  0
LINE
  8
0
 62
     0
 10
123.144
 20
108.719
 30
0.0
 11
123.144
 21
111.818
 31
0.0
  0
LINE
  8
0
 62
     0
 10
123.144
 20
111.818
 30
0.0
 11
122.345
 21
111.818
 31
0.0
  0
LINE
  8
0
 62
     0
 10
122.345
 20
111.818
 30
0.0
 11
122.345
 21
112.819
 31
0.0
  0
LINE
  8
0
 62
     0
 10
122.345
 20
112.819
 30
0.0
 11
108.344
 21
112.819
 31
0.0
  0
LINE
  8
0
 62
     0
 10
127.394
 20
112.819
 30
0.0
 11
127.394
 21
111.818
 31
0.0
  0
LINE
  8
0
 62
     0
 10
127.394
 20
111.818
 30
0.0
 11
126.595
 21
111.818
 31
0.0
  0
LINE
  8
0
 62
     0
 10
126.595
 20
111.818
 30
0.0
 11
126.595
 21
108.719
 31
0.0
  0
LINE
  8
0
 62
     0
 10
126.595
 20
108.719
 30
0.0
 11
127.394
 21
108.719
 31
0.0
  0
LINE
  8
0
 62
     0
 10
127.394
 20
108.719
 30
0.0
 11
127.394
 21
102.919
 31
0.0
  0
LINE
  8
0
 62
     0
 10
127.394
 20
102.919
 30
0.0
 11
126.595
 21
102.919
 31
0.0
  0
LINE
  8
0
 62
     0
 10
126.595
 20
102.919
 30
0.0
 11
126.595
 21
99.8181
 31
0.0
  0
LINE
  8
0
 62
     0
 10
126.595
 20
99.8181
 30
0.0
 11
127.394
 21
99.8181
 31
0.0
  0
LINE
  8
0
 62
     0
 10
127.394
 20
99.8181
 30
0.0
 11
127.394
 21
98.8191
 31
0.0
  0
LINE
  8
0
 62
     0
 10
127.394
 20
98.8191
 30
0.0
 11
141.395
 21
98.8191
 31
0.0
  0
LINE
  8
0
 62
     0
 10
141.395
 20
98.8191
 30
0.0
 11
141.395
 21
99.8181
 31
0.0
  0
LINE
  8
0
 62
     0
 10
141.395
 20
99.8181
 30
0.0
 11
142.194
 21
99.8181
 31
0.0
  0
LINE
  8
0
 62
     0
 10
142.194
 20
99.8181
 30
0.0
 11
142.194
 21
102.919
 31
0.0
  0
LINE
  8
0
 62
     0
 10
142.194
 20
102.919
 30
0.0
 11
141.395
 21
102.919
 31
0.0
  0
LINE
  8
0
 62
     0
 10
141.395
 20
102.919
 30
0.0
 11
141.395
 21
108.719
 31
0.0
  0
LINE
  8
0
 62
     0
 10
141.395
 20
108.719
 30
0.0
 11
142.194
 21
108.719
 31
0.0
  0
LINE
  8
0
 62
     0
 10
142.194
 20
108.719
 30
0.0
 11
142.194
 21
111.818
 31
0.0
  0
LINE
  8
0
 62
     0
 10
142.194
 20
111.818
 30
0.0
 11
141.395
 21
111.818
 31
0.0
  0
LINE
  8
0
 62
     0
 10
141.395
 20
111.818
 30
0.0
 11
141.395
 21
112.819
 31
0.0
  0
LINE
  8
0
 62
     0
 10
141.395
 20
112.819
 30
0.0
 11
127.394
 21
112.819
 31
0.0
  0
LINE
  8
0
 62
     0
 10
189.307
 20
112.819
 30
0.0
 11
189.307
 21
111.818
 31
0.0
  0
LINE
  8
0
 62
     0
 10
189.307
 20
111.818
 30
0.0
 11
188.508
 21
111.818
 31
0.0
  0
LINE
  8
0
 62
     0
 10
188.508
 20
111.818
 30
0.0
 11
188.508
 21
108.719
 31
0.0
  0
LINE
  8
0
 62
     0
 10
188.508
 20
108.719
 30
0.0
 11
189.307
 21
108.719
 31
0.0
  0
LINE
  8
0
 62
     0
 10
189.307
 20
108.719
 30
0.0
 11
189.307
 21
102.919
 31
0.0
  0
LINE
  8
0
 62
     0
 10
189.307
 20
102.919
 30
0.0
 11
188.508
 21
102.919
 31
0.0
  0
LINE
  8
0
 62
     0
 10
188.508
 20
102.919
 30
0.0
 11
188.508
 21
99.8181
 31
0.0
  0
LINE
  8
0
 62
     0
 10
188.508
 20
99.8181
 30
0.0
 11
189.307
 21
99.8181
 31
0.0
  0
LINE
  8
0
 62
     0
 10
189.307
 20
99.8181
 30
0.0
 11
189.307
 21
98.8191
 31
0.0
  0
LINE
  8
0
 62
     0
 10
189.307
 20
98.8191
 30
0.0
 11
203.306
 21
98.8191
 31
0.0
  0
LINE
  8
0
 62
     0
 10
203.306
 20
98.8191
 30
0.0
 11
203.306
 21
99.8181
 31
0.0
  0
LINE
  8
0
 62
     0
 10
203.306
 20
99.8181
 30
0.0
 11
204.107
 21
99.8181
 31
0.0
  0
LINE
  8
0
 62
     0
 10
204.107
 20
99.8181
 30
0.0
 11
204.107
 21
102.919
 31
0.0
  0
LINE
  8
0
 62
     0
 10
204.107
 20
102.919
 30
0.0
 11
203.306
 21
102.919
 31
0.0
  0
LINE
  8
0
 62
     0
 10
203.306
 20
102.919
 30
0.0
 11
203.306
 21
108.719
 31
0.0
  0
LINE
  8
0
 62
     0
 10
203.306
 20
108.719
 30
0.0
 11
204.107
 21
108.719
 31
0.0
  0
LINE
  8
0
 62
     0
 10
204.107
 20
108.719
 30
0.0
 11
204.107
 21
111.818
 31
0.0
  0
LINE
  8
0
 62
     0
 10
204.107
 20
111.818
 30
0.0
 11
203.306
 21
111.818
 31
0.0
  0
LINE
  8
0
 62
     0
 10
203.306
 20
111.818
 30
0.0
 11
203.306
 21
112.819
 31
0.0
  0
LINE
  8
0
 62
     0
 10
203.306
 20
112.819
 30
0.0
 11
189.307
 21
112.819
 31
0.0
  0
LINE
  8
0
 62
     0
 10
208.357
 20
112.819
 30
0.0
 11
208.357
 21
111.818
 31
0.0
  0
LINE
  8
0
 62
     0
 10
208.357
 20
111.818
 30
0.0
 11
207.558
 21
111.818
 31
0.0
  0
LINE
  8
0
 62
     0
 10
207.558
 20
111.818
 30
0.0
 11
207.558
 21
108.719
 31
0.0
  0
LINE
  8
0
 62
     0
 10
207.558
 20
108.719
 30
0.0
 11
208.357
 21
108.719
 31
0.0
  0
LINE
  8
0
 62
     0
 10
208.357
 20
108.719
 30
0.0
 11
208.357
 21
102.919
 31
0.0
  0
LINE
  8
0
 62
     0
 10
208.357
 20
102.919
 30
0.0
 11
207.558
 21
102.919
 31
0.0
  0
LINE
  8
0
 62
     0
 10
207.558
 20
102.919
 30
0.0
 11
207.558
 21
99.8181
 31
0.0
  0
LINE
  8
0
 62
     0
 10
207.558
 20
99.8181
 30
0.0
 11
208.357
 21
99.8181
 31
0.0
  0
LINE
  8
0
 62
     0
 10
208.357
 20
99.8181
 30
0.0
 11
208.357
 21
98.8191
 31
0.0
  0
LINE
  8
0
 62
     0
 10
208.357
 20
98.8191
 30
0.0
 11
222.356
 21
98.8191
 31
0.0
  0
LINE
  8
0
 62
     0
 10
222.356
 20
98.8191
 30
0.0
 11
222.356
 21
99.8181
 31
0.0
  0
LINE
  8
0
 62
     0
 10
222.356
 20
99.8181
 30
0.0
 11
223.157
 21
99.8181
 31
0.0
  0
LINE
  8
0
 62
     0
 10
223.157
 20
99.8181
 30
0.0
 11
223.157
 21
102.919
 31
0.0
  0
LINE
  8
0
 62
     0
 10
223.157
 20
102.919
 30
0.0
 11
222.356
 21
102.919
 31
0.0
  0
LINE
  8
0
 62
     0
 10
222.356
 20
102.919
 30
0.0
 11
222.356
 21
108.719
 31
0.0
  0
LINE
  8
0
 62
     0
 10
222.356
 20
108.719
 30
0.0
 11
223.157
 21
108.719
 31
0.0
  0
LINE
  8
0
 62
     0
 10
223.157
 20
108.719
 30
0.0
 11
223.157
 21
111.818
 31
0.0
  0
LINE
  8
0
 62
     0
 10
223.157
 20
111.818
 30
0.0
 11
222.356
 21
111.818
 31
0.0
  0
LINE
  8
0
 62
     0
 10
222.356
 20
111.818
 30
0.0
 11
222.356
 21
112.819
 31
0.0
  0
LINE
  8
0
 62
     0
 10
222.356
 20
112.819
 30
0.0
 11
208.357
 21
112.819
 31
0.0
  0
LINE
  8
0
 62
     0
 10
227.407
 20
112.819
 30
0.0
 11
227.407
 21
111.818
 31
0.0
  0
LINE
  8
0
 62
     0
 10
227.407
 20
111.818
 30
0.0
 11
226.608
 21
111.818
 31
0.0
  0
LINE
  8
0
 62
     0
 10
226.608
 20
111.818
 30
0.0
 11
226.608
 21
108.719
 31
0.0
  0
LINE
  8
0
 62
     0
 10
226.608
 20
108.719
 30
0.0
 11
227.407
 21
108.719
 31
0.0
  0
LINE
  8
0
 62
     0
 10
227.407
 20
108.719
 30
0.0
 11
227.407
 21
102.919
 31
0.0
  0
LINE
  8
0
 62
     0
 10
227.407
 20
102.919
 30
0.0
 11
226.608
 21
102.919
 31
0.0
  0
LINE
  8
0
 62
     0
 10
226.608
 20
102.919
 30
0.0
 11
226.608
 21
99.8181
 31
0.0
  0
LINE
  8
0
 62
     0
 10
226.608
 20
99.8181
 30
0.0
 11
227.407
 21
99.8181
 31
0.0
  0
LINE
  8
0
 62
     0
 10
227.407
 20
99.8181
 30
0.0
 11
227.407
 21
98.8191
 31
0.0
  0
LINE
  8
0
 62
     0
 10
227.407
 20
98.8191
 30
0.0
 11
241.406
 21
98.8191
 31
0.0
  0
LINE
  8
0
 62
     0
 10
241.406
 20
98.8191
 30
0.0
 11
241.406
 21
99.8181
 31
0.0
  0
LINE
  8
0
 62
     0
 10
241.406
 20
99.8181
 30
0.0
 11
242.207
 21
99.8181
 31
0.0
  0
LINE
  8
0
 62
     0
 10
242.207
 20
99.8181
 30
0.0
 11
242.207
 21
102.919
 31
0.0
  0
LINE
  8
0
 62
     0
 10
242.207
 20
102.919
 30
0.0
 11
241.406
 21
102.919
 31
0.0
  0
LINE
  8
0
 62
     0
 10
241.406
 20
102.919
 30
0.0
 11
241.406
 21
108.719
 31
0.0
  0
LINE
  8
0
 62
     0
 10
241.406
 20
108.719
 30
0.0
 11
242.207
 21
108.719
 31
0.0
  0
LINE
  8
0
 62
     0
 10
242.207
 20
108.719
 30
0.0
 11
242.207
 21
111.818
 31
0.0
  0
LINE
  8
0
 62
     0
 10
242.207
 20
111.818
 30
0.0
 11
241.406
 21
111.818
 31
0.0
  0
LINE
  8
0
 62
     0
 10
241.406
 20
111.818
 30
0.0
 11
241.406
 21
112.819
 31
0.0
  0
LINE
  8
0
 62
     0
 10
241.406
 20
112.819
 30
0.0
 11
227.407
 21
112.819
 31
0.0
  0
LINE
  8
0
 62
     0
 10
27.3816
 20
136.631
 30
0.0
 11
27.3816
 21
135.631
 31
0.0
  0
LINE
  8
0
 62
     0
 10
27.3816
 20
135.631
 30
0.0
 11
26.5824
 21
135.631
 31
0.0
  0
LINE
  8
0
 62
     0
 10
26.5824
 20
135.631
 30
0.0
 11
26.5824
 21
132.53
 31
0.0
  0
LINE
  8
0
 62
     0
 10
26.5824
 20
132.53
 30
0.0
 11
27.3816
 21
132.53
 31
0.0
  0
LINE
  8
0
 62
     0
 10
27.3816
 20
132.53
 30
0.0
 11
27.3816
 21
126.73
 31
0.0
  0
LINE
  8
0
 62
     0
 10
27.3816
 20
126.73
 30
0.0
 11
26.5824
 21
126.73
 31
0.0
  0
LINE
  8
0
 62
     0
 10
26.5824
 20
126.73
 30
0.0
 11
26.5824
 21
123.631
 31
0.0
  0
LINE
  8
0
 62
     0
 10
26.5824
 20
123.631
 30
0.0
 11
27.3816
 21
123.631
 31
0.0
  0
LINE
  8
0
 62
     0
 10
27.3816
 20
123.631
 30
0.0
 11
27.3816
 21
122.63
 31
0.0
  0
LINE
  8
0
 62
     0
 10
27.3816
 20
122.63
 30
0.0
 11
41.3812
 21
122.63
 31
0.0
  0
LINE
  8
0
 62
     0
 10
41.3812
 20
122.63
 30
0.0
 11
41.3812
 21
123.631
 31
0.0
  0
LINE
  8
0
 62
     0
 10
41.3812
 20
123.631
 30
0.0
 11
42.1816
 21
123.631
 31
0.0
  0
LINE
  8
0
 62
     0
 10
42.1816
 20
123.631
 30
0.0
 11
42.1816
 21
126.73
 31
0.0
  0
LINE
  8
0
 62
     0
 10
42.1816
 20
126.73
 30
0.0
 11
41.3812
 21
126.73
 31
0.0
  0
LINE
  8
0
 62
     0
 10
41.3812
 20
126.73
 30
0.0
 11
41.3812
 21
132.53
 31
0.0
  0
LINE
  8
0
 62
     0
 10
41.3812
 20
132.53
 30
0.0
 11
42.1816
 21
132.53
 31
0.0
  0
LINE
  8
0
 62
     0
 10
42.1816
 20
132.53
 30
0.0
 11
42.1816
 21
135.631
 31
0.0
  0
LINE
  8
0
 62
     0
 10
42.1816
 20
135.631
 30
0.0
 11
41.3812
 21
135.631
 31
0.0
  0
LINE
  8
0
 62
     0
 10
41.3812
 20
135.631
 30
0.0
 11
41.3812
 21
136.631
 31
0.0
  0
LINE
  8
0
 62
     0
 10
41.3812
 20
136.631
 30
0.0
 11
27.3816
 21
136.631
 31
0.0
  0
LINE
  8
0
 62
     0
 10
46.4316
 20
136.631
 30
0.0
 11
46.4316
 21
135.631
 31
0.0
  0
LINE
  8
0
 62
     0
 10
46.4316
 20
135.631
 30
0.0
 11
45.6325
 21
135.631
 31
0.0
  0
LINE
  8
0
 62
     0
 10
45.6325
 20
135.631
 30
0.0
 11
45.6325
 21
132.53
 31
0.0
  0
LINE
  8
0
 62
     0
 10
45.6325
 20
132.53
 30
0.0
 11
46.4316
 21
132.53
 31
0.0
  0
LINE
  8
0
 62
     0
 10
46.4316
 20
132.53
 30
0.0
 11
46.4316
 21
126.73
 31
0.0
  0
LINE
  8
0
 62
     0
 10
46.4316
 20
126.73
 30
0.0
 11
45.6325
 21
126.73
 31
0.0
  0
LINE
  8
0
 62
     0
 10
45.6325
 20
126.73
 30
0.0
 11
45.6325
 21
123.631
 31
0.0
  0
LINE
  8
0
 62
     0
 10
45.6325
 20
123.631
 30
0.0
 11
46.4316
 21
123.631
 31
0.0
  0
LINE
  8
0
 62
     0
 10
46.4316
 20
123.631
 30
0.0
 11
46.4316
 21
122.63
 31
0.0
  0
LINE
  8
0
 62
     0
 10
46.4316
 20
122.63
 30
0.0
 11
60.4312
 21
122.63
 31
0.0
  0
LINE
  8
0
 62
     0
 10
60.4312
 20
122.63
 30
0.0
 11
60.4312
 21
123.631
 31
0.0
  0
LINE
  8
0
 62
     0
 10
60.4312
 20
123.631
 30
0.0
 11
61.2316
 21
123.631
 31
0.0
  0
LINE
  8
0
 62
     0
 10
61.2316
 20
123.631
 30
0.0
 11
61.2316
 21
126.73
 31
0.0
  0
LINE
  8
0
 62
     0
 10
61.2316
 20
126.73
 30
0.0
 11
60.4312
 21
126.73
 31
0.0
  0
LINE
  8
0
 62
     0
 10
60.4312
 20
126.73
 30
0.0
 11
60.4312
 21
132.53
 31
0.0
  0
LINE
  8
0
 62
     0
 10
60.4312
 20
132.53
 30
0.0
 11
61.2316
 21
132.53
 31
0.0
  0
LINE
  8
0
 62
     0
 10
61.2316
 20
132.53
 30
0.0
 11
61.2316
 21
135.631
 31
0.0
  0
LINE
  8
0
 62
     0
 10
61.2316
 20
135.631
 30
0.0
 11
60.4312
 21
135.631
 31
0.0
  0
LINE
  8
0
 62
     0
 10
60.4312
 20
135.631
 30
0.0
 11
60.4312
 21
136.631
 31
0.0
  0
LINE
  8
0
 62
     0
 10
60.4312
 20
136.631
 30
0.0
 11
46.4316
 21
136.631
 31
0.0
  0
LINE
  8
0
 62
     0
 10
65.4816
 20
136.631
 30
0.0
 11
65.4816
 21
135.631
 31
0.0
  0
LINE
  8
0
 62
     0
 10
65.4816
 20
135.631
 30
0.0
 11
64.6825
 21
135.631
 31
0.0
  0
LINE
  8
0
 62
     0
 10
64.6825
 20
135.631
 30
0.0
 11
64.6825
 21
132.53
 31
0.0
  0
LINE
  8
0
 62
     0
 10
64.6825
 20
132.53
 30
0.0
 11
65.4816
 21
132.53
 31
0.0
  0
LINE
  8
0
 62
     0
 10
65.4816
 20
132.53
 30
0.0
 11
65.4816
 21
126.73
 31
0.0
  0
LINE
  8
0
 62
     0
 10
65.4816
 20
126.73
 30
0.0
 11
64.6825
 21
126.73
 31
0.0
  0
LINE
  8
0
 62
     0
 10
64.6825
 20
126.73
 30
0.0
 11
64.6825
 21
123.631
 31
0.0
  0
LINE
  8
0
 62
     0
 10
64.6825
 20
123.631
 30
0.0
 11
65.4816
 21
123.631
 31
0.0
  0
LINE
  8
0
 62
     0
 10
65.4816
 20
123.631
 30
0.0
 11
65.4816
 21
122.63
 31
0.0
  0
LINE
  8
0
 62
     0
 10
65.4816
 20
122.63
 30
0.0
 11
79.4812
 21
122.63
 31
0.0
  0
LINE
  8
0
 62
     0
 10
79.4812
 20
122.63
 30
0.0
 11
79.4812
 21
123.631
 31
0.0
  0
LINE
  8
0
 62
     0
 10
79.4812
 20
123.631
 30
0.0
 11
80.2816
 21
123.631
 31
0.0
  0
LINE
  8
0
 62
     0
 10
80.2816
 20
123.631
 30
0.0
 11
80.2816
 21
126.73
 31
0.0
  0
LINE
  8
0
 62
     0
 10
80.2816
 20
126.73
 30
0.0
 11
79.4812
 21
126.73
 31
0.0
  0
LINE
  8
0
 62
     0
 10
79.4812
 20
126.73
 30
0.0
 11
79.4812
 21
132.53
 31
0.0
  0
LINE
  8
0
 62
     0
 10
79.4812
 20
132.53
 30
0.0
 11
80.2816
 21
132.53
 31
0.0
  0
LINE
  8
0
 62
     0
 10
80.2816
 20
132.53
 30
0.0
 11
80.2816
 21
135.631
 31
0.0
  0
LINE
  8
0
 62
     0
 10
80.2816
 20
135.631
 30
0.0
 11
79.4812
 21
135.631
 31
0.0
  0
LINE
  8
0
 62
     0
 10
79.4812
 20
135.631
 30
0.0
 11
79.4812
 21
136.631
 31
0.0
  0
LINE
  8
0
 62
     0
 10
79.4812
 20
136.631
 30
0.0
 11
65.4816
 21
136.631
 31
0.0
  0
LINE
  8
0
 62
     0
 10
84.5316
 20
136.631
 30
0.0
 11
84.5316
 21
135.631
 31
0.0
  0
LINE
  8
0
 62
     0
 10
84.5316
 20
135.631
 30
0.0
 11
83.7325
 21
135.631
 31
0.0
  0
LINE
  8
0
 62
     0
 10
83.7325
 20
135.631
 30
0.0
 11
83.7325
 21
132.53
 31
0.0
  0
LINE
  8
0
 62
     0
 10
83.7325
 20
132.53
 30
0.0
 11
84.5316
 21
132.53
 31
0.0
  0
LINE
  8
0
 62
     0
 10
84.5316
 20
132.53
 30
0.0
 11
84.5316
 21
126.73
 31
0.0
  0
LINE
  8
0
 62
     0
 10
84.5316
 20
126.73
 30
0.0
 11
83.7325
 21
126.73
 31
0.0
  0
LINE
  8
0
 62
     0
 10
83.7325
 20
126.73
 30
0.0
 11
83.7325
 21
123.631
 31
0.0
  0
LINE
  8
0
 62
     0
 10
83.7325
 20
123.631
 30
0.0
 11
84.5316
 21
123.631
 31
0.0
  0
LINE
  8
0
 62
     0
 10
84.5316
 20
123.631
 30
0.0
 11
84.5316
 21
122.63
 31
0.0
  0
LINE
  8
0
 62
     0
 10
84.5316
 20
122.63
 30
0.0
 11
98.5312
 21
122.63
 31
0.0
  0
LINE
  8
0
 62
     0
 10
98.5312
 20
122.63
 30
0.0
 11
98.5312
 21
123.631
 31
0.0
  0
LINE
  8
0
 62
     0
 10
98.5312
 20
123.631
 30
0.0
 11
99.3316
 21
123.631
 31
0.0
  0
LINE
  8
0
 62
     0
 10
99.3316
 20
123.631
 30
0.0
 11
99.3316
 21
126.73
 31
0.0
  0
LINE
  8
0
 62
     0
 10
99.3316
 20
126.73
 30
0.0
 11
98.5312
 21
126.73
 31
0.0
  0
LINE
  8
0
 62
     0
 10
98.5312
 20
126.73
 30
0.0
 11
98.5312
 21
132.53
 31
0.0
  0
LINE
  8
0
 62
     0
 10
98.5312
 20
132.53
 30
0.0
 11
99.3316
 21
132.53
 31
0.0
  0
LINE
  8
0
 62
     0
 10
99.3316
 20
132.53
 30
0.0
 11
99.3316
 21
135.631
 31
0.0
  0
LINE
  8
0
 62
     0
 10
99.3316
 20
135.631
 30
0.0
 11
98.5312
 21
135.631
 31
0.0
  0
LINE
  8
0
 62
     0
 10
98.5312
 20
135.631
 30
0.0
 11
98.5312
 21
136.631
 31
0.0
  0
LINE
  8
0
 62
     0
 10
98.5312
 20
136.631
 30
0.0
 11
84.5316
 21
136.631
 31
0.0
  0
LINE
  8
0
 62
     0
 10
108.344
 20
136.631
 30
0.0
 11
108.344
 21
135.631
 31
0.0
  0
LINE
  8
0
 62
     0
 10
108.344
 20
135.631
 30
0.0
 11
107.545
 21
135.631
 31
0.0
  0
LINE
  8
0
 62
     0
 10
107.545
 20
135.631
 30
0.0
 11
107.545
 21
132.53
 31
0.0
  0
LINE
  8
0
 62
     0
 10
107.545
 20
132.53
 30
0.0
 11
108.344
 21
132.53
 31
0.0
  0
LINE
  8
0
 62
     0
 10
108.344
 20
132.53
 30
0.0
 11
108.344
 21
126.73
 31
0.0
  0
LINE
  8
0
 62
     0
 10
108.344
 20
126.73
 30
0.0
 11
107.545
 21
126.73
 31
0.0
  0
LINE
  8
0
 62
     0
 10
107.545
 20
126.73
 30
0.0
 11
107.545
 21
123.631
 31
0.0
  0
LINE
  8
0
 62
     0
 10
107.545
 20
123.631
 30
0.0
 11
108.344
 21
123.631
 31
0.0
  0
LINE
  8
0
 62
     0
 10
108.344
 20
123.631
 30
0.0
 11
108.344
 21
122.63
 31
0.0
  0
LINE
  8
0
 62
     0
 10
108.344
 20
122.63
 30
0.0
 11
122.345
 21
122.63
 31
0.0
  0
LINE
  8
0
 62
     0
 10
122.345
 20
122.63
 30
0.0
 11
122.345
 21
123.631
 31
0.0
  0
LINE
  8
0
 62
     0
 10
122.345
 20
123.631
 30
0.0
 11
123.144
 21
123.631
 31
0.0
  0
LINE
  8
0
 62
     0
 10
123.144
 20
123.631
 30
0.0
 11
123.144
 21
126.73
 31
0.0
  0
LINE
  8
0
 62
     0
 10
123.144
 20
126.73
 30
0.0
 11
122.345
 21
126.73
 31
0.0
  0
LINE
  8
0
 62
     0
 10
122.345
 20
126.73
 30
0.0
 11
122.345
 21
132.53
 31
0.0
  0
LINE
  8
0
 62
     0
 10
122.345
 20
132.53
 30
0.0
 11
123.144
 21
132.53
 31
0.0
  0
LINE
  8
0
 62
     0
 10
123.144
 20
132.53
 30
0.0
 11
123.144
 21
135.631
 31
0.0
  0
LINE
  8
0
 62
     0
 10
123.144
 20
135.631
 30
0.0
 11
122.345
 21
135.631
 31
0.0
  0
LINE
  8
0
 62
     0
 10
122.345
 20
135.631
 30
0.0
 11
122.345
 21
136.631
 31
0.0
  0
LINE
  8
0
 62
     0
 10
122.345
 20
136.631
 30
0.0
 11
108.344
 21
136.631
 31
0.0
  0
LINE
  8
0
 62
     0
 10
127.394
 20
136.631
 30
0.0
 11
127.394
 21
135.631
 31
0.0
  0
LINE
  8
0
 62
     0
 10
127.394
 20
135.631
 30
0.0
 11
126.595
 21
135.631
 31
0.0
  0
LINE
  8
0
 62
     0
 10
126.595
 20
135.631
 30
0.0
 11
126.595
 21
132.53
 31
0.0
  0
LINE
  8
0
 62
     0
 10
126.595
 20
132.53
 30
0.0
 11
127.394
 21
132.53
 31
0.0
  0
LINE
  8
0
 62
     0
 10
127.394
 20
132.53
 30
0.0
 11
127.394
 21
126.73
 31
0.0
  0
LINE
  8
0
 62
     0
 10
127.394
 20
126.73
 30
0.0
 11
126.595
 21
126.73
 31
0.0
  0
LINE
  8
0
 62
     0
 10
126.595
 20
126.73
 30
0.0
 11
126.595
 21
123.631
 31
0.0
  0
LINE
  8
0
 62
     0
 10
126.595
 20
123.631
 30
0.0
 11
127.394
 21
123.631
 31
0.0
  0
LINE
  8
0
 62
     0
 10
127.394
 20
123.631
 30
0.0
 11
127.394
 21
122.63
 31
0.0
  0
LINE
  8
0
 62
     0
 10
127.394
 20
122.63
 30
0.0
 11
141.395
 21
122.63
 31
0.0
  0
LINE
  8
0
 62
     0
 10
141.395
 20
122.63
 30
0.0
 11
141.395
 21
123.631
 31
0.0
  0
LINE
  8
0
 62
     0
 10
141.395
 20
123.631
 30
0.0
 11
142.194
 21
123.631
 31
0.0
  0
LINE
  8
0
 62
     0
 10
142.194
 20
123.631
 30
0.0
 11
142.194
 21
126.73
 31
0.0
  0
LINE
  8
0
 62
     0
 10
142.194
 20
126.73
 30
0.0
 11
141.395
 21
126.73
 31
0.0
  0
LINE
  8
0
 62
     0
 10
141.395
 20
126.73
 30
0.0
 11
141.395
 21
132.53
 31
0.0
  0
LINE
  8
0
 62
     0
 10
141.395
 20
132.53
 30
0.0
 11
142.194
 21
132.53
 31
0.0
  0
LINE
  8
0
 62
     0
 10
142.194
 20
132.53
 30
0.0
 11
142.194
 21
135.631
 31
0.0
  0
LINE
  8
0
 62
     0
 10
142.194
 20
135.631
 30
0.0
 11
141.395
 21
135.631
 31
0.0
  0
LINE
  8
0
 62
     0
 10
141.395
 20
135.631
 30
0.0
 11
141.395
 21
136.631
 31
0.0
  0
LINE
  8
0
 62
     0
 10
141.395
 20
136.631
 30
0.0
 11
127.394
 21
136.631
 31
0.0
  0
LINE
  8
0
 62
     0
 10
146.444
 20
136.631
 30
0.0
 11
146.444
 21
135.631
 31
0.0
  0
LINE
  8
0
 62
     0
 10
146.444
 20
135.631
 30
0.0
 11
145.645
 21
135.631
 31
0.0
  0
LINE
  8
0
 62
     0
 10
145.645
 20
135.631
 30
0.0
 11
145.645
 21
132.53
 31
0.0
  0
LINE
  8
0
 62
     0
 10
145.645
 20
132.53
 30
0.0
 11
146.444
 21
132.53
 31
0.0
  0
LINE
  8
0
 62
     0
 10
146.444
 20
132.53
 30
0.0
 11
146.444
 21
126.73
 31
0.0
  0
LINE
  8
0
 62
     0
 10
146.444
 20
126.73
 30
0.0
 11
145.645
 21
126.73
 31
0.0
  0
LINE
  8
0
 62
     0
 10
145.645
 20
126.73
 30
0.0
 11
145.645
 21
123.631
 31
0.0
  0
LINE
  8
0
 62
     0
 10
145.645
 20
123.631
 30
0.0
 11
146.444
 21
123.631
 31
0.0
  0
LINE
  8
0
 62
     0
 10
146.444
 20
123.631
 30
0.0
 11
146.444
 21
122.63
 31
0.0
  0
LINE
  8
0
 62
     0
 10
146.444
 20
122.63
 30
0.0
 11
160.445
 21
122.63
 31
0.0
  0
LINE
  8
0
 62
     0
 10
160.445
 20
122.63
 30
0.0
 11
160.445
 21
123.631
 31
0.0
  0
LINE
  8
0
 62
     0
 10
160.445
 20
123.631
 30
0.0
 11
161.244
 21
123.631
 31
0.0
  0
LINE
  8
0
 62
     0
 10
161.244
 20
123.631
 30
0.0
 11
161.244
 21
126.73
 31
0.0
  0
LINE
  8
0
 62
     0
 10
161.244
 20
126.73
 30
0.0
 11
160.445
 21
126.73
 31
0.0
  0
LINE
  8
0
 62
     0
 10
160.445
 20
126.73
 30
0.0
 11
160.445
 21
132.53
 31
0.0
  0
LINE
  8
0
 62
     0
 10
160.445
 20
132.53
 30
0.0
 11
161.244
 21
132.53
 31
0.0
  0
LINE
  8
0
 62
     0
 10
161.244
 20
132.53
 30
0.0
 11
161.244
 21
135.631
 31
0.0
  0
LINE
  8
0
 62
     0
 10
161.244
 20
135.631
 30
0.0
 11
160.445
 21
135.631
 31
0.0
  0
LINE
  8
0
 62
     0
 10
160.445
 20
135.631
 30
0.0
 11
160.445
 21
136.631
 31
0.0
  0
LINE
  8
0
 62
     0
 10
160.445
 20
136.631
 30
0.0
 11
146.444
 21
136.631
 31
0.0
  0
LINE
  8
0
 62
     0
 10
165.494
 20
136.631
 30
0.0
 11
165.494
 21
135.631
 31
0.0
  0
LINE
  8
0
 62
     0
 10
165.494
 20
135.631
 30
0.0
 11
164.695
 21
135.631
 31
0.0
  0
LINE
  8
0
 62
     0
 10
164.695
 20
135.631
 30
0.0
 11
164.695
 21
132.53
 31
0.0
  0
LINE
  8
0
 62
     0
 10
164.695
 20
132.53
 30
0.0
 11
165.494
 21
132.53
 31
0.0
  0
LINE
  8
0
 62
     0
 10
165.494
 20
132.53
 30
0.0
 11
165.494
 21
126.73
 31
0.0
  0
LINE
  8
0
 62
     0
 10
165.494
 20
126.73
 30
0.0
 11
164.695
 21
126.73
 31
0.0
  0
LINE
  8
0
 62
     0
 10
164.695
 20
126.73
 30
0.0
 11
164.695
 21
123.631
 31
0.0
  0
LINE
  8
0
 62
     0
 10
164.695
 20
123.631
 30
0.0
 11
165.494
 21
123.631
 31
0.0
  0
LINE
  8
0
 62
     0
 10
165.494
 20
123.631
 30
0.0
 11
165.494
 21
122.63
 31
0.0
  0
LINE
  8
0
 62
     0
 10
165.494
 20
122.63
 30
0.0
 11
179.495
 21
122.63
 31
0.0
  0
LINE
  8
0
 62
     0
 10
179.495
 20
122.63
 30
0.0
 11
179.495
 21
123.631
 31
0.0
  0
LINE
  8
0
 62
     0
 10
179.495
 20
123.631
 30
0.0
 11
180.294
 21
123.631
 31
0.0
  0
LINE
  8
0
 62
     0
 10
180.294
 20
123.631
 30
0.0
 11
180.294
 21
126.73
 31
0.0
  0
LINE
  8
0
 62
     0
 10
180.294
 20
126.73
 30
0.0
 11
179.495
 21
126.73
 31
0.0
  0
LINE
  8
0
 62
     0
 10
179.495
 20
126.73
 30
0.0
 11
179.495
 21
132.53
 31
0.0
  0
LINE
  8
0
 62
     0
 10
179.495
 20
132.53
 30
0.0
 11
180.294
 21
132.53
 31
0.0
  0
LINE
  8
0
 62
     0
 10
180.294
 20
132.53
 30
0.0
 11
180.294
 21
135.631
 31
0.0
  0
LINE
  8
0
 62
     0
 10
180.294
 20
135.631
 30
0.0
 11
179.495
 21
135.631
 31
0.0
  0
LINE
  8
0
 62
     0
 10
179.495
 20
135.631
 30
0.0
 11
179.495
 21
136.631
 31
0.0
  0
LINE
  8
0
 62
     0
 10
179.495
 20
136.631
 30
0.0
 11
165.494
 21
136.631
 31
0.0
  0
LINE
  8
0
 62
     0
 10
189.307
 20
136.631
 30
0.0
 11
189.307
 21
135.631
 31
0.0
  0
LINE
  8
0
 62
     0
 10
189.307
 20
135.631
 30
0.0
 11
188.508
 21
135.631
 31
0.0
  0
LINE
  8
0
 62
     0
 10
188.508
 20
135.631
 30
0.0
 11
188.508
 21
132.53
 31
0.0
  0
LINE
  8
0
 62
     0
 10
188.508
 20
132.53
 30
0.0
 11
189.307
 21
132.53
 31
0.0
  0
LINE
  8
0
 62
     0
 10
189.307
 20
132.53
 30
0.0
 11
189.307
 21
126.73
 31
0.0
  0
LINE
  8
0
 62
     0
 10
189.307
 20
126.73
 30
0.0
 11
188.508
 21
126.73
 31
0.0
  0
LINE
  8
0
 62
     0
 10
188.508
 20
126.73
 30
0.0
 11
188.508
 21
123.631
 31
0.0
  0
LINE
  8
0
 62
     0
 10
188.508
 20
123.631
 30
0.0
 11
189.307
 21
123.631
 31
0.0
  0
LINE
  8
0
 62
     0
 10
189.307
 20
123.631
 30
0.0
 11
189.307
 21
122.63
 31
0.0
  0
LINE
  8
0
 62
     0
 10
189.307
 20
122.63
 30
0.0
 11
203.306
 21
122.63
 31
0.0
  0
LINE
  8
0
 62
     0
 10
203.306
 20
122.63
 30
0.0
 11
203.306
 21
123.631
 31
0.0
  0
LINE
  8
0
 62
     0
 10
203.306
 20
123.631
 30
0.0
 11
204.107
 21
123.631
 31
0.0
  0
LINE
  8
0
 62
     0
 10
204.107
 20
123.631
 30
0.0
 11
204.107
 21
126.73
 31
0.0
  0
LINE
  8
0
 62
     0
 10
204.107
 20
126.73
 30
0.0
 11
203.306
 21
126.73
 31
0.0
  0
LINE
  8
0
 62
     0
 10
203.306
 20
126.73
 30
0.0
 11
203.306
 21
132.53
 31
0.0
  0
LINE
  8
0
 62
     0
 10
203.306
 20
132.53
 30
0.0
 11
204.107
 21
132.53
 31
0.0
  0
LINE
  8
0
 62
     0
 10
204.107
 20
132.53
 30
0.0
 11
204.107
 21
135.631
 31
0.0
  0
LINE
  8
0
 62
     0
 10
204.107
 20
135.631
 30
0.0
 11
203.306
 21
135.631
 31
0.0
  0
LINE
  8
0
 62
     0
 10
203.306
 20
135.631
 30
0.0
 11
203.306
 21
136.631
 31
0.0
  0
LINE
  8
0
 62
     0
 10
203.306
 20
136.631
 30
0.0
 11
189.307
 21
136.631
 31
0.0
  0
LINE
  8
0
 62
     0
 10
208.357
 20
136.631
 30
0.0
 11
208.357
 21
135.631
 31
0.0
  0
LINE
  8
0
 62
     0
 10
208.357
 20
135.631
 30
0.0
 11
207.558
 21
135.631
 31
0.0
  0
LINE
  8
0
 62
     0
 10
207.558
 20
135.631
 30
0.0
 11
207.558
 21
132.53
 31
0.0
  0
LINE
  8
0
 62
     0
 10
207.558
 20
132.53
 30
0.0
 11
208.357
 21
132.53
 31
0.0
  0
LINE
  8
0
 62
     0
 10
208.357
 20
132.53
 30
0.0
 11
208.357
 21
126.73
 31
0.0
  0
LINE
  8
0
 62
     0
 10
208.357
 20
126.73
 30
0.0
 11
207.558
 21
126.73
 31
0.0
  0
LINE
  8
0
 62
     0
 10
207.558
 20
126.73
 30
0.0
 11
207.558
 21
123.631
 31
0.0
  0
LINE
  8
0
 62
     0
 10
207.558
 20
123.631
 30
0.0
 11
208.357
 21
123.631
 31
0.0
  0
LINE
  8
0
 62
     0
 10
208.357
 20
123.631
 30
0.0
 11
208.357
 21
122.63
 31
0.0
  0
LINE
  8
0
 62
     0
 10
208.357
 20
122.63
 30
0.0
 11
222.356
 21
122.63
 31
0.0
  0
LINE
  8
0
 62
     0
 10
222.356
 20
122.63
 30
0.0
 11
222.356
 21
123.631
 31
0.0
  0
LINE
  8
0
 62
     0
 10
222.356
 20
123.631
 30
0.0
 11
223.157
 21
123.631
 31
0.0
  0
LINE
  8
0
 62
     0
 10
223.157
 20
123.631
 30
0.0
 11
223.157
 21
126.73
 31
0.0
  0
LINE
  8
0
 62
     0
 10
223.157
 20
126.73
 30
0.0
 11
222.356
 21
126.73
 31
0.0
  0
LINE
  8
0
 62
     0
 10
222.356
 20
126.73
 30
0.0
 11
222.356
 21
132.53
 31
0.0
  0
LINE
  8
0
 62
     0
 10
222.356
 20
132.53
 30
0.0
 11
223.157
 21
132.53
 31
0.0
  0
LINE
  8
0
 62
     0
 10
223.157
 20
132.53
 30
0.0
 11
223.157
 21
135.631
 31
0.0
  0
LINE
  8
0
 62
     0
 10
223.157
 20
135.631
 30
0.0
 11
222.356
 21
135.631
 31
0.0
  0
LINE
  8
0
 62
     0
 10
222.356
 20
135.631
 30
0.0
 11
222.356
 21
136.631
 31
0.0
  0
LINE
  8
0
 62
     0
 10
222.356
 20
136.631
 30
0.0
 11
208.357
 21
136.631
 31
0.0
  0
LINE
  8
0
 62
     0
 10
227.407
 20
136.631
 30
0.0
 11
227.407
 21
135.631
 31
0.0
  0
LINE
  8
0
 62
     0
 10
227.407
 20
135.631
 30
0.0
 11
226.608
 21
135.631
 31
0.0
  0
LINE
  8
0
 62
     0
 10
226.608
 20
135.631
 30
0.0
 11
226.608
 21
132.53
 31
0.0
  0
LINE
  8
0
 62
     0
 10
226.608
 20
132.53
 30
0.0
 11
227.407
 21
132.53
 31
0.0
  0
LINE
  8
0
 62
     0
 10
227.407
 20
132.53
 30
0.0
 11
227.407
 21
126.73
 31
0.0
  0
LINE
  8
0
 62
     0
 10
227.407
 20
126.73
 30
0.0
 11
226.608
 21
126.73
 31
0.0
  0
LINE
  8
0
 62
     0
 10
226.608
 20
126.73
 30
0.0
 11
226.608
 21
123.631
 31
0.0
  0
LINE
  8
0
 62
     0
 10
226.608
 20
123.631
 30
0.0
 11
227.407
 21
123.631
 31
0.0
  0
LINE
  8
0
 62
     0
 10
227.407
 20
123.631
 30
0.0
 11
227.407
 21
122.63
 31
0.0
  0
LINE
  8
0
 62
     0
 10
227.407
 20
122.63
 30
0.0
 11
241.406
 21
122.63
 31
0.0
  0
LINE
  8
0
 62
     0
 10
241.406
 20
122.63
 30
0.0
 11
241.406
 21
123.631
 31
0.0
  0
LINE
  8
0
 62
     0
 10
241.406
 20
123.631
 30
0.0
 11
242.207
 21
123.631
 31
0.0
  0
LINE
  8
0
 62
     0
 10
242.207
 20
123.631
 30
0.0
 11
242.207
 21
126.73
 31
0.0
  0
LINE
  8
0
 62
     0
 10
242.207
 20
126.73
 30
0.0
 11
241.406
 21
126.73
 31
0.0
  0
LINE
  8
0
 62
     0
 10
241.406
 20
126.73
 30
0.0
 11
241.406
 21
132.53
 31
0.0
  0
LINE
  8
0
 62
     0
 10
241.406
 20
132.53
 30
0.0
 11
242.207
 21
132.53
 31
0.0
  0
LINE
  8
0
 62
     0
 10
242.207
 20
132.53
 30
0.0
 11
242.207
 21
135.631
 31
0.0
  0
LINE
  8
0
 62
     0
 10
242.207
 20
135.631
 30
0.0
 11
241.406
 21
135.631
 31
0.0
  0
LINE
  8
0
 62
     0
 10
241.406
 20
135.631
 30
0.0
 11
241.406
 21
136.631
 31
0.0
  0
LINE
  8
0
 62
     0
 10
241.406
 20
136.631
 30
0.0
 11
227.407
 21
136.631
 31
0.0
  0
LINE
  8
0
 62
     0
 10
253.005
 20
152.01
 30
0.0
 11
252.17
 21
151.583
 31
0.0
  0
LINE
  8
0
 62
     0
 10
252.17
 20
151.583
 30
0.0
 11
251.506
 21
150.92
 31
0.0
  0
LINE
  8
0
 62
     0
 10
251.506
 20
150.92
 30
0.0
 11
251.08
 21
150.084
 31
0.0
  0
LINE
  8
0
 62
     0
 10
251.08
 20
150.084
 30
0.0
 11
250.933
 21
149.156
 31
0.0
  0
LINE
  8
0
 62
     0
 10
250.933
 20
149.156
 30
0.0
 11
251.08
 21
148.229
 31
0.0
  0
LINE
  8
0
 62
     0
 10
251.08
 20
148.229
 30
0.0
 11
251.506
 21
147.392
 31
0.0
  0
LINE
  8
0
 62
     0
 10
251.506
 20
147.392
 30
0.0
 11
252.17
 21
146.728
 31
0.0
  0
LINE
  8
0
 62
     0
 10
252.17
 20
146.728
 30
0.0
 11
253.005
 21
146.302
 31
0.0
  0
LINE
  8
0
 62
     0
 10
253.005
 20
146.302
 30
0.0
 11
253.933
 21
146.156
 31
0.0
  0
LINE
  8
0
 62
     0
 10
253.933
 20
146.156
 30
0.0
 11
254.86
 21
146.302
 31
0.0
  0
LINE
  8
0
 62
     0
 10
254.86
 20
146.302
 30
0.0
 11
255.697
 21
146.728
 31
0.0
  0
LINE
  8
0
 62
     0
 10
255.697
 20
146.728
 30
0.0
 11
256.359
 21
147.392
 31
0.0
  0
LINE
  8
0
 62
     0
 10
256.359
 20
147.392
 30
0.0
 11
256.785
 21
148.229
 31
0.0
  0
LINE
  8
0
 62
     0
 10
256.785
 20
148.229
 30
0.0
 11
256.933
 21
149.156
 31
0.0
  0
LINE
  8
0
 62
     0
 10
256.933
 20
149.156
 30
0.0
 11
256.785
 21
150.084
 31
0.0
  0
LINE
  8
0
 62
     0
 10
256.785
 20
150.084
 30
0.0
 11
256.359
 21
150.92
 31
0.0
  0
LINE
  8
0
 62
     0
 10
256.359
 20
150.92
 30
0.0
 11
255.697
 21
151.583
 31
0.0
  0
LINE
  8
0
 62
     0
 10
255.697
 20
151.583
 30
0.0
 11
254.86
 21
152.01
 31
0.0
  0
LINE
  8
0
 62
     0
 10
254.86
 20
152.01
 30
0.0
 11
253.933
 21
152.156
 31
0.0
  0
LINE
  8
0
 62
     0
 10
253.933
 20
152.156
 30
0.0
 11
253.005
 21
152.01
 31
0.0
  0
LINE
  8
0
 62
     0
 10
9.16672
 20
152.01
 30
0.0
 11
8.33025
 21
151.583
 31
0.0
  0
LINE
  8
0
 62
     0
 10
8.33025
 20
151.583
 30
0.0
 11
7.66741
 21
150.92
 31
0.0
  0
LINE
  8
0
 62
     0
 10
7.66741
 20
150.92
 30
0.0
 11
7.2402
 21
150.084
 31
0.0
  0
LINE
  8
0
 62
     0
 10
7.2402
 20
150.084
 30
0.0
 11
7.09415
 21
149.156
 31
0.0
  0
LINE
  8
0
 62
     0
 10
7.09415
 20
149.156
 30
0.0
 11
7.2402
 21
148.229
 31
0.0
  0
LINE
  8
0
 62
     0
 10
7.2402
 20
148.229
 30
0.0
 11
7.66741
 21
147.392
 31
0.0
  0
LINE
  8
0
 62
     0
 10
7.66741
 20
147.392
 30
0.0
 11
8.33025
 21
146.728
 31
0.0
  0
LINE
  8
0
 62
     0
 10
8.33025
 20
146.728
 30
0.0
 11
9.16672
 21
146.302
 31
0.0
  0
LINE
  8
0
 62
     0
 10
9.16672
 20
146.302
 30
0.0
 11
10.0941
 21
146.156
 31
0.0
  0
LINE
  8
0
 62
     0
 10
10.0941
 20
146.156
 30
0.0
 11
11.0216
 21
146.302
 31
0.0
  0
LINE
  8
0
 62
     0
 10
11.0216
 20
146.302
 30
0.0
 11
11.858
 21
146.728
 31
0.0
  0
LINE
  8
0
 62
     0
 10
11.858
 20
146.728
 30
0.0
 11
12.5222
 21
147.392
 31
0.0
  0
LINE
  8
0
 62
     0
 10
12.5222
 20
147.392
 30
0.0
 11
12.948
 21
148.229
 31
0.0
  0
LINE
  8
0
 62
     0
 10
12.948
 20
148.229
 30
0.0
 11
13.0941
 21
149.156
 31
0.0
  0
LINE
  8
0
 62
     0
 10
13.0941
 20
149.156
 30
0.0
 11
12.948
 21
150.084
 31
0.0
  0
LINE
  8
0
 62
     0
 10
12.948
 20
150.084
 30
0.0
 11
12.5222
 21
150.92
 31
0.0
  0
LINE
  8
0
 62
     0
 10
12.5222
 20
150.92
 30
0.0
 11
11.858
 21
151.583
 31
0.0
  0
LINE
  8
0
 62
     0
 10
11.858
 20
151.583
 30
0.0
 11
11.0216
 21
152.01
 31
0.0
  0
LINE
  8
0
 62
     0
 10
11.0216
 20
152.01
 30
0.0
 11
10.0941
 21
152.156
 31
0.0
  0
LINE
  8
0
 62
     0
 10
10.0941
 20
152.156
 30
0.0
 11
9.16672
 21
152.01
 31
0.0
  0
ENDSEC
  0
EOF
