  0
SECTION
  2
HEADER
  9
$ACADVER
  1
AC1009
  9
$EXTMIN
 10
0.0
 20
0.0
 30
0.0
  9
$EXTMAX
 10
1000.0
 20
1000.0
 30
0.0
  9
$FILLMODE
 70
 0
  9
$SPLFRAME
 70
 1
  0
ENDSEC
  0
SECTION
  2
TABLES
  0
TABLE
  2
LAYER
 70
1
  0
LAYER
  2
0
 70
     0
 62
     7
  6
CONTINUOUS
  0
ENDTAB
  0
ENDSEC
  0
SECTION
  2
ENTITIES
  0
POLYLINE
  8
0
 62
     5
 66
     1
 10
0
 20
0
 30
0.0
 70
     1
 40
0.107136
 41
0.107136
  0
VERTEX
  8
0
 10
19.7421
 20
1.76357
 30
0.0
 40
0.001488
 41
0.001488
  0
VERTEX
  8
0
 10
19.6047
 20
1.59044
 30
0.0
 40
0.001488
 41
0.001488
  0
VERTEX
  8
0
 10
19.456
 20
1.42708
 30
0.0
 40
0.001488
 41
0.001488
  0
VERTEX
  8
0
 10
19.2964
 20
1.2742
 30
0.0
 40
0.001488
 41
0.001488
  0
VERTEX
  8
0
 10
19.2401
 20
1.22716
 30
0.0
 40
0.001488
 41
0.001488
  0
VERTEX
  8
0
 10
19.2028
 20
1.19586
 30
0.0
 40
0.001488
 41
0.001488
  0
VERTEX
  8
0
 10
19.1269
 20
1.13243
 30
0.0
 40
0.001488
 41
0.001488
  0
VERTEX
  8
0
 10
18.9482
 20
1.0025
 30
0.0
 40
0.001488
 41
0.001488
  0
VERTEX
  8
0
 10
18.761
 20
0.884983
 30
0.0
 40
0.001488
 41
0.001488
  0
VERTEX
  8
0
 10
18.5663
 20
0.780436
 30
0.0
 40
0.001488
 41
0.001488
  0
VERTEX
  8
0
 10
18.365
 20
0.689344
 30
0.0
 40
0.001488
 41
0.001488
  0
VERTEX
  8
0
 10
18.1579
 20
0.612033
 30
0.0
 40
0.001488
 41
0.001488
  0
VERTEX
  8
0
 10
17.9501
 20
0.550185
 30
0.0
 40
0.001488
 41
0.001488
  0
VERTEX
  8
0
 10
17.9461
 20
0.54899
 30
0.0
 40
0.001488
 41
0.001488
  0
VERTEX
  8
0
 10
17.7306
 20
0.500489
 30
0.0
 40
0.001488
 41
0.001488
  0
VERTEX
  8
0
 10
17.7299
 20
0.500379
 30
0.0
 40
0.001488
 41
0.001488
  0
VERTEX
  8
0
 10
17.7108
 20
0.497775
 30
0.0
 40
0.001488
 41
0.001488
  0
VERTEX
  8
0
 10
17.7093
 20
0.497612
 30
0.0
 40
0.001488
 41
0.001488
  0
VERTEX
  8
0
 10
17.6997
 20
0.497071
 30
0.0
 40
0.001488
 41
0.001488
  0
VERTEX
  8
0
 10
15.37
 20
0.427518
 30
0.0
 40
0.001488
 41
0.001488
  0
VERTEX
  8
0
 10
5.04932
 20
0.119358
 30
0.0
 40
0.001488
 41
0.001488
  0
VERTEX
  8
0
 10
2.61128
 20
0.0465494
 30
0.0
 40
0.001488
 41
0.001488
  0
VERTEX
  8
0
 10
2.59706
 20
0.0466581
 30
0.0
 40
0.001488
 41
0.001488
  0
VERTEX
  8
0
 10
2.58285
 20
0.0477974
 30
0.0
 40
0.001488
 41
0.001488
  0
VERTEX
  8
0
 10
2.56874
 20
0.0499132
 30
0.0
 40
0.001488
 41
0.001488
  0
VERTEX
  8
0
 10
2.46918
 20
0.0723742
 30
0.0
 40
0.001488
 41
0.001488
  0
VERTEX
  8
0
 10
2.36139
 20
0.0966797
 30
0.0
 40
0.001488
 41
0.001488
  0
VERTEX
  8
0
 10
2.15771
 20
0.157443
 30
0.0
 40
0.001488
 41
0.001488
  0
VERTEX
  8
0
 10
1.95865
 20
0.231988
 30
0.0
 40
0.001488
 41
0.001488
  0
VERTEX
  8
0
 10
1.76514
 20
0.319988
 30
0.0
 40
0.001488
 41
0.001488
  0
VERTEX
  8
0
 10
1.57813
 20
0.421007
 30
0.0
 40
0.001488
 41
0.001488
  0
VERTEX
  8
0
 10
1.39849
 20
0.534506
 30
0.0
 40
0.001488
 41
0.001488
  0
VERTEX
  8
0
 10
1.22694
 20
0.660101
 30
0.0
 40
0.001488
 41
0.001488
  0
VERTEX
  8
0
 10
1.0644
 20
0.797092
 30
0.0
 40
0.001488
 41
0.001488
  0
VERTEX
  8
0
 10
0.911621
 20
0.944824
 30
0.0
 40
0.001488
 41
0.001488
  0
VERTEX
  8
0
 10
0.769314
 20
1.1027
 30
0.0
 40
0.001488
 41
0.001488
  0
VERTEX
  8
0
 10
0.696181
 20
1.19586
 30
0.0
 40
0.001488
 41
0.001488
  0
VERTEX
  8
0
 10
0.638075
 20
1.26991
 30
0.0
 40
0.001488
 41
0.001488
  0
VERTEX
  8
0
 10
0.518554
 20
1.44569
 30
0.0
 40
0.001488
 41
0.001488
  0
VERTEX
  8
0
 10
0.41135
 20
1.62924
 30
0.0
 40
0.001488
 41
0.001488
  0
VERTEX
  8
0
 10
0.316949
 20
1.81967
 30
0.0
 40
0.001488
 41
0.001488
  0
VERTEX
  8
0
 10
0.30816
 20
1.84093
 30
0.0
 40
0.001488
 41
0.001488
  0
VERTEX
  8
0
 10
0.235786
 20
2.01611
 30
0.0
 40
0.001488
 41
0.001488
  0
VERTEX
  8
0
 10
0.168186
 20
2.21767
 30
0.0
 40
0.001488
 41
0.001488
  0
VERTEX
  8
0
 10
0.114583
 20
2.42329
 30
0.0
 40
0.001488
 41
0.001488
  0
VERTEX
  8
0
 10
0.102702
 20
2.48594
 30
0.0
 40
0.001488
 41
0.001488
  0
VERTEX
  8
0
 10
0.0750868
 20
2.63217
 30
0.0
 40
0.001488
 41
0.001488
  0
VERTEX
  8
0
 10
0.0500217
 20
2.84321
 30
0.0
 40
0.001488
 41
0.001488
  0
VERTEX
  8
0
 10
0.0393881
 20
3.0555
 30
0.0
 40
0.001488
 41
0.001488
  0
VERTEX
  8
0
 10
0.0432943
 20
3.26801
 30
0.0
 40
0.001488
 41
0.001488
  0
VERTEX
  8
0
 10
0.0616863
 20
3.47982
 30
0.0
 40
0.001488
 41
0.001488
  0
VERTEX
  8
0
 10
0.0945096
 20
3.68978
 30
0.0
 40
0.001488
 41
0.001488
  0
VERTEX
  8
0
 10
0.423503
 20
5.06608
 30
0.0
 40
0.001488
 41
0.001488
  0
VERTEX
  8
0
 10
1.04015
 20
7.64626
 30
0.0
 40
0.001488
 41
0.001488
  0
VERTEX
  8
0
 10
1.48579
 20
9.51074
 30
0.0
 40
0.001488
 41
0.001488
  0
VERTEX
  8
0
 10
1.50028
 20
9.55117
 30
0.0
 40
0.001488
 41
0.001488
  0
VERTEX
  8
0
 10
1.52317
 20
9.58751
 30
0.0
 40
0.001488
 41
0.001488
  0
VERTEX
  8
0
 10
1.55339
 20
9.618
 30
0.0
 40
0.001488
 41
0.001488
  0
VERTEX
  8
0
 10
1.58951
 20
9.64122
 30
0.0
 40
0.001488
 41
0.001488
  0
VERTEX
  8
0
 10
1.62983
 20
9.65608
 30
0.0
 40
0.001488
 41
0.001488
  0
VERTEX
  8
0
 10
1.67236
 20
9.66178
 30
0.0
 40
0.001488
 41
0.001488
  0
VERTEX
  8
0
 10
1.72547
 20
9.66308
 30
0.0
 40
0.001488
 41
0.001488
  0
VERTEX
  8
0
 10
2.24154
 20
9.67583
 30
0.0
 40
0.001488
 41
0.001488
  0
VERTEX
  8
0
 10
2.46918
 20
9.68147
 30
0.0
 40
0.001488
 41
0.001488
  0
VERTEX
  8
0
 10
3.11421
 20
9.69743
 30
0.0
 40
0.001488
 41
0.001488
  0
VERTEX
  8
0
 10
3.75928
 20
9.71337
 30
0.0
 40
0.001488
 41
0.001488
  0
VERTEX
  8
0
 10
5.04932
 20
9.74533
 30
0.0
 40
0.001488
 41
0.001488
  0
VERTEX
  8
0
 10
10.2096
 20
9.87299
 30
0.0
 40
0.001488
 41
0.001488
  0
VERTEX
  8
0
 10
15.026
 20
9.99214
 30
0.0
 40
0.001488
 41
0.001488
  0
VERTEX
  8
0
 10
15.37
 20
10.0007
 30
0.0
 40
0.001488
 41
0.001488
  0
VERTEX
  8
0
 10
15.5419
 20
10.0049
 30
0.0
 40
0.001488
 41
0.001488
  0
VERTEX
  8
0
 10
16.66
 20
10.0326
 30
0.0
 40
0.001488
 41
0.001488
  0
VERTEX
  8
0
 10
17.305
 20
10.0485
 30
0.0
 40
0.001488
 41
0.001488
  0
VERTEX
  8
0
 10
17.9501
 20
10.0645
 30
0.0
 40
0.001488
 41
0.001488
  0
VERTEX
  8
0
 10
18.7485
 20
10.0842
 30
0.0
 40
0.001488
 41
0.001488
  0
VERTEX
  8
0
 10
18.8056
 20
10.0856
 30
0.0
 40
0.001488
 41
0.001488
  0
VERTEX
  8
0
 10
18.8501
 20
10.0817
 30
0.0
 40
0.001488
 41
0.001488
  0
VERTEX
  8
0
 10
18.8926
 20
10.0678
 30
0.0
 40
0.001488
 41
0.001488
  0
VERTEX
  8
0
 10
18.9308
 20
10.0447
 30
0.0
 40
0.001488
 41
0.001488
  0
VERTEX
  8
0
 10
18.9628
 20
10.0136
 30
0.0
 40
0.001488
 41
0.001488
  0
VERTEX
  8
0
 10
18.9869
 20
9.97597
 30
0.0
 40
0.001488
 41
0.001488
  0
VERTEX
  8
0
 10
19.0021
 20
9.93397
 30
0.0
 40
0.001488
 41
0.001488
  0
VERTEX
  8
0
 10
19.5408
 20
7.64626
 30
0.0
 40
0.001488
 41
0.001488
  0
VERTEX
  8
0
 10
20.1485
 20
5.06608
 30
0.0
 40
0.001488
 41
0.001488
  0
VERTEX
  8
0
 10
20.2838
 20
4.49132
 30
0.0
 40
0.001488
 41
0.001488
  0
VERTEX
  8
0
 10
20.3301
 20
4.27522
 30
0.0
 40
0.001488
 41
0.001488
  0
VERTEX
  8
0
 10
20.3617
 20
4.05647
 30
0.0
 40
0.001488
 41
0.001488
  0
VERTEX
  8
0
 10
20.3782
 20
3.83615
 30
0.0
 40
0.001488
 41
0.001488
  0
VERTEX
  8
0
 10
20.3788
 20
3.77604
 30
0.0
 40
0.001488
 41
0.001488
  0
VERTEX
  8
0
 10
20.38
 20
3.61518
 30
0.0
 40
0.001488
 41
0.001488
  0
VERTEX
  8
0
 10
20.3665
 20
3.39458
 30
0.0
 40
0.001488
 41
0.001488
  0
VERTEX
  8
0
 10
20.3383
 20
3.17546
 30
0.0
 40
0.001488
 41
0.001488
  0
VERTEX
  8
0
 10
20.2953
 20
2.95871
 30
0.0
 40
0.001488
 41
0.001488
  0
VERTEX
  8
0
 10
20.2376
 20
2.74533
 30
0.0
 40
0.001488
 41
0.001488
  0
VERTEX
  8
0
 10
20.1863
 20
2.59625
 30
0.0
 40
0.001488
 41
0.001488
  0
VERTEX
  8
0
 10
20.1657
 20
2.53646
 30
0.0
 40
0.001488
 41
0.001488
  0
VERTEX
  8
0
 10
20.1443
 20
2.48594
 30
0.0
 40
0.001488
 41
0.001488
  0
VERTEX
  8
0
 10
20.0797
 20
2.3329
 30
0.0
 40
0.001488
 41
0.001488
  0
VERTEX
  8
0
 10
19.9801
 20
2.13558
 30
0.0
 40
0.001488
 41
0.001488
  0
VERTEX
  8
0
 10
19.8675
 20
1.94553
 30
0.0
 40
0.001488
 41
0.001488
  0
VERTEX
  8
0
 10
19.7421
 20
1.76357
 30
0.0
 40
0.001488
 41
0.001488
  0
SEQEND
 8
0
  0
POLYLINE
  8
0
 62
     5
 66
     1
 10
0
 20
0
 30
0.0
 70
     1
 40
0.107136
 41
0.107136
  0
VERTEX
  8
0
 10
2.79167
 20
9.08751
 30
0.0
 40
0.001488
 41
0.001488
  0
VERTEX
  8
0
 10
2.78478
 20
9.0976
 30
0.0
 40
0.001488
 41
0.001488
  0
VERTEX
  8
0
 10
2.78315
 20
9.09993
 30
0.0
 40
0.001488
 41
0.001488
  0
VERTEX
  8
0
 10
2.76361
 20
9.11724
 30
0.0
 40
0.001488
 41
0.001488
  0
VERTEX
  8
0
 10
2.7405
 20
9.12939
 30
0.0
 40
0.001488
 41
0.001488
  0
VERTEX
  8
0
 10
2.71517
 20
9.13558
 30
0.0
 40
0.001488
 41
0.001488
  0
VERTEX
  8
0
 10
2.68907
 20
9.13558
 30
0.0
 40
0.001488
 41
0.001488
  0
VERTEX
  8
0
 10
2.66368
 20
9.12939
 30
0.0
 40
0.001488
 41
0.001488
  0
VERTEX
  8
0
 10
2.64057
 20
9.11724
 30
0.0
 40
0.001488
 41
0.001488
  0
VERTEX
  8
0
 10
2.62104
 20
9.09993
 30
0.0
 40
0.001488
 41
0.001488
  0
VERTEX
  8
0
 10
2.61947
 20
9.0976
 30
0.0
 40
0.001488
 41
0.001488
  0
VERTEX
  8
0
 10
2.60622
 20
9.07844
 30
0.0
 40
0.001488
 41
0.001488
  0
VERTEX
  8
0
 10
2.59694
 20
9.05404
 30
0.0
 40
0.001488
 41
0.001488
  0
VERTEX
  8
0
 10
2.59381
 20
9.0281
 30
0.0
 40
0.001488
 41
0.001488
  0
VERTEX
  8
0
 10
2.59694
 20
9.00222
 30
0.0
 40
0.001488
 41
0.001488
  0
VERTEX
  8
0
 10
2.60622
 20
8.97781
 30
0.0
 40
0.001488
 41
0.001488
  0
VERTEX
  8
0
 10
2.62104
 20
8.95632
 30
0.0
 40
0.001488
 41
0.001488
  0
VERTEX
  8
0
 10
2.64057
 20
8.93901
 30
0.0
 40
0.001488
 41
0.001488
  0
VERTEX
  8
0
 10
2.64567
 20
8.93636
 30
0.0
 40
0.001488
 41
0.001488
  0
VERTEX
  8
0
 10
2.66368
 20
8.92686
 30
0.0
 40
0.001488
 41
0.001488
  0
VERTEX
  8
0
 10
2.68907
 20
8.92062
 30
0.0
 40
0.001488
 41
0.001488
  0
VERTEX
  8
0
 10
2.71517
 20
8.92062
 30
0.0
 40
0.001488
 41
0.001488
  0
VERTEX
  8
0
 10
2.7405
 20
8.92686
 30
0.0
 40
0.001488
 41
0.001488
  0
VERTEX
  8
0
 10
2.75851
 20
8.93636
 30
0.0
 40
0.001488
 41
0.001488
  0
VERTEX
  8
0
 10
2.76361
 20
8.93901
 30
0.0
 40
0.001488
 41
0.001488
  0
VERTEX
  8
0
 10
2.78315
 20
8.95632
 30
0.0
 40
0.001488
 41
0.001488
  0
VERTEX
  8
0
 10
2.79167
 20
8.96869
 30
0.0
 40
0.001488
 41
0.001488
  0
VERTEX
  8
0
 10
2.79796
 20
8.97781
 30
0.0
 40
0.001488
 41
0.001488
  0
VERTEX
  8
0
 10
2.80718
 20
9.00222
 30
0.0
 40
0.001488
 41
0.001488
  0
VERTEX
  8
0
 10
2.81033
 20
9.0281
 30
0.0
 40
0.001488
 41
0.001488
  0
VERTEX
  8
0
 10
2.80718
 20
9.05404
 30
0.0
 40
0.001488
 41
0.001488
  0
VERTEX
  8
0
 10
2.79796
 20
9.07844
 30
0.0
 40
0.001488
 41
0.001488
  0
VERTEX
  8
0
 10
2.79167
 20
9.08751
 30
0.0
 40
0.001488
 41
0.001488
  0
SEQEND
 8
0
  0
POLYLINE
  8
0
 62
     5
 66
     1
 10
0
 20
0
 30
0.0
 70
     1
 40
0.107136
 41
0.107136
  0
VERTEX
  8
0
 10
19.2076
 20
2.59
 30
0.0
 40
0.001488
 41
0.001488
  0
VERTEX
  8
0
 10
19.1846
 20
2.57785
 30
0.0
 40
0.001488
 41
0.001488
  0
VERTEX
  8
0
 10
19.165
 20
2.56054
 30
0.0
 40
0.001488
 41
0.001488
  0
VERTEX
  8
0
 10
19.1501
 20
2.53911
 30
0.0
 40
0.001488
 41
0.001488
  0
VERTEX
  8
0
 10
19.141
 20
2.51471
 30
0.0
 40
0.001488
 41
0.001488
  0
VERTEX
  8
0
 10
19.1378
 20
2.48876
 30
0.0
 40
0.001488
 41
0.001488
  0
VERTEX
  8
0
 10
19.1382
 20
2.48594
 30
0.0
 40
0.001488
 41
0.001488
  0
VERTEX
  8
0
 10
19.141
 20
2.46289
 30
0.0
 40
0.001488
 41
0.001488
  0
VERTEX
  8
0
 10
19.1501
 20
2.43847
 30
0.0
 40
0.001488
 41
0.001488
  0
VERTEX
  8
0
 10
19.165
 20
2.41699
 30
0.0
 40
0.001488
 41
0.001488
  0
VERTEX
  8
0
 10
19.1846
 20
2.39968
 30
0.0
 40
0.001488
 41
0.001488
  0
VERTEX
  8
0
 10
19.2076
 20
2.38753
 30
0.0
 40
0.001488
 41
0.001488
  0
VERTEX
  8
0
 10
19.2331
 20
2.38129
 30
0.0
 40
0.001488
 41
0.001488
  0
VERTEX
  8
0
 10
19.2592
 20
2.38129
 30
0.0
 40
0.001488
 41
0.001488
  0
VERTEX
  8
0
 10
19.2844
 20
2.38753
 30
0.0
 40
0.001488
 41
0.001488
  0
VERTEX
  8
0
 10
19.3075
 20
2.39968
 30
0.0
 40
0.001488
 41
0.001488
  0
VERTEX
  8
0
 10
19.3271
 20
2.41699
 30
0.0
 40
0.001488
 41
0.001488
  0
VERTEX
  8
0
 10
19.3419
 20
2.43847
 30
0.0
 40
0.001488
 41
0.001488
  0
VERTEX
  8
0
 10
19.3513
 20
2.46289
 30
0.0
 40
0.001488
 41
0.001488
  0
VERTEX
  8
0
 10
19.354
 20
2.48594
 30
0.0
 40
0.001488
 41
0.001488
  0
VERTEX
  8
0
 10
19.3543
 20
2.48876
 30
0.0
 40
0.001488
 41
0.001488
  0
VERTEX
  8
0
 10
19.3513
 20
2.51471
 30
0.0
 40
0.001488
 41
0.001488
  0
VERTEX
  8
0
 10
19.3419
 20
2.53911
 30
0.0
 40
0.001488
 41
0.001488
  0
VERTEX
  8
0
 10
19.3271
 20
2.56054
 30
0.0
 40
0.001488
 41
0.001488
  0
VERTEX
  8
0
 10
19.3075
 20
2.57785
 30
0.0
 40
0.001488
 41
0.001488
  0
VERTEX
  8
0
 10
19.2844
 20
2.59
 30
0.0
 40
0.001488
 41
0.001488
  0
VERTEX
  8
0
 10
19.2592
 20
2.59625
 30
0.0
 40
0.001488
 41
0.001488
  0
VERTEX
  8
0
 10
19.2331
 20
2.59625
 30
0.0
 40
0.001488
 41
0.001488
  0
VERTEX
  8
0
 10
19.2076
 20
2.59
 30
0.0
 40
0.001488
 41
0.001488
  0
SEQEND
 8
0
  0
POLYLINE
  8
0
 62
     5
 66
     1
 10
0
 20
0
 30
0.0
 70
     1
 40
0.107136
 41
0.107136
  0
VERTEX
  8
0
 10
17.8894
 20
9.48557
 30
0.0
 40
0.001488
 41
0.001488
  0
VERTEX
  8
0
 10
17.8803
 20
9.50999
 30
0.0
 40
0.001488
 41
0.001488
  0
VERTEX
  8
0
 10
17.8653
 20
9.53147
 30
0.0
 40
0.001488
 41
0.001488
  0
VERTEX
  8
0
 10
17.8458
 20
9.54878
 30
0.0
 40
0.001488
 41
0.001488
  0
VERTEX
  8
0
 10
17.8226
 20
9.56093
 30
0.0
 40
0.001488
 41
0.001488
  0
VERTEX
  8
0
 10
17.7974
 20
9.56711
 30
0.0
 40
0.001488
 41
0.001488
  0
VERTEX
  8
0
 10
17.7713
 20
9.56711
 30
0.0
 40
0.001488
 41
0.001488
  0
VERTEX
  8
0
 10
17.746
 20
9.56093
 30
0.0
 40
0.001488
 41
0.001488
  0
VERTEX
  8
0
 10
17.7228
 20
9.54878
 30
0.0
 40
0.001488
 41
0.001488
  0
VERTEX
  8
0
 10
17.7033
 20
9.53147
 30
0.0
 40
0.001488
 41
0.001488
  0
VERTEX
  8
0
 10
17.6885
 20
9.50999
 30
0.0
 40
0.001488
 41
0.001488
  0
VERTEX
  8
0
 10
17.6792
 20
9.48557
 30
0.0
 40
0.001488
 41
0.001488
  0
VERTEX
  8
0
 10
17.6761
 20
9.45964
 30
0.0
 40
0.001488
 41
0.001488
  0
VERTEX
  8
0
 10
17.6792
 20
9.43375
 30
0.0
 40
0.001488
 41
0.001488
  0
VERTEX
  8
0
 10
17.6843
 20
9.42014
 30
0.0
 40
0.001488
 41
0.001488
  0
VERTEX
  8
0
 10
17.6885
 20
9.40935
 30
0.0
 40
0.001488
 41
0.001488
  0
VERTEX
  8
0
 10
17.7033
 20
9.38786
 30
0.0
 40
0.001488
 41
0.001488
  0
VERTEX
  8
0
 10
17.7228
 20
9.37056
 30
0.0
 40
0.001488
 41
0.001488
  0
VERTEX
  8
0
 10
17.746
 20
9.3584
 30
0.0
 40
0.001488
 41
0.001488
  0
VERTEX
  8
0
 10
17.7713
 20
9.35215
 30
0.0
 40
0.001488
 41
0.001488
  0
VERTEX
  8
0
 10
17.7974
 20
9.35215
 30
0.0
 40
0.001488
 41
0.001488
  0
VERTEX
  8
0
 10
17.8226
 20
9.3584
 30
0.0
 40
0.001488
 41
0.001488
  0
VERTEX
  8
0
 10
17.8458
 20
9.37056
 30
0.0
 40
0.001488
 41
0.001488
  0
VERTEX
  8
0
 10
17.8653
 20
9.38786
 30
0.0
 40
0.001488
 41
0.001488
  0
VERTEX
  8
0
 10
17.8803
 20
9.40935
 30
0.0
 40
0.001488
 41
0.001488
  0
VERTEX
  8
0
 10
17.8843
 20
9.42014
 30
0.0
 40
0.001488
 41
0.001488
  0
VERTEX
  8
0
 10
17.8894
 20
9.43375
 30
0.0
 40
0.001488
 41
0.001488
  0
VERTEX
  8
0
 10
17.8926
 20
9.45964
 30
0.0
 40
0.001488
 41
0.001488
  0
VERTEX
  8
0
 10
17.8894
 20
9.48557
 30
0.0
 40
0.001488
 41
0.001488
  0
SEQEND
 8
0
  0
POLYLINE
  8
0
 62
     5
 66
     1
 10
0
 20
0
 30
0.0
 70
     1
 40
0.107136
 41
0.107136
  0
VERTEX
  8
0
 10
1.00483
 20
2.14546
 30
0.0
 40
0.001488
 41
0.001488
  0
VERTEX
  8
0
 10
0.990018
 20
2.12397
 30
0.0
 40
0.001488
 41
0.001488
  0
VERTEX
  8
0
 10
0.980794
 20
2.09956
 30
0.0
 40
0.001488
 41
0.001488
  0
VERTEX
  8
0
 10
0.977647
 20
2.07368
 30
0.0
 40
0.001488
 41
0.001488
  0
VERTEX
  8
0
 10
0.980794
 20
2.04775
 30
0.0
 40
0.001488
 41
0.001488
  0
VERTEX
  8
0
 10
0.990018
 20
2.02333
 30
0.0
 40
0.001488
 41
0.001488
  0
VERTEX
  8
0
 10
1.00461
 20
2.00217
 30
0.0
 40
0.001488
 41
0.001488
  0
VERTEX
  8
0
 10
1.00483
 20
2.00185
 30
0.0
 40
0.001488
 41
0.001488
  0
VERTEX
  8
0
 10
1.02436
 20
1.98454
 30
0.0
 40
0.001488
 41
0.001488
  0
VERTEX
  8
0
 10
1.04753
 20
1.97239
 30
0.0
 40
0.001488
 41
0.001488
  0
VERTEX
  8
0
 10
1.07281
 20
1.96619
 30
0.0
 40
0.001488
 41
0.001488
  0
VERTEX
  8
0
 10
1.09896
 20
1.96619
 30
0.0
 40
0.001488
 41
0.001488
  0
VERTEX
  8
0
 10
1.12429
 20
1.97239
 30
0.0
 40
0.001488
 41
0.001488
  0
VERTEX
  8
0
 10
1.14741
 20
1.98454
 30
0.0
 40
0.001488
 41
0.001488
  0
VERTEX
  8
0
 10
1.16694
 20
2.00185
 30
0.0
 40
0.001488
 41
0.001488
  0
VERTEX
  8
0
 10
1.16716
 20
2.00217
 30
0.0
 40
0.001488
 41
0.001488
  0
VERTEX
  8
0
 10
1.17909
 20
2.01947
 30
0.0
 40
0.001488
 41
0.001488
  0
VERTEX
  8
0
 10
1.18175
 20
2.02333
 30
0.0
 40
0.001488
 41
0.001488
  0
VERTEX
  8
0
 10
1.19103
 20
2.04775
 30
0.0
 40
0.001488
 41
0.001488
  0
VERTEX
  8
0
 10
1.19417
 20
2.07368
 30
0.0
 40
0.001488
 41
0.001488
  0
VERTEX
  8
0
 10
1.19103
 20
2.09956
 30
0.0
 40
0.001488
 41
0.001488
  0
VERTEX
  8
0
 10
1.18175
 20
2.12397
 30
0.0
 40
0.001488
 41
0.001488
  0
VERTEX
  8
0
 10
1.17909
 20
2.12782
 30
0.0
 40
0.001488
 41
0.001488
  0
VERTEX
  8
0
 10
1.16694
 20
2.14546
 30
0.0
 40
0.001488
 41
0.001488
  0
VERTEX
  8
0
 10
1.14741
 20
2.16276
 30
0.0
 40
0.001488
 41
0.001488
  0
VERTEX
  8
0
 10
1.1461
 20
2.16342
 30
0.0
 40
0.001488
 41
0.001488
  0
VERTEX
  8
0
 10
1.12429
 20
2.17486
 30
0.0
 40
0.001488
 41
0.001488
  0
VERTEX
  8
0
 10
1.09896
 20
2.18115
 30
0.0
 40
0.001488
 41
0.001488
  0
VERTEX
  8
0
 10
1.07281
 20
2.18115
 30
0.0
 40
0.001488
 41
0.001488
  0
VERTEX
  8
0
 10
1.04753
 20
2.17486
 30
0.0
 40
0.001488
 41
0.001488
  0
VERTEX
  8
0
 10
1.02566
 20
2.16342
 30
0.0
 40
0.001488
 41
0.001488
  0
VERTEX
  8
0
 10
1.02436
 20
2.16276
 30
0.0
 40
0.001488
 41
0.001488
  0
VERTEX
  8
0
 10
1.00483
 20
2.14546
 30
0.0
 40
0.001488
 41
0.001488
  0
SEQEND
 8
0
  0
ENDSEC
  0
EOF
