<?xml version="1.0" standalone="no"?>
<!DOCTYPE svg PUBLIC "-//W3C//DTD SVG 1.1//EN"
  "http://www.w3.org/Graphics/SVG/1.1/DTD/svg11.dtd">
<svg width="518.6500244140625mm" height="256.99200439453125mm" viewBox="-259.32501220703125 -128.49600219726562 518.6500244140625 256.99200439453125" xmlns="http://www.w3.org/2000/svg" version="1.1">
	<title>svgOutput</title>
	<desc>made with tinkercad</desc>
<path d="M 242.125 83.88500213623047 L 238.63499450683594 88.28199768066406 L 234.8560028076172 92.43099975585938 L 230.8040008544922 96.31500244140625 L 229.37600708007812 97.50886535644531 L 228.42494201660156 98.30400085449219 L 226.4980010986328 99.91500091552734 L 221.95700073242188 103.21600341796875 L 217.20399475097656 106.19999694824219 L 212.25900268554688 108.85600280761719 L 207.14500427246094 111.16999816894531 L 201.88699340820312 113.13300323486328 L 196.60800170898438 114.70394134521484 L 196.5070037841797 114.73400115966797 L 191.031005859375 115.96700286865234 L 191.01373291015625 115.96980285644531 L 190.5283966064453 116.03606414794922 L 190.49346923828125 116.03900146484375 L 190.2480010986328 116.0530014038086 L 131.07200622558594 117.81988525390625 L 6.667302886002868e-13 121.73344421386719 L -131.07200622558594 125.64700317382812 L -192.9980010986328 127.49600219726562 L -193.36000061035156 127.49400329589844 L -193.7209930419922 127.46499633789062 L -194.07899475097656 127.41100311279297 L -196.60800170898438 126.84104919433594 L -199.3459930419922 126.2239990234375 L -204.5189971923828 124.68000030517578 L -209.5749969482422 122.78600311279297 L -214.49000549316406 120.5510025024414 L -219.24000549316406 117.98600006103516 L -223.8040008544922 115.10199737548828 L -228.16099548339844 111.91200256347656 L -232.28900146484375 108.43299865722656 L -236.1699981689453 104.68000030517578 L -239.78500366210938 100.66999816894531 L -241.64181518554688 98.30400085449219 L -243.1179962158203 96.4229965209961 L -246.1540069580078 91.95800018310547 L -248.8769989013672 87.2959976196289 L -251.27499389648438 82.45899963378906 L -251.49766540527344 81.91999816894531 L -253.33599853515625 77.47000122070312 L -255.05299377441406 72.35099792480469 L -256.4150085449219 67.12699890136719 L -256.7158203125 65.53600311279297 L -257.4179992675781 61.821998596191406 L -258.05499267578125 56.46099853515625 L -258.32501220703125 51.069000244140625 L -258.22601318359375 45.67100143432617 L -257.75799560546875 40.29199981689453 L -256.92401123046875 34.95800018310547 L -248.56871032714844 4.440892164675075e-17 L -232.90499877929688 -65.53600311279297 L -221.58599853515625 -112.89399719238281 L -221.21800231933594 -113.9209976196289 L -220.63699340820312 -114.84400177001953 L -219.86900329589844 -115.61799621582031 L -218.9510040283203 -116.20800018310547 L -217.92799377441406 -116.58499908447266 L -216.8470001220703 -116.7300033569336 L -215.4977264404297 -116.76339721679688 L -202.39053344726562 -117.0876693725586 L -196.60800170898438 -117.23072052001953 L -180.2239990234375 -117.63603210449219 L -163.83999633789062 -118.04135131835938 L -131.07200622558594 -118.85198211669922 L 9.076914025095417e-13 -122.0945053100586 L 122.33386993408203 -125.12086486816406 L 131.07200622558594 -125.33699798583984 L 135.44107055664062 -125.445068359375 L 163.83999633789062 -126.14767456054688 L 180.2239990234375 -126.55303192138672 L 196.60800170898438 -126.95838165283203 L 216.88839721679688 -127.46013641357422 L 218.33700561523438 -127.49600219726562 L 219.4669952392578 -127.3949966430664 L 220.54600524902344 -127.04199981689453 L 221.51600646972656 -126.45500183105469 L 222.3300018310547 -125.66500091552734 L 222.94400024414062 -124.71099853515625 L 223.3280029296875 -123.64399719238281 L 237.01223754882812 -65.53600311279297 L 252.4457550048828 4.440892164675075e-17 L 255.88400268554688 14.600000381469727 L 257.05999755859375 20.08799934387207 L 257.8609924316406 25.643999099731445 L 258.2829895019531 31.240999221801758 L 258.29443359375 32.768001556396484 L 258.32501220703125 36.85300064086914 L 257.9859924316406 42.45600128173828 L 257.2690124511719 48.02299880981445 L 256.17498779296875 53.52799987792969 L 254.71099853515625 58.946998596191406 L 253.4063262939453 62.73400115966797 L 252.88299560546875 64.25299835205078 L 252.34136962890625 65.53600311279297 L 250.6999969482422 69.42400360107422 L 248.17100524902344 74.43499755859375 L 245.30799865722656 79.26300048828125 L 242.125 83.88500213623047 M -188.41600036621094 -102.14389038085938 L -188.59237670898438 -102.4000015258789 L -188.63299560546875 -102.45899963378906 L -189.12899780273438 -102.89900207519531 L -189.71600341796875 -103.20700073242188 L -190.36000061035156 -103.36499786376953 L -191.0229949951172 -103.36499786376953 L -191.66700744628906 -103.20700073242188 L -192.25399780273438 -102.89900207519531 L -192.75 -102.45899963378906 L -192.79074096679688 -102.4000015258789 L -193.1269989013672 -101.91300201416016 L -193.36199951171875 -101.29299926757812 L -193.44200134277344 -100.63500213623047 L -193.36199951171875 -99.97699737548828 L -193.1269989013672 -99.35700225830078 L -192.75 -98.81199645996094 L -192.25399780273438 -98.37200164794922 L -192.12440490722656 -98.30400085449219 L -191.66700744628906 -98.06400299072266 L -191.0229949951172 -97.90499877929688 L -190.36000061035156 -97.90499877929688 L -189.71600341796875 -98.06400299072266 L -189.2585906982422 -98.30400085449219 L -189.12899780273438 -98.37200164794922 L -188.63299560546875 -98.81199645996094 L -188.41600036621094 -99.12653350830078 L -188.2570037841797 -99.35700225830078 L -188.02200317382812 -99.97699737548828 L -187.94200134277344 -100.63500213623047 L -188.02200317382812 -101.29299926757812 L -188.2570037841797 -101.91300201416016 L -188.41600036621094 -102.14389038085938 M 228.5500030517578 62.893001556396484 L 227.96299743652344 63.20100021362305 L 227.46600341796875 63.64099884033203 L 227.08999633789062 64.18599700927734 L 226.85499572753906 64.80599975585938 L 226.77499389648438 65.46399688720703 L 226.78375244140625 65.53600311279297 L 226.85499572753906 66.12200164794922 L 227.08999633789062 66.74199676513672 L 227.46600341796875 67.28800201416016 L 227.96299743652344 67.72699737548828 L 228.5500030517578 68.03500366210938 L 229.1929931640625 68.19400024414062 L 229.37600708007812 68.19400024414062 L 229.8560028076172 68.19400024414062 L 230.5 68.03500366210938 L 231.08700561523438 67.72699737548828 L 231.58299255371094 67.28800201416016 L 231.9600067138672 66.74199676513672 L 232.19500732421875 66.12200164794922 L 232.26625061035156 65.53600311279297 L 232.27499389648438 65.46399688720703 L 232.19500732421875 64.80599975585938 L 231.9600067138672 64.18599700927734 L 231.58299255371094 63.64099884033203 L 231.08700561523438 63.20100021362305 L 230.5 62.893001556396484 L 229.8560028076172 62.73400115966797 L 229.37600708007812 62.73400115966797 L 229.1929931640625 62.73400115966797 L 228.5500030517578 62.893001556396484 M 195.06700134277344 -112.25499725341797 L 194.83200073242188 -112.8740005493164 L 194.4550018310547 -113.41999816894531 L 193.95899963378906 -113.86000061035156 L 193.3719940185547 -114.16799926757812 L 192.72799682617188 -114.32599639892578 L 192.51199340820312 -114.32599639892578 L 192.06500244140625 -114.32599639892578 L 191.4219970703125 -114.16799926757812 L 190.8350067138672 -113.86000061035156 L 190.33799743652344 -113.41999816894531 L 189.96200561523438 -112.8740005493164 L 189.7270050048828 -112.25499725341797 L 189.64700317382812 -111.59600067138672 L 189.7270050048828 -110.93800354003906 L 189.85813903808594 -110.59200286865234 L 189.96200561523438 -110.31800079345703 L 190.33799743652344 -109.77300262451172 L 190.8350067138672 -109.33300018310547 L 191.4219970703125 -109.0250015258789 L 192.06500244140625 -108.86599731445312 L 192.72799682617188 -108.86599731445312 L 193.3719940185547 -109.0250015258789 L 193.95899963378906 -109.33300018310547 L 194.4550018310547 -109.77300262451172 L 194.83200073242188 -110.31800079345703 L 194.93585205078125 -110.59200286865234 L 195.06700134277344 -110.93800354003906 L 195.14700317382812 -111.59600067138672 L 195.06700134277344 -112.25499725341797 M -233.802001953125 74.18499755859375 L -234.17799377441406 74.7300033569336 L -234.41299438476562 75.3499984741211 L -234.4929962158203 76.00800323486328 L -234.41299438476562 76.66600036621094 L -234.17799377441406 77.28600311279297 L -233.80751037597656 77.8239974975586 L -233.802001953125 77.83200073242188 L -233.30599975585938 78.27200317382812 L -232.71800231933594 78.58000183105469 L -232.0749969482422 78.73799896240234 L -231.41200256347656 78.73799896240234 L -230.76800537109375 78.58000183105469 L -230.18099975585938 78.27200317382812 L -229.68499755859375 77.83200073242188 L -229.67947387695312 77.8239974975586 L -229.37600708007812 77.38448333740234 L -229.30799865722656 77.28600311279297 L -229.072998046875 76.66600036621094 L -228.9929962158203 76.00800323486328 L -229.072998046875 75.3499984741211 L -229.30799865722656 74.7300033569336 L -229.37600708007812 74.63169860839844 L -229.68499755859375 74.18499755859375 L -230.18099975585938 73.74500274658203 L -230.21339416503906 73.72799682617188 L -230.76800537109375 73.43699645996094 L -231.41200256347656 73.27799987792969 L -232.0749969482422 73.27799987792969 L -232.71800231933594 73.43699645996094 L -233.27354431152344 73.72799682617188 L -233.30599975585938 73.74500274658203 L -233.802001953125 74.18499755859375 z" fill="none" stroke="rgb(0,0,255)" stroke-width="0.01mm" />
</svg>